<?xml version="1.0" encoding="UTF-8"?>
<svg id="_圖層_2" data-name="圖層 2" xmlns="http://www.w3.org/2000/svg" xmlns:xlink="http://www.w3.org/1999/xlink" viewBox="0 0 161.14 227.32">
  <defs>
    <style>
      .cls-1 {
        fill: #fff;
      }

      .cls-2 {
        fill: #604c3f;
      }

      .cls-3 {
        fill: #3e3a39;
        stroke: #231815;
        stroke-miterlimit: 10;
      }

      .cls-4 {
        fill: url(#_未命名漸層_117);
      }

      .cls-5 {
        fill: #c9a063;
      }

      .cls-6 {
        fill: #956134;
      }

      .cls-7 {
        fill: #ef8586;
      }

      .cls-8 {
        fill: #595757;
      }

      .cls-9 {
        fill: #301200;
      }

      .cls-10 {
        fill: #e2aa90;
      }

      .cls-11 {
        fill: url(#_未命名漸層_96-2);
      }

      .cls-12 {
        fill: #b5b5b6;
      }

      .cls-13 {
        fill: #231815;
      }

      .cls-14 {
        fill: url(#_未命名漸層_96);
      }

      .cls-15 {
        fill: #9fa0a0;
      }

      .cls-16 {
        fill: #facfaf;
      }

      .cls-17 {
        fill: #b28247;
      }

      .cls-18 {
        fill: #aa1f24;
      }
    </style>
    <linearGradient id="_未命名漸層_96" data-name="未命名漸層 96" x1="26.27" y1="105.56" x2="47" y2="105.56" gradientTransform="translate(37.88 -2.98) rotate(174.96) scale(1 -1)" gradientUnits="userSpaceOnUse">
      <stop offset="0" stop-color="#9c816d"/>
      <stop offset="0" stop-color="#9e826e"/>
      <stop offset=".09" stop-color="#ba9a82"/>
      <stop offset=".19" stop-color="#d1ad92"/>
      <stop offset=".3" stop-color="#e3bc9f"/>
      <stop offset=".43" stop-color="#f0c7a8"/>
      <stop offset=".61" stop-color="#f7cdad"/>
      <stop offset="1" stop-color="#facfaf"/>
    </linearGradient>
    <linearGradient id="_未命名漸層_96-2" data-name="未命名漸層 96" x1="-42.13" y1="110.52" x2="-21.4" y2="110.52" gradientTransform="translate(189.36 -2.98) rotate(5.04)" xlink:href="#_未命名漸層_96"/>
    <linearGradient id="_未命名漸層_117" data-name="未命名漸層 117" x1="63.9" y1="177.01" x2="95.6" y2="177.01" gradientUnits="userSpaceOnUse">
      <stop offset="0" stop-color="#d8b398"/>
      <stop offset=".1" stop-color="#e5bea1"/>
      <stop offset=".24" stop-color="#f4caab"/>
      <stop offset=".36" stop-color="#facfaf"/>
      <stop offset=".55" stop-color="#fad0b0"/>
      <stop offset=".62" stop-color="#fad4b7"/>
      <stop offset=".65" stop-color="#fbd8be"/>
    </linearGradient>
  </defs>
  <g id="_圖層_1-2" data-name="圖層 1">
    <path class="cls-14" d="m18.42,82.54c-.54-.22-1.09-.44-1.64-.65-3.92.23-7.81.95-11.01,3.59-1.89,1.56-2.99,3.64-4.07,5.72-.05.17-.11.34-.18.5-.21.48-.43.96-.65,1.44,0,.26,0,.52-.05.78l-.36,1.23s-.04.08-.06.12l-.08,1.45c-.35,2.3-.43,4.71-.21,7.17,1.23,13.93,11.47,24.4,22.87,23.39l-3.93-44.54c-.21-.06-.43-.11-.64-.2Z"/>
    <path class="cls-11" d="m140.25,81.48c.54-.22,1.09-.44,1.64-.65,3.92.23,7.81.95,11.01,3.59,1.89,1.56,2.99,3.64,4.07,5.72.05.17.11.34.18.5.21.48.43.96.65,1.44,0,.26,0,.52.05.78l.36,1.23s.04.08.06.12l.08,1.45c.35,2.3.43,4.71.21,7.17-1.23,13.93-11.47,24.4-22.87,23.39l3.93-44.54c.21-.06.43-.11.64-.2Z"/>
    <rect class="cls-16" x="17.96" y="49.32" width="122.8" height="115.85" rx="43.71" ry="43.71"/>
    <path class="cls-15" d="m78.56,195.54h-.19l-11.78-.22c-1.39-.09-2.77-.19-4.11-.3-.45-.03-.9-.07-1.34-.11-.89-.08-1.77-.17-2.64-.26-.64-.06-1.28-.13-1.91-.21-.31-.03-.62-.07-.93-.11-.33-.04-.66-.08-.98-.12-.38-.05-.77-.1-1.15-.15-.03,0-.05-.01-.08-.01-.41-.06-.82-.12-1.22-.17-.49-.07-.97-.14-1.45-.22-.71-.11-1.4-.22-2.08-.34-.77-.13-1.51-.26-2.25-.4-.37-.07-.73-.14-1.09-.21-.72-.14-1.43-.29-2.12-.44-1.42-.32-2.77-.65-4.05-.99-.89-.24-1.75-.49-2.58-.75-.28-.09-.56-.18-.84-.27-.27-.1-.55-.19-.81-.28-.27-.1-.53-.19-.79-.28-.51-.19-1.01-.39-1.48-.58-.24-.1-.47-.2-.7-.3-.24-.11-.48-.21-.72-.32-.11-.05-.22-.1-.32-.15-.12-.06-.24-.11-.35-.17-.22-.11-.43-.22-.64-.33-.62-.34-1.19-.67-1.7-1.02-.46-.32-.87-.64-1.24-.97-.3-.27-.57-.54-.8-.81l3.45-5.11,2.56-3.8c1.63-4.3,8.47-8.07,18.38-10.59.77.22,1.54.43,2.32.61,0,0,0,.01.02.01,3.19,1.37,6.5,2.5,9.92,3.38.39.09.79.19,1.18.28-.1.2-.15.43-.15.67v1.22c-7.95.86-14.58,2.5-18.76,4.61-1.26.63-2.29,1.3-3.07,2.01,1.13,1.09,2.98,2.07,5.39,2.89,1.44.5,3.1.94,4.91,1.32.08.03.16.05.24.05.64.16,1.28.29,1.93.4.02,0,.04.01.06.01.04,0,.07,0,.11.02.54.09,1.09.16,1.63.23.18.02.37.02.56.03.07.01.13.01.19.02.08.02.16.03.24.03.08.02.16.04.23.08l.28.16s.04.03.05.03.03.01.04.02c.11.09.22.17.33.24,0,0,.01,0,.01.01.15.08.28.16.43.23.26.15.53.28.8.42.04.02.07.04.11.06.05.03.11.06.16.09,1.73,1,3.46,2,5.19,3,3.64,2.1,7.3,4.21,10.94,6.32.12.07.23.13.35.2.74.43,1.48.85,2.22,1.28l.03.02.06.04Z"/>
    <path class="cls-15" d="m129.78,178.65l-1.61-2.39h0c-1.6-4.48-8.81-8.38-19.24-10.92-.75.23-1.51.45-2.28.64h-.01c-3.23,1.43-6.59,2.6-10.07,3.5-.39.1-.77.19-1.16.28.13.22.19.47.19.74v7.38h.03v-6.3c7.95.83,14.58,2.43,18.76,4.48,1.26.61,2.29,1.26,3.07,1.95-.12.11-.25.22-.38.33t-.02,0c-.73.61-1.7,1.16-2.86,1.66h0c-.3.14-.61.27-.94.39-.38.15-.77.29-1.19.43-1.3.44-2.77.83-4.37,1.17,0,.01.01.01.01.02-.24.05-.48.1-.72.13-.05,0-.1.02-.15.02-.62.13-1.26.24-1.92.34-.03.01-.05.01-.08.02-.4.09-.82.14-1.23.2-.31.04-.62.09-.93.11-.06,0-.13,0-.19,0h-.04c-.12.02-.25.04-.38.05h-.01c-.06,0-.1,0-.16.02h-.01s-.09.04-.13.06c-.01,0-.02.01-.03.01-.1.05-.2.11-.29.17-.17.09-.33.18-.5.27-.33.19-.65.37-.98.55-.65.37-1.3.74-1.95,1.1-2.24,1.26-4.48,2.52-6.73,3.77-3.08,1.74-6.18,3.47-9.27,5.21h-.01c-.63.35-1.24.7-1.87,1.05-.23.13-.45.25-.68.38l-.08.05c.1,0,.21.01.32.01h.12l1.69-.03h.13s12.75-.23,12.75-.23h.09c.19-.02.37-.03.55-.04h.05c.77-.05,1.54-.11,2.3-.17.19-.02.38-.03.58-.05.56-.05,1.12-.1,1.67-.15.38-.03.75-.07,1.13-.11.46-.04.92-.09,1.37-.14.46-.05.91-.1,1.36-.15,1.13-.13,2.23-.26,3.31-.41.03,0,.05-.01.08-.01.41-.06.82-.12,1.22-.17.49-.07.97-.14,1.45-.22.71-.11,1.4-.22,2.08-.34.39-.06.76-.13,1.14-.2.37-.06.74-.13,1.11-.2.37-.07.73-.14,1.09-.21.72-.14,1.43-.29,2.12-.44.43-.1.86-.2,1.28-.3.31-.07.63-.15.94-.22.2-.04.41-.09.61-.15.1-.03.2-.05.3-.08.31-.08.62-.16.92-.24.67-.18,1.32-.37,1.96-.56.21-.06.42-.13.62-.19.28-.09.56-.18.84-.27.27-.1.55-.19.81-.28.27-.1.53-.19.79-.28.01,0,.03-.01.04-.01.5-.19.98-.39,1.44-.57.24-.1.47-.2.7-.3.24-.11.48-.21.72-.32.23-.11.45-.21.67-.32.22-.11.43-.22.64-.33.62-.34,1.19-.67,1.7-1.02.04-.03.08-.06.12-.09.41-.29.78-.58,1.12-.88.3-.27.57-.54.8-.81l-4.32-6.4Zm-2.88-3.48c.25.09.49.18.72.27l.02.03c-.24-.1-.49-.2-.74-.3Z"/>
    <path class="cls-15" d="m117.46,178.01c-.12.11-.25.22-.38.33t-.02,0c-.73.61-1.7,1.16-2.86,1.66h0c-.3.14-.61.27-.94.39-.38.15-.77.29-1.19.43-1.3.44-2.77.83-4.37,1.17,0,.01.01.01.01.02-.24.05-.48.1-.72.13-.05,0-.1.02-.15.02-.62.13-1.26.24-1.92.34-.03.01-.05.01-.08.02-.4.09-.82.14-1.23.2-.31.04-.62.09-.93.11-.06,0-.13,0-.19,0h-.04c-.12.02-.25.04-.38.05h-.01c-.06,0-.1,0-.16.02h-.01s-.09.04-.13.06c-.01,0-.02.01-.03.01-.1.05-.2.11-.29.17-.17.09-.33.18-.5.27-.33.19-.65.37-.98.55-.65.37-1.3.74-1.95,1.1-2.24,1.26-4.48,2.52-6.73,3.77-3.08,1.74-6.18,3.47-9.27,5.21h-.01c-.61.01-1.21.01-1.82.01-1.44,0-2.87-.02-4.28-.06-3.64-2.11-7.3-4.22-10.94-6.32-1.73-1-3.46-2-5.19-3-.05-.03-.11-.06-.16-.09-.04-.02-.07-.04-.11-.06-.27-.14-.54-.27-.8-.42-.15-.07-.28-.15-.43-.23,0-.01-.01-.01-.01-.01-.11-.07-.22-.15-.33-.24-.01-.01-.03-.02-.04-.02s-.03-.01-.05-.03l-.28-.16c-.07-.04-.15-.06-.23-.08-.07,0-.15-.02-.24-.03-.06-.01-.12-.01-.19-.02-.19-.01-.38-.01-.56-.03-.54-.07-1.09-.14-1.63-.23-.04-.01-.07-.01-.11-.02-.02,0-.04-.01-.06-.01-.65-.11-1.29-.24-1.93-.4-.08,0-.16-.02-.24-.05-1.81-.38-3.47-.82-4.91-1.32-2.41-.82-4.26-1.8-5.39-2.89.78-.71,1.81-1.38,3.07-2.01,4.18-2.11,10.81-3.75,18.76-4.61v-1.22c0-.24.05-.47.15-.67-.39-.09-.79-.19-1.18-.28-3.42-.88-6.73-2.01-9.92-3.38-.01,0-.01-.01-.02-.01-.78-.18-1.55-.39-2.32-.61.2-.06.41-.11.61-.16,8.07-2,18.09-3.18,28.96-3.18s20.24,1.1,28.17,2.99c.19.04.39.09.58.14-.75.23-1.51.45-2.28.64h-.01c-3.23,1.43-6.59,2.6-10.07,3.5-.39.1-.77.19-1.16.28.13.22.19.47.19.74v7.38h.03v-6.3c7.95.83,14.58,2.43,18.76,4.48,1.26.61,2.29,1.26,3.07,1.95Z"/>
    <path class="cls-17" d="m127.64,175.47c-.24-.1-.49-.2-.74-.3.25.09.49.18.72.27l.02.03Z"/>
    <path class="cls-17" d="m58.74,183.85c0,.08-.01.16-.03.23,0,0,0,.02-.01.03-.15-.07-.28-.15-.43-.23,0-.01-.01-.01-.01-.01-.11-.07-.22-.15-.33-.24-.01-.01-.03-.02-.04-.02s-.03-.01-.05-.03l-.28-.16c-.07-.04-.15-.06-.23-.08-.08,0-.16,0-.24-.03-.06-.01-.12-.01-.19-.02-.19-.01-.38-.01-.56-.03-.54-.07-1.09-.14-1.63-.23-.04-.01-.07-.01-.11-.02-.02,0-.04-.01-.06-.01,0-.01.02-.03.03-.04.42-.4,1.1-.66,1.88-.66.09,0,.17,0,.25.02.34.01.66.09.94.21.66.26,1.1.76,1.1,1.32Z"/>
    <path class="cls-5" d="m58.74,183.85c0,.08-.01.16-.03.23l-.41-.24-.37-.21s-.03-.02-.04-.02-.03-.01-.05-.03l-.28-.16-.06-.04s-.02-.01-.03-.02c.06.01.11.01.17.02v-.85c.66.26,1.1.76,1.1,1.32Z"/>
    <path class="cls-5" d="m63.9,183.52v-5.18h31.7v5.18c0,.9-.73,1.63-1.63,1.63h-28.44c-.9,0-1.63-.73-1.63-1.63Z"/>
    <path class="cls-5" d="m110.02,178.34l-6.75,3.78c.4-1.22.61-2.48.62-3.78h6.13Z"/>
    <path class="cls-18" d="m117.06,178.34c-.73.61-1.7,1.16-2.86,1.66.46-.71,1.46-1.27,2.86-1.66Z"/>
    <path class="cls-12" d="m161.14,227.32H.8c.06-.94.17-1.88.35-2.83l3.67-19.49c.18-.97.43-1.92.74-2.84,0-.02.01-.05.02-.08,1.31-5.91,4.81-11.19,9.79-15.27,2.13-1.74,4.54-3.26,7.16-4.51.01-.01.03-.02.04-.02,1.76-.98,4.24-1.82,7.1-2.34l-3.45,5.11c.23.27.5.54.8.81.37.33.78.65,1.24.97.51.35,1.08.68,1.7,1.02.21.11.42.22.64.33.11.06.23.11.35.17.1.05.21.1.32.15.24.11.48.21.72.32.23.1.46.2.7.3.47.19.97.39,1.48.58.26.09.52.18.79.28.26.09.54.18.81.28.28.09.56.18.84.27.83.26,1.69.51,2.58.75,1.28.34,2.63.67,4.05.99.69.15,1.4.3,2.12.44.36.07.72.14,1.09.21.74.14,1.48.27,2.25.4.68.12,1.37.23,2.08.34.48.08.96.15,1.45.22.4.05.81.11,1.22.17.03,0,.05.01.08.01.38.05.77.1,1.15.15.32.04.65.08.98.12.31.04.62.08.93.11.63.08,1.27.15,1.91.21.87.09,1.75.18,2.64.26.44.04.89.08,1.34.11,1.34.11,2.72.21,4.11.3l11.78.22h.19l-.06-.04c.29.01.58.03.87.03.1,0,.21.01.32.01h.12l1.69-.03h.13s12.75-.23,12.75-.23h.09c.19-.02.37-.03.55-.04h.05c.77-.05,1.54-.11,2.3-.17.19-.02.38-.03.58-.05.56-.05,1.12-.1,1.67-.15.38-.03.75-.07,1.13-.11.46-.04.92-.09,1.37-.14.46-.05.91-.1,1.36-.15,1.13-.13,2.23-.26,3.31-.41.03,0,.05-.01.08-.01.41-.06.82-.12,1.22-.17.49-.07.97-.14,1.45-.22.71-.11,1.4-.22,2.08-.34.39-.06.76-.13,1.14-.2.37-.06.74-.13,1.11-.2.37-.07.73-.14,1.09-.21.72-.14,1.43-.29,2.12-.44.43-.1.86-.2,1.28-.3.31-.07.63-.15.94-.22.2-.04.41-.09.61-.15.2-.05.41-.1.61-.15.21-.05.41-.11.61-.17.12-.02.23-.06.35-.09.31-.08.62-.17.93-.26.23-.07.46-.13.68-.21.21-.06.42-.13.62-.19.28-.09.56-.18.84-.27.44-.14.86-.28,1.27-.43.05-.01.1-.03.15-.05.03-.01.06-.02.09-.04.03-.01.06-.02.09-.04.01,0,.03-.01.04-.01.16-.04.3-.1.45-.16,1.03-.39,1.98-.79,2.84-1.21,1.05-.51,1.97-1.04,2.75-1.59-.02,0-.03,0-.05.01.41-.29.78-.58,1.12-.88.3-.27.57-.54.8-.81l-4.32-6.4c1.92.46,3.62,1.06,4.97,1.74.01,0,.03,0,.04,0,11.5,3.76,20.02,12.31,21.87,22.64.18.64.33,1.29.46,1.96l3.67,19.49c.18.95.29,1.89.35,2.83Z"/>
    <path class="cls-17" d="m117.06,178.34c-.73.61-1.7,1.16-2.86,1.66h0c-.3.14-.61.27-.94.39l.97-2.05h2.83Z"/>
    <path class="cls-17" d="m121.13,191.28c-.2.06-.4.12-.61.17-.1.03-.21.05-.31.07.31-.08.62-.16.92-.24Z"/>
    <path class="cls-17" d="m123.09,190.72c-.22.08-.45.14-.68.21-.31.09-.62.18-.93.26-.12.03-.23.07-.35.09.67-.18,1.32-.37,1.96-.56Z"/>
    <path class="cls-17" d="m126.15,189.7s-.06.03-.09.04c-.03.02-.06.03-.09.04-.05.02-.1.04-.15.05-.41.15-.83.29-1.27.43.27-.1.55-.19.81-.28.27-.1.53-.19.79-.28Z"/>
    <path class="cls-17" d="m58.74,183.85c0,.08-.01.16-.03.23l-.41-.24-.37-.21s-.03-.02-.04-.02-.03-.01-.05-.03l-.28-.16-.06-.04s-.02-.01-.03-.02c.06.01.11.01.17.02v-.85c.66.26,1.1.76,1.1,1.32Z"/>
    <path class="cls-17" d="m94.38,195.28c-4.52.29-9.29.45-14.2.45s-9.24-.14-13.59-.41l11.78.22h.19l-.06-.04c.29.01.58.03.87.03.1,0,.21.01.32.01h.12l1.69-.03h.13s12.75-.23,12.75-.23Z"/>
    <path class="cls-17" d="m103.89,178.2v.14h-8.29v5.18c0,.9-.73,1.63-1.63,1.63h-28.44c-.9,0-1.63-.73-1.63-1.63v-5.18h.03v-.14h-.03v-7.7c0-.24.05-.47.15-.67-.39-.09-.79-.19-1.18-.28.48-.05.96-.08,1.44-.11,5.03-.37,10.35-.57,15.87-.57,5.19,0,10.21.17,14.96.51.48.02.96.06,1.43.1-.39.1-.77.19-1.16.28.13.22.19.47.19.74v7.7h8.29Z"/>
    <path class="cls-17" d="m103.27,182.12c.4-1.22.61-2.48.62-3.78h6.13l-6.75,3.78Z"/>
    <path class="cls-16" d="m140.42,103.03v13.56c0,1.71-.08,3.41-.23,5.08-1.93,20.63-15.47,37.74-33.45,43.67-.7.23-1.41.45-2.13.64h0c-3.76,1.04-7.7,1.59-11.76,1.59h-27.28c-3.81,0-7.51-.49-11.07-1.4,0,0,0-.01-.02-.01-.73-.18-1.45-.39-2.17-.61-18.86-5.91-32.99-24.06-34.25-45.79v-.02h0c-.07-1.05-.09-2.1-.09-3.15v-13.56c0-28.04,21.42-50.99,47.59-50.99h27.28c26.17,0,47.58,22.95,47.58,50.99Z"/>
    <path class="cls-4" d="m95.6,170.5v13.02c0,.9-.73,1.63-1.63,1.63h-28.44c-.9,0-1.63-.73-1.63-1.63v-13.02c0-.24.05-.47.15-.67.06-.14.14-.27.26-.39.28-.35.72-.57,1.22-.57h28.44c.46,0,.88.19,1.17.51.12.11.21.24.27.38.13.22.19.47.19.74Z"/>
    <path class="cls-16" d="m142.33,68.64v35.51c0,6.06-.75,11.93-2.15,17.52-4.83,19.29-17.44,35.17-33.99,43.53-.52.27-1.05.53-1.59.78h0c-3.01,1.43-6.15,2.6-9.4,3.5-.36.1-.72.19-1.08.28-4.73,1.22-9.68,1.87-14.77,1.87s-9.85-.62-14.5-1.8c-.36-.09-.74-.19-1.1-.28-3.19-.88-6.28-2.01-9.26-3.38,0,0,0-.01-.02-.01-.54-.25-1.07-.5-1.6-.77-17.3-8.59-30.33-25.33-34.82-45.63v-.02h0c-1.1-5.01-1.69-10.23-1.69-15.59v-35.51C16.37,31.37,44.56,1.16,79.35,1.16c17.4,0,33.14,7.55,44.54,19.76,11.4,12.22,18.44,29.08,18.44,47.72Z"/>
    <g>
      <ellipse class="cls-13" cx="53.17" cy="100.74" rx="9.13" ry="8.83"/>
      <ellipse class="cls-1" cx="51.74" cy="97.74" rx="4.7" ry="3.9"/>
    </g>
    <g>
      <ellipse class="cls-13" cx="108.4" cy="100.74" rx="9.13" ry="8.83"/>
      <ellipse class="cls-1" cx="106.97" cy="97.74" rx="4.7" ry="3.9"/>
    </g>
    <path class="cls-13" d="m147.18,94.69s.02-.11.03-.17c.04.06.08.11.12.17h-.15Z"/>
    <path class="cls-10" d="m88.46,119.44c0,3.19-3.75,5.77-8.38,5.77s-8.38-2.59-8.38-5.77h.51c1.18,2.21,4.26,3.79,7.87,3.79s6.69-1.58,7.87-3.79h.51Z"/>
    <path class="cls-9" d="m33.27,84.51c-.27-2.94,7.12-6.02,16.51-6.89,9.39-.87,17.22.81,17.49,3.75.04.41-.07.82-.32,1.23-.45.75-1.42,1.12-2.32.88-3.15-.84-8.44-1.09-14.36-.54s-11.08,1.77-14.02,3.17c-.84.4-1.86.21-2.44-.44-.32-.36-.5-.74-.54-1.15Z"/>
    <path class="cls-16" d="m81.5,195.51c-.46.02-.92.03-1.39.03h-.3l1.69-.03Z"/>
    <path class="cls-7" d="m92.48,145.17c2.14-1.15,4.63-3.57,4.36-6.74-.09-1.1-31.72-2.71-33.53,1.55,5.04,10.84,21.19,9.49,29.17,5.19Z"/>
    <path class="cls-9" d="m126.75,84.51c.27-2.94-7.12-6.02-16.51-6.89-9.39-.87-17.22.81-17.49,3.75-.04.41.07.82.32,1.23.45.75,1.42,1.12,2.32.88,3.15-.84,8.44-1.09,14.36-.54s11.08,1.77,14.02,3.17c.84.4,1.86.21,2.44-.44.32-.36.5-.74.54-1.15Z"/>
    <path class="cls-17" d="m79.69,195.54h-.34.02c.1-.01.21,0,.32,0Z"/>
    <path class="cls-17" d="m125.82,189.83c-6.86,2.61-17.7,4.58-30.51,5.43h-.84c.19,0,.37-.01.55-.02h.05c.77-.05,1.54-.11,2.3-.17.19-.02.38-.03.58-.05.56-.05,1.12-.1,1.67-.15.38-.03.75-.07,1.13-.11.46-.04.92-.09,1.37-.14.46-.05.91-.1,1.36-.15,1.13-.13,2.23-.26,3.31-.41.03,0,.05-.01.08-.01.41-.06.82-.12,1.22-.17.49-.07.97-.14,1.45-.22.71-.11,1.4-.22,2.08-.34.39-.06.76-.13,1.14-.2.37-.06.74-.13,1.11-.2.37-.07.73-.14,1.09-.21.72-.14,1.43-.29,2.12-.44.43-.1.86-.2,1.28-.3.31-.07.63-.15.94-.22.2-.04.41-.09.61-.15.2-.05.41-.1.61-.15.21-.05.41-.11.61-.17.12-.02.23-.06.35-.09.31-.08.62-.17.93-.26.23-.07.46-.13.68-.21.21-.06.42-.13.62-.19.28-.09.56-.18.84-.27.44-.14.86-.28,1.27-.43Z"/>
    <path class="cls-17" d="m54.59,182.96s0,.03.01.05c-.02,0-.04-.01-.06-.01-.65-.11-1.29-.24-1.93-.4.64.13,1.29.25,1.96.36h.02Z"/>
    <path class="cls-17" d="m59.5,184.53c-.27-.14-.54-.27-.8-.42-.15-.07-.28-.15-.43-.23.01-.01.02-.03.03-.04l.41.24.79.45Z"/>
    <path class="cls-17" d="m126.19,189.69s-.09.04-.13.05c.03-.01.06-.02.09-.04.01,0,.03-.01.04-.01Z"/>
    <path class="cls-17" d="m117.46,178.01c-.12.11-.25.22-.38.33t-.02,0h-2.83l-.97,2.05c-.38.15-.77.29-1.19.43-1.3.44-2.77.83-4.37,1.17,0,.01.01.01.01.02-.24.05-.48.1-.72.13-.05,0-.1.02-.15.02-.62.13-1.26.24-1.92.34-.03.01-.05.01-.08.02-.4.09-.82.14-1.23.2-.31.04-.62.09-.93.11-.06,0-.13,0-.19,0h-.04c-.12.02-.25.04-.38.05h-.01c-.06,0-.1,0-.16.02h-.01s-.09.04-.13.06l.13-.08,1.38-.77,3.2-1.79,3.55-1.99h-6.13v-.14h-8.29v-.32h.03v-6.3c7.95.83,14.58,2.43,18.76,4.48,1.26.61,2.29,1.26,3.07,1.95Z"/>
    <path class="cls-17" d="m127.64,175.47c-.24-.1-.49-.2-.74-.3.25.09.49.18.72.27l.02.03Z"/>
    <path class="cls-17" d="m117.06,178.34c-.73.61-1.7,1.16-2.86,1.66h0c-.3.14-.61.27-.94.39l.97-2.05h2.83Z"/>
    <rect class="cls-2" x="63.9" y="171.72" width=".03" height="6.48"/>
    <path class="cls-8" d="m63.93,178.2v.14h-6.29v5.04c-.06-.01-.11-.01-.17-.02h-.02s-.08-.01-.12-.02c-.08,0-.16,0-.24-.03-.06-.01-.12-.01-.19-.02-.79-.1-1.55-.21-2.31-.33h-.02c-.67-.11-1.32-.23-1.96-.36-.08,0-.16-.02-.24-.05-1.81-.38-3.47-.82-4.91-1.32-2.41-.82-4.26-1.8-5.39-2.89.78-.71,1.81-1.38,3.07-2.01,4.18-2.11,10.81-3.75,18.76-4.61v6.48h.03Z"/>
    <path class="cls-8" d="m117.46,178.01c-.12.11-.25.22-.38.33t-.02,0c-.73.61-1.7,1.16-2.86,1.66h0c-.3.14-.61.27-.94.39-.38.15-.77.29-1.19.43-1.3.44-2.77.83-4.37,1.17-.23.05-.47.1-.71.15-.05,0-.1.02-.15.02-.62.13-1.26.24-1.92.34-.03.01-.05.01-.08.02-.76.12-1.54.22-2.35.32h-.04c-.12.02-.25.04-.38.05h-.01c-.06,0-.1,0-.16.02h-.01v-4.9h-6.29v-.13h.03v-6.3c7.95.83,14.58,2.43,18.76,4.48,1.26.61,2.29,1.26,3.07,1.95Z"/>
    <path class="cls-16" d="m107.71,182.01c-.24.05-.48.1-.72.13-.05,0-.1.02-.15.02-.64.11-1.29.19-1.92.34-.03.01-.05.01-.08.02-.4.09-.82.14-1.23.2-.31.04-.62.09-.93.11-.06,0-.13,0-.19,0h-.04c-.18,0-.36.01-.53.06t-.02.01h-.01s-.09.04-.13.06c-.01,0-.02.01-.03.01-.1.05-.2.11-.29.17-.17.09-.33.18-.5.27-.33.19-.65.37-.98.55-.65.37-1.3.74-1.95,1.1-2.24,1.26-4.48,2.52-6.73,3.77-3.08,1.74-6.18,3.47-9.27,5.21h-.01c-.63.35-1.24.7-1.87,1.05-.23.13-.45.25-.68.38l-.08.05c-.29,0-.58-.02-.87-.03l-.03-.02c-.74-.43-1.48-.85-2.22-1.28-.12-.07-.23-.13-.35-.2-3.64-2.11-7.3-4.22-10.94-6.32-1.73-1-3.46-2-5.19-3-.05-.03-.11-.06-.16-.09-.04-.02-.07-.04-.11-.06-.27-.14-.54-.27-.8-.42-.15-.07-.28-.15-.43-.23,0-.01-.01-.01-.01-.01-.11-.07-.22-.15-.33-.24-.01-.01-.03-.02-.04-.02s-.03-.01-.05-.03c-.02-.02-.04-.04-.05-.05-.07-.05-.15-.09-.23-.11-.07-.04-.15-.06-.23-.08-.07,0-.15-.02-.24-.03-.06-.01-.12-.01-.19-.02-.19-.01-.38-.01-.56-.03-.54-.07-1.09-.14-1.63-.23-.04-.01-.07-.01-.11-.02-.02,0-.04-.01-.06-.01-.65-.11-1.29-.24-1.93-.4-.08,0-.16-.02-.24-.05-.3-.06-.59-.13-.88-.21.19-1.12.99-1.95,1.9-2.58.92-.63,1.96-1.11,3.06-1.33.64-.12,1.26-.11,1.88-.09.39.01.78.02,1.17,0,.69-.04,1.4-.04,2.1-.03h.04c.76.01,1.51.03,2.26.03v5.18c0,.9.73,1.63,1.63,1.63h28.44c.9,0,1.63-.73,1.63-1.63v-2.71c0-.77-.04-1.54,0-2.31v-.16s.01-.09.01-.14v-.03c.38.03.72.01,1.09-.03.42-.04.87-.01,1.3-.01,1.27,0,2.6-.1,3.89.02.14.01.28.03.41.05.26.03.52.08.78.14.17.04.35.09.52.14.1.03.19.06.28.1.09.03.17.06.25.09.78.32,1.49.8,2.09,1.38.09.09.18.18.25.28.22.22.4.45.57.69.12.18.24.36.34.54.09.16.24.27.32.43,0,.01.01.01.01.02Z"/>
    <path class="cls-16" d="m95.63,178.2h-31.7v.14s-.01,0-.03,0c-.26-.07-2.46-.03-3.42,0h3.42v5.18c0,.9.73,1.63,1.63,1.63h28.44c.9,0,1.63-.73,1.63-1.63v-5.18h.04s0-.09,0-.14Z"/>
    <path class="cls-6" d="m104.79,47.27c-3.35,4.53-7.07,8.75-11.11,12.6.54-3.69.64-7.45.31-11.17-.36,5.43-3.12,10.45-6.77,14.3-2.62,2.77-5.7,5.01-8.75,7.24,1.84-6.16,2.12-12.83.81-19.14-.57,5.87-4.56,11.41-9.1,14.64-1.86,1.32-4,2.24-6.24,2.43,2.82-5.13,3.97-10.91,3.1-16.8.06,1.06-.71,1.96-1.46,2.67-2.61,2.48-5.6,4.51-8.82,5.98.41-2.67.51-5.4.3-8.09-1.33,3.3-3.88,5.94-6.81,7.77s-6.23,2.89-9.56,3.65c1.97-1.63,2.98-4.29,3.21-6.92.16-1.85.29-9.35-2.38-5.74-1.86,2.52-3.72,4.82-6.1,6.83-2.95,2.49-6.22,4.37-9.59,6.13-2.73,1.43-4.89,4.3-5.61,7.42-.63,2.72-.81,5.65-1.25,8.4-.5,3.14-1.24,6.21-1.6,9.38-.27,2.34.12,5.55-1.05,7.55-2.25-1.08-1.15-13.58-1.21-16.42-.12-6.21-.16-12.44.26-18.64C17.65,27.63,45.97,2.06,77.61,2.06h5.44c8.06,0,16.1,1.58,23.59,4.71,14.28,5.96,26.3,17.48,32.96,32.09,3.12,6.82,6.25,15.81,5.37,23.47-1.26,10.99-.58,22.4-.53,33.53,0,.24,0,.49-.03.72-4.63-6.59-2.99-15.81-4.32-23.91-.4-2.45-1.46-5-2.76-7.07-.51-.8-2.79-4.28-3.7-4.12-.27.05-.5.25-.71.44-1.65,1.47-3.57,2.61-5.61,3.34,1.79-1.8,2.55-4.64,1.94-7.16-4.07,4.19-9.32,7.08-14.91,8.21,1.04-1.49,2.09-2.97,3.13-4.46.26-.37.53-.75.69-1.18.14-.38.2-.78.25-1.18.27-2.09.86-5.44,0-7.3-3.16,1.62-6,3.08-8.96,5.08-1.57,1.06-3.16,2.08-4.77,3.08-1,.62-4.04,1.71-4.59,2.72,2.13-3.91,4.53-10.26,3.56-14.84-3.89-.17-8.1.63-11.96,1.16-.83.11-1.65.24-2.48.37-2.73.42-5.46.9-8.2,1.26-10.98,1.45-22.1,1.06-33.17.67-1.18-.04-2.4-.1-3.45-.67-.88-.48-1.46-1.35-1.67-2.35"/>
    <path class="cls-13" d="m104.79,45.21c-3.35,4.53-7.07,8.75-11.11,12.6.54-3.69.64-7.45.31-11.17-.36,5.43-3.12,10.45-6.77,14.3-2.62,2.77-5.7,5.01-8.75,7.24,1.84-6.16,2.12-12.83.81-19.14-.57,5.87-4.56,11.41-9.1,14.64-1.86,1.32-4,2.24-6.24,2.43,2.82-5.13,3.97-10.91,3.1-16.8.06,1.06-.71,1.96-1.46,2.67-2.61,2.48-5.6,4.51-8.82,5.98.41-2.67.51-5.4.3-8.09-1.33,3.3-3.88,5.94-6.81,7.77s-6.23,2.89-9.56,3.65c1.97-1.63,2.98-4.29,3.21-6.92.16-1.85.29-9.35-2.38-5.74-1.86,2.52-3.72,4.82-6.1,6.83-2.95,2.49-6.22,4.37-9.59,6.13-2.73,1.43-4.89,4.3-5.61,7.42-.63,2.72-.81,5.65-1.25,8.4-.5,3.14-1.24,6.21-1.6,9.38-.27,2.34.12,5.55-1.05,7.55-2.25-1.08-1.15-13.58-1.21-16.42-.12-6.21-.16-12.44.26-18.64C17.65,25.57,45.97,0,77.61,0h5.44c8.06,0,16.1,1.58,23.59,4.71,14.28,5.96,26.3,17.48,32.96,32.09,3.12,6.82,6.25,15.81,5.37,23.47-1.26,10.99-.58,22.4-.53,33.53,0,.24,0,.49-.03.72-4.63-6.59-2.99-15.81-4.32-23.91-.4-2.45-1.46-5-2.76-7.07-.51-.8-2.79-4.28-3.7-4.12-.27.05-.5.25-.71.44-1.65,1.47-3.57,2.61-5.61,3.34,1.79-1.8,2.55-4.64,1.94-7.16-4.07,4.19-9.32,7.08-14.91,8.21,1.04-1.49,2.09-2.97,3.13-4.46.26-.37.53-.75.69-1.18.14-.38.2-.78.25-1.18.27-2.09.86-5.44,0-7.3-3.16,1.62-6,3.08-8.96,5.08-1.57,1.06-3.16,2.08-4.77,3.08-1,.62-4.04,1.71-4.59,2.72,2.13-3.91,4.53-10.26,3.56-14.84-3.89-.17-8.1.63-11.96,1.16-.83.11-1.65.24-2.48.37-2.73.42-5.46.9-8.2,1.26-10.98,1.45-22.1,1.06-33.17.67-1.18-.04-2.4-.1-3.45-.67-.88-.48-1.46-1.35-1.67-2.35"/>
    <path class="cls-3" d="m29.36,32.87c-3.51,5.37-7.05,11.37-6.57,17.87,1.3-1.29,2.32-2.86,3.35-4.4,10.72-15.95,24.44-29.65,40.14-40.07-5.97,4.19-13.65,4.58-19.95,7.66-7.28,3.55-12.58,12.21-16.97,18.93Z"/>
    <path class="cls-3" d="m64.11,33.69c-2.69,1.72-5.59,3.04-8.48,4.35-2.84,1.29-5.68,2.58-8.52,3.87,2.39.22,4.76-.49,7.06-1.19,5.78-1.77,11.66-3.58,16.7-7.04,1.47-1.01,2.87-2.16,4.01-3.56,1.19-1.45,2.09-3.14,2.98-4.82.34-.63.68-1.3.67-2.03s-.55-1.49-1.24-1.45c-.43.03-.79.35-1.11.65-4.05,3.8-7.36,8.23-12.06,11.22Z"/>
    <path class="cls-3" d="m87.4,41.13c-1.23,1.02-2.69,1.73-4.01,2.63,2.48.1,4.77-1.2,6.87-2.49,1.08-.67,2.18-1.37,2.97-2.36.68-.85,1.09-1.88,1.45-2.91.75-2.19,1.3-4.7.62-6.99-1.02-3.43-2.52.37-2.98,1.99-1.08,3.76-1.67,7.43-4.92,10.14Z"/>
    <path class="cls-3" d="m134.23,46.13c1.84,3.35,3.68,6.7,5.1,10.26,2.48,6.19,3.65,12.95,3.42,19.66,1.36-3.2.9-6.9.37-10.37-1.83-11.91-4.33-24.18-11.26-33.79-.93-1.29-1.94-2.54-3.13-3.58-1.45-1.28-3.12-2.23-4.78-3.17-1.51-.85-3.01-1.71-4.52-2.56.63,3.01,2.48,5.54,4.28,7.97,1.98,2.66,4.1,5.26,5.84,8.09.7,1.14,1.5,2.18,2.24,3.3.84,1.28,1.45,3.05,2.44,4.19Z"/>
  </g>
</svg>