<?xml version="1.0" encoding="UTF-8"?>
<svg id="_圖層_2" data-name="圖層 2" xmlns="http://www.w3.org/2000/svg" xmlns:xlink="http://www.w3.org/1999/xlink" viewBox="0 0 166.6 231.38">
  <defs>
    <style>
      .cls-1 {
        fill: #40220f;
      }

      .cls-2 {
        fill: #fff;
      }

      .cls-3 {
        fill: url(#_未命名漸層_260);
      }

      .cls-4 {
        fill: #ef8586;
      }

      .cls-5 {
        fill: #fbd8be;
      }

      .cls-6 {
        fill: #e2aa90;
      }

      .cls-7 {
        fill: url(#_未命名漸層_260-2);
      }

      .cls-8 {
        fill: #eab694;
      }

      .cls-9 {
        fill: #1e2c5a;
      }

      .cls-10 {
        fill: url(#_未命名漸層_252);
      }

      .cls-11 {
        fill: #003a6f;
      }

      .cls-12 {
        fill: #3c3736;
      }

      .cls-13 {
        fill: #231815;
      }

      .cls-14 {
        fill: url(#_未命名漸層_222);
      }
    </style>
    <linearGradient id="_未命名漸層_252" data-name="未命名漸層 252" x1="-20.7" y1="444.59" x2="-4.41" y2="444.59" gradientTransform="translate(96.5 -385.53) scale(1 1.27)" gradientUnits="userSpaceOnUse">
      <stop offset="0" stop-color="#d8b8a3"/>
      <stop offset=".1" stop-color="#e6c5ae"/>
      <stop offset=".24" stop-color="#f5d3b9"/>
      <stop offset=".36" stop-color="#fbd8be"/>
      <stop offset=".61" stop-color="#fbd8be"/>
      <stop offset=".65" stop-color="#fbd8be"/>
    </linearGradient>
    <linearGradient id="_未命名漸層_260" data-name="未命名漸層 260" x1="141.76" y1="91.78" x2="162.49" y2="91.78" gradientTransform="translate(154.13 -3.34) rotate(174.96) scale(1 -1)" gradientUnits="userSpaceOnUse">
      <stop offset="0" stop-color="#d5b6a1"/>
      <stop offset=".06" stop-color="#e4c4ad"/>
      <stop offset=".14" stop-color="#f1cfb6"/>
      <stop offset=".25" stop-color="#f8d6bc"/>
      <stop offset=".49" stop-color="#fbd8be"/>
      <stop offset="1" stop-color="#fbd8be"/>
    </linearGradient>
    <linearGradient id="_未命名漸層_260-2" data-name="未命名漸層 260" x1="-34.92" y1="106.29" x2="-14.19" y2="106.29" gradientTransform="translate(189.74 -3.34) rotate(5.04)" xlink:href="#_未命名漸層_260"/>
    <linearGradient id="_未命名漸層_222" data-name="未命名漸層 222" x1="83.52" y1="65.72" x2="84.15" y2="123.25" gradientUnits="userSpaceOnUse">
      <stop offset=".03" stop-color="#fbd8be"/>
      <stop offset=".16" stop-color="#fbdbc2"/>
      <stop offset=".47" stop-color="#fce0ca"/>
      <stop offset="1" stop-color="#fbd8be"/>
    </linearGradient>
  </defs>
  <g id="_圖層_1-2" data-name="圖層 1">
    <g>
      <rect class="cls-10" x="75.81" y="165.22" width="16.28" height="31.7" rx="1.63" ry="1.63" transform="translate(265.02 97.12) rotate(90)"/>
      <path class="cls-3" d="m18.42,78.6c-.54-.22-1.09-.44-1.64-.65-3.92.23-7.81.95-11.01,3.59-1.89,1.56-2.99,3.64-4.07,5.72-.05.17-.11.34-.18.5-.21.48-.43.96-.65,1.44,0,.26,0,.52-.05.78l-.36,1.23s-.04.08-.06.12l-.08,1.45c-.35,2.3-.43,4.71-.21,7.17,1.23,13.93,11.47,24.4,22.87,23.39l-3.93-44.54c-.21-.06-.43-.11-.64-.2Z"/>
      <path class="cls-7" d="m148.18,77.54c.54-.22,1.09-.44,1.64-.65,3.92.23,7.81.95,11.01,3.59,1.89,1.56,2.99,3.64,4.07,5.72.05.17.11.34.18.5.21.48.43.96.65,1.44,0,.26,0,.52.05.78l.36,1.23s.04.08.06.12l.08,1.45c.35,2.3.43,4.71.21,7.17-1.23,13.93-11.47,24.4-22.87,23.39l3.93-44.54c.21-.06.43-.11.64-.2Z"/>
      <rect class="cls-14" x="16.31" y="5.22" width="134.97" height="170.47" rx="67.48" ry="67.48"/>
      <path class="cls-8" d="m84.32,5.35h-5.83c-9.36,0-18.27,1.85-26.35,5.17-.07.33-.27.65-.66.86-2.41,1.35-4.56,3.07-6.69,4.81-2.1,1.71-4.3,3.21-6.48,4.81-3.94,2.89-7.24,6.97-10.09,10.91-2.78,3.84-4.53,8.28-6.59,12.52-.74,1.52-1.58,2.99-2.37,4.48-.12.52-.23,1.03-.31,1.56-.02.16-.09.3-.18.43-.74,3.26-1.37,6.55-2.01,9.83-.54,2.76-1.08,5.51-1.33,8.3h10.24c9.56-1.19,18.88-3.92,27.51-8.32,3.01-1.53,7.77,1.08,6.3,4.77-.52,1.32-1.18,2.48-1.91,3.55h.61s0,0,0,0c.97-.31,1.94-.59,2.96-.75,8.57-1.6,16.68-4.83,25.05-7.12,3.43-1.38,6.9-2.63,10.23-2.61.27-.05.56-.08.86-.08.24,0,.46.02.68.05.77-.03,1.55.06,2.34.24.61,0,1.22.06,1.88.24.15.04.3.1.44.15,1.65.38,3.26,1.37,4.81,2.37.96.45,1.92.9,2.87,1.37,5.12,1.59,10.26,3.08,15.58,3.8,8.15,1.1,16.8,1.13,25.13,1.17-.66-34.63-30.26-62.51-66.71-62.51Z"/>
      <path class="cls-9" d="m165.34,231.38H5c.06-.94.17-1.88.35-2.83l3.67-19.49c.18-.97.43-1.92.74-2.84,0-.02,0-.05.02-.08,1.31-5.91,4.81-11.19,9.79-15.27,6.41-5.23,15.25-8.47,25.02-8.47h81.26c17.79,0,32.51,10.73,35.01,24.7.18.64.33,1.29.46,1.96l3.67,19.49c.18.95.29,1.89.35,2.83Z"/>
      <g>
        <ellipse class="cls-13" cx="55.7" cy="99.61" rx="9.2" ry="10.39"/>
        <ellipse class="cls-2" cx="54.26" cy="96.08" rx="4.74" ry="4.6"/>
      </g>
      <g>
        <ellipse class="cls-13" cx="114.37" cy="99.61" rx="9.2" ry="10.39"/>
        <ellipse class="cls-2" cx="112.93" cy="96.08" rx="4.74" ry="4.6"/>
      </g>
      <path class="cls-13" d="m86.83,4.06h-5.74C44.84,4.06,15.44,32.57,15.44,67.74h13.71c9.41-1.19,18.57-3.92,27.07-8.32,2.96-1.53,7.65,1.08,6.2,4.77-.52,1.32-1.16,2.48-1.88,3.55h.6s0,0,0,0c.95-.31,1.91-.59,2.91-.75,8.43-1.6,16.41-4.83,24.64-7.12,3.38-1.38,6.79-2.63,10.06-2.61.27-.05.55-.08.85-.08.23,0,.45.02.67.05.76-.03,1.53.06,2.3.24.6,0,1.2.06,1.85.24.15.04.29.1.44.15,1.62.38,3.21,1.37,4.73,2.37.94.45,1.89.9,2.83,1.37,5.03,1.59,10.1,3.08,15.32,3.8,8.02,1.1,16.53,1.13,24.72,1.17-.65-34.63-29.77-62.51-65.62-62.51Z"/>
      <path class="cls-6" d="m93.84,120.37c0,3.35-4.22,6.06-9.42,6.06s-9.43-2.71-9.43-6.06h.57c1.32,2.32,4.79,3.98,8.86,3.98s7.53-1.66,8.85-3.98h.57Z"/>
      <path class="cls-1" d="m39.08,82.25c-.3-2.47,5.24-5.16,12.37-6.02s13.15.45,13.44,2.92c.04.34-.03.69-.21,1.04-.32.64-1.05.96-1.74.77-2.42-.66-6.46-.8-10.96-.26s-8.39,1.63-10.59,2.85c-.62.35-1.41.21-1.87-.34-.25-.3-.4-.62-.45-.96Z"/>
      <path class="cls-1" d="m128.88,82.25c.3-2.47-5.24-5.16-12.37-6.02s-13.15.45-13.44,2.92c-.04.34.03.69.21,1.04.32.64,1.05.96,1.74.77,2.42-.66,6.46-.8,10.96-.26s8.39,1.63,10.59,2.85c.62.35,1.41.21,1.87-.34.25-.3.4-.62.45-.96Z"/>
      <path class="cls-13" d="m16.21,95.71l2.78-33.41-3.06-.25-.49,5.89c-.07.8-.13,1.6-.18,2.39-.62,9.44-.23,18.19.95,25.38Z"/>
      <path class="cls-13" d="m150.83,92.62l-1.8-31.2,3.07-.18.32,5.5c.04.75.08,1.5.11,2.23.34,8.81-.3,16.96-1.69,23.64Z"/>
      <g>
        <path class="cls-13" d="m118.85,0c-.56,3.8-1.47,7.39-2.67,10.67-2.29.32-4.46.82-6.47,1.49,2.77-2.99,5.36-6.36,7.75-9.94.48-.71.95-1.46,1.39-2.22Z"/>
        <path class="cls-13" d="m132.17,10.36c-.86.18-1.71.38-2.55.61-6.28,1.72-12.26,3.99-17.35,7.04-.02.01-.04.02-.06.04,1.54-2.41,2.87-5.14,3.97-8.12,4.9-.7,10.34-.58,15.99.43Z"/>
      </g>
      <path class="cls-12" d="m103.31,21.11c-2.78,1.5-6.22,2.29-9.1,3.7-3.38,1.66-6.77,3.55-9.26,5.95,9.03-1.14,16.41-4.96,20.07-10.67-.55.35-1.11.69-1.71,1.02Z"/>
      <path class="cls-12" d="m27.3,56.73c8.93-8.78,18.92-16.81,30.02-23.06,15.19-8.56,31.51-15.22,48.55-19.43.02-.02.05-.05.07-.07-5.58-1.76-11.5-2.72-17.63-2.72h-5.31c-28.77,0-52.85,20.87-59.12,48.88,1.1-1.23,2.23-2.44,3.42-3.6Z"/>
      <path class="cls-12" d="m117.49,23.64c4.62,5.68,7.3,12.12,11.71,17.94,5.17,6.82,10.99,13.78,18.19,19.47-4.35-16.37-16.19-31.38-33.02-40.95,1.08,1.15,2.13,2.32,3.12,3.55Z"/>
      <path class="cls-12" d="m95.2,45.84c-4.26,2.25-9.54,3.42-13.95,5.55-5.18,2.49-10.37,5.33-14.17,8.95,13.85-1.68,25.16-7.41,30.74-16.02-.84.53-1.7,1.04-2.62,1.53Z"/>
      <path class="cls-5" d="m108.1,182.26c0,9.58-10.65,17.35-23.78,17.35s-23.78-7.77-23.78-17.35"/>
      <path class="cls-11" d="m109.4,183.05c0,13.16-11.14,23.84-24.87,23.84s-24.88-10.68-24.88-23.84h.88c2.88,10.11,12.53,17.55,24,17.55s21.11-7.43,23.99-17.55h.88Z"/>
      <path class="cls-4" d="m95.21,148.33c1.89-1.23,4.12-3.78,4-7.09-.04-1.15-27.31-2.56-29.03,1.91,3.98,11.31,17.99,9.75,25.02,5.18Z"/>
    </g>
  </g>
</svg>