<?xml version="1.0" encoding="UTF-8"?>
<svg id="_圖層_2" data-name="圖層 2" xmlns="http://www.w3.org/2000/svg" xmlns:xlink="http://www.w3.org/1999/xlink" viewBox="0 0 163.6 232.61">
  <defs>
    <style>
      .cls-1 {
        stroke-width: .75px;
      }

      .cls-1, .cls-2, .cls-3, .cls-4 {
        stroke: #e1bd73;
        stroke-miterlimit: 10;
      }

      .cls-1, .cls-5 {
        fill: none;
      }

      .cls-6 {
        fill: #8e000f;
      }

      .cls-7 {
        fill: #fff;
      }

      .cls-8 {
        fill: #5d4d3e;
      }

      .cls-9 {
        fill: #dcdddd;
      }

      .cls-10 {
        fill: url(#_未命名漸層_85-2);
      }

      .cls-11 {
        fill: url(#_未命名漸層_117);
      }

      .cls-2 {
        fill: url(#_未命名漸層_267-3);
      }

      .cls-12 {
        fill: #941419;
      }

      .cls-13 {
        fill: #cabbab;
      }

      .cls-3 {
        fill: url(#_未命名漸層_267-2);
      }

      .cls-14 {
        fill: url(#_未命名漸層_68);
      }

      .cls-15 {
        fill: #ef8586;
      }

      .cls-16 {
        fill: #3e3a39;
      }

      .cls-17 {
        fill: #595757;
      }

      .cls-18 {
        fill: #736354;
      }

      .cls-19 {
        fill: #fbd8be;
      }

      .cls-20 {
        fill: #cbbbaf;
      }

      .cls-21 {
        fill: url(#Neck);
      }

      .cls-22 {
        fill: url(#_未命名漸層_23);
      }

      .cls-23 {
        fill: url(#Neck-2);
      }

      .cls-24 {
        fill: url(#_未命名漸層_117-2);
      }

      .cls-25 {
        fill: #e2aa90;
      }

      .cls-26 {
        fill: #746454;
      }

      .cls-4 {
        fill: url(#_未命名漸層_267);
      }

      .cls-27 {
        fill: #fad3b6;
      }

      .cls-28 {
        fill: url(#_未命名漸層_431);
      }

      .cls-29 {
        fill: url(#_未命名漸層_85);
      }

      .cls-30 {
        fill: #b5b5b6;
      }

      .cls-31 {
        fill: #cabaae;
      }

      .cls-32 {
        fill: url(#_未命名漸層_68-2);
      }

      .cls-33 {
        fill: #231815;
      }

      .cls-34 {
        fill: url(#_未命名漸層_439);
      }
    </style>
    <linearGradient id="_未命名漸層_68" data-name="未命名漸層 68" x1="116.75" y1="117.01" x2="92.86" y2="121.42" gradientTransform="translate(267.95 1.8) rotate(-173.04) scale(1 -1)" gradientUnits="userSpaceOnUse">
      <stop offset="0" stop-color="#ba9f8d"/>
      <stop offset=".13" stop-color="#ccae98"/>
      <stop offset=".4" stop-color="#edc8ae"/>
      <stop offset=".55" stop-color="#fad3b6"/>
      <stop offset="1" stop-color="#fad3b6"/>
    </linearGradient>
    <linearGradient id="_未命名漸層_68-2" data-name="未命名漸層 68" x1="25.24" y1="105.84" x2="1.35" y2="110.25" gradientTransform="translate(-12.81 1.8) rotate(-6.96)" xlink:href="#_未命名漸層_68"/>
    <linearGradient id="Neck" x1="66.36" y1="182.3" x2="98.06" y2="182.3" gradientUnits="userSpaceOnUse">
      <stop offset="0" stop-color="#d8b8a3"/>
      <stop offset=".1" stop-color="#e6c5ae"/>
      <stop offset=".24" stop-color="#f5d3b9"/>
      <stop offset=".36" stop-color="#fbd8be"/>
      <stop offset=".61" stop-color="#fbd8be"/>
      <stop offset=".65" stop-color="#fbd8be"/>
    </linearGradient>
    <linearGradient id="_未命名漸層_85" data-name="未命名漸層 85" x1="84.58" y1="13.87" x2="117.41" y2="13.87" gradientUnits="userSpaceOnUse">
      <stop offset="0" stop-color="#231815"/>
      <stop offset="1" stop-color="#807f80"/>
    </linearGradient>
    <linearGradient id="_未命名漸層_85-2" data-name="未命名漸層 85" x1="87.1" y1="18.86" x2="116.42" y2="18.86" gradientTransform="translate(-38.37 -21.99) rotate(7.51) scale(1.37 1.16)" xlink:href="#_未命名漸層_85"/>
    <linearGradient id="_未命名漸層_117" data-name="未命名漸層 117" x1="120.62" y1="28.71" x2="147.58" y2="28.71" gradientUnits="userSpaceOnUse">
      <stop offset="0" stop-color="#7d7d7d"/>
      <stop offset=".17" stop-color="#787777"/>
      <stop offset=".38" stop-color="#6b6968"/>
      <stop offset=".61" stop-color="#55514f"/>
      <stop offset=".85" stop-color="#372f2d"/>
      <stop offset="1" stop-color="#231815"/>
    </linearGradient>
    <linearGradient id="_未命名漸層_117-2" data-name="未命名漸層 117" x1="118.65" y1="31.82" x2="145.6" y2="31.82" gradientTransform="translate(12.91 -33.76) rotate(15.59)" xlink:href="#_未命名漸層_117"/>
    <linearGradient id="_未命名漸層_267" data-name="未命名漸層 267" x1="32.02" y1="101.84" x2="74.8" y2="101.84" gradientUnits="userSpaceOnUse">
      <stop offset="0" stop-color="#e7edf8" stop-opacity=".4"/>
      <stop offset="1" stop-color="#e8f4fc" stop-opacity="0"/>
    </linearGradient>
    <linearGradient id="_未命名漸層_267-2" data-name="未命名漸層 267" x1="91.4" x2="134.18" xlink:href="#_未命名漸層_267"/>
    <linearGradient id="_未命名漸層_267-3" data-name="未命名漸層 267" x1="74.31" y1="96.03" x2="91.46" y2="96.03" xlink:href="#_未命名漸層_267"/>
    <linearGradient id="_未命名漸層_23" data-name="未命名漸層 23" x1="81.37" y1="195.22" x2="81.48" y2="191.24" gradientTransform="translate(-7.96 .2) rotate(-.14) scale(1.1 1) skewX(-.26)" gradientUnits="userSpaceOnUse">
      <stop offset="0" stop-color="#6e1d16"/>
      <stop offset=".41" stop-color="#8d2420"/>
      <stop offset=".76" stop-color="#a12927"/>
      <stop offset="1" stop-color="#a92b2a"/>
    </linearGradient>
    <linearGradient id="_未命名漸層_439" data-name="未命名漸層 439" x1="60.1" y1="190.28" x2="80.31" y2="190.28" gradientUnits="userSpaceOnUse">
      <stop offset="0" stop-color="#b5b5b6"/>
      <stop offset=".05" stop-color="#bbbbbc"/>
      <stop offset=".23" stop-color="#d2d2d2"/>
      <stop offset=".43" stop-color="#e2e2e2"/>
      <stop offset=".65" stop-color="#ececec"/>
      <stop offset=".95" stop-color="#efefef"/>
      <stop offset=".97" stop-color="#f4f5f5"/>
      <stop offset="1" stop-color="#f7f8f8"/>
    </linearGradient>
    <linearGradient id="_未命名漸層_431" data-name="未命名漸層 431" x1="83.43" y1="190.29" x2="103.08" y2="190.29" gradientUnits="userSpaceOnUse">
      <stop offset="0" stop-color="#efefef"/>
      <stop offset=".39" stop-color="#ececec"/>
      <stop offset=".59" stop-color="#e4e5e5"/>
      <stop offset=".75" stop-color="#d7d7d8"/>
      <stop offset=".88" stop-color="#c4c5c6"/>
      <stop offset="1" stop-color="#acadae"/>
      <stop offset="1" stop-color="#acadae"/>
    </linearGradient>
    <linearGradient id="Neck-2" data-name="Neck" y1="183.63" y2="183.63" xlink:href="#Neck"/>
  </defs>
  <g id="_圖層_1-2" data-name="圖層 1">
    <rect class="cls-16" x="39.74" y="183.99" width="87.38" height="4.17"/>
    <rect class="cls-6" x="39.74" y="188.16" width="87.38" height="4.17"/>
    <rect class="cls-16" x="39.74" y="191.85" width="87.38" height="4.17"/>
    <rect class="cls-6" x="39.74" y="196.02" width="87.38" height="4.17"/>
    <rect class="cls-16" x="39.74" y="200.19" width="87.38" height="4.17"/>
    <rect class="cls-6" x="39.74" y="204.36" width="87.38" height="4.17"/>
    <rect class="cls-16" x="39.74" y="208.05" width="87.38" height="4.17"/>
    <rect class="cls-6" x="39.74" y="212.22" width="87.38" height="4.17"/>
    <rect class="cls-16" x="39.74" y="216.39" width="87.38" height="4.17"/>
    <rect class="cls-6" x="39.74" y="220.56" width="87.38" height="4.17"/>
    <rect class="cls-16" x="39.74" y="224.25" width="87.38" height="4.17"/>
    <rect class="cls-6" x="39.74" y="228.42" width="87.38" height="4.17"/>
    <path class="cls-14" d="m146.53,132.54c2.28.28,4.48.91,6.05-1.24,5.91-8.06,7.78-18.13,9.31-27.8,1.15-7.27,3.52-19.07-7.11-20.37l-2.2-.27c-5.19-.63-9.92,3.06-10.55,8.26l-3.77,30.86c-.63,5.19,3.06,9.92,8.26,10.55Z"/>
    <path class="cls-32" d="m16.42,132.54c-2.28.28-4.48.91-6.05-1.24-5.91-8.06-7.78-18.13-9.31-27.8-1.15-7.27-3.52-19.07,7.11-20.37l2.2-.27c5.19-.63,9.92,3.06,10.55,8.26l3.77,30.86c.63,5.19-3.06,9.92-8.26,10.55Z"/>
    <ellipse class="cls-9" cx="81.62" cy="184.66" rx="21.98" ry="7.5"/>
    <rect class="cls-21" x="66.36" y="174.16" width="31.7" height="16.28" rx="1.63" ry="1.63"/>
    <path class="cls-27" d="m129.77,26.21c-.15-.15-.32-.3-.47-.45-1.6.98-3.57,1.56-5.92,1.56-8.31,0-11.92-7.26-10.87-13.6-9.15-4.64-19.5-7.27-30.47-7.27C44.78,6.45,14.57,36.66,14.57,73.93v35.51c0,37.27,30.21,67.48,67.48,67.48s67.48-30.21,67.48-67.48v-35.51c0-18.64-7.55-35.5-19.76-47.72Z"/>
    <polygon class="cls-17" points="69.35 232.44 69.53 232.61 69.39 232.61 69.35 232.44"/>
    <polygon class="cls-17" points="96.12 232.61 96.18 232.55 96.17 232.61 96.12 232.61"/>
    <path class="cls-17" d="m101.89,183.63c.31.85-1.33,5.35-1.43,5.64-.58,1.7-1.17,3.42-2.17,4.92-1.3,1.97-3.12,3.2-5.33,3.96-3.6,1.24-7.45,1.49-11.25,1.63-5.24.2-10.58-1.04-14.27-5.09-3.12-2.67-4.85-6.9-4.88-11.06h39.33Z"/>
    <g>
      <ellipse class="cls-33" cx="53.67" cy="101.84" rx="9.2" ry="10.39"/>
      <ellipse class="cls-7" cx="52.22" cy="98.31" rx="4.74" ry="4.6"/>
    </g>
    <g>
      <ellipse class="cls-33" cx="112.33" cy="101.84" rx="9.2" ry="10.39"/>
      <ellipse class="cls-7" cx="110.89" cy="98.31" rx="4.74" ry="4.6"/>
    </g>
    <path class="cls-25" d="m92.35,122.61c0,3.35-4.33,6.06-9.68,6.06s-9.68-2.71-9.68-6.06h.59c1.36,2.32,4.92,3.98,9.09,3.98s7.73-1.66,9.09-3.98h.59Z"/>
    <path class="cls-19" d="m102.04,183.7s-.06-.06-.08-.1c0-.01,0-.03-.01-.04h-39.27c-.03.06-.08.11-.11.17.04,4.15,1.77,8.36,4.88,11.03,3.69,4.05,9.03,5.29,14.27,5.09,3.8-.14,7.65-.39,11.25-1.63,2.21-.76,4.03-1.99,5.33-3.96,1-1.5,1.59-3.22,2.17-4.92.1-.29,1.74-4.79,1.43-5.64h.15Z"/>
    <path class="cls-15" d="m96.37,148.39c2.12-.83,4.55-2.62,4.17-5.01-.13-.83-32.19-2.59-33.87.6,5.5,8.28,21.79,7.53,29.7,4.42Z"/>
    <path class="cls-33" d="m149.5,82.84s-.05-.07-.07-.1v-.03s.04.09.07.13Z"/>
    <path class="cls-26" d="m65.03,232.61H3.26c.06-.94.17-1.88.35-2.83l3.67-19.49c.18-.97.43-1.92.74-2.84,0-.02.01-.05.02-.08,1.31-5.91,4.81-11.19,9.79-15.27,6.41-5.23,15.25-8.47,25.02-8.47h9.47l1.34,3.35,1.86,7.47,9.51,38.16Z"/>
    <path class="cls-26" d="m163.6,232.61h-65.02l9.38-37.57,2.78-11.16.08-.2.02-.05h13.27c17.79,0,32.51,10.73,35.01,24.7.18.64.33,1.29.46,1.96l3.67,19.49c.18.95.29,1.89.35,2.83Z"/>
    <path class="cls-30" d="m66.79,81.73c.05.16-.05.33-.25.5-.39.3-1.27.46-2.1.37-2.92-.31-7.76-.38-13.18-.13-5.41.26-10.08.78-12.72,1.36-.75.17-1.7.1-2.25-.16-.3-.14-.48-.3-.54-.46-.03-.09-.01-.19.06-.29,0-.01.01-.03.02-.04.06-.11.2-.26.42-.42.33-.38,1.46-.94,3.08-1.48,1.76-.59,3.58-.99,4.69-1.06.17-.02.34-.03.53-.04.02,0,.06,0,.09,0,.2-.01.42-.03.64-.03h.01c2.2-.11,5.57-.08,9.27.11,1.27.06,2.49.14,3.63.23.52.04,1.03.08,1.51.13.35.02.69.03,1.01.05,2.24.15,4.01.4,5.05.73.02,0,.06.02.08.02.07.02.12.04.18.06.12.05.24.1.34.15.25.13.39.27.44.41Z"/>
    <path class="cls-30" d="m97.27,82.02c-.05.16.05.33.25.5.39.3,1.27.46,2.1.37,2.92-.31,7.76-.38,13.18-.13,5.41.26,10.08.78,12.72,1.36.75.17,1.7.1,2.25-.16.3-.14.48-.3.54-.46.03-.09.01-.19-.06-.29,0-.01-.01-.03-.02-.04-.06-.11-.2-.26-.42-.42-.33-.38-1.46-.94-3.08-1.48-1.76-.59-3.58-.99-4.69-1.06-.17-.02-.34-.03-.53-.04-.02,0-.06,0-.09,0-.2-.01-.42-.03-.64-.03h-.01c-2.2-.11-5.57-.08-9.27.11-1.27.06-2.49.14-3.63.23-.52.04-1.03.08-1.51.13-.35.02-.69.03-1.01.05-2.24.15-4.01.4-5.05.73-.02,0-.06.02-.08.02-.07.02-.12.04-.18.06-.12.05-.24.1-.34.15-.25.13-.39.27-.44.41Z"/>
    <path class="cls-33" d="m149.49,77.65v.23c-.02.13-.03.25-.04.39.01-.22.03-.43.04-.62Z"/>
    <path class="cls-33" d="m64.6,61.76s-.03-.01-.04,0c-.04-.01-.08-.01-.12-.02.05,0,.11,0,.16.02Z"/>
    <path class="cls-33" d="m8.52,36.87c.49-3.45,1.37-6.8,2.88-9.97,3.66-7.68,10.96-13.15,18.84-16.35,9.22-3.75,19.36-4.65,28.88-7.12,10.24-2.66,20.95-4.39,31.51-2.85,11.72,1.71,23.26,8,28.84,18.45.19.36,3.65-.27,4.11-.34,1.41-.2,2.8-.46,4.2-.7,2.76-.46,5.53-.82,8.31-.36,6.64,1.1,12.41,5.09,15.17,11.31,1.46,3.27,1.81,6.82,2.97,10.16,1.51,4.34,1.62,9.05,1.53,13.61-.1,5.43-.47,10.84-.93,16.25-.22,2.65-.78,5.43-.73,8.08.03,2.01.75,3.91.94,5.92,0,.07,0,.14.02.21-.99-.07-1.98-.17-2.97-.29-.32-.04-.69-.1-1.01-.01-.25.07-.24.23-.27.47-.06.5-.09,1-.09,1.51-.01.99.05,1.98.04,2.97,0,.12,0,.24-.01.36-.18,2.18-.85,4.32-1.11,6.49-.13,1.06.11,2.36-1.23,2.51-1.68.18-2.47-2.09-2.83-3.29-.69-2.26-1.37-4.53-1.71-6.88-.3-2.14-.3-4.31-.38-6.47-.38-10.33-2.57-20.5-4.75-30.6-1.8-8.33-6.75-20.92-17.59-19.54-2.78.35-5.29,1.43-8.12,1.6-2.66.15-5.33.44-8.02.49-5.68.09-11.35.18-17.03.27-11.35.18-22.7.36-34.06.54-2.1.03-4.27.27-6.33.03-2.32-.26-4.56-.75-6.91-.84-2.02-.08-4.08,0-5.99.67-5.12,1.81-7.3,6.85-9.12,11.53-2.15,5.55-3.58,11.38-4.23,17.3-.36,3.3-.48,6.63-.9,9.92-.25,1.94-.59,3.87-.94,5.79-.7,3.87-1.4,7.74-2.1,11.61-.36,1.99-.72,3.99-1.08,5.98-.24,1.33-.19,3.71-1.23,4.66-.57-.81-1.24-2.16-1.41-3.17-.2-1.22-.13-2.49-.31-3.71-.37-2.46-.92-4.89-1.41-7.32-.07-.33-.09-.67-.13-1-.05-.39-.1-.78-.2-1.16-.04-.17-.1-.34-.17-.49-.03-.06-.06-.15-.11-.2-.05-.06-.11-.07-.18-.07-.13,0-.25,0-.38,0-.11,0-.22.03-.34.04-.19.02-.39.05-.58.07-.4.04-.8.08-1.2.15-.15.03-.3.03-.44.05-.08.01-.21.07-.28.01,0-.02.01-.05.02-.08.05-.25.03-.54.04-.8,0-.28.02-.57.03-.85.02-.57.04-1.14.06-1.7.04-1.14.07-2.27.11-3.41s.07-2.27.11-3.41.07-2.27.11-3.41.07-2.27.11-3.41c.3-9.34-1.37-19.65-.02-29.22Z"/>
    <path class="cls-20" d="m59.58,129.36c-.49.42-.98.84-1.49,1.25.7,1.14,1.85.63,2.35,0,1.76-2.15,3.51-4.3,5.27-6.44,1.57-1.92,3.35-3.91,4.21-6.23-.12.31-.69.64-.92.91-.32.38-.59.78-.86,1.19-.53.78-1.04,1.56-1.65,2.29-2.09,2.51-4.4,4.86-6.91,7.03Z"/>
    <path class="cls-20" d="m106.36,129.36c.49.42.98.84,1.49,1.25-.7,1.14-1.85.63-2.35,0-1.76-2.15-3.51-4.3-5.27-6.44-1.57-1.92-3.35-3.91-4.21-6.23.12.31.69.64.92.91.32.38.59.78.86,1.19.53.78,1.04,1.56,1.65,2.29,2.09,2.51,4.4,4.86,6.91,7.03Z"/>
    <path class="cls-31" d="m118.79,49.28c-7.09-2.36-20.11-3.94-35-3.94-16.61,0-30.9,1.98-37.23,4.8.02-.03.04-.04.05-.05,3.57-3.64,18.56-6.37,36.5-6.37,14.33,0,26.76,1.75,33.01,4.3.96.3,1.85.74,2.67,1.27Z"/>
    <path class="cls-31" d="m112.79,53.7c-5.94-2.36-16.86-3.94-29.35-3.94-13.93,0-25.91,1.98-31.22,4.8.02-.03.03-.04.05-.05,2.99-3.64,15.56-6.37,30.61-6.37,12.01,0,22.44,1.75,27.68,4.3.8.3,1.55.74,2.24,1.27Z"/>
    <path class="cls-29" d="m110.56,12.73c-.32-.27-.64-.53-.97-.79-.86-.66-1.76-1.26-2.66-1.86-2.2-1.46-4.43-2.94-6.92-3.82-2.53-.9-5.23-1.16-7.89-1.17-1.35,0-2.7.05-4.04.13-1.14.06-2.42-.07-3.35.72-.06.05-.13.12-.14.2-.1.45,2.28.26,2.67.27,3.81.14,8,.57,11.48,2.19,2.52,1.17,5.03,2.41,7.31,4s4.45,3.21,6.37,5.17c.79.81,1.58,1.62,2.37,2.43s1.52,1.82,2.4,2.43c.65-1.01-.23-2.56-.79-3.42-.45-.69-.99-1.29-1.52-1.91-.38-.45-.63-.96-1.04-1.4-1.04-1.11-2.11-2.19-3.26-3.17Z"/>
    <path class="cls-10" d="m107.45,18.44c-4.5-2.04-9.76-3.59-14.98-5.09-4.66-1.34-9.59-2.69-14.54-2.87.62.7,2.22,1.12,3.63,1.47,11.05,2.76,21.29,6.64,29.71,11.24,1.5.82,3.1,1.91,5.01,2.49,2-1.65-6.1-6.01-8.82-7.24Z"/>
    <path class="cls-11" d="m130.76,20.25c1.43-.09,2.89-.18,4.29.13,1.08.24,2.09.7,3.09,1.17,1.19.55,2.39,1.11,3.41,1.94.8.66,1.46,1.47,2.05,2.31,2.35,3.35,3.75,7.37,3.98,11.46-.95.08-1.57-.93-1.98-1.79-1.7-3.59-3.58-7.18-6.4-9.98-.53-.53-1.1-1.03-1.77-1.35-.64-.3-1.34-.44-2.04-.56-1.92-.33-3.86-.6-5.8-.81-.94-.1-1.89-.18-2.83-.05-.64.09-1.26.29-1.9.4-1.08.19-2.2.15-3.3.1-.34-.01-1-.11-.94-.61.05-.42.44-.26.75-.38.98-.37,1.88-.86,2.9-1.14,2.11-.58,4.31-.73,6.49-.86Z"/>
    <path class="cls-24" d="m129.81,26.49c1.39.33,2.81.67,4.11,1.23,1,.43,1.9.98,2.79,1.52,1.06.64,2.12,1.3,2.96,2.06.66.6,1.16,1.26,1.6,1.92,1.72,2.61,2.4,5.36,1.94,7.83-.92-.21-1.36-.97-1.61-1.59-1.05-2.58-2.27-5.2-4.52-7.61-.42-.45-.89-.9-1.48-1.27-.56-.35-1.22-.62-1.87-.88-1.8-.71-3.61-1.39-5.45-2.03-.89-.31-1.79-.62-2.72-.79-.63-.12-1.26-.17-1.9-.28-1.08-.18-2.14-.5-3.19-.82-.33-.1-.95-.33-.81-.61.12-.24.47-.04.78-.02,1.01.05,1.95,0,2.98.11,2.13.22,4.27.73,6.39,1.24Z"/>
    <rect class="cls-4" x="32.02" y="87.03" width="42.78" height="29.63" rx="12" ry="12"/>
    <rect class="cls-3" x="91.4" y="87.03" width="42.78" height="29.63" rx="12" ry="12"/>
    <path class="cls-2" d="m91.4,97.05c-2.3-1.29-5.27-2.07-8.52-2.07-2.95,0-5.66.64-7.85,1.73.02.07.03.13.05.2.01,0,.03,0,.04,0,4.66-2.16,10.76-2.39,15.35-.04.31.07.62.13.92.21,0,0,0-.01,0-.02Z"/>
    <path class="cls-1" d="m11.9,83.48s0,.03.01.04c0,.03,0,.06.02.1,0,0,0,.01,0,.02.09.23.14.47.18.72l20.26,11.7.33-.56-20.8-12.01Z"/>
    <path class="cls-1" d="m150.43,84.27c0-.08,0-.17,0-.25l-16.26,12.51.4.52,15.8-12.16c0-.13.01-.27.03-.4,0,0,0-.01,0-.02,0-.07.02-.14.03-.2Z"/>
    <path class="cls-13" d="m68.84,153.22c.43.73.86,1.57.49,2.32-.42-1.83-1.69-3.52-3.48-4.65-.41-.26-.88-.55-.9-.97,1.92-.19,3.2,2.16,3.89,3.31Z"/>
    <path class="cls-5" d="m31.71,162.29l.11.11"/>
    <path class="cls-33" d="m52.44,183.63c0,.18.05.37.15.51l25.37,36.27c2.01,2.88,5.3,2.88,7.32,0l25.37-36.27c.1-.14.15-.32.15-.51h-58.36Z"/>
    <path class="cls-17" d="m54.58,183.63c0,.17.05.34.14.47l23.54,33.65c1.87,2.67,4.92,2.67,6.79,0l23.54-33.65c.09-.13.14-.3.14-.47h-54.15Z"/>
    <path class="cls-33" d="m58.37,183.63c0,.15.04.3.12.41l20.12,29.6c1.6,2.35,4.21,2.35,5.8,0l20.12-29.6c.08-.12.12-.26.12-.41h-46.28Z"/>
    <path class="cls-7" d="m103.08,183.63c-.01.14-.04.27-.12.37l-7.53,10.77-9.18,13.13-.19.28-1.76,2.51c-1.48,2.12-3.91,2.12-5.39,0l-1.44-2.06-.2-.28-17.02-24.35c-.08-.1-.11-.23-.12-.37h42.95Z"/>
    <path class="cls-13" d="m98.95,153.13c-.43.73-.86,1.57-.49,2.32.42-1.83,1.69-3.52,3.48-4.65.41-.26.88-.55.9-.97-1.92-.19-3.2,2.16-3.89,3.31Z"/>
    <polygon class="cls-22" points="85.56 197.31 78.11 197.5 74.56 186.85 88.8 186.82 85.56 197.31"/>
    <path class="cls-34" d="m80.31,186.68c-.46,1.17-1.64,2.25-2.21,3.46-.06.12-.11.22-.14.33-.05.11-.11.22-.16.35-.46,1.06-.85,2.17-1.21,3.27-.19.53-.36,1.07-.46,1.62-.14.71-.03,1.58-.95,1.1-.92-.48-1.86-.9-2.81-1.28-1.77-.72-3.35-1.61-5.2-2.09-.16-.04-.31-.08-.47-.12l-6.6-9.72h14.02c2.03.97,4.36,1.78,6.19,3.08Z"/>
    <path class="cls-28" d="m103.08,183.63c-.01.14-.04.27-.12.37l-7.53,10.77c-1.14.36-2.34.55-3.5.81-.73.17-1.45.34-2.12.61-.34.15-1.11.99-1.4.69-.72-.91-.9-2.13-1.34-3.22-.48-1.16-1.25-2.16-1.79-3.29,0-.01-.01-.01-.01-.02-.25-.51-.44-1.04-.67-1.55-.32-.72-.72-1.44-1.17-2.1.02,0,.03,0,.04,0,0,0,.03.02.03.02.07.07.94-.37,1.03-.41.94-.36,1.86-.72,2.8-1.09,1.34-.52,2.68-1.05,4.02-1.58h11.73Z"/>
    <path class="cls-12" d="m86.06,208.18l-1.76,2.51c-1.48,2.12-3.91,2.12-5.39,0l-1.44-2.06.91-11.14,6.8-.17.88,10.86Z"/>
    <path class="cls-23" d="m68.11,180.65v-.1h-1.75v3.21c3.57,1.79,9.38,2.95,15.94,2.95s12.17-1.12,15.76-2.85v-3.22h-29.95Z"/>
    <polygon class="cls-8" points="130.08 211.83 110.09 232.61 98.58 232.61 108.72 195.04 111.72 183.88 111.78 183.68 111.81 183.68 111.85 183.67 111.87 183.69 125.18 193.62 117.67 204.28 130.08 211.83"/>
    <polygon class="cls-8" points="65.03 232.61 53.29 232.61 32.91 211.81 45.57 204.26 37.9 193.59 50.51 184.35 51.47 183.65 51.49 183.63 51.54 183.64 51.57 183.64 51.62 183.85 52.67 187.65 54.69 195.01 65.03 232.61"/>
    <polygon class="cls-18" points="126.37 212.22 108.82 232.61 98.68 232.61 107.93 195.29 110.67 184.19 110.72 184 110.74 184 110.78 183.99 110.8 184.01 122.3 194.03 115.63 204.58 126.37 212.22"/>
    <polygon class="cls-18" points="64.86 232.44 54.57 232.44 36.73 211.87 47.81 204.4 41.1 193.85 52.15 184.71 52.98 184.01 53 183.99 53.04 184 53.07 184 53.12 184.21 54.03 187.97 55.8 195.25 64.86 232.44"/>
  </g>
</svg>