<?xml version="1.0" encoding="UTF-8"?>
<!DOCTYPE svg PUBLIC "-//W3C//DTD SVG 1.1//EN" "http://www.w3.org/Graphics/SVG/1.1/DTD/svg11.dtd">
<svg xmlns="http://www.w3.org/2000/svg" version="1.1" width="1004px" height="1390px" style="shape-rendering:geometricPrecision; text-rendering:geometricPrecision; image-rendering:optimizeQuality; fill-rule:evenodd; clip-rule:evenodd" xmlns:xlink="http://www.w3.org/1999/xlink">
<g><path style="opacity:0.998" fill="#cbce54" d="M 942.5,804.5 C 926.766,774.027 908.266,745.36 887,718.5C 880.333,711.167 873.667,703.833 867,696.5C 867.785,708.962 868.285,721.462 868.5,734C 868.338,743.178 868.004,752.345 867.5,761.5C 862.181,752.869 856.848,744.203 851.5,735.5C 851.616,732.14 851.949,728.807 852.5,725.5C 862.382,693.971 870.382,661.971 876.5,629.5C 887.804,614.014 898.97,598.347 910,582.5C 957.699,422.999 932.032,276.666 833,143.5C 771.065,59.4445 687.565,16.4445 582.5,14.5C 564.87,14.1329 547.37,15.4662 530,18.5C 523.823,17.6676 517.99,16.0009 512.5,13.5C 632.014,-16.7065 738.347,8.12685 831.5,88C 876.284,130.161 909.117,180.327 930,238.5C 954.761,308.723 969.094,381.056 973,455.5C 980.537,573.392 970.37,689.725 942.5,804.5 Z"/></g>
<g><path style="opacity:1" fill="#2a4e89" d="M 512.5,13.5 C 517.99,16.0009 523.823,17.6676 530,18.5C 547.37,15.4662 564.87,14.1329 582.5,14.5C 687.565,16.4445 771.065,59.4445 833,143.5C 932.032,276.666 957.699,422.999 910,582.5C 898.97,598.347 887.804,614.014 876.5,629.5C 899.562,487.655 875.729,354.322 805,229.5C 786.761,197.926 765.428,168.593 741,141.5C 665.401,69.2483 575.567,40.5817 471.5,55.5C 451.361,50.3722 431.028,46.2056 410.5,43C 345.066,35.5127 282.733,46.0127 223.5,74.5C 297.239,18.0572 380.572,-4.77618 473.5,6C 486.68,7.66953 499.68,10.1695 512.5,13.5 Z"/></g>
<g><path style="opacity:1" fill="#121d45" d="M 876.5,629.5 C 870.382,661.971 862.382,693.971 852.5,725.5C 851.518,727.406 850.518,729.406 849.5,731.5C 834.936,713.053 823.436,692.719 815,670.5C 809.53,653.161 808.196,635.494 811,617.5C 812.58,611.79 813.913,606.123 815,600.5C 795.051,585.715 775.551,570.381 756.5,554.5C 742.175,542.175 728.175,529.508 714.5,516.5C 682.34,485.173 650.674,453.34 619.5,421C 596.974,399.742 572.307,381.409 545.5,366C 529.251,357.694 512.251,351.361 494.5,347C 476.405,344.181 458.405,340.848 440.5,337C 431.865,334.512 423.532,331.346 415.5,327.5C 390.675,315.914 370.341,298.914 354.5,276.5C 314.87,298.035 277.203,323.202 241.5,352C 231.303,361.863 221.47,372.029 212,382.5C 196.353,401.467 186.353,423.134 182,447.5C 177.469,498.217 172.469,548.884 167,599.5C 162.01,651.538 162.344,703.538 168,755.5C 173.129,790.481 182.795,824.148 197,856.5C 252.639,979.139 340.139,1071.64 459.5,1134C 566.055,1188.24 679.055,1211.24 798.5,1203C 767.298,1266.7 720.631,1315.53 658.5,1349.5C 583.17,1388.62 504.17,1398.12 421.5,1378C 396.23,1371.53 372.23,1362.03 349.5,1349.5C 304.466,1324.32 266.299,1290.98 235,1249.5C 222.49,1233.32 211.157,1216.32 201,1198.5C 200.241,1196.94 199.074,1195.94 197.5,1195.5C 175.959,1157.42 156.792,1118.08 140,1077.5C 99.804,975.246 59.804,872.912 20,770.5C -0.525549,662.466 -4.85888,553.799 7,444.5C 13.8407,376.135 30.8407,310.468 58,247.5C 88.8866,178.95 136.387,125.117 200.5,86C 207.91,81.6284 215.577,77.7951 223.5,74.5C 282.733,46.0127 345.066,35.5127 410.5,43C 431.028,46.2056 451.361,50.3722 471.5,55.5C 575.567,40.5817 665.401,69.2483 741,141.5C 765.428,168.593 786.761,197.926 805,229.5C 875.729,354.322 899.562,487.655 876.5,629.5 Z"/></g>
<g><path style="opacity:1" fill="#cbce54" d="M 354.5,276.5 C 370.341,298.914 390.675,315.914 415.5,327.5C 328.9,371.293 270.733,439.627 241,532.5C 233.504,557.662 228.504,583.329 226,609.5C 223.385,605.217 220.385,601.217 217,597.5C 216.505,595.527 216.338,593.527 216.5,591.5C 221.649,528.271 230.816,465.604 244,403.5C 252.729,377.467 266.396,354.467 285,334.5C 306.579,313.072 329.746,293.739 354.5,276.5 Z"/></g>
<g><path style="opacity:1" fill="#2a4d89" d="M 354.5,276.5 C 329.746,293.739 306.579,313.072 285,334.5C 266.396,354.467 252.729,377.467 244,403.5C 230.816,465.604 221.649,528.271 216.5,591.5C 211.573,645.5 216.073,698.834 230,751.5C 260.516,840.406 313.349,912.906 388.5,969C 450.058,1013.01 518.725,1032.85 594.5,1028.5C 553.321,1043.91 510.655,1049.75 466.5,1046C 454.568,1044.76 442.735,1042.93 431,1040.5C 430.5,1040.83 430,1041.17 429.5,1041.5C 461.816,1113.64 516.816,1157.47 594.5,1173C 707.43,1183.3 787.597,1137.13 835,1034.5C 857.126,980.457 873.792,924.79 885,867.5C 891.379,830.109 885.546,794.775 867.5,761.5C 868.004,752.345 868.338,743.178 868.5,734C 868.285,721.462 867.785,708.962 867,696.5C 873.667,703.833 880.333,711.167 887,718.5C 908.266,745.36 926.766,774.027 942.5,804.5C 993.635,924.937 987.135,1042.27 923,1156.5C 912.48,1174.22 900.98,1191.22 888.5,1207.5C 859.434,1242.06 826.101,1271.9 788.5,1297C 748.992,1321.44 706.659,1338.94 661.5,1349.5C 660.5,1349.5 659.5,1349.5 658.5,1349.5C 720.631,1315.53 767.298,1266.7 798.5,1203C 679.055,1211.24 566.055,1188.24 459.5,1134C 340.139,1071.64 252.639,979.139 197,856.5C 182.795,824.148 173.129,790.481 168,755.5C 162.344,703.538 162.01,651.538 167,599.5C 172.469,548.884 177.469,498.217 182,447.5C 186.353,423.134 196.353,401.467 212,382.5C 221.47,372.029 231.303,361.863 241.5,352C 277.203,323.202 314.87,298.035 354.5,276.5 Z"/></g>
<g><path style="opacity:1" fill="#b38c7b" d="M 415.5,327.5 C 423.532,331.346 431.865,334.512 440.5,337C 458.405,340.848 476.405,344.181 494.5,347C 512.251,351.361 529.251,357.694 545.5,366C 572.307,381.409 596.974,399.742 619.5,421C 650.674,453.34 682.34,485.173 714.5,516.5C 687.703,515.245 661.703,519.745 636.5,530C 629.882,532.389 624.715,536.556 621,542.5C 621.69,550.215 625.856,555.382 633.5,558C 636.833,558.667 640.167,558.667 643.5,558C 662.824,547.392 683.49,541.559 705.5,540.5C 715.182,539.952 724.182,542.119 732.5,547C 736.827,550.499 741.494,553.499 746.5,556C 750.026,556.69 753.36,556.19 756.5,554.5C 775.551,570.381 795.051,585.715 815,600.5C 813.913,606.123 812.58,611.79 811,617.5C 808.196,635.494 809.53,653.161 815,670.5C 823.436,692.719 834.936,713.053 849.5,731.5C 850.518,729.406 851.518,727.406 852.5,725.5C 851.949,728.807 851.616,732.14 851.5,735.5C 850.093,732.961 848.927,733.294 848,736.5C 840.935,756.885 832.435,776.552 822.5,795.5C 820.04,779.186 811.707,766.686 797.5,758C 767.871,744.547 743.704,751.047 725,777.5C 712.798,803.373 716.965,826.206 737.5,846C 753.325,857.786 770.658,860.619 789.5,854.5C 757.559,905.954 717.893,950.788 670.5,989C 647.315,1006.09 621.982,1019.26 594.5,1028.5C 518.725,1032.85 450.058,1013.01 388.5,969C 313.349,912.906 260.516,840.406 230,751.5C 216.073,698.834 211.573,645.5 216.5,591.5C 216.338,593.527 216.505,595.527 217,597.5C 220.385,601.217 223.385,605.217 226,609.5C 228.504,583.329 233.504,557.662 241,532.5C 270.733,439.627 328.9,371.293 415.5,327.5 Z"/></g>
<g><path style="opacity:1" fill="#422c26" d="M 714.5,516.5 C 728.175,529.508 742.175,542.175 756.5,554.5C 753.36,556.19 750.026,556.69 746.5,556C 741.494,553.499 736.827,550.499 732.5,547C 724.182,542.119 715.182,539.952 705.5,540.5C 683.49,541.559 662.824,547.392 643.5,558C 640.167,558.667 636.833,558.667 633.5,558C 625.856,555.382 621.69,550.215 621,542.5C 624.715,536.556 629.882,532.389 636.5,530C 661.703,519.745 687.703,515.245 714.5,516.5 Z"/></g>
<g><path style="opacity:1" fill="#422d26" d="M 342.5,516.5 C 369.963,516.784 396.297,522.284 421.5,533C 435.282,542.241 434.615,550.574 419.5,558C 415.833,558.667 412.167,558.667 408.5,558C 388.146,547.328 366.479,541.495 343.5,540.5C 337.992,540.268 332.659,541.101 327.5,543C 320.407,547.764 313.074,552.097 305.5,556C 293.347,557.198 289.847,552.364 295,541.5C 308.041,527.771 323.874,519.438 342.5,516.5 Z"/></g>
<g><path style="opacity:1" fill="#3b2420" d="M 373.5,606.5 C 399.857,605.346 416.023,617.679 422,643.5C 425.149,664.392 418.982,681.892 403.5,696C 381.468,708.245 363.301,704.078 349,683.5C 341.942,670.688 339.609,657.021 342,642.5C 346.349,624.992 356.849,612.992 373.5,606.5 Z"/></g>
<g><path style="opacity:1" fill="#3b2520" d="M 686.5,606.5 C 713.275,605.426 729.442,618.093 735,644.5C 737.512,664.299 731.679,681.132 717.5,695C 694.711,708.562 675.877,704.395 661,682.5C 648.663,658.307 651.496,636.14 669.5,616C 674.647,611.763 680.314,608.596 686.5,606.5 Z"/></g>
<g><path style="opacity:1" fill="#fcfbfb" d="M 363.5,616.5 C 383.913,615.729 391.413,625.063 386,644.5C 376.427,655.672 366.094,656.339 355,646.5C 348.05,633.568 350.883,623.568 363.5,616.5 Z"/></g>
<g><path style="opacity:1" fill="#fbfbfa" d="M 676.5,616.5 C 693.664,614.835 701.831,622.502 701,639.5C 694.68,653.083 684.846,656.583 671.5,650C 659.615,636.689 661.282,625.522 676.5,616.5 Z"/></g>
<g><path style="opacity:1" fill="#121d45" d="M 851.5,735.5 C 856.848,744.203 862.181,752.869 867.5,761.5C 885.546,794.775 891.379,830.109 885,867.5C 873.792,924.79 857.126,980.457 835,1034.5C 787.597,1137.13 707.43,1183.3 594.5,1173C 516.816,1157.47 461.816,1113.64 429.5,1041.5C 430,1041.17 430.5,1040.83 431,1040.5C 442.735,1042.93 454.568,1044.76 466.5,1046C 510.655,1049.75 553.321,1043.91 594.5,1028.5C 621.982,1019.26 647.315,1006.09 670.5,989C 717.893,950.788 757.559,905.954 789.5,854.5C 801.764,835.649 812.764,815.982 822.5,795.5C 832.435,776.552 840.935,756.885 848,736.5C 848.927,733.294 850.093,732.961 851.5,735.5 Z"/></g>
<g><path style="opacity:1" fill="#cfac9f" d="M 304.5,751.5 C 337.127,748.385 358.294,762.385 368,793.5C 371.424,825.034 358.257,845.867 328.5,856C 297.327,861.147 276.16,848.98 265,819.5C 258.854,785.444 272.02,762.777 304.5,751.5 Z"/></g>
<g><path style="opacity:1" fill="#cfac9f" d="M 822.5,795.5 C 812.764,815.982 801.764,835.649 789.5,854.5C 770.658,860.619 753.325,857.786 737.5,846C 716.965,826.206 712.798,803.373 725,777.5C 743.704,751.047 767.871,744.547 797.5,758C 811.707,766.686 820.04,779.186 822.5,795.5 Z"/></g>
<g><path style="opacity:1" fill="#a17262" d="M 585.5,796.5 C 586.376,796.369 587.043,796.702 587.5,797.5C 570.905,825.655 546.572,835.822 514.5,828C 500.28,822.607 489.28,813.44 481.5,800.5C 481.833,800.167 482.167,799.833 482.5,799.5C 512.85,815.587 543.85,816.754 575.5,803C 579.069,801.058 582.402,798.892 585.5,796.5 Z"/></g>
<g><path style="opacity:1" fill="#bb656c" d="M 640.5,871.5 C 641.552,871.351 642.552,871.517 643.5,872C 618.342,892.731 589.342,903.731 556.5,905C 522.461,908.231 489.461,903.897 457.5,892C 450.011,888.759 443.011,884.759 436.5,880C 457.242,884.129 478.242,885.462 499.5,884C 513.8,881.505 528.133,879.338 542.5,877.5C 573.727,882.358 604.727,881.192 635.5,874C 637.315,873.243 638.981,872.41 640.5,871.5 Z"/></g>
<g><path style="opacity:1" fill="#a17262" d="M 569.5,935.5 C 570.043,935.56 570.376,935.893 570.5,936.5C 560.876,952.137 546.876,958.304 528.5,955C 517.758,952.736 509.758,946.902 504.5,937.5C 504.833,937.167 505.167,936.833 505.5,936.5C 527.118,948.729 548.451,948.395 569.5,935.5 Z"/></g>
<g><path style="opacity:0.999" fill="#26387b" d="M 197.5,1195.5 C 199.074,1195.94 200.241,1196.94 201,1198.5C 211.157,1216.32 222.49,1233.32 235,1249.5C 266.299,1290.98 304.466,1324.32 349.5,1349.5C 254.831,1349.83 160.164,1349.5 65.5,1348.5C 82.188,1297.66 111.855,1256.16 154.5,1224C 168.555,1213.98 182.889,1204.48 197.5,1195.5 Z"/></g>
<g><path style="opacity:0.998" fill="#26387b" d="M 888.5,1207.5 C 936.096,1238.03 971.596,1279.03 995,1330.5C 997.746,1336.65 999.913,1342.99 1001.5,1349.5C 888.167,1349.5 774.833,1349.5 661.5,1349.5C 706.659,1338.94 748.992,1321.44 788.5,1297C 826.101,1271.9 859.434,1242.06 888.5,1207.5 Z"/></g>
</svg>
