<?xml version="1.0" encoding="UTF-8"?>
<svg id="_圖層_2" data-name="圖層 2" xmlns="http://www.w3.org/2000/svg" xmlns:xlink="http://www.w3.org/1999/xlink" viewBox="0 0 160.34 243.01">
  <defs>
    <style>
      .cls-1 {
        fill: #fff;
      }

      .cls-2 {
        fill: url(#_未命名漸層_133);
      }

      .cls-3 {
        fill: #987a50;
      }

      .cls-4 {
        fill: #fad7cd;
      }

      .cls-5 {
        fill: url(#_未命名漸層_131);
      }

      .cls-6 {
        fill: #c8a06c;
      }

      .cls-7 {
        fill: #917347;
      }

      .cls-8 {
        fill: #816030;
      }

      .cls-9 {
        fill: #ef8586;
      }

      .cls-10 {
        fill: #d7ba93;
      }

      .cls-11 {
        fill: #e2aa90;
      }

      .cls-12 {
        fill: url(#_未命名漸層_84);
      }

      .cls-13 {
        fill: url(#_未命名漸層_102);
      }

      .cls-14 {
        fill: #231815;
      }

      .cls-15 {
        fill: #b49061;
      }

      .cls-16 {
        fill: #617330;
      }

      .cls-17 {
        fill: #9a7d54;
      }
    </style>
    <linearGradient id="_未命名漸層_131" data-name="未命名漸層 131" x1="23.13" y1="411.85" x2="39.42" y2="411.85" gradientTransform="translate(47.64 -331.72) scale(1 1.27)" gradientUnits="userSpaceOnUse">
      <stop offset="0" stop-color="#d1b4ac"/>
      <stop offset=".12" stop-color="#e5c5bc"/>
      <stop offset=".25" stop-color="#f4d2c8"/>
      <stop offset=".36" stop-color="#fad7cd"/>
      <stop offset=".61" stop-color="#fad7cd"/>
      <stop offset=".65" stop-color="#fad7cd"/>
    </linearGradient>
    <linearGradient id="_未命名漸層_102" data-name="未命名漸層 102" x1="141.89" y1="103.83" x2="162.62" y2="103.83" gradientTransform="translate(137.25 -1.96) rotate(174.96) scale(.9 -1)" gradientUnits="userSpaceOnUse">
      <stop offset="0" stop-color="#f4d3c8"/>
      <stop offset="1" stop-color="#fad7cd"/>
    </linearGradient>
    <linearGradient id="_未命名漸層_84" data-name="未命名漸層 84" x1="-40.63" y1="118.81" x2="-19.91" y2="118.81" gradientTransform="translate(184.76 -3.4) rotate(5.04) scale(.95 1)" gradientUnits="userSpaceOnUse">
      <stop offset="0" stop-color="#f4d3c8"/>
      <stop offset=".88" stop-color="#f8d6cb"/>
      <stop offset="1" stop-color="#fad7cd"/>
    </linearGradient>
    <linearGradient id="_未命名漸層_133" data-name="未命名漸層 133" x1="78.55" y1="76.99" x2="79.86" y2="236.26" gradientUnits="userSpaceOnUse">
      <stop offset="0" stop-color="#fad7cd"/>
      <stop offset=".47" stop-color="#f4d4c8"/>
      <stop offset="1" stop-color="#e7cdbe"/>
    </linearGradient>
  </defs>
  <g id="_圖層_1-2" data-name="圖層 1">
    <rect class="cls-5" x="70.78" y="177.32" width="16.28" height="31.7" rx="1.63" ry="1.63" transform="translate(272.09 114.25) rotate(90)"/>
    <path class="cls-13" d="m17.2,90.7c-.49-.22-.98-.45-1.48-.67-3.52.2-6.99.88-9.84,3.49-1.69,1.54-2.64,3.61-3.59,5.68-.04.17-.09.33-.16.5-.18.48-.37.96-.57,1.43,0,.26,0,.52-.04.78l-.31,1.23s-.04.08-.06.12l-.06,1.45c-.29,2.29-.34,4.7-.12,7.16,1.23,13.93,10.51,24.48,20.73,23.58l-3.93-44.54c-.19-.06-.39-.12-.58-.2Z"/>
    <path class="cls-12" d="m138.46,89.63c.52-.22,1.04-.44,1.56-.66,3.72.21,7.4.92,10.43,3.54,1.79,1.55,2.82,3.63,3.83,5.7.05.17.1.33.17.5.19.48.4.96.61,1.43,0,.26,0,.52.04.78l.34,1.23s.04.08.06.12l.07,1.45c.32,2.3.38,4.7.17,7.16-1.23,13.93-10.99,24.44-21.8,23.49l3.93-44.54c.2-.06.41-.11.61-.2Z"/>
    <rect class="cls-2" x="11.28" y="17.32" width="134.97" height="170.47" rx="67.48" ry="67.48"/>
    <path class="cls-14" d="m160.34,243.01H0c.06-.94.17-1.88.35-2.83l3.67-19.49c.18-.97.43-1.92.74-2.84,0-.02,0-.05.02-.08,1.31-5.91,4.81-11.19,9.79-15.27,6.41-5.23,15.25-8.47,25.02-8.47h81.26c17.79,0,32.51,10.73,35.01,24.7.18.64.33,1.29.46,1.96l3.67,19.49c.18.95.29,1.89.35,2.83Z"/>
    <g>
      <ellipse class="cls-16" cx="50.67" cy="111.71" rx="9.2" ry="10.39"/>
      <ellipse class="cls-1" cx="49.23" cy="108.18" rx="4.74" ry="4.6"/>
    </g>
    <path class="cls-11" d="m90.01,132.46c0,3.35-4.75,6.06-10.6,6.06s-10.61-2.71-10.61-6.06h.64c1.49,2.32,5.39,3.98,9.97,3.98s8.47-1.66,9.96-3.98h.64Z"/>
    <path class="cls-4" d="m102.7,193.99c0,9.58-10.65,17.35-23.78,17.35s-23.78-7.77-23.78-17.35"/>
    <g>
      <ellipse class="cls-16" cx="109.78" cy="111.71" rx="9.2" ry="10.39"/>
      <ellipse class="cls-1" cx="108.34" cy="108.18" rx="4.74" ry="4.6"/>
    </g>
    <path class="cls-9" d="m90.18,158.97c1.89-1.23,4.12-3.78,4-7.09-.04-1.15-27.31-2.56-29.03,1.91,3.98,11.31,17.99,9.75,25.02,5.18Z"/>
    <path class="cls-6" d="m32.72,94.07l-.28.35c.06-.11.15-.23.28-.35Z"/>
    <path class="cls-15" d="m67.55,93.81c0,.91-1.06,1.64-2.37,1.64-.03,0-.05,0-.08-.01-.02.01-.04.01-.05,0-.23.02-.46.01-.68,0h-.06s-.04-.01-.05-.01c-3.37-.74-7.67-1.18-12.35-1.18-8.84,0-16.3,1.57-18.69,3.73-.69.07-1.38-.03-1.79-.28-.32-.19-.5-.39-.52-.62-.01-.21.12-.43.38-.65l.43-.56.28-.35s.02-.03.04-.04l.43-.57,3.35-4.38c.52-.69,1.59-1.08,2.63-.96l9.76,1.11c1.03.03,2.09.06,3.19.1,4.27.17,8.12.49,10.91.85,1.64.15,2.94.38,3.8.69.11.03.23.07.33.12.03,0,.07.03.1.05.09.04.18.09.25.13t.01,0c.08.04.15.1.21.15.05.04.09.09.13.13.02.02.04.03.05.05.23.25.36.54.36.86Z"/>
    <path class="cls-6" d="m33.19,93.46l-.43.57s-.03.03-.04.04l.47-.61Z"/>
    <path class="cls-15" d="m90.01,93.5c0,.91,1.06,1.64,2.37,1.64.03,0,.05,0,.08-.01.02.01.04.01.05,0,.23.02.46.01.68,0h.06s.04-.01.05-.01c3.37-.74,7.67-1.18,12.35-1.18,8.84,0,16.3,1.57,18.69,3.73.69.07,1.38-.03,1.79-.28.32-.19.5-.39.52-.62.01-.21-.12-.43-.38-.65l-.43-.56-.28-.35s-.02-.03-.04-.04l-.43-.57-3.35-4.38c-.52-.69-1.59-1.08-2.63-.96l-9.76,1.11c-1.03.03-2.09.06-3.19.1-4.27.17-8.12.49-10.91.85-1.64.15-2.94.38-3.8.69-.11.03-.23.07-.33.12-.03,0-.07.03-.1.05-.09.04-.18.09-.25.13t-.01,0c-.08.04-.15.1-.21.15-.05.04-.09.09-.13.13-.02.02-.04.03-.05.05-.23.25-.36.54-.36.86Z"/>
    <path class="cls-10" d="m37.26,44.32c-5.67,1.7-9.6,7-13.62,11.03-2.33,2.33-4.76,4.86-5.39,8.09,3.35-3.55,6.74-7.12,10.72-9.95s8.66-4.88,13.54-5c-6.21,1.73-9.99,7.89-12.65,13.76,4.38-5.03,10.26-8.75,16.69-10.55-4.63,4.99-7.94,11.18-9.53,17.79.53-2.2,3.51-5.01,4.96-6.7,2.01-2.33,4.2-4.5,6.55-6.49,7.66-6.47,16.96-10.57,26.65-12.91,2.46-.6,4.94-1.08,7.44-1.48.56-.09,3.05-.11,3.33-.6.53-.96-2.01-1.3-2.7-1.52-5.46-1.73-11.12-3.28-16.9-3.18-1.93.03-3.86.25-5.74.69-4.29,1.01-8.27,3.15-12.4,4.75-6,2.32-12.86,1.91-19.1,3.22-4.76,1.01-9.82,2.2-13.2,5.71-1.96,2.04-3.13,4.68-3.99,7.34s-2.15,5.37-1.55,8.33c-.13-.66,1.11-2.42,1.44-3,.57-1.03,1.22-2.02,1.92-2.97,1.4-1.9,3.05-3.62,4.88-5.11,3.89-3.16,8.72-5.3,13.54-6.56"/>
    <path class="cls-8" d="m146.81,91.2c-.03.2-.05.4-.08.6-.2,1.48-.18,3.15-.55,4.59-.16.03-.19-.07-.23-.22-.79-2.96-1.59-5.92-2.38-8.88-.51-1.91-.6-3.82-1.04-5.72-1.25-5.41-3.21-10.47-4.89-15.72-1.67-5.22-3.94-10.25-6.77-14.94-3.78-6.27-11.54-6.72-18.29-6.62-8.57.13-17.13.26-25.68.86-13.09.92-26.28.47-39.39.47-3.94,0-7.89,0-11.81.39-3.03.3-5.34.23-8.03,2.02-1.48.98-2.79,2.21-3.96,3.54-.58.66-1.18,1.34-1.69,2.06-1.02,1.47-1.18,3.54-1.78,5.2-1.52,4.2-2.35,8.66-3.39,12.97-1.23,5.08-2.37,10.19-3.43,15.31-.29,1.39-.49,2.76-.64,4.16s-.09,2.75-.43,4.08c-.28,1.09-.27,2.15-.89,3.16-.19-2.15-1-4.25-1.11-6.4-.15-2.9-.16-5.82-.24-8.73-.25-9.5-1.95-18.96-1.32-28.49.59-8.9,2.39-16.89,5.82-25.22C24.38,5.83,56.27.67,78.95.04c11.19-.31,22.53.96,32.93,5.2,6.54,2.67,13.1,5.53,18.68,9.86,5.14,3.98,8.14,8.68,10.75,14.5s5.29,10.94,6.01,17.59c1.12,10.35-1.68,20.42-.48,30.61.37,3.14.66,6.33.41,9.49-.1,1.3-.27,2.6-.44,3.9Z"/>
    <path class="cls-17" d="m91.16,36.25c-5.07,1.3-10.45,4.45-15.66,9.19,2.69-2.45,7.19-2.66,9.83-3.47,3.54-1.09,7.05-1.96,10.49-2.47s6.57-.66,9.69-.35c2.52.25,5.78,2.65,8.43,1.45-6.06-4.59-14.7-6.42-22.79-4.35Z"/>
    <path class="cls-3" d="m26.18,18.96c8.54-7.8,19.22-11.22,29.78-12.22,4.22-.4,8.92-.25,12.07,3.28-9.27-1.37-18.8.11-27.51,4.26-3.4,1.62-6.67,3.64-9.94,5.65-3.67,2.27-6.64,4.81-9.7,8.13-1.72-2.16,4.02-7.93,5.3-9.1Z"/>
    <path class="cls-7" d="m64.29,29.44c-2.22,2.31-3.19,5.57-5.29,7.99-.49-.4.13-1.14.69-1.43,3.71-1.97,7.48-3.95,11.33-5.73,7.81-3.61,15.93-6.38,24.47-6.45-11.92-2.31-21.84-4.14-31.2,5.62Z"/>
    <path class="cls-3" d="m131.89,22.3c7.8,8.54,11.22,19.22,12.22,29.78.4,4.22.25,8.92-3.28,12.07,1.37-9.27-.11-18.8-4.26-27.51-1.62-3.4-3.64-6.67-5.65-9.94-2.27-3.67-4.81-6.64-8.13-9.7,2.16-1.72,7.93,4.02,9.1,5.3Z"/>
    <path class="cls-10" d="m76.21,48.32c-.78-.52-4.63-3.82-5-3.84-1.96-.09-3.49-.84-4.6-1.96-5.51,1.77-11.63,1.52-17.24,2.73-4.65,1.01-9.58,2.2-12.87,5.71-1.91,2.04-3.05,4.68-3.89,7.34-.87,2.75-2.1,5.37-1.51,8.33-.13-.66,1.09-2.42,1.4-3,.56-1.03,1.19-2.02,1.87-2.97,1.37-1.9,2.97-3.62,4.76-5.11,2.9-2.41,6.32-4.23,9.87-5.51-1.72,1.76-3.32,3.63-4.94,5.3-2.27,2.33-4.64,4.86-5.26,8.09,3.27-3.55,6.57-7.12,10.45-9.95,3.88-2.82,8.44-4.88,13.2-5-6.05,1.73-9.74,7.89-12.33,13.76,3.85-4.54,8.9-7.98,14.45-9.93.63-.4,1.35-.69,2.17-.85.49-.25.99-.46,1.5-.61,2.09-.59,4.36-.61,6.51-.88.78-.1,1.54,0,2.25.26.38-.22.75-.44,1.13-.65-.63-.42-1.28-.83-1.91-1.26Z"/>
    <path class="cls-10" d="m68.76,47.91c-.87-.68-5.22-4.93-5.65-4.96-2.21-.12-3.94-1.09-5.19-2.53-6.21,2.29-13.12,1.96-19.45,3.53-5.24,1.3-10.81,2.84-14.52,7.38-2.16,2.64-3.45,6.04-4.4,9.48-.98,3.56-2.37,6.94-1.71,10.76-.15-.85,1.22-3.13,1.58-3.88.63-1.33,1.34-2.61,2.11-3.84,1.54-2.45,3.35-4.67,5.37-6.6,3.27-3.12,7.13-5.46,11.14-7.12-1.94,2.27-3.75,4.7-5.58,6.85-2.56,3.01-5.24,6.28-5.93,10.45,3.69-4.59,7.41-9.2,11.79-12.85,4.38-3.65,9.53-6.3,14.9-6.46-6.83,2.23-10.99,10.19-13.91,17.78,4.35-5.86,10.04-10.31,16.31-12.83.71-.51,1.52-.89,2.44-1.1.55-.32,1.12-.6,1.69-.78,2.36-.76,4.92-.79,7.35-1.14.88-.13,1.73,0,2.54.33.43-.28.85-.57,1.28-.84-.72-.55-1.44-1.08-2.16-1.63Z"/>
    <path class="cls-8" d="m45.29,42.14c-5.67,1.7-9.6,7-13.62,11.03-2.33,2.33-4.76,4.86-5.39,8.09,3.35-3.55,6.74-7.12,10.72-9.95s8.66-4.88,13.54-5c-6.21,1.73-9.99,7.89-12.65,13.76,4.38-5.03,10.26-8.75,16.69-10.55-4.63,4.99-7.94,11.18-9.53,17.79.53-2.2,3.51-5.01,4.96-6.7,2.01-2.33,4.2-4.5,6.55-6.49,4.59-3.87,9.73-6.86,15.21-9.28-3.58,5.21-5.01,12.27-3.79,18.75.59,3.15,1.92,6.33,4.34,7.98-1.47-4.54-.95-9.72.85-14.1s4.78-8.01,8.14-10.97c4.01-3.53,8.61-6.17,13.48-7.75-8.52-2.83-17.46-5.69-26.15-3.64-4.29,1.01-8.27,3.15-12.4,4.75-6,2.32-12.86,1.91-19.1,3.22-4.76,1.01-9.82,2.2-13.2,5.71-1.96,2.04-3.13,4.68-3.99,7.34s-2.15,5.37-1.55,8.33c-.13-.66,1.11-2.42,1.44-3,.57-1.03,1.22-2.02,1.92-2.97,1.4-1.9,3.05-3.62,4.88-5.11,3.89-3.16,8.72-5.3,13.54-6.56"/>
  </g>
</svg>