<?xml version="1.0" encoding="UTF-8"?>
<svg id="_圖層_2" data-name="圖層 2" xmlns="http://www.w3.org/2000/svg" xmlns:xlink="http://www.w3.org/1999/xlink" viewBox="0 0 323.34 259.25">
  <defs>
    <style>
      .cls-1 {
        fill: #40220f;
      }

      .cls-2 {
        fill: #fff;
      }

      .cls-3 {
        fill: url(#_未命名漸層_294-2);
      }

      .cls-4 {
        fill: url(#_未命名漸層_294);
      }

      .cls-5 {
        fill: url(#_未命名漸層_495);
      }

      .cls-6 {
        fill: url(#_未命名漸層_542);
      }

      .cls-7 {
        fill: #aa884f;
      }

      .cls-8 {
        fill: #85401b;
      }

      .cls-9 {
        fill: url(#_未命名漸層_495-2);
      }

      .cls-10 {
        fill: #fbdeb2;
      }

      .cls-11 {
        fill: #f7dbb0;
      }

      .cls-12 {
        fill: #231815;
      }

      .cls-13 {
        fill: #f08831;
      }

      .cls-14 {
        fill: #f7e1ac;
      }
    </style>
    <radialGradient id="_未命名漸層_495" data-name="未命名漸層 495" cx="114.09" cy="96.28" fx="114.09" fy="96.28" r="16.09" gradientTransform="translate(.47 2.18) rotate(-.21) scale(1 .98) skewX(-.41)" gradientUnits="userSpaceOnUse">
      <stop offset="0" stop-color="#318e51"/>
      <stop offset=".11" stop-color="#348f50"/>
      <stop offset=".21" stop-color="#3f934f"/>
      <stop offset=".3" stop-color="#51994d"/>
      <stop offset=".39" stop-color="#6ba24b"/>
      <stop offset=".47" stop-color="#8cae48"/>
      <stop offset=".56" stop-color="#b3bc44"/>
      <stop offset=".61" stop-color="#d2c742"/>
      <stop offset=".79" stop-color="#d2c541"/>
      <stop offset=".86" stop-color="#d4be3e"/>
      <stop offset=".9" stop-color="#d8b23a"/>
      <stop offset=".94" stop-color="#dda134"/>
      <stop offset=".97" stop-color="#e38b2d"/>
      <stop offset="1" stop-color="#eb7124"/>
      <stop offset="1" stop-color="#ed6e23"/>
    </radialGradient>
    <radialGradient id="_未命名漸層_542" data-name="未命名漸層 542" cx="168.05" cy="153.38" fx="168.05" fy="153.38" r="41.35" gradientTransform="translate(12.02 -61.79) rotate(10.91) scale(1.15)" gradientUnits="userSpaceOnUse">
      <stop offset="0" stop-color="#d4bc84"/>
      <stop offset=".4" stop-color="#d6be86"/>
      <stop offset=".65" stop-color="#ddc68f"/>
      <stop offset=".86" stop-color="#ead39d"/>
      <stop offset="1" stop-color="#f7e1ac"/>
    </radialGradient>
    <linearGradient id="_未命名漸層_294" data-name="未命名漸層 294" x1="129.97" y1="157.57" x2="155.09" y2="157.57" gradientTransform="translate(-52.13 22.05) rotate(-8.33) scale(1.2 1.03)" gradientUnits="userSpaceOnUse">
      <stop offset="0" stop-color="#672a13"/>
      <stop offset=".16" stop-color="#562513"/>
      <stop offset=".49" stop-color="#3a1e14"/>
      <stop offset=".79" stop-color="#291914"/>
      <stop offset="1" stop-color="#231815"/>
    </linearGradient>
    <linearGradient id="_未命名漸層_294-2" data-name="未命名漸層 294" x1="200.73" y1="157.75" x2="225.86" y2="157.75" gradientTransform="translate(365.81 -56.56) rotate(166.7) scale(1 -1)" xlink:href="#_未命名漸層_294"/>
    <radialGradient id="_未命名漸層_495-2" data-name="未命名漸層 495" cx="197.74" cy="81.51" fx="197.74" fy="81.51" r="16.09" gradientTransform="translate(7.24 -18.62) rotate(6.05) scale(1 .98) skewX(-.41)" xlink:href="#_未命名漸層_495"/>
  </defs>
  <g id="_圖層_1-2" data-name="圖層 1">
    <path class="cls-14" d="m192.11,44.32c-1.5-.19-3-.38-4.51-.55,3.21.25,6.41.71,9.58,1.37-1.68-.33-3.37-.61-5.07-.82Z"/>
    <path class="cls-14" d="m219.29,53.29c-.91-.51-1.84-1.01-2.78-1.48,3.49,1.71,6.85,3.68,10.05,5.88-2.36-1.55-4.8-3-7.27-4.4Z"/>
    <path class="cls-14" d="m267.69,123.51c-.39-1-.6-2.08-.73-3.19.27,1.09.53,2.18.77,3.28-.02-.03-.03-.06-.04-.09Z"/>
    <path class="cls-14" d="m323.34,259.25H39.21c2.1-4,3.6-8.3,4.45-12.73,1.31.55,2.93-.22,3.75-1.4.85-1.22,1.08-2.76,1.29-4.23.98-6.82,2.2-13.9,6.21-19.5,3.22-4.51,8.03-7.76,10.91-12.49,1.31-2.16,2.18-4.57,3.53-6.72,3.4-5.43,9.47-8.61,13.46-13.63,2.82-3.54,4.48-7.84,6.09-12.07,2.15-5.59,4.29-11.19,6.43-16.78,1.69-4.43,3.4-8.92,3.84-13.63.44-4.73-.42-9.47-.57-14.22-.15-4.74.53-9.8,3.54-13.47,3.26-3.96,8.52-5.51,12.88-8.2,5.36-3.32,9.47-8.61,11.37-14.62,1-3.16,1.39-6.48,1.99-9.75,1.24-6.89,10.99-22.18.84-24.18-.24-.05-.49-.09-.74-.13,2.45-.71,4.89-1.46,7.26-2.4,6.5-2.6,12.32-6.63,18.65-9.61,5.61-2.63,11.54-4.35,17.6-5.23-.8.28-1.55.64-2.22,1.14-2.74,2.07-1.8,6.71-1.02,9.67.61,2.25,1.7,4.34,2.92,6.34,1.55,2.53,3.29,4.92,5.18,7.17,8.39,10.06,19.7,17.67,30.13,25.83,3.57,2.79,6.4,5.7,9.11,9.3.85,1.13,2.1,2.02,2.84,3.2,1.27,2.01.99,4.65,1.5,6.89.9,3.91,3.9,6.98,5.46,10.67,2.14,5.04,1.56,11.11,4.58,15.68,1.23,1.86,3.01,3.38,3.88,5.44.75,1.76.74,3.75,1.3,5.58,1.66,5.42,7.56,8.09,11.8,11.85,5.08,4.49,8.14,11.04,13.6,15.05,5.11,3.76,11.74,4.86,17.11,8.23,2.11,1.31,4.07,2.99,6.49,3.56,7.44,1.73,5.86-5.1,3.54-10.56,1.3,1.91,2.75,3.71,4.4,5.34,6.18,6.08,15.47,10.21,17.37,18.66.41,1.82.42,3.7.71,5.54.38,2.42,1.24,4.73,2.09,7.03,2.16,5.82,4.32,11.64,6.49,17.47.62,1.69,1.26,3.39,1.68,5.15.46,1.94.67,3.92.87,5.89.51,4.96,1.03,9.92,1.54,14.87Z"/>
    <path class="cls-10" d="m62.56,132.55c-1.77-.09-3.51-.62-5.03-1.52-.03-.05-.07-.09-.1-.14.07.05.14.09.21.13,1.5.88,3.18,1.41,4.92,1.53Z"/>
    <path class="cls-14" d="m126.04,63.38c-2.25.66-4.49,1.34-6.68,2.17-14.26,5.49-25.12,17.37-34.25,29.7-7.86,10.62-16,21.04-23.85,31.62-.8,1.08-1.61,2.31-2.39,3.65-.13-.06-.25-.13-.37-.2-.07-.04-.14-.08-.2-.13-2.49-1.54-4.38-4.09-4.95-7.39l-.28-1.61h0c-.05-.11-.1-.21-.15-.3-4.5-9.41-8.46-22.03-10.96-36.15-2.51-14.2-3.12-27.48-2.09-37.91v-.02c0-.11.02-.23.04-.33h0c.16-1.52.35-2.98.58-4.36.29-.8.68-1.54,1.14-2.23h0s0-.03.02-.04c0,0,0,0,0-.02.05-.12.1-.23.16-.34,1.54-3.14,5.63-4.73,11.46-4.91h.15c.24,0,.5-.02.76-.02.33,0,.67,0,1.02,0,2.23.06,4.67.3,7.29.73,7.94.49,17.43,2.41,27.29,5.77,17.35,5.92,31.1,14.68,36.25,22.33Z"/>
    <path class="cls-7" d="m284.65,189.86c-2.42-.57-4.38-2.25-6.49-3.56-5.37-3.37-12-4.47-17.11-8.23-5.46-4.01-8.52-10.56-13.6-15.05-4.24-3.76-10.14-6.43-11.8-11.85-.56-1.83-.55-3.82-1.3-5.58-.87-2.06-2.65-3.58-3.88-5.44-3.02-4.57-2.44-10.64-4.58-15.68-1.56-3.69-4.56-6.76-5.46-10.67-.51-2.24-.23-4.88-1.5-6.89-.74-1.18-1.99-2.07-2.84-3.2-2.71-3.6-5.54-6.51-9.11-9.3-10.43-8.16-21.74-15.77-30.13-25.83-1.89-2.25-3.63-4.64-5.18-7.17-1.22-2-2.31-4.09-2.92-6.34-.78-2.96-1.72-7.6,1.02-9.67.67-.5,1.42-.86,2.22-1.14,3.52-.52,7.09-.75,10.67-.71,1.6.02,3.21.09,4.82.21.03,0,.07.01.12.01,1.51.17,3.01.36,4.51.55,1.7.21,3.39.49,5.07.82.08.02.17.03.26.05,6.3,1.33,12.48,3.44,18.31,6.24.25.13.51.25.76.38.94.47,1.87.97,2.78,1.48,2.47,1.4,4.91,2.85,7.27,4.4.17.11.34.22.5.34,1.34.94,2.65,1.91,3.92,2.93,2.96,2.35,5.74,4.9,8.36,7.59.48.54.94,1.1,1.39,1.67,5.1,6.44,10.22,12.9,14.51,19.91,5.22,9.43,9.11,19.67,11.72,30.19.13,1.11.34,2.19.73,3.19.01.03.02.06.04.09.55,2.45,1.02,4.92,1.43,7.39.25,1.5.48,3.01.71,4.52.6,3.91,1.24,7.81,2.44,11.57,1.25,3.94,3.09,7.67,4.92,11.38,1.25,2.53,2.49,5.07,3.75,7.61.3.62.6,1.23.91,1.85,1.91,3.89,3.86,7.82,6.3,11.38,2.32,5.46,3.9,12.29-3.54,10.56Z"/>
    <path class="cls-7" d="m187.48,43.76c-1.61-.12-3.22-.19-4.82-.21-3.58-.04-7.15.19-10.67.71,1.45-.5,3.05-.69,4.51-.83,3.65-.32,7.33-.07,10.98.33Z"/>
    <path class="cls-7" d="m197.44,45.19c6.34,1.27,12.52,3.37,18.31,6.24-5.83-2.8-12.01-4.91-18.31-6.24Z"/>
    <path class="cls-7" d="m239.34,68.55c-2.62-2.69-5.4-5.24-8.36-7.59-1.27-1.02-2.58-1.99-3.92-2.93,4.51,3.01,8.71,6.41,12.28,10.52Z"/>
    <path class="cls-7" d="m266.48,113.91c.28,2.03.23,4.28.48,6.41-2.61-10.52-6.5-20.76-11.72-30.19.46.74.9,1.47,1.33,2.22,1.88,3.26,3.44,6.49,5.41,9.75,2.2,3.63,3.93,7.57,4.5,11.81Z"/>
    <path class="cls-7" d="m267.73,123.6c1.16,3.02,2.77,5.61,2.52,9.04-.08,1.07-.27,1.96-.38,2.87-.23-1.51-.46-3.02-.71-4.52-.41-2.47-.88-4.94-1.43-7.39Z"/>
    <path class="cls-7" d="m288.19,179.3c-2.44-3.56-4.39-7.49-6.3-11.38-.31-.62-.61-1.23-.91-1.85,1.48,2.61,3.01,5.2,4.5,7.78.61,1.06,1.73,3.13,2.71,5.45Z"/>
    <path class="cls-14" d="m240.09,69.33c-2.83-2.98-5.87-5.79-9.11-8.37-13.6-10.83-31.06-17.24-48.32-17.41,1.5-4.17,3.4-8.5,5.67-12.86,3.84-7.36,8.26-13.81,12.72-18.86,6.4-7.27,12.89-11.66,17.9-11.83,1.61.03,3.04.55,4.23,1.63.09.08.17.15.25.24,0,.01.01.01.01.01.01.01.02.01.03.02h0c.55.4,1.07.86,1.57,1.39,6.05,11.7,11.31,30.05,13.76,50.12.68,5.56,1.1,10.9,1.29,15.92Z"/>
    <g>
      <circle class="cls-12" cx="195.4" cy="83.13" r="7.37"/>
      <circle class="cls-2" cx="191.44" cy="84.49" r="1.81"/>
    </g>
    <path class="cls-7" d="m128.38,85.81c-.6,3.27-.99,6.59-1.99,9.75-1.9,6.01-6.01,11.3-11.37,14.62-4.36,2.69-9.62,4.24-12.88,8.2-3.01,3.67-3.69,8.73-3.54,13.47.15,4.75,1.01,9.49.57,14.22-.44,4.71-2.15,9.2-3.84,13.63-2.14,5.59-4.28,11.19-6.43,16.78-1.61,4.23-3.27,8.53-6.09,12.07-3.99,5.02-10.06,8.2-13.46,13.63-1.35,2.15-2.22,4.56-3.53,6.72-2.88,4.73-7.69,7.98-10.91,12.49-4.01,5.6-5.23,12.68-6.21,19.5-.21,1.47-.44,3.01-1.29,4.23-.82,1.18-2.44,1.95-3.75,1.4.11-.54.2-1.09.28-1.63.85-5.32.78-10.78-.26-16.06-.61-3.09-1.53-6.14-1.8-9.26,0-.01-.01-.02,0-.03-.04-.44-.06-.89-.07-1.34-.05-2.94.59-5.75,1.58-8.49,1.85-5.11,4.92-9.99,7.03-15.07,3.78-9.07,4.51-19.38,2.06-28.89-.97-3.77-2.43-7.45-2.7-11.32-.33-4.83,1.34-11.12,3.79-16.86.97-2.28,2.06-4.48,3.21-6.46.11-.2.23-.4.35-.59.8-1.36,1.63-2.61,2.45-3.71,8.06-10.76,16.41-21.37,24.47-32.17,9.37-12.55,20.51-24.63,35.14-30.22,2.24-.85,4.54-1.54,6.85-2.21.77-.23,1.55-.45,2.32-.67.04-.01.08-.02.12-.04.25.04.5.08.74.13,10.15,2,.4,17.29-.84,24.18Z"/>
    <path class="cls-7" d="m41.81,218.2c.01.45.03.9.07,1.34-.61-1.87-.56-4-.05-5.92.36-1.36.91-2.65,1.56-3.91-.99,2.74-1.63,5.55-1.58,8.49Z"/>
    <path class="cls-7" d="m43.94,244.89c-.08.54-.17,1.09-.28,1.63-.04-.01-.08-.03-.12-.05.14-.52.28-1.05.4-1.58Z"/>
    <path class="cls-7" d="m128.48,61.5s-.08.03-.12.04c-.77.22-1.55.44-2.32.67-2.31.67-4.61,1.36-6.85,2.21-14.63,5.59-25.77,17.67-35.14,30.22-8.06,10.8-16.41,21.41-24.47,32.17-.82,1.1-1.65,2.35-2.45,3.71-.12.19-.24.39-.35.59-1.15,1.98-2.24,4.18-3.21,6.46,2.64-8.83,7.27-17.38,12.14-25.24,3.33-5.38,6.82-10.68,10.44-15.87,6.86-9.84,14.4-19.48,24.26-26.32,7.47-5.18,18.63-10.14,28.07-8.64Z"/>
    <g>
      <path class="cls-5" d="m131.82,92.65c-.17,8.2-6.15,15.57-14.78,17.42-8.64,1.85-17.11-2.43-20.62-9.84.17-8.2,6.15-15.57,14.78-17.42,8.63-1.85,17.11,2.43,20.61,9.84Z"/>
      <g>
        <circle class="cls-12" cx="112.16" cy="99.4" r="7.37"/>
        <circle class="cls-2" cx="108.39" cy="101.21" r="1.81"/>
      </g>
      <path class="cls-1" d="m126.82,86.29c-4.09-3.37-9.77-4.79-15.61-3.38-7.05,1.71-12.43,7.12-14.32,13.56-.11-.23-.22-.47-.32-.71.15-8.19,5.42-15.56,13.02-17.41,6.92-1.69,13.73,1.72,17.22,7.94Z"/>
    </g>
    <ellipse class="cls-6" cx="168.48" cy="148.14" rx="55.13" ry="38.57" transform="translate(-24.99 34.56) rotate(-10.91)"/>
    <g>
      <path class="cls-13" d="m157.21,90.06c-4.78,1.27-9.77,2.65-13.37,6.05-2.27,2.15-3.79,5.9-1.8,8.3,2.1,2.55,6.19,1.56,9.32,2.64,5.59,1.94,9.66,11.71,11.05,16.93.19.71.36,1.46.87,1.99s1.47.71,1.95.15c1.94-2.25-1.29-7.05-1.38-9.57-.14-4.13,1.45-9.69,4.46-12.69,2.03-2.02,6.85-2.31,7.58-5.42.25-1.04-.11-2.13-.5-3.13-.81-2.07-1.82-4.14-3.49-5.61-4.08-3.56-10.23-.84-14.68.34Z"/>
      <ellipse class="cls-8" cx="150.5" cy="101.79" rx="4.62" ry="3.05" transform="translate(-7.42 11.95) rotate(-4.44)"/>
      <ellipse class="cls-8" cx="167.15" cy="98.22" rx="4.62" ry="3.05" transform="translate(-22.81 59.48) rotate(-18.91)"/>
    </g>
    <g>
      <path class="cls-12" d="m182.52,141.66c-3.45-3.39-9.39-5.02-15.65-3.83-6.29,1.19-11.23,4.92-13.18,9.36-1.81-.1-3.03-2.13-2.04-3.83l10.7-18.41c.78-1.34,2.57-1.68,3.79-.72l16.7,13.2c1.49,1.18,1.19,3.4-.32,4.23Z"/>
      <path class="cls-4" d="m127.86,172.11c4.09-.89,6.93-3.57,9.38-6.05,1.89-1.91,3.78-3.82,5.68-5.73,1.6-1.61,3.19-3.22,4.62-4.9,2.21-2.58,4-5.29,5.79-8,.79-1.19,1.62-2.9.5-4.09-.58-.61-1.4-.36-2.01.13-.77.64-.78,1.34-1.15,2.12-.43.9-.78,1.89-1.33,2.74-.48.73-1.05,1.42-1.5,2.17-1.23,2.11-2.61,4.16-4.11,6.15-2.11,2.78-4.5,5.48-7.15,8.06-1.37,1.34-2.81,2.64-4.32,3.92-.92.77-3.1,3.19-4.39,3.47Z"/>
      <path class="cls-3" d="m209.58,155.07c-3.45.52-6.53-.99-9.25-2.44-2.1-1.12-4.2-2.24-6.3-3.36-1.77-.94-3.54-1.89-5.21-2.94-2.57-1.63-4.87-3.51-7.16-5.38-1.01-.83-2.23-2.1-1.77-3.55.49-1.55,2.84-.1,3.47.58.28.3.5.66.74,1,.45.63.98,1.19,1.51,1.74.98,1.02,2.04,1.92,3.12,2.83s2.4,1.69,3.43,2.66c2.56,1.84,5.31,3.51,8.22,4.99,1.51.77,3.06,1.49,4.65,2.15.97.4,3.46,1.89,4.55,1.72Z"/>
    </g>
    <g>
      <path class="cls-9" d="m212.7,80.01c-1.06,8.13-7.81,14.81-16.59,15.7s-16.74-4.28-19.42-12.03c1.06-8.13,7.81-14.81,16.59-15.7,8.78-.89,16.74,4.28,19.41,12.03Z"/>
      <g>
        <circle class="cls-12" cx="194.16" cy="84.49" r="7.37"/>
        <circle class="cls-2" cx="190.22" cy="85.88" r="1.81"/>
      </g>
      <path class="cls-1" d="m208.43,73.16c-3.69-3.8-9.19-5.83-15.15-5.06-7.2.93-13.13,5.72-15.71,11.92-.09-.24-.17-.49-.24-.74,1.04-8.12,7.08-14.88,14.85-15.89,7.06-.93,13.46,3.21,16.26,9.77Z"/>
    </g>
    <path class="cls-1" d="m73.39,40.09c-1.11-.05-2.38-.37-3.47-.07-2.28.63-.14,2.44.81,3.3,2.99,2.71,6.52,4.75,10.19,6.34,5.33,2.3,11.01,3.8,16.48,5.63s11.57,3.69,17.59,4.42c.56.07,1.35-.07,1.34-.65,0-.2-.12-.38-.23-.54-2.28-3.28-5.29-5.1-8.81-6.67-4-1.78-7.86-3.98-11.94-5.69-4.14-1.74-8.35-3.35-12.66-4.61-3.08-.9-6.16-1.35-9.3-1.47Z"/>
    <path class="cls-1" d="m131.54,68.83c.76,1.08,1.76,2.33,3.06,2.14.36-3.24-1.14-6.36-2.61-9.27-.13-.26-.27-.53-.52-.66-.23-.13-.51-.12-.78-.1-1.85.1-4.82-.43-4.12,2.01.5,1.74,3.84,4.28,4.96,5.88Z"/>
    <path class="cls-1" d="m169.83,53.6c.01,1.32-.08,2.92-1.24,3.52-1.28-1.42-2.02-3.23-2.5-5.06-.51-1.96-.87-4.01-.95-6.03-.03-.64,1.27-.75,1.69-.82.48-.09.98-.15,1.46-.26.51-.12.98-.3,1.51-.21.07.01.15.03.2.08.05.05.08.12.11.18,1.15,2.87-.31,5.66-.28,8.6Z"/>
    <path class="cls-1" d="m223.74,97.38c-.15,1.83-.2,3.72-.06,5.51.4,5.25,2.42,10.39,5.81,14.43,1.33,1.59,3.06,2.16,4.48,3.42,1.32,1.17,1.99,3.7,2.76,5.29,1.91,3.95,3.9,7.86,6.11,11.66,4.39,7.55,9.7,14.7,16.65,20.08.63.49,1.43.99,2.17.7.33-.13.58-.39.81-.66,3.5-4.02,4.49-9.68,4.23-15s-1.62-10.52-2.22-15.81c-.32-2.77-.43-5.58-1.08-8.3-.84-3.51-2.56-6.73-4.26-9.91-3.36-6.29-5.64-13.1-9.17-19.31-2.81-4.95-9.64-15.06-16.69-10.92-1.56.91-2.64,2.6-2.81,4.4-.1,1.09.1,2.21-.19,3.26-.37,1.34-1.48,2.32-2.48,3.28-1.71,1.64-3.56,3.57-3.86,5.98-.08.62-.15,1.26-.2,1.9Z"/>
    <path class="cls-1" d="m56.33,136.93c2.96.65,6.19-.09,8.57-1.97,1.93-1.53,3.32-3.75,5.5-4.87,1.45-.75,3.12-.94,4.74-1.18,3.59-.54,7.12-1.43,10.54-2.65,2.76-.98,5.98-3.16,5.27-6.01-3.43-1.16-7.18-2.33-10.58-1.1-1.4.51-2.64,1.39-3.96,2.07-4.67,2.42-9.28.59-13.18,3.35-2.53,1.79-7.55,9.12-6.91,12.36Z"/>
    <path class="cls-1" d="m69.24,163.92c.87,4.49-.16,9.32-2.79,13.07-.92,1.31-2.05,2.56-2.35,4.13-.52,2.83,2.12,5.5,4.96,5.92s5.67-.84,8.08-2.41c4.11-2.68,7.82-7.77,5.67-12.17-2.6.1-5.17.76-7.5,1.93-.04-5.24-.08-10.48-.12-15.73-2.37.94-4.35,2.83-5.39,5.16"/>
    <path class="cls-1" d="m89.83,153.53c.01.99.38,2.25,1.37,2.31.46.03.88-.25,1.27-.51.81-.56,1.67-1.17,2.01-2.09.21-.55.2-1.16.21-1.75.06-2.8.84-5.26,1.4-7.95.37-1.78.69-2.92-1.15-1.99-3.39,1.72-5.14,8.7-5.11,12Z"/>
    <g>
      <path class="cls-10" d="m0,199.24c5.87-1.61,10.39-3.93,14.72-6.18,13.48-6.99,26.95-13.99,40.43-20.98,18.29-9.49,36.76-19.1,49.7-29.37-4.59,3.64-16.98,8.44-23.44,11.98-9.05,4.95-18.09,9.9-27.14,14.85-18.09,9.9-36.18,19.8-54.27,29.71Z"/>
      <path class="cls-11" d="m80.01,163.38c-.81.66-1.62,1.33-2.42,2.01-7.19,6.06-13.73,12.74-20.17,19.57-2.32,2.46-4.64,4.92-6.7,7.6-6.94,9.05-10.53,20.17-14,31.04-1.24,3.88-2.47,7.77-3.22,11.77,1.61-8.56,6.1-16.5,9.44-24.51,2.8-6.71,6.16-13.16,11.17-18.43,3.36-3.53,6.71-7.06,10.07-10.59,2.09-2.2,4.18-4.39,6.42-6.43,1.77-1.6,3.62-3.09,5.48-4.58,4.41-3.54,8.81-7.08,13.22-10.62,3.5-2.81,8.54-5.67,11.23-9.2-2.42.17-4.24,1.67-6.34,2.66-1.92.9-3.58,1.78-5.36,3.03-3.02,2.13-5.96,4.36-8.82,6.69Z"/>
    </g>
    <path class="cls-7" d="m245.15,131.3c.58,1.76,2.15,2.98,3.64,4.09.76.56,1.66,1.15,2.57.9,1.04-.29,1.48-1.53,1.51-2.61s-.18-2.2.21-3.2c.58-1.47,2.34-2.29,2.75-3.82.34-1.29-.39-2.59-1.09-3.72-1.62-2.62-4.33-9.23-7.56-4.76-1.71,2.36-2.92,10.42-2.04,13.12Z"/>
    <g>
      <path class="cls-10" d="m246.5,180.18c-1.48-2.82-3.46-4.83-5.38-6.75-5.97-5.97-11.93-11.95-17.9-17.92-8.1-8.1-16.29-16.29-24.8-21.48,3.02,1.84,7.23,7.58,10.23,10.42,4.2,3.97,8.41,7.94,12.61,11.91,8.41,7.94,16.82,15.88,25.23,23.82Z"/>
      <path class="cls-10" d="m283.88,177.24c-2.88-3.37-6.18-5.48-9.36-7.49-9.91-6.26-19.82-12.51-29.73-18.77-13.45-8.49-27.05-17.06-40.13-21.47,4.64,1.57,12.11,8.05,17.05,10.97,6.91,4.09,13.82,8.17,20.72,12.26,13.82,8.17,27.63,16.34,41.45,24.51Z"/>
      <path class="cls-10" d="m283.88,161.91c-3.13-2.43-6.17-3.83-9.1-5.16-9.12-4.14-18.24-8.28-27.35-12.42-12.37-5.62-24.89-11.28-35.74-13.69,3.85.86,11.27,5.38,15.75,7.28,6.27,2.67,12.54,5.33,18.81,8,12.54,5.33,25.08,10.66,37.63,15.99Z"/>
      <path class="cls-10" d="m288.13,141.84c-3.49-1.87-6.73-2.73-9.85-3.55-9.69-2.53-19.37-5.06-29.06-7.6-13.14-3.44-26.44-6.9-37.54-7.43,3.94.19,12.02,3.39,16.76,4.51,6.63,1.56,13.26,3.13,19.9,4.69,13.26,3.13,26.53,6.25,39.79,9.38Z"/>
      <path class="cls-10" d="m280.25,119.12c-3.11-.91-5.87-1.03-8.52-1.13-8.25-.3-16.51-.61-24.76-.91-11.2-.41-22.52-.82-31.65.83,3.24-.58,10.27.58,14.3.63,5.63.07,11.25.13,16.88.19,11.25.13,22.51.26,33.76.39Z"/>
      <path class="cls-10" d="m264.86,107.21c-2.36-.39-4.39-.24-6.34-.08-6.06.49-12.12.97-18.17,1.46-8.22.66-16.53,1.33-23.04,3.29,2.31-.69,7.56-.46,10.5-.77,4.12-.43,8.23-.87,12.35-1.3,8.23-.87,16.47-1.73,24.7-2.6Z"/>
    </g>
  </g>
</svg>