<?xml version="1.0" encoding="UTF-8"?>
<svg id="_圖層_2" data-name="圖層 2" xmlns="http://www.w3.org/2000/svg" xmlns:xlink="http://www.w3.org/1999/xlink" viewBox="0 0 161.72 233.14">
  <defs>
    <style>
      .cls-1 {
        fill: #fff;
      }

      .cls-2 {
        fill: url(#_未命名漸層_192);
      }

      .cls-3 {
        fill: #c3ada8;
      }

      .cls-4 {
        fill: url(#_未命名漸層_76);
      }

      .cls-5 {
        fill: url(#_未命名漸層_3);
      }

      .cls-6 {
        fill: #af3839;
      }

      .cls-6, .cls-7 {
        opacity: .33;
      }

      .cls-8 {
        opacity: .57;
      }

      .cls-8, .cls-9 {
        fill: #b38347;
      }

      .cls-10 {
        opacity: .6;
      }

      .cls-10, .cls-7, .cls-11 {
        fill: #b28247;
      }

      .cls-12 {
        fill: #9e726b;
      }

      .cls-13 {
        fill: #494645;
      }

      .cls-14 {
        fill: #fbe0d0;
      }

      .cls-15 {
        fill: url(#_未命名漸層_68);
      }

      .cls-16 {
        fill: #ef8586;
      }

      .cls-17 {
        fill: #3e3a39;
      }

      .cls-18 {
        fill: #595757;
      }

      .cls-19 {
        fill: #3c5e84;
      }

      .cls-20 {
        fill: url(#_未命名漸層_60);
      }

      .cls-21 {
        fill: url(#_未命名漸層_55);
      }

      .cls-22 {
        fill: #898989;
      }

      .cls-23 {
        fill: #4c4948;
      }

      .cls-24 {
        fill: #fbe2db;
      }

      .cls-25 {
        fill: #e2aa90;
      }

      .cls-26 {
        fill: none;
      }

      .cls-27 {
        fill: url(#_未命名漸層_182);
      }

      .cls-28 {
        fill: #c4b2ae;
      }

      .cls-29 {
        fill: #3c3736;
      }

      .cls-30 {
        fill: #905e59;
      }

      .cls-31 {
        fill: #b5b5b6;
      }

      .cls-32 {
        fill: url(#_未命名漸層_68-2);
      }

      .cls-33 {
        fill: #231815;
      }

      .cls-34 {
        fill: #9fa0a0;
      }

      .cls-35 {
        fill: url(#_未命名漸層_72);
      }
    </style>
    <linearGradient id="_未命名漸層_192" data-name="未命名漸層 192" x1="45.27" y1="194.56" x2="68.83" y2="194.56" gradientUnits="userSpaceOnUse">
      <stop offset="0" stop-color="#595757"/>
      <stop offset="1" stop-color="#393332"/>
    </linearGradient>
    <linearGradient id="_未命名漸層_182" data-name="未命名漸層 182" x1="91.96" y1="194.56" x2="118.38" y2="194.56" gradientUnits="userSpaceOnUse">
      <stop offset="0" stop-color="#393332"/>
      <stop offset="1" stop-color="#595757"/>
    </linearGradient>
    <linearGradient id="_未命名漸層_3" data-name="未命名漸層 3" x1="44.95" y1="440.37" x2="61.23" y2="440.37" gradientTransform="translate(27.24 -378.4) scale(1 1.27)" gradientUnits="userSpaceOnUse">
      <stop offset="0" stop-color="#d8c1b0"/>
      <stop offset=".13" stop-color="#ead2c6"/>
      <stop offset=".26" stop-color="#f6ddd5"/>
      <stop offset=".36" stop-color="#fbe2db"/>
      <stop offset=".57" stop-color="#fbe1d9"/>
      <stop offset=".64" stop-color="#fbe0d2"/>
      <stop offset=".65" stop-color="#fbe0d0"/>
    </linearGradient>
    <linearGradient id="_未命名漸層_68" data-name="未命名漸層 68" x1="40.82" y1="9.76" x2="67.26" y2="9.76" gradientUnits="userSpaceOnUse">
      <stop offset="0" stop-color="#705c64"/>
      <stop offset=".43" stop-color="#715d65"/>
      <stop offset=".58" stop-color="#77646c"/>
      <stop offset=".69" stop-color="#817077"/>
      <stop offset=".78" stop-color="#8f8187"/>
      <stop offset=".86" stop-color="#a1979b"/>
      <stop offset=".92" stop-color="#b8b2b5"/>
      <stop offset=".98" stop-color="#d2d2d2"/>
      <stop offset="1" stop-color="#dcdddd"/>
    </linearGradient>
    <linearGradient id="_未命名漸層_68-2" data-name="未命名漸層 68" x1="27.97" y1="15.78" x2="66.87" y2="15.78" xlink:href="#_未命名漸層_68"/>
    <linearGradient id="_未命名漸層_60" data-name="未命名漸層 60" x1="71.56" y1="13.27" x2="111.06" y2="13.27" gradientUnits="userSpaceOnUse">
      <stop offset="0" stop-color="#dcdddd"/>
      <stop offset=".05" stop-color="#cccacb"/>
      <stop offset=".17" stop-color="#b0a8ac"/>
      <stop offset=".3" stop-color="#988c91"/>
      <stop offset=".43" stop-color="#86777d"/>
      <stop offset=".58" stop-color="#79676f"/>
      <stop offset=".75" stop-color="#725e66"/>
      <stop offset="1" stop-color="#705c64"/>
    </linearGradient>
    <linearGradient id="_未命名漸層_55" data-name="未命名漸層 55" x1="137.13" y1="27.01" x2="151.06" y2="27.01" gradientUnits="userSpaceOnUse">
      <stop offset="0" stop-color="#705c64"/>
      <stop offset=".43" stop-color="#715d65"/>
      <stop offset=".58" stop-color="#77646c"/>
      <stop offset=".69" stop-color="#817077"/>
      <stop offset=".78" stop-color="#8f8187"/>
      <stop offset=".86" stop-color="#a1979b"/>
      <stop offset=".92" stop-color="#b8b2b5"/>
      <stop offset=".98" stop-color="#d2d2d2"/>
      <stop offset="1" stop-color="#dcdddd"/>
    </linearGradient>
    <linearGradient id="_未命名漸層_72" data-name="未命名漸層 72" x1="14.57" y1="28.93" x2="44" y2="28.93" gradientUnits="userSpaceOnUse">
      <stop offset="0" stop-color="#c9caca"/>
      <stop offset=".04" stop-color="#bbb8ba"/>
      <stop offset=".13" stop-color="#a39c9f"/>
      <stop offset=".22" stop-color="#908489"/>
      <stop offset=".33" stop-color="#827278"/>
      <stop offset=".46" stop-color="#77656c"/>
      <stop offset=".63" stop-color="#715e65"/>
      <stop offset="1" stop-color="#705c64"/>
    </linearGradient>
    <linearGradient id="_未命名漸層_76" data-name="未命名漸層 76" x1="125.8" y1="40.92" x2="151.05" y2="40.92" gradientTransform="translate(5.53 -15.43) rotate(6.51)" gradientUnits="userSpaceOnUse">
      <stop offset="0" stop-color="#705c64"/>
      <stop offset=".34" stop-color="#715e66"/>
      <stop offset=".51" stop-color="#78656d"/>
      <stop offset=".63" stop-color="#837279"/>
      <stop offset=".74" stop-color="#92858a"/>
      <stop offset=".84" stop-color="#a69da1"/>
      <stop offset=".92" stop-color="#bfbabc"/>
      <stop offset="1" stop-color="#dcdddd"/>
    </linearGradient>
  </defs>
  <g id="_圖層_1-2" data-name="圖層 1">
    <ellipse class="cls-29" cx="81.55" cy="190.56" rx="44.87" ry="14.77"/>
    <path class="cls-17" d="m161.72,233.14H1.38c.06-.94.17-1.88.35-2.83l3.67-19.49c.18-.97.43-1.92.74-2.84,0-.02.01-.05.02-.08,1.31-5.91,4.81-11.19,9.79-15.27,6.41-5.23,15.25-8.47,25.02-8.47h81.26c17.79,0,32.51,10.73,35.01,24.7.18.64.33,1.29.46,1.96l3.67,19.49c.18.95.29,1.89.35,2.83Z"/>
    <path class="cls-24" d="m104.47,184.02v.14c-.06,5.63-3.8,10.62-9.55,13.75-3.96,2.17-8.89,3.45-14.23,3.45s-10.76-1.42-14.83-3.8c-5.41-3.14-8.89-7.97-8.95-13.4v-.14h47.56Z"/>
    <path class="cls-18" d="m161.72,233.14h-77.83c1.52-7.84,3.46-15.23,5.79-22.06h0c.22-.69.46-1.36.69-2.02.06-.15.11-.29.16-.44.32-.89.66-1.79,1-2.68.24-.62.48-1.24.74-1.86.11-.32.24-.64.38-.95.25-.64.52-1.27.78-1.89.2-.48.42-.96.63-1.43.2-.45.4-.9.61-1.34.02-.05.05-.11.07-.16.06-.13.12-.27.18-.4.12-.26.24-.51.36-.76.21-.45.42-.89.64-1.32.07-.14.13-.27.2-.4.21-.43.43-.84.64-1.26.02-.03.03-.07.05-.1.24-.48.49-.95.74-1.41,1.61-3.04,3.32-5.88,5.12-8.5.04-.05.07-.09.1-.14h1.7v.14h17.76c17.79,0,32.51,10.73,35.01,24.7.18.64.33,1.29.46,1.96l3.67,19.49c.18.95.29,1.89.35,2.83Z"/>
    <path class="cls-18" d="m76.69,233.14H1.38c.06-.94.17-1.88.35-2.83l3.67-19.49c.18-.97.43-1.92.74-2.84,0-.02.01-.05.02-.08,1.31-5.91,4.81-11.19,9.79-15.27,6.41-5.23,15.25-8.47,25.02-8.47h15.94v-.14h1.55s.06.09.09.14c1.47,2.23,2.88,4.61,4.22,7.13.05.1.11.2.16.3.64,1.21,1.27,2.45,1.88,3.73.3.61.58,1.23.87,1.85l.18.39c.03.08.07.15.1.23.55,1.19,1.07,2.4,1.58,3.64.35.84.69,1.7,1.03,2.57.09.22.18.45.26.68,1.48,3.84,2.82,7.9,4.04,12.13,1.48,5.19,2.76,10.65,3.82,16.33Z"/>
    <path class="cls-17" d="m97.55,192.73c-.25.46-.5.93-.74,1.41-.02.03-.03.07-.05.1-.21.42-.43.83-.64,1.26-.07.13-.13.26-.2.4-.22.43-.43.87-.64,1.32-.12.25-.24.5-.36.76-.06.13-.12.27-.18.4-.02.05-.05.11-.07.16-.21.44-.41.89-.61,1.34-.21.47-.43.95-.63,1.43-.26.62-.53,1.25-.78,1.89-.14.31-.27.63-.38.95-.26.62-.5,1.24-.74,1.86-.34.89-.68,1.79-1,2.68-.05.15-.1.29-.16.44-3.64.9-7.71.67-11.54.31-1.85-.17-3.76-.38-5.29-1.19-1.24-.66-2.12-1.65-2.94-2.64-.98-1.19-1.9-2.41-2.79-3.65-.09-.18-.17-.36-.27-.53-.51-1.24-1.03-2.45-1.58-3.64-.03-.08-.07-.15-.1-.23l-.18-.39c-.29-.62-.57-1.24-.87-1.85-.61-1.28-1.24-2.52-1.88-3.73,2.12,1.72,5.43,3.01,9.26,3.4,1.03.1,2.04.14,3.01.11.6-.02,1.18-.08,1.75-.14.03,0,.05,0,.07,0,.1,0,.2,0,.3.01.05,0,.1.01.15.01h.05c.2.04.41.08.61.14,0,.01.04.02.06.02t.02,0h.01s.01.01.01.01h.01s.05.02.07.03c.04.03.07.07.11.1.01.01.02.01.04.02.01.01.01.03.02.05.01,0,.01.01.02.01.08.19.17.35.19.39.24.46.49.91.82,1.32.28.34.55.69.82,1.03.21.27.43.65.78.78.07-.07.12-.15.17-.23,0-.01.01-.02.02-.03.06-.16.14-.32.23-.48,1.2-2.25,3.1-3.68,4.36-3.29,1.89.22,3.99.14,6.15-.28,1.76-.34,3.39-.87,4.83-1.53.24-.11.46-.22.68-.33Z"/>
    <path class="cls-31" d="m72.85,216.81c-1.29-4.48-2.72-8.77-4.3-12.81-.34-.87-.68-1.73-1.03-2.57-.51-1.24-1.03-2.45-1.58-3.64-.03-.08-.07-.15-.1-.23l-.18-.39c-.03-.05-.05-.11-.08-.16-.41.23-.83.43-1.27.57.03.07.06.14.09.21.56,1.19,1.07,2.4,1.58,3.64.35.84.69,1.7,1.04,2.57,1.57,4.04,3,8.33,4.29,12.81,1.48,5.19,2.77,10.65,3.82,16.33h1.53c-1.06-5.68-2.34-11.14-3.82-16.33Z"/>
    <path class="cls-31" d="m95.3,197.12s-.01.02-.02.04c-.12.25-.24.5-.36.76-.06.13-.12.27-.18.4-.02.05-.05.11-.07.16-.21.44-.41.89-.61,1.34-.21.47-.43.95-.63,1.43-.26.62-.53,1.25-.78,1.89-.14.31-.27.63-.38.95-.26.62-.5,1.24-.74,1.86-.34.89-.68,1.79-1,2.68-.05.15-.1.29-.16.44-.23.66-.47,1.33-.69,2.01h0c-2.33,6.84-4.27,14.23-5.79,22.07h1.56c1.52-7.84,3.46-15.23,5.79-22.06h0c.22-.69.46-1.36.69-2.02.06-.15.11-.29.16-.44.32-.89.66-1.79,1-2.68.24-.62.48-1.24.74-1.86.11-.32.24-.64.38-.95.25-.64.52-1.27.78-1.89.2-.48.42-.96.63-1.43.2-.45.4-.9.61-1.34.02-.05.05-.11.07-.16.06-.13.12-.27.18-.4.09-.2.18-.39.27-.58-.48-.02-.97-.09-1.45-.22Z"/>
    <path class="cls-33" d="m79,216c.27-11.56,2.96-20.71,6.29-21.21-.1-.02-.2-.03-.3-.03-3.47,0-6.31,9.37-6.59,21.28.19-.02.39-.03.59-.04Z"/>
    <circle class="cls-22" cx="77.44" cy="200.16" r="1.41"/>
    <circle class="cls-34" cx="82.37" cy="206.15" r="1.41"/>
    <circle class="cls-34" cx="81.55" cy="212.35" r="1.41"/>
    <path class="cls-23" d="m61.16,183.25v4.1c-.23-.43-.47-.85-.71-1.27h-.01c-.37-.66-.75-1.3-1.13-1.92-.03-.05-.06-.09-.08-.14h-.47v-.77h2.4Z"/>
    <path class="cls-13" d="m61.16,187.35v.5h-2.4v-3.83h.47s.05.09.08.14c.38.62.76,1.26,1.13,1.91h.01c.24.43.48.85.71,1.28Z"/>
    <path class="cls-24" d="m64.87,189.22c-.64.57-2.16-.1-3.39-1.49-.16-.18-.31-.36-.43-.55-.23-.43-.47-.85-.71-1.27h-.01c-.28-.76-.27-1.41.09-1.73.16-.14.38-.21.63-.2.76.02,1.84.65,2.76,1.69,1.23,1.39,1.7,2.98,1.06,3.55Z"/>
    <path class="cls-23" d="m100.52,183.29v4.1c.23-.43.47-.85.71-1.27h.01c.37-.66.75-1.3,1.13-1.92.03-.05.06-.09.08-.14h.47v-.77h-2.4Z"/>
    <path class="cls-13" d="m100.52,187.39v.5h2.4v-3.83h-.47s-.05.09-.08.14c-.38.62-.76,1.26-1.13,1.91h-.01c-.24.43-.48.85-.71,1.28Z"/>
    <path class="cls-24" d="m96.85,189.26c.64.57,2.16-.1,3.39-1.49.16-.18.31-.36.43-.55.23-.43.47-.85.71-1.27h.01c.28-.76.27-1.41-.09-1.73-.16-.14-.38-.21-.63-.2-.76.02-1.84.65-2.76,1.69-1.23,1.39-1.7,2.98-1.06,3.55Z"/>
    <path class="cls-17" d="m67.1,204.68c-7.59,2.28-17.36-5.21-22.47-17.58-.4-.98-.77-1.96-1.09-2.94h12.52v-.14h.97v3.83h2.4v-.5c.71,1.27,1.39,2.59,2.06,3.94.04.1.1.2.15.3.59,1.21,1.17,2.45,1.74,3.73.27.61.53,1.23.8,1.85l.17.39c.03.08.06.15.09.23.51,1.19.99,2.4,1.47,3.64.32.84.63,1.7.95,2.57.08.22.17.45.24.68Z"/>
    <rect class="cls-29" x="58.22" y="182.96" width="3.95" height="1.06"/>
    <rect class="cls-29" x="99.91" y="182.68" width="5.47" height="1.34"/>
    <path class="cls-2" d="m68.83,204.68c-7.59,2.28-17.36-5.21-22.47-17.58-.4-.98-.77-1.96-1.09-2.94h12.52v-.14h.97v3.83h2.4v-.5c.71,1.27,1.39,2.59,2.06,3.94.04.1.1.2.15.3.59,1.21,1.17,2.45,1.74,3.73.27.61.53,1.23.8,1.85l.17.39c.03.08.06.15.09.23.51,1.19.99,2.4,1.47,3.64.32.84.63,1.7.95,2.57.08.22.17.45.24.68Z"/>
    <path class="cls-1" d="m59.34,209.67c-.05-1.43-.11-2.88.08-4.29.26-1.99,1-4.01.55-5.94-.05-.26-.33-.3-.48-.14s-.2.45-.24.71c-.61,4.06-.93,8.19-.97,12.33-.03,3.5-.3,8.78.78,11.98,1.31-.77.64-4.52.59-5.99l-.32-8.68Z"/>
    <path class="cls-17" d="m93.33,204.92c8.63,2.31,19.72-5.27,25.53-17.78.46-.99.87-1.98,1.24-2.97h-14.23v-.14h-1.63c-.03.05-.06.09-.09.14-1.55,2.26-3.03,4.66-4.44,7.21-.05.1-.12.2-.17.3-.67,1.22-1.34,2.48-1.98,3.77-.32.62-.61,1.24-.92,1.87l-.19.39c-.03.08-.07.15-.11.23-.58,1.2-1.13,2.43-1.66,3.68-.37.85-.73,1.72-1.08,2.6-.09.22-.19.46-.27.69Z"/>
    <path class="cls-27" d="m91.96,204.68c8.51,2.28,19.46-5.21,25.19-17.58.46-.98.86-1.96,1.23-2.94h-14.04v-.14h-1.61s-.06.09-.09.14c-1.53,2.23-2.99,4.61-4.38,7.13-.05.1-.11.2-.17.3-.66,1.21-1.32,2.45-1.95,3.73-.31.61-.6,1.23-.9,1.85l-.19.39c-.03.08-.07.15-.1.23-.57,1.19-1.11,2.4-1.64,3.64-.36.84-.72,1.7-1.07,2.57-.09.22-.19.45-.27.68Z"/>
    <path class="cls-1" d="m100.03,223.94c-.02.21-.03.42-.02.63.24.12.55.07.75-.11.27-.25.19-.59.21-.91.02-.41.09-.83.13-1.24.09-.83.17-1.66.26-2.48.13-1.27-.02-2.6-.15-3.87-.27-2.6-.76-5.19-.84-7.81-.07-2.07-.14-4.13-.21-6.2-.01-.33,0-.65-.03-.98-.01-.1-.2-.93-.3-.91-.17.03-.35.07-.46.2-.06.07-.1.17-.13.26-.08.24-.16.47-.19.72-.02.18-.02.37-.01.55.01.62-.04,1.22-.01,1.84.04.72.09,1.44.14,2.16.11,1.39.25,2.78.39,4.17.23,2.34.39,4.68.53,7.02.09,1.53.17,3.06.18,4.6,0,.8-.15,1.59-.21,2.37Z"/>
    <path class="cls-33" d="m115.77,184.04c-7.2-3.96-19.47-6.58-33.4-6.58s-26.2,2.61-33.4,6.58h66.8Z"/>
    <rect class="cls-5" x="72.19" y="166.98" width="16.28" height="31.7" rx="1.63" ry="1.63" transform="translate(263.16 102.5) rotate(90)"/>
    <path class="cls-11" d="m131.09,2.55c-1.48-.41-3.03-.77-4.65-1.08l4.65,1.08Z"/>
    <g>
      <path class="cls-24" d="m143.12,132.68c-.41.18-.83.33-1.26.46.78-4.3,1.19-8.75,1.19-13.3v-30.47l-.56,6.34c-.03-.09-.07-.18-.1-.27.49-4.84.48-10.91-.14-17.45-.4-4.18-1-8.13-1.75-11.65-.7-3.31-1.53-6.24-2.43-8.65-1.51-4.01-3.2-6.56-4.85-6.91,0,.02,0,.03,0,.05.16.69.32,1.37.48,2.06.17.68.33,1.37.49,2.06.45,1.88.89,3.76,1.32,5.64.22.96.44,1.92.65,2.88-1.43-4.1-3.04-8.13-4.82-12.09.4-.38.83-.6,1.29-.64.03,0,.05-.01.08,0-1.5-3.19-3.17-6.28-4.88-9.35-1.18-2.1-1.89-3.87-3.32-5.41-.47-.52-1.02-1.01-1.69-1.48-.04-.03-.08-.05-.12-.07-.28-.19-.56-.37-.84-.55-.42-.25-.84-.49-1.27-.71-.87-.47-1.78-.86-2.72-1.18-.89-.31-1.76-.5-2.63-.61-.5-.02-1-.03-1.5-.04-1.2.03-2.39.07-3.55.07-.08,0-.16,0-.24,0-.25.01-.5.02-.74.02-.34.01-.66.01-.99.01h-.07c-1.29-.02-2.58-.08-3.84-.08-2.21,0-4.42-.01-6.63-.03-2.34-.02-4.68-.03-7.03-.03-4.12-.02-8.25-.01-12.38,0h-2.55c-1.06.01-2.12.01-3.18.01s-2.07.01-3.1.01h-.25c-1.57.01-3.14.02-4.7.03h-1.72c-1.8.01-3.61.02-5.42.09-.23-.01-.46-.01-.69-.02-.61,0-1.22,0-1.83-.01-2.58,0-5.17,0-7.75-.02-1.68-.01-3.41,0-5.08.26h-.03c-4.13.24-9.94,4.13-14.73,10.24-3.1,3.96-5.18,8.12-6.05,11.66-.55,2.22-.63,4.2-.17,5.73-1,3.97-2.01,9.7-2.84,16.33-.25,2.03-.49,4.16-.71,6.34-.04.4-.08.8-.12,1.2,0,.04,0,.09-.01.14-.08,1.16-.16,2.19-.26,3-.79,9.73-.87,17.93-.26,22.02.32.85.72,1.37,1.19,1.5l.11,1.27.16,1.78.26,2.94c-.83,3.62-1.7,6.74-2.58,9.25-.55-.06-1.1-.15-1.64-.27.6,2.7,1.37,5.35,2.29,7.92h.01c.76,2.18,1.65,4.3,2.64,6.37.14.28.27.56.42.84,1,1.87,2.58,4.27,4.61,6.93,7.39,9.66,20.89,22.84,35.48,27.47,3.12,1,6.39,1.69,6.39,1.69,3.07.64,7.95,1.45,14,1.45s11.31-.86,14.47-1.56c.01,0,2.59-.56,5.09-1.32,10.77-3.26,20.4-9.14,28.16-16.89,2.97-2.97,5.66-6.22,8.03-9.7.44-.64.87-1.28,1.28-1.94,1.56-2.46,2.96-5.03,4.2-7.69.27-.58.53-1.16.78-1.74.6-1.39,1.15-2.81,1.66-4.25-.23.11-.48.22-.72.31ZM21.61,72.83c-.02-.11-.03-.21-.04-.32.14-.43.29-.86.43-1.29-.1.54-.23,1.08-.39,1.61Zm50.04,9.01c-.07.01-.15-.02-.22-.09-.14-.13-.2-.39-.17-.63.14-.82.16-2.21.03-3.79-.12-1.57-.36-2.94-.62-3.74-.08-.22-.05-.49.06-.64.07-.08.13-.12.2-.13.52-.04,1.1,1.95,1.3,4.44.2,2.49-.06,4.54-.58,4.58Zm20.3-1c.06.21.01.47-.12.59-.07.08-.14.11-.22.11-.53,0-.97-1.91-.97-4.28s.44-4.28.97-4.28c.08,0,.15.03.22.1.13.13.18.39.12.6-.2.77-.34,2.09-.34,3.58s.14,2.81.34,3.58Z"/>
      <path class="cls-24" d="m161.01,106.63c-.01.67-.05,1.34-.1,2.01-.69,8.56-4.45,15.82-9.66,19.9,0-.02.01-.03.01-.05-1.08.81-2.21,1.49-3.4,2.03-.63.3-1.28.54-1.94.75,0-.01.01-.03.01-.04-.68.43-1.37.81-2.09,1.14-.23.11-.48.22-.72.31-.41.18-.83.33-1.26.46.78-4.3,1.19-8.75,1.19-13.3v-31.21s.04,0,.06.01c1.35.14,2.68.39,3.97.81.01,0,.02.01.03.01v-2.7c.18.02.36.04.54.07,1.19.14,2.35.38,3.49.75,1.65.54,3.22,1.37,4.64,2.66,1.72,1.56,2.71,3.64,3.69,5.72.04.17.1.33.16.49.15.38.29.77.45,1.15.07.17.14.33.18.49.33,1.26.5,2.51.62,3.8.04.43.08.85.1,1.27.03.56.01,1.11.02,1.66.02.61.03,1.21.01,1.81Z"/>
      <path class="cls-24" d="m23.06,118.05h-3.54l.22,2.82.24,2.94c-.75,3.62-1.54,6.74-2.33,9.25-.23-.03-.47-.06-.7-.1-.11-.31-.22-.61-.32-.92-.52,0-.95-.02-1.06-.04-1.23-.19-2.39-.59-3.57-.86.02,0,.05.02.07.05-.48-.27-.95-.56-1.41-.88-.29-.21-.57-.42-.85-.64C4.59,125.6.8,118.31.11,109.71c-.2-2.46-.12-4.87.19-7.17.04-.67.07-1.35.15-2.01.05-.33.1-.65.18-.97.07-.29.08-.56.18-.85.11-.29.22-.58.34-.87.1-.26.19-.56.34-.78.27-.4.45-.89.67-1.33.81-1.65,1.75-3.23,3.04-4.42,1.47-1.34,3.1-2.19,4.81-2.73.05-.01.08-.03.13-.04.24-.08.5-.15.76-.21.01-.01.03-.01.04-.01.41-.1.81-.19,1.23-.27v-4.14h10.89v34.14Z"/>
      <path class="cls-14" d="m15.58,94.46c-.03,1.22-.09,2.44-.21,3.65-.14,1.43-.35,2.85-.68,4.25-1.19.1-1.67-1.48-1.74-2.67-.04-.7-.08-1.41-.12-2.11-.05-.8-.09-1.6-.14-2.39-.3-5.13-.61-10.25-.9-15.38h.02c.28,5.04.59,10.07.88,15.11.05.79.09,1.59.14,2.39.04.7.08,1.41.12,2.11.07,1.19.55,2.77,1.74,2.67.33-1.4.54-2.82.68-4.25.1-1.12.17-2.24.21-3.38Z"/>
      <path class="cls-14" d="m15.66,83.06h0c-.03.59-.05,1.18-.06,1.77.01-.62.03-1.23.05-1.84v.07Z"/>
      <path class="cls-14" d="m19.37,125.1c-1.15.1-2.28.09-3.4-.04.88-2.51,1.75-5.63,2.58-9.25l.82,9.29Z"/>
      <path class="cls-14" d="m14.83,101.71c-.04.22-.09.43-.14.65h-.08c.1-.18.17-.41.22-.65Z"/>
      <path class="cls-14" d="m15.26,99.05c-.09.82-.22,1.63-.39,2.44.07-.5.09-1.01.15-1.27.09-.38.17-.77.24-1.17Z"/>
      <path class="cls-14" d="m54.06,31.36c-8.32,0-12.48,0-12.48,0,.19-.06.38-.1.57-.14.15-.03.3-.06.45-.09.1-.01.2-.03.3-.04.12-.02.24-.04.36-.05.18-.02.35-.04.55-.04.46-.03.91-.02,1.36.02,1.72.17,3.51.23,5.24.23.11,0,.21.01.32.02l1.71.05,1.62.04Z"/>
      <path class="cls-14" d="m126.94,37.52s-.01.05-.01.08c-1.27-1.28-2.63-2.44-4.1-3.44,0-.01,0-.03-.01-.05,1.4.94,2.78,2.09,4.12,3.41Z"/>
      <path class="cls-24" d="m24.03,56.71c0,.13-.02.26-.04.39.07-.2.14-.4.19-.6l-.15.21Zm.3-.4c-.02.2-.03.4-.04.6h0c-.09.21-.2.41-.31.61,0-.13,0-.27.01-.4t-.01.02c-.22,1.59-.7,3.18-1.16,4.73.66-1.54,1.32-3.09,1.98-4.64-.01-.46-.01-.94.01-1.43-.16.13-.32.31-.48.51Z"/>
      <path class="cls-24" d="m135.52,60.59c-.43-1.88-.87-3.76-1.32-5.64-.16-.69-.32-1.38-.49-2.06-.23-.54-.48-1.08-.73-1.62-.08-.18-.17-.36-.26-.53-.03-.01-.05,0-.08,0-.46.04-.89.26-1.29.64,1.78,3.96,3.39,7.99,4.82,12.09-.21-.96-.43-1.92-.65-2.88Zm-20.82-29.26c-.33-.03-.65-.05-.98-.06-.26-.01-.52-.01-.78,0-.2,0-.4,0-.6.01h-.1c-.21,0-.42.02-.63.04-.11,0-.22.01-.33.02h-.04c-.16.01-.31.02-.47.03-.19.02-.38.03-.57.04,1.16,0,2.35-.04,3.55-.07.5.01,1,.02,1.5.04-.16-.02-.31-.04-.46-.05h-.09Zm-73.82.24s-.06.02-.08.03c-.2.06-.39.13-.58.21-2.94.38-6.06,2.48-8.74,5.78,1.76-1.58,3.77-2.92,5.74-4.18.14-.09.27-.18.41-.26.43-.28.8-.4,1.26-.61,2.55-1.12,5.45-1.16,8.2-1.14,2.58.01,5.17.02,7.75.02-8.84-.03-13.26-.05-13.26-.06-.23.06-.47.13-.7.21ZM15.88,95.65c.05-.31.1-.61.15-.91.38-1.88.62-3.78.81-5.68.06-.68.12-1.35.16-2.02.01-.03.01-.06.01-.09.17-1.2.33-3.18.45-5.41.04-.77.07-1.5.09-2.19-.14.85-.27,1.71-.39,2.58-.7,4.97-1.13,9.66-1.28,13.72Z"/>
      <path class="cls-24" d="m17.09,86.3c-.02.24-.05.45-.08.65,0,.03,0,.06-.01.09-.04.67-.1,1.34-.16,2.02-.19,1.9-.43,3.8-.81,5.68-.05.3-.1.6-.15.91-.22,5.86.1,10.43.95,12.67-.61-4.09-.53-12.29.26-22.02Zm.46-6.95c-.02.69-.05,1.42-.09,2.19-.03.56-.06,1.1-.1,1.62.04-.4.08-.8.12-1.2.22-2.18.46-4.31.71-6.34-.22,1.21-.44,2.46-.64,3.73Z"/>
      <path class="cls-24" d="m18.89,80.9c-.01.35-.04.7-.09,1.05,0-.25.01-.51.01-.76.03-.1.05-.19.08-.29Z"/>
      <path class="cls-24" d="m19.37,79.3c-.06.85-.1,1.7-.11,2.55,0-.78.02-1.57.05-2.35.02-.06.04-.13.06-.2Z"/>
      <path class="cls-24" d="m20.75,74.97c-.03.34-.06.68-.09,1.02,0-.23,0-.47-.01-.7.03-.11.06-.22.1-.32Z"/>
      <path class="cls-24" d="m21.11,73.88c-.06.86-.12,1.73-.17,2.6.01-.71.01-1.43.02-2.14.05-.16.1-.31.15-.46Z"/>
      <path class="cls-24" d="m22,71.22c-.1.54-.23,1.08-.39,1.61-.02-.11-.03-.21-.04-.32.14-.43.29-.86.43-1.29Z"/>
      <path class="cls-24" d="m27.1,54.62c-.05.15-.1.3-.15.45.02-.04.03-.08.03-.12.04-.11.08-.22.12-.33Z"/>
      <path class="cls-24" d="m71.65,81.84c-.07.01-.15-.02-.22-.09-.14-.13-.2-.39-.17-.63.14-.82.16-2.21.03-3.79-.12-1.57-.36-2.94-.62-3.74-.08-.22-.05-.49.06-.64.07-.08.13-.12.2-.13.52-.04,1.1,1.95,1.3,4.44.2,2.49-.06,4.54-.58,4.58Z"/>
      <path class="cls-24" d="m91.95,80.84c.06.21.01.47-.12.59-.07.08-.14.11-.22.11-.53,0-.97-1.91-.97-4.28s.44-4.28.97-4.28c.08,0,.15.03.22.1.13.13.18.39.12.6-.2.77-.34,2.09-.34,3.58s.14,2.81.34,3.58Z"/>
      <path class="cls-24" d="m152.22,120.49s-.01.03-.01.05c-1.82,1.3-3.81,2.28-5.9,2.88-.01.04-.02.08-.03.12-.55,2.71-1.26,5.36-2.14,7.93-.04.15-.09.29-.14.44-.05.15-.11.31-.16.46-.23.11-.48.22-.72.31-.41.18-.83.33-1.26.46.78-4.3,1.19-8.75,1.19-13.3v-30.47l.06-.73.74-8.33h0s.03-.33.03-.33v-.16s.04-.32.04-.32h.01c.21-.06.42-.12.63-.2.54-.22,1.09-.44,1.64-.65.48.03.97.06,1.45.11v31.21c0,4.55-.45,9-1.31,13.3,2.09-.59,4.06-1.54,5.88-2.78Z"/>
      <g>
        <ellipse class="cls-19" cx="110.75" cy="101.37" rx="9.2" ry="10.39"/>
        <ellipse class="cls-1" cx="109.31" cy="97.84" rx="4.74" ry="4.6"/>
      </g>
      <path class="cls-25" d="m88.7,123.12c0,3.35-2.92,6.06-6.53,6.06s-6.53-2.71-6.53-6.06h.39c.92,2.32,3.32,3.98,6.14,3.98s5.22-1.66,6.14-3.98h.39Z"/>
      <path class="cls-12" d="m35.07,82.89c-.18-2.02,1.32-4.36,3.04-5.72.89-.7,2.39-1.5,14.19-1.01,4.41.19.87.16,7.53.64,3.28.24,5.31.33,7.08,1.78.49.4,1.68,1.38,1.64,2.73-.03.83-.51,1.46-.65,1.64-.65.79-1.51.98-1.76,1.03-1,.2-1.84-.14-2.16-.26-.68-.26-2.67-.32-6.65-.44-1.46-.04-3.48-.07-5.89,0-2.63.08-3.95.12-5.16.29-6.75.96-8.47,1.36-8.47,1.36-.29.07-1.18.3-1.86-.15-.73-.5-.83-1.53-.86-1.89Z"/>
      <path class="cls-16" d="m95.21,148.09c2.1-.89,4.49-2.74,4.05-5.14-.15-.83-32.22-1.83-33.83,1.4,5.68,8.18,21.95,7.05,29.78,3.73Z"/>
      <path class="cls-3" d="m37.15,97.5c0,.4-1.54.72-3.45.72s-3.45-.32-3.45-.72c0-.06.03-.11.09-.16.1-.09.31-.13.48-.09.62.15,1.68.25,2.88.25s2.26-.1,2.88-.25c.18-.04.38,0,.48.09.06.05.09.11.09.16Z"/>
      <path class="cls-3" d="m37.46,99.06c.16.43-1.27,1.34-3.18,2.03-1.91.69-3.59.89-3.74.46-.02-.06-.01-.13.02-.21.07-.14.26-.26.45-.27.68-.06,1.78-.33,2.99-.76,1.21-.43,2.23-.92,2.79-1.31.16-.11.38-.14.52-.08.08.04.13.08.15.14Z"/>
      <path class="cls-11" d="m15.58,94.46c-.03,1.22-.09,2.44-.21,3.65-.14,1.43-.35,2.85-.68,4.25-1.19.1-1.67-1.48-1.74-2.67-.04-.7-.08-1.41-.12-2.11-.05-.8-.09-1.6-.14-2.39-.3-5.13-.61-10.25-.9-15.38h.02c.28,5.04.59,10.07.88,15.11.05.79.09,1.59.14,2.39.04.7.08,1.41.12,2.11.07,1.19.55,2.77,1.74,2.67.33-1.4.54-2.82.68-4.25.1-1.12.17-2.24.21-3.38Z"/>
      <path class="cls-11" d="m15.66,83.06h0c-.03.59-.05,1.18-.06,1.77.01-.62.03-1.23.05-1.84v.07Z"/>
      <path class="cls-12" d="m24.39,149.47c0,.07,0,.14-.03.2-.05.07-.15.1-.23.11-.76.12-1.45-.41-2.03-.9-1.16-.99-2.32-1.99-3.33-3.13-.46-.53-.57-1.16-.9-1.76-.37-.67-.72-1.36-1.06-2.06-.67-1.39-1.29-2.81-1.87-4.24-.45-1.12-.81-2.31-1.29-3.4-.26-.58-.68-1.12-1-1.66-.11-.21-.53-1.23-.77-1.48,0-.01-.01-.01-.01-.01-.01-.01-.02-.02-.02-.03,1.17.27,2.31.66,3.53.85.11.02.54.03,1.06.04.1.31.21.6.31.91h0s.01,0,.01,0c.67,1.97,1.45,3.87,2.31,5.74.14.3.27.59.42.88.01.02.02.04.03.05,1.12,2.19,2.48,4.25,3.89,6.25.21.3.46.6.65.93.11.18.2.38.26.58.19.64.07,1.45.07,2.12Z"/>
      <polygon class="cls-30" points="16.76 132.92 16.75 132.92 16.75 132.91 16.76 132.92"/>
      <path class="cls-7" d="m147.65,85.86v7.61c-.13-2.05-.31-4.14-.13-6.16.04-.48.09-.96.13-1.45Z"/>
      <path class="cls-11" d="m146.78,103.08c.16-.89.34-1.38.53-1.38.18,0,.35.45.5,1.25-.29.24-.67.26-1.03.13Z"/>
      <path class="cls-11" d="m152.09,79.57h0s-.04,0-.06-.01c-.64-.19-1.29-.33-1.94-.46.11,0,.21.03.32.05.28.06,1.18.14,1.67.33.01.03.01.06.01.09Z"/>
      <path class="cls-11" d="m15.58,94.46c-.03,1.22-.09,2.44-.21,3.65-.14,1.43-.35,2.85-.68,4.25-1.19.1-1.67-1.48-1.74-2.67-.04-.7-.08-1.41-.12-2.11-.05-.8-.09-1.6-.14-2.39-.3-5.13-.61-10.25-.9-15.38h.02c.28,5.04.59,10.07.88,15.11.05.79.09,1.59.14,2.39.04.7.08,1.41.12,2.11.07,1.19.55,2.77,1.74,2.67.33-1.4.54-2.82.68-4.25.1-1.12.17-2.24.21-3.38Z"/>
      <path class="cls-11" d="m15.66,83.06h0c-.03.59-.05,1.18-.06,1.77.01-.62.03-1.23.05-1.84v.07Z"/>
      <path class="cls-11" d="m152.09,79.57h0s-.04,0-.06-.01h.06Z"/>
      <path class="cls-6" d="m144.03,80.58v.03c-.01-.07-.03-.15-.05-.22-.03-.14-.07-.27-.1-.41l.04-.48h.01c.04.36.07.72.1,1.08Z"/>
      <path class="cls-9" d="m15.66,82.8c0,.05-.01.11-.01.16v.1s.02-.1.02-.15v-.11Zm-3.87-3.26c-.08.01-.17.02-.25.03-.26.02-.52.05-.77.08-.76.1-1.51.23-2.25.4-.01,0-.03,0-.05.01-.28.06-.57.13-.84.21,0-.33-.01-.66-.02-1-.04.43-.08.87-.12,1.31.05-.01.09-.03.14-.04.27-.08.56-.15.84-.21.02-.01.04-.01.05-.01.74-.17,1.49-.3,2.25-.4.25-.03.51-.06.77-.08.08-.01.17-.02.25-.03h.02c-.01-.09-.01-.18-.02-.27Z"/>
      <path class="cls-8" d="m127.29,37.86c-.12-.12-.24-.23-.35-.34-.01.03-.01.05-.01.08-1.27-1.28-2.63-2.44-4.1-3.44,0-.01,0-.03-.01-.05v-.02s.08.04.12.07c.36.25.72.51,1.07.78.08.06.16.12.24.18.36.28.72.57,1.07.87.3.26.59.52.88.79.14.13.28.26.42.4.11.11.22.21.32.32.12.11.24.23.35.36Z"/>
      <path class="cls-8" d="m127.63,38.21c-.12-.11-.23-.23-.34-.35.07.06.14.13.21.2.05.05.09.1.13.15Z"/>
      <path class="cls-11" d="m47.01,30.95s-.11,0-.16.01c-.04-.01-.07-.02-.11-.03.09.01.18.02.27.02Z"/>
      <path class="cls-11" d="m111.72,30.98c-.25.01-.5.03-.75.05-.22.02-.44.03-.66.04.19-.01.38-.02.57-.04.28-.02.56-.04.84-.05Z"/>
      <path class="cls-11" d="m112.45,30.94c-.24.01-.48.02-.73.04.21-.02.42-.03.63-.04h.1Z"/>
      <path class="cls-11" d="m46.74,30.93c-.96-.04-1.9-.13-2.82-.27.46-.02.91-.02,1.36.02.3.03.6.07.89.12.11.02.23.04.34.07.08.02.15.04.23.06Z"/>
      <path class="cls-30" d="m122.82,34.11s.01.04.01.05c1.47,1,2.83,2.16,4.1,3.44,0-.03,0-.05.01-.08-1.34-1.32-2.72-2.47-4.12-3.41Z"/>
      <path class="cls-30" d="m127.5,38.06c-.07-.07-.14-.14-.21-.2.11.12.22.24.34.35-.04-.05-.08-.1-.13-.15Zm-.56-.56c-.1-.11-.21-.21-.32-.32-.14-.14-.28-.27-.42-.4-.29-.27-.58-.53-.88-.79-.35-.3-.71-.59-1.07-.87-.08-.06-.16-.12-.24-.18-.35-.27-.71-.53-1.07-.78-.04-.03-.08-.05-.12-.07v.02c1.4.94,2.78,2.09,4.12,3.41.11.11.23.22.35.34-.11-.13-.23-.25-.35-.36Z"/>
      <path class="cls-11" d="m143.98,80.39c.02.07.04.15.05.22v-.03c-.01-.06-.03-.13-.05-.19Z"/>
      <path class="cls-11" d="m147.65,78.76v.35c.16.02.33.04.49.06.03,0,.05.01.08.01,0-.12.02-.23.03-.35-.2-.03-.4-.05-.6-.07Z"/>
      <path class="cls-10" d="m127.29,37.86c-.12-.12-.24-.23-.35-.34v-.02c.12.11.24.23.35.36Z"/>
      <path class="cls-10" d="m127.63,38.21c-.12-.11-.23-.23-.34-.35.07.06.14.13.21.2.05.05.09.1.13.15Z"/>
      <path class="cls-10" d="m152.03,79.56c-.64-.19-1.29-.33-1.94-.46.11,0,.21.03.32.05.28.06,1.18.14,1.67.33.01.03.01.06.01.09h0s-.04,0-.06-.01Z"/>
      <path class="cls-10" d="m152.3,79.89s-.01.05-.01.08h-.06s-.25-.06-.25-.06c0-.02,0-.04,0-.06.11,0,.22.02.33.04Z"/>
      <path class="cls-12" d="m127.84,82.89c.09-3.12-1.47-4.84-1.47-4.84-1.06-1.16-2.42-1.39-7.96-1.64-4.04-.18-6.06-.27-7.8-.24-12,.2-15.12,1.79-15.98,3.08-.84,1.26-.74,2.5-.74,2.5.02.31.08.9.49,1.39.48.58,1.23.78,2.41.84,2.11.11,3.77-.32,3.95-.37,1.1-.29,3.25-.34,7.53-.44,3.7-.09,5.56-.13,7.09.11,5.39.83,8.2,1.26,9.78,1.65.29.07,1.2.31,1.86-.15.19-.14.36-.32.49-.53.33-.55.36-1.09.37-1.36Z"/>
      <path class="cls-28" d="m71.65,81.84c-.07.01-.15-.02-.22-.09-.14-.13-.2-.39-.17-.63.14-.82.16-2.21.03-3.79-.12-1.57-.36-2.94-.62-3.74-.08-.22-.05-.49.06-.64.07-.08.13-.12.2-.13.52-.04,1.1,1.95,1.3,4.44.2,2.49-.06,4.54-.58,4.58Z"/>
      <path class="cls-28" d="m91.95,80.84c.06.21.01.47-.12.59-.07.08-.14.11-.22.11-.53,0-.97-1.91-.97-4.28s.44-4.28.97-4.28c.08,0,.15.03.22.1.13.13.18.39.12.6-.2.77-.34,2.09-.34,3.58s.14,2.81.34,3.58Z"/>
      <g>
        <ellipse class="cls-19" cx="52.38" cy="101.37" rx="9.2" ry="10.39"/>
        <ellipse class="cls-1" cx="50.94" cy="97.84" rx="4.74" ry="4.6"/>
      </g>
      <path class="cls-22" d="m144.22,63.68c-.05.45-.09.92-.02,1.19-.05-.08-.08-.16-.11-.25,0-.47-.02-.94-.06-1.4.05.14.1.27.17.4-.11-.41.03-1.22.09-1.78.02.29.03.58.03.87,0,.22-.05.59-.1.97Z"/>
      <path class="cls-12" d="m147.86,130.52c-.6.28-1.21.51-1.83.71-.1.04-.2.1-.29.15-.07.04-.15.06-.22.09-.54.33-1.1.63-1.67.89-.51,1.44-1.06,2.86-1.66,4.25-.25.58-.51,1.16-.78,1.74-1.24,2.66-2.64,5.23-4.2,7.69-.41.66-.84,1.3-1.28,1.94-.09.61.01,1.32.03,1.92,0,.07,0,.15.03.21.05.07.15.1.23.11.77.11,1.44-.46,2.01-.99,1.14-1.06,2.27-2.13,3.26-3.34.45-.56.54-1.22.86-1.85.35-.71.68-1.44,1.01-2.18.63-1.46,1.22-2.96,1.77-4.46.42-1.18.75-2.43,1.21-3.58.24-.61.65-1.19.96-1.76.1-.22.5-1.29.73-1.56,0-.01.01-.01.01-.01,0-.01.02-.02.02-.03-.06.02-.13.03-.19.05Z"/>
      <path class="cls-24" d="m145.62,132.87h0c.28.01.53-.05.77-.17.25-.08.46-.22.64-.41.2-.18.33-.4.41-.64.13-.24.18-.5.17-.77l-.07-.53c-.1-.34-.27-.63-.51-.88l-.4-.31c-.31-.18-.65-.27-1.01-.27h0c-.28-.01-.53.05-.77.17-.25.08-.46.22-.64.41-.2.18-.33.4-.41.64-.13.24-.18.5-.17.77l.07.53c.1.34.27.63.51.88l.4.31c.31.18.65.27,1.01.27h0Z"/>
      <path class="cls-24" d="m145.68,132.85c2.57,0,2.58-4,0-4s-2.58,4,0,4h0Z"/>
      <path class="cls-24" d="m145.5,132.93c2.57,0,2.58-4,0-4s-2.58,4,0,4h0Z"/>
      <path class="cls-24" d="m145.44,132.95c2.57,0,2.58-4,0-4s-2.58,4,0,4h0Z"/>
      <path class="cls-24" d="m145.44,132.96c2.57,0,2.58-4,0-4s-2.58,4,0,4h0Z"/>
      <path class="cls-24" d="m145.44,132.97c2.57,0,2.58-4,0-4s-2.58,4,0,4h0Z"/>
      <path class="cls-24" d="m27.44,40.57c-1.05,3.55-1.56,7.26-1.5,10.96h4c-.32-4.2,1.34-8.12,3-11.88.4-.91.34-1.94-.52-2.58-.79-.59-1.91-.57-2.63.16-1.49,1.51-2.77,3.22-3.78,5.08-1.24,2.28,2.04,4.16,3.45,2.02.93-1.41,1.86-2.82,2.79-4.22l-3.45-2.02c-3.02,5.54-4.45,11.89-4,18.19l3.93-.53c-.38-1.6-.16-3.27.03-4.88.21-1.77.43-3.55.64-5.32.13-1.07-1.01-2-2-2-1.19,0-1.87.92-2,2-.44,3.66-1.39,7.61-.53,11.27.51,2.16,4.09,1.74,3.93-.53-.4-5.62.76-11.22,3.46-16.17,1.24-2.28-2.04-4.16-3.45-2.02-.93,1.41-1.86,2.82-2.79,4.22l3.45,2.02c.86-1.58,1.89-2.99,3.15-4.27l-3.14-2.42c-1.94,4.39-3.93,8.99-3.55,13.9.08,1.08.86,2,2,2,1.07,0,2.02-.92,2-2-.05-3.37.4-6.66,1.36-9.89.73-2.47-3.13-3.53-3.86-1.06h0Z"/>
      <path class="cls-24" d="m30.66,36.35l-.68.86c-.67.84-.82,2.01,0,2.83.72.72,2.12.82,2.83,0,1.76-2.05,3.92-3.64,6.02-5.34l-2.83-2.83c-1.15,1.28-2.77,1.9-4.16,2.87-1.6,1.12-2.91,2.52-3.99,4.14-2.25,3.36-3.2,7.38-4.08,11.26-.56,2.5,3.2,3.56,3.86,1.06s2.19-4.79,2.64-7.4c.15-.89-.1-1.78-.92-2.26-.71-.42-1.87-.37-2.42.31-2.13,2.62-3.72,5.52-4.73,8.75-.68,2.2,2.49,3.45,3.66,1.54,1.66-2.73,2.95-5.67,3.86-8.73.55-1.87-1.99-3.45-3.34-1.95-2.23,2.48-3.51,5.41-3.95,8.71-.14,1.07,1.02,2,2,2,1.2,0,1.86-.92,2-2,.29-2.17,1.33-4.26,2.78-5.88l-3.34-1.95c-.81,2.75-1.97,5.33-3.46,7.77l3.66,1.54c.79-2.53,2.03-4.92,3.7-6.98l-3.34-1.95c-.45,2.61-1.97,4.86-2.64,7.4l3.86,1.06c.8-3.57,1.6-7.23,3.67-10.31.83-1.23,1.89-2.3,3.14-3.09,1.52-.96,3.16-1.75,4.38-3.11.72-.8.79-2.04,0-2.83-.83-.83-1.99-.68-2.83,0-2.09,1.69-4.25,3.29-6.02,5.34l2.83,2.83.68-.86c.67-.84.82-2.01,0-2.83-.7-.7-2.15-.85-2.83,0h0Z"/>
      <path class="cls-24" d="m25.05,54.42c-.59,1.67-1.19,3.34-1.79,5.01-.17.47-.04,1.13.2,1.54s.72.81,1.2.92c.51.12,1.09.09,1.54-.2s.74-.68.92-1.2c.6-1.67,1.2-3.34,1.79-5.01.17-.47.04-1.12-.2-1.54s-.72-.81-1.2-.92c-.51-.12-1.09-.09-1.54.2s-.74.68-.92,1.2h0Z"/>
      <path class="cls-24" d="m22.24,62.3c-.19.54-.39,1.09-.58,1.63-.08.27-.1.53-.04.8.01.27.09.51.24.74.13.23.3.42.52.56.19.18.42.3.68.36l.53.07c.36,0,.7-.09,1.01-.27l.4-.31c.25-.25.42-.54.51-.88.19-.54.39-1.09.58-1.63.08-.27.1-.53.04-.8-.01-.27-.09-.51-.24-.74-.13-.23-.3-.42-.52-.56-.19-.18-.42-.3-.68-.36l-.53-.07c-.36,0-.7.09-1.01.27l-.4.31c-.25.25-.42.54-.51.88h0Z"/>
      <path class="cls-24" d="m23.25,60c-.07.19-.13.39-.19.59-.08.27-.1.53-.04.8.01.27.09.51.24.74.13.23.3.42.52.56.19.18.42.3.68.36l.53.07c.36,0,.7-.09,1.01-.27l.4-.31c.25-.25.42-.54.51-.88.06-.2.12-.4.19-.59.08-.27.1-.53.04-.8-.01-.27-.09-.51-.24-.74-.13-.23-.3-.42-.52-.56-.19-.18-.42-.3-.68-.36l-.53-.07c-.36,0-.7.09-1.01.27l-.4.31c-.25.25-.42.54-.51.88h0Z"/>
      <path class="cls-24" d="m27.43,58.17c.22-.58.44-1.16.65-1.75l-3.86-1.06c-.29,1.55-.61,3.1-.97,4.64-.12.52-.07,1.08.2,1.54.24.41.72.81,1.2.92.51.12,1.09.09,1.54-.2.43-.28.8-.68.92-1.2.36-1.54.68-3.09.97-4.64.1-.54.08-1.06-.2-1.54-.24-.41-.72-.81-1.2-.92-.51-.12-1.09-.09-1.54.2s-.73.68-.92,1.2c-.21.59-.43,1.17-.65,1.75-.17.46-.04,1.13.2,1.54s.72.81,1.2.92c.51.12,1.09.09,1.54-.2l.4-.31c.25-.25.42-.54.51-.88h0Z"/>
      <path class="cls-24" d="m22.74,62.07c-.08.33-.16.65-.25.98-.08.27-.1.53-.04.8.01.27.09.51.24.74.13.23.3.42.52.56.19.18.42.3.68.36l.53.07c.36,0,.7-.09,1.01-.27l.4-.31c.25-.25.42-.54.51-.88.09-.33.17-.65.25-.98.08-.27.1-.53.04-.8-.01-.27-.09-.51-.24-.74-.13-.23-.3-.42-.52-.56-.19-.18-.42-.3-.68-.36l-.53-.07c-.36,0-.7.09-1.01.27l-.4.31c-.25.25-.42.54-.51.88h0Z"/>
      <path class="cls-24" d="m22.05,56.61c-.41,1.31-.82,2.63-1.24,3.94l3.86,1.06c.43-2.56.79-5.15.79-7.75,0-.84-.62-1.74-1.47-1.93-.94-.21-1.7.18-2.26.92-.97,1.29-1.56,2.98-1.97,4.52s-.65,3.11-.88,4.68c-.08.55-.09,1.04.2,1.54.24.41.72.81,1.2.92,1.14.26,2.06-.35,2.46-1.4.38-.99.76-1.98,1.13-2.97.18-.47.35-.94.5-1.42.07-.21.14-.42.22-.63.18-.49-.12.2.03-.06.07-.12.12-.25.19-.38l-3.66-1.54c-.42,1.1-.86,2.17-1.09,3.33-.25,1.25-.38,2.52-.51,3.79-.1.99.84,1.84,1.73,1.96.97.13,1.92-.47,2.19-1.43.84-3.01,1.69-6.02,2.53-9.03l-3.93-.53c0,.06.01.13.01.19.01,1.05.91,2.05,2,2s2.01-.88,2-2c0-.06,0-.13-.01-.19-.1-1-.69-1.82-1.73-1.96-.98-.13-1.92.47-2.19,1.43-.84,3.01-1.69,6.02-2.53,9.03l3.93.53c.06-.53.12-1.06.18-1.59-.05.42,0,0,.01-.09.02-.15.04-.29.07-.44.04-.26.09-.53.15-.79.23-1.1.65-2.11,1.05-3.16.36-.93-.32-2.01-1.16-2.36s-2.04-.07-2.5.82c-.54,1.06-.85,2.18-1.27,3.28s-.8,2.09-1.2,3.14l3.86,1.06c.22-1.52.45-3.04.84-4.52.18-.7.37-1.44.69-2.09-.23.47.07-.15.12-.23.07-.14.14-.28.21-.42.18-.33.37-.68.59-.98l-3.73-1.01c0,1.16-.08,2.33-.2,3.49-.03.3-.06.59-.1.89-.01.12-.03.24-.05.36.05-.41,0,0-.01.09-.09.62-.19,1.24-.29,1.86-.17,1.03.27,2.2,1.4,2.46s2.12-.33,2.46-1.4c.42-1.31.83-2.63,1.24-3.94.31-1-.37-2.23-1.4-2.46-1.09-.25-2.13.33-2.46,1.4h0Z"/>
      <path class="cls-24" d="m25.99,57.12v-.02c.01-.28-.05-.53-.17-.77-.08-.25-.22-.46-.41-.64-.18-.2-.4-.33-.64-.41-.24-.13-.5-.18-.77-.17l-.53.07c-.34.1-.63.27-.88.51l-.31.4c-.18.31-.27.65-.27,1.01v.02c-.01.28.05.53.17.77.08.25.22.46.41.64.18.2.4.33.64.41.24.13.5.18.77.17l.53-.07c.34-.1.63-.27.88-.51l.31-.4c.18-.31.27-.65.27-1.01h0Z"/>
      <path class="cls-24" d="m25.99,57.12v-.02c.01-.28-.05-.53-.17-.77-.08-.25-.22-.46-.41-.64-.18-.2-.4-.33-.64-.41-.24-.13-.5-.18-.77-.17l-.53.07c-.34.1-.63.27-.88.51l-.31.4c-.18.31-.27.65-.27,1.01v.02c-.01.28.05.53.17.77.08.25.22.46.41.64.18.2.4.33.64.41.24.13.5.18.77.17l.53-.07c.34-.1.63-.27.88-.51l.31-.4c.18-.31.27-.65.27-1.01h0Z"/>
      <path class="cls-24" d="m25.38,54.95c.13-.32.26-.63.39-.95l-.2.48c.1-.23.2-.46.3-.69.11-.24.25-.48.32-.73.07-.27.08-.58.1-.86.05-.52.11-1.03.18-1.54.06-.45-.26-1.12-.59-1.41s-.7-.49-1.15-.55-.9,0-1.28.24c-.46.3-.73.68-.92,1.2-.59,1.61-1.08,3.26-1.46,4.94-.12.52-.07,1.07.2,1.54.24.41.72.81,1.2.92.51.12,1.09.09,1.54-.2s.72-.68.92-1.2c.15-.39.29-.79.45-1.18.18-.45.03-1.14-.2-1.54s-.72-.81-1.2-.92c-.51-.12-1.09-.09-1.54.2l-.4.31c-.25.25-.42.54-.51.88-.16.39-.3.79-.45,1.18l3.86,1.06c.38-1.68.87-3.33,1.46-4.94l-3.93-.53c-.08.62-.15,1.25-.21,1.87l.27-1.01c-.35.78-.68,1.57-1,2.37-.18.45-.03,1.14.2,1.54s.72.81,1.2.92c.51.12,1.09.09,1.54-.2l.4-.31c.25-.25.42-.54.51-.88h0Z"/>
      <path class="cls-24" d="m22.09,54.39c-.04.79-.08,1.58-.09,2.37-.01.28.05.53.17.77.08.25.22.46.41.64.18.2.4.33.64.41.24.13.5.18.77.17.52-.02,1.05-.19,1.41-.59s.58-.87.59-1.41c.01-.79.05-1.58.09-2.37.01-.28-.05-.53-.17-.77-.08-.25-.22-.46-.41-.64-.18-.2-.4-.33-.64-.41-.24-.13-.5-.18-.77-.17-.52.02-1.05.19-1.41.59l-.31.4c-.18.31-.27.65-.27,1.01h0Z"/>
      <path class="cls-24" d="m22.29,56.92c0,.07,0,.15,0,.22-.01.28.05.53.17.77.08.25.22.46.41.64.18.2.4.33.64.41.24.13.5.18.77.17l.53-.07c.34-.1.63-.27.88-.51l.31-.4c.18-.31.27-.65.27-1.01,0-.07,0-.15,0-.22.01-.28-.05-.53-.17-.77-.08-.25-.22-.46-.41-.64-.18-.2-.4-.33-.64-.41-.24-.13-.5-.18-.77-.17l-.53.07c-.34.1-.63.27-.88.51l-.31.4c-.18.31-.27.65-.27,1.01h0Z"/>
      <path class="cls-24" d="m22.32,56.07l-.03.84c-.01.28.05.53.17.77.08.25.22.46.41.64.18.2.4.33.64.41.24.13.5.18.77.17l.53-.07c.34-.1.63-.27.88-.51l.31-.4c.18-.31.27-.65.27-1.01l.03-.84c.01-.28-.05-.53-.17-.77-.08-.25-.22-.46-.41-.64-.18-.2-.4-.33-.64-.41-.24-.13-.5-.18-.77-.17l-.53.07c-.34.1-.63.27-.88.51l-.31.4c-.18.31-.27.65-.27,1.01h0Z"/>
      <path class="cls-24" d="m28.45,51.14c.04-.1.08-.2.12-.29l-.2.48c.13-.31.28-.62.43-.93l-3.66-.48c.04.21.08.43.11.65l-.07-.53c.12.9.12,1.8,0,2.7l.07-.53c-.05.33-.1.65-.18.97l3.93.53c.06-.96.11-1.91.16-2.87.03-.5-.24-1.07-.59-1.41s-.92-.61-1.41-.59c-1.13.05-1.94.88-2,2-.05.96-.1,1.91-.16,2.87-.03.47.24,1.1.59,1.41s.7.49,1.15.55c.94.13,1.97-.46,2.19-1.43.41-1.79.43-3.58.07-5.37l-.2-.48-.31-.4c-.31-.31-.72-.49-1.15-.55-.37-.05-.7,0-1.04.14-.38.16-.77.44-.96.82-.28.55-.53,1.12-.75,1.7-.18.46-.04,1.14.2,1.54s.72.81,1.2.92c.51.12,1.09.09,1.54-.2l.4-.31c.25-.25.42-.54.51-.88h0Z"/>
      <path class="cls-24" d="m22.96,74.34c0-.64.02-1.29.02-1.93,0-.51-.22-1.05-.59-1.41-.18-.2-.4-.33-.64-.41-.24-.13-.5-.18-.77-.17-.52.02-1.05.19-1.41.59l-.31.4c-.18.31-.27.65-.27,1.01-.08.85-.16,1.71-.23,2.56-.01.28.05.53.17.77.08.25.22.46.41.64.18.2.4.33.64.41.24.13.5.18.77.17.52-.02,1.05-.19,1.41-.59l.31-.4c.18-.31.27-.65.27-1.01.07-.85.15-1.71.23-2.56h-4c0,.64-.02,1.29-.02,1.93,0,.51.22,1.05.59,1.41.18.2.4.33.64.41.24.13.5.18.77.17.52-.02,1.05-.19,1.41-.59s.58-.87.59-1.41h0Z"/>
      <path class="cls-24" d="m22.65,75.29c-.05-.99-.18-1.99-.4-2.96s-1.25-1.56-2.19-1.43c-1.05.14-1.62.96-1.73,1.96-.19,1.65-.39,3.3-.58,4.95l3.93-.53c-.03-.2-.06-.41-.09-.61-.06-.41,0,.02.02.18l-.07-.53c-.03-.19-.03-.19,0-.01.03.42-.05-.33-.04-.26-.02-.17-.05-.34-.07-.51-.03-.23-.07-.45-.1-.68-.12-.82-1.14-1.5-1.93-1.47-.93.04-1.62.6-1.93,1.47-.7,1.95-.44,4.02-.56,6.04-.06,1.05.97,2.05,2,2,1.14-.05,1.93-.88,2-2,.06-.91,0-1.82.04-2.73,0-.22.02-.44.03-.66,0-.1.02-.19.02-.29.03-.39-.05.28,0,.03.08-.45.18-.89.34-1.33h-3.86c.03.22.06.43.1.65.05.34,0-.03-.01-.13.03.19.12.72.1.73.02.14.02.1-.01-.12-.03-.28-.03-.25.01.08.02.18.05.36.08.54.03.23.06.45.1.68.07.44.53.99.92,1.2.4.21.82.3,1.28.24,1.05-.14,1.62-.96,1.73-1.96.19-1.65.39-3.3.58-4.95l-3.93.53c.05.2.09.4.13.6.01.06.1.66.06.34s.03.29.03.34c.02.2.03.41.04.61.06,1.04.88,2.05,2,2,1.04-.05,2.06-.88,2-2h0Z"/>
      <path class="cls-24" d="m20.81,81.19c.04-.96.12-1.91.25-2.86l-.07.53c.11-.81.25-1.61.43-2.41l-3.93-.53c-.08,1.19-.15,2.39-.18,3.58-.03,1.05.94,2.05,2,2s1.97-.88,2-2c.03-1.19.1-2.39.18-3.58.03-.47-.24-1.1-.59-1.41s-.7-.49-1.15-.55c-.94-.13-1.98.46-2.19,1.43-.42,1.9-.68,3.85-.75,5.8-.04,1.05.95,2.05,2,2,1.12-.05,1.96-.88,2-2h0Z"/>
      <path class="cls-24" d="m21.37,79.3c.11-1.64.3-3.27.59-4.89.16-.88.34-1.75.54-2.62.12-.52.2-1.06.33-1.57-.11.43.1-.12.15-.29.08-.27.15-.54.23-.81l-3.93-.53c0,1.1.03,2.21.21,3.29v-1.06c-.16.92-.34,1.83-.54,2.74l3.93.53c.23-1.88.75-3.69,1-5.56.3-2.19.52-4.39.66-6.59s-3.34-2.67-3.93-.53c-.73,2.62-1.3,5.26-1.8,7.93-.25,1.33-.47,2.67-.69,4.01-.1.6-.19,1.2-.29,1.79-.05.33-.1.65-.15.98-.04.25-.19,1.16-.07.43l3.93.53c-.17-5.04.63-10.17,1.13-15.18h-4c-.22,2.46-.36,4.92-.43,7.39-.03,1.08.94,2,2,2,1.18,0,1.88-.92,2-2,.21-1.86.48-3.71.8-5.55l-3.93-.53c-.09,1.99-.16,3.99-.25,5.98-.07,1.62-.63,4.02.64,5.28,1.09,1.09,2.9.54,3.34-.88.2-.65.34-1.32.55-1.97.78-2.46-3.08-3.51-3.86-1.06-.21.65-.35,1.32-.55,1.97l3.34-.88c.31.81.45.94.42.38,0-.2.02-.4.03-.61.02-.4.04-.81.05-1.21.03-.67.05-1.34.08-2.02.07-1.66.14-3.32.21-4.98.1-2.21-3.54-2.78-3.93-.53s-.69,4.4-.94,6.61h4c.07-2.47.21-4.93.43-7.39.09-1.08-.99-2-2-2-1.17,0-1.89.92-2,2-.5,5.01-1.3,10.14-1.13,15.18.03.99.73,1.85,1.73,1.96.9.11,2.02-.44,2.19-1.43.05-.26.07-.51.11-.77-.08.52.06-.38.08-.47.1-.65.21-1.3.31-1.96.22-1.34.44-2.68.69-4.01.5-2.67,1.07-5.31,1.8-7.93l-3.93-.53c-.12,2.05-.21,4.18-.61,6.2s-.81,3.94-1.05,5.95c-.12.97.85,1.86,1.73,1.96.93.11,1.98-.44,2.19-1.43s.61-2.21.61-3.27l-.07-.53c.05.3.06.35.03.16,0-.17-.03-.36-.04-.53-.04-.62-.06-1.24-.06-1.86-.01-2.26-3.29-2.7-3.93-.53-.16.53-.34,1.08-.45,1.62-.03.17-.22.76-.08.31-.07.24-.13.5-.18.75-.23.97-.43,1.96-.6,2.94-.32,1.86-.55,3.74-.68,5.63-.07,1.08.97,2,2,2,1.14,0,1.93-.92,2-2h0Z"/>
      <path class="cls-24" d="m23.11,73.88c.32-3.93.71-7.85,1.23-11.76.14-1.04-1.02-2.04-2-2-1.2.05-1.85.88-2,2-.52,3.91-.91,7.83-1.23,11.76-.08,1.05.98,2.05,2,2,1.16-.05,1.91-.88,2-2h0Z"/>
      <path class="cls-24" d="m133.08,50.37c-1.55-3.47-3.24-6.88-5.05-10.22-.5-.92-1.85-1.29-2.74-.72-.94.6-1.25,1.75-.72,2.74,1.81,3.34,3.5,6.75,5.05,10.22.43.96,1.9,1.26,2.74.72.99-.64,1.18-1.71.72-2.74h0Z"/>
      <path class="cls-24" d="m135.15,50.25c-.83-3.51-1.72-7.07-3.51-10.24-.83-1.47-1.88-2.95-3.11-4.11-1.45-1.36-3.29-2.44-4.9-3.62l-2.02,3.45c2.08,1.07,3.63,2.67,5.51,4.02,1.36.98,3.58-.67,2.94-2.26-1.06-2.64-2.77-5.06-5.33-6.44-2.84-1.53-6.34-1.55-9.48-1.68-2.57-.1-2.57,3.9,0,4,2.31.09,5.08,0,7.21,1,1.72.81,3.04,2.43,3.74,4.18l2.94-2.26c-1.87-1.35-3.43-2.94-5.51-4.02-2.33-1.21-4.07,1.95-2.02,3.45,1.38,1.01,2.96,1.95,4.21,3.11,1.04.97,1.86,2.24,2.54,3.49,1.5,2.78,2.21,5.92,2.93,8.97.6,2.5,4.45,1.44,3.86-1.06h0Z"/>
      <path class="cls-24" d="m113.75,29.34c-1.32-.03-2.64,0-3.96.05-.53.02-1.04.21-1.41.59-.35.35-.61.92-.59,1.41s.19,1.05.59,1.41.88.61,1.41.59c1.32-.05,2.64-.08,3.96-.05.51.01,1.06-.23,1.41-.59s.61-.92.59-1.41c-.05-1.1-.88-1.97-2-2h0Z"/>
      <path class="cls-24" d="m120.44,34.76c.38.23.74.46,1.1.71.19.13.37.28.56.41-.15-.1-.29-.23-.06-.04.08.07.16.13.24.2.67.56,1.31,1.17,1.89,1.82.14.16.28.31.41.47.12.14.25.38.39.49-.17-.22-.21-.28-.12-.16.04.05.08.1.11.15.06.08.12.17.18.25.12.17.24.34.35.52.49.75.93,1.54,1.3,2.35.44.95,1.89,1.26,2.74.72.98-.63,1.19-1.72.72-2.74-1.64-3.57-4.44-6.59-7.8-8.6-.9-.54-2.24-.23-2.74.72s-.24,2.16.72,2.74h0Z"/>
      <path class="cls-24" d="m135.68,62.33l.91,3.48,3.66-1.54c-2.53-4.24-4.12-8.88-4.8-13.77l-3.34,1.95c1.18.96,1.67,2.23,2.11,3.65.47,1.53.95,3.04,1.48,4.55.69,1.96.74,3.77.81,5.83s.52,3.85.92,5.78c.79,3.81.11,7.76.7,11.61s2.01,7.43,1.83,11.31c-.1,2.21,3.58,2.78,3.93.53.87-5.67-.06-11.08-.61-16.72s-.96-11.68-1.43-17.52c-.2-2.55-4.2-2.57-4,0,.45,5.68.84,11.36,1.38,17.03.51,5.37,1.63,10.75.8,16.14l3.93.53c.2-4.18-1.32-8.08-1.94-12.15s.07-8.2-.83-12.29c-.46-2.09-.65-4.02-.72-6.16s-.52-3.9-1.22-5.84c-1.14-3.12-1.57-6.91-4.31-9.13-1.63-1.32-3.62-.06-3.34,1.95.72,5.21,2.51,10.21,5.21,14.72,1.16,1.95,4.23.67,3.66-1.54l-.91-3.48c-.65-2.49-4.51-1.43-3.86,1.06h0Z"/>
      <path class="cls-24" d="m19.31,84.81c2.57,0,2.58-4,0-4s-2.58,4,0,4h0Z"/>
      <path class="cls-12" d="m153.8,59.35c0,5.75-.19,11.51-.6,17.24-.2,2.72-.08,5.45-.38,8.16-.32,2.92-.99,5.8-1.68,8.65-.04.18-.08.35-.13.52-.48,2.01-.97,4.01-1.46,6.02-.17.7-.34,1.42-.7,2.04-1.9,3.27-4.54-1.65-4.85-3.37-.72-4.08-.37-8.61-.75-12.77-.51-5.54-.75-11.52-2.06-16.93-.21-.86-.44-1.72-.69-2.57-.7-3.31-1.53-6.24-2.43-8.65-1.96-7.36-4.51-13.51-7.12-17.38-.2-.45-.43-.9-.68-1.33-1.04-1.82-2.25-3.58-3.89-4.88-3.33-2.62-7.54-2.85-11.68-2.77-.32-.01-.63,0-.95.01-1.2.03-2.39.07-3.55.07-.08,0-.16,0-.24,0-.25.01-.5.02-.74.02-.34.01-.66.01-.99.01h-.07c-1.29-.02-2.58-.08-3.84-.08-2.21,0-4.42-.01-6.63-.03-2.34-.02-4.68-.03-7.03-.03-4.12-.02-8.25-.01-12.38,0h-2.55c-1.06.01-2.12.01-3.18.01s-2.07.01-3.1.01h-.25c-1.57.01-3.14.02-4.7.03h-1.72c-1.8.01-3.61.02-5.42.09-.23-.01-.46-.01-.69-.02-.61,0-1.22,0-1.83-.01-2.58,0-5.17,0-7.75-.02-1.68-.01-3.41,0-5.08.26h-.03c-4.13.24-9.94,4.13-14.73,10.24-3.1,3.96-5.18,8.12-6.05,11.66-.29.73-.54,1.48-.73,2.24-.29,1.13-.45,2.29-.61,3.44-.82,6.03-1.53,12.06-2.14,18.11-.05.49-.09.99-.13,1.49-.01.08-.02.18-.03.29-.29,2.34-.57,5.05-.84,7.95-.24,2.53-.43,4.93-.58,7.06-.03.2-.07.4-.11.6-.05.3-.1.6-.15.91-.19,1.14-.39,2.29-.62,3.4-.07.4-.15.79-.24,1.17-.06.26-.08.77-.15,1.27-.01.07-.03.15-.04.22-.05.24-.12.47-.22.65-.17.29-.41.45-.79.36-.28-.06-.5-.26-.69-.47-.65-.72-1-1.67-1.33-2.59-1.21-3.35-2.4-6.73-3.23-10.21-1.9-7.95-2.39-16.1-2.28-24.27-.2-3.22-.05-7.24.45-11.78.52-4.75,1.43-10.08,2.73-15.64,2.03-8.7,4.63-16.46,7.27-22.15.85-1.83,1.77-3.62,2.85-5.3.78-1.21,1.64-2.41,2.72-3.36.63-.56,1.36-.99,2.01-1.52.06-.05.13-.1.2-.12.31-.1.59-.23.9-.35.05-.02.1-.04.15-.07,3.05-1.5,6.91-2.6,11.23-3.14.01,0,.02-.01.04-.01,2.33-.46,5.31-.74,8.57-.74.99,0,1.96.03,2.9.08h.07c3.65.01,7.1.63,10.13,1.71.21.07.42.15.62.24.03,0,.06.02.09.03.51.19,1,.4,1.48.63.1.05.2.1.3.15,3.24,1.73,6.15,4.97,7.86,9.18.42,1.04.75,2.08.98,3.12.13.55.23,1.1.31,1.64.67-2.44,2.12-4.95,4.29-7.12.76-.76,1.57-1.44,2.4-2.02C83.5,3.48,96.15,0,110.68,0c4.25,0,8.33.3,12.15.85.99.14,1.95.3,2.9.47.09.02.17.03.26.06.15.03.3.06.45.09,1.62.31,3.17.67,4.65,1.08,1.39.47,2.81,1.1,4.23,1.88,1.91,1.05,3.61,2.25,5.02,3.52.46.5.9,1.01,1.32,1.52.36.44.72.89,1.06,1.34.22.29.43.57.63.86.28.38.55.78.82,1.18.04.06.08.11.12.17.13.19.26.39.38.59.25.39.5.79.74,1.2.41.65.79,1.32,1.15,2,.26.48.52.98.77,1.48.21.41.41.82.6,1.24.38.8.73,1.61,1.07,2.42.21.51.42,1.03.61,1.55.19.5.38,1.01.55,1.52.09.24.18.49.25.73.17.49.33.99.48,1.48.61,2,1.11,3.99,1.49,5.95.75,3.85,1.06,7.58.96,11.05.3,4.83.46,9.89.46,15.12Z"/>
      <path class="cls-26" d="m19.52,28.09l-.65,2.36c-.12.42-.23.83-.34,1.25l-.07.25.41-1.5c.21-.79.43-1.57.65-2.36"/>
      <path class="cls-26" d="m18.46,31.95l.07-.25c.32-1.21.66-2.41.99-3.61l.03-.09"/>
      <path class="cls-11" d="m60.7,3.69c-.48-.23-.97-.44-1.48-.63.5.17.99.38,1.48.63Z"/>
      <path class="cls-22" d="m60.85,11.37s.07.06.11.1l-.16-.13s.03.02.05.03Z"/>
      <path class="cls-30" d="m28.26,15.66c-.26.05-.52.12-.78.2-.43.12-.77.27-1.15.52-.14.1-.99.6-1.02.73h.15c-.61.35-1.17.82-1.65,1.42-.83,1.04-1.54,2.19-2.13,3.38-.27.56-.46,1.17-.84,1.66-.41.54-.68,1.2-.94,1.82-.63,1.48-1.26,2.96-1.89,4.45-.17.4-.34.8-.48,1.22-.15.43-.26.86-.37,1.3-.15.58-.3,1.15-.44,1.73-.5,1.92-.9,3.86-1.18,5.82-.14.96-.18,1.94-.36,2.89-.2,1.03-.39,2.07-.58,3.1h-.03c.5-8.52,1.95-16.97,4.3-25.1.46-1.57.96-3.16,1.84-4.49,1.34-2.01,3.46-3.28,5.67-3.88.54-.15,1.09-.26,1.64-.33.13,1.07.21,2.26.24,3.56Z"/>
      <path class="cls-30" d="m150.84,37.37c-.13-.65-.32-1.3-.42-1.96-.59-4.07-1.39-8.11-3-11.94-1.36-3.24-3.21-6.38-5.53-9.23-1.26-1.54-2.44-3.16-3.98-4.43-.22-.17-.52-.27-.78-.37.91.97,1.67,2.08,2.36,3.23.1.15.19.31.28.47,0,.07.15.24.19.31.07.12.14.25.22.37.12.2.26.39.39.59.29.4.56.81.81,1.22.53.84,1.01,1.71,1.46,2.59.9,1.77,1.67,3.6,2.39,5.45.27.68.52,1.37.78,2.05,1.98,5.34,3.81,10.83,4.28,16.55.06.74-.03,1.61.15,2.31.17-.03.23-.15.25-.32.29-2.29.59-4.62.15-6.89ZM99.69,3.93c-6.59.72-12.96,3.06-18.21,6.69-1.68,1.16-3.26,2.47-4.7,3.92-1.49,1.5-2.53,3.16-3.72,4.9-.71,1.04-1.44,2.16-1.5,3.42.09-.59.34-1.15.73-1.6.37-.44.85-.78,1.31-1.12,1.61-1.22,3.01-2.7,4.55-4,3.03-2.59,6.58-4.5,10.26-6.01,1.75-.71,3.35-1.65,5.15-2.3,1.96-.72,3.98-1.27,6.02-1.67,1.11-.22,2.23-.39,3.36-.51,2.74-.29,5.59-.32,8.12-1.31-3.73-.71-7.59-.83-11.37-.41Zm-34.54,9.06c-1.27-1.79-2.83-3.37-4.56-4.72-3.5-2.73-7.76-4.48-12.17-5.03-2.53-.31-5.11-.22-7.6.31,1.69.74,3.6.76,5.43.98,3.78.46,7.37,1.91,10.58,3.91,3.36,2.1,6.6,4.67,9.59,7.27.28.24.56.49.84.75-.27-1.26-1.46-2.56-2.11-3.47Zm-.56,7.92c-.92-1.33-1.85-2.84-3.04-3.93-1.26-1.16-2.59-2.25-4.01-3.22-5.24-3.63-11.61-5.97-18.2-6.7-3.79-.41-7.65-.29-11.37.42,2.53.98,5.37,1.01,8.12,1.31,6.72.72,12.86,3.41,18.82,6.46,1.67.85,3.3,1.8,4.8,2.94.82.62,1.6,1.3,2.37,1.98,1.11.97,2.22,1.94,3.21,3.02.46.52.88,1.27,1.54,1.55.36-.54-1.86-3.27-2.24-3.83Zm-21.17-5.32c-.27-.15-.53-.32-.81-.44-2.51-1.09-5.27-2.01-7.94-2.63-2.18-.5-4.44-.73-6.65-.42-.55.07-1.1.18-1.64.33-2.21.6-4.33,1.87-5.67,3.88-.88,1.33-1.38,2.92-1.84,4.49-2.35,8.13-3.8,16.58-4.3,25.1h.03c.19-1.03.38-2.07.58-3.1.18-.95.22-1.93.36-2.89.28-1.96.68-3.9,1.18-5.82.14-.58.29-1.15.44-1.73.11-.44.22-.87.37-1.3.14-.42.31-.82.48-1.22.63-1.49,1.26-2.97,1.89-4.45.26-.62.53-1.28.94-1.82.38-.49.57-1.1.84-1.66.59-1.19,1.3-2.34,2.13-3.38.48-.6,1.04-1.07,1.65-1.43h-.15c.03-.12.88-.62,1.02-.72.38-.25.72-.4,1.15-.52.26-.08.52-.15.78-.2.75-.19,1.51-.32,2.28-.41,2.08-.25,4.19-.23,6.28-.21.6.01,1.2.01,1.79.08.39.04.77.1,1.15.17.73.12,1.46.25,2.19.4.68.15,1.37.21,2.05.41-.1-.24-.35-.38-.58-.51Z"/>
      <path class="cls-15" d="m67.26,16.46c-.28-.26-.56-.51-.84-.75-2.99-2.6-6.23-5.17-9.59-7.27-3.21-2-6.8-3.45-10.58-3.91-1.83-.22-3.74-.24-5.43-.98,2.49-.53,5.07-.62,7.6-.31,4.41.55,8.67,2.3,12.17,5.03,1.73,1.35,3.29,2.93,4.56,4.72.65.91,1.84,2.21,2.11,3.47Z"/>
      <path class="cls-32" d="m66.83,24.74c-.66-.28-1.08-1.03-1.54-1.55-.99-1.08-2.1-2.05-3.21-3.02-.77-.68-1.55-1.36-2.37-1.98-1.5-1.14-3.13-2.09-4.8-2.94-5.96-3.05-12.1-5.74-18.82-6.46-2.75-.3-5.59-.33-8.12-1.31,3.72-.71,7.58-.83,11.37-.42,6.59.73,12.96,3.07,18.2,6.7,1.42.97,2.75,2.06,4.01,3.22,1.19,1.09,2.12,2.6,3.04,3.93.38.56,2.6,3.29,2.24,3.83Z"/>
      <path class="cls-20" d="m111.06,4.34c-2.53.99-5.38,1.02-8.12,1.31-1.13.12-2.25.29-3.36.51-2.04.4-4.06.95-6.02,1.67-1.8.65-3.4,1.59-5.15,2.3-3.68,1.51-7.23,3.42-10.26,6.01-1.54,1.3-2.94,2.78-4.55,4-.46.34-.94.68-1.31,1.12-.39.45-.64,1.01-.73,1.6.06-1.26.79-2.38,1.5-3.42,1.19-1.74,2.23-3.4,3.72-4.9,1.44-1.45,3.02-2.76,4.7-3.92,5.25-3.63,11.62-5.97,18.21-6.69,3.78-.42,7.64-.3,11.37.41Z"/>
      <path class="cls-21" d="m150.69,44.26c-.02.17-.08.29-.25.32-.18-.7-.09-1.57-.15-2.31-.47-5.72-2.3-11.21-4.28-16.55-.26-.68-.51-1.37-.78-2.05-.72-1.85-1.49-3.68-2.39-5.45-.45-.88-.93-1.75-1.46-2.59-.25-.41-.52-.82-.81-1.22-.13-.2-.27-.39-.39-.59-.08-.12-.15-.25-.22-.37-.04-.07-.19-.24-.19-.31-.09-.16-.18-.32-.28-.47-.69-1.15-1.45-2.26-2.36-3.23.26.1.56.2.78.37,1.54,1.27,2.72,2.89,3.98,4.43,2.32,2.85,4.17,5.99,5.53,9.23,1.61,3.83,2.41,7.87,3,11.94.1.66.29,1.31.42,1.96.44,2.27.14,4.6-.15,6.89Z"/>
      <path class="cls-35" d="m44,16.1c-.68-.2-1.37-.26-2.05-.41-.73-.15-1.46-.28-2.19-.4-.38-.07-.76-.13-1.15-.17-.59-.07-1.19-.07-1.79-.08-2.09-.02-4.2-.04-6.28.21-.77.09-1.53.22-2.28.41-.26.05-.52.12-.78.2-.43.12-.77.27-1.15.52-.14.1-.99.6-1.02.73h.15c-.61.35-1.17.82-1.65,1.42-.83,1.04-1.54,2.19-2.13,3.38-.27.56-.46,1.17-.84,1.66-.41.54-.68,1.2-.94,1.82-.63,1.48-1.26,2.96-1.89,4.45-.17.4-.34.8-.48,1.22-.15.43-.26.86-.37,1.3-.15.58-.3,1.15-.44,1.73-.5,1.92-.9,3.86-1.18,5.82-.14.96-.18,1.94-.36,2.89-.2,1.03-.39,2.07-.58,3.1h-.03c.5-8.52,1.95-16.97,4.3-25.1.46-1.57.96-3.16,1.84-4.49,1.34-2.01,3.46-3.28,5.67-3.88.54-.15,1.09-.26,1.64-.33,2.21-.31,4.47-.08,6.65.42,2.67.62,5.43,1.54,7.94,2.63.28.12.54.29.81.44.23.13.48.27.58.51Z"/>
      <path class="cls-4" d="m147.11,70.28c-.07.27-.2.45-.51.47-.19-1.17.13-2.57.16-3.78.21-9.38-2.07-18.67-4.64-27.75-.34-1.16-.66-2.33-1.02-3.49-.95-3.15-2-6.28-3.29-9.34-.65-1.52-1.35-3.03-2.15-4.5-.37-.72-.78-1.44-1.23-2.15-.2-.35-.41-.69-.59-1.04-.12-.21-.22-.44-.33-.65-.06-.12-.3-.43-.28-.54-.13-.28-.26-.56-.42-.82-1.03-2.01-2.19-3.97-3.65-5.73.45.22.97.44,1.34.76,2.54,2.38,4.36,5.25,6.35,8.01,3.65,5.1,6.4,10.58,8.25,16.12,2.19,6.55,2.88,13.27,3.19,20,.06,1.09.28,2.19.39,3.27.37,3.78-.6,7.5-1.55,11.15Z"/>
      <path class="cls-24" d="m19.22,85.92c2.57,0,2.58-4,0-4s-2.58,4,0,4h0Z"/>
      <path class="cls-24" d="m19.29,85.41c2.57,0,2.58-4,0-4s-2.58,4,0,4h0Z"/>
      <path class="cls-24" d="m19.26,85.38c2.57,0,2.58-4,0-4s-2.58,4,0,4h0Z"/>
      <path class="cls-24" d="m17.82,83.15c.64,0,.64-1,0-1s-.64,1,0,1h0Z"/>
      <path class="cls-24" d="m17.8,83.11c.64,0,.64-1,0-1s-.64,1,0,1h0Z"/>
      <path class="cls-24" d="m17.8,83.11c.64,0,.64-1,0-1s-.64,1,0,1h0Z"/>
      <path class="cls-12" d="m120.5,31.12v.47c-3.21-.61-6.7-.44-9.73-.22-.19.02-.38.03-.57.04-.08,0-.16,0-.24,0-.25.01-.5.02-.74.02-.34.01-.66.01-.99.01h-.07c-1.29-.02-2.58-.08-3.84-.08-2.21,0-4.42-.01-6.63-.03-2.34-.02-4.68-.03-7.03-.03-4.12-.02-8.25-.01-12.38,0h-2.55c-1.06.01-2.12.01-3.18.01s-2.07.01-3.1.01h-.25c-1.57.01-3.14.02-4.7.03h-1.72c-1.8.01-3.61.02-5.42.09-.23-.01-.46-.01-.69-.02-6.17-.02-10.44-.04-12.83-.06v-.25h76.66Z"/>
      <path class="cls-24" d="m25.65,55.63c-.03.57-.07,1.15-.12,1.72-.03.12-.07.24-.1.36-.04-.37-.05-.76-.05-1.14.09-.31.18-.63.27-.94Z"/>
      <path class="cls-24" d="m22,71.22c-.1.54-.23,1.08-.39,1.61-.02-.11-.03-.21-.04-.32.14-.43.29-.86.43-1.29Z"/>
      <path class="cls-24" d="m24.81,55.8c-.02.49-.02.97-.01,1.43-.66,1.55-1.32,3.1-1.98,4.64.46-1.55.94-3.14,1.16-4.73t.01-.02v-.02c0-.11,0-.23.01-.34.01-.02.02-.03.03-.05l.15-.21c.05-.07.1-.13.15-.19.16-.2.32-.38.48-.51Z"/>
      <path class="cls-24" d="m25.17,60.57h0c-.16.68-.32,1.36-.5,2.03.11-.49.22-.98.32-1.48.05-.27.1-.53.14-.79.01.08.02.16.04.24Z"/>
      <path class="cls-24" d="m25.65,55.63c-.03.57-.07,1.15-.12,1.72-.03.12-.07.24-.1.36-.04-.37-.05-.76-.05-1.14.09-.31.18-.63.27-.94Z"/>
      <path class="cls-24" d="m140.9,90.62c-.71-2.79-1.17-5.65-1.37-8.52-.23-3.26-.14-6.55-.4-9.81-.61-7.34-3.04-14.39-6.15-21.02-1.57-3.37-3.33-6.64-5.14-9.88-1.18-2.1-1.89-3.87-3.32-5.41.1-.03.21-.06.32-.08,1.89-.36,4.02,1.29,6.11,4.41,3.12,4.63,6.16,12.51,8.21,21.83h0c.23,1.01.43,2.03.63,3.06,1.92,10.1,2.22,19.34,1.11,25.42Z"/>
      <path class="cls-24" d="m136.17,63.47c-1.43-4.1-3.04-8.13-4.82-12.09.4-.38.83-.6,1.29-.64.03,0,.05-.01.08,0,.16-.02.33,0,.5.04,0,.02,0,.03,0,.05.16.69.32,1.37.48,2.06.17.68.33,1.37.49,2.06.45,1.88.89,3.76,1.32,5.64.22.96.44,1.92.65,2.88Z"/>
      <path class="cls-24" d="m17.35,83.3c-.08,1.16-.16,2.19-.26,3,.08-.99.17-1.99.26-3Z"/>
      <path class="cls-24" d="m18.13,111.09c-.06.03-.11.04-.17.03-.5-.05-.88-1.05-1.13-2.8.32.85.72,1.37,1.19,1.5l.11,1.27Z"/>
      <path class="cls-24" d="m22,71.22c-.1.54-.23,1.08-.39,1.61-.02-.11-.03-.21-.04-.32.14-.43.29-.86.43-1.29Z"/>
      <path class="cls-24" d="m25.14,60.69c-.15.63-.3,1.28-.47,1.91.11-.49.22-.98.32-1.48.05-.27.1-.52.14-.78,0,.11.01.23.01.35Z"/>
      <path class="cls-24" d="m14.32,82.17c-.1,1.52-.22,3.04-.36,4.55-.04.48.25,1.08.59,1.41s.92.61,1.41.59,1.05-.19,1.41-.59.53-.86.59-1.41c.14-1.52.26-3.03.36-4.55.03-.49-.25-1.07-.59-1.41s-.92-.61-1.41-.59-1.05.19-1.41.59-.55.86-.59,1.41h0Z"/>
      <path class="cls-12" d="m13.39,79.21l-.25,4.69c-.04.77-.08,1.53-.12,2.3-.02.34-.04.69-.06,1.03-.01.17-.03.34-.05.52-.03.23-.03.23,0-.02-.02.11-.04.23-.06.34-.19,1.02.28,2.21,1.4,2.46.98.22,2.25-.3,2.46-1.4.31-1.66.34-3.36.43-5.05l.26-4.87c.06-1.05-.96-2.05-2-2-1.13.05-1.94.88-2,2h0Z"/>
      <path class="cls-12" d="m13.46,80.71c.01,2.55-.15,5.1-.48,7.64-.06.47.27,1.1.59,1.41.35.35.92.61,1.41.59s1.05-.19,1.41-.59c.38-.42.51-.86.59-1.41.33-2.53.49-5.08.48-7.64,0-1.05-.92-2.05-2-2s-2.01.88-2,2h0Z"/>
      <path class="cls-24" d="m18.23,87.22c-.81,8.78-1.8,15.86-2.23,15.86-.29-.03-.22-3.67.14-8.94.15-2.13.34-4.53.58-7.06.27-2.9.55-5.61.84-7.95.01-.11.02-.21.03-.29.55-4.58,1.08-7.63,1.36-7.63.42.04.1,7.21-.72,16.01Z"/>
      <path class="cls-3" d="m126.78,97.34c0,.4,1.54.72,3.45.72s3.45-.32,3.45-.72c0-.06-.03-.11-.09-.16-.1-.09-.31-.13-.48-.09-.62.15-1.68.25-2.88.25s-2.26-.1-2.88-.25c-.18-.04-.38,0-.48.09-.06.05-.09.11-.09.16Z"/>
      <path class="cls-3" d="m126.47,98.9c-.16.43,1.27,1.34,3.18,2.03,1.91.69,3.59.89,3.74.46.02-.06.01-.13-.02-.21-.07-.14-.26-.26-.45-.27-.68-.06-1.78-.33-2.99-.76-1.21-.43-2.23-.92-2.79-1.31-.16-.11-.38-.14-.52-.08-.08.04-.13.08-.15.14Z"/>
    </g>
  </g>
</svg>