<?xml version="1.0" encoding="UTF-8"?>
<!DOCTYPE svg PUBLIC "-//W3C//DTD SVG 1.1//EN" "http://www.w3.org/Graphics/SVG/1.1/DTD/svg11.dtd">
<svg xmlns="http://www.w3.org/2000/svg" version="1.1" width="1880px" height="2704px" style="shape-rendering:geometricPrecision; text-rendering:geometricPrecision; image-rendering:optimizeQuality; fill-rule:evenodd; clip-rule:evenodd" xmlns:xlink="http://www.w3.org/1999/xlink">
<g><path style="opacity:0.991" fill="#000000" d="M 1752.5,1209.5 C 1750.83,1209.5 1749.17,1209.5 1747.5,1209.5C 1745.75,1216.34 1743.42,1223 1740.5,1229.5C 1726.39,1259.84 1713.06,1290.5 1700.5,1321.5C 1693.62,1339.03 1688.28,1357.03 1684.5,1375.5C 1683.06,1461.96 1673.39,1547.46 1655.5,1632C 1655.61,1634.88 1655.94,1637.72 1656.5,1640.5C 1655.05,1646.5 1653.55,1652.5 1652,1658.5C 1590.85,1816.33 1486.68,1938.17 1339.5,2024C 1283.98,2053.88 1225.32,2075.22 1163.5,2088C 1155.91,2089.46 1148.24,2090.29 1140.5,2090.5C 1140.5,2130.17 1140.5,2169.83 1140.5,2209.5C 1138.03,2216.31 1133.7,2221.64 1127.5,2225.5C 1127.5,2212.17 1127.5,2198.83 1127.5,2185.5C 1127.5,2180.83 1127.5,2176.17 1127.5,2171.5C 1128.29,2170.39 1128.79,2169.06 1129,2167.5C 1129.06,2150.11 1129.72,2132.78 1131,2115.5C 1131.83,2103.99 1131.66,2092.66 1130.5,2081.5C 1130.17,2081.5 1129.83,2081.5 1129.5,2081.5C 1128.62,2081.63 1127.96,2081.3 1127.5,2080.5C 1254.34,2060.74 1364.34,2007.41 1457.5,1920.5C 1458.83,1919.83 1460.17,1919.17 1461.5,1918.5C 1537.25,1846.7 1594.92,1762.37 1634.5,1665.5C 1644.03,1634.7 1651.37,1603.36 1656.5,1571.5C 1662.14,1538.37 1665.81,1505.03 1667.5,1471.5C 1669.15,1461.87 1670.15,1451.87 1670.5,1441.5C 1671.83,1355.5 1671.83,1269.5 1670.5,1183.5C 1669.7,1183.96 1669.37,1184.62 1669.5,1185.5C 1668.02,1185.24 1666.69,1185.57 1665.5,1186.5C 1657.79,1192.68 1649.79,1198.34 1641.5,1203.5C 1623.55,1216.48 1605.55,1229.48 1587.5,1242.5C 1571.5,1253.17 1555.5,1263.83 1539.5,1274.5C 1537.04,1277.31 1534.37,1279.64 1531.5,1281.5C 1529.72,1282.72 1527.72,1283.39 1525.5,1283.5C 1528.07,1277.69 1530.07,1271.69 1531.5,1265.5C 1532.94,1264.66 1533.94,1263.33 1534.5,1261.5C 1539.17,1249.5 1543.83,1237.5 1548.5,1225.5C 1551.71,1212.72 1555.21,1200.05 1559,1187.5C 1562.28,1175.04 1564.45,1162.37 1565.5,1149.5C 1567.04,1147.97 1568.04,1145.97 1568.5,1143.5C 1575.61,1092.73 1574.95,1042.06 1566.5,991.5C 1565.67,986.036 1564.34,980.703 1562.5,975.5C 1556.57,967.568 1549.91,960.235 1542.5,953.5C 1537.91,946.905 1532.58,940.905 1526.5,935.5C 1525.83,934.167 1525.17,932.833 1524.5,931.5C 1513.37,920.549 1502.7,909.215 1492.5,897.5C 1487.91,890.905 1482.58,884.905 1476.5,879.5C 1475.83,878.167 1475.17,876.833 1474.5,875.5C 1458.5,858.167 1442.5,840.833 1426.5,823.5C 1425.83,822.167 1425.17,820.833 1424.5,819.5C 1408.5,802.167 1392.5,784.833 1376.5,767.5C 1371.24,760.237 1365.24,753.57 1358.5,747.5C 1357.57,746.311 1357.24,744.978 1357.5,743.5C 1354.1,743.18 1350.77,743.513 1347.5,744.5C 1346.38,745.949 1345.72,747.616 1345.5,749.5C 1350.08,782.506 1354.75,815.506 1359.5,848.5C 1359.17,850.167 1358.83,851.833 1358.5,853.5C 1352.57,845.568 1345.91,838.235 1338.5,831.5C 1333.24,824.237 1327.24,817.57 1320.5,811.5C 1315.91,804.905 1310.58,798.905 1304.5,793.5C 1299.91,786.905 1294.58,780.905 1288.5,775.5C 1283.24,768.237 1277.24,761.57 1270.5,755.5C 1264.24,747.234 1257.24,739.568 1249.5,732.5C 1242.83,728.5 1236.17,724.5 1229.5,720.5C 1224.4,714.794 1218.73,709.794 1212.5,705.5C 1204.68,695.855 1197.34,685.855 1190.5,675.5C 1186.62,668.405 1183.29,661.071 1180.5,653.5C 1167.17,638.833 1153.83,624.167 1140.5,609.5C 1127.31,614.308 1113.65,616.308 1099.5,615.5C 1099.17,624.857 1099.5,634.19 1100.5,643.5C 1109.34,710.856 1118.34,778.19 1127.5,845.5C 1127.17,847.5 1126.83,849.5 1126.5,851.5C 1116.3,839.785 1105.63,828.451 1094.5,817.5C 1093.83,816.167 1093.17,814.833 1092.5,813.5C 1076.5,796.167 1060.5,778.833 1044.5,761.5C 1039.91,754.905 1034.58,748.905 1028.5,743.5C 1022.5,736.167 1016.5,728.833 1010.5,721.5C 1003.76,715.43 997.76,708.763 992.5,701.5C 987.833,696.833 983.167,692.167 978.5,687.5C 972.5,680.167 966.5,672.833 960.5,665.5C 955.167,660.167 949.833,654.833 944.5,649.5C 938.5,642.167 932.5,634.833 926.5,627.5C 921.5,622.5 916.5,617.5 911.5,612.5C 909.604,611.534 907.604,611.201 905.5,611.5C 913.496,668.796 921.496,726.129 929.5,783.5C 929.167,784.833 928.833,786.167 928.5,787.5C 915.833,773.5 903.167,759.5 890.5,745.5C 889.833,744.167 889.167,742.833 888.5,741.5C 877.37,730.549 866.704,719.215 856.5,707.5C 851.909,700.905 846.576,694.905 840.5,689.5C 835.24,682.237 829.24,675.57 822.5,669.5C 819.584,664.58 815.918,660.247 811.5,656.5C 810.311,655.571 808.978,655.238 807.5,655.5C 806.456,661.636 804.79,667.636 802.5,673.5C 772.5,756.833 742.5,840.167 712.5,923.5C 710.775,920.326 709.442,916.993 708.5,913.5C 691.167,845.5 673.833,777.5 656.5,709.5C 655.558,706.007 654.225,702.674 652.5,699.5C 651.672,698.585 650.672,697.919 649.5,697.5C 644.421,698.731 639.421,700.064 634.5,701.5C 597.833,803.5 561.167,905.5 524.5,1007.5C 508.912,951.813 494.578,895.813 481.5,839.5C 477.758,840.218 474.758,842.218 472.5,845.5C 429.651,900.45 394.985,960.45 368.5,1025.5C 353.093,1065.8 341.426,1107.13 333.5,1149.5C 329.685,1172.68 326.685,1196.02 324.5,1219.5C 319.833,1212.83 315.167,1206.17 310.5,1199.5C 307.758,1196.42 304.758,1193.75 301.5,1191.5C 301.762,1190.02 301.429,1188.69 300.5,1187.5C 296.427,1183.09 292.093,1179.09 287.5,1175.5C 277.549,1167.56 267.549,1159.56 257.5,1151.5C 236.64,1137.88 213.973,1128.54 189.5,1123.5C 192.689,1186.11 205.356,1246.78 227.5,1305.5C 226.809,1307.89 225.809,1307.89 224.5,1305.5C 211.66,1285.82 198.327,1266.49 184.5,1247.5C 184.167,1250.5 183.833,1253.5 183.5,1256.5C 189.828,1330.07 194.828,1403.74 198.5,1477.5C 200.578,1522.04 206.578,1566.04 216.5,1609.5C 255.147,1736.56 324.147,1843.56 423.5,1930.5C 491.879,1992.04 570.546,2036.04 659.5,2062.5C 685.788,2070.07 712.455,2075.74 739.5,2079.5C 739.167,2129.5 739.5,2179.5 740.5,2229.5C 741.917,2231.26 743.583,2232.59 745.5,2233.5C 792.145,2305.44 837.812,2378.1 882.5,2451.5C 885.833,2456.17 889.167,2460.83 892.5,2465.5C 905.833,2486.83 919.167,2508.17 932.5,2529.5C 934.886,2534.27 937.22,2538.94 939.5,2543.5C 940.833,2543.5 942.167,2543.5 943.5,2543.5C 944.589,2539.31 946.256,2535.31 948.5,2531.5C 1003.67,2441.83 1058.34,2351.83 1112.5,2261.5C 1117.17,2254.83 1121.83,2248.17 1126.5,2241.5C 1130.19,2234.12 1133.86,2226.79 1137.5,2219.5C 1139.7,2219.88 1141.36,2219.21 1142.5,2217.5C 1143.17,2217.5 1143.5,2217.17 1143.5,2216.5C 1144.17,2216.5 1144.5,2216.17 1144.5,2215.5C 1144.5,2215.17 1144.5,2214.83 1144.5,2214.5C 1148.85,2214.33 1153.18,2214.5 1157.5,2215C 1323.77,2247.09 1479.1,2307.76 1623.5,2397C 1663.09,2421.91 1700.42,2449.91 1735.5,2481C 1798.09,2539.45 1844.25,2608.28 1874,2687.5C 1875.89,2691.57 1876.73,2695.9 1876.5,2700.5C 1251.83,2700.5 627.167,2700.5 2.5,2700.5C 29.1806,2613.45 76.8472,2538.95 145.5,2477C 193.258,2436.81 244.592,2402.14 299.5,2373C 415.377,2312.33 536.043,2264.33 661.5,2229C 683.207,2223.36 704.874,2217.86 726.5,2212.5C 726.5,2171.83 726.5,2131.17 726.5,2090.5C 722.818,2090.67 719.152,2090.5 715.5,2090C 616.533,2070.34 526.533,2029.67 445.5,1968C 337.16,1882.16 260.16,1774.99 214.5,1646.5C 215.152,1645.55 215.486,1644.38 215.5,1643C 199.756,1592.37 190.756,1540.54 188.5,1487.5C 184.218,1401.38 178.218,1315.38 170.5,1229.5C 169.833,1227.5 169.167,1225.5 168.5,1223.5C 163.055,1217.39 158.388,1210.72 154.5,1203.5C 152.49,1201.75 150.157,1200.75 147.5,1200.5C 137.791,1186.63 128.291,1172.63 119,1158.5C 55.1833,956.479 57.1833,755.479 125,555.5C 148.165,491.404 177.498,430.07 213,371.5C 237.662,335.503 262.329,299.503 287,263.5C 398.623,121.862 543.457,41.6958 721.5,23C 744.077,21.0691 766.744,20.4025 789.5,21C 807.517,22.0424 825.517,23.3757 843.5,25C 855.703,27.007 867.869,28.8403 880,30.5C 898.756,26.686 917.256,22.186 935.5,17C 1091.35,-13.4222 1240.01,5.2445 1381.5,73C 1523.73,145.897 1629.9,254.063 1700,397.5C 1735.27,473.242 1761.94,551.909 1780,633.5C 1794.56,703.101 1805.9,773.434 1814,844.5C 1814.67,877.5 1814.67,910.5 1814,943.5C 1811.96,970.287 1808.62,996.953 1804,1023.5C 1795.06,1069.46 1783.72,1114.79 1770,1159.5C 1763.61,1175.95 1757.77,1192.61 1752.5,1209.5 Z"/></g>
<g><path style="opacity:1" fill="#d5b494" d="M 1565.5,1149.5 C 1516.86,1146.78 1468.19,1144.45 1419.5,1142.5C 1354.09,1140.51 1288.76,1141.84 1223.5,1146.5C 1172.72,1149.63 1123.39,1159.63 1075.5,1176.5C 1060.77,1183.86 1046.1,1191.2 1031.5,1198.5C 1026.5,1198.83 1021.5,1199.17 1016.5,1199.5C 1002.11,1198.38 987.776,1196.71 973.5,1194.5C 935.643,1192.21 897.976,1193.87 860.5,1199.5C 852.596,1198.94 844.929,1197.27 837.5,1194.5C 832.167,1191.17 826.833,1187.83 821.5,1184.5C 799.146,1173.72 775.813,1165.72 751.5,1160.5C 711.239,1152.1 670.573,1146.77 629.5,1144.5C 530.694,1139.75 432.027,1141.42 333.5,1149.5C 341.426,1107.13 353.093,1065.8 368.5,1025.5C 394.985,960.45 429.651,900.45 472.5,845.5C 474.758,842.218 477.758,840.218 481.5,839.5C 494.578,895.813 508.912,951.813 524.5,1007.5C 561.167,905.5 597.833,803.5 634.5,701.5C 639.421,700.064 644.421,698.731 649.5,697.5C 650.672,697.919 651.672,698.585 652.5,699.5C 654.225,702.674 655.558,706.007 656.5,709.5C 673.833,777.5 691.167,845.5 708.5,913.5C 709.442,916.993 710.775,920.326 712.5,923.5C 742.5,840.167 772.5,756.833 802.5,673.5C 804.79,667.636 806.456,661.636 807.5,655.5C 808.978,655.238 810.311,655.571 811.5,656.5C 815.918,660.247 819.584,664.58 822.5,669.5C 829.24,675.57 835.24,682.237 840.5,689.5C 846.576,694.905 851.909,700.905 856.5,707.5C 866.704,719.215 877.37,730.549 888.5,741.5C 889.167,742.833 889.833,744.167 890.5,745.5C 903.167,759.5 915.833,773.5 928.5,787.5C 928.833,786.167 929.167,784.833 929.5,783.5C 921.496,726.129 913.496,668.796 905.5,611.5C 907.604,611.201 909.604,611.534 911.5,612.5C 916.5,617.5 921.5,622.5 926.5,627.5C 932.5,634.833 938.5,642.167 944.5,649.5C 949.833,654.833 955.167,660.167 960.5,665.5C 966.5,672.833 972.5,680.167 978.5,687.5C 983.167,692.167 987.833,696.833 992.5,701.5C 997.76,708.763 1003.76,715.43 1010.5,721.5C 1016.5,728.833 1022.5,736.167 1028.5,743.5C 1034.58,748.905 1039.91,754.905 1044.5,761.5C 1060.5,778.833 1076.5,796.167 1092.5,813.5C 1093.17,814.833 1093.83,816.167 1094.5,817.5C 1105.63,828.451 1116.3,839.785 1126.5,851.5C 1126.83,849.5 1127.17,847.5 1127.5,845.5C 1118.34,778.19 1109.34,710.856 1100.5,643.5C 1099.5,634.19 1099.17,624.857 1099.5,615.5C 1113.65,616.308 1127.31,614.308 1140.5,609.5C 1153.83,624.167 1167.17,638.833 1180.5,653.5C 1183.29,661.071 1186.62,668.405 1190.5,675.5C 1197.34,685.855 1204.68,695.855 1212.5,705.5C 1218.73,709.794 1224.4,714.794 1229.5,720.5C 1236.17,724.5 1242.83,728.5 1249.5,732.5C 1257.24,739.568 1264.24,747.234 1270.5,755.5C 1277.24,761.57 1283.24,768.237 1288.5,775.5C 1294.58,780.905 1299.91,786.905 1304.5,793.5C 1310.58,798.905 1315.91,804.905 1320.5,811.5C 1327.24,817.57 1333.24,824.237 1338.5,831.5C 1345.91,838.235 1352.57,845.568 1358.5,853.5C 1358.83,851.833 1359.17,850.167 1359.5,848.5C 1354.75,815.506 1350.08,782.506 1345.5,749.5C 1345.72,747.616 1346.38,745.949 1347.5,744.5C 1350.77,743.513 1354.1,743.18 1357.5,743.5C 1357.24,744.978 1357.57,746.311 1358.5,747.5C 1365.24,753.57 1371.24,760.237 1376.5,767.5C 1392.5,784.833 1408.5,802.167 1424.5,819.5C 1425.17,820.833 1425.83,822.167 1426.5,823.5C 1442.5,840.833 1458.5,858.167 1474.5,875.5C 1475.17,876.833 1475.83,878.167 1476.5,879.5C 1482.58,884.905 1487.91,890.905 1492.5,897.5C 1502.7,909.215 1513.37,920.549 1524.5,931.5C 1525.17,932.833 1525.83,934.167 1526.5,935.5C 1532.58,940.905 1537.91,946.905 1542.5,953.5C 1549.91,960.235 1556.57,967.568 1562.5,975.5C 1564.34,980.703 1565.67,986.036 1566.5,991.5C 1574.95,1042.06 1575.61,1092.73 1568.5,1143.5C 1568.04,1145.97 1567.04,1147.97 1565.5,1149.5 Z"/></g>
<g><path style="opacity:1" fill="#020101" d="M 553.5,1017.5 C 604.819,1016.5 654.819,1024.16 703.5,1040.5C 716.983,1045.41 728.649,1053.07 738.5,1063.5C 747.659,1075.56 747.659,1087.56 738.5,1099.5C 734.167,1102.5 729.833,1105.5 725.5,1108.5C 719.589,1110.48 713.589,1112.14 707.5,1113.5C 691.076,1110.8 675.743,1105.14 661.5,1096.5C 624.182,1081.07 585.515,1075.74 545.5,1080.5C 538.714,1082.1 532.047,1084.1 525.5,1086.5C 514.496,1093.67 503.162,1100.34 491.5,1106.5C 487.789,1107.34 484.123,1108.34 480.5,1109.5C 457.339,1106.69 450.672,1094.69 460.5,1073.5C 469.5,1059.17 481.167,1047.5 495.5,1038.5C 513.998,1028.45 533.332,1021.45 553.5,1017.5 Z"/></g>
<g><path style="opacity:1" fill="#020101" d="M 1263.5,1019.5 C 1301.18,1017.25 1335.84,1026.25 1367.5,1046.5C 1380.03,1055.03 1389.7,1066.03 1396.5,1079.5C 1403.99,1099.87 1396.99,1110.54 1375.5,1111.5C 1372.17,1111.17 1368.83,1110.83 1365.5,1110.5C 1352.83,1103.17 1340.17,1095.83 1327.5,1088.5C 1306.62,1081.99 1285.29,1079.99 1263.5,1082.5C 1240.67,1084.53 1218.67,1089.86 1197.5,1098.5C 1182.2,1107.33 1165.87,1112.99 1148.5,1115.5C 1144.83,1115.17 1141.17,1114.83 1137.5,1114.5C 1131.18,1111.67 1125.18,1108.34 1119.5,1104.5C 1110.55,1096.33 1108.21,1086.66 1112.5,1075.5C 1117.4,1065.93 1124.4,1058.27 1133.5,1052.5C 1148.75,1044.53 1164.75,1038.53 1181.5,1034.5C 1208.95,1028.6 1236.28,1023.6 1263.5,1019.5 Z"/></g>
<g><path style="opacity:1" fill="#d5b494" d="M 257.5,1151.5 C 257.5,1152.83 257.5,1154.17 257.5,1155.5C 250.8,1155.17 244.134,1155.5 237.5,1156.5C 233.23,1158.02 230.564,1161.02 229.5,1165.5C 233.704,1184.85 238.037,1204.18 242.5,1223.5C 252.407,1230.07 261.741,1237.4 270.5,1245.5C 276.993,1253.82 282.993,1262.48 288.5,1271.5C 292.381,1278.6 295.715,1285.93 298.5,1293.5C 307.095,1322.62 318.429,1350.62 332.5,1377.5C 339.071,1387.41 346.404,1396.74 354.5,1405.5C 355.167,1406.83 355.833,1408.17 356.5,1409.5C 388.313,1439.91 425.979,1459.58 469.5,1468.5C 487.361,1472.1 505.361,1474.77 523.5,1476.5C 556.833,1477.83 590.167,1477.83 623.5,1476.5C 675.215,1474.07 723.882,1460.74 769.5,1436.5C 798.126,1417.88 820.46,1393.54 836.5,1363.5C 845.446,1342.94 855.446,1322.94 866.5,1303.5C 872.5,1294.17 878.5,1284.83 884.5,1275.5C 892.638,1265.93 902.971,1260.26 915.5,1258.5C 923.5,1257.5 931.5,1256.5 939.5,1255.5C 950.909,1256.68 962.243,1258.34 973.5,1260.5C 978.399,1261.95 983.065,1263.95 987.5,1266.5C 991.167,1270.17 994.833,1273.83 998.5,1277.5C 1001.17,1281.5 1003.83,1285.5 1006.5,1289.5C 1021.55,1316.94 1035.55,1344.94 1048.5,1373.5C 1064.83,1400.5 1086.5,1422.17 1113.5,1438.5C 1158.63,1461.78 1206.63,1474.45 1257.5,1476.5C 1290.17,1477.83 1322.83,1477.83 1355.5,1476.5C 1400.83,1473.83 1443.5,1461.83 1483.5,1440.5C 1498.99,1430.35 1513.33,1418.68 1526.5,1405.5C 1538.07,1391.25 1548.07,1375.91 1556.5,1359.5C 1565.95,1336.48 1574.62,1313.14 1582.5,1289.5C 1588.15,1276.86 1594.82,1264.86 1602.5,1253.5C 1610.99,1243.67 1620.65,1235.34 1631.5,1228.5C 1633.17,1226.83 1634.83,1225.17 1636.5,1223.5C 1639.42,1217.14 1641.09,1210.48 1641.5,1203.5C 1649.79,1198.34 1657.79,1192.68 1665.5,1186.5C 1666.69,1185.57 1668.02,1185.24 1669.5,1185.5C 1670.67,1269.33 1670.83,1353.33 1670,1437.5C 1668.83,1448.78 1668,1460.12 1667.5,1471.5C 1665.81,1505.03 1662.14,1538.37 1656.5,1571.5C 1651.37,1603.36 1644.03,1634.7 1634.5,1665.5C 1594.92,1762.37 1537.25,1846.7 1461.5,1918.5C 1460.17,1919.17 1458.83,1919.83 1457.5,1920.5C 1364.34,2007.41 1254.34,2060.74 1127.5,2080.5C 1127.96,2081.3 1128.62,2081.63 1129.5,2081.5C 1128.66,2082.94 1127.33,2083.94 1125.5,2084.5C 1088.86,2094.78 1051.53,2100.78 1013.5,2102.5C 938.481,2105.68 863.814,2102.01 789.5,2091.5C 788.167,2091.83 786.833,2092.17 785.5,2092.5C 894.088,2143.15 1008.09,2174.15 1127.5,2185.5C 1127.5,2198.83 1127.5,2212.17 1127.5,2225.5C 1064.15,2289.51 1000.82,2353.51 937.5,2417.5C 872.194,2353.19 807.194,2288.53 742.5,2223.5C 742.167,2224.17 741.833,2224.83 741.5,2225.5C 743.76,2227.74 745.094,2230.41 745.5,2233.5C 743.583,2232.59 741.917,2231.26 740.5,2229.5C 739.5,2179.5 739.167,2129.5 739.5,2079.5C 712.455,2075.74 685.788,2070.07 659.5,2062.5C 570.546,2036.04 491.879,1992.04 423.5,1930.5C 324.147,1843.56 255.147,1736.56 216.5,1609.5C 206.578,1566.04 200.578,1522.04 198.5,1477.5C 194.828,1403.74 189.828,1330.07 183.5,1256.5C 183.833,1253.5 184.167,1250.5 184.5,1247.5C 198.327,1266.49 211.66,1285.82 224.5,1305.5C 225.809,1307.89 226.809,1307.89 227.5,1305.5C 205.356,1246.78 192.689,1186.11 189.5,1123.5C 213.973,1128.54 236.64,1137.88 257.5,1151.5 Z"/></g>
<g><path style="opacity:1" fill="#523719" d="M 1565.5,1149.5 C 1564.45,1162.37 1562.28,1175.04 1559,1187.5C 1555.21,1200.05 1551.71,1212.72 1548.5,1225.5C 1543.83,1237.5 1539.17,1249.5 1534.5,1261.5C 1533.94,1263.33 1532.94,1264.66 1531.5,1265.5C 1531.72,1230.95 1515.72,1207.28 1483.5,1194.5C 1467.97,1188.62 1451.97,1184.62 1435.5,1182.5C 1421.47,1180.78 1407.47,1179.28 1393.5,1178C 1378.84,1177.5 1364.17,1177.33 1349.5,1177.5C 1346.02,1176.68 1342.36,1176.18 1338.5,1176C 1325.67,1175.83 1312.83,1175.67 1300,1175.5C 1286.82,1175.5 1273.98,1176.17 1261.5,1177.5C 1214.22,1177.38 1168.22,1185.05 1123.5,1200.5C 1113.18,1205.32 1103.18,1210.66 1093.5,1216.5C 1088.69,1221.07 1083.69,1225.4 1078.5,1229.5C 1077.27,1232.73 1075.27,1235.4 1072.5,1237.5C 1071.57,1238.69 1071.24,1240.02 1071.5,1241.5C 1070.17,1241.5 1068.83,1241.5 1067.5,1241.5C 1061.82,1255.22 1059.16,1269.56 1059.5,1284.5C 1059.89,1304.38 1064.22,1323.38 1072.5,1341.5C 1083.67,1368.19 1100.01,1391.19 1121.5,1410.5C 1139.81,1423.48 1159.81,1432.82 1181.5,1438.5C 1215.75,1446.13 1250.41,1449.8 1285.5,1449.5C 1293.81,1450.83 1302.47,1451.5 1311.5,1451.5C 1320.53,1451.5 1329.19,1450.83 1337.5,1449.5C 1379.87,1449.91 1419.87,1440.24 1457.5,1420.5C 1484.86,1404.12 1504.53,1381.12 1516.5,1351.5C 1524.96,1328.85 1529.96,1305.52 1531.5,1281.5C 1534.37,1279.64 1537.04,1277.31 1539.5,1274.5C 1555.5,1263.83 1571.5,1253.17 1587.5,1242.5C 1605.55,1229.48 1623.55,1216.48 1641.5,1203.5C 1641.09,1210.48 1639.42,1217.14 1636.5,1223.5C 1634.83,1225.17 1633.17,1226.83 1631.5,1228.5C 1620.65,1235.34 1610.99,1243.67 1602.5,1253.5C 1594.82,1264.86 1588.15,1276.86 1582.5,1289.5C 1574.62,1313.14 1565.95,1336.48 1556.5,1359.5C 1548.07,1375.91 1538.07,1391.25 1526.5,1405.5C 1513.33,1418.68 1498.99,1430.35 1483.5,1440.5C 1443.5,1461.83 1400.83,1473.83 1355.5,1476.5C 1322.83,1477.83 1290.17,1477.83 1257.5,1476.5C 1206.63,1474.45 1158.63,1461.78 1113.5,1438.5C 1086.5,1422.17 1064.83,1400.5 1048.5,1373.5C 1035.55,1344.94 1021.55,1316.94 1006.5,1289.5C 1003.83,1285.5 1001.17,1281.5 998.5,1277.5C 994.833,1273.83 991.167,1270.17 987.5,1266.5C 983.065,1263.95 978.399,1261.95 973.5,1260.5C 962.243,1258.34 950.909,1256.68 939.5,1255.5C 931.5,1256.5 923.5,1257.5 915.5,1258.5C 902.971,1260.26 892.638,1265.93 884.5,1275.5C 878.5,1284.83 872.5,1294.17 866.5,1303.5C 855.446,1322.94 845.446,1342.94 836.5,1363.5C 820.46,1393.54 798.126,1417.88 769.5,1436.5C 723.882,1460.74 675.215,1474.07 623.5,1476.5C 590.167,1477.83 556.833,1477.83 523.5,1476.5C 505.361,1474.77 487.361,1472.1 469.5,1468.5C 425.979,1459.58 388.313,1439.91 356.5,1409.5C 355.833,1408.17 355.167,1406.83 354.5,1405.5C 346.404,1396.74 339.071,1387.41 332.5,1377.5C 318.429,1350.62 307.095,1322.62 298.5,1293.5C 295.715,1285.93 292.381,1278.6 288.5,1271.5C 282.993,1262.48 276.993,1253.82 270.5,1245.5C 261.741,1237.4 252.407,1230.07 242.5,1223.5C 238.037,1204.18 233.704,1184.85 229.5,1165.5C 230.564,1161.02 233.23,1158.02 237.5,1156.5C 244.134,1155.5 250.8,1155.17 257.5,1155.5C 257.5,1154.17 257.5,1152.83 257.5,1151.5C 267.549,1159.56 277.549,1167.56 287.5,1175.5C 283.532,1175.47 281.532,1177.47 281.5,1181.5C 282.874,1184.85 284.207,1188.19 285.5,1191.5C 290.833,1191.5 296.167,1191.5 301.5,1191.5C 304.758,1193.75 307.758,1196.42 310.5,1199.5C 315.167,1206.17 319.833,1212.83 324.5,1219.5C 326.685,1196.02 329.685,1172.68 333.5,1149.5C 432.027,1141.42 530.694,1139.75 629.5,1144.5C 670.573,1146.77 711.239,1152.1 751.5,1160.5C 775.813,1165.72 799.146,1173.72 821.5,1184.5C 826.833,1187.83 832.167,1191.17 837.5,1194.5C 844.929,1197.27 852.596,1198.94 860.5,1199.5C 897.976,1193.87 935.643,1192.21 973.5,1194.5C 987.776,1196.71 1002.11,1198.38 1016.5,1199.5C 1021.5,1199.17 1026.5,1198.83 1031.5,1198.5C 1046.1,1191.2 1060.77,1183.86 1075.5,1176.5C 1123.39,1159.63 1172.72,1149.63 1223.5,1146.5C 1288.76,1141.84 1354.09,1140.51 1419.5,1142.5C 1468.19,1144.45 1516.86,1146.78 1565.5,1149.5 Z"/></g>
<g><path style="opacity:1" fill="#a68768" d="M 1349.5,1177.5 C 1320.17,1177.5 1290.83,1177.5 1261.5,1177.5C 1273.98,1176.17 1286.82,1175.5 1300,1175.5C 1312.83,1175.67 1325.67,1175.83 1338.5,1176C 1342.36,1176.18 1346.02,1176.68 1349.5,1177.5 Z"/></g>
<g><path style="opacity:1" fill="#c6a889" d="M 287.5,1175.5 C 292.093,1179.09 296.427,1183.09 300.5,1187.5C 301.429,1188.69 301.762,1190.02 301.5,1191.5C 296.167,1191.5 290.833,1191.5 285.5,1191.5C 284.207,1188.19 282.874,1184.85 281.5,1181.5C 281.532,1177.47 283.532,1175.47 287.5,1175.5 Z"/></g>
<g><path style="opacity:1" fill="#a28464" d="M 619.5,1177.5 C 586.833,1177.5 554.167,1177.5 521.5,1177.5C 537.486,1176.17 553.819,1175.5 570.5,1175.5C 587.181,1175.5 603.514,1176.17 619.5,1177.5 Z"/></g>
<g><path style="opacity:1" fill="#d5b494" d="M 521.5,1177.5 C 554.167,1177.5 586.833,1177.5 619.5,1177.5C 666.096,1177.44 711.43,1185.11 755.5,1200.5C 769.149,1206.32 781.815,1213.65 793.5,1222.5C 798.249,1226.58 802.249,1231.24 805.5,1236.5C 806.689,1237.43 808.022,1237.76 809.5,1237.5C 810.181,1243.53 812.515,1248.86 816.5,1253.5C 822.2,1271.3 822.867,1289.3 818.5,1307.5C 809.754,1342.67 793.421,1373.67 769.5,1400.5C 750.128,1417.19 728.128,1429.19 703.5,1436.5C 667.416,1445.84 630.749,1450.17 593.5,1449.5C 576.167,1449.5 558.833,1449.5 541.5,1449.5C 500.632,1449.79 461.966,1440.79 425.5,1422.5C 416.167,1415.83 406.833,1409.17 397.5,1402.5C 377.913,1382.34 364.247,1358.67 356.5,1331.5C 349.493,1306.62 346.66,1281.29 348,1255.5C 351.315,1225.58 367.149,1205.25 395.5,1194.5C 416.247,1186.99 437.58,1182.15 459.5,1180C 480.12,1178.05 500.786,1177.21 521.5,1177.5 Z"/></g>
<g><path style="opacity:1" fill="#d5b494" d="M 1261.5,1177.5 C 1290.83,1177.5 1320.17,1177.5 1349.5,1177.5C 1364.17,1177.33 1378.84,1177.5 1393.5,1178C 1407.47,1179.28 1421.47,1180.78 1435.5,1182.5C 1451.97,1184.62 1467.97,1188.62 1483.5,1194.5C 1515.72,1207.28 1531.72,1230.95 1531.5,1265.5C 1530.07,1271.69 1528.07,1277.69 1525.5,1283.5C 1527.72,1283.39 1529.72,1282.72 1531.5,1281.5C 1529.96,1305.52 1524.96,1328.85 1516.5,1351.5C 1504.53,1381.12 1484.86,1404.12 1457.5,1420.5C 1419.87,1440.24 1379.87,1449.91 1337.5,1449.5C 1320.17,1449.5 1302.83,1449.5 1285.5,1449.5C 1250.41,1449.8 1215.75,1446.13 1181.5,1438.5C 1159.81,1432.82 1139.81,1423.48 1121.5,1410.5C 1100.01,1391.19 1083.67,1368.19 1072.5,1341.5C 1064.22,1323.38 1059.89,1304.38 1059.5,1284.5C 1059.16,1269.56 1061.82,1255.22 1067.5,1241.5C 1068.83,1241.5 1070.17,1241.5 1071.5,1241.5C 1071.24,1240.02 1071.57,1238.69 1072.5,1237.5C 1075.27,1235.4 1077.27,1232.73 1078.5,1229.5C 1083.69,1225.4 1088.69,1221.07 1093.5,1216.5C 1103.18,1210.66 1113.18,1205.32 1123.5,1200.5C 1168.22,1185.05 1214.22,1177.38 1261.5,1177.5 Z"/></g>
<g><path style="opacity:1" fill="#ba9d82" d="M 1667.5,1471.5 C 1668,1460.12 1668.83,1448.78 1670,1437.5C 1670.83,1353.33 1670.67,1269.33 1669.5,1185.5C 1669.37,1184.62 1669.7,1183.96 1670.5,1183.5C 1671.83,1269.5 1671.83,1355.5 1670.5,1441.5C 1670.15,1451.87 1669.15,1461.87 1667.5,1471.5 Z"/></g>
<g><path style="opacity:0.992" fill="#d5b494" d="M 147.5,1200.5 C 150.157,1200.75 152.49,1201.75 154.5,1203.5C 158.388,1210.72 163.055,1217.39 168.5,1223.5C 169.167,1225.5 169.833,1227.5 170.5,1229.5C 178.218,1315.38 184.218,1401.38 188.5,1487.5C 190.756,1540.54 199.756,1592.37 215.5,1643C 215.486,1644.38 215.152,1645.55 214.5,1646.5C 188.134,1660.5 160.8,1662.17 132.5,1651.5C 115.786,1643.46 102.119,1631.79 91.5,1616.5C 73.3798,1585.47 62.0464,1552.14 57.5,1516.5C 55.7714,1505.21 54.438,1493.88 53.5,1482.5C 50.1671,1437.14 50.8338,1391.8 55.5,1346.5C 58.3666,1310.36 68.3666,1276.36 85.5,1244.5C 96.2616,1226.9 110.928,1213.73 129.5,1205C 135.445,1203.18 141.445,1201.68 147.5,1200.5 Z"/></g>
<g><path style="opacity:1" fill="#d0af8f" d="M 289.5,1207.5 C 296.224,1206.64 301.891,1208.64 306.5,1213.5C 306.833,1214.83 307.167,1216.17 307.5,1217.5C 306.809,1220.2 306.142,1222.87 305.5,1225.5C 299.609,1227.44 293.609,1227.77 287.5,1226.5C 285.668,1225.75 284.001,1224.75 282.5,1223.5C 281.167,1220.17 281.167,1216.83 282.5,1213.5C 284.79,1211.23 287.123,1209.23 289.5,1207.5 Z"/></g>
<g><path style="opacity:0.993" fill="#d5b494" d="M 1752.5,1209.5 C 1768.48,1219.98 1781.65,1233.31 1792,1249.5C 1805.86,1275.58 1815.03,1303.24 1819.5,1332.5C 1827.48,1381.86 1830.31,1431.53 1828,1481.5C 1825.34,1515.28 1818.51,1548.28 1807.5,1580.5C 1798.05,1607.94 1781.72,1630.27 1758.5,1647.5C 1750.44,1652.41 1741.77,1655.74 1732.5,1657.5C 1704.56,1662.51 1679.23,1656.84 1656.5,1640.5C 1655.94,1637.72 1655.61,1634.88 1655.5,1632C 1673.39,1547.46 1683.06,1461.96 1684.5,1375.5C 1688.28,1357.03 1693.62,1339.03 1700.5,1321.5C 1713.06,1290.5 1726.39,1259.84 1740.5,1229.5C 1743.42,1223 1745.75,1216.34 1747.5,1209.5C 1749.17,1209.5 1750.83,1209.5 1752.5,1209.5 Z"/></g>
<g><path style="opacity:1" fill="#020202" d="M 623.5,1213.5 C 665.671,1211.75 694.671,1230.42 710.5,1269.5C 723.889,1307.35 719.222,1342.68 696.5,1375.5C 672.58,1404.23 642.914,1412.56 607.5,1400.5C 579,1385.19 562,1361.53 556.5,1329.5C 549.893,1289.32 561.559,1255.65 591.5,1228.5C 601.585,1221.79 612.251,1216.79 623.5,1213.5 Z"/></g>
<g><path style="opacity:1" fill="#020202" d="M 1181.5,1321.5 C 1181.5,1313.5 1181.5,1305.5 1181.5,1297.5C 1181.18,1293.45 1181.51,1289.45 1182.5,1285.5C 1186.33,1271.18 1192.33,1257.84 1200.5,1245.5C 1206.83,1239.17 1213.17,1232.83 1219.5,1226.5C 1254.53,1206.48 1286.87,1210.14 1316.5,1237.5C 1344.46,1272.66 1350.46,1311.33 1334.5,1353.5C 1314.01,1397.58 1280.34,1413.25 1233.5,1400.5C 1210.22,1389.62 1194.55,1371.95 1186.5,1347.5C 1183.87,1338.99 1182.21,1330.33 1181.5,1321.5 Z"/></g>
<g><path style="opacity:1" fill="#595959" d="M 1243.5,1233.5 C 1239.5,1233.5 1235.5,1233.5 1231.5,1233.5C 1232.69,1232.22 1234.36,1231.56 1236.5,1231.5C 1239.2,1231.32 1241.54,1231.98 1243.5,1233.5 Z"/></g>
<g><path style="opacity:1" fill="#fafafa" d="M 647.5,1257.5 C 648.724,1264.84 648.724,1272.18 647.5,1279.5C 647.799,1281.6 647.466,1283.6 646.5,1285.5C 644.5,1288.83 642.5,1292.17 640.5,1295.5C 635.293,1301.06 628.96,1304.39 621.5,1305.5C 614.854,1306.51 608.187,1306.51 601.5,1305.5C 588.992,1301.99 580.658,1293.99 576.5,1281.5C 571.606,1259.62 579.272,1243.96 599.5,1234.5C 616.577,1230.1 630.91,1234.43 642.5,1247.5C 644.689,1250.66 646.356,1253.99 647.5,1257.5 Z"/></g>
<g><path style="opacity:1" fill="#fbfbfb" d="M 1231.5,1233.5 C 1235.5,1233.5 1239.5,1233.5 1243.5,1233.5C 1259.11,1235.78 1269.11,1244.45 1273.5,1259.5C 1274.51,1266.19 1274.51,1272.85 1273.5,1279.5C 1269.5,1292.83 1260.83,1301.5 1247.5,1305.5C 1240.83,1305.5 1234.17,1305.5 1227.5,1305.5C 1223.31,1304.41 1219.31,1302.74 1215.5,1300.5C 1212.5,1297.5 1209.5,1294.5 1206.5,1291.5C 1204.92,1289.01 1203.92,1286.34 1203.5,1283.5C 1202.65,1276.19 1201.99,1268.85 1201.5,1261.5C 1201.48,1257.88 1202.48,1254.55 1204.5,1251.5C 1207.56,1249.04 1209.89,1246.04 1211.5,1242.5C 1215.84,1239.33 1220.51,1236.66 1225.5,1234.5C 1227.4,1233.53 1229.4,1233.2 1231.5,1233.5 Z"/></g>
<g><path style="opacity:1" fill="#b9b9b9" d="M 647.5,1257.5 C 648.822,1260.77 649.489,1264.43 649.5,1268.5C 649.489,1272.57 648.822,1276.23 647.5,1279.5C 648.724,1272.18 648.724,1264.84 647.5,1257.5 Z"/></g>
<g><path style="opacity:1" fill="#939393" d="M 1273.5,1259.5 C 1274.82,1262.43 1275.49,1265.76 1275.5,1269.5C 1275.49,1273.24 1274.82,1276.57 1273.5,1279.5C 1274.51,1272.85 1274.51,1266.19 1273.5,1259.5 Z"/></g>
<g><path style="opacity:1" fill="#afafaf" d="M 1201.5,1261.5 C 1201.99,1268.85 1202.65,1276.19 1203.5,1283.5C 1200.09,1279.65 1198.76,1274.99 1199.5,1269.5C 1199.52,1266.41 1200.19,1263.74 1201.5,1261.5 Z"/></g>
<g><path style="opacity:1" fill="#9a9a9a" d="M 601.5,1305.5 C 608.187,1306.51 614.854,1306.51 621.5,1305.5C 621.082,1306.22 620.416,1306.72 619.5,1307C 616.5,1307.17 613.5,1307.33 610.5,1307.5C 607.087,1307.48 604.087,1306.82 601.5,1305.5 Z"/></g>
<g><path style="opacity:1" fill="#433e32" d="M 1181.5,1297.5 C 1181.5,1305.5 1181.5,1313.5 1181.5,1321.5C 1180.18,1318.23 1179.51,1314.57 1179.5,1310.5C 1179.67,1306.83 1179.83,1303.17 1180,1299.5C 1180.28,1298.58 1180.78,1297.92 1181.5,1297.5 Z"/></g>
<g><path style="opacity:1" fill="#a4a4a4" d="M 1227.5,1305.5 C 1234.17,1305.5 1240.83,1305.5 1247.5,1305.5C 1244.57,1306.82 1241.24,1307.49 1237.5,1307.5C 1233.76,1307.49 1230.43,1306.82 1227.5,1305.5 Z"/></g>
<g><path style="opacity:1" fill="#836546" d="M 541.5,1449.5 C 558.833,1449.5 576.167,1449.5 593.5,1449.5C 585.193,1450.83 576.527,1451.5 567.5,1451.5C 558.473,1451.5 549.807,1450.83 541.5,1449.5 Z"/></g>
<g><path style="opacity:1" fill="#86684a" d="M 1285.5,1449.5 C 1302.83,1449.5 1320.17,1449.5 1337.5,1449.5C 1329.19,1450.83 1320.53,1451.5 1311.5,1451.5C 1302.47,1451.5 1293.81,1450.83 1285.5,1449.5 Z"/></g>
<g><path style="opacity:1" fill="#cd866b" d="M 493.5,1503.5 C 532.8,1502.24 564.467,1516.91 588.5,1547.5C 609.932,1579.51 613.932,1613.51 600.5,1649.5C 580.965,1690.11 548.632,1712.11 503.5,1715.5C 447.7,1710.03 413.367,1680.03 400.5,1625.5C 396.314,1581.54 411.981,1546.54 447.5,1520.5C 462.24,1512.43 477.573,1506.76 493.5,1503.5 Z"/></g>
<g><path style="opacity:1" fill="#cd866b" d="M 1403.5,1503.5 C 1453.03,1502.1 1488.7,1523.43 1510.5,1567.5C 1525.77,1607.19 1520.44,1643.86 1494.5,1677.5C 1461.09,1713.1 1421.42,1722.77 1375.5,1706.5C 1361.61,1700.39 1349.28,1692.06 1338.5,1681.5C 1301.53,1635.81 1300.2,1589.14 1334.5,1541.5C 1353.18,1520.67 1376.18,1508 1403.5,1503.5 Z"/></g>
<g><path style="opacity:1" fill="#b97960" d="M 1041.5,1597.5 C 1042.59,1597.62 1043.25,1598.29 1043.5,1599.5C 1020.15,1638.53 985.482,1659.2 939.5,1661.5C 901.674,1659.75 870.674,1644.42 846.5,1615.5C 844.311,1612.34 842.644,1609.01 841.5,1605.5C 906.641,1635.67 971.308,1634.67 1035.5,1602.5C 1037.64,1600.8 1039.64,1599.13 1041.5,1597.5 Z"/></g>
<g><path style="opacity:1" fill="#aa6146" d="M 1133.5,1747.5 C 1134.98,1747.24 1136.31,1747.57 1137.5,1748.5C 1104.42,1781.7 1064.42,1801.04 1017.5,1806.5C 951.409,1814.89 886.076,1810.89 821.5,1794.5C 796.374,1787.6 773.041,1776.93 751.5,1762.5C 752.833,1762.17 754.167,1761.83 755.5,1761.5C 871.145,1783.6 986.479,1781.93 1101.5,1756.5C 1112.58,1754.07 1123.25,1751.07 1133.5,1747.5 Z"/></g>
<g><path style="opacity:1" fill="#b97a61" d="M 1005.5,1877.5 C 1006.98,1877.24 1008.31,1877.57 1009.5,1878.5C 1006.4,1880.93 1004.07,1883.93 1002.5,1887.5C 987.215,1902.27 968.882,1910.27 947.5,1911.5C 931.094,1909.92 915.761,1904.92 901.5,1896.5C 897.167,1892.17 892.833,1887.83 888.5,1883.5C 887.571,1882.31 887.238,1880.98 887.5,1879.5C 896.606,1883.04 905.939,1886.04 915.5,1888.5C 936.167,1892.5 956.833,1892.5 977.5,1888.5C 987.663,1886.4 996.996,1882.73 1005.5,1877.5 Z"/></g>
<g><path style="opacity:1" fill="#b97960" d="M 1129.5,2081.5 C 1129.83,2081.5 1130.17,2081.5 1130.5,2081.5C 1128.88,2111.46 1127.88,2141.46 1127.5,2171.5C 1127.5,2176.17 1127.5,2180.83 1127.5,2185.5C 1008.09,2174.15 894.088,2143.15 785.5,2092.5C 786.833,2092.17 788.167,2091.83 789.5,2091.5C 863.814,2102.01 938.481,2105.68 1013.5,2102.5C 1051.53,2100.78 1088.86,2094.78 1125.5,2084.5C 1127.33,2083.94 1128.66,2082.94 1129.5,2081.5 Z"/></g>
<g><path style="opacity:1" fill="#8d644e" d="M 1130.5,2081.5 C 1131.66,2092.66 1131.83,2103.99 1131,2115.5C 1129.72,2132.78 1129.06,2150.11 1129,2167.5C 1128.79,2169.06 1128.29,2170.39 1127.5,2171.5C 1127.88,2141.46 1128.88,2111.46 1130.5,2081.5 Z"/></g>
<g><path style="opacity:1" fill="#6eb9e7" d="M 1144.5,2214.5 C 1144.5,2214.83 1144.5,2215.17 1144.5,2215.5C 1143.83,2215.5 1143.5,2215.83 1143.5,2216.5C 1142.83,2216.5 1142.5,2216.83 1142.5,2217.5C 1141.36,2219.21 1139.7,2219.88 1137.5,2219.5C 1133.86,2226.79 1130.19,2234.12 1126.5,2241.5C 1121.83,2248.17 1117.17,2254.83 1112.5,2261.5C 1058.34,2351.83 1003.67,2441.83 948.5,2531.5C 946.256,2535.31 944.589,2539.31 943.5,2543.5C 942.167,2543.5 940.833,2543.5 939.5,2543.5C 937.22,2538.94 934.886,2534.27 932.5,2529.5C 919.167,2508.17 905.833,2486.83 892.5,2465.5C 889.167,2460.83 885.833,2456.17 882.5,2451.5C 837.812,2378.1 792.145,2305.44 745.5,2233.5C 745.094,2230.41 743.76,2227.74 741.5,2225.5C 741.833,2224.83 742.167,2224.17 742.5,2223.5C 807.194,2288.53 872.194,2353.19 937.5,2417.5C 1000.82,2353.51 1064.15,2289.51 1127.5,2225.5C 1133.7,2221.64 1138.03,2216.31 1140.5,2209.5C 1141.81,2208.52 1143.15,2207.52 1144.5,2206.5C 1145.67,2206.92 1146.67,2207.59 1147.5,2208.5C 1146.63,2210.63 1145.63,2212.63 1144.5,2214.5 Z"/></g>
</svg>
