<?xml version="1.0" encoding="UTF-8"?>
<!DOCTYPE svg PUBLIC "-//W3C//DTD SVG 1.1//EN" "http://www.w3.org/Graphics/SVG/1.1/DTD/svg11.dtd">
<svg xmlns="http://www.w3.org/2000/svg" version="1.1" width="940px" height="1308px" style="shape-rendering:geometricPrecision; text-rendering:geometricPrecision; image-rendering:optimizeQuality; fill-rule:evenodd; clip-rule:evenodd" xmlns:xlink="http://www.w3.org/1999/xlink">
<g><path style="opacity:0.984" fill="#000000" d="M 865.5,228.5 C 871.366,249.733 876.366,271.066 880.5,292.5C 891.83,374.869 882.663,454.869 853,532.5C 852.389,537.496 851.889,542.496 851.5,547.5C 849.735,548.461 847.735,548.795 845.5,548.5C 845.5,546.5 845.5,544.5 845.5,542.5C 847.091,529.753 846.758,517.087 844.5,504.5C 838.515,440.588 827.348,377.588 811,315.5C 806.43,297.866 801.264,280.532 795.5,263.5C 776.679,201.191 752.846,140.857 724,82.5C 704.077,66.4425 682.243,53.2758 658.5,43C 589.035,13.7727 516.702,2.77272 441.5,10C 357.5,18.1079 280.5,45.4412 210.5,92C 206.097,95.5191 201.763,99.0191 197.5,102.5C 166.78,140.941 145.28,184.274 133,232.5C 123.848,269.413 116.848,306.746 112,344.5C 104.234,400.688 97.7344,457.021 92.5,513.5C 91.2404,525.497 91.2404,537.497 92.5,549.5C 92.6309,550.376 92.2975,551.043 91.5,551.5C 89.2592,550.871 87.2592,549.871 85.5,548.5C 85.5717,542.455 85.0717,536.455 84,530.5C 33.958,433.292 27.6247,333.292 65,230.5C 77.8366,196.827 93.8366,164.827 113,134.5C 131.344,107.151 156.511,89.6513 188.5,82C 197.493,80.4754 206.493,80.1421 215.5,81C 298.14,28.9606 388.473,2.46057 486.5,1.5C 560.508,0.83501 629.841,18.335 694.5,54C 706.179,61.1716 717.512,68.8382 728.5,77C 774.637,92.1457 810.471,120.312 836,161.5C 848.643,182.597 858.477,204.931 865.5,228.5 Z"/></g>
<g><path style="opacity:1" fill="#e9cfb6" d="M 795.5,263.5 C 795.667,299.835 795.5,336.168 795,372.5C 793.46,390.271 791.46,407.938 789,425.5C 808.999,450.849 827.499,477.183 844.5,504.5C 846.758,517.087 847.091,529.753 845.5,542.5C 844.539,544.265 844.205,546.265 844.5,548.5C 837.803,549.187 831.803,551.521 826.5,555.5C 825.683,546.191 825.35,536.857 825.5,527.5C 812.829,527.667 800.162,527.5 787.5,527C 727.956,515.489 667.956,512.156 607.5,517C 589.166,519 571.166,522.667 553.5,528C 540.495,533.17 527.495,538.336 514.5,543.5C 483.988,531.513 453.488,531.513 423,543.5C 412.241,540.039 401.741,535.873 391.5,531C 361.573,521.549 330.907,516.215 299.5,515C 248.388,513.43 197.721,517.43 147.5,527C 135.505,527.5 123.505,527.667 111.5,527.5C 111.318,540.505 110.985,553.505 110.5,566.5C 106.262,560.767 100.929,556.267 94.5,553C 93.9152,551.698 93.2485,550.531 92.5,549.5C 91.2404,537.497 91.2404,525.497 92.5,513.5C 109.523,485.298 128.356,458.298 149,432.5C 146.138,414.645 144.138,396.645 143,378.5C 142.62,327.484 142.287,276.484 142,225.5C 160.512,184.478 179.012,143.478 197.5,102.5C 201.763,99.0191 206.097,95.5191 210.5,92C 280.5,45.4412 357.5,18.1079 441.5,10C 516.702,2.77272 589.035,13.7727 658.5,43C 682.243,53.2758 704.077,66.4425 724,82.5C 752.846,140.857 776.679,201.191 795.5,263.5 Z"/></g>
<g><path style="opacity:1" fill="#919191" d="M 197.5,102.5 C 179.012,143.478 160.512,184.478 142,225.5C 142.287,276.484 142.62,327.484 143,378.5C 144.138,396.645 146.138,414.645 149,432.5C 128.356,458.298 109.523,485.298 92.5,513.5C 97.7344,457.021 104.234,400.688 112,344.5C 116.848,306.746 123.848,269.413 133,232.5C 145.28,184.274 166.78,140.941 197.5,102.5 Z"/></g>
<g><path style="opacity:0.672" fill="#818181" d="M 865.5,228.5 C 873.933,248.907 878.933,270.24 880.5,292.5C 876.366,271.066 871.366,249.733 865.5,228.5 Z"/></g>
<g><path style="opacity:1" fill="#919090" d="M 795.5,263.5 C 801.264,280.532 806.43,297.866 811,315.5C 827.348,377.588 838.515,440.588 844.5,504.5C 827.499,477.183 808.999,450.849 789,425.5C 791.46,407.938 793.46,390.271 795,372.5C 795.5,336.168 795.667,299.835 795.5,263.5 Z"/></g>
<g><path style="opacity:1" fill="#020202" d="M 271.5,455.5 C 297.109,455.992 322.109,460.159 346.5,468C 354.828,471.007 361.328,476.174 366,483.5C 367.945,490.324 366.112,495.824 360.5,500C 353.669,504.651 346.335,505.651 338.5,503C 323.822,494.824 308.155,489.824 291.5,488C 283.167,487.333 274.833,487.333 266.5,488C 263.5,489 260.5,490 257.5,491C 251.33,494.919 244.997,498.586 238.5,502C 224.593,504.431 219.427,498.931 223,485.5C 230.056,474.12 239.89,465.954 252.5,461C 258.97,459.216 265.303,457.383 271.5,455.5 Z"/></g>
<g><path style="opacity:1" fill="#020202" d="M 619.5,457.5 C 639.355,455.62 658.021,459.453 675.5,469C 681.473,473.395 686.64,478.561 691,484.5C 697.232,499.945 692.065,506.112 675.5,503C 669.669,499.919 664.002,496.585 658.5,493C 651.145,489.896 643.478,488.396 635.5,488.5C 625.095,489.426 614.761,490.926 604.5,493C 594.5,497 584.5,501 574.5,505C 564.489,507.408 556.322,504.575 550,496.5C 547.368,487.253 550.201,480.086 558.5,475C 564.713,471.038 571.38,468.038 578.5,466C 592.176,462.566 605.843,459.732 619.5,457.5 Z"/></g>
<g><path style="opacity:1" fill="#321c0d" d="M 826.5,555.5 C 826.91,588.166 827.244,620.832 827.5,653.5C 823.833,653.5 820.167,653.5 816.5,653.5C 809.492,653.334 802.492,653.5 795.5,654C 734.894,683.534 671.561,691.534 605.5,678C 577.955,671.815 554.122,658.981 534,639.5C 530.333,634.5 526.667,629.5 523,624.5C 515.602,608.029 506.935,592.362 497,577.5C 490.601,570.426 483.101,564.926 474.5,561C 467.243,559.491 460.577,560.825 454.5,565C 444.593,572.576 436.426,581.743 430,592.5C 423.456,608.596 415.123,623.596 405,637.5C 387.481,656.016 366.314,668.516 341.5,675C 272.273,692.422 205.606,685.422 141.5,654C 132.84,653.5 124.173,653.334 115.5,653.5C 113.5,653.5 111.5,653.5 109.5,653.5C 109.615,624.497 109.949,595.497 110.5,566.5C 110.985,553.505 111.318,540.505 111.5,527.5C 123.505,527.667 135.505,527.5 147.5,527C 197.721,517.43 248.388,513.43 299.5,515C 330.907,516.215 361.573,521.549 391.5,531C 401.741,535.873 412.241,540.039 423,543.5C 453.488,531.513 483.988,531.513 514.5,543.5C 527.495,538.336 540.495,533.17 553.5,528C 571.166,522.667 589.166,519 607.5,517C 667.956,512.156 727.956,515.489 787.5,527C 800.162,527.5 812.829,527.667 825.5,527.5C 825.35,536.857 825.683,546.191 826.5,555.5 Z"/></g>
<g><path style="opacity:1" fill="#e8ceb5" d="M 207.5,533.5 C 240.168,533.333 272.835,533.5 305.5,534C 330.83,534.942 355.164,540.276 378.5,550C 402.668,562.859 409.501,582.026 399,607.5C 386.848,639.174 364.015,658.008 330.5,664C 290.912,670.366 251.245,671.032 211.5,666C 188.443,661.891 168.943,651.391 153,634.5C 140.157,615.133 134.491,593.8 136,570.5C 138.374,559.803 144.207,551.637 153.5,546C 160.818,542.338 168.485,539.672 176.5,538C 187.006,536.731 197.34,535.231 207.5,533.5 Z"/></g>
<g><path style="opacity:1" fill="#e8ceb5" d="M 643.5,532.5 C 677.566,531.904 711.566,533.071 745.5,536C 761.38,537.072 776.047,541.739 789.5,550C 800.534,560.952 804.367,574.118 801,589.5C 797.972,622.178 781.472,645.011 751.5,658C 735.084,664.252 718.084,667.918 700.5,669C 672.41,670.255 644.41,669.255 616.5,666C 565.17,659.01 537.67,629.843 534,578.5C 536.782,568.724 542.282,560.891 550.5,555C 564.704,546.375 580.038,540.709 596.5,538C 612.26,535.652 627.926,533.819 643.5,532.5 Z"/></g>
<g><path style="opacity:0.998" fill="#e8cdb6" d="M 85.5,548.5 C 87.2592,549.871 89.2592,550.871 91.5,551.5C 92.2975,551.043 92.6309,550.376 92.5,549.5C 93.2485,550.531 93.9152,551.698 94.5,553C 100.929,556.267 106.262,560.767 110.5,566.5C 109.949,595.497 109.615,624.497 109.5,653.5C 111.5,653.5 113.5,653.5 115.5,653.5C 116.453,680.389 118.119,707.222 120.5,734C 120.485,737.903 119.985,741.736 119,745.5C 117.354,750.785 115.187,755.785 112.5,760.5C 109.5,761.5 107.5,763.5 106.5,766.5C 87.9755,779.651 69.3089,779.817 50.5,767C 37.7758,754.391 29.6092,739.224 26,721.5C 17.3994,680.503 17.3994,639.503 26,598.5C 28.8305,586.176 33.8305,574.842 41,564.5C 52.7617,550.745 67.595,545.412 85.5,548.5 Z"/></g>
<g><path style="opacity:0.997" fill="#e8cdb6" d="M 845.5,542.5 C 845.5,544.5 845.5,546.5 845.5,548.5C 847.735,548.795 849.735,548.461 851.5,547.5C 873.965,552.122 888.798,565.455 896,587.5C 905.768,620.469 909.435,654.136 907,688.5C 906.185,713.777 899.185,737.11 886,758.5C 871.417,776.189 853.25,781.189 831.5,773.5C 829.948,770.888 827.614,769.555 824.5,769.5C 821.237,765.06 817.737,760.727 814,756.5C 806.667,742.167 806.667,727.833 814,713.5C 815.252,693.524 816.085,673.524 816.5,653.5C 820.167,653.5 823.833,653.5 827.5,653.5C 827.244,620.832 826.91,588.166 826.5,555.5C 831.803,551.521 837.803,549.187 844.5,548.5C 844.205,546.265 844.539,544.265 845.5,542.5 Z"/></g>
<g><path style="opacity:1" fill="#200e05" d="M 303.5,554.5 C 329.857,553.346 346.023,565.679 352,591.5C 355.149,612.392 348.982,629.892 333.5,644C 311.468,656.245 293.301,652.078 279,631.5C 269.025,612.123 269.025,592.789 279,573.5C 285.116,564.377 293.283,558.044 303.5,554.5 Z"/></g>
<g><path style="opacity:1" fill="#200e05" d="M 616.5,554.5 C 642.969,553.837 659.136,566.503 665,592.5C 667.502,612.332 661.668,629.165 647.5,643C 624.711,656.562 605.877,652.395 591,630.5C 578.619,606.255 581.452,584.088 599.5,564C 604.647,559.763 610.314,556.596 616.5,554.5 Z"/></g>
<g><path style="opacity:1" fill="#e9cfb6" d="M 816.5,653.5 C 816.085,673.524 815.252,693.524 814,713.5C 806.667,727.833 806.667,742.167 814,756.5C 817.737,760.727 821.237,765.06 824.5,769.5C 824.543,772.91 824.043,776.243 823,779.5C 789.926,867.243 731.092,931.41 646.5,972C 621.438,982.855 595.438,990.355 568.5,994.5C 567.5,1019.82 567.167,1045.16 567.5,1070.5C 536.538,1108.8 505.204,1146.8 473.5,1184.5C 439.802,1147.47 406.469,1110.14 373.5,1072.5C 373.5,1046.5 373.5,1020.5 373.5,994.5C 326.447,987.765 283.447,970.932 244.5,944C 185.049,901.541 142.549,846.041 117,777.5C 115.026,771.938 113.526,766.271 112.5,760.5C 115.187,755.785 117.354,750.785 119,745.5C 119.985,741.736 120.485,737.903 120.5,734C 118.119,707.222 116.453,680.389 115.5,653.5C 124.173,653.334 132.84,653.5 141.5,654C 205.606,685.422 272.273,692.422 341.5,675C 366.314,668.516 387.481,656.016 405,637.5C 415.123,623.596 423.456,608.596 430,592.5C 436.426,581.743 444.593,572.576 454.5,565C 460.577,560.825 467.243,559.491 474.5,561C 483.101,564.926 490.601,570.426 497,577.5C 506.935,592.362 515.602,608.029 523,624.5C 526.667,629.5 530.333,634.5 534,639.5C 554.122,658.981 577.955,671.815 605.5,678C 671.561,691.534 734.894,683.534 795.5,654C 802.492,653.5 809.492,653.334 816.5,653.5 Z"/></g>
<g><path style="opacity:1" fill="#fbfbfb" d="M 293.5,564.5 C 313.913,563.729 321.413,573.063 316,592.5C 306.427,603.672 296.094,604.339 285,594.5C 278.05,581.568 280.883,571.568 293.5,564.5 Z"/></g>
<g><path style="opacity:1" fill="#fafafa" d="M 606.5,564.5 C 623.664,562.835 631.831,570.502 631,587.5C 624.68,601.083 614.846,604.583 601.5,598C 589.613,584.704 591.28,573.537 606.5,564.5 Z"/></g>
<g><path style="opacity:1" fill="#d5af95" d="M 234.5,699.5 C 267.148,696.393 288.314,710.393 298,741.5C 301.421,773.036 288.254,793.869 258.5,804C 225.987,808.826 204.487,795.66 194,764.5C 189.783,731.592 203.283,709.925 234.5,699.5 Z"/></g>
<g><path style="opacity:1" fill="#d4af95" d="M 689.5,699.5 C 721.606,696.458 742.773,710.124 753,740.5C 757.029,774.632 742.529,796.132 709.5,805C 682.723,807.53 663.556,796.697 652,772.5C 642.414,736.636 654.914,712.303 689.5,699.5 Z"/></g>
<g><path style="opacity:1" fill="#a1754d" d="M 516.5,744.5 C 517.043,744.56 517.376,744.893 517.5,745.5C 500.905,773.655 476.572,783.822 444.5,776C 430.28,770.607 419.28,761.44 411.5,748.5C 411.833,748.167 412.167,747.833 412.5,747.5C 442.813,763.586 473.813,764.752 505.5,751C 509.23,748.807 512.897,746.64 516.5,744.5 Z"/></g>
<g><path style="opacity:0.913" fill="#040403" d="M 112.5,760.5 C 113.526,766.271 115.026,771.938 117,777.5C 142.549,846.041 185.049,901.541 244.5,944C 283.447,970.932 326.447,987.765 373.5,994.5C 373.5,1020.5 373.5,1046.5 373.5,1072.5C 371.273,1070.39 369.273,1068.06 367.5,1065.5C 367.5,1043.5 367.5,1021.5 367.5,999.5C 365.833,999.5 364.167,999.5 362.5,999.5C 282.763,983.398 217.596,943.732 167,880.5C 140.217,846.162 120.05,808.162 106.5,766.5C 107.5,763.5 109.5,761.5 112.5,760.5 Z"/></g>
<g><path style="opacity:0.916" fill="#050404" d="M 824.5,769.5 C 827.614,769.555 829.948,770.888 831.5,773.5C 799.712,866.131 739.712,933.964 651.5,977C 627.558,988.036 602.558,995.536 576.5,999.5C 575.5,999.5 574.5,999.5 573.5,999.5C 573.5,1020.83 573.5,1042.17 573.5,1063.5C 571.471,1065.86 569.471,1068.19 567.5,1070.5C 567.167,1045.16 567.5,1019.82 568.5,994.5C 595.438,990.355 621.438,982.855 646.5,972C 731.092,931.41 789.926,867.243 823,779.5C 824.043,776.243 824.543,772.91 824.5,769.5 Z"/></g>
<g><path style="opacity:1" fill="#e4a6a1" d="M 438.5,820.5 C 480.684,818.963 522.35,822.796 563.5,832C 516.038,853.291 466.705,858.957 415.5,849C 397.882,845.678 380.882,840.345 364.5,833C 372.377,830.598 380.377,828.598 388.5,827C 405.292,824.608 421.958,822.441 438.5,820.5 Z"/></g>
<g><path style="opacity:1" fill="#a2764d" d="M 434.5,884.5 C 455.795,896.41 477.129,896.41 498.5,884.5C 499.041,886.523 498.541,888.523 497,890.5C 486.401,901.255 473.567,905.421 458.5,903C 451.197,900.933 444.697,897.433 439,892.5C 436.843,890.183 435.343,887.516 434.5,884.5 Z"/></g>
<g><path style="opacity:1" fill="#a1754c" d="M 556.5,988.5 C 557.5,988.5 558.5,988.5 559.5,988.5C 558.64,1005.82 557.974,1023.15 557.5,1040.5C 496.159,1035.75 437.826,1019.91 382.5,993C 400.738,995.237 419.072,996.903 437.5,998C 459.5,998.667 481.5,998.667 503.5,998C 521.75,997.183 539.417,994.016 556.5,988.5 Z"/></g>
<g><path style="opacity:0.997" fill="#56bbee" d="M 362.5,999.5 C 364.167,999.5 365.833,999.5 367.5,999.5C 367.5,1021.5 367.5,1043.5 367.5,1065.5C 366.143,1064.31 364.643,1063.31 363,1062.5C 347.448,1066.43 331.948,1070.43 316.5,1074.5C 313.349,1072.42 310.349,1070.08 307.5,1067.5C 320.67,1040.66 339.004,1018 362.5,999.5 Z"/></g>
<g><path style="opacity:0.997" fill="#56bbee" d="M 576.5,999.5 C 599.456,1016.63 617.123,1038.13 629.5,1064C 625.953,1067.05 622.286,1069.89 618.5,1072.5C 603.627,1068.88 588.627,1065.88 573.5,1063.5C 573.5,1042.17 573.5,1020.83 573.5,999.5C 574.5,999.5 575.5,999.5 576.5,999.5 Z"/></g>
<g><path style="opacity:1" fill="#ede0e7" d="M 367.5,1065.5 C 369.273,1068.06 371.273,1070.39 373.5,1072.5C 406.469,1110.14 439.802,1147.47 473.5,1184.5C 505.204,1146.8 536.538,1108.8 567.5,1070.5C 569.471,1068.19 571.471,1065.86 573.5,1063.5C 588.627,1065.88 603.627,1068.88 618.5,1072.5C 702.079,1092.96 778.412,1128.46 847.5,1179C 890.365,1211.71 920.698,1253.54 938.5,1304.5C 897.667,1304.83 856.833,1305.17 816,1305.5C 544.5,1304.95 273,1304.28 1.5,1303.5C 19.931,1249.9 52.2644,1206.74 98.5,1174C 148.27,1141.28 201.27,1114.61 257.5,1094C 277.017,1086.99 296.684,1080.49 316.5,1074.5C 331.948,1070.43 347.448,1066.43 363,1062.5C 364.643,1063.31 366.143,1064.31 367.5,1065.5 Z"/></g>
<g><path style="opacity:1" fill="#58bcee" d="M 359.5,1075.5 C 394.954,1114.13 429.954,1153.3 464.5,1193C 462.193,1192.36 459.859,1191.36 457.5,1190C 406.667,1157.83 355.833,1125.67 305,1093.5C 304.493,1092 304.993,1090.84 306.5,1090C 324.164,1084.67 341.831,1079.84 359.5,1075.5 Z"/></g>
<g><path style="opacity:1" fill="#58bcee" d="M 569.5,1076.5 C 588.578,1079.2 607.244,1083.53 625.5,1089.5C 579.451,1119.77 533.118,1149.27 486.5,1178C 514.379,1144.29 542.046,1110.46 569.5,1076.5 Z"/></g>
</svg>
