<?xml version="1.0" encoding="UTF-8"?>
<!DOCTYPE svg PUBLIC "-//W3C//DTD SVG 1.1//EN" "http://www.w3.org/Graphics/SVG/1.1/DTD/svg11.dtd">
<svg xmlns="http://www.w3.org/2000/svg" version="1.1" width="1158px" height="1572px" style="shape-rendering:geometricPrecision; text-rendering:geometricPrecision; image-rendering:optimizeQuality; fill-rule:evenodd; clip-rule:evenodd" xmlns:xlink="http://www.w3.org/1999/xlink">
<g><path style="opacity:1" fill="#322719" d="M 679.5,-0.5 C 681.5,-0.5 683.5,-0.5 685.5,-0.5C 808.809,16.7365 911.642,71.7365 994,164.5C 1040.19,219.466 1076.02,280.966 1101.5,349C 1127.37,422.321 1144.2,497.821 1152,575.5C 1154.38,604.958 1156.22,634.291 1157.5,663.5C 1157.5,695.833 1157.5,728.167 1157.5,760.5C 1154.45,836.443 1147.62,912.109 1137,987.5C 1133.04,1013.89 1128.71,1040.22 1124,1066.5C 1119.77,1086.98 1114.77,1107.31 1109,1127.5C 1091.13,1186.1 1073.47,1244.77 1056,1303.5C 1051.25,1321.26 1046.75,1339.1 1042.5,1357C 1039.88,1371.87 1037.22,1386.7 1034.5,1401.5C 1032.87,1403.03 1032.04,1405.03 1032,1407.5C 1031.5,1411.82 1031.33,1416.15 1031.5,1420.5C 1030.51,1425.98 1030.18,1431.64 1030.5,1437.5C 1006.47,1438.98 982.468,1438.65 958.5,1436.5C 949.068,1435.81 939.734,1434.47 930.5,1432.5C 930.179,1438.03 930.512,1443.36 931.5,1448.5C 931.334,1453.18 931.501,1457.85 932,1462.5C 932.278,1463.42 932.778,1464.08 933.5,1464.5C 934.814,1468.76 935.981,1473.09 937,1477.5C 938.162,1480.48 939.662,1483.15 941.5,1485.5C 936.704,1486.41 932.037,1487.74 927.5,1489.5C 905.542,1492.8 883.542,1493.13 861.5,1490.5C 857.567,1488.62 853.234,1487.28 848.5,1486.5C 819.167,1479.34 799,1461.67 788,1433.5C 786.315,1422.85 786.148,1412.18 787.5,1401.5C 789.23,1397.82 790.23,1393.82 790.5,1389.5C 791.9,1381.11 793.734,1372.78 796,1364.5C 798.746,1358.81 800.746,1352.81 802,1346.5C 802.667,1345.83 803.333,1345.17 804,1344.5C 809.505,1328.14 815.671,1312.14 822.5,1296.5C 821.209,1296.74 820.209,1296.4 819.5,1295.5C 820.833,1295.5 822.167,1295.5 823.5,1295.5C 832.648,1273.91 842.481,1252.57 853,1231.5C 876.075,1186.1 899.242,1140.76 922.5,1095.5C 928.581,1082.63 935.081,1069.96 942,1057.5C 951.215,978.098 954.382,898.432 951.5,818.5C 955.295,812.41 958.962,806.243 962.5,800C 969.063,782.957 972.396,765.29 972.5,747C 971.243,734.18 970.41,721.346 970,708.5C 971.597,705.781 973.763,703.614 976.5,702C 986.907,699.792 996.907,696.459 1006.5,692C 1012.04,687.588 1011.71,683.588 1005.5,680C 999.486,678.418 993.819,676.085 988.5,673C 979.473,671.129 970.64,668.629 962,665.5C 953.133,663.884 944.299,662.217 935.5,660.5C 933.239,659.383 931.072,658.05 929,656.5C 925.626,644.597 922.459,632.597 919.5,620.5C 915.204,619.672 910.871,619.172 906.5,619C 903.437,618.426 900.771,617.092 898.5,615C 876.809,611.577 855.143,611.743 833.5,615.5C 824.98,618.227 816.313,620.56 807.5,622.5C 800.125,625.67 792.791,628.837 785.5,632C 771.093,637.832 756.76,637.832 742.5,632C 741.696,630.229 740.529,628.729 739,627.5C 738.388,622.079 740.221,617.579 744.5,614C 748.759,612.066 752.759,609.732 756.5,607C 780.891,598.487 805.891,592.32 831.5,588.5C 837.72,588.043 843.72,587.043 849.5,585.5C 864.688,584.202 880.021,584.369 895.5,586C 899.502,588.368 903.836,589.534 908.5,589.5C 872.129,478.311 805.129,390.478 707.5,326C 695.337,319.42 683.337,312.586 671.5,305.5C 658.876,300.192 647.21,293.359 636.5,285C 630.022,278.19 623.189,271.69 616,265.5C 610.944,258.246 605.444,251.246 599.5,244.5C 552.626,274.233 507.626,306.4 464.5,341C 413.642,382.527 366.809,428.027 324,477.5C 296.367,511.618 272.367,548.284 252,587.5C 247.326,598.18 242.659,608.847 238,619.5C 236.75,625.834 234.583,631.834 231.5,637.5C 229.602,645.157 227.769,652.824 226,660.5C 225.347,663.139 224.18,665.473 222.5,667.5C 217.751,667.803 213.084,668.637 208.5,670C 201.195,673.475 193.528,676.142 185.5,678C 175.327,681.028 173.993,686.028 181.5,693C 188.752,696.527 196.418,698.86 204.5,700C 208.873,701.713 212.707,704.213 216,707.5C 214.742,726.798 214.409,746.131 215,765.5C 216.296,775.073 218.463,784.406 221.5,793.5C 222.084,800.508 222.751,807.508 223.5,814.5C 224.011,821.461 225.344,828.127 227.5,834.5C 231.298,852.408 234.798,870.408 238,888.5C 242.425,907.257 246.925,925.924 251.5,944.5C 252.216,949.462 253.55,954.129 255.5,958.5C 260.401,974.434 264.568,990.767 268,1007.5C 275.538,1030.81 282.204,1054.48 288,1078.5C 292.332,1093.16 296.665,1107.83 301,1122.5C 302.812,1124.3 304.645,1125.97 306.5,1127.5C 304.658,1125.97 303.325,1126.3 302.5,1128.5C 318.807,1184.78 332.474,1241.78 343.5,1299.5C 351.409,1334.68 359.409,1369.68 367.5,1404.5C 366.964,1407.7 367.631,1410.36 369.5,1412.5C 375.447,1438.82 381.114,1465.15 386.5,1491.5C 388.41,1497.1 388.744,1502.77 387.5,1508.5C 376.446,1525.03 361.113,1535.03 341.5,1538.5C 329.189,1539.37 316.856,1539.7 304.5,1539.5C 266.594,1534.92 232.261,1521.42 201.5,1499C 194.781,1493.4 188.614,1487.24 183,1480.5C 184.025,1495.37 185.858,1510.03 188.5,1524.5C 188.569,1529.85 188.902,1535.19 189.5,1540.5C 187.833,1540.5 186.167,1540.5 184.5,1540.5C 184.167,1540.5 183.833,1540.5 183.5,1540.5C 181.485,1539.08 179.152,1538.41 176.5,1538.5C 163,1535.08 149.666,1531.08 136.5,1526.5C 134.967,1524.75 132.967,1523.75 130.5,1523.5C 118.418,1520.42 106.751,1516.25 95.5,1511C 83.5864,1504.9 71.5864,1499.07 59.5,1493.5C 49.9259,1487.59 40.9259,1480.92 32.5,1473.5C 28.7465,1469.24 25.5799,1464.58 23,1459.5C 22.1407,1455.01 20.974,1450.68 19.5,1446.5C 20.8905,1440.74 22.7238,1435.08 25,1429.5C 31.8138,1422.7 37.8138,1415.37 43,1407.5C 45.5228,1401.79 48.0228,1396.13 50.5,1390.5C 57.3646,1367.66 62.1979,1344.33 65,1320.5C 68.3873,1286.1 70.2206,1251.76 70.5,1217.5C 30.88,1062.82 7.2133,905.822 -0.5,746.5C -0.5,706.833 -0.5,667.167 -0.5,627.5C 2.06198,548.014 13.2286,469.681 33,392.5C 49.8577,332.436 74.1911,275.769 106,222.5C 159.469,138.699 232.302,78.1989 324.5,41C 401.772,12.7884 481.772,-0.711581 564.5,0.5C 576.515,0.631984 588.515,1.13198 600.5,2C 610.046,3.94291 619.046,7.27625 627.5,12C 629.138,15.0571 630.471,15.0571 631.5,12C 646.637,4.07885 662.637,-0.0878158 679.5,-0.5 Z"/></g>
<g><path style="opacity:1" fill="#ecd1ba" d="M 849.5,585.5 C 844.126,585.523 838.793,586.023 833.5,587C 832.584,587.278 831.918,587.778 831.5,588.5C 805.891,592.32 780.891,598.487 756.5,607C 752.759,609.732 748.759,612.066 744.5,614C 740.221,617.579 738.388,622.079 739,627.5C 740.529,628.729 741.696,630.229 742.5,632C 756.76,637.832 771.093,637.832 785.5,632C 792.791,628.837 800.125,625.67 807.5,622.5C 816.313,620.56 824.98,618.227 833.5,615.5C 855.143,611.743 876.809,611.577 898.5,615C 900.771,617.092 903.437,618.426 906.5,619C 910.871,619.172 915.204,619.672 919.5,620.5C 922.459,632.597 925.626,644.597 929,656.5C 931.072,658.05 933.239,659.383 935.5,660.5C 915.034,656.255 894.367,652.755 873.5,650C 836.493,646.72 799.493,646.72 762.5,650C 749.49,652.654 736.49,655.654 723.5,659C 707.205,665.392 693.039,674.892 681,687.5C 677.071,693.137 673.904,699.137 671.5,705.5C 661.378,702.296 651.044,699.796 640.5,698C 598.28,693.375 556.614,695.709 515.5,705C 507.242,688.077 494.909,675.077 478.5,666C 470.497,663.754 462.83,660.754 455.5,657C 446.999,655.634 438.666,653.634 430.5,651C 395.24,647.15 359.907,646.483 324.5,649C 302.162,651.889 279.828,654.889 257.5,658C 248.696,660.729 239.696,662.729 230.5,664C 227.733,665.083 225.067,666.25 222.5,667.5C 224.18,665.473 225.347,663.139 226,660.5C 227.769,652.824 229.602,645.157 231.5,637.5C 234.583,631.834 236.75,625.834 238,619.5C 242.659,608.847 247.326,598.18 252,587.5C 272.367,548.284 296.367,511.618 324,477.5C 366.809,428.027 413.642,382.527 464.5,341C 507.626,306.4 552.626,274.233 599.5,244.5C 605.444,251.246 610.944,258.246 616,265.5C 623.189,271.69 630.022,278.19 636.5,285C 647.21,293.359 658.876,300.192 671.5,305.5C 683.337,312.586 695.337,319.42 707.5,326C 805.129,390.478 872.129,478.311 908.5,589.5C 903.836,589.534 899.502,588.368 895.5,586C 880.021,584.369 864.688,584.202 849.5,585.5 Z"/></g>
<g><path style="opacity:1" fill="#756553" d="M 849.5,585.5 C 843.72,587.043 837.72,588.043 831.5,588.5C 831.918,587.778 832.584,587.278 833.5,587C 838.793,586.023 844.126,585.523 849.5,585.5 Z"/></g>
<g><path style="opacity:1" fill="#988572" d="M 371.5,602.5 C 359.48,602.328 347.48,602.662 335.5,603.5C 336.263,602.732 337.263,602.232 338.5,602C 349.674,601.174 360.674,601.341 371.5,602.5 Z"/></g>
<g><path style="opacity:1" fill="#342a1c" d="M 371.5,602.5 C 389.69,603.874 408.023,605.374 426.5,607C 436.308,609.369 445.975,612.202 455.5,615.5C 457.856,617.69 460.356,619.69 463,621.5C 465.868,627.46 464.368,631.96 458.5,635C 446.025,641.791 432.858,643.291 419,639.5C 414.399,637.314 409.566,635.814 404.5,635C 394.187,633.586 383.854,632.419 373.5,631.5C 372.391,630.71 371.058,630.21 369.5,630C 358.5,629.333 347.5,629.333 336.5,630C 333.149,630.057 330.149,630.891 327.5,632.5C 314.615,634.184 302.615,638.35 291.5,645C 284.89,646.441 278.224,646.774 271.5,646C 265.911,643.549 264.078,639.383 266,633.5C 271.857,625.323 279.357,619.157 288.5,615C 297.522,611.998 306.522,608.998 315.5,606C 322.135,604.838 328.801,604.005 335.5,603.5C 347.48,602.662 359.48,602.328 371.5,602.5 Z"/></g>
<g><path style="opacity:1" fill="#8b7966" d="M 373.5,631.5 C 358.115,629.916 342.781,630.249 327.5,632.5C 330.149,630.891 333.149,630.057 336.5,630C 347.5,629.333 358.5,629.333 369.5,630C 371.058,630.21 372.391,630.71 373.5,631.5 Z"/></g>
<g><path style="opacity:1" fill="#fae4e0" d="M 935.5,660.5 C 944.299,662.217 953.133,663.884 962,665.5C 970.64,668.629 979.473,671.129 988.5,673C 993.819,676.085 999.486,678.418 1005.5,680C 1011.71,683.588 1012.04,687.588 1006.5,692C 996.907,696.459 986.907,699.792 976.5,702C 973.763,703.614 971.597,705.781 970,708.5C 970.41,721.346 971.243,734.18 972.5,747C 972.396,765.29 969.063,782.957 962.5,800C 958.962,806.243 955.295,812.41 951.5,818.5C 946.742,824.763 941.409,830.596 935.5,836C 907.619,857.418 875.953,869.751 840.5,873C 767.294,887.296 713.461,862.129 679,797.5C 668.793,775.669 663.793,752.669 664,728.5C 630.967,720.911 597.467,718.411 563.5,721C 549.566,722.639 535.9,725.472 522.5,729.5C 522.159,763.351 512.326,794.018 493,821.5C 465.989,857.755 429.823,875.421 384.5,874.5C 368.464,874.378 352.464,873.545 336.5,872C 322.19,868.978 308.023,865.478 294,861.5C 284.495,857.664 275.328,853.164 266.5,848C 252.956,838.121 241.123,826.621 231,813.5C 227.896,806.625 224.729,799.958 221.5,793.5C 218.463,784.406 216.296,775.073 215,765.5C 214.409,746.131 214.742,726.798 216,707.5C 212.707,704.213 208.873,701.713 204.5,700C 196.418,698.86 188.752,696.527 181.5,693C 173.993,686.028 175.327,681.028 185.5,678C 193.528,676.142 201.195,673.475 208.5,670C 213.084,668.637 217.751,667.803 222.5,667.5C 225.067,666.25 227.733,665.083 230.5,664C 239.696,662.729 248.696,660.729 257.5,658C 279.828,654.889 302.162,651.889 324.5,649C 359.907,646.483 395.24,647.15 430.5,651C 438.666,653.634 446.999,655.634 455.5,657C 462.83,660.754 470.497,663.754 478.5,666C 494.909,675.077 507.242,688.077 515.5,705C 556.614,695.709 598.28,693.375 640.5,698C 651.044,699.796 661.378,702.296 671.5,705.5C 673.904,699.137 677.071,693.137 681,687.5C 693.039,674.892 707.205,665.392 723.5,659C 736.49,655.654 749.49,652.654 762.5,650C 799.493,646.72 836.493,646.72 873.5,650C 894.367,652.755 915.034,656.255 935.5,660.5 Z"/></g>
<g><path style="opacity:1" fill="#ecd1ba" d="M 356.5,663.5 C 389.388,661.702 421.721,664.868 453.5,673C 464.909,676.717 475.242,682.384 484.5,690C 494.83,702.287 501.33,716.454 504,732.5C 506.977,761.934 499.977,788.601 483,812.5C 463.103,838.047 437.27,854.214 405.5,861C 369.993,862.912 335.326,858.579 301.5,848C 288.55,841.859 276.216,834.693 264.5,826.5C 253.113,816.294 244.28,804.294 238,790.5C 231.108,765.289 230.775,739.956 237,714.5C 238.207,707.423 240.54,700.757 244,694.5C 246.739,691.882 249.573,689.382 252.5,687C 257.5,685.229 262.167,682.896 266.5,680C 296.004,671.465 326.004,665.965 356.5,663.5 Z"/></g>
<g><path style="opacity:1" fill="#ecd1ba" d="M 937.5,690.5 C 936.861,691.097 936.528,691.93 936.5,693C 940.266,710.997 942.932,729.163 944.5,747.5C 945.243,755.166 946.076,762.833 947,770.5C 947.232,771.737 947.732,772.737 948.5,773.5C 947.931,777.329 948.598,780.663 950.5,783.5C 944.463,801.435 934.13,816.269 919.5,828C 896.699,844.054 871.366,854.054 843.5,858C 823.259,860.962 802.926,862.295 782.5,862C 760.628,857.23 740.961,847.896 723.5,834C 716.976,826.478 710.143,819.311 703,812.5C 700.929,809.412 699.262,806.079 698,802.5C 697.075,801.953 696.242,801.287 695.5,800.5C 676.862,766.149 676.862,731.816 695.5,697.5C 705.274,686.109 717.274,677.942 731.5,673C 761.924,664.615 792.924,661.615 824.5,664C 848.012,665.374 871.346,668.374 894.5,673C 901.312,675.63 908.312,677.63 915.5,679C 921.265,682.039 927.265,684.706 933.5,687C 935.319,687.74 936.652,688.907 937.5,690.5 Z"/></g>
<g><path style="opacity:1" fill="#382d1f" d="M 937.5,690.5 C 941.282,691.788 943.449,694.455 944,698.5C 948.679,710.39 951.512,722.724 952.5,735.5C 954.026,749.218 953.692,762.885 951.5,776.5C 950.781,778.764 950.448,781.097 950.5,783.5C 948.598,780.663 947.931,777.329 948.5,773.5C 947.631,765.512 946.798,757.512 946,749.5C 945.722,748.584 945.222,747.918 944.5,747.5C 942.932,729.163 940.266,710.997 936.5,693C 936.528,691.93 936.861,691.097 937.5,690.5 Z"/></g>
<g><path style="opacity:1" fill="#746051" d="M 409.5,696.5 C 402.52,695.253 395.52,695.253 388.5,696.5C 388.918,695.778 389.584,695.278 390.5,695C 396.5,694.333 402.5,694.333 408.5,695C 409.056,695.383 409.389,695.883 409.5,696.5 Z"/></g>
<g><path style="opacity:1" fill="#786355" d="M 798.5,695.5 C 792.441,695.254 786.441,695.587 780.5,696.5C 780.611,695.883 780.944,695.383 781.5,695C 787.349,694.182 793.015,694.348 798.5,695.5 Z"/></g>
<g><path style="opacity:1" fill="#1e0f07" d="M 409.5,696.5 C 413.313,697.16 416.979,698.326 420.5,700C 441.695,716.541 450.195,738.374 446,765.5C 444.592,769.057 443.592,772.724 443,776.5C 437.103,794.901 424.936,806.567 406.5,811.5C 400.059,811.672 393.726,811.006 387.5,809.5C 383.478,808.657 379.812,806.99 376.5,804.5C 358.86,788.426 351.36,768.426 354,744.5C 355.896,727.295 363.396,713.129 376.5,702C 380.194,699.491 384.194,697.658 388.5,696.5C 395.52,695.253 402.52,695.253 409.5,696.5 Z"/></g>
<g><path style="opacity:1" fill="#1e0f07" d="M 798.5,695.5 C 803.644,696.872 808.644,698.705 813.5,701C 818.667,704.833 823.167,709.333 827,714.5C 837.4,731.904 840.4,750.57 836,770.5C 832.49,784.368 825.324,795.868 814.5,805C 809.393,808.065 804.06,810.231 798.5,811.5C 791.82,811.388 785.153,811.054 778.5,810.5C 767.067,805.736 758.4,797.736 752.5,786.5C 741.539,763.321 741.872,740.321 753.5,717.5C 757.27,711.561 761.937,706.394 767.5,702C 771.456,699.292 775.789,697.459 780.5,696.5C 786.441,695.587 792.441,695.254 798.5,695.5 Z"/></g>
<g><path style="opacity:1" fill="#f9f9f8" d="M 379.5,711.5 C 398.985,709.568 408.152,718.235 407,737.5C 401.695,750.332 392.195,755.332 378.5,752.5C 365.304,745.755 361.471,735.422 367,721.5C 369.057,719.731 370.89,717.731 372.5,715.5C 374.904,714.157 377.238,712.823 379.5,711.5 Z"/></g>
<g><path style="opacity:1" fill="#fbfbfa" d="M 783.5,752.5 C 778.833,752.5 774.167,752.5 769.5,752.5C 756.157,745.422 752.657,734.756 759,720.5C 768.014,710.672 778.514,708.838 790.5,715C 800.781,725.837 801.115,737.003 791.5,748.5C 788.741,749.879 786.075,751.213 783.5,752.5 Z"/></g>
<g><path style="opacity:1" fill="#ecd1ba" d="M 951.5,818.5 C 954.382,898.432 951.215,978.098 942,1057.5C 935.081,1069.96 928.581,1082.63 922.5,1095.5C 884.15,1133.85 840.15,1164.01 790.5,1186C 784.469,1187.84 778.469,1189.67 772.5,1191.5C 770.152,1191.59 768.486,1192.59 767.5,1194.5C 754.273,1198.27 740.94,1201.77 727.5,1205C 723.49,1205.5 719.49,1206 715.5,1206.5C 715.5,1228.5 715.5,1250.5 715.5,1272.5C 715.5,1277.83 715.5,1283.17 715.5,1288.5C 722.466,1289.63 729.466,1290.63 736.5,1291.5C 737.398,1292.16 738.398,1292.82 739.5,1293.5C 706.038,1309.12 671.038,1319.95 634.5,1326C 606.132,1328.24 577.799,1327.91 549.5,1325C 520.635,1319.21 493.302,1309.38 467.5,1295.5C 464.651,1292.92 461.651,1290.58 458.5,1288.5C 465.856,1285.69 473.523,1284.03 481.5,1283.5C 481.5,1280.17 481.5,1276.83 481.5,1273.5C 482.497,1251.34 482.831,1229.01 482.5,1206.5C 479.14,1206.38 475.807,1206.05 472.5,1205.5C 462.711,1204.84 453.045,1203.34 443.5,1201C 391.538,1187.37 345.871,1162.87 306.5,1127.5C 304.645,1125.97 302.812,1124.3 301,1122.5C 296.665,1107.83 292.332,1093.16 288,1078.5C 282.204,1054.48 275.538,1030.81 268,1007.5C 264.568,990.767 260.401,974.434 255.5,958.5C 254.83,954.149 253.996,949.816 253,945.5C 252.617,944.944 252.117,944.611 251.5,944.5C 246.925,925.924 242.425,907.257 238,888.5C 234.798,870.408 231.298,852.408 227.5,834.5C 226.788,829.349 226.121,824.183 225.5,819C 225.431,817.014 224.765,815.514 223.5,814.5C 222.751,807.508 222.084,800.508 221.5,793.5C 224.729,799.958 227.896,806.625 231,813.5C 241.123,826.621 252.956,838.121 266.5,848C 275.328,853.164 284.495,857.664 294,861.5C 308.023,865.478 322.19,868.978 336.5,872C 352.464,873.545 368.464,874.378 384.5,874.5C 429.823,875.421 465.989,857.755 493,821.5C 512.326,794.018 522.159,763.351 522.5,729.5C 535.9,725.472 549.566,722.639 563.5,721C 597.467,718.411 630.967,720.911 664,728.5C 663.793,752.669 668.793,775.669 679,797.5C 713.461,862.129 767.294,887.296 840.5,873C 875.953,869.751 907.619,857.418 935.5,836C 941.409,830.596 946.742,824.763 951.5,818.5 Z"/></g>
<g><path style="opacity:1" fill="#a7958e" d="M 952.5,735.5 C 953.117,735.611 953.617,735.944 954,736.5C 954.667,747.833 954.667,759.167 954,770.5C 953.76,772.852 952.927,774.852 951.5,776.5C 953.692,762.885 954.026,749.218 952.5,735.5 Z"/></g>
<g><path style="opacity:1" fill="#9d9692" d="M 769.5,752.5 C 774.167,752.5 778.833,752.5 783.5,752.5C 778.849,755.039 774.182,755.039 769.5,752.5 Z"/></g>
<g><path style="opacity:1" fill="#796856" d="M 944.5,747.5 C 945.222,747.918 945.722,748.584 946,749.5C 946.798,757.512 947.631,765.512 948.5,773.5C 947.732,772.737 947.232,771.737 947,770.5C 946.076,762.833 945.243,755.166 944.5,747.5 Z"/></g>
<g><path style="opacity:1" fill="#5e4b3e" d="M 387.5,809.5 C 393.726,811.006 400.059,811.672 406.5,811.5C 401.684,812.65 396.684,812.816 391.5,812C 389.563,811.878 388.23,811.045 387.5,809.5 Z"/></g>
<g><path style="opacity:1" fill="#604c3f" d="M 778.5,810.5 C 785.153,811.054 791.82,811.388 798.5,811.5C 796.022,812.164 793.355,812.497 790.5,812.5C 786.223,812.663 782.223,811.997 778.5,810.5 Z"/></g>
<g><path style="opacity:1" fill="#80705d" d="M 223.5,814.5 C 224.765,815.514 225.431,817.014 225.5,819C 226.121,824.183 226.788,829.349 227.5,834.5C 225.344,828.127 224.011,821.461 223.5,814.5 Z"/></g>
<g><path style="opacity:1" fill="#e1b4b8" d="M 336.5,879.5 C 361.396,875.964 381.562,883.964 397,903.5C 410.639,925.467 410.972,947.801 398,970.5C 377.922,995.481 352.755,1002.31 322.5,991C 301.234,978.902 290.568,960.569 290.5,936C 290.459,927.541 291.959,919.375 295,911.5C 305,895.643 318.834,884.977 336.5,879.5 Z"/></g>
<g><path style="opacity:1" fill="#e1b4b8" d="M 851.5,879.5 C 885.347,876.283 908.181,890.616 920,922.5C 925.378,955.248 913.211,978.748 883.5,993C 855.848,1001.49 833.014,994.654 815,972.5C 814.005,968.84 812.171,965.674 809.5,963C 797.101,926.151 808.101,899.151 842.5,882C 845.797,881.796 848.797,880.963 851.5,879.5 Z"/></g>
<g><path style="opacity:1" fill="#cca484" d="M 515.5,909.5 C 555.852,924.697 597.518,928.864 640.5,922C 652.75,918.361 664.75,914.361 676.5,910C 648.21,937.984 614.21,948.984 574.5,943C 553.227,936.362 533.893,926.029 516.5,912C 515.748,911.329 515.414,910.496 515.5,909.5 Z"/></g>
<g><path style="opacity:1" fill="#71614f" d="M 251.5,944.5 C 252.117,944.611 252.617,944.944 253,945.5C 253.996,949.816 254.83,954.149 255.5,958.5C 253.55,954.129 252.216,949.462 251.5,944.5 Z"/></g>
<g><path style="opacity:1" fill="#d09497" d="M 726.5,1024.5 C 729.187,1024.34 731.854,1024.5 734.5,1025C 679.207,1051.26 620.874,1062.93 559.5,1060C 540.037,1057.97 520.704,1054.64 501.5,1050C 495.054,1047.05 488.387,1044.72 481.5,1043C 481.043,1042.59 480.709,1042.09 480.5,1041.5C 548.818,1037.48 617.152,1033.65 685.5,1030C 699.274,1027.99 712.941,1026.16 726.5,1024.5 Z"/></g>
<g><path style="opacity:1" fill="#cda686" d="M 552.5,1089.5 C 552.917,1088.88 553.584,1088.54 554.5,1088.5C 568.749,1091.2 583.082,1092.87 597.5,1093.5C 611.268,1092.47 624.935,1090.97 638.5,1089C 618.799,1103.33 597.132,1107 573.5,1100C 566.396,1096.58 559.396,1093.08 552.5,1089.5 Z"/></g>
<g><path style="opacity:1" fill="#0d0d0d" d="M 922.5,1095.5 C 899.242,1140.76 876.075,1186.1 853,1231.5C 842.481,1252.57 832.648,1273.91 823.5,1295.5C 822.167,1295.5 820.833,1295.5 819.5,1295.5C 811.392,1292.54 803.059,1290.21 794.5,1288.5C 794.144,1286.81 793.144,1285.81 791.5,1285.5C 782.566,1283.92 773.9,1281.58 765.5,1278.5C 748.862,1276.28 732.195,1274.28 715.5,1272.5C 715.5,1250.5 715.5,1228.5 715.5,1206.5C 719.49,1206 723.49,1205.5 727.5,1205C 740.94,1201.77 754.273,1198.27 767.5,1194.5C 769.674,1194.25 771.341,1193.25 772.5,1191.5C 778.469,1189.67 784.469,1187.84 790.5,1186C 840.15,1164.01 884.15,1133.85 922.5,1095.5 Z"/></g>
<g><path style="opacity:1" fill="#0c0c0c" d="M 306.5,1127.5 C 345.871,1162.87 391.538,1187.37 443.5,1201C 453.045,1203.34 462.711,1204.84 472.5,1205.5C 474.635,1207.37 477.302,1208.04 480.5,1207.5C 480.5,1229.5 480.5,1251.5 480.5,1273.5C 469.034,1274.52 457.701,1276.18 446.5,1278.5C 444.102,1278.26 442.102,1278.93 440.5,1280.5C 432.503,1281.5 424.503,1282.5 416.5,1283.5C 415.041,1283.43 413.708,1283.77 412.5,1284.5C 408.491,1284.86 404.491,1285.36 400.5,1286C 399.944,1286.38 399.611,1286.88 399.5,1287.5C 390.133,1288.98 380.799,1290.65 371.5,1292.5C 368.615,1292.64 366.282,1293.64 364.5,1295.5C 357.503,1296.72 350.503,1298.06 343.5,1299.5C 332.474,1241.78 318.807,1184.78 302.5,1128.5C 303.325,1126.3 304.658,1125.97 306.5,1127.5 Z"/></g>
<g><path style="opacity:1" fill="#766a5f" d="M 772.5,1191.5 C 771.341,1193.25 769.674,1194.25 767.5,1194.5C 768.486,1192.59 770.152,1191.59 772.5,1191.5 Z"/></g>
<g><path style="opacity:1" fill="#928274" d="M 472.5,1205.5 C 475.807,1206.05 479.14,1206.38 482.5,1206.5C 482.831,1229.01 482.497,1251.34 481.5,1273.5C 481.167,1273.5 480.833,1273.5 480.5,1273.5C 480.5,1251.5 480.5,1229.5 480.5,1207.5C 477.302,1208.04 474.635,1207.37 472.5,1205.5 Z"/></g>
<g><path style="opacity:1" fill="#cba483" d="M 493.5,1212.5 C 495.978,1211.84 498.645,1211.5 501.5,1211.5C 541.685,1213.51 581.851,1215.51 622,1217.5C 635.506,1217.39 649.006,1217.06 662.5,1216.5C 677.524,1214.97 692.524,1213.31 707.5,1211.5C 707.5,1226.17 707.5,1240.83 707.5,1255.5C 695.785,1254.88 684.118,1253.72 672.5,1252C 641.439,1247.37 610.439,1242.37 579.5,1237C 558.226,1232.96 537.226,1227.96 516.5,1222C 511.668,1219.87 506.668,1218.21 501.5,1217C 498.938,1215.26 496.272,1213.76 493.5,1212.5 Z"/></g>
<g><path style="opacity:1" fill="#e5cf6e" d="M 715.5,1272.5 C 732.195,1274.28 748.862,1276.28 765.5,1278.5C 765.586,1279.5 765.252,1280.33 764.5,1281C 758.583,1283.63 752.916,1286.63 747.5,1290C 745.385,1290.56 743.385,1291.39 741.5,1292.5C 739.929,1291.69 738.262,1291.36 736.5,1291.5C 729.466,1290.63 722.466,1289.63 715.5,1288.5C 715.5,1283.17 715.5,1277.83 715.5,1272.5 Z"/></g>
<g><path style="opacity:1" fill="#e2cc6e" d="M 480.5,1273.5 C 480.833,1273.5 481.167,1273.5 481.5,1273.5C 481.5,1276.83 481.5,1280.17 481.5,1283.5C 473.523,1284.03 465.856,1285.69 458.5,1288.5C 457.448,1288.65 456.448,1288.48 455.5,1288C 453.393,1285.77 451.06,1283.77 448.5,1282C 447.255,1281.21 445.922,1280.71 444.5,1280.5C 445.167,1279.83 445.833,1279.17 446.5,1278.5C 457.701,1276.18 469.034,1274.52 480.5,1273.5 Z"/></g>
<g><path style="opacity:1" fill="#90875d" d="M 446.5,1278.5 C 445.833,1279.17 445.167,1279.83 444.5,1280.5C 443.167,1280.5 441.833,1280.5 440.5,1280.5C 442.102,1278.93 444.102,1278.26 446.5,1278.5 Z"/></g>
<g><path style="opacity:1" fill="#fbeda7" d="M 765.5,1278.5 C 773.9,1281.58 782.566,1283.92 791.5,1285.5C 761.434,1306.12 729.6,1323.79 696,1338.5C 688.589,1340.41 681.422,1342.91 674.5,1346C 664.057,1348.35 653.724,1351.02 643.5,1354C 580.081,1367.07 520.748,1357.23 465.5,1324.5C 447.308,1312.93 430.974,1299.26 416.5,1283.5C 424.503,1282.5 432.503,1281.5 440.5,1280.5C 441.833,1280.5 443.167,1280.5 444.5,1280.5C 445.922,1280.71 447.255,1281.21 448.5,1282C 451.06,1283.77 453.393,1285.77 455.5,1288C 456.448,1288.48 457.448,1288.65 458.5,1288.5C 461.651,1290.58 464.651,1292.92 467.5,1295.5C 493.302,1309.38 520.635,1319.21 549.5,1325C 577.799,1327.91 606.132,1328.24 634.5,1326C 671.038,1319.95 706.038,1309.12 739.5,1293.5C 738.398,1292.82 737.398,1292.16 736.5,1291.5C 738.262,1291.36 739.929,1291.69 741.5,1292.5C 743.385,1291.39 745.385,1290.56 747.5,1290C 752.916,1286.63 758.583,1283.63 764.5,1281C 765.252,1280.33 765.586,1279.5 765.5,1278.5 Z"/></g>
<g><path style="opacity:1" fill="#fae37e" d="M 416.5,1283.5 C 430.974,1299.26 447.308,1312.93 465.5,1324.5C 520.748,1357.23 580.081,1367.07 643.5,1354C 653.724,1351.02 664.057,1348.35 674.5,1346C 681.422,1342.91 688.589,1340.41 696,1338.5C 729.6,1323.79 761.434,1306.12 791.5,1285.5C 793.144,1285.81 794.144,1286.81 794.5,1288.5C 794.489,1290.02 793.823,1291.18 792.5,1292C 746.539,1325.22 695.873,1348.22 640.5,1361C 603.707,1366.25 567.041,1365.58 530.5,1359C 484.631,1346.65 445.464,1323.15 413,1288.5C 412.517,1287.55 412.351,1286.55 412.5,1285.5C 412.5,1285.17 412.5,1284.83 412.5,1284.5C 413.708,1283.77 415.041,1283.43 416.5,1283.5 Z"/></g>
<g><path style="opacity:1" fill="#9e956b" d="M 412.5,1284.5 C 412.5,1284.83 412.5,1285.17 412.5,1285.5C 408.193,1286.33 403.86,1286.99 399.5,1287.5C 399.611,1286.88 399.944,1286.38 400.5,1286C 404.491,1285.36 408.491,1284.86 412.5,1284.5 Z"/></g>
<g><path style="opacity:1" fill="#fbeda7" d="M 412.5,1285.5 C 412.351,1286.55 412.517,1287.55 413,1288.5C 445.464,1323.15 484.631,1346.65 530.5,1359C 567.041,1365.58 603.707,1366.25 640.5,1361C 695.873,1348.22 746.539,1325.22 792.5,1292C 793.823,1291.18 794.489,1290.02 794.5,1288.5C 803.059,1290.21 811.392,1292.54 819.5,1295.5C 820.209,1296.4 821.209,1296.74 822.5,1296.5C 815.671,1312.14 809.505,1328.14 804,1344.5C 803.333,1345.17 802.667,1345.83 802,1346.5C 800.746,1352.81 798.746,1358.81 796,1364.5C 793.734,1372.78 791.9,1381.11 790.5,1389.5C 789.883,1389.61 789.383,1389.94 789,1390.5C 788.281,1394.15 787.781,1397.81 787.5,1401.5C 786.148,1412.18 786.315,1422.85 788,1433.5C 799,1461.67 819.167,1479.34 848.5,1486.5C 848.62,1487.59 849.287,1488.25 850.5,1488.5C 854.13,1489.43 857.797,1490.09 861.5,1490.5C 883.542,1493.13 905.542,1492.8 927.5,1489.5C 932.609,1489.04 937.609,1488.04 942.5,1486.5C 942.376,1485.89 942.043,1485.56 941.5,1485.5C 939.662,1483.15 938.162,1480.48 937,1477.5C 935.981,1473.09 934.814,1468.76 933.5,1464.5C 933.473,1458.95 932.806,1453.62 931.5,1448.5C 930.512,1443.36 930.179,1438.03 930.5,1432.5C 939.734,1434.47 949.068,1435.81 958.5,1436.5C 958.918,1437.22 959.584,1437.72 960.5,1438C 984.316,1439.69 1007.98,1439.85 1031.5,1438.5C 1032.05,1426.25 1033.05,1413.92 1034.5,1401.5C 1066.07,1423.57 1093.9,1449.57 1118,1479.5C 1128.22,1493.58 1137.22,1508.58 1145,1524.5C 1146.95,1531.01 1149.28,1537.34 1152,1543.5C 1153.85,1551.97 1155.68,1560.3 1157.5,1568.5C 1157.5,1569.5 1157.5,1570.5 1157.5,1571.5C 782.833,1571.5 408.167,1571.5 33.5,1571.5C 36.0749,1551.45 41.2415,1532.12 49,1513.5C 52.2472,1506.67 55.7472,1500 59.5,1493.5C 71.5864,1499.07 83.5864,1504.9 95.5,1511C 106.751,1516.25 118.418,1520.42 130.5,1523.5C 132.033,1525.25 134.033,1526.25 136.5,1526.5C 149.666,1531.08 163,1535.08 176.5,1538.5C 178.515,1539.92 180.848,1540.59 183.5,1540.5C 183.833,1540.5 184.167,1540.5 184.5,1540.5C 186.599,1541.61 188.933,1542.28 191.5,1542.5C 190.695,1536.34 189.695,1530.34 188.5,1524.5C 185.858,1510.03 184.025,1495.37 183,1480.5C 188.614,1487.24 194.781,1493.4 201.5,1499C 232.261,1521.42 266.594,1534.92 304.5,1539.5C 316.91,1542.26 329.243,1541.92 341.5,1538.5C 361.113,1535.03 376.446,1525.03 387.5,1508.5C 389.243,1507.36 390.243,1505.69 390.5,1503.5C 389.769,1500.35 389.103,1497.18 388.5,1494C 388.316,1492.62 387.649,1491.79 386.5,1491.5C 381.114,1465.15 375.447,1438.82 369.5,1412.5C 369.037,1409.67 368.371,1407 367.5,1404.5C 359.409,1369.68 351.409,1334.68 343.5,1299.5C 350.503,1298.06 357.503,1296.72 364.5,1295.5C 367.272,1295.24 369.605,1294.24 371.5,1292.5C 380.799,1290.65 390.133,1288.98 399.5,1287.5C 403.86,1286.99 408.193,1286.33 412.5,1285.5 Z"/></g>
<g><path style="opacity:1" fill="#867e5b" d="M 371.5,1292.5 C 369.605,1294.24 367.272,1295.24 364.5,1295.5C 366.282,1293.64 368.615,1292.64 371.5,1292.5 Z"/></g>
<g><path style="opacity:1" fill="#92865d" d="M 790.5,1389.5 C 790.23,1393.82 789.23,1397.82 787.5,1401.5C 787.781,1397.81 788.281,1394.15 789,1390.5C 789.383,1389.94 789.883,1389.61 790.5,1389.5 Z"/></g>
<g><path style="opacity:1" fill="#827551" d="M 1034.5,1401.5 C 1033.05,1413.92 1032.05,1426.25 1031.5,1438.5C 1031.5,1432.5 1031.5,1426.5 1031.5,1420.5C 1031.33,1416.15 1031.5,1411.82 1032,1407.5C 1032.04,1405.03 1032.87,1403.03 1034.5,1401.5 Z"/></g>
<g><path style="opacity:1" fill="#8b7f58" d="M 367.5,1404.5 C 368.371,1407 369.037,1409.67 369.5,1412.5C 367.631,1410.36 366.964,1407.7 367.5,1404.5 Z"/></g>
<g><path style="opacity:1" fill="#6b5f41" d="M 1031.5,1420.5 C 1031.5,1426.5 1031.5,1432.5 1031.5,1438.5C 1007.98,1439.85 984.316,1439.69 960.5,1438C 959.584,1437.72 958.918,1437.22 958.5,1436.5C 982.468,1438.65 1006.47,1438.98 1030.5,1437.5C 1030.18,1431.64 1030.51,1425.98 1031.5,1420.5 Z"/></g>
<g><path style="opacity:1" fill="#786b4a" d="M 931.5,1448.5 C 932.806,1453.62 933.473,1458.95 933.5,1464.5C 932.778,1464.08 932.278,1463.42 932,1462.5C 931.501,1457.85 931.334,1453.18 931.5,1448.5 Z"/></g>
<g><path style="opacity:1" fill="#b4a876" d="M 941.5,1485.5 C 942.043,1485.56 942.376,1485.89 942.5,1486.5C 937.609,1488.04 932.609,1489.04 927.5,1489.5C 932.037,1487.74 936.704,1486.41 941.5,1485.5 Z"/></g>
<g><path style="opacity:1" fill="#9d9165" d="M 848.5,1486.5 C 853.234,1487.28 857.567,1488.62 861.5,1490.5C 857.797,1490.09 854.13,1489.43 850.5,1488.5C 849.287,1488.25 848.62,1487.59 848.5,1486.5 Z"/></g>
<g><path style="opacity:1" fill="#a99c6d" d="M 386.5,1491.5 C 387.649,1491.79 388.316,1492.62 388.5,1494C 389.103,1497.18 389.769,1500.35 390.5,1503.5C 390.243,1505.69 389.243,1507.36 387.5,1508.5C 388.744,1502.77 388.41,1497.1 386.5,1491.5 Z"/></g>
<g><path style="opacity:1" fill="#887c56" d="M 130.5,1523.5 C 132.967,1523.75 134.967,1524.75 136.5,1526.5C 134.033,1526.25 132.033,1525.25 130.5,1523.5 Z"/></g>
<g><path style="opacity:1" fill="#8a7e57" d="M 176.5,1538.5 C 179.152,1538.41 181.485,1539.08 183.5,1540.5C 180.848,1540.59 178.515,1539.92 176.5,1538.5 Z"/></g>
<g><path style="opacity:1" fill="#6d6143" d="M 341.5,1538.5 C 329.243,1541.92 316.91,1542.26 304.5,1539.5C 316.856,1539.7 329.189,1539.37 341.5,1538.5 Z"/></g>
<g><path style="opacity:1" fill="#736747" d="M 188.5,1524.5 C 189.695,1530.34 190.695,1536.34 191.5,1542.5C 188.933,1542.28 186.599,1541.61 184.5,1540.5C 186.167,1540.5 187.833,1540.5 189.5,1540.5C 188.902,1535.19 188.569,1529.85 188.5,1524.5 Z"/></g>
</svg>
