<svg xmlns="http://www.w3.org/2000/svg" width="671" height="749" fill="none"><path stroke="#654F4D" stroke-width="1.141" d="M108.699 30.364H32.777v76.047H108.7V30.364Z"/><path stroke="#654F4D" stroke-width="1.141" d="M184.328 30.365h-75.922v76.046h75.922V30.365Z"/><path stroke="#654F4D" stroke-width="1.141" d="M108.699 106.323H32.777v76.047H108.7v-76.047Z"/><path stroke="#654F4D" stroke-width="1.141" d="M184.328 106.323h-75.922v76.047h75.922v-76.047Z"/><path stroke="#654F4D" stroke-width="1.141" d="M108.699 182.045H32.777v76.047H108.7v-76.047Z"/><path stroke="#654F4D" stroke-width="1.141" d="M184.328 182.045h-75.922v76.047h75.922v-76.047Z"/><path stroke="#654F4D" stroke-width="1.141" d="M108.699 257.999H32.777v76.046H108.7v-76.046Z"/><path stroke="#654F4D" stroke-width="1.141" d="M184.328 257.999h-75.922v76.046h75.922v-76.046Z"/><path stroke="#654F4D" stroke-width="1.141" d="M638.936 334.019H32.782v75.812h606.154v-75.812ZM260.245 30.365h-75.922v76.046h75.922V30.365Z"/><path stroke="#654F4D" stroke-width="1.141" d="M335.873 30.365h-75.922v76.046h75.922V30.365Z"/><path stroke="#654F4D" stroke-width="1.141" d="M260.245 106.323h-75.922v76.047h75.922v-76.047Z"/><path stroke="#654F4D" stroke-width="1.141" d="M335.873 106.323h-75.922v76.047h75.922v-76.047Z"/><path stroke="#654F4D" stroke-width="1.141" d="M260.245 182.045h-75.922v76.047h75.922v-76.047Z"/><path stroke="#654F4D" stroke-width="1.141" d="M335.873 182.045h-75.922v76.047h75.922v-76.047Z"/><path stroke="#654F4D" stroke-width="1.141" d="M260.245 257.999h-75.922v76.046h75.922v-76.046Z"/><path stroke="#654F4D" stroke-width="1.141" d="M335.873 257.999h-75.922v76.046h75.922v-76.046ZM411.753 30.365h-75.922v76.046h75.922V30.365Z"/><path stroke="#654F4D" stroke-width="1.141" d="M487.381 30.365h-75.922v76.046h75.922V30.365Z"/><path stroke="#654F4D" stroke-width="1.141" d="M411.753 106.323h-75.922v76.047h75.922v-76.047Z"/><path stroke="#654F4D" stroke-width="1.141" d="M487.381 106.323h-75.922v76.047h75.922v-76.047Z"/><path stroke="#654F4D" stroke-width="1.141" d="M411.753 182.045h-75.922v76.047h75.922v-76.047Z"/><path stroke="#654F4D" stroke-width="1.141" d="M487.381 182.045h-75.922v76.047h75.922v-76.047Z"/><path stroke="#654F4D" stroke-width="1.141" d="M411.753 257.999h-75.922v76.046h75.922v-76.046Z"/><path stroke="#654F4D" stroke-width="1.141" d="M487.381 257.999h-75.922v76.046h75.922v-76.046ZM563.299 30.365h-75.922v76.046h75.922V30.365Z"/><path stroke="#654F4D" stroke-width="1.141" d="M638.927 30.365h-75.922v76.046h75.922V30.365Z"/><path stroke="#654F4D" stroke-width="1.141" d="M563.299 106.323h-75.922v76.047h75.922v-76.047Z"/><path stroke="#654F4D" stroke-width="1.141" d="M638.927 106.323h-75.922v76.047h75.922v-76.047Z"/><path stroke="#654F4D" stroke-width="1.141" d="M563.299 182.045h-75.922v76.047h75.922v-76.047Z"/><path stroke="#654F4D" stroke-width="1.141" d="M638.927 182.045h-75.922v76.047h75.922v-76.047Z"/><path stroke="#654F4D" stroke-width="1.141" d="M563.299 257.999h-75.922v76.046h75.922v-76.046Z"/><path stroke="#654F4D" stroke-width="1.141" d="M638.927 257.999h-75.922v76.046h75.922v-76.046ZM108.699 410.141H32.777v76.047H108.7v-76.047Z"/><path stroke="#654F4D" stroke-width="1.141" d="M184.328 410.141h-75.922v76.047h75.922v-76.047Z"/><path stroke="#654F4D" stroke-width="1.141" d="M108.699 486.093H32.777v76.047H108.7v-76.047Z"/><path stroke="#654F4D" stroke-width="1.141" d="M184.328 486.093h-75.922v76.047h75.922v-76.047Z"/><path stroke="#654F4D" stroke-width="1.141" d="M108.699 561.813H32.777v76.047H108.7v-76.047Z"/><path stroke="#654F4D" stroke-width="1.141" d="M184.328 561.813h-75.922v76.047h75.922v-76.047Z"/><path stroke="#654F4D" stroke-width="1.141" d="M108.699 637.771H32.777v76.047H108.7v-76.047Z"/><path stroke="#654F4D" stroke-width="1.141" d="M184.328 637.771h-75.922v76.047h75.922v-76.047ZM260.245 410.141h-75.922v76.047h75.922v-76.047Z"/><path stroke="#654F4D" stroke-width="1.141" d="M335.873 410.141h-75.922v76.047h75.922v-76.047Z"/><path stroke="#654F4D" stroke-width="1.141" d="M260.245 486.093h-75.922v76.047h75.922v-76.047Z"/><path stroke="#654F4D" stroke-width="1.141" d="M335.873 486.093h-75.922v76.047h75.922v-76.047Z"/><path stroke="#654F4D" stroke-width="1.141" d="M260.245 561.813h-75.922v76.047h75.922v-76.047Z"/><path stroke="#654F4D" stroke-width="1.141" d="M335.873 561.813h-75.922v76.047h75.922v-76.047Z"/><path stroke="#654F4D" stroke-width="1.141" d="M260.245 637.771h-75.922v76.047h75.922v-76.047Z"/><path stroke="#654F4D" stroke-width="1.141" d="M335.873 637.771h-75.922v76.047h75.922v-76.047ZM411.753 410.141h-75.922v76.047h75.922v-76.047Z"/><path stroke="#654F4D" stroke-width="1.141" d="M487.381 410.141h-75.922v76.047h75.922v-76.047Z"/><path stroke="#654F4D" stroke-width="1.141" d="M411.753 486.093h-75.922v76.047h75.922v-76.047Z"/><path stroke="#654F4D" stroke-width="1.141" d="M487.381 486.093h-75.922v76.047h75.922v-76.047Z"/><path stroke="#654F4D" stroke-width="1.141" d="M411.753 561.813h-75.922v76.047h75.922v-76.047Z"/><path stroke="#654F4D" stroke-width="1.141" d="M487.381 561.813h-75.922v76.047h75.922v-76.047Z"/><path stroke="#654F4D" stroke-width="1.141" d="M411.753 637.771h-75.922v76.047h75.922v-76.047Z"/><path stroke="#654F4D" stroke-width="1.141" d="M487.381 637.771h-75.922v76.047h75.922v-76.047ZM563.299 410.141h-75.922v76.047h75.922v-76.047Z"/><path stroke="#654F4D" stroke-width="1.141" d="M638.927 410.141h-75.922v76.047h75.922v-76.047Z"/><path stroke="#654F4D" stroke-width="1.141" d="M563.299 486.093h-75.922v76.047h75.922v-76.047Z"/><path stroke="#654F4D" stroke-width="1.141" d="M638.927 486.093h-75.922v76.047h75.922v-76.047Z"/><path stroke="#654F4D" stroke-width="1.141" d="M563.299 561.813h-75.922v76.047h75.922v-76.047Z"/><path stroke="#654F4D" stroke-width="1.141" d="M638.927 561.813h-75.922v76.047h75.922v-76.047Z"/><path stroke="#654F4D" stroke-width="1.141" d="M563.299 637.771h-75.922v76.047h75.922v-76.047Z"/><path stroke="#654F4D" stroke-width="1.141" d="M638.927 637.771h-75.922v76.047h75.922v-76.047ZM260.655 30.86 411.36 181.815M260.655 562.814l150.326 150.574M411.74 30.476 260.655 181.43M411.74 562.049 260.655 713.384"/><g filter="url(#a)"><circle cx="487" cy="716" r="32" fill="#AB281A"/></g><path fill="#fff" fill-opacity=".8" d="M478.63 709.563h5.497v-2.62h-5.497v-8.01h-2.691v8.01h-6.227v2.62h5.881c-1.345 5.164-4.074 10.966-6.726 14.072.461.674 1.191 1.759 1.499 2.545 2.075-2.545 4.074-6.699 5.573-11.003v17.89h2.691v-17.03c1.461 1.834 3.19 4.192 3.921 5.427l1.768-2.283c-.807-1.01-4.344-4.977-5.689-6.325v-3.293Zm9.917 18.451v-6.475h11.647v6.475h-11.647Zm11.647-24.253v6.251h-11.647v-6.251h11.647Zm-11.647 8.796h11.647v6.437h-11.647v-6.437Zm-2.729-11.415v31.7h2.729v-2.245h11.647v2.133H503v-31.588h-17.182Z"/><g filter="url(#b)"><circle cx="184" cy="716" r="32" fill="#AB281A"/></g><path fill="#fff" fill-opacity=".8" d="M175.63 709.563h5.497v-2.62h-5.497v-8.01h-2.691v8.01h-6.227v2.62h5.881c-1.345 5.164-4.074 10.966-6.726 14.072.461.674 1.191 1.759 1.499 2.545 2.075-2.545 4.074-6.699 5.573-11.003v17.89h2.691v-17.03c1.461 1.834 3.19 4.192 3.921 5.427l1.768-2.283c-.807-1.01-4.344-4.977-5.689-6.325v-3.293Zm9.917 18.451v-6.475h11.647v6.475h-11.647Zm11.647-24.253v6.251h-11.647v-6.251h11.647Zm-11.647 8.796h11.647v6.437h-11.647v-6.437Zm-2.729-11.415v31.7h2.729v-2.245h11.647v2.133H200v-31.588h-17.182Z"/><g filter="url(#c)"><circle cx="32" cy="715" r="32" fill="#AB281A"/></g><path fill="#fff" fill-opacity=".8" d="M21.77 696.867c-2.316 6.057-6.054 11.996-10.037 15.822.57.637 1.382 2.191 1.707 2.869a39.08 39.08 0 0 0 4.104-4.902v22.358h2.845v-26.702a58.208 58.208 0 0 0 4.185-8.608l-2.804-.837Zm6.461 17.974h6.867v3.666h-6.867v-3.666Zm0-5.819h6.867v3.587h-6.867v-3.587Zm16.742 3.587H37.82v-3.587h7.152v3.587Zm0 5.898H37.82v-3.666h7.152v3.666Zm5.16 5.659h-12.19v-3.308h9.956v-14.227h-9.956v-3.188H49.36v-2.551H37.943v-4.025h-2.966v4.025h-10.89v2.551h10.89v3.188h-9.509v14.227h9.509v3.308H23.152v2.631h11.825v6.336h2.966v-6.336h12.19v-2.631Z"/><g filter="url(#d)"><circle cx="639" cy="716" r="32" fill="#AB281A"/></g><path fill="#fff" fill-opacity=".8" d="M628.77 697.867c-2.316 6.057-6.054 11.996-10.037 15.822.569.637 1.382 2.191 1.707 2.869a39.072 39.072 0 0 0 4.104-4.902v22.358h2.845v-26.702a58.265 58.265 0 0 0 4.185-8.608l-2.804-.837Zm6.461 17.974h6.867v3.666h-6.867v-3.666Zm0-5.819h6.867v3.587h-6.867v-3.587Zm16.742 3.587h-7.152v-3.587h7.152v3.587Zm0 5.898h-7.152v-3.666h7.152v3.666Zm5.16 5.659h-12.19v-3.308h9.955v-14.227h-9.955v-3.188h11.418v-2.551h-11.418v-4.025h-2.966v4.025h-10.891v2.551h10.891v3.188h-9.509v14.227h9.509v3.308h-11.825v2.631h11.825v6.336h2.966v-6.336h12.19v-2.631Z"/><g filter="url(#e)"><circle cx="411" cy="716" r="32" fill="#AB281A"/></g><path fill="#fff" fill-opacity=".8" d="M402.353 697.867c-2.367 6.041-6.363 11.965-10.553 15.76.582.659 1.474 2.091 1.746 2.788 1.59-1.471 3.104-3.252 4.539-5.189v21.841h2.832v-26.061a61.545 61.545 0 0 0 4.19-8.287l-2.754-.852Zm25.682 14.908v-2.788H416.94V698.37h-2.91v11.617h-11.018v2.788h11.018v15.993h-10.087v2.788h23.433v-2.788H416.94v-15.993h11.095Z"/><g filter="url(#f)"><circle cx="260" cy="716" r="32" fill="#AB281A"/></g><path fill="#fff" fill-opacity=".8" d="M251.353 697.867c-2.367 6.041-6.363 11.965-10.553 15.76.582.659 1.474 2.091 1.746 2.788 1.59-1.471 3.104-3.252 4.539-5.189v21.841h2.832v-26.061a61.545 61.545 0 0 0 4.19-8.287l-2.754-.852Zm25.682 14.908v-2.788H265.94V698.37h-2.91v11.617h-11.018v2.788h11.018v15.993h-10.087v2.788h23.433v-2.788H265.94v-15.993h11.095Z"/><g filter="url(#g)"><circle cx="335" cy="716" r="32" fill="#AB281A"/></g><path fill="#fff" fill-opacity=".8" d="M328.241 719.326v6.608h-6.683v-6.608h6.683Zm-.305-14.257v5.68h-6.378v-5.68h6.378Zm-6.378 8.153h8.898v-10.626h-5.69a78.584 78.584 0 0 0 2.1-5.371l-3.055-.425c-.343 1.662-.992 4.018-1.603 5.796H319v28.322h2.558v-2.511h9.242v-11.553h-9.242v-3.632ZM351 703.794h-7.637v-6.801h-2.673v6.801h-7.332v21.135h2.597V706.46h4.735V732h2.673v-25.54h5.002v15.223c0 .387-.114.541-.534.541-.382 0-1.566 0-2.941-.038.344.695.688 1.816.802 2.473 1.986 0 3.322 0 4.201-.464.916-.386 1.107-1.198 1.107-2.512v-17.889Z"/><g filter="url(#h)"><circle cx="33" cy="486" r="32" fill="#AB281A"/></g><path fill="#fff" fill-opacity=".8" d="M27.044 492.913c-2.405 2.365-7.064 5.332-10.92 7.059.65.526 1.604 1.502 1.986 2.028 3.856-1.84 8.476-4.769 11.607-7.397l-2.673-1.69Zm9.24 1.84c3.703 2.065 8.552 5.182 10.92 7.097l2.214-2.103c-2.52-1.953-7.446-4.882-11.073-6.797l-2.062 1.803Zm-10.92-14.307h12.943v8.712H25.364v-8.712Zm15.768 8.712v-8.712h6.797v-2.628H25.364v-5.295c7.14-.338 15.158-1.089 20.617-2.103l-1.489-2.553c-5.345 1.126-14.47 1.877-21.992 2.253v19.038h-6.567v2.666h34.134v-2.666h-8.935Z"/><g filter="url(#i)"><circle cx="184" cy="486" r="32" fill="#AB281A"/></g><path fill="#fff" fill-opacity=".8" d="M178.044 492.913c-2.406 2.365-7.064 5.332-10.92 7.059.649.526 1.604 1.502 1.986 2.028 3.856-1.84 8.476-4.769 11.606-7.397l-2.672-1.69Zm9.24 1.84c3.703 2.065 8.552 5.182 10.919 7.097l2.215-2.103c-2.52-1.953-7.446-4.882-11.073-6.797l-2.061 1.803Zm-10.92-14.307h12.943v8.712h-12.943v-8.712Zm15.768 8.712v-8.712h6.797v-2.628h-22.565v-5.295c7.14-.338 15.158-1.089 20.617-2.103l-1.489-2.553c-5.345 1.126-14.47 1.877-21.992 2.253v19.038h-6.567v2.666h34.134v-2.666h-8.935Z"/><g filter="url(#j)"><circle cx="336" cy="486" r="32" fill="#AB281A"/></g><path fill="#fff" fill-opacity=".8" d="M330.044 492.913c-2.406 2.365-7.064 5.332-10.92 7.059.649.526 1.604 1.502 1.986 2.028 3.856-1.84 8.476-4.769 11.606-7.397l-2.672-1.69Zm9.24 1.84c3.703 2.065 8.552 5.182 10.919 7.097l2.215-2.103c-2.52-1.953-7.446-4.882-11.073-6.797l-2.061 1.803Zm-10.92-14.307h12.943v8.712h-12.943v-8.712Zm15.768 8.712v-8.712h6.797v-2.628h-22.565v-5.295c7.14-.338 15.158-1.089 20.617-2.103l-1.489-2.553c-5.345 1.126-14.47 1.877-21.992 2.253v19.038h-6.567v2.666h34.134v-2.666h-8.935Z"/><g filter="url(#k)"><circle cx="487" cy="486" r="32" fill="#AB281A"/></g><path fill="#fff" fill-opacity=".8" d="M481.044 492.913c-2.406 2.365-7.064 5.332-10.92 7.059.649.526 1.604 1.502 1.986 2.028 3.856-1.84 8.476-4.769 11.606-7.397l-2.672-1.69Zm9.24 1.84c3.703 2.065 8.552 5.182 10.919 7.097l2.215-2.103c-2.52-1.953-7.446-4.882-11.073-6.797l-2.061 1.803Zm-10.92-14.307h12.943v8.712h-12.943v-8.712Zm15.768 8.712v-8.712h6.797v-2.628h-22.565v-5.295c7.14-.338 15.158-1.089 20.617-2.103l-1.489-2.553c-5.345 1.126-14.47 1.877-21.992 2.253v19.038h-6.567v2.666h34.134v-2.666h-8.935Z"/><g filter="url(#l)"><circle cx="639" cy="486" r="32" fill="#AB281A"/></g><path fill="#fff" fill-opacity=".8" d="M633.044 492.913c-2.406 2.365-7.064 5.332-10.92 7.059.649.526 1.604 1.502 1.986 2.028 3.856-1.84 8.476-4.769 11.606-7.397l-2.672-1.69Zm9.24 1.84c3.703 2.065 8.552 5.182 10.919 7.097l2.215-2.103c-2.52-1.953-7.446-4.882-11.073-6.797l-2.061 1.803Zm-10.92-14.307h12.943v8.712h-12.943v-8.712Zm15.768 8.712v-8.712h6.797v-2.628h-22.565v-5.295c7.14-.338 15.158-1.089 20.617-2.103l-1.489-2.553c-5.345 1.126-14.47 1.877-21.992 2.253v19.038h-6.567v2.666h34.134v-2.666h-8.935Z"/><g filter="url(#m)"><circle cx="33" cy="32" r="32" fill="#1F1F1F"/></g><path fill="#fff" fill-opacity=".8" d="M21.982 37.01v-4.082h9.31v4.082h-9.31Zm0-10.463h9.31v4.042h-9.31v-4.042Zm21.874 0v4.042h-9.514v-4.042h9.514Zm0 10.463h-9.514v-4.082h9.514v4.082Zm7.277 5.668H34.342v-3.25h12.522V24.09H34.342v-2.893H49.75V18.5h-15.41v-3.568h-3.049v3.568H16.086v2.695h15.206v2.893H19.095v15.34h12.197v3.25H14.867v2.655h16.425V51.2h3.05v-5.866h16.791v-2.656Z"/><g filter="url(#n)"><circle cx="638" cy="32" r="32" fill="#1F1F1F"/></g><path fill="#fff" fill-opacity=".8" d="M626.982 37.01v-4.082h9.31v4.082h-9.31Zm0-10.463h9.31v4.042h-9.31v-4.042Zm21.874 0v4.042h-9.514v-4.042h9.514Zm0 10.463h-9.514v-4.082h9.514v4.082Zm7.277 5.668h-16.791v-3.25h12.522V24.09h-12.522v-2.893h15.409V18.5h-15.409v-3.568h-3.05v3.568h-15.206v2.695h15.206v2.893h-12.197v15.34h12.197v3.25h-16.425v2.655h16.425V51.2h3.05v-5.866h16.791v-2.656Z"/><g filter="url(#o)"><circle cx="108" cy="33" r="32" fill="#1F1F1F"/></g><path fill="#fff" fill-opacity=".8" d="M92.24 50.766c2.69-2.252 3.915-6.122 4.667-9.794l-2.61-.711c-.594 3.435-1.978 6.91-4.43 9.004l2.373 1.5Zm7.712-9.163c.672 2.528 1.187 5.727 1.226 7.86l2.61-.435c-.079-2.133-.593-5.331-1.305-7.82l-2.53.395Zm6.803-.236c1.028 2.25 2.017 5.252 2.294 7.069l2.452-.711c-.317-1.817-1.345-4.74-2.492-6.872l-2.254.514Zm-8.939-9.242h9.216v3.87h-9.216v-3.87Zm9.216-12.518v3.87h-9.216v-3.87h9.216Zm0 10.11h-9.216v-3.87h9.216v3.87Zm2.887 6.279v-3.87h11.311v-2.41h-11.311v-3.87h11.311v-2.37h-11.311v-3.87h12.656V17H94.969v21.602h26.973c-.435 6.28-.949 8.767-1.661 9.557-.316.316-.712.395-1.424.395-.672 0-2.531 0-4.469-.237.435.75.712 1.935.791 2.685 2.017.158 3.995.158 5.023.08 1.107-.08 1.859-.356 2.531-1.106 1.108-1.225 1.701-4.463 2.215-12.717.079-.395.119-1.263.119-1.263h-15.148Zm8.78 9.201c-.593-1.422-2.057-3.673-3.48-5.292l-2.136.87c1.345 1.658 2.768 3.988 3.362 5.449l2.254-1.027Z"/><g filter="url(#p)"><circle cx="563" cy="33" r="32" fill="#1F1F1F"/></g><path fill="#fff" fill-opacity=".8" d="M547.24 50.766c2.689-2.252 3.915-6.122 4.667-9.794l-2.611-.711c-.593 3.435-1.977 6.91-4.429 9.004l2.373 1.5Zm7.712-9.163c.672 2.528 1.187 5.727 1.226 7.86l2.61-.435c-.079-2.133-.593-5.331-1.305-7.82l-2.531.395Zm6.803-.236c1.028 2.25 2.017 5.252 2.294 7.069l2.452-.711c-.317-1.817-1.345-4.74-2.492-6.872l-2.254.514Zm-8.939-9.242h9.216v3.87h-9.216v-3.87Zm9.216-12.518v3.87h-9.216v-3.87h9.216Zm0 10.11h-9.216v-3.87h9.216v3.87Zm2.887 6.279v-3.87h11.311v-2.41h-11.311v-3.87h11.311v-2.37h-11.311v-3.87h12.656V17h-27.606v21.602h26.973c-.435 6.28-.949 8.767-1.661 9.557-.316.316-.712.395-1.424.395-.672 0-2.531 0-4.469-.237.435.75.712 1.935.791 2.685 2.017.158 3.995.158 5.023.08 1.107-.08 1.859-.356 2.531-1.106 1.108-1.225 1.701-4.463 2.215-12.717.079-.395.119-1.263.119-1.263h-15.148Zm8.78 9.201c-.593-1.422-2.057-3.673-3.48-5.292l-2.136.87c1.345 1.658 2.768 3.988 3.362 5.449l2.254-1.027Z"/><g filter="url(#q)"><circle cx="184" cy="32" r="32" fill="#1F1F1F"/></g><path fill="#fff" fill-opacity=".8" d="M173.707 24.045h8.752v4.164h-8.752v-4.164Zm12.253-5.205c-.647 1.003-1.484 2.12-2.321 2.969h-9.514c1.104-.964 2.207-1.966 3.121-2.969h8.714Zm8.295 9.369h-9.209v-4.164h9.209v4.164Zm.952 2.814c-2.208 1.388-5.708 3.239-8.676 4.473-1.104-1.504-2.626-2.93-4.529-4.241.495-.27.952-.579 1.37-.849h13.661V21.81h-10.084c1.066-1.273 2.169-2.738 2.968-4.087l-1.94-1.272-.457.154h-8.296c.571-.732 1.104-1.388 1.599-2.12l-2.93-.617c-2.055 3.161-5.861 6.94-10.96 9.715.647.386 1.484 1.35 1.903 1.967.761-.463 1.484-.887 2.207-1.388v6.245h8.486c-3.235 1.504-7.535 2.853-11.035 3.547.532.502 1.217 1.388 1.598 1.967 2.892-.733 6.545-2.005 9.627-3.47.799.54 1.56 1.08 2.169 1.696-3.425 2.198-9.247 4.126-13.889 5.05a13.94 13.94 0 0 1 1.636 2.083c4.414-1.041 10.046-3.2 13.775-5.668.495.579.99 1.157 1.37 1.774-3.995 3.2-11.378 6.245-17.39 7.595.533.54 1.256 1.542 1.636 2.198 5.556-1.504 12.443-4.511 16.782-7.865 1.255 2.93.799 5.513-.723 6.554-.8.578-1.675.655-2.702.655-.837 0-2.207 0-3.577-.154.456.732.761 1.812.799 2.622 1.218.038 2.359.077 3.272.077 1.599 0 2.702-.27 3.958-1.157 2.74-1.735 3.311-6.13.913-10.564.609-.27 1.332-.54 2.055-.81 1.598 3.74 4.719 8.405 9.399 10.757.381-.77 1.256-1.889 1.865-2.429-4.453-1.889-7.497-5.898-9.057-9.33 1.941-.848 3.843-1.85 5.518-2.776l-2.321-1.735Z"/><g filter="url(#r)"><circle cx="487" cy="32" r="32" fill="#1F1F1F"/></g><path fill="#fff" fill-opacity=".8" d="M476.707 24.045h8.752v4.164h-8.752v-4.164Zm12.253-5.205c-.647 1.003-1.484 2.12-2.321 2.969h-9.514c1.104-.964 2.207-1.966 3.121-2.969h8.714Zm8.295 9.369h-9.209v-4.164h9.209v4.164Zm.952 2.814c-2.208 1.388-5.708 3.239-8.676 4.473-1.104-1.504-2.626-2.93-4.529-4.241.495-.27.952-.579 1.37-.849h13.661V21.81h-10.084c1.066-1.273 2.169-2.738 2.968-4.087l-1.94-1.272-.457.154h-8.296c.571-.732 1.104-1.388 1.599-2.12l-2.93-.617c-2.055 3.161-5.861 6.94-10.96 9.715.647.386 1.484 1.35 1.903 1.967.761-.463 1.484-.887 2.207-1.388v6.245h8.486c-3.235 1.504-7.535 2.853-11.035 3.547.532.502 1.217 1.388 1.598 1.967 2.892-.733 6.545-2.005 9.627-3.47.799.54 1.56 1.08 2.169 1.696-3.425 2.198-9.247 4.126-13.889 5.05a13.94 13.94 0 0 1 1.636 2.083c4.414-1.041 10.046-3.2 13.775-5.668.495.579.99 1.157 1.37 1.774-3.995 3.2-11.378 6.245-17.39 7.595.533.54 1.256 1.542 1.636 2.198 5.556-1.504 12.443-4.511 16.782-7.865 1.255 2.93.799 5.513-.723 6.554-.8.578-1.675.655-2.702.655-.837 0-2.207 0-3.577-.154.456.732.761 1.812.799 2.622 1.218.038 2.359.077 3.272.077 1.599 0 2.702-.27 3.958-1.157 2.74-1.735 3.311-6.13.913-10.564a38.87 38.87 0 0 1 2.055-.81c1.598 3.74 4.719 8.405 9.399 10.757.381-.77 1.256-1.889 1.865-2.429-4.453-1.889-7.497-5.898-9.057-9.33 1.941-.848 3.843-1.85 5.518-2.776l-2.321-1.735Z"/><g filter="url(#s)"><circle cx="260" cy="32" r="32" fill="#1F1F1F"/></g><path fill="#fff" fill-opacity=".8" d="M278.133 28.71v-3.009h-16.666V12.8h-3.178v12.901h-16.422v3.01h16.422v16.28h-14.14V48h31.825v-3.009h-14.507v-16.28h16.666Z"/><g filter="url(#t)"><circle cx="412" cy="32" r="32" fill="#1F1F1F"/></g><path fill="#fff" fill-opacity=".8" d="M430.133 28.71v-3.009h-16.666V12.8h-3.178v12.901h-16.422v3.01h16.422v16.28h-14.14V48h31.825v-3.009h-14.507v-16.28h16.666Z"/><g filter="url(#u)"><circle cx="336" cy="32" r="32" fill="#1F1F1F"/></g><path fill="#fff" fill-opacity=".8" d="M328.326 25.23h-4.775v-9.78h-2.605v12.353h7.38v5.82h-9.037v2.613h2.131v.871c0 3.049-.316 7.959-2.487 11.601.711.238 1.737.91 2.25 1.425 2.407-3.959 2.841-9.541 2.841-12.946v-.95h4.302v13.817h2.723V13.946h-2.723V25.23Zm21.981-5.82c-1.026 1.94-2.447 3.642-4.105 5.147-1.183-1.624-3.157-3.564-5.011-5.108l.039-.04h9.077Zm1.815-2.297-.513.119h-7.972c.868-.831 1.618-1.663 2.25-2.534l-2.842-.831c-2.249 3.207-6.629 6.493-11.286 8.393a39.382 39.382 0 0 1 1.815 1.821 36.42 36.42 0 0 0 5.801-3.286c1.894 1.584 3.868 3.643 4.973 5.306-3.473 2.652-7.735 4.513-11.879 5.463.513.594 1.184 1.545 1.46 2.218 8.288-2.297 16.535-7.206 19.969-15.758l-1.776-.91Zm-11.247 7.523c-3.197.396-6.117.792-8.366.99l.513 2.217c2.407-.357 5.13-.713 8.011-1.148l-.158-2.06Zm-5.643 14.372c1.973 1.98 4.143 4.672 5.051 6.493l2.407-1.505c-.986-1.781-3.196-4.473-5.209-6.334l-2.249 1.346Zm19.968-4.91h-5.091v-5.582h-2.802v5.582H332.39v2.614h14.917v9.422c0 .555-.197.713-.828.713-.592.04-2.723.08-5.091 0 .434.832.829 1.98.947 2.811 3.118 0 5.051-.04 6.235-.514 1.184-.476 1.539-1.307 1.539-2.97v-9.462h5.091v-2.614Z"/><g filter="url(#v)"><circle cx="109" cy="182" r="32" fill="#1F1F1F"/></g><path fill="#fff" fill-opacity=".8" d="M103.384 191.557h-5.276v-11.42h5.276v11.42Zm3.986-22.997v-2.66H92.715v2.66h4.729c-.977 6.766-2.619 13.141-5.51 17.287.547.626 1.484 1.956 1.797 2.542a28.274 28.274 0 0 0 1.876-3.246v12.281h2.501V194.1h7.816v-16.505h-7.582c.782-2.855 1.368-5.906 1.837-9.035h7.191Zm10.396 10.091v5.984h-5.706v-5.984h5.706Zm-2.892 17.834c-2.345 0-2.814-.352-2.814-1.994v-7.314h8.324v-11.029h-10.395c.781-1.252 1.445-2.621 2.071-4.068h12.037c-.235 11.108-.508 15.019-1.173 15.879-.234.469-.547.587-1.094.548-.625 0-1.954 0-3.478-.157.43.704.664 1.799.703 2.582 1.602.078 3.127.078 4.025-.04 1.017-.117 1.642-.391 2.267-1.251.977-1.33 1.212-5.71 1.446-18.891.039-.391.039-1.33.039-1.33h-13.717c.547-1.564 1.055-3.207 1.446-4.888l-2.892-.665c-1.172 5.123-3.205 10.09-6.018 13.219.625.587 1.719 1.721 2.071 2.308a23.711 23.711 0 0 0 1.602-2.151v17.248c0 3.676 1.251 4.576 5.393 4.576h8.52c3.673 0 4.572-1.447 4.963-6.493-.782-.195-1.876-.626-2.54-1.056-.235 4.107-.586 4.967-2.58 4.967h-8.206Z"/><g filter="url(#w)"><circle cx="563" cy="182" r="32" fill="#1F1F1F"/></g><path fill="#fff" fill-opacity=".8" d="M557.384 191.557h-5.276v-11.42h5.276v11.42Zm3.986-22.997v-2.66h-14.655v2.66h4.729c-.977 6.766-2.619 13.141-5.511 17.287.547.626 1.485 1.956 1.798 2.542a28.303 28.303 0 0 0 1.876-3.246v12.281h2.501V194.1h7.816v-16.505h-7.581c.781-2.855 1.367-5.906 1.836-9.035h7.191Zm10.396 10.091v5.984h-5.706v-5.984h5.706Zm-2.892 17.834c-2.345 0-2.814-.352-2.814-1.994v-7.314h8.324v-11.029h-10.395c.781-1.252 1.445-2.621 2.071-4.068h12.037c-.235 11.108-.508 15.019-1.173 15.879-.234.469-.547.587-1.094.548-.625 0-1.954 0-3.478-.157.43.704.664 1.799.703 2.582 1.602.078 3.127.078 4.025-.04 1.017-.117 1.642-.391 2.267-1.251.977-1.33 1.212-5.71 1.446-18.891.039-.391.039-1.33.039-1.33h-13.717c.547-1.564 1.055-3.207 1.446-4.888l-2.892-.665c-1.172 5.123-3.205 10.09-6.018 13.219.625.587 1.719 1.721 2.071 2.308a23.711 23.711 0 0 0 1.602-2.151v17.248c0 3.676 1.251 4.576 5.393 4.576h8.52c3.673 0 4.572-1.447 4.963-6.493-.782-.195-1.876-.626-2.54-1.056-.235 4.107-.586 4.967-2.58 4.967h-8.206Z"/><g filter="url(#x)"><circle cx="639" cy="257" r="32" fill="#1F1F1F"/></g><path fill="#fff" fill-opacity=".8" d="M654.951 244.655h-14.046l.539-.192c-.385-1.228-1.424-3.109-2.309-4.53l-2.733.883c.732 1.152 1.501 2.687 1.925 3.839h-15.316v2.725h31.94v-2.725Zm-17.24 12.13c-1.232-1.19-3.502-2.879-5.426-4.146a38.895 38.895 0 0 0 1.578-3.877l-2.848-.614c-1.501 5.029-4.618 9.136-8.658 11.669.692.461 1.77 1.421 2.27 1.92 2.424-1.766 4.695-4.146 6.465-6.987 1.809 1.305 3.81 2.918 4.849 4.031l1.77-1.996Zm18.356 6.372h-15.778v-2.61h-.346c2.039-1.421 3.925-3.263 5.503-5.413 2.847 1.996 6.08 4.568 7.696 6.257l1.963-1.996c-1.848-1.766-5.388-4.376-8.274-6.334a24.771 24.771 0 0 0 1.886-4.222l-2.81-.576c-1.423 4.53-4.54 8.215-8.389 10.518.578.345 1.578 1.19 2.04 1.766h-2.193v2.61h-15.432v2.764h15.432v9.212h2.924v-9.212h15.778v-2.764Z"/><g filter="url(#y)"><circle cx="487" cy="257" r="32" fill="#1F1F1F"/></g><path fill="#fff" fill-opacity=".8" d="M502.951 244.655h-14.046l.539-.192c-.385-1.228-1.424-3.109-2.309-4.53l-2.733.883c.732 1.152 1.501 2.687 1.925 3.839h-15.316v2.725h31.94v-2.725Zm-17.24 12.13c-1.232-1.19-3.502-2.879-5.426-4.146a38.895 38.895 0 0 0 1.578-3.877l-2.848-.614c-1.501 5.029-4.618 9.136-8.658 11.669.692.461 1.77 1.421 2.27 1.92 2.424-1.766 4.695-4.146 6.465-6.987 1.809 1.305 3.81 2.918 4.849 4.031l1.77-1.996Zm18.356 6.372h-15.778v-2.61h-.346c2.039-1.421 3.925-3.263 5.503-5.413 2.847 1.996 6.08 4.568 7.696 6.257l1.963-1.996c-1.848-1.766-5.388-4.376-8.274-6.334a24.771 24.771 0 0 0 1.886-4.222l-2.81-.576c-1.423 4.53-4.54 8.215-8.389 10.518.578.345 1.578 1.19 2.04 1.766h-2.193v2.61h-15.432v2.764h15.432v9.212h2.924v-9.212h15.778v-2.764Z"/><g filter="url(#z)"><circle cx="336" cy="258" r="32" fill="#1F1F1F"/></g><path fill="#fff" fill-opacity=".8" d="M351.951 245.655h-14.046l.539-.192c-.385-1.228-1.424-3.109-2.309-4.53l-2.733.883c.732 1.152 1.501 2.687 1.925 3.839h-15.316v2.725h31.94v-2.725Zm-17.24 12.13c-1.232-1.19-3.502-2.879-5.426-4.146a38.895 38.895 0 0 0 1.578-3.877l-2.848-.614c-1.501 5.029-4.618 9.136-8.658 11.669.692.461 1.77 1.421 2.27 1.92 2.424-1.766 4.695-4.146 6.465-6.987 1.809 1.305 3.81 2.918 4.849 4.031l1.77-1.996Zm18.356 6.372h-15.778v-2.61h-.346c2.039-1.421 3.925-3.263 5.503-5.413 2.847 1.996 6.08 4.568 7.696 6.257l1.963-1.996c-1.848-1.766-5.388-4.376-8.274-6.334a24.771 24.771 0 0 0 1.886-4.222l-2.81-.576c-1.423 4.53-4.54 8.215-8.389 10.518.578.345 1.578 1.19 2.04 1.766h-2.193v2.61h-15.432v2.764h15.432v9.212h2.924v-9.212h15.778v-2.764Z"/><g filter="url(#A)"><circle cx="184" cy="258" r="32" fill="#1F1F1F"/></g><path fill="#fff" fill-opacity=".8" d="M199.951 245.655h-14.046l.539-.192c-.385-1.228-1.424-3.109-2.309-4.53l-2.733.883c.732 1.152 1.501 2.687 1.925 3.839h-15.316v2.725h31.94v-2.725Zm-17.24 12.13c-1.232-1.19-3.502-2.879-5.426-4.146a38.895 38.895 0 0 0 1.578-3.877l-2.848-.614c-1.501 5.029-4.618 9.136-8.658 11.669.692.461 1.77 1.421 2.27 1.92 2.424-1.766 4.695-4.146 6.465-6.987 1.809 1.305 3.81 2.918 4.849 4.031l1.77-1.996Zm18.356 6.372h-15.778v-2.61h-.346c2.039-1.421 3.925-3.263 5.503-5.413 2.847 1.996 6.08 4.568 7.696 6.257l1.963-1.996c-1.848-1.766-5.388-4.376-8.274-6.334a24.771 24.771 0 0 0 1.886-4.222l-2.81-.576c-1.423 4.53-4.54 8.215-8.389 10.518.578.345 1.578 1.19 2.04 1.766h-2.193v2.61h-15.432v2.764h15.432v9.212h2.924v-9.212h15.778v-2.764Z"/><g filter="url(#B)"><circle cx="33" cy="258" r="32" fill="#1F1F1F"/></g><path fill="#fff" fill-opacity=".8" d="M48.95 245.655H34.906l.539-.192c-.385-1.228-1.424-3.109-2.31-4.53l-2.732.883c.732 1.152 1.501 2.687 1.925 3.839H17.01v2.725h31.94v-2.725Zm-17.24 12.13c-1.23-1.19-3.501-2.879-5.425-4.146a38.775 38.775 0 0 0 1.578-3.877l-2.848-.614c-1.5 5.029-4.618 9.136-8.658 11.669.692.461 1.77 1.421 2.27 1.92 2.424-1.766 4.695-4.146 6.465-6.987 1.809 1.305 3.81 2.918 4.849 4.031l1.77-1.996Zm18.357 6.372H34.289v-2.61h-.346c2.04-1.421 3.925-3.263 5.503-5.413 2.847 1.996 6.08 4.568 7.696 6.257l1.963-1.996c-1.847-1.766-5.388-4.376-8.274-6.334a24.692 24.692 0 0 0 1.886-4.222l-2.81-.576c-1.423 4.53-4.54 8.215-8.388 10.518.577.345 1.577 1.19 2.039 1.766h-2.194v2.61h-15.43v2.764h15.43v9.212h2.925v-9.212h15.778v-2.764Z"/><g filter="url(#C)"><circle cx="109" cy="717" r="32" fill="#AB281A"/></g><path fill="#fff" fill-opacity=".8" d="M99.532 699.933c-1.965 5.633-5.2 11.228-8.665 14.87.462.639 1.27 2.103 1.578 2.779a38.44 38.44 0 0 0 3.544-4.581v21.066h2.772V708.42a57.593 57.593 0 0 0 3.389-7.736l-2.618-.751Zm2.657 32.369c1.887-2.141 2.888-5.67 3.466-8.637l-2.234-.676c-.462 2.854-1.54 6.121-3.273 8.074l2.041 1.239Zm5.507-8.637c.501 2.366.77 5.407.732 7.435l2.234-.375c.038-1.99-.308-5.07-.886-7.435l-2.08.375Zm4.622-.188c1.001 2.066 1.964 4.769 2.233 6.609l2.08-.713c-.347-1.765-1.309-4.469-2.388-6.496l-1.925.6Zm-5.777-8.035h6.816v3.529h-6.816v-3.529Zm6.816-11.491v3.492h-6.816v-3.492h6.816Zm0 9.238h-6.816v-3.53h6.816v3.53Zm2.696 5.782v-3.529h8.088v-2.253h-8.088v-3.53h7.972v-2.216h-7.972v-3.492h9.012v-2.441h-21.259v19.94h19.526c-.385 6.534-.847 9.087-1.502 9.763-.308.338-.655.413-1.232.413-.655 0-2.272-.038-4.044-.188.424.676.693 1.652.732 2.441 1.771.075 3.504.075 4.429 0 1.039-.075 1.733-.3 2.349-1.051 1.001-1.089 1.502-4.206 1.964-12.655.038-.375.038-1.202.038-1.202h-10.013Zm.732 4.093c1.348 1.502 2.811 3.68 3.428 5.107l1.848-.901c-.655-1.464-2.118-3.492-3.543-4.994l-1.733.788Z"/><g filter="url(#D)"><circle cx="563" cy="716" r="32" fill="#AB281A"/></g><path fill="#fff" fill-opacity=".8" d="M553.532 698.933c-1.964 5.633-5.199 11.228-8.666 14.87.463.639 1.271 2.103 1.579 2.779a38.443 38.443 0 0 0 3.544-4.581v21.066h2.772V707.42a57.544 57.544 0 0 0 3.389-7.736l-2.618-.751Zm2.657 32.369c1.887-2.141 2.888-5.67 3.466-8.637l-2.234-.676c-.462 2.854-1.54 6.121-3.273 8.074l2.041 1.239Zm5.507-8.637c.501 2.366.77 5.407.732 7.435l2.234-.375c.038-1.99-.308-5.07-.886-7.435l-2.08.375Zm4.622-.188c1.001 2.066 1.964 4.769 2.233 6.609l2.08-.713c-.347-1.765-1.309-4.469-2.388-6.496l-1.925.6Zm-5.777-8.035h6.816v3.529h-6.816v-3.529Zm6.816-11.491v3.492h-6.816v-3.492h6.816Zm0 9.238h-6.816v-3.53h6.816v3.53Zm2.696 5.782v-3.529h8.088v-2.253h-8.088v-3.53h7.972v-2.216h-7.972v-3.492h9.012v-2.441h-21.259v19.94h19.526c-.385 6.534-.847 9.087-1.502 9.763-.308.338-.655.413-1.232.413-.655 0-2.272-.038-4.044-.188.424.676.693 1.652.732 2.441 1.771.075 3.504.075 4.429 0 1.039-.075 1.733-.3 2.349-1.051 1.001-1.089 1.502-4.206 1.964-12.655.038-.375.038-1.202.038-1.202h-10.013Zm.732 4.093c1.348 1.502 2.811 3.68 3.428 5.107l1.848-.901c-.655-1.464-2.118-3.492-3.543-4.994l-1.733.788Z"/><g filter="url(#E)"><circle cx="108" cy="562" r="32" fill="#AB281A"/></g><path fill="#fff" fill-opacity=".8" d="M102.496 549.466c-.395 2.778-1.342 6.865-2.091 9.325l1.815.873c.829-2.381 1.855-6.151 2.723-9.206l-2.447-.992ZM95.393 560.1c-.356-2.5-1.342-6.983-2.29-10.515l-2.17.516c.908 3.531 1.816 8.095 2.131 10.753l2.329-.754Zm4.064-16.983h-2.683v13.412c0 7.222-.592 14.721-5.683 20.474.671.437 1.579 1.389 2.052 2.064 2.763-3.175 4.38-6.746 5.21-10.515 1.578 1.984 3.472 4.642 4.34 6.071l2.052-2.183c-.828-1.111-4.301-5.475-5.8-7.102.434-2.897.512-5.833.512-8.809v-13.412Zm16.812 14.007v6.865h-5.999v-6.865h5.999Zm-3.078 18.887c-2.447 0-2.921-.396-2.921-2.063v-7.46h8.603v-11.824h-9.708a30.027 30.027 0 0 0 1.895-3.928h12.154c-.276 11.626-.592 15.713-1.263 16.586-.315.476-.592.595-1.183.555-.592 0-1.974 0-3.473-.119.394.754.631 1.865.71 2.659 1.618.119 3.157.119 4.104 0 .987-.159 1.658-.437 2.289-1.31.987-1.389 1.263-5.991 1.539-19.72.04-.357.04-1.349.04-1.349h-13.812a72.646 72.646 0 0 0 1.42-4.682l-2.802-.556c-1.381 5.634-3.828 11.031-6.985 14.483.671.436 1.776 1.389 2.289 1.905.474-.596.987-1.231 1.46-1.905v16.665c0 3.77 1.303 4.682 5.486 4.682h9.076c3.828 0 4.696-1.547 5.091-6.825-.789-.198-1.894-.595-2.565-1.071-.276 4.365-.632 5.277-2.723 5.277h-8.721Z"/><g filter="url(#F)"><circle cx="563" cy="562" r="32" fill="#AB281A"/></g><path fill="#fff" fill-opacity=".8" d="M557.496 549.466c-.395 2.778-1.342 6.865-2.091 9.325l1.815.873c.829-2.381 1.855-6.151 2.723-9.206l-2.447-.992Zm-7.103 10.634c-.355-2.5-1.342-6.983-2.289-10.515l-2.171.516c.908 3.531 1.816 8.095 2.131 10.753l2.329-.754Zm4.064-16.983h-2.683v13.412c0 7.222-.592 14.721-5.683 20.474.671.437 1.579 1.389 2.052 2.064 2.763-3.175 4.381-6.746 5.209-10.515 1.579 1.984 3.473 4.642 4.341 6.071l2.052-2.183c-.828-1.111-4.301-5.475-5.801-7.102.434-2.897.513-5.833.513-8.809v-13.412Zm16.812 14.007v6.865h-5.999v-6.865h5.999Zm-3.078 18.887c-2.447 0-2.921-.396-2.921-2.063v-7.46h8.603v-11.824h-9.708a30.027 30.027 0 0 0 1.895-3.928h12.154c-.276 11.626-.592 15.713-1.263 16.586-.315.476-.592.595-1.183.555-.592 0-1.974 0-3.473-.119.394.754.631 1.865.71 2.659 1.618.119 3.157.119 4.104 0 .987-.159 1.658-.437 2.289-1.31.987-1.389 1.263-5.991 1.539-19.72.04-.357.04-1.349.04-1.349h-13.812a72.646 72.646 0 0 0 1.42-4.682l-2.802-.556c-1.381 5.634-3.828 11.031-6.985 14.483.671.436 1.776 1.389 2.289 1.905.474-.596.987-1.231 1.46-1.905v16.665c0 3.77 1.303 4.682 5.486 4.682h9.076c3.828 0 4.696-1.547 5.091-6.825-.789-.198-1.894-.595-2.565-1.071-.276 4.365-.632 5.277-2.723 5.277h-8.721Z"/><path fill="#BFB3AD" d="M65.297 368.595h5.861v1.07h-5.861v-1.07Zm.015 3.753h5.862v1.07h-5.862v-1.07Zm-.015 3.768h5.877v1.07h-5.877v-1.07Zm-.574-11.227h7.009v13.212h-1.163v-12.095h-4.73v12.142h-1.116v-13.259Zm-6.544 2.419h5.862v1.117h-5.862v-1.117Zm2.528-3.334h1.116v14.251h-1.116v-14.251Zm-.062 4.017.775.263c-.558 2.512-1.752 5.536-2.977 7.102-.124-.325-.419-.791-.62-1.054 1.162-1.396 2.34-4.063 2.822-6.311Zm1.07 1.705c.45.434 2.046 2.295 2.419 2.729l-.73.962c-.433-.76-1.736-2.497-2.279-3.132l.59-.559Zm12.591 3.396h13.94v1.039h-13.94v-1.039Zm3.861-1.923H79.3v1.846c0 1.892-.45 3.938-4.047 5.241a3.576 3.576 0 0 0-.729-.884c3.272-1.147 3.644-2.884 3.644-4.373v-1.83Zm5.257-.015h1.148v7.087h-1.148v-7.087Zm-2.791-7.18h1.163v2.032h-1.163v-2.032Zm-6.125 1.365h13.444v.992H74.508v-.992Zm9.831 2.124.853-.558c1.085.729 2.326 1.799 2.915 2.59l-.915.62c-.542-.775-1.767-1.892-2.853-2.652Zm-5.024-1.705H80.4v1.38c0 1.628-.682 3.489-3.535 4.683-.14-.248-.512-.667-.745-.822 2.668-1.07 3.195-2.574 3.195-3.892v-1.349Zm-2.543 1.178 1.07.341c-.683 1.086-1.846 2.233-2.978 2.915a6.686 6.686 0 0 0-.775-.682c1.07-.62 2.171-1.644 2.683-2.574Zm5.815-1.225h1.1v4.388c0 .543-.108.838-.495 1.008-.388.171-.993.171-1.908.171a4.206 4.206 0 0 0-.372-.977c.667.016 1.256.016 1.442.016.186-.016.233-.062.233-.218v-4.388Zm12.142 6.094.76-.589c3.706 2.109 4.047 5.598 2.45 6.637-.512.326-.915.434-1.551.434-.341 0-.806-.015-1.272-.031-.015-.295-.124-.744-.325-1.054.527.062 1.054.062 1.395.062.372 0 .714-.031 1.008-.248 1.055-.698.713-3.334-2.465-5.211Zm1.597.512.822.434c-1.365 1.101-3.83 2.156-5.753 2.636a5.651 5.651 0 0 0-.652-.822c1.908-.403 4.342-1.302 5.583-2.248Zm1.039 1.411.837.465c-1.66 1.582-4.652 3.04-7.04 3.737a5.98 5.98 0 0 0-.698-.883c2.435-.59 5.381-1.923 6.9-3.319Zm-2.993-8.715h4.575v.931h-4.575v-.931Zm2.853 4.978.9.434c-1.706 1.21-4.528 2.187-6.839 2.76-.124-.201-.434-.651-.62-.853 2.31-.465 5.024-1.318 6.56-2.341Zm1.334.201c.915 3.164 2.9 5.629 5.939 6.622a3.798 3.798 0 0 0-.744.961c-3.164-1.194-5.149-3.799-6.157-7.35l.962-.233Zm4.497.667.946.698c-1.194.837-2.807 1.814-4.032 2.388l-.729-.605c1.194-.604 2.869-1.674 3.815-2.481Zm-9.847-2.853v1.783h8.482v-1.783h-8.482Zm-1.101-.899h10.715v3.582H92.108v-3.582Zm2.683-3.179 1.21.248a16 16 0 0 1-4.792 4.481 3.572 3.572 0 0 0-.791-.806c2.031-1.117 3.55-2.652 4.373-3.923Zm1.984 3.613h1.148v2.76h-1.148v-2.76Zm1.737-2.528h.248l.186-.046.791.511a10.866 10.866 0 0 1-2 2.466 9.059 9.059 0 0 0-.853-.543c.636-.558 1.318-1.519 1.628-2.155v-.233Zm13.336 1.163h8.653v1.055h-8.653v-1.055Zm2.125 2.45h4.435v.946h-4.435v-.946Zm0 2.373h4.435v.946h-4.435v-.946Zm-2.466 2.388h9.118v1.07h-9.118v-1.07Zm1.892-9.397h1.085v9.862h-1.085v-9.862Zm4.512 0h1.117v9.862h-1.117v-9.862Zm-.93 11.366.884-.573c1.008.821 2.264 2 2.853 2.791l-.93.667c-.574-.791-1.784-2.016-2.807-2.885Zm-10.483-8.373h4.994v1.07h-4.994v-1.07Zm2.094-3.009h1.116v14.251h-1.116v-14.251Zm-.031 3.706.713.249c-.45 2.496-1.442 5.582-2.497 7.164a7.149 7.149 0 0 0-.62-1.132c.993-1.396 1.985-4.094 2.404-6.281Zm1.054.807c.357.465 1.706 2.543 2.001 3.055l-.76.883c-.341-.821-1.411-2.791-1.83-3.458l.589-.48Zm4.668 6.265.977.542c-.791 1.117-2.016 2.218-3.226 2.962a6.019 6.019 0 0 0-.775-.76c1.178-.698 2.357-1.783 3.024-2.744ZM527.497 377h-1.948l-2.415-4.254-2.4 4.254h-1.933l3.429-5.688-3.21-5.407h1.932l2.182 3.973 2.197-3.973h1.932l-3.21 5.407 3.444 5.688Zm3.29 0h-1.683v-11.095h1.683V377Zm11.063 0h-1.792l-.763-2.228h-4.379l-.764 2.228h-1.792l4.067-11.095h1.356L541.85 377Zm-3.023-3.662-1.683-4.924-1.73 4.924h3.413Zm12.95 3.662h-1.543l-3.366-5.143-1.761-2.664V377h-1.683v-11.095h1.543l3.163 4.799 1.964 2.992v-7.791h1.683V377Zm10.529-4.301c0 .727-.078 1.335-.234 1.823-.145.489-.4.925-.763 1.309a3.98 3.98 0 0 1-1.387.966 4.563 4.563 0 0 1-1.668.297c-1.153 0-2.124-.395-2.914-1.185a3.553 3.553 0 0 1-.623-.826 3.572 3.572 0 0 1-.312-.935 8.65 8.65 0 0 1-.124-1.091 60.08 60.08 0 0 1-.016-1.605c0-.696.005-1.231.016-1.605.02-.384.062-.743.124-1.075.073-.343.182-.66.328-.951.145-.29.348-.566.607-.826.79-.789 1.761-1.184 2.914-1.184 1.122 0 2.031.322 2.728.966.706.644 1.142 1.47 1.309 2.478h-1.699c-.145-.613-.421-1.086-.826-1.418-.395-.343-.899-.514-1.512-.514-.322 0-.628.062-.919.187-.28.114-.519.28-.717.498a2.989 2.989 0 0 0-.343.483c-.083.167-.15.374-.202.624a8.69 8.69 0 0 0-.094.919c-.02.364-.031.837-.031 1.418 0 .582.011 1.06.031 1.434.021.364.052.67.094.919.052.25.119.458.202.624.083.166.198.327.343.483.198.208.437.374.717.498.291.115.597.172.919.172.748 0 1.351-.26 1.808-.779.374-.437.561-1.018.561-1.746v-.623h-2.369V371h4.052v1.699Zm10.432 3.865-.935.935-1.107-1.107c-.664.468-1.438.702-2.322.702-1.153 0-2.124-.395-2.914-1.185a3.553 3.553 0 0 1-.623-.826 3.572 3.572 0 0 1-.312-.935 8.84 8.84 0 0 1-.124-1.091 60.08 60.08 0 0 1-.016-1.605c0-.696.005-1.231.016-1.605a8.36 8.36 0 0 1 .124-1.075c.073-.343.182-.66.328-.951.145-.29.348-.566.607-.826.79-.789 1.761-1.184 2.914-1.184 1.164 0 2.141.395 2.93 1.184.249.25.447.515.592.795.146.281.25.592.312.935.073.343.114.712.125 1.107.02.394.031.935.031 1.62 0 1.164-.042 2.021-.125 2.572a3.131 3.131 0 0 1-.592 1.464l1.091 1.076Zm-2.057-5.112c0-.571-.011-1.039-.031-1.402a5.482 5.482 0 0 0-.094-.935 2.207 2.207 0 0 0-.187-.624 2.055 2.055 0 0 0-.343-.483 1.907 1.907 0 0 0-.732-.498 2.304 2.304 0 0 0-.92-.187c-.322 0-.628.062-.919.187-.291.114-.535.28-.732.498-.135.146-.25.307-.343.483a2.207 2.207 0 0 0-.187.624 8.127 8.127 0 0 0-.094.919 27.3 27.3 0 0 0-.031 1.418c0 .572.011 1.044.031 1.418.021.364.052.67.094.92.052.249.114.457.187.623.083.166.197.327.343.483.197.208.441.374.732.499s.597.187.919.187a1.9 1.9 0 0 0 1.138-.359l-1.169-1.168.935-.935 1.076 1.075c.135-.27.223-.603.264-.997.042-.406.063-.987.063-1.746Zm5.867 5.548h-1.683v-11.095h1.683V377Zm4.565 0h-1.901v-1.901h1.901V377Zm10.212-3.319c-.187 1.08-.639 1.922-1.356 2.524-.706.592-1.574.889-2.602.889-1.153 0-2.125-.395-2.914-1.185a3.53 3.53 0 0 1-.624-.826 3.534 3.534 0 0 1-.311-.935 8.646 8.646 0 0 1-.125-1.091c-.01-.384-.016-.919-.016-1.605 0-.696.006-1.231.016-1.605a8.18 8.18 0 0 1 .125-1.075c.072-.343.181-.66.327-.951.145-.29.348-.566.608-.826.789-.789 1.761-1.184 2.914-1.184 1.039 0 1.911.296 2.618.888.706.593 1.153 1.434 1.34 2.525h-1.714c-.135-.582-.395-1.044-.779-1.387-.385-.343-.873-.514-1.465-.514-.322 0-.629.062-.92.187a2.036 2.036 0 0 0-1.059.966 2.532 2.532 0 0 0-.203.639 8.46 8.46 0 0 0-.093.919c-.021.364-.032.837-.032 1.418 0 .582.011 1.06.032 1.434.02.364.051.67.093.919.052.25.119.458.203.624.083.166.197.327.342.483.198.208.437.374.717.498.291.115.598.172.92.172.602 0 1.096-.172 1.48-.514.384-.343.644-.805.779-1.387h1.699Zm9.816-2.229c0 .686-.01 1.226-.031 1.621-.01.395-.052.764-.125 1.106a3.297 3.297 0 0 1-.311.935 3.236 3.236 0 0 1-.592.795c-.79.79-1.767 1.185-2.93 1.185-1.153 0-2.125-.395-2.914-1.185a3.53 3.53 0 0 1-.624-.826 3.534 3.534 0 0 1-.311-.935 8.646 8.646 0 0 1-.125-1.091c-.01-.384-.015-.919-.015-1.605 0-.696.005-1.231.015-1.605a8.18 8.18 0 0 1 .125-1.075 3.98 3.98 0 0 1 .327-.951c.146-.29.348-.566.608-.826.789-.789 1.761-1.184 2.914-1.184 1.163 0 2.14.395 2.93 1.184.249.25.446.515.592.795.145.281.249.592.311.935.073.343.115.712.125 1.107.021.394.031.935.031 1.62Zm-1.683 0c0-.571-.01-1.039-.031-1.402a5.393 5.393 0 0 0-.093-.935 2.24 2.24 0 0 0-.187-.624 2.115 2.115 0 0 0-.343-.483 1.918 1.918 0 0 0-.733-.498 2.303 2.303 0 0 0-.919-.187c-.322 0-.629.062-.92.187-.29.114-.535.28-.732.498a2.312 2.312 0 0 0-.343.483 2.24 2.24 0 0 0-.187.624 8.4 8.4 0 0 0-.093.919c-.021.374-.031.847-.031 1.418 0 .572.01 1.044.031 1.418.021.364.052.67.093.92.052.249.115.457.187.623a2.084 2.084 0 0 0 1.075.982c.291.125.598.187.92.187.322 0 .628-.062.919-.187.291-.125.535-.291.733-.499.135-.156.244-.317.327-.483.093-.166.161-.369.203-.608.052-.249.083-.561.093-.935.021-.374.031-.846.031-1.418Zm13.97 5.548h-1.683v-7.418l-2.555 5.408h-1.247l-2.618-5.408V377h-1.683v-11.095h1.683l3.241 6.903 3.179-6.903h1.683V377Z"/><defs><filter id="q" width="64" height="68.267" x="152" y="-2.133" color-interpolation-filters="sRGB" filterUnits="userSpaceOnUse"><feFlood flood-opacity="0" result="BackgroundImageFix"/><feBlend in="SourceGraphic" in2="BackgroundImageFix" result="shape"/><feColorMatrix in="SourceAlpha" result="hardAlpha" values="0 0 0 0 0 0 0 0 0 0 0 0 0 0 0 0 0 0 127 0"/><feOffset dy="-2.133"/><feGaussianBlur stdDeviation="2.133"/><feComposite in2="hardAlpha" k2="-1" k3="1" operator="arithmetic"/><feColorMatrix values="0 0 0 0 0 0 0 0 0 0 0 0 0 0 0 0 0 0 0.5 0"/><feBlend in2="shape" result="effect1_innerShadow_10926_96"/><feColorMatrix in="SourceAlpha" result="hardAlpha" values="0 0 0 0 0 0 0 0 0 0 0 0 0 0 0 0 0 0 127 0"/><feOffset dy="2.133"/><feGaussianBlur stdDeviation="2.133"/><feComposite in2="hardAlpha" k2="-1" k3="1" operator="arithmetic"/><feColorMatrix values="0 0 0 0 1 0 0 0 0 1 0 0 0 0 1 0 0 0 0.4 0"/><feBlend in2="effect1_innerShadow_10926_96" result="effect2_innerShadow_10926_96"/></filter><filter id="a" width="64" height="68.267" x="455" y="681.867" color-interpolation-filters="sRGB" filterUnits="userSpaceOnUse"><feFlood flood-opacity="0" result="BackgroundImageFix"/><feBlend in="SourceGraphic" in2="BackgroundImageFix" result="shape"/><feColorMatrix in="SourceAlpha" result="hardAlpha" values="0 0 0 0 0 0 0 0 0 0 0 0 0 0 0 0 0 0 127 0"/><feOffset dy="-2.133"/><feGaussianBlur stdDeviation="2.133"/><feComposite in2="hardAlpha" k2="-1" k3="1" operator="arithmetic"/><feColorMatrix values="0 0 0 0 0 0 0 0 0 0 0 0 0 0 0 0 0 0 0.5 0"/><feBlend in2="shape" result="effect1_innerShadow_10926_96"/><feColorMatrix in="SourceAlpha" result="hardAlpha" values="0 0 0 0 0 0 0 0 0 0 0 0 0 0 0 0 0 0 127 0"/><feOffset dy="2.133"/><feGaussianBlur stdDeviation="2.133"/><feComposite in2="hardAlpha" k2="-1" k3="1" operator="arithmetic"/><feColorMatrix values="0 0 0 0 1 0 0 0 0 1 0 0 0 0 1 0 0 0 0.4 0"/><feBlend in2="effect1_innerShadow_10926_96" result="effect2_innerShadow_10926_96"/></filter><filter id="c" width="64" height="68.267" x="0" y="680.867" color-interpolation-filters="sRGB" filterUnits="userSpaceOnUse"><feFlood flood-opacity="0" result="BackgroundImageFix"/><feBlend in="SourceGraphic" in2="BackgroundImageFix" result="shape"/><feColorMatrix in="SourceAlpha" result="hardAlpha" values="0 0 0 0 0 0 0 0 0 0 0 0 0 0 0 0 0 0 127 0"/><feOffset dy="-2.133"/><feGaussianBlur stdDeviation="2.133"/><feComposite in2="hardAlpha" k2="-1" k3="1" operator="arithmetic"/><feColorMatrix values="0 0 0 0 0 0 0 0 0 0 0 0 0 0 0 0 0 0 0.5 0"/><feBlend in2="shape" result="effect1_innerShadow_10926_96"/><feColorMatrix in="SourceAlpha" result="hardAlpha" values="0 0 0 0 0 0 0 0 0 0 0 0 0 0 0 0 0 0 127 0"/><feOffset dy="2.133"/><feGaussianBlur stdDeviation="2.133"/><feComposite in2="hardAlpha" k2="-1" k3="1" operator="arithmetic"/><feColorMatrix values="0 0 0 0 1 0 0 0 0 1 0 0 0 0 1 0 0 0 0.4 0"/><feBlend in2="effect1_innerShadow_10926_96" result="effect2_innerShadow_10926_96"/></filter><filter id="d" width="64" height="68.267" x="607" y="681.867" color-interpolation-filters="sRGB" filterUnits="userSpaceOnUse"><feFlood flood-opacity="0" result="BackgroundImageFix"/><feBlend in="SourceGraphic" in2="BackgroundImageFix" result="shape"/><feColorMatrix in="SourceAlpha" result="hardAlpha" values="0 0 0 0 0 0 0 0 0 0 0 0 0 0 0 0 0 0 127 0"/><feOffset dy="-2.133"/><feGaussianBlur stdDeviation="2.133"/><feComposite in2="hardAlpha" k2="-1" k3="1" operator="arithmetic"/><feColorMatrix values="0 0 0 0 0 0 0 0 0 0 0 0 0 0 0 0 0 0 0.5 0"/><feBlend in2="shape" result="effect1_innerShadow_10926_96"/><feColorMatrix in="SourceAlpha" result="hardAlpha" values="0 0 0 0 0 0 0 0 0 0 0 0 0 0 0 0 0 0 127 0"/><feOffset dy="2.133"/><feGaussianBlur stdDeviation="2.133"/><feComposite in2="hardAlpha" k2="-1" k3="1" operator="arithmetic"/><feColorMatrix values="0 0 0 0 1 0 0 0 0 1 0 0 0 0 1 0 0 0 0.4 0"/><feBlend in2="effect1_innerShadow_10926_96" result="effect2_innerShadow_10926_96"/></filter><filter id="e" width="64" height="68.267" x="379" y="681.867" color-interpolation-filters="sRGB" filterUnits="userSpaceOnUse"><feFlood flood-opacity="0" result="BackgroundImageFix"/><feBlend in="SourceGraphic" in2="BackgroundImageFix" result="shape"/><feColorMatrix in="SourceAlpha" result="hardAlpha" values="0 0 0 0 0 0 0 0 0 0 0 0 0 0 0 0 0 0 127 0"/><feOffset dy="-2.133"/><feGaussianBlur stdDeviation="2.133"/><feComposite in2="hardAlpha" k2="-1" k3="1" operator="arithmetic"/><feColorMatrix values="0 0 0 0 0 0 0 0 0 0 0 0 0 0 0 0 0 0 0.5 0"/><feBlend in2="shape" result="effect1_innerShadow_10926_96"/><feColorMatrix in="SourceAlpha" result="hardAlpha" values="0 0 0 0 0 0 0 0 0 0 0 0 0 0 0 0 0 0 127 0"/><feOffset dy="2.133"/><feGaussianBlur stdDeviation="2.133"/><feComposite in2="hardAlpha" k2="-1" k3="1" operator="arithmetic"/><feColorMatrix values="0 0 0 0 1 0 0 0 0 1 0 0 0 0 1 0 0 0 0.4 0"/><feBlend in2="effect1_innerShadow_10926_96" result="effect2_innerShadow_10926_96"/></filter><filter id="f" width="64" height="68.267" x="228" y="681.867" color-interpolation-filters="sRGB" filterUnits="userSpaceOnUse"><feFlood flood-opacity="0" result="BackgroundImageFix"/><feBlend in="SourceGraphic" in2="BackgroundImageFix" result="shape"/><feColorMatrix in="SourceAlpha" result="hardAlpha" values="0 0 0 0 0 0 0 0 0 0 0 0 0 0 0 0 0 0 127 0"/><feOffset dy="-2.133"/><feGaussianBlur stdDeviation="2.133"/><feComposite in2="hardAlpha" k2="-1" k3="1" operator="arithmetic"/><feColorMatrix values="0 0 0 0 0 0 0 0 0 0 0 0 0 0 0 0 0 0 0.5 0"/><feBlend in2="shape" result="effect1_innerShadow_10926_96"/><feColorMatrix in="SourceAlpha" result="hardAlpha" values="0 0 0 0 0 0 0 0 0 0 0 0 0 0 0 0 0 0 127 0"/><feOffset dy="2.133"/><feGaussianBlur stdDeviation="2.133"/><feComposite in2="hardAlpha" k2="-1" k3="1" operator="arithmetic"/><feColorMatrix values="0 0 0 0 1 0 0 0 0 1 0 0 0 0 1 0 0 0 0.4 0"/><feBlend in2="effect1_innerShadow_10926_96" result="effect2_innerShadow_10926_96"/></filter><filter id="g" width="64" height="68.267" x="303" y="681.867" color-interpolation-filters="sRGB" filterUnits="userSpaceOnUse"><feFlood flood-opacity="0" result="BackgroundImageFix"/><feBlend in="SourceGraphic" in2="BackgroundImageFix" result="shape"/><feColorMatrix in="SourceAlpha" result="hardAlpha" values="0 0 0 0 0 0 0 0 0 0 0 0 0 0 0 0 0 0 127 0"/><feOffset dy="-2.133"/><feGaussianBlur stdDeviation="2.133"/><feComposite in2="hardAlpha" k2="-1" k3="1" operator="arithmetic"/><feColorMatrix values="0 0 0 0 0 0 0 0 0 0 0 0 0 0 0 0 0 0 0.5 0"/><feBlend in2="shape" result="effect1_innerShadow_10926_96"/><feColorMatrix in="SourceAlpha" result="hardAlpha" values="0 0 0 0 0 0 0 0 0 0 0 0 0 0 0 0 0 0 127 0"/><feOffset dy="2.133"/><feGaussianBlur stdDeviation="2.133"/><feComposite in2="hardAlpha" k2="-1" k3="1" operator="arithmetic"/><feColorMatrix values="0 0 0 0 1 0 0 0 0 1 0 0 0 0 1 0 0 0 0.4 0"/><feBlend in2="effect1_innerShadow_10926_96" result="effect2_innerShadow_10926_96"/></filter><filter id="h" width="64" height="68.267" x="1" y="451.867" color-interpolation-filters="sRGB" filterUnits="userSpaceOnUse"><feFlood flood-opacity="0" result="BackgroundImageFix"/><feBlend in="SourceGraphic" in2="BackgroundImageFix" result="shape"/><feColorMatrix in="SourceAlpha" result="hardAlpha" values="0 0 0 0 0 0 0 0 0 0 0 0 0 0 0 0 0 0 127 0"/><feOffset dy="-2.133"/><feGaussianBlur stdDeviation="2.133"/><feComposite in2="hardAlpha" k2="-1" k3="1" operator="arithmetic"/><feColorMatrix values="0 0 0 0 0 0 0 0 0 0 0 0 0 0 0 0 0 0 0.5 0"/><feBlend in2="shape" result="effect1_innerShadow_10926_96"/><feColorMatrix in="SourceAlpha" result="hardAlpha" values="0 0 0 0 0 0 0 0 0 0 0 0 0 0 0 0 0 0 127 0"/><feOffset dy="2.133"/><feGaussianBlur stdDeviation="2.133"/><feComposite in2="hardAlpha" k2="-1" k3="1" operator="arithmetic"/><feColorMatrix values="0 0 0 0 1 0 0 0 0 1 0 0 0 0 1 0 0 0 0.4 0"/><feBlend in2="effect1_innerShadow_10926_96" result="effect2_innerShadow_10926_96"/></filter><filter id="i" width="64" height="68.267" x="152" y="451.867" color-interpolation-filters="sRGB" filterUnits="userSpaceOnUse"><feFlood flood-opacity="0" result="BackgroundImageFix"/><feBlend in="SourceGraphic" in2="BackgroundImageFix" result="shape"/><feColorMatrix in="SourceAlpha" result="hardAlpha" values="0 0 0 0 0 0 0 0 0 0 0 0 0 0 0 0 0 0 127 0"/><feOffset dy="-2.133"/><feGaussianBlur stdDeviation="2.133"/><feComposite in2="hardAlpha" k2="-1" k3="1" operator="arithmetic"/><feColorMatrix values="0 0 0 0 0 0 0 0 0 0 0 0 0 0 0 0 0 0 0.5 0"/><feBlend in2="shape" result="effect1_innerShadow_10926_96"/><feColorMatrix in="SourceAlpha" result="hardAlpha" values="0 0 0 0 0 0 0 0 0 0 0 0 0 0 0 0 0 0 127 0"/><feOffset dy="2.133"/><feGaussianBlur stdDeviation="2.133"/><feComposite in2="hardAlpha" k2="-1" k3="1" operator="arithmetic"/><feColorMatrix values="0 0 0 0 1 0 0 0 0 1 0 0 0 0 1 0 0 0 0.4 0"/><feBlend in2="effect1_innerShadow_10926_96" result="effect2_innerShadow_10926_96"/></filter><filter id="j" width="64" height="68.267" x="304" y="451.867" color-interpolation-filters="sRGB" filterUnits="userSpaceOnUse"><feFlood flood-opacity="0" result="BackgroundImageFix"/><feBlend in="SourceGraphic" in2="BackgroundImageFix" result="shape"/><feColorMatrix in="SourceAlpha" result="hardAlpha" values="0 0 0 0 0 0 0 0 0 0 0 0 0 0 0 0 0 0 127 0"/><feOffset dy="-2.133"/><feGaussianBlur stdDeviation="2.133"/><feComposite in2="hardAlpha" k2="-1" k3="1" operator="arithmetic"/><feColorMatrix values="0 0 0 0 0 0 0 0 0 0 0 0 0 0 0 0 0 0 0.5 0"/><feBlend in2="shape" result="effect1_innerShadow_10926_96"/><feColorMatrix in="SourceAlpha" result="hardAlpha" values="0 0 0 0 0 0 0 0 0 0 0 0 0 0 0 0 0 0 127 0"/><feOffset dy="2.133"/><feGaussianBlur stdDeviation="2.133"/><feComposite in2="hardAlpha" k2="-1" k3="1" operator="arithmetic"/><feColorMatrix values="0 0 0 0 1 0 0 0 0 1 0 0 0 0 1 0 0 0 0.4 0"/><feBlend in2="effect1_innerShadow_10926_96" result="effect2_innerShadow_10926_96"/></filter><filter id="k" width="64" height="68.267" x="455" y="451.867" color-interpolation-filters="sRGB" filterUnits="userSpaceOnUse"><feFlood flood-opacity="0" result="BackgroundImageFix"/><feBlend in="SourceGraphic" in2="BackgroundImageFix" result="shape"/><feColorMatrix in="SourceAlpha" result="hardAlpha" values="0 0 0 0 0 0 0 0 0 0 0 0 0 0 0 0 0 0 127 0"/><feOffset dy="-2.133"/><feGaussianBlur stdDeviation="2.133"/><feComposite in2="hardAlpha" k2="-1" k3="1" operator="arithmetic"/><feColorMatrix values="0 0 0 0 0 0 0 0 0 0 0 0 0 0 0 0 0 0 0.5 0"/><feBlend in2="shape" result="effect1_innerShadow_10926_96"/><feColorMatrix in="SourceAlpha" result="hardAlpha" values="0 0 0 0 0 0 0 0 0 0 0 0 0 0 0 0 0 0 127 0"/><feOffset dy="2.133"/><feGaussianBlur stdDeviation="2.133"/><feComposite in2="hardAlpha" k2="-1" k3="1" operator="arithmetic"/><feColorMatrix values="0 0 0 0 1 0 0 0 0 1 0 0 0 0 1 0 0 0 0.4 0"/><feBlend in2="effect1_innerShadow_10926_96" result="effect2_innerShadow_10926_96"/></filter><filter id="l" width="64" height="68.267" x="607" y="451.867" color-interpolation-filters="sRGB" filterUnits="userSpaceOnUse"><feFlood flood-opacity="0" result="BackgroundImageFix"/><feBlend in="SourceGraphic" in2="BackgroundImageFix" result="shape"/><feColorMatrix in="SourceAlpha" result="hardAlpha" values="0 0 0 0 0 0 0 0 0 0 0 0 0 0 0 0 0 0 127 0"/><feOffset dy="-2.133"/><feGaussianBlur stdDeviation="2.133"/><feComposite in2="hardAlpha" k2="-1" k3="1" operator="arithmetic"/><feColorMatrix values="0 0 0 0 0 0 0 0 0 0 0 0 0 0 0 0 0 0 0.5 0"/><feBlend in2="shape" result="effect1_innerShadow_10926_96"/><feColorMatrix in="SourceAlpha" result="hardAlpha" values="0 0 0 0 0 0 0 0 0 0 0 0 0 0 0 0 0 0 127 0"/><feOffset dy="2.133"/><feGaussianBlur stdDeviation="2.133"/><feComposite in2="hardAlpha" k2="-1" k3="1" operator="arithmetic"/><feColorMatrix values="0 0 0 0 1 0 0 0 0 1 0 0 0 0 1 0 0 0 0.4 0"/><feBlend in2="effect1_innerShadow_10926_96" result="effect2_innerShadow_10926_96"/></filter><filter id="m" width="64" height="68.267" x="1" y="-2.133" color-interpolation-filters="sRGB" filterUnits="userSpaceOnUse"><feFlood flood-opacity="0" result="BackgroundImageFix"/><feBlend in="SourceGraphic" in2="BackgroundImageFix" result="shape"/><feColorMatrix in="SourceAlpha" result="hardAlpha" values="0 0 0 0 0 0 0 0 0 0 0 0 0 0 0 0 0 0 127 0"/><feOffset dy="-2.133"/><feGaussianBlur stdDeviation="2.133"/><feComposite in2="hardAlpha" k2="-1" k3="1" operator="arithmetic"/><feColorMatrix values="0 0 0 0 0 0 0 0 0 0 0 0 0 0 0 0 0 0 0.5 0"/><feBlend in2="shape" result="effect1_innerShadow_10926_96"/><feColorMatrix in="SourceAlpha" result="hardAlpha" values="0 0 0 0 0 0 0 0 0 0 0 0 0 0 0 0 0 0 127 0"/><feOffset dy="2.133"/><feGaussianBlur stdDeviation="2.133"/><feComposite in2="hardAlpha" k2="-1" k3="1" operator="arithmetic"/><feColorMatrix values="0 0 0 0 1 0 0 0 0 1 0 0 0 0 1 0 0 0 0.4 0"/><feBlend in2="effect1_innerShadow_10926_96" result="effect2_innerShadow_10926_96"/></filter><filter id="n" width="64" height="68.267" x="606" y="-2.133" color-interpolation-filters="sRGB" filterUnits="userSpaceOnUse"><feFlood flood-opacity="0" result="BackgroundImageFix"/><feBlend in="SourceGraphic" in2="BackgroundImageFix" result="shape"/><feColorMatrix in="SourceAlpha" result="hardAlpha" values="0 0 0 0 0 0 0 0 0 0 0 0 0 0 0 0 0 0 127 0"/><feOffset dy="-2.133"/><feGaussianBlur stdDeviation="2.133"/><feComposite in2="hardAlpha" k2="-1" k3="1" operator="arithmetic"/><feColorMatrix values="0 0 0 0 0 0 0 0 0 0 0 0 0 0 0 0 0 0 0.5 0"/><feBlend in2="shape" result="effect1_innerShadow_10926_96"/><feColorMatrix in="SourceAlpha" result="hardAlpha" values="0 0 0 0 0 0 0 0 0 0 0 0 0 0 0 0 0 0 127 0"/><feOffset dy="2.133"/><feGaussianBlur stdDeviation="2.133"/><feComposite in2="hardAlpha" k2="-1" k3="1" operator="arithmetic"/><feColorMatrix values="0 0 0 0 1 0 0 0 0 1 0 0 0 0 1 0 0 0 0.4 0"/><feBlend in2="effect1_innerShadow_10926_96" result="effect2_innerShadow_10926_96"/></filter><filter id="o" width="64" height="68.267" x="76" y="-1.133" color-interpolation-filters="sRGB" filterUnits="userSpaceOnUse"><feFlood flood-opacity="0" result="BackgroundImageFix"/><feBlend in="SourceGraphic" in2="BackgroundImageFix" result="shape"/><feColorMatrix in="SourceAlpha" result="hardAlpha" values="0 0 0 0 0 0 0 0 0 0 0 0 0 0 0 0 0 0 127 0"/><feOffset dy="-2.133"/><feGaussianBlur stdDeviation="2.133"/><feComposite in2="hardAlpha" k2="-1" k3="1" operator="arithmetic"/><feColorMatrix values="0 0 0 0 0 0 0 0 0 0 0 0 0 0 0 0 0 0 0.5 0"/><feBlend in2="shape" result="effect1_innerShadow_10926_96"/><feColorMatrix in="SourceAlpha" result="hardAlpha" values="0 0 0 0 0 0 0 0 0 0 0 0 0 0 0 0 0 0 127 0"/><feOffset dy="2.133"/><feGaussianBlur stdDeviation="2.133"/><feComposite in2="hardAlpha" k2="-1" k3="1" operator="arithmetic"/><feColorMatrix values="0 0 0 0 1 0 0 0 0 1 0 0 0 0 1 0 0 0 0.4 0"/><feBlend in2="effect1_innerShadow_10926_96" result="effect2_innerShadow_10926_96"/></filter><filter id="p" width="64" height="68.267" x="531" y="-1.133" color-interpolation-filters="sRGB" filterUnits="userSpaceOnUse"><feFlood flood-opacity="0" result="BackgroundImageFix"/><feBlend in="SourceGraphic" in2="BackgroundImageFix" result="shape"/><feColorMatrix in="SourceAlpha" result="hardAlpha" values="0 0 0 0 0 0 0 0 0 0 0 0 0 0 0 0 0 0 127 0"/><feOffset dy="-2.133"/><feGaussianBlur stdDeviation="2.133"/><feComposite in2="hardAlpha" k2="-1" k3="1" operator="arithmetic"/><feColorMatrix values="0 0 0 0 0 0 0 0 0 0 0 0 0 0 0 0 0 0 0.5 0"/><feBlend in2="shape" result="effect1_innerShadow_10926_96"/><feColorMatrix in="SourceAlpha" result="hardAlpha" values="0 0 0 0 0 0 0 0 0 0 0 0 0 0 0 0 0 0 127 0"/><feOffset dy="2.133"/><feGaussianBlur stdDeviation="2.133"/><feComposite in2="hardAlpha" k2="-1" k3="1" operator="arithmetic"/><feColorMatrix values="0 0 0 0 1 0 0 0 0 1 0 0 0 0 1 0 0 0 0.4 0"/><feBlend in2="effect1_innerShadow_10926_96" result="effect2_innerShadow_10926_96"/></filter><filter id="b" width="64" height="68.267" x="152" y="681.867" color-interpolation-filters="sRGB" filterUnits="userSpaceOnUse"><feFlood flood-opacity="0" result="BackgroundImageFix"/><feBlend in="SourceGraphic" in2="BackgroundImageFix" result="shape"/><feColorMatrix in="SourceAlpha" result="hardAlpha" values="0 0 0 0 0 0 0 0 0 0 0 0 0 0 0 0 0 0 127 0"/><feOffset dy="-2.133"/><feGaussianBlur stdDeviation="2.133"/><feComposite in2="hardAlpha" k2="-1" k3="1" operator="arithmetic"/><feColorMatrix values="0 0 0 0 0 0 0 0 0 0 0 0 0 0 0 0 0 0 0.5 0"/><feBlend in2="shape" result="effect1_innerShadow_10926_96"/><feColorMatrix in="SourceAlpha" result="hardAlpha" values="0 0 0 0 0 0 0 0 0 0 0 0 0 0 0 0 0 0 127 0"/><feOffset dy="2.133"/><feGaussianBlur stdDeviation="2.133"/><feComposite in2="hardAlpha" k2="-1" k3="1" operator="arithmetic"/><feColorMatrix values="0 0 0 0 1 0 0 0 0 1 0 0 0 0 1 0 0 0 0.4 0"/><feBlend in2="effect1_innerShadow_10926_96" result="effect2_innerShadow_10926_96"/></filter><filter id="r" width="64" height="68.267" x="455" y="-2.133" color-interpolation-filters="sRGB" filterUnits="userSpaceOnUse"><feFlood flood-opacity="0" result="BackgroundImageFix"/><feBlend in="SourceGraphic" in2="BackgroundImageFix" result="shape"/><feColorMatrix in="SourceAlpha" result="hardAlpha" values="0 0 0 0 0 0 0 0 0 0 0 0 0 0 0 0 0 0 127 0"/><feOffset dy="-2.133"/><feGaussianBlur stdDeviation="2.133"/><feComposite in2="hardAlpha" k2="-1" k3="1" operator="arithmetic"/><feColorMatrix values="0 0 0 0 0 0 0 0 0 0 0 0 0 0 0 0 0 0 0.5 0"/><feBlend in2="shape" result="effect1_innerShadow_10926_96"/><feColorMatrix in="SourceAlpha" result="hardAlpha" values="0 0 0 0 0 0 0 0 0 0 0 0 0 0 0 0 0 0 127 0"/><feOffset dy="2.133"/><feGaussianBlur stdDeviation="2.133"/><feComposite in2="hardAlpha" k2="-1" k3="1" operator="arithmetic"/><feColorMatrix values="0 0 0 0 1 0 0 0 0 1 0 0 0 0 1 0 0 0 0.4 0"/><feBlend in2="effect1_innerShadow_10926_96" result="effect2_innerShadow_10926_96"/></filter><filter id="s" width="64" height="68.267" x="228" y="-2.133" color-interpolation-filters="sRGB" filterUnits="userSpaceOnUse"><feFlood flood-opacity="0" result="BackgroundImageFix"/><feBlend in="SourceGraphic" in2="BackgroundImageFix" result="shape"/><feColorMatrix in="SourceAlpha" result="hardAlpha" values="0 0 0 0 0 0 0 0 0 0 0 0 0 0 0 0 0 0 127 0"/><feOffset dy="-2.133"/><feGaussianBlur stdDeviation="2.133"/><feComposite in2="hardAlpha" k2="-1" k3="1" operator="arithmetic"/><feColorMatrix values="0 0 0 0 0 0 0 0 0 0 0 0 0 0 0 0 0 0 0.5 0"/><feBlend in2="shape" result="effect1_innerShadow_10926_96"/><feColorMatrix in="SourceAlpha" result="hardAlpha" values="0 0 0 0 0 0 0 0 0 0 0 0 0 0 0 0 0 0 127 0"/><feOffset dy="2.133"/><feGaussianBlur stdDeviation="2.133"/><feComposite in2="hardAlpha" k2="-1" k3="1" operator="arithmetic"/><feColorMatrix values="0 0 0 0 1 0 0 0 0 1 0 0 0 0 1 0 0 0 0.4 0"/><feBlend in2="effect1_innerShadow_10926_96" result="effect2_innerShadow_10926_96"/></filter><filter id="t" width="64" height="68.267" x="380" y="-2.133" color-interpolation-filters="sRGB" filterUnits="userSpaceOnUse"><feFlood flood-opacity="0" result="BackgroundImageFix"/><feBlend in="SourceGraphic" in2="BackgroundImageFix" result="shape"/><feColorMatrix in="SourceAlpha" result="hardAlpha" values="0 0 0 0 0 0 0 0 0 0 0 0 0 0 0 0 0 0 127 0"/><feOffset dy="-2.133"/><feGaussianBlur stdDeviation="2.133"/><feComposite in2="hardAlpha" k2="-1" k3="1" operator="arithmetic"/><feColorMatrix values="0 0 0 0 0 0 0 0 0 0 0 0 0 0 0 0 0 0 0.5 0"/><feBlend in2="shape" result="effect1_innerShadow_10926_96"/><feColorMatrix in="SourceAlpha" result="hardAlpha" values="0 0 0 0 0 0 0 0 0 0 0 0 0 0 0 0 0 0 127 0"/><feOffset dy="2.133"/><feGaussianBlur stdDeviation="2.133"/><feComposite in2="hardAlpha" k2="-1" k3="1" operator="arithmetic"/><feColorMatrix values="0 0 0 0 1 0 0 0 0 1 0 0 0 0 1 0 0 0 0.4 0"/><feBlend in2="effect1_innerShadow_10926_96" result="effect2_innerShadow_10926_96"/></filter><filter id="u" width="64" height="68.267" x="304" y="-2.133" color-interpolation-filters="sRGB" filterUnits="userSpaceOnUse"><feFlood flood-opacity="0" result="BackgroundImageFix"/><feBlend in="SourceGraphic" in2="BackgroundImageFix" result="shape"/><feColorMatrix in="SourceAlpha" result="hardAlpha" values="0 0 0 0 0 0 0 0 0 0 0 0 0 0 0 0 0 0 127 0"/><feOffset dy="-2.133"/><feGaussianBlur stdDeviation="2.133"/><feComposite in2="hardAlpha" k2="-1" k3="1" operator="arithmetic"/><feColorMatrix values="0 0 0 0 0 0 0 0 0 0 0 0 0 0 0 0 0 0 0.5 0"/><feBlend in2="shape" result="effect1_innerShadow_10926_96"/><feColorMatrix in="SourceAlpha" result="hardAlpha" values="0 0 0 0 0 0 0 0 0 0 0 0 0 0 0 0 0 0 127 0"/><feOffset dy="2.133"/><feGaussianBlur stdDeviation="2.133"/><feComposite in2="hardAlpha" k2="-1" k3="1" operator="arithmetic"/><feColorMatrix values="0 0 0 0 1 0 0 0 0 1 0 0 0 0 1 0 0 0 0.4 0"/><feBlend in2="effect1_innerShadow_10926_96" result="effect2_innerShadow_10926_96"/></filter><filter id="v" width="64" height="68.267" x="77" y="147.867" color-interpolation-filters="sRGB" filterUnits="userSpaceOnUse"><feFlood flood-opacity="0" result="BackgroundImageFix"/><feBlend in="SourceGraphic" in2="BackgroundImageFix" result="shape"/><feColorMatrix in="SourceAlpha" result="hardAlpha" values="0 0 0 0 0 0 0 0 0 0 0 0 0 0 0 0 0 0 127 0"/><feOffset dy="-2.133"/><feGaussianBlur stdDeviation="2.133"/><feComposite in2="hardAlpha" k2="-1" k3="1" operator="arithmetic"/><feColorMatrix values="0 0 0 0 0 0 0 0 0 0 0 0 0 0 0 0 0 0 0.5 0"/><feBlend in2="shape" result="effect1_innerShadow_10926_96"/><feColorMatrix in="SourceAlpha" result="hardAlpha" values="0 0 0 0 0 0 0 0 0 0 0 0 0 0 0 0 0 0 127 0"/><feOffset dy="2.133"/><feGaussianBlur stdDeviation="2.133"/><feComposite in2="hardAlpha" k2="-1" k3="1" operator="arithmetic"/><feColorMatrix values="0 0 0 0 1 0 0 0 0 1 0 0 0 0 1 0 0 0 0.4 0"/><feBlend in2="effect1_innerShadow_10926_96" result="effect2_innerShadow_10926_96"/></filter><filter id="w" width="64" height="68.267" x="531" y="147.867" color-interpolation-filters="sRGB" filterUnits="userSpaceOnUse"><feFlood flood-opacity="0" result="BackgroundImageFix"/><feBlend in="SourceGraphic" in2="BackgroundImageFix" result="shape"/><feColorMatrix in="SourceAlpha" result="hardAlpha" values="0 0 0 0 0 0 0 0 0 0 0 0 0 0 0 0 0 0 127 0"/><feOffset dy="-2.133"/><feGaussianBlur stdDeviation="2.133"/><feComposite in2="hardAlpha" k2="-1" k3="1" operator="arithmetic"/><feColorMatrix values="0 0 0 0 0 0 0 0 0 0 0 0 0 0 0 0 0 0 0.5 0"/><feBlend in2="shape" result="effect1_innerShadow_10926_96"/><feColorMatrix in="SourceAlpha" result="hardAlpha" values="0 0 0 0 0 0 0 0 0 0 0 0 0 0 0 0 0 0 127 0"/><feOffset dy="2.133"/><feGaussianBlur stdDeviation="2.133"/><feComposite in2="hardAlpha" k2="-1" k3="1" operator="arithmetic"/><feColorMatrix values="0 0 0 0 1 0 0 0 0 1 0 0 0 0 1 0 0 0 0.4 0"/><feBlend in2="effect1_innerShadow_10926_96" result="effect2_innerShadow_10926_96"/></filter><filter id="x" width="64" height="68.267" x="607" y="222.867" color-interpolation-filters="sRGB" filterUnits="userSpaceOnUse"><feFlood flood-opacity="0" result="BackgroundImageFix"/><feBlend in="SourceGraphic" in2="BackgroundImageFix" result="shape"/><feColorMatrix in="SourceAlpha" result="hardAlpha" values="0 0 0 0 0 0 0 0 0 0 0 0 0 0 0 0 0 0 127 0"/><feOffset dy="-2.133"/><feGaussianBlur stdDeviation="2.133"/><feComposite in2="hardAlpha" k2="-1" k3="1" operator="arithmetic"/><feColorMatrix values="0 0 0 0 0 0 0 0 0 0 0 0 0 0 0 0 0 0 0.5 0"/><feBlend in2="shape" result="effect1_innerShadow_10926_96"/><feColorMatrix in="SourceAlpha" result="hardAlpha" values="0 0 0 0 0 0 0 0 0 0 0 0 0 0 0 0 0 0 127 0"/><feOffset dy="2.133"/><feGaussianBlur stdDeviation="2.133"/><feComposite in2="hardAlpha" k2="-1" k3="1" operator="arithmetic"/><feColorMatrix values="0 0 0 0 1 0 0 0 0 1 0 0 0 0 1 0 0 0 0.4 0"/><feBlend in2="effect1_innerShadow_10926_96" result="effect2_innerShadow_10926_96"/></filter><filter id="y" width="64" height="68.267" x="455" y="222.867" color-interpolation-filters="sRGB" filterUnits="userSpaceOnUse"><feFlood flood-opacity="0" result="BackgroundImageFix"/><feBlend in="SourceGraphic" in2="BackgroundImageFix" result="shape"/><feColorMatrix in="SourceAlpha" result="hardAlpha" values="0 0 0 0 0 0 0 0 0 0 0 0 0 0 0 0 0 0 127 0"/><feOffset dy="-2.133"/><feGaussianBlur stdDeviation="2.133"/><feComposite in2="hardAlpha" k2="-1" k3="1" operator="arithmetic"/><feColorMatrix values="0 0 0 0 0 0 0 0 0 0 0 0 0 0 0 0 0 0 0.5 0"/><feBlend in2="shape" result="effect1_innerShadow_10926_96"/><feColorMatrix in="SourceAlpha" result="hardAlpha" values="0 0 0 0 0 0 0 0 0 0 0 0 0 0 0 0 0 0 127 0"/><feOffset dy="2.133"/><feGaussianBlur stdDeviation="2.133"/><feComposite in2="hardAlpha" k2="-1" k3="1" operator="arithmetic"/><feColorMatrix values="0 0 0 0 1 0 0 0 0 1 0 0 0 0 1 0 0 0 0.4 0"/><feBlend in2="effect1_innerShadow_10926_96" result="effect2_innerShadow_10926_96"/></filter><filter id="z" width="64" height="68.267" x="304" y="223.867" color-interpolation-filters="sRGB" filterUnits="userSpaceOnUse"><feFlood flood-opacity="0" result="BackgroundImageFix"/><feBlend in="SourceGraphic" in2="BackgroundImageFix" result="shape"/><feColorMatrix in="SourceAlpha" result="hardAlpha" values="0 0 0 0 0 0 0 0 0 0 0 0 0 0 0 0 0 0 127 0"/><feOffset dy="-2.133"/><feGaussianBlur stdDeviation="2.133"/><feComposite in2="hardAlpha" k2="-1" k3="1" operator="arithmetic"/><feColorMatrix values="0 0 0 0 0 0 0 0 0 0 0 0 0 0 0 0 0 0 0.5 0"/><feBlend in2="shape" result="effect1_innerShadow_10926_96"/><feColorMatrix in="SourceAlpha" result="hardAlpha" values="0 0 0 0 0 0 0 0 0 0 0 0 0 0 0 0 0 0 127 0"/><feOffset dy="2.133"/><feGaussianBlur stdDeviation="2.133"/><feComposite in2="hardAlpha" k2="-1" k3="1" operator="arithmetic"/><feColorMatrix values="0 0 0 0 1 0 0 0 0 1 0 0 0 0 1 0 0 0 0.4 0"/><feBlend in2="effect1_innerShadow_10926_96" result="effect2_innerShadow_10926_96"/></filter><filter id="A" width="64" height="68.267" x="152" y="223.867" color-interpolation-filters="sRGB" filterUnits="userSpaceOnUse"><feFlood flood-opacity="0" result="BackgroundImageFix"/><feBlend in="SourceGraphic" in2="BackgroundImageFix" result="shape"/><feColorMatrix in="SourceAlpha" result="hardAlpha" values="0 0 0 0 0 0 0 0 0 0 0 0 0 0 0 0 0 0 127 0"/><feOffset dy="-2.133"/><feGaussianBlur stdDeviation="2.133"/><feComposite in2="hardAlpha" k2="-1" k3="1" operator="arithmetic"/><feColorMatrix values="0 0 0 0 0 0 0 0 0 0 0 0 0 0 0 0 0 0 0.5 0"/><feBlend in2="shape" result="effect1_innerShadow_10926_96"/><feColorMatrix in="SourceAlpha" result="hardAlpha" values="0 0 0 0 0 0 0 0 0 0 0 0 0 0 0 0 0 0 127 0"/><feOffset dy="2.133"/><feGaussianBlur stdDeviation="2.133"/><feComposite in2="hardAlpha" k2="-1" k3="1" operator="arithmetic"/><feColorMatrix values="0 0 0 0 1 0 0 0 0 1 0 0 0 0 1 0 0 0 0.4 0"/><feBlend in2="effect1_innerShadow_10926_96" result="effect2_innerShadow_10926_96"/></filter><filter id="B" width="64" height="68.267" x="1" y="223.867" color-interpolation-filters="sRGB" filterUnits="userSpaceOnUse"><feFlood flood-opacity="0" result="BackgroundImageFix"/><feBlend in="SourceGraphic" in2="BackgroundImageFix" result="shape"/><feColorMatrix in="SourceAlpha" result="hardAlpha" values="0 0 0 0 0 0 0 0 0 0 0 0 0 0 0 0 0 0 127 0"/><feOffset dy="-2.133"/><feGaussianBlur stdDeviation="2.133"/><feComposite in2="hardAlpha" k2="-1" k3="1" operator="arithmetic"/><feColorMatrix values="0 0 0 0 0 0 0 0 0 0 0 0 0 0 0 0 0 0 0.5 0"/><feBlend in2="shape" result="effect1_innerShadow_10926_96"/><feColorMatrix in="SourceAlpha" result="hardAlpha" values="0 0 0 0 0 0 0 0 0 0 0 0 0 0 0 0 0 0 127 0"/><feOffset dy="2.133"/><feGaussianBlur stdDeviation="2.133"/><feComposite in2="hardAlpha" k2="-1" k3="1" operator="arithmetic"/><feColorMatrix values="0 0 0 0 1 0 0 0 0 1 0 0 0 0 1 0 0 0 0.4 0"/><feBlend in2="effect1_innerShadow_10926_96" result="effect2_innerShadow_10926_96"/></filter><filter id="C" width="64" height="68.267" x="77" y="682.867" color-interpolation-filters="sRGB" filterUnits="userSpaceOnUse"><feFlood flood-opacity="0" result="BackgroundImageFix"/><feBlend in="SourceGraphic" in2="BackgroundImageFix" result="shape"/><feColorMatrix in="SourceAlpha" result="hardAlpha" values="0 0 0 0 0 0 0 0 0 0 0 0 0 0 0 0 0 0 127 0"/><feOffset dy="-2.133"/><feGaussianBlur stdDeviation="2.133"/><feComposite in2="hardAlpha" k2="-1" k3="1" operator="arithmetic"/><feColorMatrix values="0 0 0 0 0 0 0 0 0 0 0 0 0 0 0 0 0 0 0.5 0"/><feBlend in2="shape" result="effect1_innerShadow_10926_96"/><feColorMatrix in="SourceAlpha" result="hardAlpha" values="0 0 0 0 0 0 0 0 0 0 0 0 0 0 0 0 0 0 127 0"/><feOffset dy="2.133"/><feGaussianBlur stdDeviation="2.133"/><feComposite in2="hardAlpha" k2="-1" k3="1" operator="arithmetic"/><feColorMatrix values="0 0 0 0 1 0 0 0 0 1 0 0 0 0 1 0 0 0 0.4 0"/><feBlend in2="effect1_innerShadow_10926_96" result="effect2_innerShadow_10926_96"/></filter><filter id="D" width="64" height="68.267" x="531" y="681.867" color-interpolation-filters="sRGB" filterUnits="userSpaceOnUse"><feFlood flood-opacity="0" result="BackgroundImageFix"/><feBlend in="SourceGraphic" in2="BackgroundImageFix" result="shape"/><feColorMatrix in="SourceAlpha" result="hardAlpha" values="0 0 0 0 0 0 0 0 0 0 0 0 0 0 0 0 0 0 127 0"/><feOffset dy="-2.133"/><feGaussianBlur stdDeviation="2.133"/><feComposite in2="hardAlpha" k2="-1" k3="1" operator="arithmetic"/><feColorMatrix values="0 0 0 0 0 0 0 0 0 0 0 0 0 0 0 0 0 0 0.5 0"/><feBlend in2="shape" result="effect1_innerShadow_10926_96"/><feColorMatrix in="SourceAlpha" result="hardAlpha" values="0 0 0 0 0 0 0 0 0 0 0 0 0 0 0 0 0 0 127 0"/><feOffset dy="2.133"/><feGaussianBlur stdDeviation="2.133"/><feComposite in2="hardAlpha" k2="-1" k3="1" operator="arithmetic"/><feColorMatrix values="0 0 0 0 1 0 0 0 0 1 0 0 0 0 1 0 0 0 0.4 0"/><feBlend in2="effect1_innerShadow_10926_96" result="effect2_innerShadow_10926_96"/></filter><filter id="E" width="64" height="68.267" x="76" y="527.867" color-interpolation-filters="sRGB" filterUnits="userSpaceOnUse"><feFlood flood-opacity="0" result="BackgroundImageFix"/><feBlend in="SourceGraphic" in2="BackgroundImageFix" result="shape"/><feColorMatrix in="SourceAlpha" result="hardAlpha" values="0 0 0 0 0 0 0 0 0 0 0 0 0 0 0 0 0 0 127 0"/><feOffset dy="-2.133"/><feGaussianBlur stdDeviation="2.133"/><feComposite in2="hardAlpha" k2="-1" k3="1" operator="arithmetic"/><feColorMatrix values="0 0 0 0 0 0 0 0 0 0 0 0 0 0 0 0 0 0 0.5 0"/><feBlend in2="shape" result="effect1_innerShadow_10926_96"/><feColorMatrix in="SourceAlpha" result="hardAlpha" values="0 0 0 0 0 0 0 0 0 0 0 0 0 0 0 0 0 0 127 0"/><feOffset dy="2.133"/><feGaussianBlur stdDeviation="2.133"/><feComposite in2="hardAlpha" k2="-1" k3="1" operator="arithmetic"/><feColorMatrix values="0 0 0 0 1 0 0 0 0 1 0 0 0 0 1 0 0 0 0.4 0"/><feBlend in2="effect1_innerShadow_10926_96" result="effect2_innerShadow_10926_96"/></filter><filter id="F" width="64" height="68.267" x="531" y="527.867" color-interpolation-filters="sRGB" filterUnits="userSpaceOnUse"><feFlood flood-opacity="0" result="BackgroundImageFix"/><feBlend in="SourceGraphic" in2="BackgroundImageFix" result="shape"/><feColorMatrix in="SourceAlpha" result="hardAlpha" values="0 0 0 0 0 0 0 0 0 0 0 0 0 0 0 0 0 0 127 0"/><feOffset dy="-2.133"/><feGaussianBlur stdDeviation="2.133"/><feComposite in2="hardAlpha" k2="-1" k3="1" operator="arithmetic"/><feColorMatrix values="0 0 0 0 0 0 0 0 0 0 0 0 0 0 0 0 0 0 0.5 0"/><feBlend in2="shape" result="effect1_innerShadow_10926_96"/><feColorMatrix in="SourceAlpha" result="hardAlpha" values="0 0 0 0 0 0 0 0 0 0 0 0 0 0 0 0 0 0 127 0"/><feOffset dy="2.133"/><feGaussianBlur stdDeviation="2.133"/><feComposite in2="hardAlpha" k2="-1" k3="1" operator="arithmetic"/><feColorMatrix values="0 0 0 0 1 0 0 0 0 1 0 0 0 0 1 0 0 0 0.4 0"/><feBlend in2="effect1_innerShadow_10926_96" result="effect2_innerShadow_10926_96"/></filter></defs></svg>