<svg xmlns="http://www.w3.org/2000/svg" width="671" height="749" fill="none"><path stroke="#654F4D" stroke-width="1.141" d="M108.699 31.364H32.777v76.047H108.7V31.364Z"/><path stroke="#654F4D" stroke-width="1.141" d="M184.328 31.365h-75.922v76.046h75.922V31.365Z"/><path stroke="#654F4D" stroke-width="1.141" d="M108.699 107.323H32.777v76.047H108.7v-76.047Z"/><path stroke="#654F4D" stroke-width="1.141" d="M184.328 107.323h-75.922v76.047h75.922v-76.047Z"/><path stroke="#654F4D" stroke-width="1.141" d="M108.699 183.045H32.777v76.047H108.7v-76.047Z"/><path stroke="#654F4D" stroke-width="1.141" d="M184.328 183.045h-75.922v76.047h75.922v-76.047Z"/><path stroke="#654F4D" stroke-width="1.141" d="M108.699 258.999H32.777v76.046H108.7v-76.046Z"/><path stroke="#654F4D" stroke-width="1.141" d="M184.328 258.999h-75.922v76.046h75.922v-76.046Z"/><path stroke="#654F4D" stroke-width="1.141" d="M638.936 335.019H32.782v75.812h606.154v-75.812ZM260.245 31.365h-75.922v76.046h75.922V31.365Z"/><path stroke="#654F4D" stroke-width="1.141" d="M335.873 31.365h-75.922v76.046h75.922V31.365Z"/><path stroke="#654F4D" stroke-width="1.141" d="M260.245 107.323h-75.922v76.047h75.922v-76.047Z"/><path stroke="#654F4D" stroke-width="1.141" d="M335.873 107.323h-75.922v76.047h75.922v-76.047Z"/><path stroke="#654F4D" stroke-width="1.141" d="M260.245 183.045h-75.922v76.047h75.922v-76.047Z"/><path stroke="#654F4D" stroke-width="1.141" d="M335.873 183.045h-75.922v76.047h75.922v-76.047Z"/><path stroke="#654F4D" stroke-width="1.141" d="M260.245 258.999h-75.922v76.046h75.922v-76.046Z"/><path stroke="#654F4D" stroke-width="1.141" d="M335.873 258.999h-75.922v76.046h75.922v-76.046ZM411.753 31.365h-75.922v76.046h75.922V31.365Z"/><path stroke="#654F4D" stroke-width="1.141" d="M487.381 31.365h-75.922v76.046h75.922V31.365Z"/><path stroke="#654F4D" stroke-width="1.141" d="M411.753 107.323h-75.922v76.047h75.922v-76.047Z"/><path stroke="#654F4D" stroke-width="1.141" d="M487.381 107.323h-75.922v76.047h75.922v-76.047Z"/><path stroke="#654F4D" stroke-width="1.141" d="M411.753 183.045h-75.922v76.047h75.922v-76.047Z"/><path stroke="#654F4D" stroke-width="1.141" d="M487.381 183.045h-75.922v76.047h75.922v-76.047Z"/><path stroke="#654F4D" stroke-width="1.141" d="M411.753 258.999h-75.922v76.046h75.922v-76.046Z"/><path stroke="#654F4D" stroke-width="1.141" d="M487.381 258.999h-75.922v76.046h75.922v-76.046ZM563.299 31.365h-75.922v76.046h75.922V31.365Z"/><path stroke="#654F4D" stroke-width="1.141" d="M638.927 31.365h-75.922v76.046h75.922V31.365Z"/><path stroke="#654F4D" stroke-width="1.141" d="M563.299 107.323h-75.922v76.047h75.922v-76.047Z"/><path stroke="#654F4D" stroke-width="1.141" d="M638.927 107.323h-75.922v76.047h75.922v-76.047Z"/><path stroke="#654F4D" stroke-width="1.141" d="M563.299 183.045h-75.922v76.047h75.922v-76.047Z"/><path stroke="#654F4D" stroke-width="1.141" d="M638.927 183.045h-75.922v76.047h75.922v-76.047Z"/><path stroke="#654F4D" stroke-width="1.141" d="M563.299 258.999h-75.922v76.046h75.922v-76.046Z"/><path stroke="#654F4D" stroke-width="1.141" d="M638.927 258.999h-75.922v76.046h75.922v-76.046ZM108.699 411.141H32.777v76.047H108.7v-76.047Z"/><path stroke="#654F4D" stroke-width="1.141" d="M184.328 411.141h-75.922v76.047h75.922v-76.047Z"/><path stroke="#654F4D" stroke-width="1.141" d="M108.699 487.093H32.777v76.047H108.7v-76.047Z"/><path stroke="#654F4D" stroke-width="1.141" d="M184.328 487.093h-75.922v76.047h75.922v-76.047Z"/><path stroke="#654F4D" stroke-width="1.141" d="M108.699 562.813H32.777v76.047H108.7v-76.047Z"/><path stroke="#654F4D" stroke-width="1.141" d="M184.328 562.813h-75.922v76.047h75.922v-76.047Z"/><path stroke="#654F4D" stroke-width="1.141" d="M108.699 638.771H32.777v76.047H108.7v-76.047Z"/><path stroke="#654F4D" stroke-width="1.141" d="M184.328 638.771h-75.922v76.047h75.922v-76.047ZM260.245 411.141h-75.922v76.047h75.922v-76.047Z"/><path stroke="#654F4D" stroke-width="1.141" d="M335.873 411.141h-75.922v76.047h75.922v-76.047Z"/><path stroke="#654F4D" stroke-width="1.141" d="M260.245 487.093h-75.922v76.047h75.922v-76.047Z"/><path stroke="#654F4D" stroke-width="1.141" d="M335.873 487.093h-75.922v76.047h75.922v-76.047Z"/><path stroke="#654F4D" stroke-width="1.141" d="M260.245 562.813h-75.922v76.047h75.922v-76.047Z"/><path stroke="#654F4D" stroke-width="1.141" d="M335.873 562.813h-75.922v76.047h75.922v-76.047Z"/><path stroke="#654F4D" stroke-width="1.141" d="M260.245 638.771h-75.922v76.047h75.922v-76.047Z"/><path stroke="#654F4D" stroke-width="1.141" d="M335.873 638.771h-75.922v76.047h75.922v-76.047ZM411.753 411.141h-75.922v76.047h75.922v-76.047Z"/><path stroke="#654F4D" stroke-width="1.141" d="M487.381 411.141h-75.922v76.047h75.922v-76.047Z"/><path stroke="#654F4D" stroke-width="1.141" d="M411.753 487.093h-75.922v76.047h75.922v-76.047Z"/><path stroke="#654F4D" stroke-width="1.141" d="M487.381 487.093h-75.922v76.047h75.922v-76.047Z"/><path stroke="#654F4D" stroke-width="1.141" d="M411.753 562.813h-75.922v76.047h75.922v-76.047Z"/><path stroke="#654F4D" stroke-width="1.141" d="M487.381 562.813h-75.922v76.047h75.922v-76.047Z"/><path stroke="#654F4D" stroke-width="1.141" d="M411.753 638.771h-75.922v76.047h75.922v-76.047Z"/><path stroke="#654F4D" stroke-width="1.141" d="M487.381 638.771h-75.922v76.047h75.922v-76.047ZM563.299 411.141h-75.922v76.047h75.922v-76.047Z"/><path stroke="#654F4D" stroke-width="1.141" d="M638.927 411.141h-75.922v76.047h75.922v-76.047Z"/><path stroke="#654F4D" stroke-width="1.141" d="M563.299 487.093h-75.922v76.047h75.922v-76.047Z"/><path stroke="#654F4D" stroke-width="1.141" d="M638.927 487.093h-75.922v76.047h75.922v-76.047Z"/><path stroke="#654F4D" stroke-width="1.141" d="M563.299 562.813h-75.922v76.047h75.922v-76.047Z"/><path stroke="#654F4D" stroke-width="1.141" d="M638.927 562.813h-75.922v76.047h75.922v-76.047Z"/><path stroke="#654F4D" stroke-width="1.141" d="M563.299 638.771h-75.922v76.047h75.922v-76.047Z"/><path stroke="#654F4D" stroke-width="1.141" d="M638.927 638.771h-75.922v76.047h75.922v-76.047ZM260.655 31.86 411.36 182.815M260.655 563.814l150.326 150.574M411.74 31.476 260.655 182.43M411.74 563.049 260.655 714.384"/><g filter="url(#a)"><circle cx="260" cy="717" r="32" fill="#AB281A"/></g><path fill="#E0E0E0" d="M278.021 735.971a18.165 18.165 0 0 0-2.686-6.709 18.339 18.339 0 0 0-5.098-5.153 12.891 12.891 0 0 0 3.027-8.432 12.775 12.775 0 0 0-1.297-5.717l5.766-13.149-12.541 3.002-5.189-6.289-5.19 6.289-12.541-3.002 5.766 13.149a12.775 12.775 0 0 0-1.297 5.717 13.405 13.405 0 0 0 3.027 8.432 17.814 17.814 0 0 0-5.136 5.129 17.645 17.645 0 0 0-2.648 6.733l-.288 1.287h36.614l-.289-1.287Zm-32.001-36.158 9.658 2.286 4.325-5.288 4.324 5.288 9.658-2.286-3.46 7.86a13.577 13.577 0 0 0-4.717-3.866 13.698 13.698 0 0 0-5.95-1.422 13.268 13.268 0 0 0-5.971 1.379 13.153 13.153 0 0 0-4.696 3.909l-3.171-7.86Zm22.92 9.289h-17.875a11.16 11.16 0 0 1 3.941-3.261 11.254 11.254 0 0 1 9.993 0 11.16 11.16 0 0 1 3.941 3.261Zm-24.65 26.012a16.444 16.444 0 0 1 7.64-9.862l1.298-.571-1.01-1.001a10.918 10.918 0 0 1-2.462-3.596 10.834 10.834 0 0 1-.853-4.264 10.091 10.091 0 0 1 1.009-4.574h20.325a11.83 11.83 0 0 1 1.009 4.574 10.606 10.606 0 0 1-.832 4.272 10.686 10.686 0 0 1-2.483 3.588l-1.009 1.001 1.297.714a16.44 16.44 0 0 1 7.64 9.862l-31.569-.143Z"/><g filter="url(#b)"><circle cx="260" cy="33" r="32" fill="#1F1F1F"/></g><path fill="#E0E0E0" d="M278.021 51.983a18.162 18.162 0 0 0-2.686-6.708 18.348 18.348 0 0 0-5.098-5.154 12.892 12.892 0 0 0 3.027-8.432 12.775 12.775 0 0 0-1.297-5.717l5.766-13.149-12.541 3.002-5.189-6.289-5.19 6.289-12.541-3.002 5.766 13.15a12.775 12.775 0 0 0-1.297 5.716 13.404 13.404 0 0 0 3.027 8.432 17.82 17.82 0 0 0-5.136 5.129 17.653 17.653 0 0 0-2.648 6.733l-.288 1.287h36.614l-.289-1.287ZM246.02 15.825l9.658 2.287 4.325-5.288 4.324 5.287 9.658-2.286-3.46 7.86a13.564 13.564 0 0 0-4.717-3.865 13.687 13.687 0 0 0-5.95-1.423 13.265 13.265 0 0 0-5.971 1.38 13.151 13.151 0 0 0-4.696 3.908l-3.171-7.86Zm22.92 9.29h-17.875a11.155 11.155 0 0 1 3.941-3.262 11.254 11.254 0 0 1 9.993 0c1.551.77 2.9 1.886 3.941 3.262Zm-24.65 26.01a16.443 16.443 0 0 1 7.64-9.86l1.298-.572-1.01-1a10.917 10.917 0 0 1-2.462-3.597c-.57-1.35-.86-2.8-.853-4.264a10.09 10.09 0 0 1 1.009-4.574h20.325a11.83 11.83 0 0 1 1.009 4.574 10.607 10.607 0 0 1-.832 4.272 10.687 10.687 0 0 1-2.483 3.588l-1.009 1 1.297.715a16.44 16.44 0 0 1 7.64 9.862l-31.569-.143Z"/><g filter="url(#c)"><circle cx="411" cy="717" r="32" fill="#AB281A"/></g><path fill="#E0E0E0" d="M429.018 735.972a18.175 18.175 0 0 0-2.686-6.709 18.356 18.356 0 0 0-5.098-5.154 12.891 12.891 0 0 0 3.027-8.432 12.778 12.778 0 0 0-1.297-5.717l5.766-13.148-12.541 3.001-5.19-6.288-5.189 6.288-12.541-3.001 5.766 13.148a12.778 12.778 0 0 0-1.297 5.717 13.395 13.395 0 0 0 3.027 8.432 17.826 17.826 0 0 0-5.136 5.129 17.656 17.656 0 0 0-2.648 6.734l-.289 1.286h36.614l-.288-1.286Zm-32.001-36.159 9.658 2.287 4.324-5.288 4.325 5.288 9.658-2.287-3.46 7.861a13.555 13.555 0 0 0-4.717-3.866 13.673 13.673 0 0 0-5.95-1.422 13.267 13.267 0 0 0-5.971 1.378 13.147 13.147 0 0 0-4.696 3.91l-3.171-7.861Zm22.92 9.29h-17.875a11.15 11.15 0 0 1 3.941-3.261 11.254 11.254 0 0 1 9.992 0 11.145 11.145 0 0 1 3.942 3.261Zm-24.65 26.011a16.438 16.438 0 0 1 7.64-9.861l1.297-.572-1.009-1a10.925 10.925 0 0 1-2.463-3.597c-.569-1.35-.859-2.8-.852-4.264a10.084 10.084 0 0 1 1.009-4.573h20.325a11.826 11.826 0 0 1 1.009 4.573 10.587 10.587 0 0 1-.833 4.272 10.673 10.673 0 0 1-2.482 3.589l-1.009 1 1.297.715a16.442 16.442 0 0 1 7.64 9.861l-31.569-.143Z"/><g filter="url(#d)"><circle cx="412" cy="33" r="32" fill="#1F1F1F"/></g><path fill="#E0E0E0" d="M430.018 51.983a18.18 18.18 0 0 0-2.686-6.708 18.348 18.348 0 0 0-5.098-5.154 12.892 12.892 0 0 0 3.027-8.432 12.775 12.775 0 0 0-1.297-5.717l5.766-13.149-12.541 3.002-5.19-6.289-5.189 6.289-12.541-3.002 5.766 13.15a12.775 12.775 0 0 0-1.297 5.716 13.398 13.398 0 0 0 3.027 8.432 17.82 17.82 0 0 0-5.136 5.129 17.653 17.653 0 0 0-2.648 6.733l-.289 1.287h36.614l-.288-1.287Zm-32.001-36.158 9.658 2.287 4.324-5.288 4.325 5.287 9.658-2.286-3.46 7.86a13.564 13.564 0 0 0-4.717-3.865 13.69 13.69 0 0 0-5.95-1.423 13.265 13.265 0 0 0-5.971 1.38 13.143 13.143 0 0 0-4.696 3.908l-3.171-7.86Zm22.92 9.29h-17.875a11.155 11.155 0 0 1 3.941-3.262 11.253 11.253 0 0 1 9.992 0 11.15 11.15 0 0 1 3.942 3.262Zm-24.65 26.01a16.44 16.44 0 0 1 7.64-9.86l1.297-.572-1.009-1a10.92 10.92 0 0 1-2.463-3.597c-.569-1.35-.859-2.8-.852-4.264a10.09 10.09 0 0 1 1.009-4.574h20.325a11.83 11.83 0 0 1 1.009 4.574 10.591 10.591 0 0 1-.833 4.272 10.67 10.67 0 0 1-2.482 3.588l-1.009 1 1.297.715a16.443 16.443 0 0 1 7.64 9.862l-31.569-.143Z"/><g filter="url(#e)"><circle cx="563" cy="717" r="32" fill="#AB281A"/></g><path fill="#E0E0E0" d="M577.757 707.428c-2.987-4.753-7.74-7.333-14.8-8.283-.408-.544-.951-1.494-1.901-2.852a7.494 7.494 0 0 0-3.259-2.987l-.272-.136v.407a14.8 14.8 0 0 1-1.222 4.753h-.815a11.618 11.618 0 0 0-4.481-4.481l-.543-.136v3.531a16.09 16.09 0 0 1-.271 2.987 8.043 8.043 0 0 1-1.222 2.444 7.566 7.566 0 0 0-1.087 2.037 22.165 22.165 0 0 0-.407 2.444 11.808 11.808 0 0 1-.679 2.58 41.306 41.306 0 0 1-2.58 3.666c-1.901 2.58-2.851 4.481-2.851 5.975a6.288 6.288 0 0 0 2.715 4.888 8.142 8.142 0 0 0 5.432 2.172 2.445 2.445 0 0 0 2.037-.95 5.122 5.122 0 0 0 1.086-2.444c.271-1.901.95-3.123 2.037-3.395a22.946 22.946 0 0 0 6.517-2.172c.153.295.245.618.272.95a5.434 5.434 0 0 1-3.395 4.888 10.08 10.08 0 0 0-4.073 4.21 18.822 18.822 0 0 0-1.087 7.332v.272h29.33v-6.79c-.407-10.727-1.629-16.43-4.481-20.91ZM563.5 718.426l-.136-2.987a8.35 8.35 0 0 1 .407-2.444v-.136l-.135-.136-.408-.407-.271-.272-.136.408c-.37.815-.825 1.589-1.358 2.308a5.91 5.91 0 0 1-1.358 1.086c-.853.481-1.766.846-2.716 1.086a36.128 36.128 0 0 1-3.666.951c-1.765.543-2.851 2.173-3.259 4.888-.271 1.087-.543 1.63-1.086 1.63a2.546 2.546 0 0 1-1.086-.272c.237-.503.558-.963.95-1.358a2.71 2.71 0 0 0 .679-1.765c0-.815-.407-1.222-1.086-1.222s-1.222.679-2.037 2.308a8.73 8.73 0 0 1-.679.951c-.271 0-.679-.136-1.629-1.086a4.079 4.079 0 0 1-1.087-2.716 3.109 3.109 0 0 1 .408-1.494 26.637 26.637 0 0 1 2.037-3.123 43.878 43.878 0 0 0 2.987-4.617c.351-.774.58-1.599.679-2.444a6.612 6.612 0 0 1 .271-2.036c.22-.595.541-1.146.951-1.63a9.06 9.06 0 0 0 1.494-3.123c.196-1.029.287-2.075.271-3.123a5.43 5.43 0 0 1 1.222 2.308 4.07 4.07 0 0 0-1.086 1.087l-.136.135.136 1.087 2.851-1.358v.407c0 .951.544 1.086.815 1.086.543 0 .951-.407 1.358-1.222a3.23 3.23 0 0 0 .543-1.629c.123-.961.305-1.913.543-2.852a11.208 11.208 0 0 1 1.494 2.309 6.585 6.585 0 0 0 1.629 2.172h.272c6.246.815 10.727 3.123 13.443 7.061 2.715 3.938 4.073 10.999 4.073 21.047v3.53h-24.713c-.03-1.634.294-3.255.951-4.752a7.382 7.382 0 0 1 3.123-2.987c2.987-1.63 4.481-3.802 4.481-6.654Z"/><path fill="#E0E0E0" d="M544.762 718.023a1.861 1.861 0 0 0-.544 1.494c0 1.358.679 1.494 1.087 1.494.72 0 1.222-.951 1.222-1.358v-.136l-.543-.543.815-1.494h-.544a2.03 2.03 0 0 0-1.493.543ZM554.267 706.067a3.96 3.96 0 0 0-2.309.951c-.95.679-1.358 1.222-1.358 1.901s.408 1.086 1.222 1.765l.544.408v-1.63c.359.066.722.112 1.086.136.326 0 1.086-.679 1.086-1.087a2.92 2.92 0 0 0-.135-.814 2.554 2.554 0 0 1 1.222-.544l.407-.135-.407-.951h-1.358Z"/><g filter="url(#f)"><circle cx="563" cy="33" r="32" fill="#1F1F1F"/></g><path fill="#E0E0E0" d="M577.757 23.429c-2.987-4.753-7.74-7.333-14.8-8.283-.408-.543-.951-1.494-1.901-2.852a7.5 7.5 0 0 0-3.259-2.987l-.272-.136v.408a14.798 14.798 0 0 1-1.222 4.752h-.815a11.616 11.616 0 0 0-4.481-4.48l-.543-.137v3.53a16.093 16.093 0 0 1-.271 2.988 8.035 8.035 0 0 1-1.222 2.444 7.577 7.577 0 0 0-1.087 2.037 22.202 22.202 0 0 0-.407 2.444 11.805 11.805 0 0 1-.679 2.58 41.31 41.31 0 0 1-2.58 3.666c-1.901 2.58-2.851 4.481-2.851 5.975a6.29 6.29 0 0 0 2.715 4.888 8.148 8.148 0 0 0 5.432 2.173 2.442 2.442 0 0 0 2.037-.95 5.12 5.12 0 0 0 1.086-2.445c.271-1.9.95-3.123 2.037-3.394a22.945 22.945 0 0 0 6.517-2.173c.153.296.245.619.272.95a5.433 5.433 0 0 1-3.395 4.889 10.078 10.078 0 0 0-4.073 4.209 18.824 18.824 0 0 0-1.087 7.332v.272h29.33v-6.79c-.407-10.726-1.629-16.43-4.481-20.91ZM563.5 34.427l-.136-2.987c.013-.83.151-1.654.407-2.444v-.136l-.135-.136-.408-.407-.271-.271-.136.407c-.37.815-.825 1.589-1.358 2.308a5.919 5.919 0 0 1-1.358 1.087 11.06 11.06 0 0 1-2.716 1.086c-1.204.38-2.428.697-3.666.95-1.765.543-2.851 2.173-3.259 4.889-.271 1.086-.543 1.629-1.086 1.629a2.55 2.55 0 0 1-1.086-.272c.237-.503.558-.962.95-1.358a2.71 2.71 0 0 0 .679-1.765c0-.814-.407-1.222-1.086-1.222s-1.222.68-2.037 2.309c-.205.331-.432.649-.679.95-.271 0-.679-.136-1.629-1.086a4.076 4.076 0 0 1-1.087-2.716 3.107 3.107 0 0 1 .408-1.493 26.63 26.63 0 0 1 2.037-3.124 43.854 43.854 0 0 0 2.987-4.616c.351-.775.58-1.6.679-2.444a6.62 6.62 0 0 1 .271-2.037c.22-.595.541-1.146.951-1.63a9.067 9.067 0 0 0 1.494-3.123c.196-1.029.287-2.075.271-3.123a5.426 5.426 0 0 1 1.222 2.309 4.07 4.07 0 0 0-1.086 1.086l-.136.136.136 1.086 2.851-1.358v.407c0 .95.544 1.087.815 1.087.543 0 .951-.408 1.358-1.222a3.231 3.231 0 0 0 .543-1.63c.123-.96.305-1.913.543-2.851.591.705 1.093 1.48 1.494 2.308.386.83.941 1.57 1.629 2.173h.272c6.246.814 10.727 3.123 13.443 7.06 2.715 3.938 4.073 11 4.073 21.047v3.53h-24.713c-.03-1.634.294-3.255.951-4.752a7.384 7.384 0 0 1 3.123-2.987c2.987-1.63 4.481-3.802 4.481-6.654Z"/><path fill="#E0E0E0" d="M544.762 34.024a1.854 1.854 0 0 0-.544 1.494c0 1.358.679 1.494 1.087 1.494.72 0 1.222-.951 1.222-1.358v-.136l-.543-.544.815-1.493h-.544a2.04 2.04 0 0 0-1.493.543ZM554.267 22.076a3.965 3.965 0 0 0-2.309.95c-.95.68-1.358 1.223-1.358 1.902 0 .679.408 1.086 1.222 1.765l.544.408v-1.63c.359.066.722.112 1.086.136.326 0 1.086-.68 1.086-1.087a2.926 2.926 0 0 0-.135-.814 2.55 2.55 0 0 1 1.222-.544l.407-.136-.407-.95h-1.358Z"/><g filter="url(#g)"><circle cx="109" cy="717" r="32" fill="#AB281A"/></g><path fill="#E0E0E0" d="M123.759 707.427c-2.987-4.752-7.74-7.332-14.8-8.283-.408-.543-.951-1.493-1.901-2.851a7.494 7.494 0 0 0-3.259-2.987l-.272-.136v.407a14.8 14.8 0 0 1-1.222 4.753h-.815a11.618 11.618 0 0 0-4.48-4.481l-.544-.136v3.53a16.025 16.025 0 0 1-.271 2.988 8.032 8.032 0 0 1-1.222 2.444 7.553 7.553 0 0 0-1.087 2.037 22.285 22.285 0 0 0-.407 2.444 11.83 11.83 0 0 1-.679 2.58 41.643 41.643 0 0 1-2.58 3.666c-1.9 2.58-2.851 4.481-2.851 5.974a6.285 6.285 0 0 0 2.715 4.889 8.145 8.145 0 0 0 5.432 2.172 2.45 2.45 0 0 0 2.037-.95 5.12 5.12 0 0 0 1.086-2.444c.271-1.901.95-3.123 2.037-3.395a22.946 22.946 0 0 0 6.517-2.172c.153.295.245.618.272.95a5.43 5.43 0 0 1-3.395 4.888 10.076 10.076 0 0 0-4.073 4.21 18.83 18.83 0 0 0-1.087 7.332v.272h29.33v-6.79c-.407-10.727-1.629-16.43-4.481-20.911Zm-14.257 10.999-.136-2.987a8.35 8.35 0 0 1 .407-2.444v-.136l-.136-.136-.407-.407-.271-.272-.136.407c-.37.816-.825 1.59-1.358 2.309a5.91 5.91 0 0 1-1.358 1.086c-.853.481-1.766.846-2.716 1.086a36.133 36.133 0 0 1-3.666.951c-1.765.543-2.851 2.172-3.259 4.888-.271 1.086-.543 1.63-1.086 1.63a2.55 2.55 0 0 1-1.086-.272c.237-.504.558-.963.95-1.358.43-.488.672-1.114.68-1.765 0-.815-.408-1.222-1.087-1.222-.68 0-1.222.679-2.037 2.308a8.773 8.773 0 0 1-.679.951c-.271 0-.679-.136-1.63-1.087a4.072 4.072 0 0 1-1.086-2.715 3.094 3.094 0 0 1 .408-1.494 26.661 26.661 0 0 1 2.037-3.123 43.816 43.816 0 0 0 2.987-4.617c.35-.774.58-1.599.679-2.444a6.614 6.614 0 0 1 .271-2.037c.22-.594.541-1.145.95-1.629a9.045 9.045 0 0 0 1.495-3.123c.196-1.029.287-2.076.271-3.123a5.43 5.43 0 0 1 1.222 2.308c-.428.29-.796.659-1.086 1.086l-.136.136.136 1.087 2.851-1.358v.407c0 .951.543 1.086.815 1.086.543 0 .951-.407 1.358-1.222a3.23 3.23 0 0 0 .543-1.629c.123-.961.305-1.913.543-2.852a11.181 11.181 0 0 1 1.494 2.309 6.585 6.585 0 0 0 1.629 2.172h.272c6.246.815 10.727 3.123 13.443 7.061 2.715 3.938 4.073 10.999 4.073 21.047v3.53h-24.713c-.03-1.634.294-3.255.951-4.752a7.39 7.39 0 0 1 3.123-2.988c2.987-1.629 4.481-3.802 4.481-6.653Z"/><path fill="#E0E0E0" d="M90.763 718.023a1.861 1.861 0 0 0-.544 1.494c0 1.358.68 1.494 1.087 1.494.72 0 1.222-.951 1.222-1.358v-.136l-.543-.543.815-1.494h-.543a2.028 2.028 0 0 0-1.494.543ZM100.269 706.067a3.966 3.966 0 0 0-2.309.95c-.95.679-1.358 1.223-1.358 1.902 0 .679.407 1.086 1.222 1.765l.544.408v-1.63c.359.066.722.112 1.086.136.326 0 1.086-.679 1.086-1.087a2.934 2.934 0 0 0-.135-.815 2.548 2.548 0 0 1 1.222-.543l.407-.136-.407-.95h-1.358Z"/><g filter="url(#h)"><circle cx="108.238" cy="33" r="32" fill="#1F1F1F"/></g><path fill="#E0E0E0" d="M122.997 23.429c-2.987-4.753-7.74-7.333-14.801-8.283-.407-.543-.95-1.494-1.901-2.852a7.494 7.494 0 0 0-3.259-2.987l-.271-.136v.408a14.798 14.798 0 0 1-1.222 4.752h-.815a11.623 11.623 0 0 0-4.48-4.48l-.544-.137v3.53a16.025 16.025 0 0 1-.271 2.988 8.023 8.023 0 0 1-1.223 2.444 7.565 7.565 0 0 0-1.086 2.037c-.18.807-.317 1.622-.407 2.444a11.833 11.833 0 0 1-.68 2.58 41.512 41.512 0 0 1-2.58 3.666c-1.9 2.58-2.85 4.481-2.85 5.975a6.288 6.288 0 0 0 2.715 4.888 8.147 8.147 0 0 0 5.432 2.173 2.444 2.444 0 0 0 2.036-.95 5.12 5.12 0 0 0 1.087-2.445c.271-1.901.95-3.123 2.036-3.395a22.939 22.939 0 0 0 6.518-2.172c.153.296.245.619.272.95a5.434 5.434 0 0 1-3.395 4.889 10.07 10.07 0 0 0-4.074 4.209 18.832 18.832 0 0 0-1.086 7.332v.272h29.33v-6.79c-.408-10.726-1.63-16.43-4.481-20.91Zm-14.258 10.998-.135-2.987a8.32 8.32 0 0 1 .407-2.444v-.136l-.136-.136-.407-.407-.272-.272-.135.408a12.67 12.67 0 0 1-1.358 2.308 5.94 5.94 0 0 1-1.358 1.086c-.853.481-1.767.846-2.716 1.087-1.205.38-2.428.697-3.666.95-1.765.543-2.852 2.173-3.259 4.889-.271 1.086-.543 1.629-1.086 1.629a2.553 2.553 0 0 1-1.087-.272c.237-.503.559-.963.951-1.358.43-.488.671-1.114.679-1.765 0-.814-.407-1.222-1.086-1.222-.68 0-1.222.68-2.037 2.309-.205.331-.432.649-.68.95-.27 0-.678-.136-1.629-1.086a4.074 4.074 0 0 1-1.086-2.716 3.096 3.096 0 0 1 .408-1.494 26.653 26.653 0 0 1 2.036-3.123 43.803 43.803 0 0 0 2.988-4.616c.35-.775.58-1.6.679-2.445a6.612 6.612 0 0 1 .271-2.036c.22-.595.541-1.146.95-1.63a9.042 9.042 0 0 0 1.494-3.123c.197-1.029.288-2.075.272-3.123a5.43 5.43 0 0 1 1.222 2.309c-.428.29-.796.658-1.086 1.086l-.136.136.136 1.086 2.851-1.358v.407c0 .95.543 1.087.815 1.087.543 0 .95-.408 1.358-1.222a3.24 3.24 0 0 0 .543-1.63c.123-.96.304-1.913.543-2.851.591.705 1.093 1.48 1.494 2.308.386.83.941 1.57 1.629 2.173h.272c6.246.814 10.727 3.123 13.442 7.06 2.716 3.938 4.074 11 4.074 21.047v3.53h-24.713c-.03-1.634.294-3.255.95-4.752a7.387 7.387 0 0 1 3.124-2.987c2.987-1.63 4.48-3.802 4.48-6.654Z"/><path fill="#E0E0E0" d="M90 34.024a1.86 1.86 0 0 0-.543 1.494c0 1.358.68 1.493 1.087 1.493.72 0 1.222-.95 1.222-1.358v-.135l-.543-.544.814-1.493h-.543a2.037 2.037 0 0 0-1.494.543ZM99.507 22.076a3.966 3.966 0 0 0-2.308.95c-.95.68-1.358 1.223-1.358 1.902 0 .679.407 1.086 1.222 1.765l.543.407v-1.63c.36.067.722.113 1.087.137.326 0 1.086-.68 1.086-1.087a2.902 2.902 0 0 0-.136-.815 2.552 2.552 0 0 1 1.223-.543l.407-.136-.407-.95h-1.359Z"/><g filter="url(#i)"><circle cx="639" cy="717" r="32" fill="#AB281A"/></g><path fill="#E0E0E0" d="M652.783 726.136v-2.364l-3.941-4.467v-10.114l4.466-3.022v-9.589h-6.962v4.204h-3.81v-4.204H636.1v4.204h-3.678v-4.204h-6.962v9.589l4.466 3.022v10.114l-3.941 4.467v2.364l-3.284 3.678v6.437h33.366v-6.437l-3.284-3.678Zm1.313 5.517v2.496h-29.424v-2.496h29.424Zm-15.894-28.899v-4.204h2.495v4.204h7.751v-4.204h2.89v6.174h-23.777v-6.174h2.89v4.204h7.751Zm8.932 17.602 2.759 3.153h-21.018l2.759-3.153h15.5Zm-.263-10.509v8.539h-14.975v-8.539h14.975Zm1.971-3.021-1.708 1.051h-15.5l-1.708-1.051h18.916Zm-20.886 20.098v-1.313h22.856v1.313l2.627 2.89h-28.111l2.628-2.89Z"/><g filter="url(#j)"><circle cx="639" cy="32" r="32" fill="#1F1F1F"/></g><path fill="#E0E0E0" d="M652.783 41.135v-2.364l-3.941-4.466V24.19l4.466-3.021v-9.59h-6.962v4.204h-3.81v-4.204H636.1v4.204h-3.678v-4.204h-6.962v9.59l4.466 3.021v10.115l-3.941 4.466v2.364l-3.284 3.678v6.437h33.366v-6.437l-3.284-3.678Zm1.313 5.518v2.495h-29.424v-2.495h29.424Zm-15.894-28.9V13.55h2.495v4.203h7.751V13.55h2.89v6.174h-23.777V13.55h2.89v4.203h7.751Zm8.932 17.603 2.759 3.152h-21.018l2.759-3.152h15.5Zm-.263-10.51v8.54h-14.975v-8.54h14.975Zm1.971-3.02-1.708 1.05h-15.5l-1.708-1.05h18.916Zm-20.886 20.098V40.61h22.856v1.314l2.627 2.89h-28.111l2.628-2.89Z"/><g filter="url(#k)"><circle cx="32" cy="716.426" r="32" fill="#AB281A"/></g><path fill="#E0E0E0" d="M45.78 725.562v-2.364l-3.94-4.466v-10.115l4.466-3.021v-9.59h-6.962v4.204h-3.81v-4.204h-6.436v4.204H25.42v-4.204h-6.962v9.59l4.466 3.021v10.115l-3.94 4.466v2.364l-3.285 3.678v6.437h33.366v-6.437l-3.284-3.678Zm1.314 5.518v2.495H17.67v-2.495h29.424ZM31.2 702.18v-4.203h2.496v4.203h7.75v-4.203h2.89v6.174H20.56v-6.174h2.89v4.203h7.75Zm8.932 17.603 2.759 3.152H21.873l2.759-3.152h15.5Zm-.262-10.509v8.538H24.895v-8.538H39.87Zm1.97-3.021-1.708 1.05h-15.5l-1.708-1.05H41.84Zm-20.886 20.098v-1.314H43.81v1.314l2.628 2.889H18.327l2.627-2.889Z"/><g filter="url(#l)"><circle cx="33" cy="33" r="32" fill="#1F1F1F"/></g><path fill="#E0E0E0" d="M46.78 42.135v-2.364l-3.94-4.466V25.19l4.466-3.021v-9.59h-6.962v4.204h-3.81v-4.204h-6.436v4.204H26.42v-4.204h-6.962v9.59l4.466 3.021v10.115l-3.94 4.466v2.364l-3.285 3.678v6.437h33.366v-6.437l-3.284-3.678Zm1.314 5.518v2.495H18.67v-2.495h29.424ZM32.2 18.753V14.55h2.496v4.203h7.75V14.55h2.89v6.174H21.56V14.55h2.89v4.203h7.75Zm8.932 17.603 2.759 3.152H22.873l2.759-3.152h15.5Zm-.262-10.51v8.54H25.895v-8.54H40.87Zm1.97-3.02-1.708 1.05h-15.5l-1.708-1.05H42.84ZM21.954 42.924V41.61H44.81v1.314l2.628 2.89H19.327l2.627-2.89Z"/><g filter="url(#m)"><circle cx="563" cy="562" r="32" fill="#AB281A"/></g><path fill="#E0E0E0" d="M558.966 567.938c.115-.616.35-1.203.692-1.728l-2.663-2.663a8.437 8.437 0 0 0-1.792 4.391h3.763ZM559.748 571.495a4.874 4.874 0 0 1-.73-1.639h-3.84a8.248 8.248 0 0 0 1.856 4.289l2.714-2.65ZM564.662 560.436v3.84c.587.14 1.143.387 1.639.73l2.65-2.65a8.244 8.244 0 0 0-4.289-1.92ZM561.014 564.85a4.784 4.784 0 0 1 1.728-.691v-3.764a8.443 8.443 0 0 0-4.391 1.793l2.663 2.662ZM566.16 572.713a4.704 4.704 0 0 1-1.498.64v3.841a8.382 8.382 0 0 0 4.161-1.767l-2.663-2.714ZM562.743 573.405a4.689 4.689 0 0 1-1.574-.602l-2.689 2.676a8.407 8.407 0 0 0 4.263 1.689v-3.763ZM567.606 566.362c.292.485.496 1.018.601 1.574h3.751a8.4 8.4 0 0 0-1.69-4.263l-2.662 2.689ZM568.119 569.856a4.736 4.736 0 0 1-.64 1.498l2.663 2.663a8.39 8.39 0 0 0 1.818-4.161h-3.841Z"/><path fill="#E0E0E0" d="m580.484 545.359 1.971 3.251 1.984 3.264-13.107 9.075a10.938 10.938 0 0 1 3.175 9.074 10.954 10.954 0 0 1-5.21 8.078 10.983 10.983 0 0 1-15.066-3.686c-.246-.412-.464-.84-.653-1.28a8.632 8.632 0 0 1-2.956.64 3.724 3.724 0 0 1-.935-.103c-1.126-.268-1.395-.486-1.638-.486-.243 0-.295.077-.64.294a6.399 6.399 0 0 1-3.29 1.28 2.462 2.462 0 0 1-2.201-1.28l-.256-.422c-1.767-2.918 2.56-4.864 2.56-4.864.908-.55.422-.256.883-2.112a7.85 7.85 0 0 1 2.624-3.482l32.755-17.241Zm0-2.56a2.435 2.435 0 0 0-1.19.294l-32.768 17.267a2.214 2.214 0 0 0-.346.218 9.962 9.962 0 0 0-3.571 4.928 9.675 9.675 0 0 0-.167.755 7.528 7.528 0 0 0-3.545 3.968 5.115 5.115 0 0 0 .576 4.186l.256.422a4.987 4.987 0 0 0 4.39 2.56 8.055 8.055 0 0 0 4.211-1.395c.205.064.461.141.743.205a6.075 6.075 0 0 0 1.549.179 9.209 9.209 0 0 0 1.689-.166 13.539 13.539 0 0 0 18.688 4.172 13.54 13.54 0 0 0 4.173-18.688 1.79 1.79 0 0 1-.128-.204l10.854-7.527a2.558 2.558 0 0 0 .73-3.43l-1.984-3.251-1.971-3.213a2.562 2.562 0 0 0-2.189-1.28Z"/><g filter="url(#n)"><circle cx="563.806" cy="182.806" r="32" fill="#1F1F1F"/></g><path fill="#E0E0E0" d="M559.773 188.747a4.749 4.749 0 0 1 .691-1.728l-2.663-2.663a8.433 8.433 0 0 0-1.792 4.391h3.764ZM560.554 192.308a4.874 4.874 0 0 1-.73-1.639h-3.84a8.24 8.24 0 0 0 1.856 4.288l2.714-2.649ZM565.468 181.244v3.841a4.846 4.846 0 0 1 1.639.73l2.65-2.65a8.245 8.245 0 0 0-4.289-1.921ZM561.82 185.659a4.756 4.756 0 0 1 1.728-.691v-3.764a8.44 8.44 0 0 0-4.391 1.792l2.663 2.663ZM566.966 193.518a4.75 4.75 0 0 1-1.498.64v3.84a8.39 8.39 0 0 0 4.161-1.766l-2.663-2.714ZM563.549 194.211a4.668 4.668 0 0 1-1.574-.602l-2.689 2.676a8.4 8.4 0 0 0 4.263 1.69v-3.764ZM568.412 187.168c.292.485.495 1.019.601 1.575h3.751a8.4 8.4 0 0 0-1.69-4.263l-2.662 2.688ZM568.925 190.669a4.746 4.746 0 0 1-.64 1.498l2.663 2.662a8.383 8.383 0 0 0 1.818-4.16h-3.841Z"/><path fill="#E0E0E0" d="m581.29 166.166 1.971 3.251 1.984 3.264-13.107 9.075a10.945 10.945 0 0 1-2.035 17.152 10.983 10.983 0 0 1-15.066-3.686 10.774 10.774 0 0 1-.653-1.28 8.61 8.61 0 0 1-2.957.64 3.768 3.768 0 0 1-.934-.102c-1.126-.269-1.395-.487-1.638-.487-.244 0-.295.077-.64.295a6.408 6.408 0 0 1-3.29 1.28 2.455 2.455 0 0 1-2.202-1.28l-.256-.423c-1.766-2.918 2.56-4.864 2.56-4.864.909-.55.423-.256.884-2.112a7.842 7.842 0 0 1 2.624-3.481l32.755-17.242Zm0-2.56a2.45 2.45 0 0 0-1.191.294l-32.768 17.268a2.247 2.247 0 0 0-.345.217 9.971 9.971 0 0 0-3.571 4.928 9.777 9.777 0 0 0-.167.755 7.528 7.528 0 0 0-3.545 3.968 5.108 5.108 0 0 0 .576 4.186l.256.422a4.988 4.988 0 0 0 4.39 2.56 8.055 8.055 0 0 0 4.211-1.395c.205.064.461.141.743.205a6.028 6.028 0 0 0 1.548.179 9.125 9.125 0 0 0 1.69-.166 13.544 13.544 0 0 0 18.688 4.173 13.54 13.54 0 0 0 4.173-18.688 1.895 1.895 0 0 1-.128-.205l10.854-7.527a2.558 2.558 0 0 0 .73-3.43l-1.984-3.251-1.971-3.213a2.562 2.562 0 0 0-2.189-1.28Z"/><g filter="url(#o)"><circle cx="109" cy="563" r="32" fill="#AB281A"/></g><path fill="#E0E0E0" d="M104.968 568.938a4.749 4.749 0 0 1 .691-1.728l-2.663-2.663a8.437 8.437 0 0 0-1.792 4.391h3.764ZM105.748 572.495a4.874 4.874 0 0 1-.73-1.639h-3.84a8.248 8.248 0 0 0 1.856 4.289l2.714-2.65ZM110.662 561.436v3.84c.587.14 1.143.387 1.639.73l2.65-2.65a8.244 8.244 0 0 0-4.289-1.92ZM107.015 565.85a4.79 4.79 0 0 1 1.729-.691v-3.764a8.443 8.443 0 0 0-4.391 1.793l2.662 2.662ZM112.16 573.713a4.704 4.704 0 0 1-1.498.64v3.841a8.382 8.382 0 0 0 4.161-1.767l-2.663-2.714ZM108.743 574.405a4.697 4.697 0 0 1-1.574-.602l-2.689 2.676a8.407 8.407 0 0 0 4.263 1.689v-3.763ZM113.606 567.362c.292.485.496 1.018.602 1.574h3.751a8.4 8.4 0 0 0-1.69-4.263l-2.663 2.689ZM114.12 570.856a4.738 4.738 0 0 1-.641 1.498l2.663 2.663a8.39 8.39 0 0 0 1.818-4.161h-3.84Z"/><path fill="#E0E0E0" d="m126.484 546.359 1.971 3.251 1.984 3.264-13.107 9.075a10.938 10.938 0 0 1 3.175 9.074 10.954 10.954 0 0 1-5.21 8.078 10.983 10.983 0 0 1-15.066-3.686 10.91 10.91 0 0 1-.653-1.28 8.635 8.635 0 0 1-2.957.64 3.722 3.722 0 0 1-.934-.103c-1.126-.268-1.395-.486-1.638-.486-.244 0-.295.077-.64.294a6.397 6.397 0 0 1-3.29 1.28 2.463 2.463 0 0 1-2.202-1.28l-.255-.422c-1.767-2.918 2.56-4.864 2.56-4.864.908-.55.422-.256.883-2.112a7.852 7.852 0 0 1 2.624-3.482l32.755-17.241Zm0-2.56a2.435 2.435 0 0 0-1.19.294L92.525 561.36a2.263 2.263 0 0 0-.345.218 9.969 9.969 0 0 0-3.571 4.928 9.462 9.462 0 0 0-.167.755 7.528 7.528 0 0 0-3.545 3.968 5.12 5.12 0 0 0 .576 4.186l.256.422a4.997 4.997 0 0 0 4.39 2.56 8.058 8.058 0 0 0 4.211-1.395c.205.064.461.141.743.205a6.077 6.077 0 0 0 1.549.179 9.212 9.212 0 0 0 1.69-.166 13.538 13.538 0 0 0 18.687 4.172 13.54 13.54 0 0 0 4.173-18.688 1.79 1.79 0 0 1-.128-.204l10.854-7.527a2.558 2.558 0 0 0 .73-3.43l-1.984-3.251-1.971-3.213a2.562 2.562 0 0 0-2.189-1.28Z"/><g filter="url(#p)"><circle cx="109.399" cy="182.565" r="32" fill="#1F1F1F"/></g><path fill="#E0E0E0" d="M105.367 188.506a4.749 4.749 0 0 1 .691-1.728l-2.662-2.663a8.443 8.443 0 0 0-1.793 4.391h3.764ZM106.147 192.066a4.858 4.858 0 0 1-.729-1.638h-3.841a8.244 8.244 0 0 0 1.856 4.288l2.714-2.65ZM111.062 181.003v3.841a4.867 4.867 0 0 1 1.638.729l2.65-2.65a8.252 8.252 0 0 0-4.288-1.92ZM107.415 185.418a4.749 4.749 0 0 1 1.728-.691v-3.764a8.433 8.433 0 0 0-4.391 1.792l2.663 2.663ZM112.56 193.277a4.769 4.769 0 0 1-1.498.64v3.84a8.39 8.39 0 0 0 4.16-1.766l-2.662-2.714ZM109.143 193.97a4.673 4.673 0 0 1-1.575-.602l-2.688 2.676a8.4 8.4 0 0 0 4.263 1.69v-3.764ZM114.005 186.927c.292.485.496 1.018.602 1.575h3.751a8.4 8.4 0 0 0-1.69-4.263l-2.663 2.688ZM114.519 190.428a4.746 4.746 0 0 1-.64 1.498l2.663 2.662a8.387 8.387 0 0 0 1.818-4.16h-3.841Z"/><path fill="#E0E0E0" d="m126.883 165.925 1.972 3.251 1.984 3.264-13.108 9.075a10.938 10.938 0 0 1 3.175 9.074 10.943 10.943 0 0 1-5.21 8.078 10.982 10.982 0 0 1-15.065-3.686 10.805 10.805 0 0 1-.653-1.28 8.635 8.635 0 0 1-2.957.64 3.767 3.767 0 0 1-.934-.102c-1.127-.269-1.396-.487-1.639-.487-.243 0-.294.077-.64.295a6.407 6.407 0 0 1-3.29 1.28 2.456 2.456 0 0 1-2.201-1.28l-.256-.423c-1.766-2.918 2.56-4.864 2.56-4.864.909-.55.422-.256.883-2.112a7.843 7.843 0 0 1 2.624-3.481l32.755-17.242Zm0-2.56a2.446 2.446 0 0 0-1.19.294l-32.768 17.268a2.247 2.247 0 0 0-.346.217 9.972 9.972 0 0 0-3.57 4.928 9.559 9.559 0 0 0-.167.755 7.528 7.528 0 0 0-3.546 3.968 5.12 5.12 0 0 0 .576 4.186l.256.422a4.989 4.989 0 0 0 4.39 2.56 8.059 8.059 0 0 0 4.212-1.395c.205.064.46.141.742.205a6.032 6.032 0 0 0 1.549.179 9.126 9.126 0 0 0 1.69-.166 13.544 13.544 0 0 0 18.688 4.173 13.541 13.541 0 0 0 4.172-18.688 1.895 1.895 0 0 1-.128-.205l10.855-7.527a2.557 2.557 0 0 0 .729-3.43l-1.984-3.251-1.971-3.213a2.554 2.554 0 0 0-2.189-1.28Z"/><g filter="url(#q)"><circle cx="487" cy="717" r="32" fill="#AB281A"/></g><path fill="#E0E0E0" d="M494.647 709.078a1.889 1.889 0 0 0 1.314-.602 1.872 1.872 0 0 0 .498-1.356 1.821 1.821 0 0 0-1.076-1.813 1.813 1.813 0 0 0-1.458 0 1.797 1.797 0 0 0-.985 1.074 1.817 1.817 0 0 0-.091.739 1.875 1.875 0 0 0 .489 1.355 1.863 1.863 0 0 0 1.309.603Z"/><path fill="#E0E0E0" d="m512.945 718.305-4.302-.626 1.718-8.416a.91.91 0 0 0-.2-.812.937.937 0 0 0-.719-.347h-3.528a.919.919 0 0 0-.906.72l-1.971 7.989-1.411-.213c-.493-3.023-3.369-18.802-11.918-18.802-2.414.24-4.777.851-7.005 1.811-1.225-.32-5.22-1.265-7.417-.48-2.197.786-8.203 13.583-10.653 19.043a.936.936 0 0 0 0 .732.913.913 0 0 0 .52.519c.106 0 1.198.466 2.663.999-.812 1.691-2.996 6.432-2.797 9.468.187 2.663 1.332 3.209 2.357 3.209l24.675.173a.935.935 0 0 0 .933-.825c0-.28.585-5.7-1.332-9.042a41.977 41.977 0 0 0 2.517-.426c.945 1.464 3.595 5.007 6.764 5.007h.4c2.503-.24 4.581-2.664 6.192-7.258l5.326-.799a.81.81 0 0 0 .654-1.353.807.807 0 0 0-.56-.271Zm-6.326-8.296h1.678l-1.505 7.404-1.917-.293 1.744-7.111Zm-14.301 10.746-.267-3.662 13.396 1.931-13.129 1.731Zm-16.379-19.974c1.571-.533 5.326.293 6.565.665a1 1 0 0 0 .626 0 23.177 23.177 0 0 1 6.578-1.784c5.939 0 9.055 11.226 9.974 16.699l-8.643-1.332a.814.814 0 0 0-.918.839l.292 5.739h-.479c-1.332 0-3.862-3.622-5.446-6.991a.948.948 0 0 0-1.718 0c-2.53 6.432-4.141 6.245-6.592 5.952-.226 0-.452-.066-.692-.079a48.34 48.34 0 0 1-8.656-2.664c3.596-7.91 7.897-16.325 9.109-16.991v-.053Zm15.247 30.627-23.796-.173c-.093 0-.413-.147-.506-1.478-.16-2.437 1.744-6.818 2.756-8.776a31.57 31.57 0 0 0 5.646 1.478l.653.08c3.009.36 5.246.16 7.763-5.326 1.265 2.357 3.569 5.886 5.766 6.285 1.665 1.718 1.798 5.699 1.718 7.897v.013Zm10.027-5.327c-1.931.187-3.902-1.957-5.034-3.555l1.332-.333 7.923-1.198c-1.198 3.209-2.663 4.953-4.221 5.113v-.027Z"/><g filter="url(#r)"><circle cx="487" cy="33" r="32" fill="#1F1F1F"/></g><path fill="#E0E0E0" d="M494.647 25.078a1.875 1.875 0 0 0 1.698-1.23 1.88 1.88 0 0 0 .114-.727 1.822 1.822 0 0 0-1.076-1.813 1.812 1.812 0 0 0-2.534 1.813 1.873 1.873 0 0 0 1.083 1.788c.225.103.468.161.715.17Z"/><path fill="#E0E0E0" d="m512.945 34.308-4.302-.625 1.718-8.416a.909.909 0 0 0-.2-.813.926.926 0 0 0-.719-.346h-3.528a.916.916 0 0 0-.906.72l-1.971 7.989-1.411-.213c-.493-3.023-3.369-18.802-11.918-18.802-2.414.24-4.777.85-7.005 1.81-1.225-.32-5.22-1.265-7.417-.479-2.197.786-8.203 13.583-10.653 19.042a.94.94 0 0 0 0 .733.905.905 0 0 0 .52.519c.106 0 1.198.466 2.663.999-.812 1.69-2.996 6.431-2.797 9.468.187 2.663 1.332 3.209 2.357 3.209l24.675.173a.936.936 0 0 0 .933-.826c0-.28.585-5.7-1.332-9.042a41.506 41.506 0 0 0 2.517-.426c.945 1.465 3.595 5.007 6.764 5.007h.4c2.503-.24 4.581-2.663 6.192-7.257l5.326-.799a.812.812 0 1 0 .094-1.625Zm-6.326-8.296h1.678l-1.505 7.404-1.917-.293 1.744-7.11ZM492.318 36.76l-.267-3.662 13.396 1.93-13.129 1.732Zm-16.379-19.975c1.571-.532 5.326.293 6.565.666a.999.999 0 0 0 .626 0 23.161 23.161 0 0 1 6.578-1.784c5.939 0 9.055 11.225 9.974 16.698l-8.643-1.331a.812.812 0 0 0-.918.838l.292 5.74h-.479c-1.332 0-3.862-3.622-5.446-6.991a.95.95 0 0 0-.859-.55.944.944 0 0 0-.859.55c-2.53 6.432-4.141 6.245-6.592 5.952-.226 0-.452-.066-.692-.08a48.297 48.297 0 0 1-8.656-2.663c3.596-7.91 7.897-16.326 9.109-16.992v-.053Zm15.247 30.628-23.796-.173c-.093 0-.413-.147-.506-1.479-.16-2.436 1.744-6.817 2.756-8.775a31.612 31.612 0 0 0 5.646 1.478l.653.08c3.009.36 5.246.16 7.763-5.326 1.265 2.357 3.569 5.885 5.766 6.285 1.665 1.717 1.798 5.7 1.718 7.896v.014Zm10.027-5.327c-1.931.187-3.902-1.957-5.034-3.555l1.332-.333 7.923-1.199c-1.198 3.21-2.663 4.954-4.221 5.114v-.027Z"/><g filter="url(#s)"><circle cx="184" cy="717" r="32" fill="#AB281A"/></g><path fill="#E0E0E0" d="M191.644 709.078a1.87 1.87 0 0 0 1.314-.602 1.872 1.872 0 0 0 .498-1.356 1.816 1.816 0 0 0-.47-1.38 1.81 1.81 0 0 0-3.139 1.38 1.856 1.856 0 0 0 .488 1.355 1.863 1.863 0 0 0 1.309.603Z"/><path fill="#E0E0E0" d="m209.942 718.305-4.301-.626 1.717-8.416a.905.905 0 0 0-.199-.812.933.933 0 0 0-.719-.346h-3.529a.917.917 0 0 0-.906.719l-1.97 7.989-1.412-.213c-.493-3.022-3.369-18.802-11.918-18.802a23.63 23.63 0 0 0-7.004 1.811c-1.225-.32-5.22-1.265-7.417-.48-2.198.786-8.203 13.583-10.653 19.043a.918.918 0 0 0 0 .732.91.91 0 0 0 .519.519c.106 0 1.198.466 2.663.999-.812 1.691-2.996 6.432-2.796 9.468.186 2.663 1.331 3.209 2.357 3.209l24.675.173a.93.93 0 0 0 .932-.825c0-.28.586-5.7-1.332-9.042a41.977 41.977 0 0 0 2.517-.426c.945 1.465 3.595 5.007 6.765 5.007h.399c2.504-.24 4.581-2.664 6.192-7.258l5.327-.799a.815.815 0 0 0 .093-1.624Zm-6.325-8.296h1.677l-1.504 7.404-1.918-.293 1.745-7.111Zm-14.302 10.746-.266-3.662 13.396 1.931-13.13 1.731Zm-16.379-19.974c1.571-.533 5.327.293 6.565.665a.986.986 0 0 0 .626 0 23.186 23.186 0 0 1 6.578-1.784c5.939 0 9.055 11.226 9.974 16.699l-8.642-1.332a.818.818 0 0 0-.655.205.797.797 0 0 0-.202.288.802.802 0 0 0-.062.346l.293 5.739h-.48c-1.331 0-3.861-3.622-5.446-6.991a.948.948 0 0 0-1.369-.401.955.955 0 0 0-.349.401c-2.53 6.432-4.141 6.246-6.591 5.953-.227 0-.453-.067-.693-.08a48.304 48.304 0 0 1-8.655-2.664c3.595-7.909 7.896-16.325 9.108-16.991v-.053Zm15.247 30.627-23.796-.173c-.093 0-.413-.147-.506-1.478-.16-2.437 1.744-6.818 2.757-8.776a31.526 31.526 0 0 0 5.646 1.478l.652.08c3.01.36 5.247.16 7.763-5.326 1.265 2.357 3.569 5.886 5.766 6.285 1.665 1.718 1.798 5.699 1.718 7.897v.013Zm10.027-5.327c-1.931.187-3.901-1.957-5.033-3.555l1.331-.333 7.923-1.198c-1.198 3.209-2.663 4.953-4.221 5.113v-.027Z"/><g filter="url(#t)"><circle cx="184" cy="33" r="32" fill="#1F1F1F"/></g><path fill="#E0E0E0" d="M191.644 25.079a1.875 1.875 0 0 0 1.698-1.23c.086-.233.124-.48.114-.728a1.819 1.819 0 0 0-.47-1.38 1.813 1.813 0 0 0-3.049.64c-.081.238-.112.49-.09.74a1.854 1.854 0 0 0 .488 1.355 1.88 1.88 0 0 0 1.309.603Z"/><path fill="#E0E0E0" d="m209.942 34.309-4.301-.626 1.717-8.416a.896.896 0 0 0-.199-.813.939.939 0 0 0-.719-.346h-3.529a.918.918 0 0 0-.906.72l-1.97 7.99-1.412-.214c-.493-3.023-3.369-18.802-11.918-18.802-2.414.24-4.776.851-7.004 1.81-1.225-.32-5.22-1.264-7.417-.479-2.198.786-8.203 13.583-10.653 19.042a.923.923 0 0 0 0 .733.904.904 0 0 0 .519.519c.106 0 1.198.466 2.663.999-.812 1.69-2.996 6.431-2.796 9.468.186 2.663 1.331 3.209 2.357 3.209l24.675.173a.931.931 0 0 0 .932-.826c0-.28.586-5.699-1.332-9.041a41.506 41.506 0 0 0 2.517-.426c.945 1.464 3.595 5.006 6.765 5.006h.399c2.504-.24 4.581-2.663 6.192-7.257l5.327-.799a.814.814 0 0 0 .093-1.624Zm-6.325-8.296h1.677l-1.504 7.403-1.918-.293 1.745-7.11Zm-14.302 10.746-.266-3.662 13.396 1.93-13.13 1.732Zm-16.379-19.975c1.571-.532 5.327.293 6.565.666a1 1 0 0 0 .626 0 23.164 23.164 0 0 1 6.578-1.784c5.939 0 9.055 11.225 9.974 16.698l-8.642-1.331a.815.815 0 0 0-.857.493.805.805 0 0 0-.062.346l.293 5.739h-.48c-1.331 0-3.861-3.622-5.446-6.991a.943.943 0 0 0-1.369-.401.95.95 0 0 0-.349.4c-2.53 6.433-4.141 6.246-6.591 5.953-.227 0-.453-.066-.693-.08a48.261 48.261 0 0 1-8.655-2.663c3.595-7.91 7.896-16.326 9.108-16.991v-.054Zm15.247 30.628-23.796-.173c-.093 0-.413-.147-.506-1.479-.16-2.436 1.744-6.817 2.757-8.775a31.568 31.568 0 0 0 5.646 1.478l.652.08c3.01.36 5.247.16 7.763-5.326 1.265 2.357 3.569 5.885 5.766 6.285 1.665 1.718 1.798 5.7 1.718 7.896v.014Zm10.027-5.327c-1.931.187-3.901-1.957-5.033-3.555l1.331-.333 7.923-1.199c-1.198 3.21-2.663 4.954-4.221 5.114v-.027Z"/><g filter="url(#u)"><circle cx="335" cy="717" r="32" fill="#AB281A"/></g><path fill="#E0E0E0" d="m331.105 724.009 3.862 2.407 3.847-2.407-3.847-2.406-3.862 2.406Z"/><path fill="#E0E0E0" d="M357.284 709.934a8.072 8.072 0 0 0-8.242-5.764 13.54 13.54 0 0 0-8.198 3.026 7.294 7.294 0 0 0-2.651-3.343h2.017v-10.489h-10.489v10.489h2.046a7.213 7.213 0 0 0-2.695 3.343 13.544 13.544 0 0 0-8.169-3.011 8.073 8.073 0 0 0-8.242 5.763c-1.858 6.613 3.631 11.527 7.377 13.601v10.086c.072 3.79 7.536 5.764 14.942 5.764 7.406 0 14.855-1.989 14.927-5.764v-10.086c3.746-2.06 9.235-7.002 7.377-13.615Zm-9.452 14.97-2.277 1.599 2.277 3.66v.317c-2.752-1.801-7.824-2.723-12.867-2.723-5.043 0-10.085.922-12.881 2.723v-.317l2.291-3.66-2.291-1.599v-.519l.879-.691c3.53-2.767 10.389-2.954 10.461-2.954h3.04s6.916.245 10.446 3.011l.879.692.043.461Zm-12.867-8.487a18.015 18.015 0 0 0-4.25-7.679 4.58 4.58 0 0 1 4.25-3.689 4.57 4.57 0 0 1 4.222 3.689 18.07 18.07 0 0 0-4.222 7.679Zm1.456-17.808 1.772-1.7v3.4l-1.772-1.7Zm-1.441-1.441-1.729-1.729h3.415l-1.686 1.729Zm-1.441 1.441-1.743 1.7v-3.4l1.743 1.7Zm1.441 1.441 1.7 1.7h-3.429l1.729-1.7Zm-20.359 10.446a6.063 6.063 0 0 1 6.282-4.164c4.827 0 10.835 3.89 12.477 12.347 0 0-7.535.217-11.67 3.458-.029-.072-9.121-4.365-7.089-11.641Zm20.344 26.77c-7.867 0-12.881-2.219-12.881-3.746 0-1.527 5.014-3.761 12.881-3.761s12.867 2.219 12.867 3.761c0 1.542-5.014 3.746-12.867 3.746Zm13.314-15.201c-4.136-3.241-11.671-3.458-11.671-3.458 1.585-8.457 7.607-12.275 12.434-12.275a6.06 6.06 0 0 1 3.866 1.026 6.06 6.06 0 0 1 2.387 3.21c2.032 7.204-7.016 11.497-7.016 11.497Z"/><g filter="url(#v)"><circle cx="336" cy="33" r="32" fill="#1F1F1F"/></g><path fill="#E0E0E0" d="m332.105 40.012 3.862 2.406 3.847-2.406-3.847-2.407-3.862 2.407Z"/><path fill="#E0E0E0" d="M358.284 25.933a8.072 8.072 0 0 0-8.242-5.763 13.542 13.542 0 0 0-8.198 3.025 7.295 7.295 0 0 0-2.651-3.342h2.017V9.363h-10.489v10.49h2.046a7.209 7.209 0 0 0-2.695 3.342 13.542 13.542 0 0 0-8.169-3.011 8.073 8.073 0 0 0-8.242 5.763c-1.858 6.614 3.631 11.527 7.377 13.602v10.085c.072 3.79 7.536 5.764 14.942 5.764 7.406 0 14.855-1.989 14.927-5.764V39.55c3.746-2.06 9.235-7.003 7.377-13.616Zm-9.452 14.97-2.277 1.6 2.277 3.66v.316c-2.752-1.801-7.824-2.723-12.867-2.723-5.043 0-10.085.922-12.881 2.723v-.317l2.291-3.66-2.291-1.599v-.519l.879-.691c3.53-2.767 10.389-2.954 10.461-2.954h3.04s6.916.245 10.446 3.011l.879.692.043.461Zm-12.867-8.486a18.02 18.02 0 0 0-4.25-7.68 4.58 4.58 0 0 1 4.25-3.688 4.57 4.57 0 0 1 4.222 3.688 18.074 18.074 0 0 0-4.222 7.68Zm1.456-17.809 1.772-1.7v3.4l-1.772-1.7Zm-1.441-1.44-1.729-1.73h3.415l-1.686 1.73Zm-1.441 1.44-1.743 1.7v-3.4l1.743 1.7Zm1.441 1.44 1.7 1.701h-3.429l1.729-1.7Zm-20.359 10.447a6.063 6.063 0 0 1 6.282-4.164c4.827 0 10.835 3.89 12.477 12.348 0 0-7.535.216-11.67 3.458-.029-.072-9.121-4.366-7.089-11.642Zm20.344 26.77c-7.867 0-12.881-2.219-12.881-3.746 0-1.527 5.014-3.76 12.881-3.76s12.867 2.218 12.867 3.76c0 1.542-5.014 3.746-12.867 3.746Zm13.314-15.2c-4.136-3.242-11.671-3.458-11.671-3.458 1.585-8.458 7.607-12.276 12.434-12.276a6.064 6.064 0 0 1 6.253 4.236c2.032 7.204-7.016 11.498-7.016 11.498Z"/><g filter="url(#w)"><circle cx="33" cy="487" r="32" fill="#AB281A"/></g><path fill="#E0E0E0" d="M47.546 499.899a8.425 8.425 0 0 0-5.475-3.271c-1.067-1.572-5.616-8.634-5.616-14.825h6.15l.084-.899c0-.14.238-3.369-4.647-5.615a7.514 7.514 0 0 0 1.32-4.114 6.318 6.318 0 0 0-12.636 0 7.511 7.511 0 0 0 1.404 4.114c-4.885 2.246-4.66 5.475-4.66 5.615l.083.899h6.164c0 6.191-4.563 13.253-5.616 14.825a8.429 8.429 0 0 0-5.616 3.271 8.929 8.929 0 0 0-1.404 6.121l.14.814h31.547l.14-.814a8.79 8.79 0 0 0-1.362-6.121Zm-17.563-23.333 1.404-.533-1.095-1.095a5.982 5.982 0 0 1-1.586-3.833 4.333 4.333 0 0 1 1.177-3.226 4.346 4.346 0 0 1 3.154-1.359 4.35 4.35 0 0 1 3.153 1.359 4.337 4.337 0 0 1 1.178 3.226 6.08 6.08 0 0 1-1.629 3.833l-1.109 1.095 1.474.533c2.892 1.039 3.974 2.345 4.367 3.201H25.617c.393-.856 1.474-2.162 4.366-3.201Zm-10.936 28.233a6.542 6.542 0 0 1 1.095-3.833 6.717 6.717 0 0 1 4.619-2.471l.393-.07.239-.323c.252-.351 6.219-8.69 6.219-16.299h2.808c0 7.609 5.98 15.948 6.233 16.299l.239.323.393.07a6.73 6.73 0 0 1 4.605 2.527 6.585 6.585 0 0 1 1.095 3.847l-27.938-.07Z"/><g filter="url(#x)"><circle cx="33" cy="258.734" r="32" fill="#1F1F1F"/></g><path fill="#E0E0E0" d="M47.546 271.631a8.425 8.425 0 0 0-5.475-3.271c-1.067-1.572-5.616-8.634-5.616-14.825h6.15l.084-.899c0-.14.238-3.369-4.647-5.615a7.514 7.514 0 0 0 1.32-4.114 6.318 6.318 0 0 0-12.636 0 7.511 7.511 0 0 0 1.404 4.114c-4.885 2.246-4.66 5.475-4.66 5.615l.083.899h6.164c0 6.191-4.563 13.253-5.616 14.825a8.429 8.429 0 0 0-5.616 3.271 8.929 8.929 0 0 0-1.404 6.121l.14.815h31.547l.14-.815a8.79 8.79 0 0 0-1.362-6.121Zm-17.563-23.333 1.404-.533-1.095-1.095a5.982 5.982 0 0 1-1.586-3.833 4.335 4.335 0 0 1 2.614-4.23 4.334 4.334 0 0 1 5.792 2.496c.202.554.29 1.145.256 1.734a6.078 6.078 0 0 1-1.629 3.833l-1.109 1.095 1.474.533c2.892 1.039 3.974 2.345 4.367 3.201H25.617c.393-.856 1.474-2.162 4.366-3.201Zm-10.936 28.233c-.043-1.36.34-2.7 1.095-3.833a6.709 6.709 0 0 1 4.619-2.471l.393-.07.239-.323c.252-.351 6.219-8.69 6.219-16.299h2.808c0 7.609 5.98 15.948 6.233 16.299l.239.323.393.07a6.733 6.733 0 0 1 4.605 2.527 6.585 6.585 0 0 1 1.095 3.847l-27.938-.07Z"/><g filter="url(#y)"><circle cx="184" cy="487" r="32" fill="#AB281A"/></g><path fill="#E0E0E0" d="M198.544 499.899a8.423 8.423 0 0 0-5.475-3.271c-1.067-1.572-5.616-8.634-5.616-14.825h6.15l.084-.899c0-.14.238-3.369-4.647-5.615a7.52 7.52 0 0 0 1.32-4.114 6.318 6.318 0 0 0-12.636 0 7.518 7.518 0 0 0 1.404 4.114c-4.885 2.246-4.661 5.475-4.661 5.615l.084.899h6.164c0 6.191-4.563 13.253-5.616 14.825a8.43 8.43 0 0 0-5.616 3.271 8.936 8.936 0 0 0-1.404 6.121l.141.814h31.546l.14-.814a8.786 8.786 0 0 0-1.362-6.121Zm-17.563-23.333 1.404-.533-1.095-1.095a5.98 5.98 0 0 1-1.586-3.833 4.334 4.334 0 0 1 6.048-4.231 4.342 4.342 0 0 1 2.614 4.231 6.079 6.079 0 0 1-1.629 3.833l-1.109 1.095 1.474.533c2.893 1.039 3.974 2.345 4.367 3.201h-14.854c.393-.856 1.474-2.162 4.366-3.201Zm-10.936 28.233a6.538 6.538 0 0 1 1.095-3.833 6.732 6.732 0 0 1 2.058-1.705 6.723 6.723 0 0 1 2.561-.766l.393-.07.239-.323c.252-.351 6.219-8.69 6.219-16.299h2.808c0 7.609 5.98 15.948 6.233 16.299l.239.323.393.07a6.736 6.736 0 0 1 4.605 2.527 6.59 6.59 0 0 1 1.095 3.847l-27.938-.07Z"/><g filter="url(#z)"><circle cx="184" cy="259" r="32" fill="#1F1F1F"/></g><path fill="#E0E0E0" d="M198.544 271.897a8.423 8.423 0 0 0-5.475-3.271c-1.067-1.572-5.616-8.634-5.616-14.825h6.15l.084-.899c0-.14.238-3.369-4.647-5.615a7.52 7.52 0 0 0 1.32-4.114 6.318 6.318 0 0 0-12.636 0 7.518 7.518 0 0 0 1.404 4.114c-4.885 2.246-4.661 5.475-4.661 5.615l.084.899h6.164c0 6.191-4.563 13.253-5.616 14.825a8.43 8.43 0 0 0-5.616 3.271 8.936 8.936 0 0 0-1.404 6.121l.141.815h31.546l.14-.815a8.786 8.786 0 0 0-1.362-6.121Zm-17.563-23.333 1.404-.533-1.095-1.095a5.98 5.98 0 0 1-1.586-3.833 4.334 4.334 0 0 1 6.048-4.231 4.342 4.342 0 0 1 2.614 4.231 6.079 6.079 0 0 1-1.629 3.833l-1.109 1.095 1.474.533c2.893 1.039 3.974 2.345 4.367 3.201h-14.854c.393-.856 1.474-2.162 4.366-3.201Zm-10.936 28.233a6.538 6.538 0 0 1 1.095-3.833 6.732 6.732 0 0 1 2.058-1.705 6.723 6.723 0 0 1 2.561-.766l.393-.07.239-.323c.252-.351 6.219-8.69 6.219-16.299h2.808c0 7.609 5.98 15.948 6.233 16.299l.239.323.393.07a6.736 6.736 0 0 1 4.605 2.527 6.59 6.59 0 0 1 1.095 3.847l-27.938-.07Z"/><g filter="url(#A)"><circle cx="336" cy="487" r="32" fill="#AB281A"/></g><path fill="#E0E0E0" d="M350.545 499.899a8.425 8.425 0 0 0-5.476-3.271c-1.067-1.572-5.615-8.634-5.615-14.825h6.149l.084-.899c0-.14.239-3.369-4.647-5.615a7.52 7.52 0 0 0 1.32-4.114 6.318 6.318 0 0 0-12.635 0 7.51 7.51 0 0 0 1.403 4.114c-4.885 2.246-4.661 5.475-4.661 5.615l.085.899h6.163c0 6.191-4.563 13.253-5.616 14.825a8.43 8.43 0 0 0-5.615 3.271 8.926 8.926 0 0 0-1.404 6.121l.14.815h31.546l.14-.815a8.786 8.786 0 0 0-1.361-6.121Zm-17.563-23.333 1.404-.533-1.095-1.095a5.98 5.98 0 0 1-1.587-3.833 4.352 4.352 0 0 1 1.178-3.226 4.342 4.342 0 0 1 3.153-1.359 4.347 4.347 0 0 1 3.154 1.359 4.334 4.334 0 0 1 1.177 3.226 6.077 6.077 0 0 1-1.628 3.833l-1.109 1.095 1.474.533c2.892 1.039 3.973 2.345 4.366 3.201h-14.854c.394-.856 1.475-2.162 4.367-3.201Zm-10.937 28.233a6.545 6.545 0 0 1 1.095-3.833 6.724 6.724 0 0 1 4.619-2.471l.393-.07.239-.323c.253-.351 6.219-8.69 6.219-16.299h2.808c0 7.609 5.981 15.948 6.233 16.299l.239.323.393.07a6.724 6.724 0 0 1 4.605 2.527 6.583 6.583 0 0 1 1.095 3.847l-27.938-.07Z"/><g filter="url(#B)"><circle cx="336" cy="259" r="32" fill="#1F1F1F"/></g><path fill="#E0E0E0" d="M350.545 271.897a8.425 8.425 0 0 0-5.476-3.271c-1.067-1.572-5.615-8.634-5.615-14.825h6.149l.084-.899c0-.14.239-3.369-4.647-5.615a7.52 7.52 0 0 0 1.32-4.114 6.318 6.318 0 0 0-12.635 0 7.51 7.51 0 0 0 1.403 4.114c-4.885 2.246-4.661 5.475-4.661 5.615l.085.899h6.163c0 6.191-4.563 13.253-5.616 14.825a8.43 8.43 0 0 0-5.615 3.271 8.926 8.926 0 0 0-1.404 6.121l.14.815h31.546l.14-.815a8.786 8.786 0 0 0-1.361-6.121Zm-17.563-23.333 1.404-.533-1.095-1.095a5.98 5.98 0 0 1-1.587-3.833 4.352 4.352 0 0 1 1.178-3.226 4.342 4.342 0 0 1 3.153-1.359 4.347 4.347 0 0 1 3.154 1.359 4.343 4.343 0 0 1 1.177 3.226 6.077 6.077 0 0 1-1.628 3.833l-1.109 1.095 1.474.533c2.892 1.039 3.973 2.345 4.366 3.201h-14.854c.394-.856 1.475-2.162 4.367-3.201Zm-10.937 28.233c-.042-1.36.34-2.7 1.095-3.833a6.724 6.724 0 0 1 4.619-2.471l.393-.07.239-.323c.253-.351 6.219-8.69 6.219-16.299h2.808c0 7.609 5.981 15.948 6.233 16.299l.239.323.393.07a6.73 6.73 0 0 1 4.605 2.527 6.583 6.583 0 0 1 1.095 3.847l-27.938-.07Z"/><g filter="url(#C)"><circle cx="487" cy="487" r="32" fill="#AB281A"/></g><path fill="#E0E0E0" d="M501.545 499.899a8.425 8.425 0 0 0-5.475-3.271c-1.067-1.572-5.616-8.634-5.616-14.825h6.149l.084-.899c0-.14.239-3.369-4.647-5.615a7.511 7.511 0 0 0 1.32-4.114 6.321 6.321 0 0 0-6.318-6.318 6.318 6.318 0 0 0-6.317 6.318 7.51 7.51 0 0 0 1.404 4.114c-4.886 2.246-4.661 5.475-4.661 5.615l.084.899h6.163c0 6.191-4.563 13.253-5.616 14.825a8.425 8.425 0 0 0-5.615 3.271 8.926 8.926 0 0 0-1.404 6.121l.14.814h31.546l.141-.814a8.791 8.791 0 0 0-1.362-6.121Zm-17.563-23.333 1.404-.533-1.095-1.095a5.986 5.986 0 0 1-1.587-3.833 4.352 4.352 0 0 1 1.178-3.226 4.342 4.342 0 0 1 3.153-1.359 4.347 4.347 0 0 1 3.154 1.359 4.334 4.334 0 0 1 1.177 3.226 6.077 6.077 0 0 1-1.628 3.833l-1.109 1.095 1.474.533c2.892 1.039 3.973 2.345 4.366 3.201h-14.853c.393-.856 1.474-2.162 4.366-3.201Zm-10.937 28.233a6.552 6.552 0 0 1 1.095-3.833 6.724 6.724 0 0 1 4.619-2.471l.393-.07.239-.323c.253-.351 6.219-8.69 6.219-16.299h2.808c0 7.609 5.981 15.948 6.234 16.299l.238.323.393.07a6.718 6.718 0 0 1 4.605 2.527 6.583 6.583 0 0 1 1.095 3.847l-27.938-.07Z"/><g filter="url(#D)"><circle cx="487" cy="258" r="32" fill="#1F1F1F"/></g><path fill="#E0E0E0" d="M501.545 270.897a8.425 8.425 0 0 0-5.475-3.271c-1.067-1.572-5.616-8.634-5.616-14.825h6.149l.084-.899c0-.14.239-3.369-4.647-5.615a7.511 7.511 0 0 0 1.32-4.114 6.318 6.318 0 0 0-12.635 0 7.51 7.51 0 0 0 1.404 4.114c-4.886 2.246-4.661 5.475-4.661 5.615l.084.899h6.163c0 6.191-4.563 13.253-5.616 14.825a8.425 8.425 0 0 0-5.615 3.271 8.926 8.926 0 0 0-1.404 6.121l.14.815h31.546l.141-.815a8.791 8.791 0 0 0-1.362-6.121Zm-17.563-23.333 1.404-.533-1.095-1.095a5.986 5.986 0 0 1-1.587-3.833 4.352 4.352 0 0 1 1.178-3.226 4.342 4.342 0 0 1 3.153-1.359 4.347 4.347 0 0 1 3.154 1.359 4.334 4.334 0 0 1 1.177 3.226 6.077 6.077 0 0 1-1.628 3.833l-1.109 1.095 1.474.533c2.892 1.039 3.973 2.345 4.366 3.201h-14.853c.393-.856 1.474-2.162 4.366-3.201Zm-10.937 28.233a6.552 6.552 0 0 1 1.095-3.833 6.724 6.724 0 0 1 4.619-2.471l.393-.07.239-.323c.253-.351 6.219-8.69 6.219-16.299h2.808c0 7.609 5.981 15.948 6.234 16.299l.238.323.393.07a6.718 6.718 0 0 1 4.605 2.527 6.583 6.583 0 0 1 1.095 3.847l-27.938-.07Z"/><g filter="url(#E)"><circle cx="639" cy="487" r="32" fill="#AB281A"/></g><path fill="#E0E0E0" d="M653.545 499.899a8.425 8.425 0 0 0-5.475-3.271c-1.067-1.572-5.616-8.634-5.616-14.825h6.149l.085-.899c0-.14.238-3.369-4.647-5.615a7.51 7.51 0 0 0 1.319-4.114 6.317 6.317 0 1 0-12.635 0 7.51 7.51 0 0 0 1.404 4.114c-4.886 2.246-4.661 5.475-4.661 5.615l.084.899h6.163c0 6.191-4.562 13.253-5.615 14.825a8.43 8.43 0 0 0-5.616 3.271 8.93 8.93 0 0 0-1.404 6.121l.141.814h31.545l.141-.814a8.791 8.791 0 0 0-1.362-6.121Zm-17.563-23.333 1.404-.533-1.095-1.095a5.98 5.98 0 0 1-1.586-3.833 4.334 4.334 0 0 1 6.048-4.231 4.342 4.342 0 0 1 2.614 4.231 6.084 6.084 0 0 1-1.629 3.833l-1.109 1.095 1.474.533c2.892 1.039 3.973 2.345 4.366 3.201h-14.853c.393-.856 1.474-2.162 4.366-3.201Zm-10.936 28.233a6.538 6.538 0 0 1 1.095-3.833 6.718 6.718 0 0 1 4.619-2.471l.393-.07.238-.323c.253-.351 6.22-8.69 6.22-16.299h2.807c0 7.609 5.981 15.948 6.234 16.299l.239.323.393.07a6.718 6.718 0 0 1 4.604 2.527 6.584 6.584 0 0 1 1.096 3.847l-27.938-.07Z"/><g filter="url(#F)"><circle cx="639" cy="258" r="32" fill="#1F1F1F"/></g><path fill="#E0E0E0" d="M653.545 270.897a8.425 8.425 0 0 0-5.475-3.271c-1.067-1.572-5.616-8.634-5.616-14.825h6.149l.085-.899c0-.14.238-3.369-4.647-5.616a7.504 7.504 0 0 0 1.319-4.113 6.315 6.315 0 0 0-6.317-6.318 6.319 6.319 0 0 0-6.318 6.318 7.505 7.505 0 0 0 1.404 4.113c-4.886 2.247-4.661 5.476-4.661 5.616l.084.899h6.163c0 6.191-4.562 13.253-5.615 14.825a8.43 8.43 0 0 0-5.616 3.271 8.93 8.93 0 0 0-1.404 6.121l.141.814h31.545l.141-.814a8.791 8.791 0 0 0-1.362-6.121Zm-17.563-23.333 1.404-.533-1.095-1.096a5.975 5.975 0 0 1-1.586-3.832 4.324 4.324 0 0 1 1.177-3.226 4.346 4.346 0 0 1 3.154-1.359 4.342 4.342 0 0 1 4.331 4.585 6.079 6.079 0 0 1-1.629 3.832l-1.109 1.096 1.474.533c2.892 1.039 3.973 2.345 4.366 3.201h-14.853c.393-.856 1.474-2.162 4.366-3.201Zm-10.936 28.233a6.538 6.538 0 0 1 1.095-3.833 6.718 6.718 0 0 1 4.619-2.471l.393-.07.238-.323c.253-.351 6.22-8.69 6.22-16.299h2.807c0 7.609 5.981 15.948 6.234 16.299l.239.323.393.07a6.734 6.734 0 0 1 4.604 2.527 6.584 6.584 0 0 1 1.096 3.847l-27.938-.07Z"/><path fill="#BFB3AD" d="M65.297 368.595h5.861v1.07h-5.861v-1.07Zm.015 3.753h5.862v1.07h-5.862v-1.07Zm-.015 3.768h5.877v1.07h-5.877v-1.07Zm-.574-11.227h7.009v13.212h-1.163v-12.095h-4.73v12.142h-1.116v-13.259Zm-6.544 2.419h5.862v1.117h-5.862v-1.117Zm2.528-3.334h1.116v14.251h-1.116v-14.251Zm-.062 4.017.775.263c-.558 2.512-1.752 5.536-2.977 7.102-.124-.325-.419-.791-.62-1.054 1.162-1.396 2.34-4.063 2.822-6.311Zm1.07 1.705c.45.434 2.046 2.295 2.419 2.729l-.73.962c-.433-.76-1.736-2.497-2.279-3.132l.59-.559Zm12.591 3.396h13.94v1.039h-13.94v-1.039Zm3.861-1.923H79.3v1.846c0 1.892-.45 3.938-4.047 5.241a3.576 3.576 0 0 0-.729-.884c3.272-1.147 3.644-2.884 3.644-4.373v-1.83Zm5.257-.015h1.148v7.087h-1.148v-7.087Zm-2.791-7.18h1.163v2.032h-1.163v-2.032Zm-6.125 1.365h13.444v.992H74.508v-.992Zm9.831 2.124.853-.558c1.085.729 2.326 1.799 2.915 2.59l-.915.62c-.542-.775-1.767-1.892-2.853-2.652Zm-5.024-1.705H80.4v1.38c0 1.628-.682 3.489-3.535 4.683-.14-.248-.512-.667-.745-.822 2.668-1.07 3.195-2.574 3.195-3.892v-1.349Zm-2.543 1.178 1.07.341c-.683 1.086-1.846 2.233-2.978 2.915a6.686 6.686 0 0 0-.775-.682c1.07-.62 2.171-1.644 2.683-2.574Zm5.815-1.225h1.1v4.388c0 .543-.108.838-.495 1.008-.388.171-.993.171-1.908.171a4.206 4.206 0 0 0-.372-.977c.667.016 1.256.016 1.442.016.186-.016.233-.062.233-.218v-4.388Zm12.142 6.094.76-.589c3.706 2.109 4.047 5.598 2.45 6.637-.512.326-.915.434-1.551.434-.341 0-.806-.015-1.272-.031-.015-.295-.124-.744-.325-1.054.527.062 1.054.062 1.395.062.372 0 .714-.031 1.008-.248 1.055-.698.713-3.334-2.465-5.211Zm1.597.512.822.434c-1.365 1.101-3.83 2.156-5.753 2.636a5.651 5.651 0 0 0-.652-.822c1.908-.403 4.342-1.302 5.583-2.248Zm1.039 1.411.837.465c-1.66 1.582-4.652 3.04-7.04 3.737a5.98 5.98 0 0 0-.698-.883c2.435-.59 5.381-1.923 6.9-3.319Zm-2.993-8.715h4.575v.931h-4.575v-.931Zm2.853 4.978.9.434c-1.706 1.21-4.528 2.187-6.839 2.76-.124-.201-.434-.651-.62-.853 2.31-.465 5.024-1.318 6.56-2.341Zm1.334.201c.915 3.164 2.9 5.629 5.939 6.622a3.798 3.798 0 0 0-.744.961c-3.164-1.194-5.149-3.799-6.157-7.35l.962-.233Zm4.497.667.946.698c-1.194.837-2.807 1.814-4.032 2.388l-.729-.605c1.194-.604 2.869-1.674 3.815-2.481Zm-9.847-2.853v1.783h8.482v-1.783h-8.482Zm-1.101-.899h10.715v3.582H92.108v-3.582Zm2.683-3.179 1.21.248a16 16 0 0 1-4.792 4.481 3.572 3.572 0 0 0-.791-.806c2.031-1.117 3.55-2.652 4.373-3.923Zm1.984 3.613h1.148v2.76h-1.148v-2.76Zm1.737-2.528h.248l.186-.046.791.511a10.866 10.866 0 0 1-2 2.466 9.059 9.059 0 0 0-.853-.543c.636-.558 1.318-1.519 1.628-2.155v-.233Zm13.336 1.163h8.653v1.055h-8.653v-1.055Zm2.125 2.45h4.435v.946h-4.435v-.946Zm0 2.373h4.435v.946h-4.435v-.946Zm-2.466 2.388h9.118v1.07h-9.118v-1.07Zm1.892-9.397h1.085v9.862h-1.085v-9.862Zm4.512 0h1.117v9.862h-1.117v-9.862Zm-.93 11.366.884-.573c1.008.821 2.264 2 2.853 2.791l-.93.667c-.574-.791-1.784-2.016-2.807-2.885Zm-10.483-8.373h4.994v1.07h-4.994v-1.07Zm2.094-3.009h1.116v14.251h-1.116v-14.251Zm-.031 3.706.713.249c-.45 2.496-1.442 5.582-2.497 7.164a7.149 7.149 0 0 0-.62-1.132c.993-1.396 1.985-4.094 2.404-6.281Zm1.054.807c.357.465 1.706 2.543 2.001 3.055l-.76.883c-.341-.821-1.411-2.791-1.83-3.458l.589-.48Zm4.668 6.265.977.542c-.791 1.117-2.016 2.218-3.226 2.962a6.019 6.019 0 0 0-.775-.76c1.178-.698 2.357-1.783 3.024-2.744ZM527.497 377h-1.948l-2.415-4.254-2.4 4.254h-1.933l3.429-5.688-3.21-5.407h1.932l2.182 3.973 2.197-3.973h1.932l-3.21 5.407 3.444 5.688Zm3.29 0h-1.683v-11.095h1.683V377Zm11.063 0h-1.792l-.763-2.228h-4.379l-.764 2.228h-1.792l4.067-11.095h1.356L541.85 377Zm-3.023-3.662-1.683-4.924-1.73 4.924h3.413Zm12.95 3.662h-1.543l-3.366-5.143-1.761-2.664V377h-1.683v-11.095h1.543l3.163 4.799 1.964 2.992v-7.791h1.683V377Zm10.529-4.301c0 .727-.078 1.335-.234 1.823-.145.489-.4.925-.763 1.309a3.98 3.98 0 0 1-1.387.966 4.563 4.563 0 0 1-1.668.297c-1.153 0-2.124-.395-2.914-1.185a3.553 3.553 0 0 1-.623-.826 3.572 3.572 0 0 1-.312-.935 8.65 8.65 0 0 1-.124-1.091 60.08 60.08 0 0 1-.016-1.605c0-.696.005-1.231.016-1.605.02-.384.062-.743.124-1.075.073-.343.182-.66.328-.951.145-.29.348-.566.607-.826.79-.789 1.761-1.184 2.914-1.184 1.122 0 2.031.322 2.728.966.706.644 1.142 1.47 1.309 2.478h-1.699c-.145-.613-.421-1.086-.826-1.418-.395-.343-.899-.514-1.512-.514-.322 0-.628.062-.919.187-.28.114-.519.28-.717.498a2.989 2.989 0 0 0-.343.483c-.083.167-.15.374-.202.624a8.69 8.69 0 0 0-.094.919c-.02.364-.031.837-.031 1.418 0 .582.011 1.06.031 1.434.021.364.052.67.094.919.052.25.119.458.202.624.083.166.198.327.343.483.198.208.437.374.717.498.291.115.597.172.919.172.748 0 1.351-.26 1.808-.779.374-.437.561-1.018.561-1.746v-.623h-2.369V371h4.052v1.699Zm10.432 3.865-.935.935-1.107-1.107c-.664.468-1.438.702-2.322.702-1.153 0-2.124-.395-2.914-1.185a3.553 3.553 0 0 1-.623-.826 3.572 3.572 0 0 1-.312-.935 8.84 8.84 0 0 1-.124-1.091 60.08 60.08 0 0 1-.016-1.605c0-.696.005-1.231.016-1.605a8.36 8.36 0 0 1 .124-1.075c.073-.343.182-.66.328-.951.145-.29.348-.566.607-.826.79-.789 1.761-1.184 2.914-1.184 1.164 0 2.141.395 2.93 1.184.249.25.447.515.592.795.146.281.25.592.312.935.073.343.114.712.125 1.107.02.394.031.935.031 1.62 0 1.164-.042 2.021-.125 2.572a3.131 3.131 0 0 1-.592 1.464l1.091 1.076Zm-2.057-5.112c0-.571-.011-1.039-.031-1.402a5.482 5.482 0 0 0-.094-.935 2.207 2.207 0 0 0-.187-.624 2.055 2.055 0 0 0-.343-.483 1.907 1.907 0 0 0-.732-.498 2.304 2.304 0 0 0-.92-.187c-.322 0-.628.062-.919.187-.291.114-.535.28-.732.498-.135.146-.25.307-.343.483a2.207 2.207 0 0 0-.187.624 8.127 8.127 0 0 0-.094.919 27.3 27.3 0 0 0-.031 1.418c0 .572.011 1.044.031 1.418.021.364.052.67.094.92.052.249.114.457.187.623.083.166.197.327.343.483.197.208.441.374.732.499s.597.187.919.187a1.9 1.9 0 0 0 1.138-.359l-1.169-1.168.935-.935 1.076 1.075c.135-.27.223-.603.264-.997.042-.406.063-.987.063-1.746Zm5.867 5.548h-1.683v-11.095h1.683V377Zm4.565 0h-1.901v-1.901h1.901V377Zm10.212-3.319c-.187 1.08-.639 1.922-1.356 2.524-.706.592-1.574.889-2.602.889-1.153 0-2.125-.395-2.914-1.185a3.53 3.53 0 0 1-.624-.826 3.534 3.534 0 0 1-.311-.935 8.646 8.646 0 0 1-.125-1.091c-.01-.384-.016-.919-.016-1.605 0-.696.006-1.231.016-1.605a8.18 8.18 0 0 1 .125-1.075c.072-.343.181-.66.327-.951.145-.29.348-.566.608-.826.789-.789 1.761-1.184 2.914-1.184 1.039 0 1.911.296 2.618.888.706.593 1.153 1.434 1.34 2.525h-1.714c-.135-.582-.395-1.044-.779-1.387-.385-.343-.873-.514-1.465-.514-.322 0-.629.062-.92.187a2.036 2.036 0 0 0-1.059.966 2.532 2.532 0 0 0-.203.639 8.46 8.46 0 0 0-.093.919c-.021.364-.032.837-.032 1.418 0 .582.011 1.06.032 1.434.02.364.051.67.093.919.052.25.119.458.203.624.083.166.197.327.342.483.198.208.437.374.717.498.291.115.598.172.92.172.602 0 1.096-.172 1.48-.514.384-.343.644-.805.779-1.387h1.699Zm9.816-2.229c0 .686-.01 1.226-.031 1.621-.01.395-.052.764-.125 1.106a3.297 3.297 0 0 1-.311.935 3.236 3.236 0 0 1-.592.795c-.79.79-1.767 1.185-2.93 1.185-1.153 0-2.125-.395-2.914-1.185a3.53 3.53 0 0 1-.624-.826 3.534 3.534 0 0 1-.311-.935 8.646 8.646 0 0 1-.125-1.091c-.01-.384-.015-.919-.015-1.605 0-.696.005-1.231.015-1.605a8.18 8.18 0 0 1 .125-1.075 3.98 3.98 0 0 1 .327-.951c.146-.29.348-.566.608-.826.789-.789 1.761-1.184 2.914-1.184 1.163 0 2.14.395 2.93 1.184.249.25.446.515.592.795.145.281.249.592.311.935.073.343.115.712.125 1.107.021.394.031.935.031 1.62Zm-1.683 0c0-.571-.01-1.039-.031-1.402a5.393 5.393 0 0 0-.093-.935 2.24 2.24 0 0 0-.187-.624 2.115 2.115 0 0 0-.343-.483 1.918 1.918 0 0 0-.733-.498 2.303 2.303 0 0 0-.919-.187c-.322 0-.629.062-.92.187-.29.114-.535.28-.732.498a2.312 2.312 0 0 0-.343.483 2.24 2.24 0 0 0-.187.624 8.4 8.4 0 0 0-.093.919c-.021.374-.031.847-.031 1.418 0 .572.01 1.044.031 1.418.021.364.052.67.093.92.052.249.115.457.187.623a2.084 2.084 0 0 0 1.075.982c.291.125.598.187.92.187.322 0 .628-.062.919-.187.291-.125.535-.291.733-.499.135-.156.244-.317.327-.483.093-.166.161-.369.203-.608.052-.249.083-.561.093-.935.021-.374.031-.846.031-1.418Zm13.97 5.548h-1.683v-7.418l-2.555 5.408h-1.247l-2.618-5.408V377h-1.683v-11.095h1.683l3.241 6.903 3.179-6.903h1.683V377Z"/><defs><filter id="q" width="64" height="68.929" x="455" y="682.536" color-interpolation-filters="sRGB" filterUnits="userSpaceOnUse"><feFlood flood-opacity="0" result="BackgroundImageFix"/><feBlend in="SourceGraphic" in2="BackgroundImageFix" result="shape"/><feColorMatrix in="SourceAlpha" result="hardAlpha" values="0 0 0 0 0 0 0 0 0 0 0 0 0 0 0 0 0 0 127 0"/><feOffset dy="-2.464"/><feGaussianBlur stdDeviation="2.464"/><feComposite in2="hardAlpha" k2="-1" k3="1" operator="arithmetic"/><feColorMatrix values="0 0 0 0 0 0 0 0 0 0 0 0 0 0 0 0 0 0 0.5 0"/><feBlend in2="shape" result="effect1_innerShadow_10908_22540"/><feColorMatrix in="SourceAlpha" result="hardAlpha" values="0 0 0 0 0 0 0 0 0 0 0 0 0 0 0 0 0 0 127 0"/><feOffset dy="2.464"/><feGaussianBlur stdDeviation="2.464"/><feComposite in2="hardAlpha" k2="-1" k3="1" operator="arithmetic"/><feColorMatrix values="0 0 0 0 1 0 0 0 0 1 0 0 0 0 1 0 0 0 0.4 0"/><feBlend in2="effect1_innerShadow_10908_22540" result="effect2_innerShadow_10908_22540"/></filter><filter id="a" width="64" height="68.929" x="228" y="682.536" color-interpolation-filters="sRGB" filterUnits="userSpaceOnUse"><feFlood flood-opacity="0" result="BackgroundImageFix"/><feBlend in="SourceGraphic" in2="BackgroundImageFix" result="shape"/><feColorMatrix in="SourceAlpha" result="hardAlpha" values="0 0 0 0 0 0 0 0 0 0 0 0 0 0 0 0 0 0 127 0"/><feOffset dy="-2.464"/><feGaussianBlur stdDeviation="2.464"/><feComposite in2="hardAlpha" k2="-1" k3="1" operator="arithmetic"/><feColorMatrix values="0 0 0 0 0 0 0 0 0 0 0 0 0 0 0 0 0 0 0.5 0"/><feBlend in2="shape" result="effect1_innerShadow_10908_22540"/><feColorMatrix in="SourceAlpha" result="hardAlpha" values="0 0 0 0 0 0 0 0 0 0 0 0 0 0 0 0 0 0 127 0"/><feOffset dy="2.464"/><feGaussianBlur stdDeviation="2.464"/><feComposite in2="hardAlpha" k2="-1" k3="1" operator="arithmetic"/><feColorMatrix values="0 0 0 0 1 0 0 0 0 1 0 0 0 0 1 0 0 0 0.4 0"/><feBlend in2="effect1_innerShadow_10908_22540" result="effect2_innerShadow_10908_22540"/></filter><filter id="c" width="64" height="68.929" x="379" y="682.536" color-interpolation-filters="sRGB" filterUnits="userSpaceOnUse"><feFlood flood-opacity="0" result="BackgroundImageFix"/><feBlend in="SourceGraphic" in2="BackgroundImageFix" result="shape"/><feColorMatrix in="SourceAlpha" result="hardAlpha" values="0 0 0 0 0 0 0 0 0 0 0 0 0 0 0 0 0 0 127 0"/><feOffset dy="-2.464"/><feGaussianBlur stdDeviation="2.464"/><feComposite in2="hardAlpha" k2="-1" k3="1" operator="arithmetic"/><feColorMatrix values="0 0 0 0 0 0 0 0 0 0 0 0 0 0 0 0 0 0 0.5 0"/><feBlend in2="shape" result="effect1_innerShadow_10908_22540"/><feColorMatrix in="SourceAlpha" result="hardAlpha" values="0 0 0 0 0 0 0 0 0 0 0 0 0 0 0 0 0 0 127 0"/><feOffset dy="2.464"/><feGaussianBlur stdDeviation="2.464"/><feComposite in2="hardAlpha" k2="-1" k3="1" operator="arithmetic"/><feColorMatrix values="0 0 0 0 1 0 0 0 0 1 0 0 0 0 1 0 0 0 0.4 0"/><feBlend in2="effect1_innerShadow_10908_22540" result="effect2_innerShadow_10908_22540"/></filter><filter id="d" width="64" height="68.929" x="380" y="-1.464" color-interpolation-filters="sRGB" filterUnits="userSpaceOnUse"><feFlood flood-opacity="0" result="BackgroundImageFix"/><feBlend in="SourceGraphic" in2="BackgroundImageFix" result="shape"/><feColorMatrix in="SourceAlpha" result="hardAlpha" values="0 0 0 0 0 0 0 0 0 0 0 0 0 0 0 0 0 0 127 0"/><feOffset dy="-2.464"/><feGaussianBlur stdDeviation="2.464"/><feComposite in2="hardAlpha" k2="-1" k3="1" operator="arithmetic"/><feColorMatrix values="0 0 0 0 0 0 0 0 0 0 0 0 0 0 0 0 0 0 0.5 0"/><feBlend in2="shape" result="effect1_innerShadow_10908_22540"/><feColorMatrix in="SourceAlpha" result="hardAlpha" values="0 0 0 0 0 0 0 0 0 0 0 0 0 0 0 0 0 0 127 0"/><feOffset dy="2.464"/><feGaussianBlur stdDeviation="2.464"/><feComposite in2="hardAlpha" k2="-1" k3="1" operator="arithmetic"/><feColorMatrix values="0 0 0 0 1 0 0 0 0 1 0 0 0 0 1 0 0 0 0.4 0"/><feBlend in2="effect1_innerShadow_10908_22540" result="effect2_innerShadow_10908_22540"/></filter><filter id="e" width="64" height="68.929" x="531" y="682.536" color-interpolation-filters="sRGB" filterUnits="userSpaceOnUse"><feFlood flood-opacity="0" result="BackgroundImageFix"/><feBlend in="SourceGraphic" in2="BackgroundImageFix" result="shape"/><feColorMatrix in="SourceAlpha" result="hardAlpha" values="0 0 0 0 0 0 0 0 0 0 0 0 0 0 0 0 0 0 127 0"/><feOffset dy="-2.464"/><feGaussianBlur stdDeviation="2.464"/><feComposite in2="hardAlpha" k2="-1" k3="1" operator="arithmetic"/><feColorMatrix values="0 0 0 0 0 0 0 0 0 0 0 0 0 0 0 0 0 0 0.5 0"/><feBlend in2="shape" result="effect1_innerShadow_10908_22540"/><feColorMatrix in="SourceAlpha" result="hardAlpha" values="0 0 0 0 0 0 0 0 0 0 0 0 0 0 0 0 0 0 127 0"/><feOffset dy="2.464"/><feGaussianBlur stdDeviation="2.464"/><feComposite in2="hardAlpha" k2="-1" k3="1" operator="arithmetic"/><feColorMatrix values="0 0 0 0 1 0 0 0 0 1 0 0 0 0 1 0 0 0 0.4 0"/><feBlend in2="effect1_innerShadow_10908_22540" result="effect2_innerShadow_10908_22540"/></filter><filter id="f" width="64" height="68.929" x="531" y="-1.464" color-interpolation-filters="sRGB" filterUnits="userSpaceOnUse"><feFlood flood-opacity="0" result="BackgroundImageFix"/><feBlend in="SourceGraphic" in2="BackgroundImageFix" result="shape"/><feColorMatrix in="SourceAlpha" result="hardAlpha" values="0 0 0 0 0 0 0 0 0 0 0 0 0 0 0 0 0 0 127 0"/><feOffset dy="-2.464"/><feGaussianBlur stdDeviation="2.464"/><feComposite in2="hardAlpha" k2="-1" k3="1" operator="arithmetic"/><feColorMatrix values="0 0 0 0 0 0 0 0 0 0 0 0 0 0 0 0 0 0 0.5 0"/><feBlend in2="shape" result="effect1_innerShadow_10908_22540"/><feColorMatrix in="SourceAlpha" result="hardAlpha" values="0 0 0 0 0 0 0 0 0 0 0 0 0 0 0 0 0 0 127 0"/><feOffset dy="2.464"/><feGaussianBlur stdDeviation="2.464"/><feComposite in2="hardAlpha" k2="-1" k3="1" operator="arithmetic"/><feColorMatrix values="0 0 0 0 1 0 0 0 0 1 0 0 0 0 1 0 0 0 0.4 0"/><feBlend in2="effect1_innerShadow_10908_22540" result="effect2_innerShadow_10908_22540"/></filter><filter id="g" width="64" height="68.929" x="77" y="682.536" color-interpolation-filters="sRGB" filterUnits="userSpaceOnUse"><feFlood flood-opacity="0" result="BackgroundImageFix"/><feBlend in="SourceGraphic" in2="BackgroundImageFix" result="shape"/><feColorMatrix in="SourceAlpha" result="hardAlpha" values="0 0 0 0 0 0 0 0 0 0 0 0 0 0 0 0 0 0 127 0"/><feOffset dy="-2.464"/><feGaussianBlur stdDeviation="2.464"/><feComposite in2="hardAlpha" k2="-1" k3="1" operator="arithmetic"/><feColorMatrix values="0 0 0 0 0 0 0 0 0 0 0 0 0 0 0 0 0 0 0.5 0"/><feBlend in2="shape" result="effect1_innerShadow_10908_22540"/><feColorMatrix in="SourceAlpha" result="hardAlpha" values="0 0 0 0 0 0 0 0 0 0 0 0 0 0 0 0 0 0 127 0"/><feOffset dy="2.464"/><feGaussianBlur stdDeviation="2.464"/><feComposite in2="hardAlpha" k2="-1" k3="1" operator="arithmetic"/><feColorMatrix values="0 0 0 0 1 0 0 0 0 1 0 0 0 0 1 0 0 0 0.4 0"/><feBlend in2="effect1_innerShadow_10908_22540" result="effect2_innerShadow_10908_22540"/></filter><filter id="h" width="64" height="68.929" x="76.238" y="-1.464" color-interpolation-filters="sRGB" filterUnits="userSpaceOnUse"><feFlood flood-opacity="0" result="BackgroundImageFix"/><feBlend in="SourceGraphic" in2="BackgroundImageFix" result="shape"/><feColorMatrix in="SourceAlpha" result="hardAlpha" values="0 0 0 0 0 0 0 0 0 0 0 0 0 0 0 0 0 0 127 0"/><feOffset dy="-2.464"/><feGaussianBlur stdDeviation="2.464"/><feComposite in2="hardAlpha" k2="-1" k3="1" operator="arithmetic"/><feColorMatrix values="0 0 0 0 0 0 0 0 0 0 0 0 0 0 0 0 0 0 0.5 0"/><feBlend in2="shape" result="effect1_innerShadow_10908_22540"/><feColorMatrix in="SourceAlpha" result="hardAlpha" values="0 0 0 0 0 0 0 0 0 0 0 0 0 0 0 0 0 0 127 0"/><feOffset dy="2.464"/><feGaussianBlur stdDeviation="2.464"/><feComposite in2="hardAlpha" k2="-1" k3="1" operator="arithmetic"/><feColorMatrix values="0 0 0 0 1 0 0 0 0 1 0 0 0 0 1 0 0 0 0.4 0"/><feBlend in2="effect1_innerShadow_10908_22540" result="effect2_innerShadow_10908_22540"/></filter><filter id="i" width="64" height="68.929" x="607" y="682.536" color-interpolation-filters="sRGB" filterUnits="userSpaceOnUse"><feFlood flood-opacity="0" result="BackgroundImageFix"/><feBlend in="SourceGraphic" in2="BackgroundImageFix" result="shape"/><feColorMatrix in="SourceAlpha" result="hardAlpha" values="0 0 0 0 0 0 0 0 0 0 0 0 0 0 0 0 0 0 127 0"/><feOffset dy="-2.464"/><feGaussianBlur stdDeviation="2.464"/><feComposite in2="hardAlpha" k2="-1" k3="1" operator="arithmetic"/><feColorMatrix values="0 0 0 0 0 0 0 0 0 0 0 0 0 0 0 0 0 0 0.5 0"/><feBlend in2="shape" result="effect1_innerShadow_10908_22540"/><feColorMatrix in="SourceAlpha" result="hardAlpha" values="0 0 0 0 0 0 0 0 0 0 0 0 0 0 0 0 0 0 127 0"/><feOffset dy="2.464"/><feGaussianBlur stdDeviation="2.464"/><feComposite in2="hardAlpha" k2="-1" k3="1" operator="arithmetic"/><feColorMatrix values="0 0 0 0 1 0 0 0 0 1 0 0 0 0 1 0 0 0 0.4 0"/><feBlend in2="effect1_innerShadow_10908_22540" result="effect2_innerShadow_10908_22540"/></filter><filter id="j" width="64" height="68.929" x="607" y="-2.464" color-interpolation-filters="sRGB" filterUnits="userSpaceOnUse"><feFlood flood-opacity="0" result="BackgroundImageFix"/><feBlend in="SourceGraphic" in2="BackgroundImageFix" result="shape"/><feColorMatrix in="SourceAlpha" result="hardAlpha" values="0 0 0 0 0 0 0 0 0 0 0 0 0 0 0 0 0 0 127 0"/><feOffset dy="-2.464"/><feGaussianBlur stdDeviation="2.464"/><feComposite in2="hardAlpha" k2="-1" k3="1" operator="arithmetic"/><feColorMatrix values="0 0 0 0 0 0 0 0 0 0 0 0 0 0 0 0 0 0 0.5 0"/><feBlend in2="shape" result="effect1_innerShadow_10908_22540"/><feColorMatrix in="SourceAlpha" result="hardAlpha" values="0 0 0 0 0 0 0 0 0 0 0 0 0 0 0 0 0 0 127 0"/><feOffset dy="2.464"/><feGaussianBlur stdDeviation="2.464"/><feComposite in2="hardAlpha" k2="-1" k3="1" operator="arithmetic"/><feColorMatrix values="0 0 0 0 1 0 0 0 0 1 0 0 0 0 1 0 0 0 0.4 0"/><feBlend in2="effect1_innerShadow_10908_22540" result="effect2_innerShadow_10908_22540"/></filter><filter id="k" width="64" height="68.929" x="0" y="681.962" color-interpolation-filters="sRGB" filterUnits="userSpaceOnUse"><feFlood flood-opacity="0" result="BackgroundImageFix"/><feBlend in="SourceGraphic" in2="BackgroundImageFix" result="shape"/><feColorMatrix in="SourceAlpha" result="hardAlpha" values="0 0 0 0 0 0 0 0 0 0 0 0 0 0 0 0 0 0 127 0"/><feOffset dy="-2.464"/><feGaussianBlur stdDeviation="2.464"/><feComposite in2="hardAlpha" k2="-1" k3="1" operator="arithmetic"/><feColorMatrix values="0 0 0 0 0 0 0 0 0 0 0 0 0 0 0 0 0 0 0.5 0"/><feBlend in2="shape" result="effect1_innerShadow_10908_22540"/><feColorMatrix in="SourceAlpha" result="hardAlpha" values="0 0 0 0 0 0 0 0 0 0 0 0 0 0 0 0 0 0 127 0"/><feOffset dy="2.464"/><feGaussianBlur stdDeviation="2.464"/><feComposite in2="hardAlpha" k2="-1" k3="1" operator="arithmetic"/><feColorMatrix values="0 0 0 0 1 0 0 0 0 1 0 0 0 0 1 0 0 0 0.4 0"/><feBlend in2="effect1_innerShadow_10908_22540" result="effect2_innerShadow_10908_22540"/></filter><filter id="l" width="64" height="68.929" x="1" y="-1.464" color-interpolation-filters="sRGB" filterUnits="userSpaceOnUse"><feFlood flood-opacity="0" result="BackgroundImageFix"/><feBlend in="SourceGraphic" in2="BackgroundImageFix" result="shape"/><feColorMatrix in="SourceAlpha" result="hardAlpha" values="0 0 0 0 0 0 0 0 0 0 0 0 0 0 0 0 0 0 127 0"/><feOffset dy="-2.464"/><feGaussianBlur stdDeviation="2.464"/><feComposite in2="hardAlpha" k2="-1" k3="1" operator="arithmetic"/><feColorMatrix values="0 0 0 0 0 0 0 0 0 0 0 0 0 0 0 0 0 0 0.5 0"/><feBlend in2="shape" result="effect1_innerShadow_10908_22540"/><feColorMatrix in="SourceAlpha" result="hardAlpha" values="0 0 0 0 0 0 0 0 0 0 0 0 0 0 0 0 0 0 127 0"/><feOffset dy="2.464"/><feGaussianBlur stdDeviation="2.464"/><feComposite in2="hardAlpha" k2="-1" k3="1" operator="arithmetic"/><feColorMatrix values="0 0 0 0 1 0 0 0 0 1 0 0 0 0 1 0 0 0 0.4 0"/><feBlend in2="effect1_innerShadow_10908_22540" result="effect2_innerShadow_10908_22540"/></filter><filter id="m" width="64" height="68.929" x="531" y="527.536" color-interpolation-filters="sRGB" filterUnits="userSpaceOnUse"><feFlood flood-opacity="0" result="BackgroundImageFix"/><feBlend in="SourceGraphic" in2="BackgroundImageFix" result="shape"/><feColorMatrix in="SourceAlpha" result="hardAlpha" values="0 0 0 0 0 0 0 0 0 0 0 0 0 0 0 0 0 0 127 0"/><feOffset dy="-2.464"/><feGaussianBlur stdDeviation="2.464"/><feComposite in2="hardAlpha" k2="-1" k3="1" operator="arithmetic"/><feColorMatrix values="0 0 0 0 0 0 0 0 0 0 0 0 0 0 0 0 0 0 0.5 0"/><feBlend in2="shape" result="effect1_innerShadow_10908_22540"/><feColorMatrix in="SourceAlpha" result="hardAlpha" values="0 0 0 0 0 0 0 0 0 0 0 0 0 0 0 0 0 0 127 0"/><feOffset dy="2.464"/><feGaussianBlur stdDeviation="2.464"/><feComposite in2="hardAlpha" k2="-1" k3="1" operator="arithmetic"/><feColorMatrix values="0 0 0 0 1 0 0 0 0 1 0 0 0 0 1 0 0 0 0.4 0"/><feBlend in2="effect1_innerShadow_10908_22540" result="effect2_innerShadow_10908_22540"/></filter><filter id="n" width="64" height="69.12" x="531.806" y="148.246" color-interpolation-filters="sRGB" filterUnits="userSpaceOnUse"><feFlood flood-opacity="0" result="BackgroundImageFix"/><feBlend in="SourceGraphic" in2="BackgroundImageFix" result="shape"/><feColorMatrix in="SourceAlpha" result="hardAlpha" values="0 0 0 0 0 0 0 0 0 0 0 0 0 0 0 0 0 0 127 0"/><feOffset dy="-2.56"/><feGaussianBlur stdDeviation="2.56"/><feComposite in2="hardAlpha" k2="-1" k3="1" operator="arithmetic"/><feColorMatrix values="0 0 0 0 0 0 0 0 0 0 0 0 0 0 0 0 0 0 0.5 0"/><feBlend in2="shape" result="effect1_innerShadow_10908_22540"/><feColorMatrix in="SourceAlpha" result="hardAlpha" values="0 0 0 0 0 0 0 0 0 0 0 0 0 0 0 0 0 0 127 0"/><feOffset dy="2.56"/><feGaussianBlur stdDeviation="2.56"/><feComposite in2="hardAlpha" k2="-1" k3="1" operator="arithmetic"/><feColorMatrix values="0 0 0 0 1 0 0 0 0 1 0 0 0 0 1 0 0 0 0.4 0"/><feBlend in2="effect1_innerShadow_10908_22540" result="effect2_innerShadow_10908_22540"/></filter><filter id="o" width="64" height="68.929" x="77" y="528.536" color-interpolation-filters="sRGB" filterUnits="userSpaceOnUse"><feFlood flood-opacity="0" result="BackgroundImageFix"/><feBlend in="SourceGraphic" in2="BackgroundImageFix" result="shape"/><feColorMatrix in="SourceAlpha" result="hardAlpha" values="0 0 0 0 0 0 0 0 0 0 0 0 0 0 0 0 0 0 127 0"/><feOffset dy="-2.464"/><feGaussianBlur stdDeviation="2.464"/><feComposite in2="hardAlpha" k2="-1" k3="1" operator="arithmetic"/><feColorMatrix values="0 0 0 0 0 0 0 0 0 0 0 0 0 0 0 0 0 0 0.5 0"/><feBlend in2="shape" result="effect1_innerShadow_10908_22540"/><feColorMatrix in="SourceAlpha" result="hardAlpha" values="0 0 0 0 0 0 0 0 0 0 0 0 0 0 0 0 0 0 127 0"/><feOffset dy="2.464"/><feGaussianBlur stdDeviation="2.464"/><feComposite in2="hardAlpha" k2="-1" k3="1" operator="arithmetic"/><feColorMatrix values="0 0 0 0 1 0 0 0 0 1 0 0 0 0 1 0 0 0 0.4 0"/><feBlend in2="effect1_innerShadow_10908_22540" result="effect2_innerShadow_10908_22540"/></filter><filter id="p" width="64" height="68.929" x="77.399" y="148.1" color-interpolation-filters="sRGB" filterUnits="userSpaceOnUse"><feFlood flood-opacity="0" result="BackgroundImageFix"/><feBlend in="SourceGraphic" in2="BackgroundImageFix" result="shape"/><feColorMatrix in="SourceAlpha" result="hardAlpha" values="0 0 0 0 0 0 0 0 0 0 0 0 0 0 0 0 0 0 127 0"/><feOffset dy="-2.464"/><feGaussianBlur stdDeviation="2.464"/><feComposite in2="hardAlpha" k2="-1" k3="1" operator="arithmetic"/><feColorMatrix values="0 0 0 0 0 0 0 0 0 0 0 0 0 0 0 0 0 0 0.5 0"/><feBlend in2="shape" result="effect1_innerShadow_10908_22540"/><feColorMatrix in="SourceAlpha" result="hardAlpha" values="0 0 0 0 0 0 0 0 0 0 0 0 0 0 0 0 0 0 127 0"/><feOffset dy="2.464"/><feGaussianBlur stdDeviation="2.464"/><feComposite in2="hardAlpha" k2="-1" k3="1" operator="arithmetic"/><feColorMatrix values="0 0 0 0 1 0 0 0 0 1 0 0 0 0 1 0 0 0 0.4 0"/><feBlend in2="effect1_innerShadow_10908_22540" result="effect2_innerShadow_10908_22540"/></filter><filter id="b" width="64" height="68.929" x="228" y="-1.464" color-interpolation-filters="sRGB" filterUnits="userSpaceOnUse"><feFlood flood-opacity="0" result="BackgroundImageFix"/><feBlend in="SourceGraphic" in2="BackgroundImageFix" result="shape"/><feColorMatrix in="SourceAlpha" result="hardAlpha" values="0 0 0 0 0 0 0 0 0 0 0 0 0 0 0 0 0 0 127 0"/><feOffset dy="-2.464"/><feGaussianBlur stdDeviation="2.464"/><feComposite in2="hardAlpha" k2="-1" k3="1" operator="arithmetic"/><feColorMatrix values="0 0 0 0 0 0 0 0 0 0 0 0 0 0 0 0 0 0 0.5 0"/><feBlend in2="shape" result="effect1_innerShadow_10908_22540"/><feColorMatrix in="SourceAlpha" result="hardAlpha" values="0 0 0 0 0 0 0 0 0 0 0 0 0 0 0 0 0 0 127 0"/><feOffset dy="2.464"/><feGaussianBlur stdDeviation="2.464"/><feComposite in2="hardAlpha" k2="-1" k3="1" operator="arithmetic"/><feColorMatrix values="0 0 0 0 1 0 0 0 0 1 0 0 0 0 1 0 0 0 0.4 0"/><feBlend in2="effect1_innerShadow_10908_22540" result="effect2_innerShadow_10908_22540"/></filter><filter id="r" width="64" height="68.929" x="455" y="-1.464" color-interpolation-filters="sRGB" filterUnits="userSpaceOnUse"><feFlood flood-opacity="0" result="BackgroundImageFix"/><feBlend in="SourceGraphic" in2="BackgroundImageFix" result="shape"/><feColorMatrix in="SourceAlpha" result="hardAlpha" values="0 0 0 0 0 0 0 0 0 0 0 0 0 0 0 0 0 0 127 0"/><feOffset dy="-2.464"/><feGaussianBlur stdDeviation="2.464"/><feComposite in2="hardAlpha" k2="-1" k3="1" operator="arithmetic"/><feColorMatrix values="0 0 0 0 0 0 0 0 0 0 0 0 0 0 0 0 0 0 0.5 0"/><feBlend in2="shape" result="effect1_innerShadow_10908_22540"/><feColorMatrix in="SourceAlpha" result="hardAlpha" values="0 0 0 0 0 0 0 0 0 0 0 0 0 0 0 0 0 0 127 0"/><feOffset dy="2.464"/><feGaussianBlur stdDeviation="2.464"/><feComposite in2="hardAlpha" k2="-1" k3="1" operator="arithmetic"/><feColorMatrix values="0 0 0 0 1 0 0 0 0 1 0 0 0 0 1 0 0 0 0.4 0"/><feBlend in2="effect1_innerShadow_10908_22540" result="effect2_innerShadow_10908_22540"/></filter><filter id="s" width="64" height="68.929" x="152" y="682.536" color-interpolation-filters="sRGB" filterUnits="userSpaceOnUse"><feFlood flood-opacity="0" result="BackgroundImageFix"/><feBlend in="SourceGraphic" in2="BackgroundImageFix" result="shape"/><feColorMatrix in="SourceAlpha" result="hardAlpha" values="0 0 0 0 0 0 0 0 0 0 0 0 0 0 0 0 0 0 127 0"/><feOffset dy="-2.464"/><feGaussianBlur stdDeviation="2.464"/><feComposite in2="hardAlpha" k2="-1" k3="1" operator="arithmetic"/><feColorMatrix values="0 0 0 0 0 0 0 0 0 0 0 0 0 0 0 0 0 0 0.5 0"/><feBlend in2="shape" result="effect1_innerShadow_10908_22540"/><feColorMatrix in="SourceAlpha" result="hardAlpha" values="0 0 0 0 0 0 0 0 0 0 0 0 0 0 0 0 0 0 127 0"/><feOffset dy="2.464"/><feGaussianBlur stdDeviation="2.464"/><feComposite in2="hardAlpha" k2="-1" k3="1" operator="arithmetic"/><feColorMatrix values="0 0 0 0 1 0 0 0 0 1 0 0 0 0 1 0 0 0 0.4 0"/><feBlend in2="effect1_innerShadow_10908_22540" result="effect2_innerShadow_10908_22540"/></filter><filter id="t" width="64" height="68.929" x="152" y="-1.464" color-interpolation-filters="sRGB" filterUnits="userSpaceOnUse"><feFlood flood-opacity="0" result="BackgroundImageFix"/><feBlend in="SourceGraphic" in2="BackgroundImageFix" result="shape"/><feColorMatrix in="SourceAlpha" result="hardAlpha" values="0 0 0 0 0 0 0 0 0 0 0 0 0 0 0 0 0 0 127 0"/><feOffset dy="-2.464"/><feGaussianBlur stdDeviation="2.464"/><feComposite in2="hardAlpha" k2="-1" k3="1" operator="arithmetic"/><feColorMatrix values="0 0 0 0 0 0 0 0 0 0 0 0 0 0 0 0 0 0 0.5 0"/><feBlend in2="shape" result="effect1_innerShadow_10908_22540"/><feColorMatrix in="SourceAlpha" result="hardAlpha" values="0 0 0 0 0 0 0 0 0 0 0 0 0 0 0 0 0 0 127 0"/><feOffset dy="2.464"/><feGaussianBlur stdDeviation="2.464"/><feComposite in2="hardAlpha" k2="-1" k3="1" operator="arithmetic"/><feColorMatrix values="0 0 0 0 1 0 0 0 0 1 0 0 0 0 1 0 0 0 0.4 0"/><feBlend in2="effect1_innerShadow_10908_22540" result="effect2_innerShadow_10908_22540"/></filter><filter id="u" width="64" height="68.929" x="303" y="682.536" color-interpolation-filters="sRGB" filterUnits="userSpaceOnUse"><feFlood flood-opacity="0" result="BackgroundImageFix"/><feBlend in="SourceGraphic" in2="BackgroundImageFix" result="shape"/><feColorMatrix in="SourceAlpha" result="hardAlpha" values="0 0 0 0 0 0 0 0 0 0 0 0 0 0 0 0 0 0 127 0"/><feOffset dy="-2.464"/><feGaussianBlur stdDeviation="2.464"/><feComposite in2="hardAlpha" k2="-1" k3="1" operator="arithmetic"/><feColorMatrix values="0 0 0 0 0 0 0 0 0 0 0 0 0 0 0 0 0 0 0.5 0"/><feBlend in2="shape" result="effect1_innerShadow_10908_22540"/><feColorMatrix in="SourceAlpha" result="hardAlpha" values="0 0 0 0 0 0 0 0 0 0 0 0 0 0 0 0 0 0 127 0"/><feOffset dy="2.464"/><feGaussianBlur stdDeviation="2.464"/><feComposite in2="hardAlpha" k2="-1" k3="1" operator="arithmetic"/><feColorMatrix values="0 0 0 0 1 0 0 0 0 1 0 0 0 0 1 0 0 0 0.4 0"/><feBlend in2="effect1_innerShadow_10908_22540" result="effect2_innerShadow_10908_22540"/></filter><filter id="v" width="64" height="68.929" x="304" y="-1.464" color-interpolation-filters="sRGB" filterUnits="userSpaceOnUse"><feFlood flood-opacity="0" result="BackgroundImageFix"/><feBlend in="SourceGraphic" in2="BackgroundImageFix" result="shape"/><feColorMatrix in="SourceAlpha" result="hardAlpha" values="0 0 0 0 0 0 0 0 0 0 0 0 0 0 0 0 0 0 127 0"/><feOffset dy="-2.464"/><feGaussianBlur stdDeviation="2.464"/><feComposite in2="hardAlpha" k2="-1" k3="1" operator="arithmetic"/><feColorMatrix values="0 0 0 0 0 0 0 0 0 0 0 0 0 0 0 0 0 0 0.5 0"/><feBlend in2="shape" result="effect1_innerShadow_10908_22540"/><feColorMatrix in="SourceAlpha" result="hardAlpha" values="0 0 0 0 0 0 0 0 0 0 0 0 0 0 0 0 0 0 127 0"/><feOffset dy="2.464"/><feGaussianBlur stdDeviation="2.464"/><feComposite in2="hardAlpha" k2="-1" k3="1" operator="arithmetic"/><feColorMatrix values="0 0 0 0 1 0 0 0 0 1 0 0 0 0 1 0 0 0 0.4 0"/><feBlend in2="effect1_innerShadow_10908_22540" result="effect2_innerShadow_10908_22540"/></filter><filter id="w" width="64" height="68.929" x="1" y="452.536" color-interpolation-filters="sRGB" filterUnits="userSpaceOnUse"><feFlood flood-opacity="0" result="BackgroundImageFix"/><feBlend in="SourceGraphic" in2="BackgroundImageFix" result="shape"/><feColorMatrix in="SourceAlpha" result="hardAlpha" values="0 0 0 0 0 0 0 0 0 0 0 0 0 0 0 0 0 0 127 0"/><feOffset dy="-2.464"/><feGaussianBlur stdDeviation="2.464"/><feComposite in2="hardAlpha" k2="-1" k3="1" operator="arithmetic"/><feColorMatrix values="0 0 0 0 0 0 0 0 0 0 0 0 0 0 0 0 0 0 0.5 0"/><feBlend in2="shape" result="effect1_innerShadow_10908_22540"/><feColorMatrix in="SourceAlpha" result="hardAlpha" values="0 0 0 0 0 0 0 0 0 0 0 0 0 0 0 0 0 0 127 0"/><feOffset dy="2.464"/><feGaussianBlur stdDeviation="2.464"/><feComposite in2="hardAlpha" k2="-1" k3="1" operator="arithmetic"/><feColorMatrix values="0 0 0 0 1 0 0 0 0 1 0 0 0 0 1 0 0 0 0.4 0"/><feBlend in2="effect1_innerShadow_10908_22540" result="effect2_innerShadow_10908_22540"/></filter><filter id="x" width="64" height="68.929" x="1" y="224.27" color-interpolation-filters="sRGB" filterUnits="userSpaceOnUse"><feFlood flood-opacity="0" result="BackgroundImageFix"/><feBlend in="SourceGraphic" in2="BackgroundImageFix" result="shape"/><feColorMatrix in="SourceAlpha" result="hardAlpha" values="0 0 0 0 0 0 0 0 0 0 0 0 0 0 0 0 0 0 127 0"/><feOffset dy="-2.464"/><feGaussianBlur stdDeviation="2.464"/><feComposite in2="hardAlpha" k2="-1" k3="1" operator="arithmetic"/><feColorMatrix values="0 0 0 0 0 0 0 0 0 0 0 0 0 0 0 0 0 0 0.5 0"/><feBlend in2="shape" result="effect1_innerShadow_10908_22540"/><feColorMatrix in="SourceAlpha" result="hardAlpha" values="0 0 0 0 0 0 0 0 0 0 0 0 0 0 0 0 0 0 127 0"/><feOffset dy="2.464"/><feGaussianBlur stdDeviation="2.464"/><feComposite in2="hardAlpha" k2="-1" k3="1" operator="arithmetic"/><feColorMatrix values="0 0 0 0 1 0 0 0 0 1 0 0 0 0 1 0 0 0 0.4 0"/><feBlend in2="effect1_innerShadow_10908_22540" result="effect2_innerShadow_10908_22540"/></filter><filter id="y" width="64" height="68.929" x="152" y="452.536" color-interpolation-filters="sRGB" filterUnits="userSpaceOnUse"><feFlood flood-opacity="0" result="BackgroundImageFix"/><feBlend in="SourceGraphic" in2="BackgroundImageFix" result="shape"/><feColorMatrix in="SourceAlpha" result="hardAlpha" values="0 0 0 0 0 0 0 0 0 0 0 0 0 0 0 0 0 0 127 0"/><feOffset dy="-2.464"/><feGaussianBlur stdDeviation="2.464"/><feComposite in2="hardAlpha" k2="-1" k3="1" operator="arithmetic"/><feColorMatrix values="0 0 0 0 0 0 0 0 0 0 0 0 0 0 0 0 0 0 0.5 0"/><feBlend in2="shape" result="effect1_innerShadow_10908_22540"/><feColorMatrix in="SourceAlpha" result="hardAlpha" values="0 0 0 0 0 0 0 0 0 0 0 0 0 0 0 0 0 0 127 0"/><feOffset dy="2.464"/><feGaussianBlur stdDeviation="2.464"/><feComposite in2="hardAlpha" k2="-1" k3="1" operator="arithmetic"/><feColorMatrix values="0 0 0 0 1 0 0 0 0 1 0 0 0 0 1 0 0 0 0.4 0"/><feBlend in2="effect1_innerShadow_10908_22540" result="effect2_innerShadow_10908_22540"/></filter><filter id="z" width="64" height="68.929" x="152" y="224.536" color-interpolation-filters="sRGB" filterUnits="userSpaceOnUse"><feFlood flood-opacity="0" result="BackgroundImageFix"/><feBlend in="SourceGraphic" in2="BackgroundImageFix" result="shape"/><feColorMatrix in="SourceAlpha" result="hardAlpha" values="0 0 0 0 0 0 0 0 0 0 0 0 0 0 0 0 0 0 127 0"/><feOffset dy="-2.464"/><feGaussianBlur stdDeviation="2.464"/><feComposite in2="hardAlpha" k2="-1" k3="1" operator="arithmetic"/><feColorMatrix values="0 0 0 0 0 0 0 0 0 0 0 0 0 0 0 0 0 0 0.5 0"/><feBlend in2="shape" result="effect1_innerShadow_10908_22540"/><feColorMatrix in="SourceAlpha" result="hardAlpha" values="0 0 0 0 0 0 0 0 0 0 0 0 0 0 0 0 0 0 127 0"/><feOffset dy="2.464"/><feGaussianBlur stdDeviation="2.464"/><feComposite in2="hardAlpha" k2="-1" k3="1" operator="arithmetic"/><feColorMatrix values="0 0 0 0 1 0 0 0 0 1 0 0 0 0 1 0 0 0 0.4 0"/><feBlend in2="effect1_innerShadow_10908_22540" result="effect2_innerShadow_10908_22540"/></filter><filter id="A" width="64" height="68.929" x="304" y="452.536" color-interpolation-filters="sRGB" filterUnits="userSpaceOnUse"><feFlood flood-opacity="0" result="BackgroundImageFix"/><feBlend in="SourceGraphic" in2="BackgroundImageFix" result="shape"/><feColorMatrix in="SourceAlpha" result="hardAlpha" values="0 0 0 0 0 0 0 0 0 0 0 0 0 0 0 0 0 0 127 0"/><feOffset dy="-2.464"/><feGaussianBlur stdDeviation="2.464"/><feComposite in2="hardAlpha" k2="-1" k3="1" operator="arithmetic"/><feColorMatrix values="0 0 0 0 0 0 0 0 0 0 0 0 0 0 0 0 0 0 0.5 0"/><feBlend in2="shape" result="effect1_innerShadow_10908_22540"/><feColorMatrix in="SourceAlpha" result="hardAlpha" values="0 0 0 0 0 0 0 0 0 0 0 0 0 0 0 0 0 0 127 0"/><feOffset dy="2.464"/><feGaussianBlur stdDeviation="2.464"/><feComposite in2="hardAlpha" k2="-1" k3="1" operator="arithmetic"/><feColorMatrix values="0 0 0 0 1 0 0 0 0 1 0 0 0 0 1 0 0 0 0.4 0"/><feBlend in2="effect1_innerShadow_10908_22540" result="effect2_innerShadow_10908_22540"/></filter><filter id="B" width="64" height="68.929" x="304" y="224.536" color-interpolation-filters="sRGB" filterUnits="userSpaceOnUse"><feFlood flood-opacity="0" result="BackgroundImageFix"/><feBlend in="SourceGraphic" in2="BackgroundImageFix" result="shape"/><feColorMatrix in="SourceAlpha" result="hardAlpha" values="0 0 0 0 0 0 0 0 0 0 0 0 0 0 0 0 0 0 127 0"/><feOffset dy="-2.464"/><feGaussianBlur stdDeviation="2.464"/><feComposite in2="hardAlpha" k2="-1" k3="1" operator="arithmetic"/><feColorMatrix values="0 0 0 0 0 0 0 0 0 0 0 0 0 0 0 0 0 0 0.5 0"/><feBlend in2="shape" result="effect1_innerShadow_10908_22540"/><feColorMatrix in="SourceAlpha" result="hardAlpha" values="0 0 0 0 0 0 0 0 0 0 0 0 0 0 0 0 0 0 127 0"/><feOffset dy="2.464"/><feGaussianBlur stdDeviation="2.464"/><feComposite in2="hardAlpha" k2="-1" k3="1" operator="arithmetic"/><feColorMatrix values="0 0 0 0 1 0 0 0 0 1 0 0 0 0 1 0 0 0 0.4 0"/><feBlend in2="effect1_innerShadow_10908_22540" result="effect2_innerShadow_10908_22540"/></filter><filter id="C" width="64" height="68.929" x="455" y="452.536" color-interpolation-filters="sRGB" filterUnits="userSpaceOnUse"><feFlood flood-opacity="0" result="BackgroundImageFix"/><feBlend in="SourceGraphic" in2="BackgroundImageFix" result="shape"/><feColorMatrix in="SourceAlpha" result="hardAlpha" values="0 0 0 0 0 0 0 0 0 0 0 0 0 0 0 0 0 0 127 0"/><feOffset dy="-2.464"/><feGaussianBlur stdDeviation="2.464"/><feComposite in2="hardAlpha" k2="-1" k3="1" operator="arithmetic"/><feColorMatrix values="0 0 0 0 0 0 0 0 0 0 0 0 0 0 0 0 0 0 0.5 0"/><feBlend in2="shape" result="effect1_innerShadow_10908_22540"/><feColorMatrix in="SourceAlpha" result="hardAlpha" values="0 0 0 0 0 0 0 0 0 0 0 0 0 0 0 0 0 0 127 0"/><feOffset dy="2.464"/><feGaussianBlur stdDeviation="2.464"/><feComposite in2="hardAlpha" k2="-1" k3="1" operator="arithmetic"/><feColorMatrix values="0 0 0 0 1 0 0 0 0 1 0 0 0 0 1 0 0 0 0.4 0"/><feBlend in2="effect1_innerShadow_10908_22540" result="effect2_innerShadow_10908_22540"/></filter><filter id="D" width="64" height="68.929" x="455" y="223.536" color-interpolation-filters="sRGB" filterUnits="userSpaceOnUse"><feFlood flood-opacity="0" result="BackgroundImageFix"/><feBlend in="SourceGraphic" in2="BackgroundImageFix" result="shape"/><feColorMatrix in="SourceAlpha" result="hardAlpha" values="0 0 0 0 0 0 0 0 0 0 0 0 0 0 0 0 0 0 127 0"/><feOffset dy="-2.464"/><feGaussianBlur stdDeviation="2.464"/><feComposite in2="hardAlpha" k2="-1" k3="1" operator="arithmetic"/><feColorMatrix values="0 0 0 0 0 0 0 0 0 0 0 0 0 0 0 0 0 0 0.5 0"/><feBlend in2="shape" result="effect1_innerShadow_10908_22540"/><feColorMatrix in="SourceAlpha" result="hardAlpha" values="0 0 0 0 0 0 0 0 0 0 0 0 0 0 0 0 0 0 127 0"/><feOffset dy="2.464"/><feGaussianBlur stdDeviation="2.464"/><feComposite in2="hardAlpha" k2="-1" k3="1" operator="arithmetic"/><feColorMatrix values="0 0 0 0 1 0 0 0 0 1 0 0 0 0 1 0 0 0 0.4 0"/><feBlend in2="effect1_innerShadow_10908_22540" result="effect2_innerShadow_10908_22540"/></filter><filter id="E" width="64" height="68.929" x="607" y="452.536" color-interpolation-filters="sRGB" filterUnits="userSpaceOnUse"><feFlood flood-opacity="0" result="BackgroundImageFix"/><feBlend in="SourceGraphic" in2="BackgroundImageFix" result="shape"/><feColorMatrix in="SourceAlpha" result="hardAlpha" values="0 0 0 0 0 0 0 0 0 0 0 0 0 0 0 0 0 0 127 0"/><feOffset dy="-2.464"/><feGaussianBlur stdDeviation="2.464"/><feComposite in2="hardAlpha" k2="-1" k3="1" operator="arithmetic"/><feColorMatrix values="0 0 0 0 0 0 0 0 0 0 0 0 0 0 0 0 0 0 0.5 0"/><feBlend in2="shape" result="effect1_innerShadow_10908_22540"/><feColorMatrix in="SourceAlpha" result="hardAlpha" values="0 0 0 0 0 0 0 0 0 0 0 0 0 0 0 0 0 0 127 0"/><feOffset dy="2.464"/><feGaussianBlur stdDeviation="2.464"/><feComposite in2="hardAlpha" k2="-1" k3="1" operator="arithmetic"/><feColorMatrix values="0 0 0 0 1 0 0 0 0 1 0 0 0 0 1 0 0 0 0.4 0"/><feBlend in2="effect1_innerShadow_10908_22540" result="effect2_innerShadow_10908_22540"/></filter><filter id="F" width="64" height="68.929" x="607" y="223.536" color-interpolation-filters="sRGB" filterUnits="userSpaceOnUse"><feFlood flood-opacity="0" result="BackgroundImageFix"/><feBlend in="SourceGraphic" in2="BackgroundImageFix" result="shape"/><feColorMatrix in="SourceAlpha" result="hardAlpha" values="0 0 0 0 0 0 0 0 0 0 0 0 0 0 0 0 0 0 127 0"/><feOffset dy="-2.464"/><feGaussianBlur stdDeviation="2.464"/><feComposite in2="hardAlpha" k2="-1" k3="1" operator="arithmetic"/><feColorMatrix values="0 0 0 0 0 0 0 0 0 0 0 0 0 0 0 0 0 0 0.5 0"/><feBlend in2="shape" result="effect1_innerShadow_10908_22540"/><feColorMatrix in="SourceAlpha" result="hardAlpha" values="0 0 0 0 0 0 0 0 0 0 0 0 0 0 0 0 0 0 127 0"/><feOffset dy="2.464"/><feGaussianBlur stdDeviation="2.464"/><feComposite in2="hardAlpha" k2="-1" k3="1" operator="arithmetic"/><feColorMatrix values="0 0 0 0 1 0 0 0 0 1 0 0 0 0 1 0 0 0 0.4 0"/><feBlend in2="effect1_innerShadow_10908_22540" result="effect2_innerShadow_10908_22540"/></filter></defs></svg>