<svg viewBox="0 0 34 34" fill="none" xmlns="http://www.w3.org/2000/svg">
<path d="M10.84 6.24945C10.4701 8.85339 9.58215 12.6849 8.87922 14.9912L10.5811 15.8096C11.358 13.5777 12.3199 10.0438 13.1338 7.17943L10.84 6.24945ZM4.18063 16.2188C3.84766 13.8753 2.92274 9.67177 2.03482 6.36105L0 6.84464C0.850925 10.1554 1.70185 14.4333 1.99782 16.9256L4.18063 16.2188ZM7.9913 0.297591H5.47552V12.8709C5.47552 19.6411 4.92057 26.6718 0.147987 32.0656C0.776932 32.4748 1.62786 33.3676 2.07182 34C4.66159 31.0241 6.17845 27.6761 6.95539 24.1422C8.43526 26.0022 10.2111 28.4945 11.025 29.8337L12.9489 27.7877C12.1719 26.7462 8.91621 22.6543 7.51034 21.1291C7.9173 18.4136 7.9913 15.6608 7.9913 12.8709V0.297591ZM23.7519 13.4289V19.8643H18.1284V13.4289H23.7519ZM20.8662 31.1357C18.5724 31.1357 18.1284 30.7637 18.1284 29.2013V22.2079H26.1937V11.1225H17.0925C17.7584 9.96937 18.3504 8.74179 18.8683 7.43982H30.2633C30.0044 18.3392 29.7084 22.1707 29.0794 22.9891C28.7835 23.4354 28.5245 23.547 27.9695 23.5098C27.4146 23.5098 26.1197 23.5098 24.7138 23.3982C25.0838 24.105 25.3058 25.1466 25.3798 25.8906C26.8966 26.0022 28.3395 26.0022 29.2274 25.8906C30.1523 25.7418 30.7813 25.4814 31.3732 24.663C32.2982 23.361 32.5571 19.0459 32.8161 6.17505C32.8531 5.84026 32.8531 4.91028 32.8531 4.91028H19.9042C20.3852 3.49672 20.8292 2.04595 21.2361 0.520788L18.6094 0C17.3145 5.28227 15.0207 10.3414 12.0609 13.5777C12.6899 13.9869 13.7258 14.8797 14.2067 15.3632C14.6507 14.8053 15.1317 14.2101 15.5756 13.5777V29.2013C15.5756 32.7352 16.7965 33.5908 20.7182 33.5908H29.2274C32.8161 33.5908 33.63 32.14 34 27.1926C33.2601 27.0066 32.2242 26.6346 31.5952 26.1882C31.3362 30.2801 31.0033 31.1357 29.0424 31.1357H20.8662Z" fill="white" fill-opacity="0.8"/>
</svg>
