<svg xmlns="http://www.w3.org/2000/svg" viewBox="0 0 37.75 30.82" fill="#fff" xmlns:v="https://vecta.io/nano"><path d="M15.85 19.64a3.72 3.72 0 0 1 .54-1.35l-2.08-2.08a6.59 6.59 0 0 0-1.4 3.43zm.61 2.78a3.8 3.8 0 0 1-.57-1.28h-3a6.44 6.44 0 0 0 1.45 3.35zm3.84-8.64v3a3.8 3.8 0 0 1 1.28.57l2.07-2.07a6.44 6.44 0 0 0-3.35-1.5zm-2.85 3.45a3.72 3.72 0 0 1 1.35-.54v-2.94a6.59 6.59 0 0 0-3.43 1.4zm4.02 6.14a3.7 3.7 0 0 1-1.17.5v3a6.55 6.55 0 0 0 3.25-1.38zm-2.67.54a3.66 3.66 0 0 1-1.23-.47l-2.1 2.09a6.56 6.56 0 0 0 3.33 1.32zm3.8-5.5a3.74 3.74 0 0 1 .47 1.23H26a6.56 6.56 0 0 0-1.32-3.33zm.4 2.73a3.7 3.7 0 0 1-.5 1.17l2.08 2.08A6.55 6.55 0 0 0 26 21.14zM32.66 2l1.54 2.54 1.55 2.55-10.24 7.09a8.55 8.55 0 0 1-1.59 13.4 8.58 8.58 0 0 1-11.77-2.88 8.44 8.44 0 0 1-.51-1 6.74 6.74 0 0 1-2.31.5 2.92 2.92 0 0 1-.73-.08c-.88-.21-1.09-.38-1.28-.38s-.23.06-.5.23a5 5 0 0 1-2.57 1 1.92 1.92 0 0 1-1.72-1l-.2-.33c-1.38-2.28 2-3.8 2-3.8.71-.43.33-.2.69-1.65a6.13 6.13 0 0 1 2.05-2.72L32.66 2m0-2a1.91 1.91 0 0 0-.93.23L6.13 13.72a1.78 1.78 0 0 0-.27.17 7.79 7.79 0 0 0-2.79 3.85l-.13.59a5.88 5.88 0 0 0-2.77 3.1 4 4 0 0 0 .45 3.27l.2.33a3.9 3.9 0 0 0 3.43 2 6.3 6.3 0 0 0 3.29-1.09l.58.16a4.72 4.72 0 0 0 1.21.14 7.12 7.12 0 0 0 1.32-.13 10.578 10.578 0 0 0 17.86-11.34 1.4 1.4 0 0 1-.1-.16l8.48-5.88a2 2 0 0 0 .57-2.68l-1.55-2.54L34.37 1a2 2 0 0 0-1.71-1z"/></svg>