<svg viewBox="0 0 34 33" fill="none" xmlns="http://www.w3.org/2000/svg">
<path d="M10.7349 25.96H5.78879V15.2533H10.7349V25.96ZM14.472 4.4V1.90667H0.732759V4.4H5.16595C4.25 10.7433 2.71121 16.72 0 20.6067C0.512931 21.1933 1.39224 22.44 1.68534 22.99C2.30819 22.0733 2.8944 21.0467 3.44397 19.9467V31.46H5.78879V28.3433H13.1164V12.87H6.00862C6.74138 10.1933 7.29095 7.33333 7.7306 4.4H14.472ZM24.2177 13.86V19.47H18.8685V13.86H24.2177ZM21.5065 30.58C19.3082 30.58 18.8685 30.25 18.8685 28.71V21.8533H26.6724V11.5133H16.9267C17.6595 10.34 18.2823 9.05667 18.8685 7.7H30.153C29.9332 18.1133 29.6767 21.78 29.0539 22.5867C28.8341 23.0267 28.5409 23.1367 28.028 23.1C27.4418 23.1 26.1961 23.1 24.7672 22.9533C25.1703 23.6133 25.3901 24.64 25.4267 25.3733C26.9289 25.4467 28.3578 25.4467 29.2004 25.3367C30.153 25.2267 30.7392 24.97 31.3254 24.1633C32.2414 22.9167 32.4612 18.81 32.681 6.45333C32.7177 6.08667 32.7177 5.20667 32.7177 5.20667H19.8578C20.3707 3.74 20.847 2.2 21.2134 0.623334L18.5022 0C17.403 4.80333 15.4978 9.46 12.8599 12.3933C13.4461 12.9433 14.472 14.0067 14.8017 14.5567C15.3147 13.9333 15.8276 13.2733 16.3039 12.54V28.71C16.3039 32.1567 17.4763 33 21.3599 33H29.347C32.7909 33 33.6336 31.6433 34 26.9133C33.2672 26.73 32.2414 26.3267 31.6185 25.9233C31.3987 29.7733 31.069 30.58 29.2004 30.58H21.5065Z" fill="white" fill-opacity="0.8"/>
</svg>
