<svg xmlns="http://www.w3.org/2000/svg" viewBox="0 0 36.79 26.64" fill="#fff" xmlns:v="https://vecta.io/nano"><path d="M22.54 8.47A1.41 1.41 0 0 0 23.9 7a1.36 1.36 0 1 0-2.71 0 1.4 1.4 0 0 0 1.35 1.47zm13.74 6.93l-3.23-.47 1.29-6.32a.68.68 0 0 0-.15-.61.7.7 0 0 0-.54-.26H31a.69.69 0 0 0-.68.54l-1.48 6-1.06-.16C27.41 11.85 25.25 0 18.83 0a17.75 17.75 0 0 0-5.26 1.36C12.65 1.12 9.65.41 8 1S1.84 11.2 0 15.3a.7.7 0 0 0 0 .55.68.68 0 0 0 .39.39c.08 0 .9.35 2 .75-.61 1.27-2.25 4.83-2.1 7.11.14 2 1 2.41 1.77 2.41l18.53.13h0a.7.7 0 0 0 .7-.62c0-.21.44-4.28-1-6.79.59-.08 1.24-.19 1.89-.32.71 1.1 2.7 3.76 5.08 3.76h.3c1.88-.18 3.44-2 4.65-5.45l4-.6a.611.611 0 0 0 .07-1.22zm-4.75-6.23h1.26l-1.13 5.56-1.44-.22zm-10.74 8.07l-.2-2.75 10.06 1.45zm-12.3-15c1.18-.4 4 .22 4.93.5a.75.75 0 0 0 .47 0 17.4 17.4 0 0 1 4.94-1.34c4.46 0 6.8 8.43 7.49 12.54l-6.49-1a.61.61 0 0 0-.69.63l.22 4.31H19c-1 0-2.9-2.72-4.09-5.25a.71.71 0 0 0-1.29 0c-1.9 4.83-3.11 4.69-4.95 4.47-.17 0-.34-.05-.52-.06a36.25 36.25 0 0 1-6.5-2C4.35 9.1 7.58 2.78 8.49 2.28zm11.45 23l-17.87-.13c-.07 0-.31-.11-.38-1.11-.12-1.83 1.31-5.12 2.07-6.59A23.72 23.72 0 0 0 8 18.52l.49.06c2.26.27 3.94.12 5.83-4 .95 1.77 2.68 4.42 4.33 4.72 1.25 1.29 1.35 4.28 1.29 5.93zm7.53-4c-1.45.14-2.93-1.47-3.78-2.67l1-.25 5.95-.9c-.9 2.41-2 3.72-3.17 3.84z"/></svg>