<svg viewBox="0 0 32 33" fill="none" xmlns="http://www.w3.org/2000/svg">
<path d="M6.35006 9.54217H14.5552V13.4458H6.35006V9.54217ZM17.8372 4.66265C17.2308 5.60241 16.4459 6.6506 15.6611 7.44578H6.74248C7.77703 6.54217 8.81159 5.60241 9.66778 4.66265H17.8372ZM25.6143 13.4458H16.981V9.54217H25.6143V13.4458ZM26.5061 16.0843C24.437 17.3855 21.155 19.1205 18.3724 20.2771C17.3378 18.8675 15.9108 17.5301 14.1271 16.3012C14.5909 16.0482 15.019 15.759 15.4114 15.506H28.2185V7.44578H18.7648C19.7637 6.25301 20.7982 4.87952 21.5474 3.61446L19.728 2.42169L19.2999 2.56626H11.5229C12.058 1.87952 12.5574 1.26506 13.0212 0.578312L10.2742 0C8.34783 2.96386 4.78038 6.50602 0 9.10844C0.606466 9.46988 1.3913 10.3735 1.78372 10.9518C2.49721 10.5181 3.17503 10.1205 3.85284 9.6506V15.506H11.8082C8.77592 16.9157 4.7447 18.1807 1.46265 18.8313C1.9621 19.3012 2.60424 20.1325 2.96098 20.6747C5.67224 19.988 9.09699 18.7952 11.9866 17.4217C12.7358 17.9277 13.4493 18.4337 14.0201 19.012C10.8094 21.0723 5.35117 22.8795 0.998885 23.747C1.49833 24.253 2.17614 25.1205 2.53289 25.6988C6.67113 24.7229 11.9509 22.6988 15.447 20.3855C15.9108 20.9277 16.3746 21.4699 16.7313 22.0482C12.9855 25.0482 6.06466 27.9036 0.428094 29.1687C0.927536 29.6747 1.60535 30.6145 1.9621 31.2289C7.17057 29.8193 13.6276 27 17.6945 23.8554C18.8718 26.6024 18.4437 29.0241 17.0167 30C16.2676 30.5422 15.447 30.6145 14.4838 30.6145C13.699 30.6145 12.4147 30.6145 11.1304 30.4699C11.5585 31.1566 11.8439 32.1687 11.8796 32.9277C13.0212 32.9639 14.0914 33 14.9476 33C16.4459 33 17.4805 32.747 18.6577 31.9157C21.2263 30.2892 21.7614 26.1687 19.5139 22.012C20.0847 21.759 20.7625 21.506 21.4404 21.253C22.9387 24.759 25.864 29.1325 30.252 31.3373C30.6087 30.6145 31.4292 29.5663 32 29.0602C27.8261 27.2892 24.9721 23.5301 23.5095 20.3133C25.3289 19.5181 27.1126 18.5783 28.6823 17.7108L26.5061 16.0843Z" fill="white" fill-opacity="0.8"/>
</svg>
