<svg viewBox="0 0 32 32" fill="none" xmlns="http://www.w3.org/2000/svg">
<path d="M9.15315 9.96491H14.3063V7.50877H9.15315V0H6.63063V7.50877H0.792793V9.96491H6.30631C5.04504 14.807 2.48649 20.2456 0 23.1579C0.432432 23.7895 1.11712 24.807 1.40541 25.5439C3.35135 23.1579 5.22522 19.2632 6.63063 15.2281V32H9.15315V16.0351C10.5225 17.7544 12.1441 19.9649 12.8288 21.1228L14.4865 18.9825C13.7297 18.0351 10.4144 14.3158 9.15315 13.0526V9.96491ZM18.4504 27.2632V21.193H29.3694V27.2632H18.4504ZM29.3694 4.52632V10.386H18.4504V4.52632H29.3694ZM18.4504 12.7719H29.3694V18.807H18.4504V12.7719ZM15.8919 2.07017V31.7895H18.4504V29.6842H29.3694V31.6842H32V2.07017H15.8919Z" fill="white" fill-opacity="0.8"/>
</svg>
