<svg viewBox="0 0 33 32" fill="none" xmlns="http://www.w3.org/2000/svg">
<path d="M2.22472 31.6552C4.74607 29.5448 5.89551 25.9165 6.6 22.4733L4.15281 21.8069C3.59663 25.0279 2.29888 28.286 0 30.2483L2.22472 31.6552ZM9.45506 23.0657C10.0854 25.4352 10.5674 28.4341 10.6045 30.4334L13.0517 30.0261C12.9775 28.0269 12.4955 25.0279 11.8281 22.6955L9.45506 23.0657ZM15.8326 22.8436C16.7966 24.9539 17.7236 27.7677 17.9831 29.4708L20.282 28.8044C19.9854 27.1013 19.0213 24.3615 17.9461 22.3622L15.8326 22.8436ZM7.45281 14.18H16.0921V17.8083H7.45281V14.18ZM16.0921 2.44356V6.07187H7.45281V2.44356H16.0921ZM16.0921 11.9216H7.45281V8.29328H16.0921V11.9216ZM18.7989 17.8083V14.18H29.4034V11.9216H18.7989V8.29328H29.4034V6.07187H18.7989V2.44356H30.664V0H4.78315V20.2519H30.0708C29.6629 26.1387 29.1809 28.4711 28.5135 29.2116C28.2169 29.5078 27.8461 29.5818 27.1787 29.5818C26.5483 29.5818 24.8056 29.5818 22.9888 29.3597C23.3966 30.0632 23.6562 31.1739 23.7303 31.8773C25.6213 32.0254 27.4753 32.0254 28.4393 31.9514C29.4775 31.8773 30.182 31.6181 30.8124 30.9147C31.8506 29.767 32.4067 26.731 32.8888 18.9931C32.9629 18.6229 33 17.8083 33 17.8083H18.7989ZM27.0303 26.4348C26.4742 25.102 25.1022 22.9916 23.7674 21.4737L21.7652 22.2882C23.0258 23.8432 24.3607 26.0276 24.9169 27.3975L27.0303 26.4348Z" fill="white" fill-opacity="0.8"/>
</svg>
