<svg viewBox="0 0 33 32" fill="none" xmlns="http://www.w3.org/2000/svg">
<path d="M8.12363 0C6.28228 5.28053 3.24945 10.5259 0 13.9406C0.43326 14.5391 1.19147 15.912 1.48031 16.5457C2.59956 15.3135 3.75492 13.835 4.80197 12.2508V32H7.40153V7.956C8.6291 5.63256 9.71225 3.16832 10.5788 0.70407L8.12363 0ZM10.6149 30.3454C12.384 28.3388 13.3228 25.0297 13.8643 22.2486L11.7702 21.615C11.337 24.2904 10.326 27.3531 8.70131 29.1837L10.6149 30.3454ZM15.7779 22.2486C16.2473 24.4664 16.5 27.3179 16.4639 29.2189L18.558 28.8669C18.5941 27.0011 18.2691 24.1144 17.7276 21.8966L15.7779 22.2486ZM20.1105 22.0726C21.0492 24.0088 21.9519 26.5435 22.2046 28.2684L24.1543 27.5996C23.8293 25.945 22.9267 23.4103 21.9158 21.5094L20.1105 22.0726ZM14.6947 14.5391H21.0853V17.8482H14.6947V14.5391ZM21.0853 3.76678V7.0407H14.6947V3.76678H21.0853ZM21.0853 12.4268H14.6947V9.11771H21.0853V12.4268ZM23.6127 17.8482V14.5391H31.1947V12.4268H23.6127V9.11771H31.0864V7.0407H23.6127V3.76678H32.0613V1.47855H12.1313V20.1716H30.4365C30.0755 26.297 29.6422 28.6909 29.0284 29.3245C28.7396 29.6414 28.4147 29.7118 27.8731 29.7118C27.2593 29.7118 25.7429 29.6766 24.0821 29.5358C24.4792 30.1694 24.7319 31.0847 24.7681 31.824C26.4289 31.8944 28.0536 31.8944 28.9201 31.824C29.895 31.7536 30.5449 31.5424 31.1225 30.8383C32.0613 29.8174 32.5306 26.8955 32.9639 18.9747C33 18.6227 33 17.8482 33 17.8482H23.6127ZM24.2987 21.6854C25.5624 23.0935 26.9344 25.1353 27.512 26.473L29.2451 25.6282C28.6313 24.2552 27.2593 22.3542 25.9234 20.9461L24.2987 21.6854Z" fill="white" fill-opacity="0.8"/>
</svg>