<svg xmlns="http://www.w3.org/2000/svg" viewBox="0 0 30.1 30.9" fill="#fff" xmlns:v="https://vecta.io/nano"><path d="M26.8 10.5C24.6 7 21.1 5.1 15.9 4.4c-.3-.4-.7-1.1-1.4-2.1A5.52 5.52 0 0 0 12.1.1l-.2-.1v.3a10.91 10.91 0 0 1-.9 3.5h-.6A8.56 8.56 0 0 0 7.1.5L6.7.4V3a11.8 11.8 0 0 1-.2 2.2A5.91 5.91 0 0 1 5.6 7a5.57 5.57 0 0 0-.8 1.5 16.45 16.45 0 0 0-.3 1.8 8.71 8.71 0 0 1-.5 1.9 30.57 30.57 0 0 1-1.9 2.7C.7 16.8 0 18.2 0 19.3a4.63 4.63 0 0 0 2 3.6 6 6 0 0 0 4 1.6 1.8 1.8 0 0 0 1.5-.7 3.77 3.77 0 0 0 .8-1.8c.2-1.4.7-2.3 1.5-2.5a16.9 16.9 0 0 0 4.8-1.6 1.85 1.85 0 0 1 .2.7 4 4 0 0 1-2.5 3.6 7.42 7.42 0 0 0-3 3.1 13.87 13.87 0 0 0-.8 5.4v.2h21.6v-5c-.3-7.9-1.2-12.1-3.3-15.4zm-10.5 8.1l-.1-2.2a6.15 6.15 0 0 1 .3-1.8v-.1l-.1-.1-.3-.3-.2-.2-.1.3a9.32 9.32 0 0 1-1 1.7 4.36 4.36 0 0 1-1 .8 8.15 8.15 0 0 1-2 .8 26.81 26.81 0 0 1-2.7.7q-1.95.6-2.4 3.6c-.2.8-.4 1.2-.8 1.2a1.88 1.88 0 0 1-.8-.2 3.59 3.59 0 0 1 .7-1 2 2 0 0 0 .5-1.3c0-.6-.3-.9-.8-.9s-.9.5-1.5 1.7a6.43 6.43 0 0 1-.5.7c-.2 0-.5-.1-1.2-.8a3 3 0 0 1-.8-2 2.28 2.28 0 0 1 .3-1.1 19.64 19.64 0 0 1 1.5-2.3 32.26 32.26 0 0 0 2.2-3.4 6.07 6.07 0 0 0 .5-1.8 4.87 4.87 0 0 1 .2-1.5 4 4 0 0 1 .7-1.2A6.66 6.66 0 0 0 8 5.6a11.32 11.32 0 0 0 .2-2.3A4 4 0 0 1 9.1 5a3 3 0 0 0-.8.8l-.1.1.1.8 2.1-1V6c0 .7.4.8.6.8.4 0 .7-.3 1-.9a2.38 2.38 0 0 0 .4-1.2 17.65 17.65 0 0 1 .4-2.1 8.24 8.24 0 0 1 1.1 1.7 4.85 4.85 0 0 0 1.2 1.6h.2c4.6.6 7.9 2.3 9.9 5.2s3 8.1 3 15.5v2.6H10a8.33 8.33 0 0 1 .7-3.5 5.44 5.44 0 0 1 2.3-2.2c2.2-1.2 3.3-2.8 3.3-4.9zm-13.8-.3a1.37 1.37 0 0 0-.4 1.1c0 1 .5 1.1.8 1.1.53 0 .9-.7.9-1v-.1l-.4-.4.6-1.1h-.4a1.5 1.5 0 0 0-1.1.4zm7-8.8a2.92 2.92 0 0 0-1.7.7c-.7.5-1 .9-1 1.4s.3.8.9 1.3l.4.3V12h0a6.93 6.93 0 0 0 .8.1c.24 0 .8-.5.8-.8a2.14 2.14 0 0 0-.1-.6 1.88 1.88 0 0 1 .9-.4l.3-.1-.3-.7z"/></svg>