<svg viewBox="0 0 30 33" fill="none" xmlns="http://www.w3.org/2000/svg">
<path d="M8.66348 21.1185V27.3128H2.39857V21.1185H8.66348ZM8.37709 7.75192V13.0768H2.39857V7.75192H8.37709ZM2.39857 15.3952H10.7399V5.43359H5.40573C6.05012 3.94841 6.80191 2.06476 7.3747 0.398462L4.51074 0C4.18854 1.55763 3.57995 3.76729 3.00716 5.43359H0V31.9857H2.39857V29.6312H11.0621V18.8002H2.39857V15.3952ZM30 6.55653H22.8401V0.181119H20.3341V6.55653H13.4606V26.371H15.895V9.05598H20.3341V33H22.8401V9.05598H27.5298V23.3282C27.5298 23.6904 27.4224 23.8353 27.0286 23.8353C26.6706 23.8353 25.5609 23.8353 24.2721 23.7991C24.5943 24.4512 24.9165 25.5016 25.0239 26.1175C26.8854 26.1175 28.1384 26.1175 28.9618 25.6828C29.821 25.3205 30 24.5598 30 23.3282V6.55653Z" fill="white" fill-opacity="0.8"/>
</svg>
