<svg viewBox="0 0 34 34" fill="none" xmlns="http://www.w3.org/2000/svg">
<path d="M8.80522 10.6528H4.32862V1.48471H1.88683V13.0655H8.80522V18.5218H0.332971V20.9716H2.33079V21.7882C2.33079 24.6463 2.03482 29.2489 0 32.6638C0.665941 32.8865 1.62786 33.5175 2.10881 34C4.36561 30.2882 4.77258 25.0546 4.77258 21.8624V20.9716H8.80522V33.9258H11.358V0.0742349H8.80522V10.6528ZM29.4124 5.19651C28.4505 7.01528 27.1186 8.61135 25.5647 10.0218C24.4548 8.5 22.605 6.68122 20.8662 5.23362L20.9032 5.19651H29.4124ZM31.1143 3.04367L30.6333 3.15502H23.16C23.9739 2.37554 24.6768 1.59607 25.2688 0.779475L22.605 0C20.4962 3.00655 16.3896 6.08734 12.0239 7.869C12.5049 8.31441 13.3188 9.131 13.7258 9.57642C15.6126 8.72271 17.4625 7.6834 19.1643 6.49563C20.9402 7.98035 22.79 9.91048 23.8259 11.4694C20.5702 13.9563 16.5745 15.7009 12.6899 16.5917C13.1708 17.1485 13.7998 18.0393 14.0588 18.6703C21.8281 16.5175 29.5604 11.9148 32.7791 3.89738L31.1143 3.04367ZM20.5702 10.0961C17.5735 10.4672 14.8357 10.8384 12.7269 11.024L13.2078 13.1026C15.4646 12.7686 18.0174 12.4345 20.7182 12.0262L20.5702 10.0961ZM15.2797 23.5699C17.1295 25.4258 19.1643 27.9498 20.0152 29.6572L22.272 28.2467C21.3471 26.5764 19.2753 24.0524 17.3885 22.3079L15.2797 23.5699ZM34 18.9673H29.2274V13.7336H26.6007V18.9673H12.6159V21.417H26.6007V30.2511C26.6007 30.7707 26.4157 30.9192 25.8237 30.9192C25.2688 30.9563 23.2709 30.9935 21.0511 30.9192C21.4581 31.6987 21.8281 32.7751 21.9391 33.5546C24.8618 33.5546 26.6746 33.5175 27.7845 33.0721C28.8945 32.6266 29.2274 31.8472 29.2274 30.2882V21.417H34V18.9673Z" fill="white" fill-opacity="0.8"/>
</svg>
