<svg xmlns="http://www.w3.org/2000/svg" viewBox="0 0 31.51 31.91" fill="#fff" xmlns:v="https://vecta.io/nano"><path d="M13.08 21.27l2.68 1.67 2.67-1.67-2.67-1.67-2.68 1.67zm18.17-9.77a5.6 5.6 0 0 0-5.72-4 9.4 9.4 0 0 0-5.69 2.1A5.06 5.06 0 0 0 18 7.28h1.4V0h-7.28v7.28h1.42a5 5 0 0 0-1.87 2.32A9.4 9.4 0 0 0 6 7.51h0a5.6 5.6 0 0 0-5.72 4c-1.29 4.59 2.52 8 5.12 9.44v7h0c.05 2.63 5.23 4 10.37 4s10.31-1.38 10.36-4h0v-7c2.6-1.43 6.41-4.86 5.12-9.45zm-6.56 10.39L23.11 23l1.58 2.54v.22c-1.91-1.25-5.43-1.89-8.93-1.89s-7 .64-8.94 1.89v-.22L8.41 23l-1.59-1.11v-.36l.61-.48C9.88 19.13 14.64 19 14.69 19h1 1.11s4.8.17 7.25 2.09l.61.48zM15.76 16a12.51 12.51 0 0 0-2.95-5.33 3.18 3.18 0 0 1 2.95-2.56 3.17 3.17 0 0 1 2.93 2.56A12.54 12.54 0 0 0 15.76 16zm-2.2-10.16zm3.21-2.2L18 2.46v2.36zm-1-1l-1.2-1.2h2.37zm-1 1l-1.21 1.18V2.46zm1 1l1.18 1.18h-2.38zM1.64 11.89A4.21 4.21 0 0 1 6 9c3.35 0 7.52 2.7 8.66 8.57 0 0-5.23.15-8.1 2.4-.02-.05-6.33-3.03-4.92-8.08zm14.12 18.58c-5.46 0-8.94-1.54-8.94-2.6s3.48-2.61 8.94-2.61 8.93 1.54 8.93 2.61-3.48 2.6-8.93 2.6zM25 19.92c-2.87-2.25-8.1-2.4-8.1-2.4C18 11.65 22.18 9 25.53 9a4.21 4.21 0 0 1 4.34 2.94c1.41 5-4.87 7.98-4.87 7.98z"/></svg>