<svg viewBox="0 0 32 32" fill="none" xmlns="http://www.w3.org/2000/svg">
<path d="M10.4161 23.4807C8.16107 25.6986 3.79418 28.4796 0.178971 30.099C0.787472 30.5919 1.68233 31.5072 2.04027 32C5.65548 30.275 9.98658 27.5292 12.9217 25.0649L10.4161 23.4807ZM19.0783 25.2057C22.5503 27.1419 27.0962 30.0638 29.3154 31.8592L31.3915 29.8878C29.0291 28.0572 24.4116 25.3113 21.0112 23.516L19.0783 25.2057ZM8.84116 11.7932H20.9754V19.9604H8.84116V11.7932ZM23.6242 19.9604V11.7932H29.9955V9.32893H8.84116V4.36524C15.5347 4.0484 23.0515 3.34434 28.17 2.39384L26.774 0C21.7629 1.05611 13.2081 1.76018 6.1566 2.11221V19.9604H0V22.4598H32V19.9604H23.6242Z" fill="white" fill-opacity="0.8"/>
</svg>
