<svg viewBox="0 0 32 33" fill="none" xmlns="http://www.w3.org/2000/svg">
<path d="M30.9538 4.42639H17.7858L18.2909 4.24645C17.9301 3.09487 16.956 1.33152 16.1263 0L13.5648 0.827699C14.2503 1.90731 14.9718 3.34678 15.3687 4.42639H1.01015V6.98146H30.9538V4.42639ZM14.7914 15.7983C13.637 14.6827 11.5085 13.0992 9.70462 11.9117C10.2458 10.7601 10.7508 9.53653 11.1838 8.27699L8.51409 7.7012C7.1071 12.4155 4.18489 16.2661 0.396843 18.6412C1.04622 19.0731 2.05637 19.9727 2.52537 20.4406C4.7982 18.7852 6.92672 16.554 8.58625 13.8909C10.2818 15.1145 12.1578 16.626 13.1319 17.6696L14.7914 15.7983ZM32 21.7721H17.2086V19.325H16.8839C18.7959 17.9935 20.5637 16.2661 22.0428 14.2508C24.7125 16.1221 27.743 18.5333 29.2582 20.1167L31.0981 18.2454C29.3664 16.59 26.0474 14.1429 23.3416 12.3075C24.0271 11.084 24.6404 9.75245 25.1094 8.34896L22.4758 7.80916C21.1409 12.0556 18.2187 15.5104 14.611 17.6696C15.1522 17.9935 16.0902 18.7852 16.5231 19.325H14.4667V21.7721H0V24.3631H14.4667V33H17.2086V24.3631H32V21.7721Z" fill="white" fill-opacity="0.8"/>
</svg>
