<svg viewBox="0 0 29 36" fill="none" xmlns="http://www.w3.org/2000/svg">
<path d="M26.84 30C25.7068 28.4906 24.0262 27.4865 22.16 27.204C21.248 25.86 17.36 19.824 17.36 14.532H22.616L22.688 13.764C22.688 13.644 22.892 10.884 18.716 8.96397C19.4282 7.92773 19.8204 6.70515 19.844 5.44797C19.844 4.0158 19.2751 2.64229 18.2624 1.6296C17.2497 0.616901 15.8762 0.0479736 14.444 0.0479736C13.0118 0.0479736 11.6383 0.616901 10.6256 1.6296C9.61294 2.64229 9.04402 4.0158 9.04402 5.44797C9.08876 6.71263 9.50624 7.93585 10.244 8.96397C6.06802 10.884 6.26002 13.644 6.26002 13.764L6.33202 14.532H11.6C11.6 19.824 7.70002 25.86 6.80002 27.204C5.85464 27.3289 4.94351 27.6404 4.11951 28.1204C3.29552 28.6004 2.57508 29.2393 2.00002 30C0.979672 31.5411 0.553279 33.4002 0.800017 35.232L0.920017 35.928H27.884L28.004 35.232C28.2726 33.4042 27.8582 31.5415 26.84 30ZM11.828 10.056L13.028 9.59997L12.092 8.66397C11.2637 7.76871 10.7827 6.60677 10.736 5.38797C10.7073 4.88409 10.7818 4.37965 10.9549 3.90556C11.1279 3.43146 11.396 2.99769 11.7425 2.63081C12.0891 2.26392 12.507 1.97166 12.9704 1.7719C13.4339 1.57215 13.9333 1.46912 14.438 1.46912C14.9427 1.46912 15.4421 1.57215 15.9056 1.7719C16.3691 1.97166 16.7869 2.26392 17.1335 2.63081C17.4801 2.99769 17.7481 3.43146 17.9212 3.90556C18.0942 4.37965 18.1687 4.88409 18.14 5.38797C18.0762 6.6098 17.5832 7.76992 16.748 8.66397L15.8 9.59997L17.06 10.056C19.532 10.944 20.456 12.06 20.792 12.792H8.09602C8.43202 12.06 9.35602 10.944 11.828 10.056ZM2.48002 34.188C2.44366 33.0252 2.77085 31.88 3.41602 30.912C3.89886 30.3132 4.49719 29.8177 5.17543 29.4549C5.85367 29.092 6.59796 28.8693 7.36402 28.8L7.70002 28.74L7.90402 28.464C8.12002 28.164 13.22 21.036 13.22 14.532H15.62C15.62 21.036 20.732 28.164 20.948 28.464L21.152 28.74L21.488 28.8C22.2554 28.8775 22.9994 29.1087 23.6756 29.4798C24.3518 29.8509 24.9464 30.3543 25.424 30.96C26.0694 31.9324 26.3965 33.0814 26.36 34.248L2.48002 34.188Z" fill="#FFFBF2"/>
</svg>
