<svg width="14" height="14" viewBox="0 0 14 14" fill="none" xmlns="http://www.w3.org/2000/svg">
<path d="M6.99992 0.333328C3.31992 0.333328 0.333252 3.31999 0.333252 7C0.333252 10.68 3.31992 13.6667 6.99992 13.6667C10.6799 13.6667 13.6666 10.68 13.6666 7C13.6666 3.31999 10.6799 0.333328 6.99992 0.333328ZM5.19325 9.86L2.79992 7.46666C2.53992 7.20666 2.53992 6.78666 2.79992 6.52666C3.05992 6.26666 3.47992 6.26666 3.73992 6.52666L5.66659 8.44666L10.2533 3.85999C10.5133 3.59999 10.9333 3.59999 11.1933 3.85999C11.4533 4.11999 11.4533 4.53999 11.1933 4.79999L6.13325 9.86C5.87992 10.12 5.45325 10.12 5.19325 9.86Z" fill="#7B61FF" fill-opacity="1"/>
</svg>
