<svg viewBox="0 0 36 34" fill="none" xmlns="http://www.w3.org/2000/svg">
<path d="M9.40952 0C7.2381 5.67912 3.73333 11.2462 0 14.833C0.533333 15.4308 1.29524 16.8879 1.6 17.5231C2.93333 16.178 4.22857 14.6462 5.44762 12.9275V33.8879H8.11429V8.85495C9.63809 6.27692 10.9714 3.54945 12.0381 0.784616L9.40952 0ZM15.4667 16.8505H21.9048V20.2879H15.4667V16.8505ZM15.4667 11.3956H21.9048V14.7582H15.4667V11.3956ZM31.1619 14.7582H24.4571V11.3956H31.1619V14.7582ZM31.1619 20.2879H24.4571V16.8505H31.1619V20.2879ZM36 25.5934H24.5714V22.4923H33.9048V9.15385H24.5714V6.16484H35.2762V3.77363H24.5714V0H21.7905V3.77363H11.581V6.16484H21.7905V9.15385H12.8762V22.4923H21.7905V25.5934H10.7048V28.0593H21.7905V34H24.5714V28.0593H36V25.5934Z" fill="white" fill-opacity="0.8"/>
</svg>
