<svg width="32" height="32" viewBox="0 0 32 32" fill="none" xmlns="http://www.w3.org/2000/svg">
<path d="M19.7625 3.34753L12.4075 8.22004C12.4075 8.22004 12.6575 8.57504 12.8275 8.73754C13.1825 9.07754 13.4125 9.19003 13.4125 9.19003L13.2675 9.69003L11.435 10.7525C11.435 10.7525 11.37 11.5925 12.305 12.0775C13.08 12.48 13.8525 12.4825 13.8525 12.4825V13.69C13.8525 13.69 14.6225 15.19 16.1875 15.19C17.7525 15.19 18.5 13.4825 18.5 13.4825L18.52 12.44C18.52 12.44 19.225 12.37 19.8975 11.9775C20.4075 11.6775 20.5875 11.1875 20.5925 10.77C20.5975 10.415 20.565 10.345 20.565 10.345L18.435 9.23254C18.435 9.23254 19.3825 8.65753 19.8925 7.35753C20.8525 4.92003 19.7625 3.34753 19.7625 3.34753V3.34753Z" fill="#DB564F"/>
<path d="M15.83 19.13L10.5275 20.3925C10.5275 20.3925 10.3875 20.5875 10.39 20.7975C10.395 21.15 10.545 21.2325 10.545 21.2325L8.42747 23.8C8.42747 23.8 8.17997 24.3075 8.19247 24.95C8.20497 25.565 8.45997 25.9425 8.49497 25.925L7.80747 26.8425L7.36997 27.03C7.36997 27.03 7.13247 27.415 7.16247 27.885C7.19997 28.465 7.57497 29.0825 9.03747 29.76C10.55 30.4625 12.185 31.0925 15.9775 31.0925C19.77 31.0925 22.645 30.3425 23.8325 29.51C25.02 28.6775 25.115 27.9525 25.135 27.64C25.1502 27.4076 25.1027 27.1753 24.9975 26.9675C24.9875 26.95 24.965 26.915 24.965 26.915L24.0275 25.9025C24.0275 25.9025 24.2525 25.345 24.225 24.7525C24.19 24.005 23.8125 23.465 23.8125 23.465L21.6025 21.5475L21.6225 21.0475C21.6225 21.0475 21.66 20.8875 21.5875 20.62C21.525 20.39 21.475 20.2625 21.4225 20.1825C21.2675 19.945 21.0775 19.97 21.0775 19.97L15.83 19.13V19.13Z" fill="#DB564F"/>
<path d="M12.4 8.21996C12.4 8.21996 11.2275 6.77246 11.7275 4.47996C12.2275 2.18746 14.2875 0.709962 16.6225 1.04246C18.9575 1.37496 19.895 3.58496 19.895 3.58496C19.895 3.58496 19.8275 6.33996 17.305 7.67496C14.7825 9.00996 12.4 8.21996 12.4 8.21996V8.21996Z" fill="#BB1006"/>
<path d="M13.4125 9.19006C13.4125 9.19006 14.59 9.97506 15.86 9.99006C17.6525 10.0076 18.435 9.23256 18.435 9.23256C18.435 9.23256 19.2825 9.14506 19.8875 9.46006C20.4175 9.73506 20.565 10.3501 20.565 10.3501C20.565 10.3501 20.005 11.8076 15.925 11.6976C11.8425 11.5876 11.435 10.7551 11.435 10.7551C11.435 10.7551 11.3275 9.89756 12.055 9.47756C12.665 9.12256 13.4125 9.19006 13.4125 9.19006V9.19006Z" fill="#BB1006"/>
<path d="M13.85 13.6925C13.85 13.6925 14.5975 14.0175 16.1525 14.0175C17.7075 14.0175 18.4975 13.485 18.4975 13.485C18.4975 13.485 18.495 15.245 19.2275 17.02C19.96 18.795 20.49 19.655 20.49 19.655C20.49 19.655 20.9675 19.6225 21.15 19.77C21.3325 19.9175 21.51 20.365 21.51 20.365C21.45 20.4475 20.1475 21.655 16.235 21.57C12.0625 21.48 10.5275 20.39 10.5275 20.39C10.5275 20.39 10.7725 19.9825 11.0525 19.89C11.39 19.7775 11.6075 19.8075 11.6075 19.8075C11.6075 19.8075 12.86 18.3 13.3725 16.8175C13.8825 15.335 13.85 13.6925 13.85 13.6925V13.6925Z" fill="#BB1006"/>
<path d="M10.545 21.23C10.545 21.23 13.0775 22.2325 16.0625 22.2725C20.055 22.325 21.625 21.0475 21.625 21.0475C21.625 21.0475 22.5625 21.9075 22.945 22.31C23.3275 22.7125 23.8125 23.465 23.8125 23.465C23.8125 23.465 22.14 26.2275 16.0275 26.1725C9.91249 26.1175 8.42749 23.8 8.42749 23.8C8.42749 23.8 8.74999 22.955 9.41749 22.255C9.82749 21.8225 10.545 21.23 10.545 21.23V21.23Z" fill="#BB1006"/>
<path d="M8.495 25.9225C8.495 25.9225 8.135 26.1675 7.855 26.4425C7.5025 26.79 7.37 27.0275 7.37 27.0275C7.37 27.0275 8.1775 29.9325 15.9375 29.995C23.535 30.0575 24.965 26.9125 24.965 26.9125C24.965 26.9125 24.7175 26.555 24.4575 26.295C24.1975 26.035 24.025 25.9025 24.025 25.9025C24.025 25.9025 21.8225 28.39 15.885 28.325C10.225 28.2675 8.495 25.9225 8.495 25.9225V25.9225Z" fill="#BB1006"/>
</svg>
