<svg width="17" height="18" viewBox="0 0 17 18" fill="none" xmlns="http://www.w3.org/2000/svg">
<g clip-path="url(#clip0)">
<path d="M6.01052 6.87864C5.65696 7.2322 5.37412 7.65646 5.2327 8.22214L6.08123 9.07067C6.08123 8.50499 6.29336 8.01001 6.71762 7.58575C7.70757 6.5958 9.26321 6.5958 10.2532 7.58575L13.0816 10.4142C14.0715 11.4041 14.0715 12.9598 13.0816 13.9497C12.0916 14.9397 10.536 14.9397 9.54605 13.9497L8.62681 13.0305C8.13184 13.1012 7.70757 13.1012 7.28331 13.1012L8.83895 14.6568C10.1824 16.0003 12.4452 16.0003 13.7887 14.6568C15.1322 13.3133 15.1322 11.0506 13.7887 9.70707L10.9603 6.87864C9.61676 5.53514 7.35402 5.53514 6.01052 6.87864Z" fill="#BB1006"/>
<path d="M6.01041 10.4142L3.18198 7.58576C2.19203 6.59581 2.19203 5.04018 3.18198 4.05023C4.17193 3.06028 5.72756 3.06028 6.71751 4.05023L7.63675 4.96947C8.06102 4.82804 8.48528 4.82804 8.98026 4.89875L7.42462 3.34312C6.08112 1.99962 3.81838 1.99962 2.47487 3.34312C1.13137 4.68662 1.13137 6.94936 2.47487 8.29287L5.3033 11.1213C6.6468 12.4648 8.90955 12.4648 10.253 11.1213C10.6066 10.7677 10.8894 10.3435 11.0309 9.77779L10.253 8.99997C10.1823 9.49495 9.97021 9.98992 9.54594 10.4142C8.55599 11.4041 7.00036 11.4041 6.01041 10.4142Z" fill="#BB1006"/>
</g>
<defs>
<clipPath id="clip0">
<rect width="7" height="16" fill="white" transform="translate(0 5.81799) rotate(-45)"/>
</clipPath>
</defs>
</svg>
