<svg width="24" height="24" viewBox="0 0 24 24" fill="none" xmlns="http://www.w3.org/2000/svg">
<path d="M10.4564 6.16068C10.4261 6.15171 10.3943 6.14888 10.363 6.15235C10.3316 6.15583 10.3012 6.16553 10.2737 6.1809C10.2461 6.19627 10.2219 6.217 10.2024 6.24186C10.1829 6.26672 10.1687 6.29522 10.1604 6.32568C9.36036 9.11068 12.9794 11.9047 15.3744 13.7537C16.0274 14.2577 16.5904 14.6927 16.9654 15.0457C18.7104 16.6877 19.5294 17.8967 19.6984 18.2237C19.7234 18.2723 19.7644 18.3109 19.8144 18.3331C19.8644 18.3553 19.9205 18.3597 19.9734 18.3457C20.0204 18.3327 24.6994 17.0457 23.9074 13.7717C23.9022 13.7508 23.8945 13.7306 23.8844 13.7117L18.2034 3.40668L18.9294 0.294676C18.9381 0.257127 18.9378 0.218015 18.9282 0.18065C18.9187 0.143285 18.9003 0.108769 18.8746 0.0800228C18.8489 0.0512768 18.8166 0.029148 18.7806 0.0155101C18.7445 0.00187221 18.7057 -0.0028732 18.6674 0.00167571C16.9674 0.202676 15.5524 0.436676 14.1674 1.42668C9.32336 1.10368 5.44936 2.32668 2.95436 4.96568C0.333363 7.73668 -0.246637 11.5147 0.0843631 14.1277C0.847363 19.7827 5.27536 22.7587 9.16536 23.6597C10.1584 23.8887 11.1394 23.9997 12.0884 23.9997C15.4324 23.9997 18.3854 22.6187 20.0344 20.1497C20.0674 20.0998 20.0806 20.0395 20.0714 19.9804C20.0623 19.9214 20.0315 19.8678 19.9849 19.8303C19.9384 19.7928 19.8796 19.774 19.8199 19.7776C19.7602 19.7812 19.7041 19.8069 19.6624 19.8497C16.2514 23.3767 10.6604 23.9837 6.36636 21.2937C1.88136 18.4837 0.164363 12.8837 2.45636 8.54468C4.74036 4.22068 8.80036 2.36168 13.8874 3.30968C13.9434 3.31968 14.0024 3.30968 14.0524 3.28068L14.3874 3.08368C15.3134 2.53768 16.3484 1.92668 17.2604 1.80468L16.5664 3.79768C16.5549 3.8308 16.5508 3.866 16.5543 3.90086C16.5577 3.93573 16.5687 3.96944 16.5864 3.99968L22.6684 14.1917C22.4754 16.2197 20.9624 16.6977 20.4424 16.8027C20.1554 16.1577 19.6284 15.4387 18.1364 13.9997C17.7144 13.5927 16.9264 13.0587 16.0124 12.4397C13.6484 10.8387 10.0754 8.41968 10.6214 6.45568C10.6299 6.42547 10.6324 6.39388 10.6287 6.36271C10.6251 6.33154 10.6153 6.3014 10.6 6.274C10.5846 6.24661 10.5641 6.2225 10.5394 6.20306C10.5148 6.18361 10.4866 6.16921 10.4564 6.16068V6.16068Z" fill="#BB1006"/>
</svg>
