<svg width="15" height="15" viewBox="0 0 15 15" fill="none" xmlns="http://www.w3.org/2000/svg">
<g clip-path="url(#clip0)">
<path d="M0 15L1.0625 11.125C0.4375 10 0.0625 8.75 0.0625 7.4375C0.0625 3.3125 3.375 0 7.5 0C9.5 0 11.375 0.75 12.75 2.1875C14.125 3.5625 14.9375 5.4375 14.9375 7.4375C14.9375 11.5625 11.625 14.875 7.5 14.875C6.25 14.875 5 14.5625 3.9375 14C3.9375 13.9375 0 15 0 15ZM4.125 12.625C5.1875 13.25 6.1875 13.625 7.5 13.625C10.875 13.625 13.6875 10.875 13.6875 7.4375C13.6875 4 10.9375 1.25 7.5 1.25C4.0625 1.25 1.3125 4 1.3125 7.4375C1.3125 8.8125 1.75 9.875 2.375 10.9375L1.75 13.1875C1.8125 13.25 4.125 12.625 4.125 12.625ZM11.25 9.1875C11.1875 9.125 11.0625 9.0625 10.875 9C10.6875 8.9375 9.75 8.4375 9.625 8.375C9.4375 8.3125 9.3125 8.3125 9.1875 8.4375C9.0625 8.625 8.6875 9.0625 8.625 9.1875C8.5625 9.3125 8.4375 9.3125 8.25 9.25C8.0625 9.1875 7.4375 8.9375 6.75 8.3125C6.1875 7.8125 5.8125 7.1875 5.6875 7C5.5625 6.8125 5.6875 6.6875 5.75 6.625C5.8125 6.5625 5.9375 6.4375 6 6.3125C6.125 6.25 6.1875 6.125 6.25 6C6.3125 5.875 6.3125 5.75 6.25 5.6875C6.1875 5.625 5.8125 4.6875 5.625 4.3125C5.5 3.9375 5.3125 4 5.25 4H4.875C4.75 4 4.5625 4.0625 4.375 4.25C4.1875 4.4375 3.75 4.875 3.75 5.8125C3.75 6.75 4.4375 7.625 4.5 7.75C4.5625 7.875 5.8125 9.75 7.6875 10.5625C8.125 10.75 8.5 10.875 8.75 10.9375C9.1875 11.0625 9.625 11.0625 9.9375 11C10.3125 10.9375 11.0625 10.5625 11.1875 10.125C11.3125 9.625 11.3125 9.3125 11.25 9.1875Z" fill="#BB1006"/>
</g>
<defs>
<clipPath id="clip0">
<rect width="14.9375" height="15" fill="white"/>
</clipPath>
</defs>
</svg>
