<svg width="20" height="20" viewBox="0 0 20 20" fill="none" xmlns="http://www.w3.org/2000/svg">
<path d="M8.33333 10.0002C10.1743 10.0002 11.6667 8.50778 11.6667 6.66683C11.6667 4.82588 10.1743 3.3335 8.33333 3.3335C6.49238 3.3335 5 4.82588 5 6.66683C5 8.50778 6.49238 10.0002 8.33333 10.0002Z" fill="#FFFBF2"/>
<path d="M8.89297 10.8502C8.70964 10.8418 8.5263 10.8335 8.33464 10.8335C6.31797 10.8335 4.43464 11.3918 2.8263 12.3502C2.09297 12.7835 1.66797 13.6002 1.66797 14.4585V16.6668H9.38464C8.7263 15.7252 8.33464 14.5752 8.33464 13.3335C8.33464 12.4418 8.54297 11.6085 8.89297 10.8502Z" fill="#FFFBF2"/>
<path d="M17.2945 13.3337C17.2945 13.1503 17.2695 12.9837 17.2445 12.8087L18.1945 11.967L17.3612 10.5253L16.1529 10.9337C15.8862 10.7087 15.5862 10.5337 15.2529 10.4087L15.0029 9.16699H13.3362L13.0862 10.4087C12.7529 10.5337 12.4529 10.7087 12.1862 10.9337L10.9779 10.5253L10.1445 11.967L11.0945 12.8087C11.0695 12.9837 11.0445 13.1503 11.0445 13.3337C11.0445 13.517 11.0695 13.6837 11.0945 13.8587L10.1445 14.7003L10.9779 16.142L12.1862 15.7337C12.4529 15.9587 12.7529 16.1337 13.0862 16.2587L13.3362 17.5003H15.0029L15.2529 16.2587C15.5862 16.1337 15.8862 15.9587 16.1529 15.7337L17.3612 16.142L18.1945 14.7003L17.2445 13.8587C17.2695 13.6837 17.2945 13.517 17.2945 13.3337ZM14.1695 15.0003C13.2529 15.0003 12.5029 14.2503 12.5029 13.3337C12.5029 12.417 13.2529 11.667 14.1695 11.667C15.0862 11.667 15.8362 12.417 15.8362 13.3337C15.8362 14.2503 15.0862 15.0003 14.1695 15.0003Z" fill="#FFFBF2"/>
</svg>
