<svg width="21" height="14" viewBox="0 0 21 14" fill="none" xmlns="http://www.w3.org/2000/svg">
<path d="M5.29134 3.375H0.0830078V1.29167H5.29134V3.375ZM5.29134 6.5H0.0830078V8.58333H5.29134V6.5ZM19.4476 13.7917L15.458 9.80209C14.6247 10.3438 13.6455 10.6667 12.583 10.6667C9.70801 10.6667 7.37468 8.33333 7.37468 5.45833C7.37468 2.58333 9.70801 0.25 12.583 0.25C15.458 0.25 17.7913 2.58333 17.7913 5.45833C17.7913 6.52083 17.4684 7.5 16.9268 8.32292L20.9163 12.3229L19.4476 13.7917ZM15.708 5.45833C15.708 3.73958 14.3018 2.33333 12.583 2.33333C10.8643 2.33333 9.45801 3.73958 9.45801 5.45833C9.45801 7.17708 10.8643 8.58333 12.583 8.58333C14.3018 8.58333 15.708 7.17708 15.708 5.45833ZM0.0830078 13.7917H10.4997V11.7083H0.0830078V13.7917Z" fill="#FFFBF2"/>
</svg>
