<svg width="48" height="48" viewBox="0 0 48 48" fill="none" xmlns="http://www.w3.org/2000/svg">
<path d="M46.9359 24C46.9359 36.6676 36.6668 46.9367 23.9992 46.9367C11.3316 46.9367 1.0625 36.6676 1.0625 24C1.0625 11.3324 11.3316 1.06329 23.9992 1.06329C36.6668 1.06329 46.9359 11.3324 46.9359 24Z" fill="#C2352E"/>
<path d="M24.0081 4.88808C34.877 4.77226 42.6625 13.536 43.0865 22.8402C43.3563 28.5155 41.5833 33.4571 37.5364 37.4722C33.6822 41.3715 28.9415 43.2246 23.4685 43.1088C13.6788 42.9158 4.62137 34.7311 4.89116 23.3421C5.16096 13.536 13.409 4.73365 24.0081 4.88808ZM24.0081 39.2481C28.479 39.1709 32.2561 37.5881 35.2624 34.2679C38.3072 30.9477 39.5406 27.0098 39.1552 22.57C38.8468 18.941 37.4208 15.8138 34.877 13.2658C31.4853 9.86836 27.3613 8.43991 22.582 8.82598C18.9205 9.13483 15.8371 10.6019 13.2548 13.1885C9.97873 16.4701 8.51413 20.4852 8.78393 25.0794C9.20789 32.3375 15.5288 39.2868 23.9695 39.2481H24.0081Z" fill="#FFFBF2"/>
<path d="M23.5852 38.0901C20.0393 38.0901 16.7632 36.623 14.0652 33.9205C11.3288 31.1794 9.90269 27.782 9.90269 23.9214C9.90269 20.0221 11.3673 16.6633 14.1423 13.9222C16.9559 11.1425 20.4247 9.75266 24.3946 9.86848C31.9103 10.0615 38.2312 16.0842 38.1541 24.1916C38.1156 27.9751 36.7281 31.2567 34.0301 33.9591C31.2551 36.7002 27.9019 38.0901 23.6237 38.0901H23.5852ZM30.0988 25.234C30.0988 25.234 30.0603 25.234 30.0217 25.234C30.0217 25.8131 29.9446 26.3922 29.9446 26.9713C29.9446 27.2802 29.9446 27.5118 29.5592 27.2029C29.4821 27.1257 29.2123 27.2029 29.0582 27.2415C28.2873 27.4732 27.555 27.7434 26.7842 28.0137C26.5915 28.0909 26.5144 28.0909 26.5144 27.8593C26.5144 27.2802 26.5144 26.7397 26.5144 26.1606C26.5144 25.9675 26.5915 25.9289 26.7842 25.8517C27.5936 25.6201 28.3644 25.3498 29.1738 25.0796C29.2509 25.0796 29.3665 24.8865 29.328 24.8093C29.328 24.5391 28.8655 24.3846 28.5957 24.5005C28.0946 24.7321 27.555 24.9251 27.054 25.0796C26.9383 25.0796 26.7842 25.0796 26.7071 25.0024C26.4373 24.8093 26.4758 23.9214 26.7456 23.7669C27.054 23.5739 27.4008 23.4195 27.7477 23.3037C28.2102 23.1106 28.6727 22.9562 29.1352 22.7632C29.2509 22.7246 29.3665 22.4929 29.328 22.4157C29.1738 22.1068 28.5957 22.0296 28.2873 22.2227C27.8248 22.4929 27.4008 22.7632 26.9383 23.0334C26.6685 23.1878 26.5144 23.1106 26.5144 22.7632C26.5144 22.4157 26.5529 22.0682 26.5915 21.7208C26.5915 21.4119 26.6685 21.1031 26.2831 20.91C25.705 20.6012 25.1654 20.2537 24.6258 19.9449C24.4331 19.829 24.356 19.9063 24.3946 20.0993C24.4716 20.6012 24.5102 21.1031 24.6258 21.6436C24.7029 22.0296 24.78 22.4157 24.8571 22.8404C24.8956 23.1492 25.0112 23.4195 25.0498 23.7283C25.0498 23.96 25.0498 24.2302 25.0498 24.5005C25.0498 24.6935 25.1654 24.9251 25.1269 25.1182C25.0112 25.6587 24.9727 26.1606 25.0498 26.7011C25.0498 26.9713 25.1654 27.2415 25.0883 27.4732C24.8571 28.1681 25.281 28.7472 25.4737 29.3263C25.6279 29.751 25.8977 29.751 26.206 29.3649C26.2831 29.2877 26.3217 29.1719 26.3987 29.1333C27.4008 28.67 28.4029 28.0137 29.5978 28.2453C29.6748 28.2453 29.7905 28.2453 29.8675 28.2453C29.829 28.3611 29.7905 28.4384 29.7519 28.5542C29.7134 28.6314 29.5978 28.7858 29.5978 28.8244C29.9446 29.4035 30.0217 30.0598 29.9832 30.7162C29.9832 31.0636 30.2144 31.1408 30.4842 30.9092C30.7926 30.6003 31.1009 30.2915 31.3322 29.944C31.8717 29.0561 32.0259 28.0909 31.9874 27.0871C31.9874 26.122 31.9103 25.1568 31.8717 24.1916C31.8717 23.6897 32.0259 23.1492 31.9488 22.6859C31.7947 21.7208 31.9103 20.7942 32.1415 19.9063C32.2186 19.636 32.2572 19.3658 32.2957 19.0955C32.2957 18.7867 32.103 18.5936 31.8332 18.5164C31.3321 18.362 30.7926 18.3234 30.4457 17.8215C30.4457 17.7829 30.2144 17.7829 30.1759 17.8215C29.9832 17.9373 29.7905 18.1303 29.5978 18.2848C29.405 18.4392 29.2123 18.6322 28.9811 18.7481C28.1331 19.2113 27.1311 19.1341 26.206 19.443C25.9362 19.5202 26.0133 19.5974 26.129 19.7132C26.4758 20.0221 26.8227 20.2923 27.2081 20.5626C27.2852 20.6012 27.4394 20.6012 27.5165 20.5626C28.0946 20.2151 28.7498 20.0607 29.405 19.9835C29.6748 19.9449 29.7134 20.0607 29.7519 20.2537C29.7905 21.0645 29.7519 21.8752 29.9061 22.6859C29.9832 23.3423 30.0603 23.96 29.9061 24.6163C29.829 24.8479 29.9832 25.1568 30.0217 25.427L30.0988 25.234ZM24.3175 24.5005C24.2404 24.2688 24.2018 23.9986 24.0477 23.8441C23.7393 23.5353 23.3925 23.3037 22.93 23.3423C22.506 23.3423 22.1206 23.3809 21.6966 23.4195C21.581 23.4195 21.4268 23.3423 21.3112 23.3037C21.3883 23.1492 21.3883 22.9562 21.5039 22.879C21.9664 22.5315 22.0049 22.2227 21.6195 21.798C21.5424 21.7208 21.4268 21.6436 21.4268 21.5663C21.4268 21.4119 21.4268 21.2189 21.5039 21.1417C21.8508 20.8714 22.2362 20.5626 22.6602 20.4081C23.0841 20.2537 23.1612 19.9449 23.2383 19.5974C23.2768 19.2885 23.1612 19.0955 22.8529 19.2113C22.5831 19.2885 22.3133 19.4044 22.082 19.5588C21.9279 19.6746 21.7737 19.7904 21.6581 19.5974C21.581 19.4816 21.5424 19.2499 21.5424 19.0955C21.5424 18.9797 21.6966 18.8639 21.6966 18.7481C21.6581 18.0917 22.0049 17.5898 22.3133 17.0494C22.5445 16.5861 22.4289 16.3158 21.9279 16.2C21.6195 16.1228 21.3112 16.0842 21.0414 15.9298C20.5018 15.6595 20.232 15.7367 19.8466 16.2386C19.6924 16.4702 19.6924 16.6247 19.8851 16.7791C20.1164 16.9335 20.1549 17.1652 20.1549 17.4354C20.1549 18.1303 20.1549 18.7867 20.1549 19.4816C20.1549 20.3309 20.1549 20.4081 19.2684 20.5626C19.1914 20.5626 19.1143 20.6012 19.0372 20.6398C18.4591 20.8328 17.9195 21.0259 17.3413 21.1803C16.8788 21.2961 16.4163 21.3347 15.9538 21.4119C15.8767 21.4119 15.7996 21.5277 15.7226 21.5663C15.7611 21.6436 15.8382 21.6822 15.8767 21.7594C16.4163 22.2613 16.9174 22.7246 17.457 23.2264C17.8424 23.5739 18.0351 23.5739 18.382 23.2264C18.8059 22.879 19.2299 22.4929 19.6539 22.1068C19.808 21.991 19.9237 21.9524 20.0007 22.2227C20.1164 22.5701 20.0778 22.879 19.8851 23.1492C19.307 23.9986 18.7674 24.8479 18.1893 25.6587C17.3028 26.8941 16.3392 28.0523 14.9903 28.863C14.8361 28.9402 14.759 29.1333 14.6434 29.2491C14.7975 29.2105 14.9903 29.1719 15.1444 29.0947C16.8788 27.9751 18.2663 26.4308 19.731 25.0024C19.7695 24.9637 19.808 24.8865 19.8466 24.8479C19.8466 24.9251 19.8466 24.9637 19.8466 25.041C19.9237 25.6973 19.6539 26.3922 20.0393 27.0485C20.0393 27.0485 20.0393 27.1257 20.0007 27.2029C19.9622 27.4346 19.8851 27.6662 19.8851 27.8979C19.8851 28.5542 19.8851 29.1719 19.8851 29.8282C19.8851 30.2529 19.731 30.6776 19.9622 31.1022C19.9622 31.1794 19.9622 31.2567 19.9622 31.3725C19.9622 31.7199 19.9622 32.106 20.0007 32.4535C20.0007 32.6465 20.1549 32.7623 20.4247 32.6465C20.9258 32.4535 21.4268 31.8358 21.4268 31.2181C21.4268 30.8706 21.3112 30.5231 21.3497 30.1757C21.4268 28.3225 21.1956 26.508 21.2341 24.6549C21.2341 24.2302 21.3112 24.1916 21.6966 24.4233C22.1977 24.6935 22.6602 24.9637 23.1612 25.1954C23.7008 25.4656 24.1633 25.1954 24.2404 24.5391L24.3175 24.5005Z" fill="#FFFBF2"/>
</svg>
