<svg width="49" height="48" viewBox="0 0 49 48" fill="none" xmlns="http://www.w3.org/2000/svg">
<g clip-path="url(#clip0_9924_3908)">
<path fill-rule="evenodd" clip-rule="evenodd" d="M30.6028 28.5058H32.3637L41.8146 37.9958C42.7285 38.9091 42.7285 40.4016 41.8146 41.315C40.9007 42.2283 39.4073 42.2283 38.4934 41.315L29.0202 31.8474V30.0875L28.4184 29.4637C25.2978 32.137 21.0405 33.5181 16.5156 32.7607C10.319 31.7137 5.3707 26.5455 4.61284 20.308C3.45377 10.8849 11.389 2.95439 20.8176 4.11278C27.0587 4.87019 32.23 9.81563 33.2776 16.0086C34.0354 20.5308 32.6535 24.7856 29.9787 27.9044L30.6028 28.5058ZM8.95936 18.4813C8.95936 24.0282 13.4396 28.5058 18.9898 28.5058C24.54 28.5058 29.0202 24.0282 29.0202 18.4813C29.0202 12.9344 24.54 8.45675 18.9898 8.45675C13.4396 8.45675 8.95936 12.9344 8.95936 18.4813ZM10.5 18.3583C10.5749 13.7757 14.2757 10.0749 18.8583 10V18.3583H10.5ZM27.5 18.6417C27.4251 23.2243 23.7243 26.9251 19.1417 27V18.6417H27.5Z" fill="#C2352E"/>
</g>
<defs>
<clipPath id="clip0_9924_3908">
<rect width="48" height="48" fill="white" transform="translate(0.5)"/>
</clipPath>
</defs>
</svg>
