<svg width="20" height="20" viewBox="0 0 20 20" fill="none" xmlns="http://www.w3.org/2000/svg">
<g clip-path="url(#clip0_9867_601)">
<path fill-rule="evenodd" clip-rule="evenodd" d="M12.5427 11.8775H13.2764L17.2142 15.8316C17.595 16.2121 17.595 16.834 17.2142 17.2146C16.8335 17.5952 16.2112 17.5952 15.8304 17.2146L11.8833 13.2698V12.5365L11.6325 12.2766C10.3323 13.3904 8.55836 13.9659 6.67301 13.6503C4.09111 13.2141 2.02929 11.0606 1.71352 8.46168C1.23058 4.5354 4.5369 1.23101 8.46549 1.71368C11.066 2.02927 13.2207 4.08987 13.6572 6.67026C13.9729 8.5545 13.3971 10.3274 12.2826 11.6268L12.5427 11.8775ZM3.52457 7.70056C3.52457 10.0118 5.39135 11.8775 7.70392 11.8775C10.0165 11.8775 11.8833 10.0118 11.8833 7.70056C11.8833 5.38935 10.0165 3.52367 7.70392 3.52367C5.39135 3.52367 3.52457 5.38935 3.52457 7.70056ZM4.1665 7.64931C4.19771 5.73991 5.7397 4.19788 7.64915 4.16669V7.64931H4.1665ZM11.2498 7.76739C11.2186 9.67679 9.67664 11.2188 7.76719 11.25V7.76739H11.2498Z" fill="#FFFBF2"/>
</g>
<defs>
<clipPath id="clip0_9867_601">
<rect width="20" height="20" fill="white"/>
</clipPath>
</defs>
</svg>
