<svg width="26" height="26" viewBox="0 0 26 26" fill="none" xmlns="http://www.w3.org/2000/svg">
<path fill-rule="evenodd" clip-rule="evenodd" d="M18.0698 17.0039H19.2438L25.5444 23.3305C26.1536 23.9394 26.1536 24.9344 25.5444 25.5433C24.9351 26.1522 23.9395 26.1522 23.3302 25.5433L17.0148 19.2316V18.0583L16.6136 17.6425C14.5332 19.4247 11.6949 20.3454 8.67838 19.8405C4.54733 19.1425 1.24843 15.697 0.743198 11.5387C-0.0295166 5.25663 5.2606 -0.0303894 11.5463 0.741872C15.7071 1.24681 19.1546 4.54378 19.853 8.6724C20.3583 11.6872 19.4369 14.5238 17.6538 16.6029L18.0698 17.0039ZM3.64088 10.3209C3.64088 14.0188 6.62772 17.0039 10.3278 17.0039C14.0279 17.0039 17.0148 14.0188 17.0148 10.3209C17.0148 6.62294 14.0279 3.63785 10.3278 3.63785C6.62772 3.63785 3.64088 6.62294 3.64088 10.3209ZM4.66797 10.2389C4.7179 7.18385 7.18508 4.7166 10.2402 4.66669V10.2389H4.66797ZM16.0013 10.4278C15.9514 13.4829 13.4842 15.9501 10.4291 16V10.4278H16.0013Z" fill="#C2352E"/>
</svg>
