<svg width="20" height="20" viewBox="0 0 20 20" fill="none" xmlns="http://www.w3.org/2000/svg">
<circle cx="10" cy="10" r="10" fill="#14BF6D"/>
<path d="M8.75 6.19L8.574 11.503H7.276L7.089 6.19H8.75ZM7.958 14.077C7.67933 14.077 7.44833 13.9927 7.265 13.824C7.089 13.648 7.001 13.4317 7.001 13.175C7.001 12.9183 7.089 12.7057 7.265 12.537C7.44833 12.361 7.67933 12.273 7.958 12.273C8.22933 12.273 8.453 12.361 8.629 12.537C8.805 12.7057 8.893 12.9183 8.893 13.175C8.893 13.4317 8.805 13.648 8.629 13.824C8.453 13.9927 8.22933 14.077 7.958 14.077ZM12.6387 6.19L12.4627 11.503H11.1647L10.9777 6.19H12.6387ZM11.8467 14.077C11.568 14.077 11.337 13.9927 11.1537 13.824C10.9777 13.648 10.8897 13.4317 10.8897 13.175C10.8897 12.9183 10.9777 12.7057 11.1537 12.537C11.337 12.361 11.568 12.273 11.8467 12.273C12.118 12.273 12.3417 12.361 12.5177 12.537C12.6937 12.7057 12.7817 12.9183 12.7817 13.175C12.7817 13.4317 12.6937 13.648 12.5177 13.824C12.3417 13.9927 12.118 14.077 11.8467 14.077Z" fill="#FFFBF2"/>
</svg>
