<svg width="15" height="16" viewBox="0 0 15 16" fill="none" xmlns="http://www.w3.org/2000/svg">
<path d="M7.5 1.75C4.05 1.75 1.25 4.55 1.25 8C1.25 11.45 4.05 14.25 7.5 14.25C10.95 14.25 13.75 11.45 13.75 8C13.75 4.55 10.95 1.75 7.5 1.75ZM2.5 8C2.5 5.2375 4.7375 3 7.5 3C8.65625 3 9.71875 3.39375 10.5625 4.05625L3.55625 11.0625C2.89375 10.2188 2.5 9.15625 2.5 8ZM7.5 13C6.34375 13 5.28125 12.6062 4.4375 11.9437L11.4437 4.9375C12.1062 5.78125 12.5 6.84375 12.5 8C12.5 10.7625 10.2625 13 7.5 13Z" fill="#C2352E"/>
</svg>
