<svg width="20" height="20" viewBox="0 0 20 20" fill="none" xmlns="http://www.w3.org/2000/svg">
<path d="M10.0013 1.6665C5.4013 1.6665 1.66797 5.39984 1.66797 9.99984C1.66797 14.5998 5.4013 18.3332 10.0013 18.3332C14.6013 18.3332 18.3346 14.5998 18.3346 9.99984C18.3346 5.39984 14.6013 1.6665 10.0013 1.6665ZM3.33464 9.99984C3.33464 6.3165 6.31797 3.33317 10.0013 3.33317C11.543 3.33317 12.9596 3.85817 14.0846 4.7415L4.74297 14.0832C3.85964 12.9582 3.33464 11.5415 3.33464 9.99984ZM10.0013 16.6665C8.45964 16.6665 7.04297 16.1415 5.91797 15.2582L15.2596 5.9165C16.143 7.0415 16.668 8.45817 16.668 9.99984C16.668 13.6832 13.6846 16.6665 10.0013 16.6665Z" fill="#654F4D"/>
</svg>
