<svg width="20" height="20" viewBox="0 0 20 20" fill="none" xmlns="http://www.w3.org/2000/svg">
<circle cx="10" cy="10" r="10" fill="#E43A5A"/>
<path d="M7.64 5.78C8.33333 5.78 8.89 5.97 9.31 6.35C9.73667 6.72333 9.95 7.24 9.95 7.9C9.95 8.55333 9.74 9.05333 9.32 9.4C8.9 9.74 8.34333 9.91 7.65 9.91L7.61 10.68H6.38L6.33 8.98H6.78C7.36 8.98 7.80667 8.90333 8.12 8.75C8.43333 8.59667 8.59 8.31667 8.59 7.91C8.59 7.61667 8.50333 7.38333 8.33 7.21C8.16333 7.03667 7.93333 6.95 7.64 6.95C7.33333 6.95 7.09333 7.03333 6.92 7.2C6.75333 7.36667 6.67 7.59667 6.67 7.89H5.35C5.34333 7.48333 5.43 7.12 5.61 6.8C5.79 6.48 6.05333 6.23 6.4 6.05C6.75333 5.87 7.16667 5.78 7.64 5.78ZM6.99 13.07C6.73667 13.07 6.52667 12.9933 6.36 12.84C6.2 12.68 6.12 12.4833 6.12 12.25C6.12 12.0167 6.2 11.8233 6.36 11.67C6.52667 11.51 6.73667 11.43 6.99 11.43C7.23667 11.43 7.44 11.51 7.6 11.67C7.76 11.8233 7.84 12.0167 7.84 12.25C7.84 12.4833 7.76 12.68 7.6 12.84C7.44 12.9933 7.23667 13.07 6.99 13.07ZM13.0209 5.78C13.7142 5.78 14.2709 5.97 14.6909 6.35C15.1175 6.72333 15.3309 7.24 15.3309 7.9C15.3309 8.55333 15.1209 9.05333 14.7009 9.4C14.2809 9.74 13.7242 9.91 13.0309 9.91L12.9909 10.68H11.7609L11.7109 8.98H12.1609C12.7409 8.98 13.1875 8.90333 13.5009 8.75C13.8142 8.59667 13.9709 8.31667 13.9709 7.91C13.9709 7.61667 13.8842 7.38333 13.7109 7.21C13.5442 7.03667 13.3142 6.95 13.0209 6.95C12.7142 6.95 12.4742 7.03333 12.3009 7.2C12.1342 7.36667 12.0509 7.59667 12.0509 7.89H10.7309C10.7242 7.48333 10.8109 7.12 10.9909 6.8C11.1709 6.48 11.4342 6.23 11.7809 6.05C12.1342 5.87 12.5475 5.78 13.0209 5.78ZM12.3709 13.07C12.1175 13.07 11.9075 12.9933 11.7409 12.84C11.5809 12.68 11.5009 12.4833 11.5009 12.25C11.5009 12.0167 11.5809 11.8233 11.7409 11.67C11.9075 11.51 12.1175 11.43 12.3709 11.43C12.6175 11.43 12.8209 11.51 12.9809 11.67C13.1409 11.8233 13.2209 12.0167 13.2209 12.25C13.2209 12.4833 13.1409 12.68 12.9809 12.84C12.8209 12.9933 12.6175 13.07 12.3709 13.07Z" fill="#FFFBF2"/>
</svg>
