<svg width="32" height="32" viewBox="0 0 32 32" fill="none" xmlns="http://www.w3.org/2000/svg">
<g clip-path="url(#clip0_7344_14327)">
<path d="M28.3672 28.6262V27.6127C28.3672 25.7496 26.8134 24.2393 24.8968 24.2393H7.01095C5.09429 24.2393 3.54053 25.7496 3.54053 27.6127V28.6262C3.54053 30.4892 5.09429 31.9996 7.01095 31.9996H24.8968C26.8134 31.9996 28.3672 30.4892 28.3672 28.6262Z" fill="#BFB3AD"/>
<path d="M21.2031 24.3996V22.8527C21.2031 21.6601 20.2085 20.6934 18.9816 20.6934H12.9187C11.6918 20.6934 10.6972 21.6601 10.6972 22.8527V24.3996C10.6972 25.5922 11.6918 26.559 12.9187 26.559H18.9816C20.2085 26.559 21.2031 25.5922 21.2031 24.3996Z" fill="#C2352E"/>
<path d="M20.6737 2.50488H11.2343C6.35871 2.50488 2.40625 6.34685 2.40625 11.0862V15.3635C2.40625 20.1028 6.35871 23.9448 11.2343 23.9448H20.6737C25.5493 23.9448 29.5017 20.1028 29.5017 15.3635V11.0862C29.5017 6.34685 25.5493 2.50488 20.6737 2.50488Z" fill="#BFB3AD"/>
<path d="M21.196 3.73633H10.712C6.12488 3.73633 2.40625 7.351 2.40625 11.8099V14.6408C2.40625 19.0998 6.12488 22.7144 10.712 22.7144H21.196C25.7831 22.7144 29.5017 19.0998 29.5017 14.6408V11.8099C29.5017 7.351 25.7831 3.73633 21.196 3.73633Z" fill="#F6F1E8"/>
<path d="M23.6317 6.89941H8.27643C5.91031 6.89941 3.99219 8.76392 3.99219 11.0639V15.3852C3.99219 17.6851 5.91031 19.5496 8.27643 19.5496H23.6317C25.9978 19.5496 27.916 17.6851 27.916 15.3852V11.0639C27.916 8.76392 25.9978 6.89941 23.6317 6.89941Z" fill="#C2352E"/>
<path d="M2.74476 3.73535H2.14062V14.9346H2.74476V3.73535Z" fill="#C2352E"/>
<path d="M2.44527 3.77736C2.94575 3.77736 3.35147 3.38299 3.35147 2.89649C3.35147 2.41 2.94575 2.01562 2.44527 2.01562C1.94478 2.01562 1.53906 2.41 1.53906 2.89649C1.53906 3.38299 1.94478 3.77736 2.44527 3.77736Z" fill="#C2352E"/>
<path d="M2.21969 10.0723H1.24492C0.553055 10.0723 -0.0078125 10.6175 -0.0078125 11.29V15.5474C-0.0078125 16.2199 0.553055 16.7651 1.24492 16.7651H2.21969C2.91156 16.7651 3.47243 16.2199 3.47243 15.5474V11.29C3.47243 10.6175 2.91156 10.0723 2.21969 10.0723Z" fill="#BFB3AD"/>
<path d="M29.776 3.73535H29.1719V14.9346H29.776V3.73535Z" fill="#C2352E"/>
<path d="M29.4765 3.77736C29.977 3.77736 30.3827 3.38299 30.3827 2.89649C30.3827 2.41 29.977 2.01562 29.4765 2.01562C28.976 2.01562 28.5703 2.41 28.5703 2.89649C28.5703 3.38299 28.976 3.77736 29.4765 3.77736Z" fill="#C2352E"/>
<path d="M30.7431 10.0723H29.7684C29.0765 10.0723 28.5156 10.6175 28.5156 11.29V15.5474C28.5156 16.2199 29.0765 16.7651 29.7684 16.7651H30.7431C31.435 16.7651 31.9959 16.2199 31.9959 15.5474V11.29C31.9959 10.6175 31.435 10.0723 30.7431 10.0723Z" fill="#BFB3AD"/>
<path d="M20.5547 2.34094V1.04201C20.5547 0.466522 20.0747 0 19.4827 0L12.4245 0C11.8324 0 11.3525 0.466522 11.3525 1.04201V2.34094C11.3525 2.91642 11.8324 3.38295 12.4245 3.38295L19.4827 3.38295C20.0747 3.38295 20.5547 2.91642 20.5547 2.34094Z" fill="#BFB3AD"/>
<path d="M10.321 14.7322C11.495 14.7322 12.4467 13.8071 12.4467 12.6659C12.4467 11.5247 11.495 10.5996 10.321 10.5996C9.14702 10.5996 8.19531 11.5247 8.19531 12.6659C8.19531 13.8071 9.14702 14.7322 10.321 14.7322Z" fill="#F6F1E8"/>
<path d="M21.6882 14.7322C22.8622 14.7322 23.8139 13.8071 23.8139 12.6659C23.8139 11.5247 22.8622 10.5996 21.6882 10.5996C20.5142 10.5996 19.5625 11.5247 19.5625 12.6659C19.5625 13.8071 20.5142 14.7322 21.6882 14.7322Z" fill="#F6F1E8"/>
</g>
<defs>
<clipPath id="clip0_7344_14327">
<rect width="32" height="32" fill="white"/>
</clipPath>
</defs>
</svg>
