<svg width="20" height="21" viewBox="0 0 20 20" fill="none" xmlns="http://www.w3.org/2000/svg">
<path d="M14.6103 9.44355C14.3497 7.31737 12.6716 5.64354 10.5448 5.38834C10.3616 5.36744 10.1775 5.35697 9.99317 5.35693C8.11355 5.35982 6.42112 6.49576 5.70635 8.23417C4.99158 9.97257 5.39552 11.9705 6.72952 13.2947C7.43889 13.974 7.84515 14.9102 7.85675 15.8923V16.4288H12.1425V15.8895C12.1457 14.926 12.5377 14.0045 13.2296 13.3339C14.2747 12.3256 14.7859 10.8852 14.6102 9.4437V9.44355H14.6103Z" fill="#C2352E"/>
<path d="M10.0004 19.9999C10.4543 19.9994 10.8588 19.7134 11.0107 19.2856H8.99023C9.14203 19.7134 9.54653 19.9994 10.0004 19.9999Z" fill="#C2352E"/>
<path d="M8.21484 18.2145C8.21512 18.4117 8.37484 18.5714 8.57199 18.5717H11.4291C11.6263 18.5714 11.786 18.4117 11.7863 18.2145V17.1431H8.21484V18.2145V18.2145Z" fill="#C2352E"/>
</svg>
