<svg width="20" height="20" viewBox="0 0 20 20" fill="none" xmlns="http://www.w3.org/2000/svg">
<g clip-path="url(#clip0)">
<rect x="4" y="4" width="12" height="12" rx="5.5" fill="#FFFBF2"/>
<g filter="url(#filter0_d)">
<path d="M9.99935 1.6665C5.39102 1.6665 1.66602 5.3915 1.66602 9.99984C1.66602 14.6082 5.39102 18.3332 9.99935 18.3332C14.6077 18.3332 18.3327 14.6082 18.3327 9.99984C18.3327 5.3915 14.6077 1.6665 9.99935 1.6665ZM14.166 12.9915L12.991 14.1665L9.99935 11.1748L7.00768 14.1665L5.83268 12.9915L8.82435 9.99984L5.83268 7.00817L7.00768 5.83317L9.99935 8.82484L12.991 5.83317L14.166 7.00817L11.1743 9.99984L14.166 12.9915Z" fill="#CF000F"/>
</g>
</g>
<defs>
<filter id="filter0_d" x="0.666016" y="1.6665" width="18.6667" height="18.6667" filterUnits="userSpaceOnUse" color-interpolation-filters="sRGB">
<feFlood flood-opacity="0" result="BackgroundImageFix"/>
<feColorMatrix in="SourceAlpha" type="matrix" values="0 0 0 0 0 0 0 0 0 0 0 0 0 0 0 0 0 0 127 0" result="hardAlpha"/>
<feOffset dy="1"/>
<feGaussianBlur stdDeviation="0.5"/>
<feComposite in2="hardAlpha" operator="out"/>
<feColorMatrix type="matrix" values="0 0 0 0 0 0 0 0 0 0 0 0 0 0 0 0 0 0 0.1 0"/>
<feBlend mode="normal" in2="BackgroundImageFix" result="effect1_dropShadow"/>
<feBlend mode="normal" in="SourceGraphic" in2="effect1_dropShadow" result="shape"/>
</filter>
<clipPath id="clip0">
<rect width="20" height="20" fill="white"/>
</clipPath>
</defs>
</svg>
