<?xml version="1.0" encoding="utf-8"?>
<!-- Generator: Adobe Illustrator 16.0.0, SVG Export Plug-In . SVG Version: 6.00 Build 0)  -->
<!DOCTYPE svg PUBLIC "-//W3C//DTD SVG 1.1//EN" "http://www.w3.org/Graphics/SVG/1.1/DTD/svg11.dtd">
<svg version="1.1" id="Layer_1" xmlns="http://www.w3.org/2000/svg" xmlns:xlink="http://www.w3.org/1999/xlink" x="0px" y="0px"
	 width="15.209px" height="11.344px" viewBox="0 0 15.209 11.344" enable-background="new 0 0 15.209 11.344" xml:space="preserve">
<g>
	<path fill-rule="evenodd" clip-rule="evenodd" fill="#FFFFFF" d="M8.033,4.683c0.39,0.064,0.751,0.213,1.062,0.428L8.378,5.814
		C8.267,5.757,8.153,5.709,8.033,5.674V4.683L8.033,4.683z M13.438,0.836V0.835l-0.004-0.006l-0.006-0.008h-0.001
		c-0.013-0.011-0.03-0.015-0.046-0.009l-0.005,0.001l-0.003,0.002L3.24,4.771L3.234,4.772L3.23,4.773l0,0.001
		c-0.066,0.025-0.13,0.054-0.19,0.085l0,0C2.973,4.895,2.913,4.93,2.862,4.964v0.002c-0.293,0.199-0.525,0.481-0.66,0.815
		L2.198,5.786L2.197,5.789h0L2.173,5.852l0,0L2.159,5.893l0,0C2.133,5.972,2.115,6.056,2.104,6.14L2.078,6.364L1.87,6.46
		L1.302,6.721L1.297,6.723l0,0C1.274,6.733,1.246,6.75,1.217,6.768h0C1.197,6.78,1.172,6.798,1.144,6.82H1.142
		C1.017,6.917,0.918,7.048,0.859,7.197h0L0.85,7.222h0C0.841,7.25,0.833,7.281,0.827,7.312C0.82,7.344,0.815,7.374,0.812,7.401
		v0.002C0.798,7.552,0.822,7.704,0.884,7.845c0.025,0.054,0.055,0.104,0.087,0.146c0.035,0.047,0.075,0.09,0.119,0.128
		c0.043,0.038,0.091,0.072,0.143,0.102c0.125,0.071,0.271,0.11,0.421,0.109h0.005c0.048,0,0.098-0.004,0.147-0.012L1.84,8.312V8.312
		l0.054-0.013c0.042-0.011,0.083-0.025,0.124-0.044l0,0.002L2.574,8.01l0.191-0.085L2.943,8.03C3.017,8.074,3.09,8.111,3.162,8.142
		l0-0.002c0.077,0.032,0.155,0.06,0.23,0.08h0.001c0.084,0.022,0.164,0.039,0.239,0.049c0.082,0.01,0.165,0.016,0.246,0.016
		L3.88,8.282h0.294h0.267l0.106,0.247l0.001,0.004c0.366,0.84,1.04,1.454,1.832,1.767l0,0.001c0.757,0.298,1.623,0.321,2.431,0.007
		c0.046-0.018,0.087-0.035,0.121-0.05c0.067-0.029,0.146-0.067,0.235-0.114h0.002c0.156-0.083,0.307-0.18,0.448-0.287
		s0.273-0.225,0.393-0.349c0.58-0.604,0.924-1.42,0.929-2.289c0-0.076-0.003-0.161-0.01-0.255V6.963
		c-0.005-0.077-0.015-0.156-0.026-0.235c-0.012-0.086-0.026-0.164-0.042-0.232V6.494c-0.075-0.337-0.206-0.663-0.389-0.964
		l-0.223-0.365l0.377-0.201l3.739-1.993l0.013-0.006l-0.001,0l0.009-0.005l0.005-0.005V2.953c0.009-0.012,0.012-0.031,0.004-0.046
		h0.001l-0.007-0.013l-0.942-2.039L13.438,0.836L13.438,0.836z M14.093,0.357c0.035,0.049,0.067,0.106,0.093,0.168l0.929,2.01
		l0.006,0.011c0.149,0.301,0.104,0.648-0.087,0.898l-0.001,0c-0.037,0.049-0.082,0.096-0.13,0.136
		c-0.05,0.041-0.104,0.078-0.16,0.106L14.733,3.69l-3.368,1.795c0.125,0.266,0.22,0.546,0.283,0.833h0.001
		c0.023,0.104,0.042,0.202,0.055,0.292c0.015,0.095,0.025,0.193,0.032,0.294c0.008,0.096,0.011,0.203,0.01,0.317
		c-0.006,1.082-0.433,2.096-1.153,2.847c-0.151,0.158-0.315,0.304-0.488,0.435s-0.359,0.25-0.558,0.355l0.001,0.001
		C9.464,10.903,9.364,10.95,9.252,11c-0.056,0.023-0.106,0.045-0.15,0.062c-1.006,0.392-2.08,0.362-3.018-0.008H6.082
		c-0.907-0.358-1.688-1.036-2.162-1.96H3.88V9.092c-0.118,0-0.235-0.007-0.35-0.021H3.529C3.406,9.055,3.29,9.031,3.182,9.002V9.001
		C3.066,8.97,2.955,8.932,2.849,8.888V8.886C2.805,8.867,2.764,8.848,2.722,8.827L2.345,8.995v0.002
		C2.267,9.031,2.184,9.06,2.101,9.082L2.089,9.086L2.027,9.101L2.007,9.104L1.944,9.115L1.935,9.116
		c-0.09,0.015-0.184,0.021-0.277,0.021l0,0H1.654H1.653l0,0C1.36,9.139,1.079,9.062,0.833,8.924
		c-0.097-0.055-0.19-0.121-0.276-0.196C0.473,8.653,0.394,8.568,0.325,8.477c-0.07-0.094-0.131-0.193-0.179-0.299L0.142,8.171
		c-0.118-0.267-0.163-0.56-0.134-0.847l0,0c0.006-0.061,0.015-0.119,0.026-0.175V7.147c0.012-0.057,0.028-0.115,0.046-0.173
		l0.003-0.008l0.017-0.048l0.005-0.016c0.113-0.287,0.301-0.536,0.542-0.723H0.646c0.042-0.032,0.091-0.066,0.148-0.102l0.002-0.002
		c0.046-0.028,0.098-0.057,0.156-0.085l0.003-0.001L0.96,5.989l0.003-0.002l0.379-0.174C1.355,5.755,1.371,5.698,1.39,5.643
		l0.003-0.008l0.022-0.063l0.005-0.015l0.024-0.062l0.005-0.009l0.003-0.008l0-0.001c0.197-0.484,0.532-0.895,0.958-1.182l0,0.001
		c0.089-0.06,0.175-0.112,0.258-0.155h0.001c0.09-0.046,0.182-0.089,0.276-0.125l10.134-3.955l0.001,0l0.001,0
		c0.312-0.125,0.655-0.053,0.889,0.157L13.969,0.22C14.018,0.264,14.06,0.311,14.093,0.357L14.093,0.357z M4.548,8.533L4.548,8.533
		L4.548,8.533L4.548,8.533z M9.718,5.709c0.123,0.164,0.226,0.343,0.308,0.533c0.068,0.171,0.116,0.35,0.144,0.533H9.138l0,0
		C9.099,6.658,9.051,6.544,8.992,6.433L9.718,5.709L9.718,5.709z M5.215,6.175c0.077-0.164,0.168-0.319,0.276-0.463l0.723,0.721
		C6.158,6.544,6.108,6.658,6.071,6.775H5.038C5.073,6.568,5.133,6.366,5.215,6.175L5.215,6.175z M6.121,5.106
		c0.31-0.212,0.667-0.36,1.053-0.423v0.991l0,0C7.055,5.711,6.941,5.761,6.83,5.814L6.121,5.106L6.121,5.106z M5.038,7.636
		L5.038,7.636h1.033C6.106,7.755,6.153,7.87,6.214,7.98L5.481,8.725C5.255,8.401,5.103,8.027,5.038,7.636L5.038,7.636z M7.173,9.772
		L7.173,9.772c-0.39-0.059-0.759-0.211-1.075-0.444L6.83,8.596C6.941,8.653,7.055,8.702,7.173,8.74V9.772L7.173,9.772z M8.033,9.772
		L8.033,9.772V8.74c0.12-0.036,0.233-0.085,0.345-0.145l0.744,0.732C8.802,9.562,8.427,9.715,8.033,9.772L8.033,9.772z M9.726,8.725
		L9.726,8.725L8.992,7.98c0.061-0.11,0.109-0.226,0.146-0.345h1.031C10.113,8.03,9.96,8.404,9.726,8.725L9.726,8.725z"/>
</g>
</svg>
