<?xml version="1.0" encoding="utf-8"?>
<!-- Generator: Adobe Illustrator 16.0.0, SVG Export Plug-In . SVG Version: 6.00 Build 0)  -->
<!DOCTYPE svg PUBLIC "-//W3C//DTD SVG 1.1//EN" "http://www.w3.org/Graphics/SVG/1.1/DTD/svg11.dtd">
<svg version="1.1" id="Layer_1" xmlns="http://www.w3.org/2000/svg" xmlns:xlink="http://www.w3.org/1999/xlink" x="0px" y="0px"
	 width="14.401px" height="10.535px" viewBox="0 0 14.401 10.535" enable-background="new 0 0 14.401 10.535" xml:space="preserve">
<g>
	<path fill="#FFFFFF" d="M13.412,0.281c-0.094-0.229-0.354-0.34-0.583-0.249c-0.001,0-0.004,0.001-0.005,0.003L2.689,3.988
		C2.114,4.206,1.654,4.655,1.423,5.225C1.36,5.372,1.319,5.529,1.299,5.688L0.727,5.95C0.431,6.091,0.2,6.34,0.078,6.646
		C-0.036,6.957-0.024,7.3,0.11,7.604C0.316,8.048,0.763,8.333,1.253,8.33c0.18,0.001,0.359-0.035,0.524-0.107l0.557-0.248
		c0.345,0.205,0.74,0.312,1.143,0.31h0.293c0.822,1.895,3.024,2.763,4.917,1.941c1.36-0.59,2.243-1.928,2.251-3.409
		c0.004-0.669-0.177-1.327-0.524-1.9l3.737-1.992c0.223-0.111,0.312-0.38,0.202-0.601c-0.001,0-0.001,0-0.001-0.001L13.412,0.281
		L13.412,0.281z M4.914,5.178L4.914,5.178l0.787,0.788c-0.06,0.12-0.111,0.243-0.153,0.37H4.435
		C4.504,5.919,4.668,5.523,4.914,5.178L4.914,5.178z M4.435,7.263L4.435,7.263h1.113c0.039,0.13,0.091,0.253,0.153,0.371
		L4.914,8.438C4.668,8.087,4.504,7.686,4.435,7.263L4.435,7.263z M6.736,9.566L6.736,9.566C6.317,9.503,5.919,9.338,5.578,9.087
		l0.789-0.789c0.12,0.061,0.243,0.112,0.37,0.154V9.566L6.736,9.566z M6.736,5.148L6.736,5.148c-0.127,0.042-0.25,0.093-0.37,0.154
		L5.578,4.515c0.345-0.246,0.742-0.41,1.159-0.479V5.148L6.736,5.148z M7.663,4.035L7.663,4.035
		c0.423,0.069,0.826,0.233,1.175,0.479L8.035,5.302C7.916,5.239,7.792,5.187,7.663,5.148V4.035L7.663,4.035z M7.663,9.566
		L7.663,9.566V8.453c0.129-0.038,0.253-0.09,0.372-0.154l0.804,0.789C8.492,9.34,8.089,9.504,7.663,9.566L7.663,9.566z M9.488,8.438
		L9.488,8.438L8.699,7.634c0.064-0.118,0.116-0.241,0.154-0.371h1.113C9.905,7.689,9.741,8.091,9.488,8.438L9.488,8.438z
		 M8.853,6.336L8.853,6.336C8.811,6.209,8.759,6.086,8.7,5.966l0.788-0.788C9.739,5.52,9.904,5.917,9.966,6.336H8.853L8.853,6.336z"
		/>
</g>
</svg>
