<svg width="15" height="15" viewBox="0 0 15 15" fill="none" xmlns="http://www.w3.org/2000/svg">
<g clip-path="url(#clip0)">
<path d="M8.37943 7.5039L14.8093 1.07402C15.0575 0.834343 15.0644 0.438888 14.8247 0.190722C14.585 -0.0574443 14.1896 -0.0643256 13.9414 0.175349C13.9362 0.180363 13.9311 0.185488 13.926 0.190722L7.4961 6.62061L1.06621 0.190685C0.818043 -0.048989 0.422587 -0.0421077 0.182913 0.206058C-0.0509052 0.448149 -0.0509052 0.831928 0.182913 1.07402L6.6128 7.5039L0.182913 13.9338C-0.060971 14.1777 -0.060971 14.5732 0.182913 14.8171C0.426833 15.0609 0.822289 15.0609 1.06621 14.8171L7.4961 8.3872L13.926 14.8171C14.1742 15.0568 14.5696 15.0499 14.8093 14.8017C15.0431 14.5596 15.0431 14.1758 14.8093 13.9338L8.37943 7.5039Z" fill="white"/>
</g>
<defs>
<clipPath id="clip0">
<rect width="15" height="15" fill="white"/>
</clipPath>
</defs>
</svg>
