<svg width="20" height="20" viewBox="0 0 20 20" fill="none" xmlns="http://www.w3.org/2000/svg">
<path d="M11.1726 10.0052L19.7458 1.43203C20.0767 1.11246 20.0859 0.585186 19.7663 0.254297C19.4467 -0.0765925 18.9195 -0.0857676 18.5886 0.233799C18.5816 0.240485 18.5748 0.247318 18.5681 0.254297L9.99482 8.82749L1.42162 0.254248C1.09073 -0.0653189 0.563451 -0.0561438 0.243884 0.274745C-0.0678738 0.597533 -0.0678738 1.10924 0.243884 1.43203L8.81709 10.0052L0.243884 18.5784C-0.0812948 18.9037 -0.0812948 19.4309 0.243884 19.7562C0.569112 20.0813 1.09639 20.0813 1.42162 19.7562L9.99482 11.183L18.568 19.7562C18.8989 20.0757 19.4262 20.0665 19.7458 19.7357C20.0575 19.4129 20.0575 18.9012 19.7458 18.5784L11.1726 10.0052Z" fill="#664F4C"/>
</svg>
