<svg width="30" height="28" viewBox="0 0 30 28" fill="none" xmlns="http://www.w3.org/2000/svg">
<path fill-rule="evenodd" clip-rule="evenodd" d="M6 8.50227C5.99875 7.94998 6.44545 7.50126 6.99774 7.50001L13.25 7.5C13.8023 7.49875 13.2487 7.94773 13.25 8.50002C13.2513 9.0523 13.8023 9.49875 13.25 9.5L9.41647 9.49454L14.75 14.804V24C14.75 24.5523 14.3023 25 13.75 25C13.1977 25 12.75 24.5523 12.75 24V15.6351L8.00546 10.9119L8.02037 17.4977C8.02162 18.05 7.57492 18.4987 7.02263 18.5C6.47035 18.5012 6.02162 18.0545 6.02037 17.5022L6 8.50227Z" fill="#C2352E"/>
<path d="M18.25 3C15.214 3 12.75 5.464 12.75 8.5C12.75 11.536 15.214 14 18.25 14C21.286 14 23.75 11.536 23.75 8.5C23.75 5.464 21.286 3 18.25 3ZM18.25 12.9C15.8245 12.9 13.85 10.9255 13.85 8.5C13.85 6.0745 15.8245 4.1 18.25 4.1C20.6755 4.1 22.65 6.0745 22.65 8.5C22.65 10.9255 20.6755 12.9 18.25 12.9ZM20.384 6.4595L17.15 9.6935L16.116 8.6595C15.9015 8.445 15.555 8.445 15.3405 8.6595C15.126 8.874 15.126 9.2205 15.3405 9.435L16.765 10.8595C16.9795 11.074 17.326 11.074 17.5405 10.8595L21.165 7.235C21.3795 7.0205 21.3795 6.674 21.165 6.4595C20.9505 6.245 20.5985 6.245 20.384 6.4595Z" fill="#C2352E"/>
</svg>
