<svg width="17" height="18" viewBox="0 0 17 18" fill="none" xmlns="http://www.w3.org/2000/svg">
<path d="M8.5013 0.666626C3.9013 0.666626 0.167969 4.39996 0.167969 8.99996C0.167969 13.6 3.9013 17.3333 8.5013 17.3333C13.1013 17.3333 16.8346 13.6 16.8346 8.99996C16.8346 4.39996 13.1013 0.666626 8.5013 0.666626ZM11.8346 9.83329H9.33464V12.3333C9.33464 12.7916 8.95964 13.1666 8.5013 13.1666C8.04297 13.1666 7.66797 12.7916 7.66797 12.3333V9.83329H5.16797C4.70964 9.83329 4.33464 9.45829 4.33464 8.99996C4.33464 8.54163 4.70964 8.16663 5.16797 8.16663H7.66797V5.66663C7.66797 5.20829 8.04297 4.83329 8.5013 4.83329C8.95964 4.83329 9.33464 5.20829 9.33464 5.66663V8.16663H11.8346C12.293 8.16663 12.668 8.54163 12.668 8.99996C12.668 9.45829 12.293 9.83329 11.8346 9.83329Z" fill="#FFFBF2"/>
</svg>
