<svg width="35" height="35" viewBox="0 0 35 35" fill="none" xmlns="http://www.w3.org/2000/svg">
<g clip-path="url(#clip0_6491_14259)">
<path d="M5.8125 3.15625H11.125V4.21875H6.34375V30.7812H11.125V31.8438H5.8125C5.6716 31.8438 5.53648 31.7878 5.43685 31.6882C5.33722 31.5885 5.28125 31.4534 5.28125 31.3125V3.6875C5.28125 3.5466 5.33722 3.41148 5.43685 3.31185C5.53648 3.21222 5.6716 3.15625 5.8125 3.15625Z" fill="#C2352E"/>
<path d="M12.3745 1.15759C12.4331 1.10785 12.5017 1.0714 12.5757 1.05077C12.6498 1.03013 12.7274 1.0258 12.8032 1.03806L29.272 3.69431C29.3966 3.71438 29.51 3.77817 29.5919 3.87425C29.6737 3.97033 29.7187 4.09243 29.7188 4.21866V30.7812C29.7187 30.9074 29.6737 31.0295 29.5919 31.1256C29.51 31.2216 29.3966 31.2854 29.272 31.3055L12.8032 33.9618C12.7753 33.9664 12.7471 33.9687 12.7188 33.9687C12.5779 33.9687 12.4427 33.9127 12.3431 33.8131C12.2435 33.7134 12.1875 33.5783 12.1875 33.4374V1.56241C12.1875 1.48541 12.2042 1.40933 12.2365 1.33943C12.2688 1.26953 12.3159 1.20749 12.3745 1.15759ZM16.4422 19.9739C16.7576 19.935 17.0453 19.7743 17.2438 19.5261C17.4423 19.278 17.5359 18.9621 17.5047 18.6458C17.5359 18.3296 17.4423 18.0136 17.2438 17.7655C17.0453 17.5173 16.7576 17.3566 16.4422 17.3177C16.1268 17.3566 15.8391 17.5173 15.6406 17.7655C15.4421 18.0136 15.3485 18.3296 15.3797 18.6458C15.3485 18.9621 15.4421 19.278 15.6406 19.5261C15.8391 19.7743 16.1268 19.935 16.4422 19.9739Z" fill="#C2352E"/>
<path fill-rule="evenodd" clip-rule="evenodd" d="M16.4375 20.1562C17.3177 20.1562 18.0312 19.4427 18.0312 18.5625C18.0312 17.6823 17.3177 16.9688 16.4375 16.9688C15.5573 16.9688 14.8438 17.6823 14.8438 18.5625C14.8438 19.4427 15.5573 20.1562 16.4375 20.1562ZM16.4375 19.625C17.0243 19.625 17.5 19.1493 17.5 18.5625C17.5 17.9757 17.0243 17.5 16.4375 17.5C15.8507 17.5 15.375 17.9757 15.375 18.5625C15.375 19.1493 15.8507 19.625 16.4375 19.625Z" fill="#C2352E"/>
<circle cx="0.5" cy="34.5" r="1" fill="#C2352E"/>
</g>
<defs>
<clipPath id="clip0_6491_14259">
<rect width="34" height="34" fill="white" transform="matrix(-1 0 0 1 34.5 0.5)"/>
</clipPath>
</defs>
</svg>
