<svg width="21" height="21" viewBox="0 0 21 21" fill="none" xmlns="http://www.w3.org/2000/svg">
<g clip-path="url(#clip0_10976_394)">
<path d="M9.625 15.75C9.625 16.7125 8.8375 17.5 7.875 17.5C6.9125 17.5 6.125 16.7125 6.125 15.75C6.125 14.7875 6.9125 14 7.875 14C8.8375 14 9.625 14.7875 9.625 15.75ZM7.875 8.75C6.9125 8.75 6.125 9.5375 6.125 10.5C6.125 11.4625 6.9125 12.25 7.875 12.25C8.8375 12.25 9.625 11.4625 9.625 10.5C9.625 9.5375 8.8375 8.75 7.875 8.75ZM7.875 3.5C6.9125 3.5 6.125 4.2875 6.125 5.25C6.125 6.2125 6.9125 7 7.875 7C8.8375 7 9.625 6.2125 9.625 5.25C9.625 4.2875 8.8375 3.5 7.875 3.5ZM13.125 7C14.0875 7 14.875 6.2125 14.875 5.25C14.875 4.2875 14.0875 3.5 13.125 3.5C12.1625 3.5 11.375 4.2875 11.375 5.25C11.375 6.2125 12.1625 7 13.125 7ZM13.125 8.75C12.1625 8.75 11.375 9.5375 11.375 10.5C11.375 11.4625 12.1625 12.25 13.125 12.25C14.0875 12.25 14.875 11.4625 14.875 10.5C14.875 9.5375 14.0875 8.75 13.125 8.75ZM13.125 14C12.1625 14 11.375 14.7875 11.375 15.75C11.375 16.7125 12.1625 17.5 13.125 17.5C14.0875 17.5 14.875 16.7125 14.875 15.75C14.875 14.7875 14.0875 14 13.125 14Z" fill="#BFB3AD"/>
</g>
<defs>
<clipPath id="clip0_10976_394">
<rect width="21" height="21" fill="white"/>
</clipPath>
</defs>
</svg>
