<svg width="16" height="15" viewBox="0 0 16 15" fill="none" xmlns="http://www.w3.org/2000/svg">
<g clip-path="url(#clip0_4469_16523)">
<path d="M5.41507 9.75751C5.59765 9.59686 5.61558 9.31871 5.45513 9.13595L5.43089 9.10812C5.35387 9.02061 5.24511 8.96751 5.12876 8.96054C5.11907 8.96054 5.10935 8.96054 5.09945 8.96054C4.99262 8.96036 4.88943 8.9993 4.80933 9.06998L4.21897 9.58823L3.68133 10.0601C3.49929 10.221 3.48148 10.4987 3.64148 10.6815L3.66613 10.7097C3.8269 10.8922 4.10505 10.9101 4.2879 10.7498L4.70116 10.3871L5.41507 9.75751Z" fill="#FFFBF2"/>
<path d="M3.99885 10.9626C3.98661 10.9626 3.97461 10.9626 3.96237 10.9615C3.81787 10.9526 3.68297 10.8862 3.5877 10.7773L3.5628 10.7488C3.3649 10.5223 3.38704 10.1785 3.61235 9.97922L4.74078 8.98827C4.84969 8.89296 4.99188 8.84463 5.13632 8.85375C5.28082 8.86267 5.41571 8.92903 5.51099 9.03802L5.54557 9.0783C5.73423 9.30539 5.70788 9.64139 5.48613 9.83626L4.35811 10.8272C4.25895 10.9148 4.13114 10.9629 3.99885 10.9626ZM5.10028 9.06502C5.01896 9.06543 4.94058 9.09542 4.87974 9.14936L3.75172 10.1403C3.61336 10.2628 3.5999 10.474 3.72158 10.613L3.74648 10.6415C3.86881 10.78 4.08022 10.7935 4.21918 10.6716L5.34699 9.68065C5.48574 9.5585 5.49931 9.34705 5.37737 9.20816L5.35271 9.17971C5.29433 9.11294 5.21165 9.07231 5.1231 9.06692L5.10028 9.06502Z" fill="#FFFBF2"/>
<path d="M6.99809 10.8594C6.89126 10.8593 6.78801 10.8981 6.70776 10.9686L6.12562 11.4797C5.94268 11.6403 5.92451 11.9187 6.08502 12.1016C6.24555 12.2845 6.52397 12.3027 6.7069 12.1422L7.28905 11.6311C7.47198 11.4708 7.4903 11.1925 7.32997 11.0096C7.2462 10.914 7.1252 10.8593 6.99809 10.8594Z" fill="#FFFBF2"/>
<path d="M6.41792 12.3572C6.11644 12.3577 5.87163 12.1138 5.87109 11.8123C5.87083 11.6547 5.93866 11.5047 6.05717 11.4008L6.63952 10.8898C6.86913 10.6997 7.20715 10.7217 7.41015 10.9399C7.60911 11.1667 7.58665 11.5117 7.35997 11.7108L6.77783 12.2218C6.67835 12.3093 6.55035 12.3575 6.41792 12.3572ZM6.99941 10.9657C6.91803 10.9651 6.83923 10.9941 6.7778 11.0475L6.19545 11.5586C6.05622 11.6808 6.0425 11.8928 6.16478 12.032C6.28705 12.1712 6.49903 12.1849 6.63822 12.0627L7.22057 11.5522C7.35974 11.4303 7.37367 11.2186 7.25172 11.0795C7.18797 11.0067 7.0959 10.9651 6.9992 10.9652L6.99941 10.9657Z" fill="#FFFBF2"/>
<path d="M1.80379 2.7818L0.620117 7.94577L1.56639 8.47751L4.01511 4.49428L1.80379 2.7818Z" fill="#FFFBF2"/>
<path d="M1.60334 8.61856L0.5 7.99869L1.73785 2.59692L4.15454 4.46815L1.60334 8.61856ZM0.740783 7.892L1.52996 8.33478L3.87621 4.51853L1.86984 2.96588L0.740783 7.892Z" fill="#FFFBF2"/>
<path d="M4.04442 9.15907C4.2273 8.99845 4.24541 8.72003 4.0849 8.53709L4.07732 8.52844C4.00047 8.44042 3.8916 8.38681 3.77498 8.37958C3.76529 8.37958 3.75557 8.37958 3.74567 8.37958C3.63884 8.3794 3.53565 8.41834 3.45555 8.48902L2.74858 9.10807C2.5657 9.26869 2.54759 9.54711 2.7081 9.73005C2.86543 9.91725 3.14474 9.94144 3.33194 9.78407C3.33387 9.78244 3.33579 9.78081 3.33769 9.77915L3.39124 9.73212L3.92932 9.25983L4.04442 9.15907Z" fill="#FFFBF2"/>
<path d="M3.05374 9.99344C3.04025 9.99344 3.02653 9.99344 3.01263 9.99196C2.86535 9.98061 2.7285 9.91159 2.63186 9.79989C2.43286 9.57328 2.45523 9.22827 2.68182 9.02927L3.38793 8.40961C3.61454 8.21088 3.95929 8.23326 4.15834 8.45958C4.25857 8.56964 4.30983 8.71562 4.30044 8.86418C4.29152 9.00877 4.22508 9.14378 4.11596 9.23906L3.41007 9.85872C3.31177 9.9457 3.18499 9.99364 3.05374 9.99344ZM3.7476 8.48468C3.66629 8.485 3.58784 8.51499 3.52706 8.56902L2.82096 9.18868C2.68179 9.3108 2.66801 9.52263 2.79014 9.66177L2.79017 9.6618C2.85038 9.73191 2.93585 9.77541 3.02798 9.78282C3.11656 9.78976 3.20416 9.76036 3.27066 9.70145L3.97656 9.08179C4.11561 8.95957 4.12939 8.74783 4.00735 8.60867C3.94814 8.53722 3.86229 8.49312 3.76974 8.4866L3.7476 8.48468Z" fill="#FFFBF2"/>
<path d="M6.50887 10.3919C6.51684 10.2752 6.47772 10.1601 6.40029 10.0724L6.39397 10.0652C6.31707 9.97782 6.20846 9.92472 6.09226 9.91766C6.08257 9.91766 6.07264 9.91766 6.06295 9.91766C5.95612 9.91749 5.85293 9.9564 5.77283 10.0271L5.70366 10.0878L4.98931 10.7149L4.79956 10.8806C4.61633 11.0464 4.60222 11.3293 4.768 11.5125C4.84535 11.598 4.95274 11.6504 5.06776 11.6586C5.18449 11.6667 5.29959 11.6276 5.38719 11.55L6.3598 10.6963C6.44835 10.6189 6.50208 10.5092 6.50887 10.3919Z" fill="#FFFBF2"/>
<path d="M5.09765 11.7638C5.08562 11.7638 5.07382 11.7638 5.06182 11.7628C4.75812 11.744 4.52718 11.4825 4.54599 11.1789C4.555 11.0332 4.62147 10.897 4.7308 10.8003L5.70258 9.94551C5.81167 9.85047 5.95374 9.80216 6.09812 9.811C6.24241 9.81983 6.37719 9.88603 6.47238 9.99485C6.5724 10.1047 6.62355 10.2505 6.61406 10.3988C6.60494 10.543 6.53867 10.6776 6.43 10.7729L5.45739 11.6265C5.35826 11.7148 5.23029 11.7636 5.09765 11.7638ZM5.77234 10.1654L4.86973 10.9578C4.7305 11.0799 4.71637 11.2916 4.83811 11.4311C4.89735 11.5016 4.98263 11.545 5.07447 11.5515C5.16356 11.5578 5.25142 11.528 5.31822 11.4687L6.29084 10.615C6.42997 10.493 6.4439 10.2813 6.32192 10.1422C6.32183 10.142 6.32172 10.1419 6.32163 10.1418C6.26256 10.071 6.1771 10.0274 6.08505 10.0212H6.06271C5.9813 10.0212 5.90277 10.0512 5.84216 10.1055L5.77234 10.1654Z" fill="#FFFBF2"/>
<path d="M12.3356 8.98389L8.90431 6.1879C7.59033 6.88559 6.65989 6.52651 6.21501 6.24252C5.98312 6.0912 5.9178 5.78051 6.06912 5.54862C6.11612 5.47658 6.1809 5.41784 6.25718 5.37807L7.40079 4.77064C7.37127 4.76623 7.34238 4.76244 7.31645 4.75989C6.28441 4.92294 5.24215 5.0127 4.19744 5.0285L2.19824 8.28009L2.64395 8.61977L3.16789 8.15972C3.53166 7.84037 4.08545 7.87638 4.40479 8.24014C4.40482 8.24017 4.40485 8.24023 4.40491 8.24026L4.4125 8.24892C4.51735 8.36914 4.58708 8.5159 4.61407 8.67314C4.77295 8.56473 4.96362 8.51278 5.15553 8.52556C5.38766 8.54002 5.60435 8.64676 5.75727 8.82199L5.78192 8.85024C5.93564 9.02452 6.01331 9.253 5.99761 9.48487V9.48614C6.03773 9.48205 6.07809 9.48072 6.11843 9.48214C6.35056 9.49663 6.56722 9.60338 6.72016 9.77858L6.56265 9.92954L6.72648 9.78575C6.88043 9.96009 6.95825 10.1888 6.9426 10.4208C6.9426 10.4238 6.94133 10.4265 6.94112 10.4294C7.42118 10.3953 7.83802 10.7568 7.87219 11.2368C7.87503 11.2769 7.87512 11.3171 7.87242 11.3572C7.86161 11.5079 7.81161 11.6533 7.72736 11.7788L8.6675 12.3213C8.87361 12.4382 9.13534 12.3689 9.25658 12.1653C9.37156 11.971 9.31549 11.7208 9.12859 11.5941L7.63161 10.5568C7.63034 10.5568 7.62972 10.5545 7.62865 10.5536L7.52786 10.4838C7.43007 10.4136 7.40775 10.2774 7.47801 10.1796C7.54653 10.0842 7.67832 10.0602 7.77602 10.1254L9.88742 11.588C10.0822 11.723 10.3495 11.6746 10.4845 11.4798C10.4846 11.4797 10.4846 11.4796 10.4847 11.4794C10.6172 11.2858 10.5704 11.0217 10.3793 10.8855L8.27827 9.39525C8.277 9.39525 8.27658 9.39294 8.27531 9.39208C8.17716 9.3222 8.15422 9.186 8.22407 9.08782C8.29392 8.98964 8.43015 8.96673 8.52833 9.03658L10.8839 10.7077C11.0899 10.8532 11.3748 10.8041 11.5203 10.5981C11.6611 10.3987 11.6202 10.1237 11.4274 9.97399L8.89284 8.14768C8.79268 8.08086 8.76565 7.94551 8.83248 7.84535C8.8993 7.74518 9.03464 7.71816 9.13481 7.78498C9.13857 7.7875 9.14225 7.79011 9.14586 7.79287L9.31917 7.91641H9.32148L11.6705 9.60886C11.6749 9.61203 11.6781 9.61603 11.6823 9.6192L11.7211 9.64703C11.7285 9.65213 11.7355 9.65767 11.7421 9.66368L11.7843 9.69258C11.9806 9.83325 12.2528 9.79565 12.4036 9.60696C12.4937 9.49302 12.5229 9.34235 12.4818 9.20298C12.4568 9.11662 12.4057 9.04014 12.3356 8.98389Z" fill="#FFFBF2"/>
<path d="M8.88231 12.4835C8.78911 12.4836 8.69757 12.459 8.61687 12.4125L7.57888 11.8139L7.64212 11.7211C7.87645 11.3676 7.77981 10.8911 7.42632 10.6568C7.31421 10.5825 7.18453 10.5389 7.05028 10.5305C7.02412 10.5292 6.99789 10.5299 6.97184 10.5326L6.83037 10.5414L6.83857 10.4215C6.85185 10.2511 6.80808 10.0812 6.71417 9.93843L6.6351 10.008L6.49256 9.85284L6.57269 9.77609C6.4452 9.66371 6.28393 9.59694 6.11433 9.58633C6.0836 9.58533 6.05281 9.5863 6.02219 9.5893L5.90896 9.59774L5.89482 9.47292V9.46848C5.90588 9.26749 5.83775 9.07018 5.70507 8.91881L5.68018 8.89036C5.42635 8.59899 4.99487 8.54325 4.67529 8.76047L4.54098 8.85071L4.51274 8.6913C4.44111 8.26986 4.0414 7.98632 3.61996 8.05798C3.47902 8.08195 3.34744 8.14448 3.23987 8.23863L2.65099 8.75561L2.05957 8.30546L4.13869 4.92353L4.19541 4.92184C5.23444 4.90598 6.27107 4.81684 7.29756 4.65512L7.31232 4.65216L7.32728 4.65343C7.35511 4.65595 7.3859 4.66019 7.41773 4.66481L7.73399 4.71226L6.30784 5.46961C6.11356 5.56998 6.03746 5.80887 6.13783 6.00315C6.1693 6.06405 6.21603 6.11574 6.27347 6.15317C6.692 6.42029 7.58513 6.76841 8.85608 6.09393L8.91787 6.06103L12.4031 8.90088C12.4896 8.97114 12.5524 9.0663 12.583 9.17349C12.6339 9.34537 12.598 9.5313 12.4868 9.67192C12.3006 9.90464 11.9648 9.95096 11.7225 9.77733L11.6042 9.68899L9.08593 7.87575C9.03561 7.83963 8.96553 7.85112 8.9294 7.90144C8.92928 7.90159 8.92919 7.90174 8.92907 7.90192C8.89289 7.95236 8.90445 8.02256 8.95486 8.05875C8.95498 8.05883 8.95509 8.05892 8.95521 8.05901L11.4902 9.8868C11.7359 10.0765 11.7814 10.4295 11.5917 10.6752C11.4081 10.9131 11.0699 10.9645 10.8239 10.792L8.46775 9.12166C8.4433 9.10432 8.41295 9.09742 8.38341 9.10249C8.32209 9.11286 8.28081 9.17097 8.29118 9.23229C8.29616 9.26174 8.31267 9.28803 8.33703 9.30534L10.4417 10.7992C10.6795 10.9691 10.7375 11.298 10.5722 11.539C10.4043 11.7818 10.0714 11.8426 9.82858 11.6748C9.82849 11.6747 9.8284 11.6746 9.82831 11.6746L7.71737 10.2117C7.66743 10.1747 7.59693 10.1851 7.55986 10.235C7.52278 10.285 7.53321 10.3555 7.58315 10.3925C7.58519 10.3941 7.58727 10.3955 7.5894 10.3969L9.19054 11.5072C9.43402 11.6739 9.49626 12.0064 9.32956 12.2499C9.25775 12.3547 9.15089 12.4306 9.0282 12.4638C8.9807 12.4768 8.93162 12.4835 8.88231 12.4835ZM7.87407 11.7403L8.72228 12.2299C8.88041 12.3154 9.07796 12.2566 9.16352 12.0985C9.24074 11.9558 9.20109 11.778 9.07058 11.6817L7.87404 10.8514C7.95507 11.0092 7.99152 11.1861 7.97946 11.3631C7.97092 11.4948 7.935 11.6233 7.87407 11.7403ZM7.65439 9.98125C7.71994 9.98113 7.78396 10.0011 7.83783 10.0384L9.94878 11.501C10.0958 11.6026 10.2974 11.5659 10.3991 11.419C10.4992 11.273 10.4639 11.0738 10.3199 10.9709L8.20382 9.46848C8.0638 9.35758 8.04018 9.15414 8.15107 9.01411C8.25731 8.87999 8.44961 8.8518 8.58987 8.94981L10.9461 10.6209C11.1051 10.732 11.3241 10.693 11.4351 10.5339C11.5417 10.3812 11.5106 10.1718 11.3642 10.0567L8.83238 8.23232C8.68711 8.12845 8.65356 7.92649 8.75743 7.78122C8.8613 7.63595 9.06326 7.6024 9.20853 7.70627L9.38438 7.83088L11.7838 9.56171C11.7946 9.56947 11.8048 9.57792 11.8146 9.58702L11.8443 9.60643C11.9945 9.71525 12.2036 9.68745 12.3202 9.54319C12.3894 9.45597 12.4119 9.34051 12.3805 9.23368C12.3621 9.16747 12.3238 9.10856 12.2706 9.065L8.89268 6.31266C7.56036 6.99367 6.61053 6.61882 6.15952 6.33059C5.87838 6.14819 5.79833 5.77242 5.98073 5.49127C6.03784 5.40323 6.11682 5.33151 6.20993 5.28312L6.85638 4.93986C6.19896 5.02906 5.30141 5.09547 4.25922 5.12961L2.34051 8.25211L2.64222 8.48172L3.10165 8.0786C3.50904 7.72088 4.12933 7.76115 4.48705 8.16854C4.48714 8.16863 4.48723 8.16875 4.48732 8.16884C4.57545 8.26853 4.64272 8.38488 4.6851 8.51103C4.83437 8.43849 5.00003 8.40627 5.1656 8.41762C5.42588 8.43378 5.66886 8.55344 5.84029 8.74992L5.86519 8.77837C6.01099 8.94361 6.0964 9.15346 6.10745 9.37359H6.12852C6.35559 9.38843 6.57032 9.48217 6.73553 9.63861L6.73891 9.63565L6.79605 9.70102L6.80215 9.70778L6.86856 9.78346L6.8656 9.78643C6.97875 9.94166 7.04338 10.1269 7.05135 10.3188H7.06421C7.15786 10.3249 7.25017 10.3444 7.33831 10.3766C7.29777 10.203 7.40567 10.0294 7.57927 9.98883C7.60395 9.98308 7.62923 9.98024 7.65457 9.98039L7.65439 9.98125Z" fill="#FFFBF2"/>
<path d="M14.1953 2.70041L11.9844 4.41289L14.0296 7.73937C14.043 7.74633 14.0557 7.75475 14.0673 7.76447C14.1024 7.8006 14.1236 7.84792 14.1272 7.89815L14.4336 8.39637L15.379 7.86443L14.1953 2.70041Z" fill="#FFFBF2"/>
<path d="M14.3964 8.53963L14.0242 7.9341L14.0219 7.90966C14.0206 7.88384 14.0101 7.85934 13.9924 7.84049L13.9519 7.81645L13.9395 7.79538L11.8447 4.38918L14.2618 2.51773L15.4999 7.91952L14.3964 8.53963ZM14.2277 7.86366L14.4693 8.25647L15.2585 7.8137L14.1298 2.88651L12.1237 4.44L14.1056 7.6636C14.1187 7.67142 14.1308 7.68076 14.1417 7.69142C14.1879 7.73834 14.2182 7.79858 14.2283 7.86369L14.2277 7.86366Z" fill="#FFFBF2"/>
<path d="M11.4168 5.00519C10.9879 5.18175 10.5101 5.19912 10.0695 5.05411L8.90885 4.67734C8.74844 4.62648 8.57437 4.64166 8.42518 4.71951L8.03175 4.92846C8.02755 4.93057 8.02396 4.93311 8.01951 4.93501L6.46055 5.76322C6.43835 5.77386 6.42389 5.79597 6.42303 5.82056C6.42131 5.84282 6.43213 5.86421 6.45106 5.87601C6.90963 6.16865 7.69504 6.38203 8.81945 5.73684C8.8978 5.69201 8.99565 5.69995 9.06571 5.75688L12.6096 8.64542C12.6589 8.68599 12.7035 8.73205 12.7424 8.78269L13.6186 7.9058L11.7512 4.86839L11.4168 5.00519Z" fill="#FFFBF2"/>
<path d="M12.7334 8.93915L12.66 8.84615C12.6261 8.80176 12.5872 8.76143 12.544 8.72598L8.99936 5.83827C8.96324 5.80941 8.91318 5.80532 8.87285 5.82793C7.70245 6.50011 6.87956 6.27322 6.39523 5.96455C6.34426 5.93242 6.31489 5.87499 6.31869 5.81486C6.32124 5.75293 6.35715 5.69724 6.41251 5.66938L8.3765 4.62636C8.55081 4.53502 8.7544 4.51712 8.94199 4.5766L10.1022 4.95276C10.519 5.09005 10.9711 5.07375 11.3768 4.90679L11.7949 4.73559L13.7527 7.91932L12.7334 8.93915ZM8.92744 5.60191C9.00194 5.60176 9.07422 5.62721 9.13215 5.67401L12.6762 8.56255C12.7012 8.58267 12.7249 8.6043 12.7473 8.62727L13.4852 7.88933L11.7084 4.99845L11.4571 5.10134C11.0049 5.28748 10.5011 5.30571 10.0366 5.15279L8.877 4.77622C8.74346 4.73429 8.59873 4.74718 8.47471 4.81208L6.57017 5.82414C7.01146 6.08051 7.73739 6.23674 8.76777 5.64494C8.8164 5.61696 8.87143 5.60214 8.92744 5.60191Z" fill="#FFFBF2"/>
</g>
<defs>
<clipPath id="clip0_4469_16523">
<rect width="15" height="15" fill="white" transform="translate(0.5)"/>
</clipPath>
</defs>
</svg>
