<svg width="24" height="24" viewBox="0 0 24 24" fill="none" xmlns="http://www.w3.org/2000/svg">
<g clip-path="url(#clip0_10728_19140)">
<path d="M7 4C7 4.55228 7.44772 5 8 5C8.55228 5 9 4.55228 9 4C9 3.44772 8.55228 3 8 3C7.44772 3 7 3.44772 7 4ZM7 20C7 20.5523 7.44772 21 8 21C8.55228 21 9 20.5523 9 20C9 19.4477 8.55228 19 8 19C7.44772 19 7 19.4477 7 20ZM11 20C11 20.5523 11.4477 21 12 21C12.5523 21 13 20.5523 13 20C13 19.4477 12.5523 19 12 19C11.4477 19 11 19.4477 11 20ZM3 20C3 20.5523 3.44772 21 4 21C4.55228 21 5 20.5523 5 20C5 19.4477 4.55228 19 4 19C3.44772 19 3 19.4477 3 20ZM3 16C3 16.5523 3.44772 17 4 17C4.55228 17 5 16.5523 5 16C5 15.4477 4.55228 15 4 15C3.44772 15 3 15.4477 3 16ZM3 12C3 12.5523 3.44772 13 4 13C4.55228 13 5 12.5523 5 12C5 11.4477 4.55228 11 4 11C3.44772 11 3 11.4477 3 12ZM3 8C3 8.55228 3.44772 9 4 9C4.55228 9 5 8.55228 5 8C5 7.44772 4.55228 7 4 7C3.44772 7 3 7.44772 3 8ZM3 4C3 4.55228 3.44772 5 4 5C4.55228 5 5 4.55228 5 4C5 3.44772 4.55228 3 4 3C3.44772 3 3 3.44772 3 4ZM19 16C19 16.5523 19.4477 17 20 17C20.5523 17 21 16.5523 21 16C21 15.4477 20.5523 15 20 15C19.4477 15 19 15.4477 19 16ZM19 12C19 12.5523 19.4477 13 20 13C20.5523 13 21 12.5523 21 12C21 11.4477 20.5523 11 20 11C19.4477 11 19 11.4477 19 12ZM19 20C19 20.5523 19.4477 21 20 21C20.5523 21 21 20.5523 21 20C21 19.4477 20.5523 19 20 19C19.4477 19 19 19.4477 19 20ZM11 4C11 4.55228 11.4477 5 12 5C12.5523 5 13 4.55228 13 4C13 3.44772 12.5523 3 12 3C11.4477 3 11 3.44772 11 4ZM15 20C15 20.5523 15.4477 21 16 21C16.5523 21 17 20.5523 17 20C17 19.4477 16.5523 19 16 19C15.4477 19 15 19.4477 15 20Z" fill="#654F4D"/>
<path d="M8 13.4437V15.6389C8 15.8411 8.15887 16 8.36106 16H10.5563C10.6502 16 10.7441 15.9639 10.8091 15.8917L18.6946 8.01333L15.9867 5.30537L8.10832 13.1837C8.03611 13.2559 8 13.3426 8 13.4437ZM20.7888 5.91918C21.0704 5.63755 21.0704 5.18261 20.7888 4.90099L19.099 3.21122C18.8174 2.92959 18.3624 2.92959 18.0808 3.21122L16.7593 4.5327L19.4673 7.24066L20.7888 5.91918Z" fill="#654F4D"/>
</g>
<defs>
<clipPath id="clip0_10728_19140">
<rect width="24" height="24" fill="white"/>
</clipPath>
</defs>
</svg>
