<svg width="20" height="20" viewBox="0 0 20 20" fill="none" xmlns="http://www.w3.org/2000/svg">
<g clip-path="url(#clip0_10206_856)">
<path d="M5.83333 3.33333C5.83333 3.79357 6.20643 4.16667 6.66667 4.16667C7.1269 4.16667 7.5 3.79357 7.5 3.33333C7.5 2.8731 7.1269 2.5 6.66667 2.5C6.20643 2.5 5.83333 2.8731 5.83333 3.33333ZM5.83333 16.6667C5.83333 17.1269 6.20643 17.5 6.66667 17.5C7.1269 17.5 7.5 17.1269 7.5 16.6667C7.5 16.2064 7.1269 15.8333 6.66667 15.8333C6.20643 15.8333 5.83333 16.2064 5.83333 16.6667ZM9.16667 16.6667C9.16667 17.1269 9.53976 17.5 10 17.5C10.4602 17.5 10.8333 17.1269 10.8333 16.6667C10.8333 16.2064 10.4602 15.8333 10 15.8333C9.53976 15.8333 9.16667 16.2064 9.16667 16.6667ZM2.5 16.6667C2.5 17.1269 2.8731 17.5 3.33333 17.5C3.79357 17.5 4.16667 17.1269 4.16667 16.6667C4.16667 16.2064 3.79357 15.8333 3.33333 15.8333C2.8731 15.8333 2.5 16.2064 2.5 16.6667ZM2.5 13.3333C2.5 13.7936 2.8731 14.1667 3.33333 14.1667C3.79357 14.1667 4.16667 13.7936 4.16667 13.3333C4.16667 12.8731 3.79357 12.5 3.33333 12.5C2.8731 12.5 2.5 12.8731 2.5 13.3333ZM2.5 10C2.5 10.4602 2.8731 10.8333 3.33333 10.8333C3.79357 10.8333 4.16667 10.4602 4.16667 10C4.16667 9.53976 3.79357 9.16667 3.33333 9.16667C2.8731 9.16667 2.5 9.53976 2.5 10ZM2.5 6.66667C2.5 7.1269 2.8731 7.5 3.33333 7.5C3.79357 7.5 4.16667 7.1269 4.16667 6.66667C4.16667 6.20643 3.79357 5.83333 3.33333 5.83333C2.8731 5.83333 2.5 6.20643 2.5 6.66667ZM2.5 3.33333C2.5 3.79357 2.8731 4.16667 3.33333 4.16667C3.79357 4.16667 4.16667 3.79357 4.16667 3.33333C4.16667 2.8731 3.79357 2.5 3.33333 2.5C2.8731 2.5 2.5 2.8731 2.5 3.33333ZM15.8333 13.3333C15.8333 13.7936 16.2064 14.1667 16.6667 14.1667C17.1269 14.1667 17.5 13.7936 17.5 13.3333C17.5 12.8731 17.1269 12.5 16.6667 12.5C16.2064 12.5 15.8333 12.8731 15.8333 13.3333ZM15.8333 10C15.8333 10.4602 16.2064 10.8333 16.6667 10.8333C17.1269 10.8333 17.5 10.4602 17.5 10C17.5 9.53976 17.1269 9.16667 16.6667 9.16667C16.2064 9.16667 15.8333 9.53976 15.8333 10ZM15.8333 16.6667C15.8333 17.1269 16.2064 17.5 16.6667 17.5C17.1269 17.5 17.5 17.1269 17.5 16.6667C17.5 16.2064 17.1269 15.8333 16.6667 15.8333C16.2064 15.8333 15.8333 16.2064 15.8333 16.6667ZM9.16667 3.33333C9.16667 3.79357 9.53976 4.16667 10 4.16667C10.4602 4.16667 10.8333 3.79357 10.8333 3.33333C10.8333 2.8731 10.4602 2.5 10 2.5C9.53976 2.5 9.16667 2.8731 9.16667 3.33333ZM12.5 16.6667C12.5 17.1269 12.8731 17.5 13.3333 17.5C13.7936 17.5 14.1667 17.1269 14.1667 16.6667C14.1667 16.2064 13.7936 15.8333 13.3333 15.8333C12.8731 15.8333 12.5 16.2064 12.5 16.6667Z" fill="#FFFBF2"/>
<path d="M6.66602 11.2031V13.0324C6.66602 13.2009 6.7984 13.3333 6.9669 13.3333H8.79628C8.87451 13.3333 8.95274 13.3032 9.00689 13.2431L15.5782 6.67778L13.3216 4.42115L6.75628 10.9864C6.6961 11.0466 6.66602 11.1188 6.66602 11.2031ZM17.3233 4.93265C17.558 4.69796 17.558 4.31884 17.3233 4.08416L15.9152 2.67602C15.6805 2.44133 15.3014 2.44133 15.0667 2.67602L13.9655 3.77725L16.2221 6.03388L17.3233 4.93265Z" fill="#FFFBF2"/>
</g>
<defs>
<clipPath id="clip0_10206_856">
<rect width="20" height="20" fill="white"/>
</clipPath>
</defs>
</svg>
