<svg width="20" height="20" viewBox="0 0 20 20" fill="none" xmlns="http://www.w3.org/2000/svg">
<circle cx="10" cy="10" r="10" fill="#9F00FF"/>
<g clip-path="url(#clip0_9788_1048)">
<path d="M10.56 5.03001L7.79 7.80001C7.605 7.98501 7.5 8.24002 7.5 8.50502V13.5C7.5 14.05 7.95 14.5 8.5 14.5H13C13.4 14.5 13.76 14.26 13.92 13.895L15.55 10.09C15.97 9.10001 15.245 8.00002 14.17 8.00002H11.345L11.82 5.71002C11.87 5.46002 11.795 5.20502 11.615 5.02501C11.32 4.73501 10.85 4.73501 10.56 5.03001ZM5.5 14.5C6.05 14.5 6.5 14.05 6.5 13.5V9.50001C6.5 8.95001 6.05 8.50002 5.5 8.50002C4.95 8.50002 4.5 8.95001 4.5 9.50001V13.5C4.5 14.05 4.95 14.5 5.5 14.5Z" fill="#FFFBF2"/>
</g>
<defs>
<clipPath id="clip0_9788_1048">
<rect width="12" height="12" fill="white" transform="translate(4 4)"/>
</clipPath>
</defs>
</svg>
