<?xml version="1.0" encoding="utf-8"?>
<!-- Generator: Adobe Illustrator 16.0.0, SVG Export Plug-In . SVG Version: 6.00 Build 0)  -->
<!DOCTYPE svg PUBLIC "-//W3C//DTD SVG 1.1//EN" "http://www.w3.org/Graphics/SVG/1.1/DTD/svg11.dtd">
<svg version="1.1" id="Layer_1" xmlns="http://www.w3.org/2000/svg" xmlns:xlink="http://www.w3.org/1999/xlink" x="0px" y="0px"
	 width="16px" height="16px" viewBox="0 0 16 16" enable-background="new 0 0 16 16" xml:space="preserve">
<path d="M0,0v16h16V0H0z M5.953,2.361v11.533H5.155V9.343H3.646V9.71c0,1.117-0.153,2.916-0.887,4.197
	c-0.166-0.129-0.481-0.279-0.698-0.355c0.811-1.381,0.811-3.195,0.811-4.209H2.164v-0.76h2.991V6.606H3.481v0.544H2.721V2.703
	l1.001,0.064C3.71,2.855,3.646,2.918,3.481,2.944v2.901h1.673V2.133l1.052,0.063C6.194,2.285,6.117,2.348,5.953,2.361z M9.945,2.095
	l0.963,0.279c-0.023,0.063-0.102,0.114-0.242,0.114c-0.176,0.253-0.379,0.52-0.605,0.772h2.775l0.152-0.024l0.559,0.278
	c-0.027,0.051-0.092,0.089-0.129,0.115C12.277,6.201,9.605,7.748,6.942,8.47C6.853,8.268,6.663,7.976,6.511,7.824
	c0.875-0.202,1.762-0.52,2.599-0.95C8.768,6.519,8.285,6.113,7.854,5.809l0.521-0.393c0.468,0.304,1,0.735,1.357,1.115
	c0.379-0.228,0.732-0.481,1.061-0.748c-0.367-0.367-0.91-0.76-1.404-1.051l0.48-0.432c0.496,0.267,1.053,0.672,1.432,1.027
	c0.432-0.431,0.811-0.9,1.092-1.419H9.439c-0.748,0.697-1.635,1.356-2.586,1.85C6.74,5.605,6.474,5.378,6.309,5.25
	C7.841,4.502,9.223,3.286,9.945,2.095z M7.372,10.318l0.66-0.402c0.672,0.619,1.419,1.494,1.75,2.076L9.084,12.45
	C8.768,11.852,8.032,10.953,7.372,10.318z M13.938,9.482h-1.748v3.372c0,0.975-0.369,1.053-2.523,1.053
	c-0.025-0.242-0.139-0.584-0.266-0.825c0.406,0.013,0.773,0.013,1.076,0.013c0.812,0,0.9,0,0.9-0.24V9.483H6.384V8.723h4.993v-1.8
	l1.064,0.063c-0.012,0.089-0.076,0.152-0.252,0.178v1.559h1.748V9.482z"/>
</svg>
