<?xml version="1.0" encoding="utf-8"?>
<!-- Generator: Adobe Illustrator 25.0.1, SVG Export Plug-In . SVG Version: 6.00 Build 0)  -->
<svg version="1.1" id="Layer_1" xmlns="http://www.w3.org/2000/svg" xmlns:xlink="http://www.w3.org/1999/xlink" x="0px" y="0px"
	 viewBox="0 0 300 300" style="enable-background:new 0 0 300 300;" xml:space="preserve">
<style type="text/css">
	.st0{fill:#8E0000;}
	.st1{fill:none;stroke:#A94442;stroke-width:4.1667;stroke-miterlimit:10;}
	.st2{fill:none;stroke:#FFFFFF;stroke-width:10.4167;stroke-miterlimit:10;}
	.st3{fill:#FFFFFF;}
</style>
<rect class="st0" width="300" height="300"/>
<g>
	<rect x="25" y="25" class="st1" width="250" height="250"/>
	<line class="st1" x1="150" y1="25" x2="150" y2="275"/>
	<line class="st1" x1="275" y1="150" x2="25" y2="150"/>
</g>
<g>
	<line class="st2" x1="470.2" y1="62.5" x2="470.2" y2="237.5"/>
	<line class="st2" x1="432.4" y1="124.8" x2="470.2" y2="124.8"/>
	<line class="st2" x1="432.4" y1="71" x2="432.4" y2="137.3"/>
	<line class="st2" x1="470.2" y1="162" x2="415.3" y2="162"/>
	<path class="st2" d="M438.5,162c0,0,1.8,31.9-18.4,70.9"/>
	<line class="st2" x1="487.5" y1="164.6" x2="584.7" y2="164.6"/>
	<path class="st2" d="M560.2,134v80.5c0,0,3.9,18.4-15.3,18.4h-21"/>
	<line class="st2" x1="523.8" y1="211.9" x2="498" y2="183.4"/>
	<path class="st2" d="M490.6,147.5c0,0,64.8-7,80.1-63H516"/>
	<path class="st2" d="M487.5,116c0,0,20.6-14.9,38.9-48.1"/>
	<line class="st2" x1="525.3" y1="99.3" x2="546.8" y2="118.5"/>
	<line class="st2" x1="509.1" y1="116.7" x2="529.1" y2="134.5"/>
</g>
<g>
	<path class="st3" d="M113.1,121.5v-10.9h23.7V97.1h-23.7V62.5H99.7v34.6H70.8v13.5H99v4.5c-10.9,26.9-34,64.1-34,64.7l11.5,7.1
		c0.6-1.3,12.2-19.9,22.4-40.4v91h13.5v-98.1c10.3,10.3,16,22.4,16,22.4l12.2-5.8C140.7,155.4,130.4,134.3,113.1,121.5z"/>
	<path class="st3" d="M145.8,71.5v165.4h13.5V224h62.2v12.8h13.5V71.5H145.8z M221.5,84.9v31.4h-62.2V84.9H221.5z M159.3,129.8h62.2
		v33.3h-62.2V129.8z M159.3,210.6v-34h62.2v34H159.3z"/>
</g>
</svg>
