<svg width="18" height="30" viewBox="0 0 18 30" fill="none" xmlns="http://www.w3.org/2000/svg">
<path d="M12.495 26.1339L3.20367 26.1346C2.46232 26.1346 1.83154 25.8748 1.31135 25.3551C0.791176 24.8354 0.531063 24.2107 0.53101 23.4811L0.529983 9.46374L3.18961 12.1042L3.19044 23.494L12.4948 23.4933L10.9744 21.9731C10.7116 21.7041 10.5802 21.3921 10.5801 21.0371C10.5801 20.6821 10.7149 20.375 10.9844 20.1157C11.2443 19.8564 11.5516 19.7267 11.9065 19.7267C12.2614 19.7267 12.5743 19.8518 12.8453 20.102L16.6456 23.8684C16.9084 24.1437 17.0398 24.4615 17.0398 24.8218C17.0399 25.1821 16.9085 25.4943 16.6457 25.7582L12.846 29.5063C12.5706 29.7469 12.2588 29.8728 11.9105 29.8839C11.5622 29.8951 11.2528 29.7692 10.9824 29.5064C10.7146 29.2437 10.5807 28.935 10.5807 28.5804C10.5807 28.2258 10.7183 27.9108 10.9936 27.6354L12.495 26.1339ZM17.4729 20.5292L14.8132 17.8699L14.8124 6.49893L5.4936 6.49961L6.99511 8.01977C7.25793 8.28884 7.38935 8.60085 7.38938 8.95581C7.38941 9.31079 7.26238 9.61793 7.00831 9.87724C6.73682 10.1365 6.42309 10.2662 6.06711 10.2662C5.71113 10.2663 5.40311 10.1349 5.14305 9.87211L1.34277 6.10572C1.0674 5.84178 0.929695 5.52967 0.929668 5.16938C0.929642 4.80907 1.0673 4.49751 1.34263 4.23468L5.14236 0.486573C5.40516 0.245976 5.71385 0.116965 6.06843 0.0995386C6.42303 0.0821348 6.73554 0.204823 7.00596 0.467603C7.27375 0.730384 7.40452 1.04107 7.39826 1.39968C7.392 1.75825 7.25747 2.07124 6.99469 2.33864L5.4934 3.84018L14.818 3.8395C15.5476 3.83944 16.1723 4.09947 16.6921 4.61956C17.2119 5.13966 17.4718 5.77039 17.4718 6.51177L17.4729 20.5292Z" fill="#C2352E"/>
</svg>
