<svg version="1.1" id="Layer_1" xmlns="http://www.w3.org/2000/svg" xmlns:xlink="http://www.w3.org/1999/xlink" x="0px" y="0px"
	 width="100%" viewBox="0 0 1080 1080" enable-background="new 0 0 1080 1080" xml:space="preserve">
<path fill="#FFFFFF" opacity="1.000000" stroke="none" 
	d="
M721.000000,1081.000000 
	C480.694336,1081.000000 240.888687,1081.000000 1.041513,1081.000000 
	C1.041513,721.069214 1.041513,361.138428 1.041513,1.103826 
	C360.889221,1.103826 720.778442,1.103826 1080.833862,1.103826 
	C1080.833862,360.999939 1080.833862,720.999939 1080.833862,1081.000000 
	C961.137939,1081.000000 841.318970,1081.000000 721.000000,1081.000000 
M612.484741,632.001709 
	C573.191101,599.311707 527.938843,581.968018 476.895172,581.201477 
	C428.415131,580.473389 379.915405,580.877075 331.425781,581.101074 
	C319.797882,581.154724 308.037598,581.576721 296.574127,583.352417 
	C235.527786,592.808716 186.433578,622.487000 150.319656,672.630615 
	C122.861542,710.755676 109.656403,753.645508 109.890747,800.781250 
	C110.178207,858.602173 109.958908,916.425659 109.958702,974.248047 
	C109.958694,976.060974 109.958694,977.873901 109.958694,979.509521 
	C158.063370,994.870178 206.483582,1007.311462 255.861160,1015.897461 
	C299.063141,1023.409668 342.574768,1028.334839 386.391357,1029.733765 
	C434.417053,1031.267090 482.346069,1029.248657 529.911194,1021.999756 
	C585.129028,1013.584595 639.118652,1000.892273 688.873413,974.540100 
	C688.930786,973.426025 688.994629,972.765564 688.994629,972.105042 
	C688.994995,913.949402 689.073669,855.793640 688.937073,797.638306 
	C688.894348,779.446533 686.918030,761.419922 682.363159,743.747070 
	C670.928162,699.378601 647.765930,662.313843 612.484741,632.001709 
M804.365234,411.071350 
	C784.445251,406.556580 764.259094,405.027496 743.859497,405.110382 
	C701.531189,405.282318 659.201782,405.162262 616.872803,405.162262 
	C615.073303,405.162262 613.273743,405.162262 611.054016,405.162262 
	C608.538269,462.565063 586.671265,511.136902 546.064087,551.604309 
	C547.618958,552.182129 548.809387,552.680542 550.034119,553.071472 
	C588.079285,565.214050 621.691162,585.017700 650.532837,612.538879 
	C697.994263,657.827271 725.127197,713.214172 729.999878,778.770142 
	C731.688660,801.489624 730.898438,824.393433 731.234314,847.213135 
	C731.260376,848.983032 731.237732,850.753601 731.237732,852.900635 
	C815.099182,848.722473 896.203979,835.738953 972.038757,799.139832 
	C972.038757,797.662170 972.038818,796.836304 972.038818,796.010437 
	C972.037476,738.682983 972.350159,681.352661 971.820557,624.030090 
	C971.682922,609.133179 970.472046,593.896851 967.097717,579.436340 
	C946.561951,491.431366 892.063232,435.617950 804.365234,411.071350 
M487.191681,251.277817 
	C451.811462,230.985641 413.848114,223.813095 373.672638,230.265091 
	C294.255798,243.019089 233.726425,309.772186 230.495010,389.961578 
	C228.066132,450.235321 251.306061,499.904846 299.810760,536.273132 
	C362.237427,583.079834 448.229095,581.031555 508.501160,531.103027 
	C558.019958,490.082275 578.818420,436.614685 569.503540,372.999725 
	C561.751404,320.057068 533.371460,279.779724 487.191681,251.277817 
M786.087341,87.414886 
	C748.054993,58.651909 705.205200,47.312874 658.248291,54.486721 
	C615.545227,61.010700 579.962158,81.458366 552.134399,114.731201 
	C528.547729,142.933151 515.888550,175.573166 513.202515,212.209427 
	C512.752625,218.345703 514.119568,222.370651 519.726624,226.134354 
	C549.172119,245.899689 571.929871,271.816498 588.405762,303.245850 
	C599.792603,324.967407 607.112549,347.964935 610.045715,372.310760 
	C610.508911,376.155029 611.876160,378.376007 615.655579,379.941315 
	C641.769104,390.757202 668.698730,395.851501 697.037048,393.203125 
	C742.017090,388.999542 779.896484,370.297394 809.739502,336.645203 
	C842.486389,299.718384 857.058533,256.236237 852.144226,206.803299 
	C847.281128,157.885406 825.042725,118.390106 786.087341,87.414886 
z"/>
<path fill="#A11311" opacity="1.000000" stroke="none" 
	d="
M612.748413,632.239136 
	C647.765930,662.313843 670.928162,699.378601 682.363159,743.747070 
	C686.918030,761.419922 688.894348,779.446533 688.937073,797.638306 
	C689.073669,855.793640 688.994995,913.949402 688.994629,972.105042 
	C688.994629,972.765564 688.930786,973.426025 688.873413,974.540100 
	C639.118652,1000.892273 585.129028,1013.584595 529.911194,1021.999756 
	C482.346069,1029.248657 434.417053,1031.267090 386.391357,1029.733765 
	C342.574768,1028.334839 299.063141,1023.409668 255.861160,1015.897461 
	C206.483582,1007.311462 158.063370,994.870178 109.958694,979.509521 
	C109.958694,977.873901 109.958694,976.060974 109.958702,974.248047 
	C109.958908,916.425659 110.178207,858.602173 109.890747,800.781250 
	C109.656403,753.645508 122.861542,710.755676 150.319656,672.630615 
	C186.433578,622.487000 235.527786,592.808716 296.574127,583.352417 
	C308.037598,581.576721 319.797882,581.154724 331.425781,581.101074 
	C379.915405,580.877075 428.415131,580.473389 476.895172,581.201477 
	C527.938843,581.968018 573.191101,599.311707 612.748413,632.239136 
z"/>
<path fill="#A11311" opacity="1.000000" stroke="none" 
	d="
M804.775452,411.144043 
	C892.063232,435.617950 946.561951,491.431366 967.097717,579.436340 
	C970.472046,593.896851 971.682922,609.133179 971.820557,624.030090 
	C972.350159,681.352661 972.037476,738.682983 972.038818,796.010437 
	C972.038818,796.836304 972.038757,797.662170 972.038757,799.139832 
	C896.203979,835.738953 815.099182,848.722473 731.237732,852.900635 
	C731.237732,850.753601 731.260376,848.983032 731.234314,847.213135 
	C730.898438,824.393433 731.688660,801.489624 729.999878,778.770142 
	C725.127197,713.214172 697.994263,657.827271 650.532837,612.538879 
	C621.691162,585.017700 588.079285,565.214050 550.034119,553.071472 
	C548.809387,552.680542 547.618958,552.182129 546.064087,551.604309 
	C586.671265,511.136902 608.538269,462.565063 611.054016,405.162262 
	C613.273743,405.162262 615.073303,405.162262 616.872803,405.162262 
	C659.201782,405.162262 701.531189,405.282318 743.859497,405.110382 
	C764.259094,405.027496 784.445251,406.556580 804.775452,411.144043 
z"/>
<path fill="#A11311" opacity="1.000000" stroke="none" 
	d="
M487.486267,251.494492 
	C533.371460,279.779724 561.751404,320.057068 569.503540,372.999725 
	C578.818420,436.614685 558.019958,490.082275 508.501160,531.103027 
	C448.229095,581.031555 362.237427,583.079834 299.810760,536.273132 
	C251.306061,499.904846 228.066132,450.235321 230.495010,389.961578 
	C233.726425,309.772186 294.255798,243.019089 373.672638,230.265091 
	C413.848114,223.813095 451.811462,230.985641 487.486267,251.494492 
z"/>
<path fill="#A11311" opacity="1.000000" stroke="none" 
	d="
M786.363464,87.643097 
	C825.042725,118.390106 847.281128,157.885406 852.144226,206.803299 
	C857.058533,256.236237 842.486389,299.718384 809.739502,336.645203 
	C779.896484,370.297394 742.017090,388.999542 697.037048,393.203125 
	C668.698730,395.851501 641.769104,390.757202 615.655579,379.941315 
	C611.876160,378.376007 610.508911,376.155029 610.045715,372.310760 
	C607.112549,347.964935 599.792603,324.967407 588.405762,303.245850 
	C571.929871,271.816498 549.172119,245.899689 519.726624,226.134354 
	C514.119568,222.370651 512.752625,218.345703 513.202515,212.209427 
	C515.888550,175.573166 528.547729,142.933151 552.134399,114.731201 
	C579.962158,81.458366 615.545227,61.010700 658.248291,54.486721 
	C705.205200,47.312874 748.054993,58.651909 786.363464,87.643097 
z"/>
</svg>