<svg width="18" height="18" viewBox="0 0 18 18" fill="none" xmlns="http://www.w3.org/2000/svg">
<path d="M8.99102 0.666687C4.39102 0.666687 0.666016 4.40002 0.666016 9.00002C0.666016 13.6 4.39102 17.3334 8.99102 17.3334C13.5993 17.3334 17.3327 13.6 17.3327 9.00002C17.3327 4.40002 13.5993 0.666687 8.99102 0.666687ZM11.6827 13.4917L8.99935 11.875L6.31602 13.4917C5.99935 13.6834 5.60768 13.4 5.69102 13.0417L6.39935 9.99169L4.04102 7.95002C3.76602 7.70835 3.91602 7.25002 4.28268 7.21669L7.39935 6.95002L8.61602 4.07502C8.75768 3.73335 9.24102 3.73335 9.38268 4.07502L10.5993 6.94169L13.716 7.20835C14.0827 7.24169 14.2327 7.70002 13.9494 7.94169L11.591 9.98335L12.2993 13.0417C12.3827 13.4 11.9993 13.6834 11.6827 13.4917Z" fill="#FFFBF2"/>
</svg>
