<svg width="35" height="33" viewBox="0 0 35 33" fill="none" xmlns="http://www.w3.org/2000/svg">
<path d="M22.3244 32.9978H2.95511C2.17137 32.9978 1.41972 32.6864 0.86553 32.1322C0.311339 31.578 0 30.8264 0 30.0427V2.95511C0 2.17136 0.311339 1.41972 0.86553 0.865529C1.41972 0.311339 2.17137 0 2.95511 0H12.4491L22.3244 32.9978Z" fill="#518FF5"/>
<path d="M34.779 2.95727V30.0448C34.779 30.8286 34.4676 31.5802 33.9134 32.1344C33.3593 32.6886 32.6076 32.9999 31.8239 32.9999H22.3243L12.8224 0.00439453H31.8239C32.6072 0.00439431 33.3585 0.315427 33.9127 0.869135C34.4668 1.42284 34.7784 2.17391 34.779 2.95727V2.95727Z" fill="#E5E5E5"/>
<path d="M34.779 17.1119V30.0426C34.779 30.8264 34.4677 31.578 33.9135 32.1322C33.3593 32.6864 32.6077 32.9977 31.8239 32.9977H22.3243L12.4536 0.00219727H13.4523L34.779 17.1119Z" fill="#D9D9D9"/>
<path d="M28.6302 13.6173H31.7091V12.176H24.6987V9.84961H22.3399V12.2083H18.5399V13.6173H26.927C26.927 13.6173 26.4276 16.0162 24.3966 18.2323C22.8605 16.4197 22.438 15.3864 22.438 15.3864H20.5709C20.5709 15.3864 20.9276 16.2603 22.1103 18.0071C22.4693 18.4948 22.8564 18.9611 23.2696 19.4038C21.7201 20.9889 20.8663 21.7748 20.8663 21.7748L22.0456 22.758C22.0456 22.758 23.1314 21.777 24.3341 20.5542C26.2871 22.6198 28.7283 25.0131 28.7283 25.0131L29.8431 23.8014C29.8431 23.8014 28.4006 22.4303 25.7476 19.7115C25.6361 19.6 25.5391 19.4963 25.4388 19.3904C25.8769 18.9089 26.2916 18.4251 26.6316 17.9759C28.1665 15.9437 28.6302 13.6173 28.6302 13.6173Z" fill="#607B88"/>
<path d="M8.9778 15.9216C8.9778 16.7899 8.9778 17.6583 8.9778 18.5255H12.614C12.5415 18.9417 12.3857 19.3389 12.1558 19.6933C11.926 20.0477 11.6268 20.3519 11.2763 20.5878C10.8321 20.8815 10.3312 21.079 9.80604 21.1674C9.27918 21.2633 8.73914 21.261 8.21311 21.1607C7.67837 21.0529 7.17217 20.8342 6.7272 20.5187C6.016 20.0119 5.48277 19.2938 5.20338 18.4665C4.91748 17.6235 4.91748 16.7099 5.20338 15.867C5.40433 15.2767 5.73538 14.7392 6.17207 14.2941C6.6728 13.776 7.30667 13.406 8.00401 13.2246C8.70135 13.0433 9.43517 13.0577 10.1249 13.2663C10.6639 13.4318 11.1567 13.7212 11.5639 14.1113C11.9742 13.7033 12.3833 13.2931 12.7901 12.8851C13.0053 12.6621 13.2304 12.4537 13.4389 12.2285C12.8178 11.6474 12.0877 11.195 11.2908 10.8976C9.74999 10.3326 8.05522 10.3539 6.52905 10.9574C5.00288 11.5608 3.75186 12.7044 3.01408 14.1704C2.54658 15.1 2.3031 16.1261 2.3031 17.1667C2.3031 18.2073 2.54658 19.2334 3.01408 20.1631C3.45116 21.0281 4.0698 21.7885 4.82773 22.3925C5.54334 22.9637 6.36908 23.3811 7.25335 23.6187C8.37178 23.9066 9.54334 23.9193 10.6677 23.6555C11.7167 23.4258 12.6829 22.9139 13.4621 22.175C14.2413 21.4361 14.8037 20.4983 15.0887 19.463C15.4157 18.3104 15.474 17.0981 15.2592 15.9193L8.9778 15.9216Z" fill="white"/>
</svg>
