<svg width="28" height="28" viewBox="0 0 28 28" fill="none" xmlns="http://www.w3.org/2000/svg">
<path d="M13.9993 0.666504C6.63935 0.666504 0.666016 6.63984 0.666016 13.9998C0.666016 21.3598 6.63935 27.3332 13.9993 27.3332C21.3594 27.3332 27.3327 21.3598 27.3327 13.9998C27.3327 6.63984 21.3594 0.666504 13.9993 0.666504ZM10.386 19.7198L5.59935 14.9332C5.07935 14.4132 5.07935 13.5732 5.59935 13.0532C6.11935 12.5332 6.95935 12.5332 7.47935 13.0532L11.3327 16.8932L20.506 7.71984C21.026 7.19984 21.866 7.19984 22.386 7.71984C22.906 8.23984 22.906 9.07984 22.386 9.59984L12.266 19.7198C11.7593 20.2398 10.906 20.2398 10.386 19.7198Z" fill="#29CC6A"/>
</svg>
