<svg width="34" height="34" viewBox="0 0 34 34" fill="none" xmlns="http://www.w3.org/2000/svg">
<path d="M11.1428 22.117C11.5566 21.7529 11.5973 21.1224 11.2336 20.7081L11.1786 20.6451C11.0041 20.4467 10.7575 20.3263 10.4938 20.3105C10.4719 20.3105 10.4498 20.3105 10.4274 20.3105C10.1852 20.3101 9.95133 20.3984 9.76976 20.5586L8.43162 21.7333L7.21298 22.8029C6.80034 23.1675 6.75997 23.797 7.12263 24.2113L7.17852 24.2753C7.54293 24.689 8.17341 24.7296 8.58786 24.3661L9.52459 23.5441L11.1428 22.117Z" fill="#FFFBF2"/>
<path d="M7.92734 24.8489C7.89959 24.8489 7.87239 24.8489 7.84465 24.8465C7.51712 24.8263 7.21135 24.6758 6.99539 24.4288L6.93897 24.3643C6.49039 23.8509 6.54057 23.0716 7.05128 22.6199L9.60906 20.3738C9.85591 20.1578 10.1782 20.0482 10.5056 20.0689C10.8331 20.0891 11.1389 20.2395 11.3549 20.4866L11.4332 20.5778C11.8609 21.0926 11.8012 21.8542 11.2985 22.2959L8.74166 24.5421C8.51691 24.7406 8.22719 24.8497 7.92734 24.8489ZM10.4239 20.5478C10.2396 20.5487 10.0619 20.6167 9.92403 20.7389L7.36719 22.9851C7.05356 23.2626 7.02307 23.7414 7.29887 24.0566L7.3553 24.121C7.63258 24.4351 8.11179 24.4657 8.42676 24.1894L10.9831 21.9432C11.2976 21.6663 11.3284 21.187 11.052 20.8722L10.9961 20.8077C10.8638 20.6564 10.6764 20.5643 10.4756 20.5521L10.4239 20.5478Z" fill="#FFFBF2"/>
<path d="M14.7317 24.6147C14.4896 24.6144 14.2556 24.7024 14.0737 24.8623L12.7541 26.0207C12.3395 26.3846 12.2983 27.0157 12.6621 27.4303C13.026 27.845 13.6571 27.8862 14.0717 27.5224L15.3912 26.3639C15.8059 26.0005 15.8474 25.3698 15.484 24.9551C15.2941 24.7384 15.0198 24.6143 14.7317 24.6147Z" fill="#FFFBF2"/>
<path d="M13.4113 28.0098C12.728 28.011 12.1731 27.4579 12.1719 26.7746C12.1713 26.4175 12.325 26.0774 12.5937 25.842L13.9137 24.6836C14.4341 24.2527 15.2003 24.3026 15.6604 24.7973C16.1114 25.3112 16.0605 26.0934 15.5467 26.5445L14.2271 27.7029C14.0016 27.9013 13.7115 28.0104 13.4113 28.0098ZM14.7294 24.8556C14.5449 24.8542 14.3663 24.9201 14.2271 25.041L12.9071 26.1995C12.5915 26.4766 12.5604 26.9571 12.8376 27.2726C13.1147 27.5882 13.5952 27.6193 13.9107 27.3421L15.2307 26.1851C15.5461 25.9087 15.5777 25.4289 15.3013 25.1135C15.1568 24.9487 14.9481 24.8543 14.7289 24.8546L14.7294 24.8556Z" fill="#FFFBF2"/>
<path d="M2.95643 6.30566L0.273438 18.0107L2.41832 19.2159L7.96876 10.1873L2.95643 6.30566Z" fill="#FFFBF2"/>
<path d="M2.50089 19.5358L0 18.1307L2.80579 5.88672L8.28362 10.1282L2.50089 19.5358ZM0.545775 17.8889L2.33457 18.8925L7.65274 10.2424L3.10497 6.72301L0.545775 17.8889Z" fill="#FFFBF2"/>
<path d="M8.03494 20.7605C8.44946 20.3964 8.4905 19.7653 8.12669 19.3507L8.1095 19.3311C7.93532 19.1316 7.68853 19.01 7.42421 18.9937C7.40224 18.9937 7.38021 18.9937 7.35777 18.9937C7.11561 18.9933 6.88172 19.0815 6.70015 19.2417L5.09769 20.6449C4.68316 21.009 4.64212 21.6401 5.00593 22.0547C5.36255 22.4791 5.99565 22.5339 6.41998 22.1772C6.42434 22.1735 6.42871 22.1698 6.43301 22.166L6.55439 22.0594L7.77404 20.9889L8.03494 20.7605Z" fill="#FFFBF2"/>
<path d="M5.78743 22.6522C5.75687 22.6522 5.72577 22.6522 5.69426 22.6488C5.36042 22.6231 5.05022 22.4666 4.83117 22.2135C4.38011 21.6998 4.43082 20.9178 4.94442 20.4667L6.54493 19.0622C7.05859 18.6117 7.84001 18.6624 8.2912 19.1754C8.51838 19.4249 8.63458 19.7558 8.61329 20.0925C8.59307 20.4202 8.44247 20.7263 8.19514 20.9422L6.59511 22.3468C6.3723 22.544 6.08493 22.6526 5.78743 22.6522ZM7.3602 19.2323C7.17588 19.233 6.99807 19.301 6.8603 19.4235L5.25979 20.828C4.94435 21.1049 4.91312 21.585 5.18993 21.9004L5.19 21.9004C5.32649 22.0594 5.52022 22.158 5.72906 22.1748C5.92983 22.1905 6.12839 22.1239 6.27913 21.9903L7.87917 20.5858C8.19434 20.3087 8.22557 19.8288 7.94896 19.5134C7.81475 19.3514 7.62015 19.2515 7.41037 19.2367L7.3602 19.2323Z" fill="#FFFBF2"/>
<path d="M13.6222 23.5553C13.6403 23.2908 13.5516 23.03 13.3761 22.8312L13.3618 22.815C13.1874 22.6168 12.9413 22.4965 12.6779 22.4805C12.6559 22.4805 12.6334 22.4805 12.6114 22.4805C12.3693 22.4801 12.1354 22.5683 11.9538 22.7285L11.797 22.8662L10.1779 24.2875L9.74776 24.6631C9.33243 25.0389 9.30046 25.6802 9.67622 26.0955C9.85154 26.2893 10.095 26.4079 10.3557 26.4266C10.6203 26.445 10.8812 26.3563 11.0797 26.1805L13.2843 24.2454C13.485 24.07 13.6068 23.8214 13.6222 23.5553Z" fill="#FFFBF2"/>
<path d="M10.4247 26.6651C10.3974 26.6651 10.3707 26.6651 10.3435 26.6627C9.65513 26.6201 9.13165 26.0275 9.17431 25.3391C9.19473 25.0089 9.34539 24.7003 9.59319 24.481L11.7959 22.5436C12.0432 22.3281 12.3652 22.2186 12.6925 22.2387C13.0195 22.2587 13.325 22.4087 13.5408 22.6554C13.7675 22.9045 13.8834 23.235 13.8619 23.5711C13.8412 23.898 13.691 24.203 13.4447 24.4189L11.2401 26.3539C11.0154 26.5539 10.7254 26.6646 10.4247 26.6651ZM11.954 23.042L9.9081 24.838C9.59252 25.1148 9.56048 25.5947 9.83642 25.9109C9.9707 26.0706 10.164 26.1691 10.3722 26.1838C10.5741 26.1981 10.7733 26.1304 10.9247 25.996L13.1293 24.061C13.4447 23.7845 13.4762 23.3048 13.1997 22.9893C13.1995 22.989 13.1993 22.9888 13.1991 22.9885C13.0652 22.8279 12.8715 22.7292 12.6628 22.7151H12.6122C12.4277 22.7151 12.2497 22.7832 12.1123 22.9063L11.954 23.042Z" fill="#FFFBF2"/>
<path d="M26.8295 20.3635L19.052 14.0259C16.0736 15.6073 13.9646 14.7934 12.9562 14.1497C12.4306 13.8067 12.2826 13.1025 12.6255 12.5769C12.7321 12.4136 12.8789 12.2804 13.0518 12.1903L15.644 10.8134C15.5771 10.8034 15.5116 10.7948 15.4528 10.7891C13.1135 11.1586 10.7511 11.3621 8.38307 11.3979L3.85156 18.7682L4.86183 19.5381L6.04944 18.4953C6.87398 17.7715 8.12923 17.8531 8.85308 18.6776C8.85315 18.6777 8.85321 18.6778 8.85335 18.6779L8.87054 18.6975C9.1082 18.97 9.26625 19.3027 9.32745 19.6591C9.68756 19.4134 10.1197 19.2956 10.5548 19.3246C11.0809 19.3574 11.5721 19.5993 11.9187 19.9965L11.9746 20.0605C12.323 20.4556 12.4991 20.9735 12.4635 21.499V21.5019C12.5544 21.4926 12.6459 21.4896 12.7373 21.4928C13.2635 21.5257 13.7546 21.7676 14.1012 22.1648L13.7442 22.5069L14.1156 22.181C14.4645 22.5762 14.6409 23.0945 14.6054 23.6205C14.6054 23.6272 14.6026 23.6333 14.6021 23.6401C15.6902 23.5626 16.6351 24.382 16.7125 25.4701C16.719 25.5609 16.7192 25.6521 16.713 25.7429C16.6885 26.0847 16.5752 26.4141 16.3842 26.6987L18.5152 27.9283C18.9824 28.1933 19.5757 28.0361 19.8505 27.5747C20.1111 27.1343 19.984 26.5671 19.5603 26.28L16.1672 23.9287C16.1643 23.9287 16.1629 23.9235 16.1605 23.9215L15.932 23.7633C15.7104 23.6041 15.6598 23.2953 15.819 23.0737C15.9743 22.8574 16.2731 22.8032 16.4945 22.9509L21.2804 26.2662C21.7218 26.5721 22.3277 26.4623 22.6337 26.0209C22.6339 26.0206 22.6341 26.0203 22.6343 26.02C22.9346 25.5811 22.8283 24.9826 22.3953 24.6738L17.633 21.2959C17.6301 21.2959 17.6291 21.2906 17.6263 21.2887C17.4038 21.1303 17.3518 20.8216 17.5101 20.599C17.6684 20.3765 17.9772 20.3246 18.1998 20.4829L23.539 24.2708C24.0059 24.6006 24.6519 24.4893 24.9816 24.0223C25.3008 23.5703 25.208 22.9471 24.771 22.6077L19.026 18.4681C18.7989 18.3166 18.7377 18.0098 18.8892 17.7828C19.0406 17.5557 19.3474 17.4945 19.5744 17.6459C19.583 17.6517 19.5913 17.6576 19.5995 17.6638L19.9923 17.9439H19.9976L25.322 21.7801C25.332 21.7873 25.3392 21.7963 25.3487 21.8035L25.4366 21.8666C25.4534 21.8781 25.4694 21.8907 25.4844 21.9043L25.58 21.9698C26.025 22.2887 26.6418 22.2035 26.9836 21.7758C27.188 21.5175 27.2542 21.176 27.161 20.8601C27.1043 20.6643 26.9885 20.491 26.8295 20.3635Z" fill="#FFFBF2"/>
<path d="M19.0039 28.296C18.7927 28.2961 18.5852 28.2405 18.4023 28.1349L16.0495 26.7781L16.1928 26.5679C16.724 25.7666 16.5049 24.6866 15.7037 24.1554C15.4496 23.987 15.1556 23.8882 14.8513 23.8691C14.792 23.8662 14.7326 23.8678 14.6735 23.8739L14.3529 23.8939L14.3715 23.622C14.4016 23.2359 14.3024 22.8507 14.0895 22.5271L13.9103 22.6848L13.5872 22.3331L13.7688 22.1592C13.4798 21.9044 13.1143 21.7531 12.7298 21.729C12.6602 21.7268 12.5904 21.729 12.521 21.7358L12.2643 21.7549L12.2323 21.472V21.4619C12.2574 21.0063 12.1029 20.5591 11.8022 20.216L11.7458 20.1515C11.1704 19.4911 10.1924 19.3647 9.46803 19.8571L9.1636 20.0616L9.09959 19.7003C8.93723 18.7451 8.03121 18.1023 7.07595 18.2648C6.75648 18.3191 6.45824 18.4608 6.2144 18.6743L4.87962 19.8461L3.53906 18.8257L8.25174 11.16L8.38031 11.1562C10.7354 11.1203 13.0851 10.9182 15.4118 10.5516L15.4453 10.5449L15.4792 10.5478C15.5423 10.5535 15.6121 10.5631 15.6842 10.5736L16.4011 10.6811L13.1685 12.3978C12.7281 12.6253 12.5556 13.1668 12.7831 13.6072C12.8545 13.7452 12.9604 13.8624 13.0906 13.9472C14.0392 14.5527 16.0637 15.3418 18.9445 13.8129L19.0845 13.7384L26.9844 20.1754C27.1806 20.3346 27.3228 20.5503 27.3921 20.7933C27.5075 21.1829 27.4262 21.6043 27.1742 21.923C26.7521 22.4505 25.9909 22.5555 25.4417 22.162L25.1737 21.9617L19.4655 17.8517C19.3514 17.7698 19.1926 17.7959 19.1107 17.91C19.1104 17.9103 19.1102 17.9106 19.1099 17.911C19.0279 18.0254 19.0541 18.1845 19.1684 18.2665C19.1686 18.2667 19.1689 18.2669 19.1692 18.2671L24.9151 22.4101C25.4722 22.8401 25.5752 23.6402 25.1452 24.1972C24.7291 24.7364 23.9625 24.8529 23.4049 24.4618L18.0643 20.6758C18.0089 20.6365 17.9401 20.6208 17.8731 20.6323C17.7341 20.6558 17.6405 20.7876 17.6641 20.9265C17.6753 20.9933 17.7128 21.0529 17.768 21.0921L22.5385 24.4781C23.0775 24.8632 23.209 25.6089 22.8343 26.1551C22.4538 26.7055 21.6992 26.8433 21.1488 26.4628C21.1486 26.4627 21.1484 26.4625 21.1482 26.4624L16.3634 23.1467C16.2502 23.0626 16.0904 23.0863 16.0064 23.1994C15.9223 23.3126 15.946 23.4724 16.0592 23.5565C16.0638 23.5599 16.0685 23.5631 16.0733 23.5663L19.7026 26.083C20.2545 26.4608 20.3956 27.2145 20.0177 27.7664C19.8549 28.0041 19.6127 28.176 19.3346 28.2512C19.227 28.2808 19.1157 28.2959 19.0039 28.296ZM16.7186 26.6113L18.6412 27.721C18.9996 27.9149 19.4474 27.7817 19.6413 27.4232C19.8164 27.0998 19.7265 26.6969 19.4307 26.4785L16.7185 24.5964C16.9022 24.9541 16.9848 25.3551 16.9575 25.7563C16.9381 26.0549 16.8567 26.3461 16.7186 26.6113ZM16.2207 22.6242C16.3692 22.6239 16.5143 22.6691 16.6365 22.7537L21.4213 26.069C21.7545 26.2993 22.2114 26.2161 22.4421 25.8831C22.6688 25.5521 22.5889 25.1006 22.2624 24.8675L17.466 21.4619C17.1486 21.2105 17.0951 20.7494 17.3465 20.432C17.5873 20.128 18.0232 20.0641 18.3411 20.2863L23.6818 24.0742C24.0423 24.3259 24.5387 24.2375 24.7904 23.8769C25.032 23.5307 24.9614 23.0562 24.6295 22.7953L18.8908 18.6599C18.5615 18.4245 18.4854 17.9667 18.7209 17.6374C18.9563 17.3082 19.4141 17.2321 19.7434 17.4676L20.142 17.75L25.5806 21.6732C25.605 21.6908 25.6283 21.71 25.6504 21.7306L25.7177 21.7746C26.0582 22.0212 26.5322 21.9582 26.7964 21.6312C26.9533 21.4336 27.0043 21.1719 26.9331 20.9297C26.8915 20.7796 26.8046 20.6461 26.6841 20.5474L19.0275 14.3087C16.0075 15.8523 13.8546 15.0027 12.8323 14.3494C12.195 13.9359 12.0136 13.0842 12.427 12.4469C12.5565 12.2473 12.7355 12.0848 12.9465 11.9751L14.4118 11.197C12.9217 11.3992 10.8872 11.5498 8.52493 11.6271L4.17586 18.7048L4.85974 19.2253L5.90111 18.3115C6.82453 17.5007 8.23051 17.592 9.04135 18.5154C9.04155 18.5156 9.04175 18.5159 9.04195 18.5161C9.24172 18.742 9.3942 19.0057 9.49026 19.2917C9.82861 19.1273 10.2041 19.0542 10.5794 19.08C11.1694 19.1166 11.7201 19.3878 12.1087 19.8332L12.1651 19.8977C12.4956 20.2722 12.6892 20.7479 12.7143 21.2468H12.762C13.2767 21.2805 13.7634 21.4929 14.1379 21.8475L14.1456 21.8408L14.2751 21.989L14.2889 22.0043L14.4395 22.1759L14.4327 22.1826C14.6892 22.5344 14.8357 22.9543 14.8538 23.3893H14.8829C15.0952 23.4032 15.3044 23.4473 15.5042 23.5203C15.4123 23.1268 15.6569 22.7333 16.0504 22.6414C16.1063 22.6283 16.1636 22.6219 16.2211 22.6222L16.2207 22.6242Z" fill="#FFFBF2"/>
<path d="M31.0426 6.12109L26.0312 10.0027L30.667 17.5427C30.6975 17.5585 30.7262 17.5776 30.7526 17.5996C30.8321 17.6815 30.8801 17.7888 30.8883 17.9026L31.5828 19.0319L33.7257 17.8262L31.0426 6.12109Z" fill="#FFFBF2"/>
<path d="M31.4946 19.3567L30.6511 17.9841L30.6459 17.9287C30.6428 17.8702 30.6191 17.8147 30.579 17.7719L30.4872 17.7175L30.459 17.6697L25.7109 9.94897L31.1897 5.70703L33.996 17.9511L31.4946 19.3567ZM31.1124 17.8245L31.66 18.7148L33.4488 17.7112L30.8905 6.54293L26.3432 10.0642L30.8356 17.371C30.8652 17.3887 30.8926 17.4099 30.9173 17.4341C31.0221 17.5404 31.0909 17.677 31.1138 17.8245L31.1124 17.8245Z" fill="#FFFBF2"/>
<path d="M24.7415 11.3453C23.7694 11.7455 22.6863 11.7849 21.6877 11.4562L19.0568 10.6022C18.6932 10.4869 18.2986 10.5213 17.9605 10.6978L17.0687 11.1714C17.0592 11.1762 17.0511 11.1819 17.041 11.1862L13.5073 13.0635C13.457 13.0876 13.4242 13.1377 13.4223 13.1935C13.4184 13.2439 13.4429 13.2924 13.4858 13.3192C14.5252 13.9825 16.3055 14.4661 18.8542 13.0037C19.0318 12.9021 19.2536 12.9201 19.4124 13.0491L27.4451 19.5965C27.5569 19.6885 27.6579 19.7929 27.7461 19.9077L29.7324 17.92L25.4995 11.0352L24.7415 11.3453Z" fill="#FFFBF2"/>
<path d="M27.7282 20.2621L27.5619 20.0513C27.485 19.9507 27.3968 19.8593 27.299 19.7789L19.2644 13.2334C19.1826 13.168 19.0691 13.1587 18.9777 13.21C16.3248 14.7336 14.4595 14.2193 13.3617 13.5197C13.2462 13.4468 13.1796 13.3167 13.1882 13.1804C13.194 13.04 13.2754 12.9138 13.4009 12.8506L17.8526 10.4864C18.2477 10.2794 18.7092 10.2388 19.1344 10.3736L21.7643 11.2263C22.7089 11.5375 23.7336 11.5005 24.6533 11.1221L25.6009 10.734L30.0388 17.9505L27.7282 20.2621ZM19.1014 12.6977C19.2703 12.6973 19.4341 12.755 19.5654 12.8611L27.5986 19.4085C27.6552 19.4541 27.709 19.5031 27.7597 19.5552L29.4324 17.8825L25.405 11.3298L24.8353 11.5631C23.8104 11.985 22.6684 12.0263 21.6156 11.6797L18.9871 10.8261C18.6844 10.7311 18.3563 10.7603 18.0752 10.9074L13.7583 13.2014C14.7585 13.7825 16.404 14.1366 18.7395 12.7952C18.8497 12.7318 18.9745 12.6982 19.1014 12.6977Z" fill="#FFFBF2"/>
</svg>
