<svg width="16" height="16" viewBox="0 0 16 16" fill="none" xmlns="http://www.w3.org/2000/svg">
<path d="M8 0.5C3.86 0.5 0.5 3.86 0.5 8C0.5 12.14 3.86 15.5 8 15.5C12.14 15.5 15.5 12.14 15.5 8C15.5 3.86 12.14 0.5 8 0.5ZM8 14C4.6925 14 2 11.3075 2 8C2 4.6925 4.6925 2 8 2C11.3075 2 14 4.6925 14 8C14 11.3075 11.3075 14 8 14ZM7.25 11H8.75V12.5H7.25V11ZM8.4575 3.53C6.9125 3.305 5.5475 4.2575 5.135 5.6225C5 6.0575 5.33 6.5 5.7875 6.5H5.9375C6.245 6.5 6.4925 6.2825 6.5975 5.9975C6.8375 5.33 7.55 4.8725 8.3225 5.0375C9.035 5.1875 9.56 5.885 9.5 6.6125C9.425 7.6175 8.285 7.835 7.6625 8.7725C7.6625 8.78 7.655 8.78 7.655 8.7875C7.6475 8.8025 7.64 8.81 7.6325 8.825C7.565 8.9375 7.4975 9.065 7.445 9.2C7.4375 9.2225 7.4225 9.2375 7.415 9.26C7.4075 9.275 7.4075 9.29 7.4 9.3125C7.31 9.5675 7.25 9.875 7.25 10.25H8.75C8.75 9.935 8.8325 9.6725 8.96 9.4475C8.975 9.425 8.9825 9.4025 8.9975 9.38C9.0575 9.275 9.1325 9.1775 9.2075 9.0875C9.215 9.08 9.2225 9.065 9.23 9.0575C9.305 8.9675 9.3875 8.885 9.4775 8.8025C10.1975 8.12 11.1725 7.565 10.97 6.1325C10.79 4.8275 9.7625 3.725 8.4575 3.53Z" fill="#327EE2"/>
</svg>
