<svg width="512" height="512" viewBox="0 0 512 512" fill="none" xmlns="http://www.w3.org/2000/svg">
<path d="M252.103 174.913L325.395 248.206L325.744 244.366C325.744 205.859 294.45 174.564 255.942 174.564L252.103 174.913Z" fill="#AC9E99"/>
<path d="M255.942 128.03C320.16 128.03 372.279 180.15 372.279 244.368C372.279 259.375 369.255 273.684 364.02 286.83L432.077 354.887C467.21 325.57 494.899 287.645 512 244.368C471.632 142.224 372.396 69.8621 255.943 69.8621C223.368 69.8621 192.191 75.6786 163.223 86.1489L213.48 136.29C226.625 131.171 240.934 128.03 255.942 128.03Z" fill="#9C0D05"/>
<path d="M23.267 64.6259L86.9037 128.263C48.5125 158.277 18.1486 198.181 0 244.366C40.2529 346.51 139.604 418.872 255.942 418.872C292.006 418.872 326.442 411.892 357.97 399.211L435.683 477.04L465.349 447.491L52.9329 34.96L23.267 64.6259ZM151.936 193.179L187.885 229.127C186.838 234.13 186.139 239.131 186.139 244.366C186.139 282.874 217.434 314.169 255.942 314.169C261.177 314.169 266.18 313.471 271.066 312.424L307.014 348.372C291.541 356.05 274.324 360.704 255.942 360.704C191.724 360.704 139.604 308.584 139.604 244.366C139.604 225.986 144.258 208.767 151.936 193.179Z" fill="#9C0D05"/>
</svg>
