<svg width="20" height="21" viewBox="0 0 20 21" fill="none" xmlns="http://www.w3.org/2000/svg">
<path d="M14.6102 9.94353C14.3496 7.81736 12.6716 6.14354 10.5447 5.88834C10.3616 5.86744 10.1775 5.85697 9.99313 5.85693C8.11353 5.85982 6.42111 6.99576 5.70634 8.73416C4.99158 10.4726 5.39552 12.4704 6.72951 13.7946C7.43888 14.474 7.84513 15.4101 7.85673 16.3923V16.9287H12.1424V16.3895C12.1457 15.426 12.5377 14.5045 13.2296 13.8339C14.2747 12.8256 14.7858 11.3852 14.6102 9.94369V9.94353H14.6102Z" fill="#C2352E"/>
<path d="M10.0004 20.4999C10.4543 20.4994 10.8588 20.2134 11.0107 19.7856H8.99023C9.14203 20.2134 9.54652 20.4994 10.0004 20.4999Z" fill="#C2352E"/>
<path d="M8.21484 18.7145C8.21512 18.9117 8.37484 19.0714 8.57199 19.0717H11.4291C11.6263 19.0714 11.786 18.9117 11.7863 18.7145V17.6431H8.21484V18.7145Z" fill="#C2352E"/>
<path d="M9.99945 3.7143C10.3939 3.7143 10.7137 3.39449 10.7137 3V1.2143C10.7137 0.819805 10.3939 0.5 9.99945 0.5C9.60496 0.5 9.28516 0.819805 9.28516 1.2143V3C9.28516 3.39449 9.60496 3.7143 9.99945 3.7143Z" fill="#C2352E"/>
<path d="M3.97184 5.48203C4.25449 5.75199 4.69941 5.75199 4.98207 5.48203C5.11605 5.34809 5.19133 5.16637 5.19133 4.97691C5.19133 4.78746 5.11605 4.60574 4.98207 4.4718L3.7193 3.20926C3.58539 3.07527 3.40371 3 3.2143 3C3.02488 3 2.8432 3.07527 2.70926 3.20926C2.57527 3.34316 2.5 3.52484 2.5 3.7143C2.5 3.90375 2.57527 4.08539 2.70926 4.21934L3.97184 5.48203Z" fill="#C2352E"/>
<path d="M3.2143 10.4999C3.2143 10.1054 2.89449 9.78564 2.5 9.78564H0.714297C0.319961 9.78604 0.000390625 10.1056 0 10.4999C0.000390625 10.8943 0.319961 11.2138 0.714297 11.2142H2.5C2.89449 11.2142 3.2143 10.8944 3.2143 10.4999Z" fill="#C2352E"/>
<path d="M4.66231 15.3319C4.41544 15.2659 4.15215 15.3368 3.9718 15.5178L2.70926 16.7806C2.57527 16.9145 2.5 17.0962 2.5 17.2856C2.5 17.4751 2.57527 17.6567 2.70926 17.7907C2.99184 18.0606 3.43672 18.0606 3.7193 17.7907L4.98204 16.5281C5.16305 16.3478 5.23399 16.0845 5.16802 15.8376C5.10204 15.5907 4.90919 15.3978 4.66231 15.3319Z" fill="#C2352E"/>
<path d="M16.029 15.5178C15.8487 15.3368 15.5854 15.2659 15.3385 15.3319C15.0916 15.3978 14.8988 15.5906 14.8328 15.8375C14.7669 16.0844 14.8378 16.3477 15.0188 16.528L16.2816 17.7906C16.5641 18.0605 17.009 18.0605 17.2916 17.7906C17.4256 17.6566 17.5009 17.475 17.5009 17.2855C17.5009 17.0961 17.4256 16.9144 17.2916 16.7805L16.029 15.5178Z" fill="#C2352E"/>
<path d="M19.2852 9.78564H17.4995C17.105 9.78564 16.7852 10.1054 16.7852 10.4999C16.7852 10.8944 17.105 11.2142 17.4995 11.2142H19.2852C19.6796 11.2142 19.9995 10.8944 19.9995 10.4999C19.9995 10.1054 19.6796 9.78564 19.2852 9.78564Z" fill="#C2352E"/>
<path d="M16.0281 5.48202L17.2907 4.21928C17.4711 4.03885 17.5416 3.77588 17.4755 3.5294C17.4095 3.28291 17.217 3.09041 16.9705 3.02436C16.724 2.9583 16.461 3.02877 16.2806 3.2092L15.0179 4.47174C14.8839 4.60569 14.8086 4.78741 14.8086 4.97686C14.8086 5.16631 14.8839 5.34803 15.0179 5.48198C15.3005 5.75198 15.7455 5.75198 16.0281 5.48202Z" fill="#C2352E"/>
</svg>
