<svg width="61" height="63" viewBox="0 0 61 63" fill="none" xmlns="http://www.w3.org/2000/svg">
<path d="M54.3123 21.2791C49.8538 14.186 42.7608 10.3355 32.2226 8.91694C31.6146 8.10631 30.804 6.68771 29.3854 4.66113C28.2492 2.71978 26.5542 1.16602 24.5216 0.202658L24.1163 0V0.607973C23.9068 3.05727 23.2904 5.45449 22.2924 7.70099H21.0764C19.5096 4.89537 17.1943 2.58008 14.3887 1.01329L13.5781 0.810631V6.07973C13.5827 7.57529 13.447 9.06799 13.1728 10.5382C12.7778 11.8495 12.1609 13.0833 11.3488 14.186C10.6561 15.1104 10.1093 16.1356 9.72757 17.2259C9.45758 18.4297 9.25461 19.6475 9.1196 20.8738C8.92814 22.1914 8.58821 23.4831 8.10631 24.7242C6.92231 26.6162 5.63694 28.4428 4.25581 30.196C1.4186 34.0465 0 36.8837 0 39.1129C0.0668972 40.5593 0.467608 41.9705 1.17077 43.2362C1.87393 44.5019 2.86046 45.5877 4.05316 46.4086C6.26067 48.4557 9.14913 49.6111 12.1595 49.6512C12.7427 49.6752 13.3232 49.5589 13.8521 49.312C14.3811 49.0652 14.8431 48.695 15.1993 48.2325C16.0535 47.1818 16.613 45.9228 16.8206 44.5847C17.2259 41.7475 18.2392 39.9236 19.8605 39.5183C23.2473 38.9317 26.5266 37.8386 29.588 36.2757C29.8158 36.7171 29.9535 37.1993 29.9934 37.6943C29.9505 39.2715 29.4483 40.8019 28.5483 42.0979C27.6484 43.3938 26.3898 44.3989 24.9269 44.99C22.3229 46.4358 20.2068 48.6224 18.8472 51.2724C17.5871 54.7768 17.0361 58.4967 17.2259 62.2159V62.6213H61V52.4884C60.392 36.4784 58.5681 27.9668 54.3123 21.2791ZM33.0332 37.6943L32.8306 33.2359C32.8507 31.9965 33.0556 30.767 33.4385 29.588V29.3854L33.2359 29.1827L32.6279 28.5747L32.2226 28.1694L32.0199 28.7774C31.4682 29.9942 30.7888 31.1491 29.9934 32.2226C29.4013 32.8598 28.7184 33.4061 27.9668 33.8438C26.6934 34.5612 25.3305 35.1064 23.9136 35.4651C22.1156 36.0326 20.2892 36.5061 18.4419 36.8837C15.8073 37.6943 14.186 40.1262 13.5781 44.1794C13.1728 45.8007 12.7674 46.6113 11.9568 46.6113C11.3931 46.5978 10.8393 46.4594 10.3355 46.206C10.6893 45.4544 11.1691 44.769 11.7542 44.1794C12.3967 43.451 12.7563 42.5161 12.7674 41.5448C12.7674 40.3289 12.1595 39.7209 11.1462 39.7209C10.1329 39.7209 9.32226 40.7342 8.10631 43.1661C7.80059 43.6611 7.46207 44.135 7.09302 44.5847C6.68771 44.5847 6.07973 44.3821 4.66113 42.9634C3.63758 41.8597 3.05988 40.4155 3.03987 38.9103C3.05046 38.1277 3.25966 37.3607 3.64784 36.6811C4.55114 35.0583 5.56691 33.5008 6.68771 32.0199C8.3167 29.8188 9.80579 27.5175 11.1462 25.1296C11.6702 23.9732 12.012 22.7427 12.1595 21.4817C12.1354 20.4535 12.2721 19.4278 12.5648 18.4419C12.8922 17.5547 13.3723 16.7316 13.9834 16.01C15.0197 14.6143 15.7766 13.0316 16.2126 11.3488C16.5062 9.813 16.642 8.25117 16.6179 6.68771C17.4971 7.67065 18.1232 8.85323 18.4419 10.1329C17.8035 10.5656 17.2533 11.1158 16.8206 11.7542L16.6179 11.9568L16.8206 13.5781L21.0764 11.5515V12.1595C21.0764 13.5781 21.887 13.7807 22.2924 13.7807C23.103 13.7807 23.711 13.1728 24.3189 11.9568C24.8036 11.2341 25.0837 10.3938 25.1296 9.52491C25.3135 8.09123 25.5842 6.67002 25.9402 5.2691C26.8221 6.32148 27.5708 7.47861 28.1694 8.71428C28.746 9.95234 29.5742 11.0567 30.6013 11.9568H31.0066C40.3289 13.1728 47.0166 16.6179 51.0698 22.495C55.1229 28.3721 57.1495 38.9103 57.1495 53.907V59.1761H20.2658C20.2206 56.737 20.7046 54.3171 21.6844 52.083C22.7589 50.1654 24.3821 48.6128 26.3455 47.6246C30.804 45.1927 33.0332 41.9502 33.0332 37.6943Z" fill="#654F4D"/>
<path d="M5.06667 37.0865C4.77528 37.3751 4.55146 37.7247 4.4113 38.1102C4.27114 38.4956 4.21811 38.9073 4.25604 39.3157C4.25604 41.3423 5.26933 41.5449 5.8773 41.5449C6.95139 41.5449 7.70122 40.1263 7.70122 39.5184V39.3157L6.89059 38.5051L8.10653 36.2758H7.2959C6.88896 36.2546 6.48191 36.3155 6.09895 36.4547C5.716 36.594 5.36494 36.8088 5.06667 37.0865Z" fill="#654F4D"/>
<path d="M19.2526 19.2523C17.9815 19.3419 16.7732 19.8394 15.8075 20.6709C14.3889 21.6842 13.7809 22.4948 13.7809 23.5081C13.7809 24.5214 14.3889 25.1294 15.6048 26.1427L16.4154 26.7507V24.3188C16.9515 24.4177 17.4928 24.4854 18.0367 24.5214C18.5231 24.5214 19.658 23.5081 19.658 22.9002C19.6486 22.4873 19.5804 22.0778 19.4553 21.6842C19.9804 21.2567 20.61 20.9769 21.2792 20.8736L21.8872 20.6709L21.2792 19.2523H19.2526Z" fill="#654F4D"/>
</svg>
