<svg width="20" height="20" viewBox="0 0 20 20" fill="none" xmlns="http://www.w3.org/2000/svg">
<circle cx="10" cy="10" r="10" fill="#F0BF27"/>
<path d="M8.64 5.78C9.33333 5.78 9.89 5.97 10.31 6.35C10.7367 6.72333 10.95 7.24 10.95 7.9C10.95 8.55333 10.74 9.05333 10.32 9.4C9.9 9.74 9.34333 9.91 8.65 9.91L8.61 10.68H7.38L7.33 8.98H7.78C8.36 8.98 8.80667 8.90333 9.12 8.75C9.43333 8.59667 9.59 8.31667 9.59 7.91C9.59 7.61667 9.50333 7.38333 9.33 7.21C9.16333 7.03667 8.93333 6.95 8.64 6.95C8.33333 6.95 8.09333 7.03333 7.92 7.2C7.75333 7.36667 7.67 7.59667 7.67 7.89H6.35C6.34333 7.48333 6.43 7.12 6.61 6.8C6.79 6.48 7.05333 6.23 7.4 6.05C7.75333 5.87 8.16667 5.78 8.64 5.78ZM7.99 13.07C7.73667 13.07 7.52667 12.9933 7.36 12.84C7.2 12.68 7.12 12.4833 7.12 12.25C7.12 12.0167 7.2 11.8233 7.36 11.67C7.52667 11.51 7.73667 11.43 7.99 11.43C8.23667 11.43 8.44 11.51 8.6 11.67C8.76 11.8233 8.84 12.0167 8.84 12.25C8.84 12.4833 8.76 12.68 8.6 12.84C8.44 12.9933 8.23667 13.07 7.99 13.07ZM13.8809 5.9L13.7209 10.73H12.5409L12.3709 5.9H13.8809ZM13.1609 13.07C12.9075 13.07 12.6975 12.9933 12.5309 12.84C12.3709 12.68 12.2909 12.4833 12.2909 12.25C12.2909 12.0167 12.3709 11.8233 12.5309 11.67C12.6975 11.51 12.9075 11.43 13.1609 11.43C13.4075 11.43 13.6109 11.51 13.7709 11.67C13.9309 11.8233 14.0109 12.0167 14.0109 12.25C14.0109 12.4833 13.9309 12.68 13.7709 12.84C13.6109 12.9933 13.4075 13.07 13.1609 13.07Z" fill="#FFFBF2"/>
</svg>
