<svg width="28" height="28" viewBox="0 0 28 28" fill="none" xmlns="http://www.w3.org/2000/svg">
<path d="M13.9993 0.666504C6.62602 0.666504 0.666016 6.6265 0.666016 13.9998C0.666016 21.3732 6.62602 27.3332 13.9993 27.3332C21.3727 27.3332 27.3327 21.3732 27.3327 13.9998C27.3327 6.6265 21.3727 0.666504 13.9993 0.666504ZM19.7327 19.7332C19.2127 20.2532 18.3727 20.2532 17.8527 19.7332L13.9993 15.8798L10.146 19.7332C9.62602 20.2532 8.78602 20.2532 8.26602 19.7332C7.74602 19.2132 7.74602 18.3732 8.26602 17.8532L12.1193 13.9998L8.26602 10.1465C7.74602 9.6265 7.74602 8.7865 8.26602 8.2665C8.78602 7.7465 9.62602 7.7465 10.146 8.2665L13.9993 12.1198L17.8527 8.2665C18.3727 7.7465 19.2127 7.7465 19.7327 8.2665C20.2527 8.7865 20.2527 9.6265 19.7327 10.1465L15.8793 13.9998L19.7327 17.8532C20.2393 18.3598 20.2393 19.2132 19.7327 19.7332Z" fill="#C2352E"/>
</svg>
