<svg width="200" height="150" viewBox="0 0 200 150" fill="none" xmlns="http://www.w3.org/2000/svg">
<path d="M200 0H0V150H200V0Z" fill="black"/>
<path fill-rule="evenodd" clip-rule="evenodd" d="M0 0V150H65.0323C83.6281 101.79 83.2586 46.9445 65.9842 0H0Z" fill="#FFFF00"/>
<path fill-rule="evenodd" clip-rule="evenodd" d="M65.3043 123.951C52.3251 114.751 43.5307 100.774 40.855 85.0914C38.1793 69.4092 41.8412 53.3063 51.0357 40.3234C60.2302 27.3406 74.2043 18.5408 89.8855 15.8589C105.567 13.1771 121.671 16.8328 134.658 26.0222C147.644 35.2116 156.449 49.1823 159.137 64.8625C161.825 80.5426 158.176 96.6484 148.991 109.638C139.807 122.628 125.84 131.439 110.161 134.133C94.4815 136.827 78.3743 133.184 65.3807 124.005" fill="#3399FF"/>
<path fill-rule="evenodd" clip-rule="evenodd" d="M166.326 137.237C163.081 134.937 160.882 131.443 160.214 127.522C159.545 123.602 160.461 119.576 162.759 116.33C165.058 113.085 168.552 110.885 172.472 110.215C176.392 109.544 180.418 110.458 183.665 112.756C186.911 115.053 189.113 118.546 189.784 122.466C190.456 126.386 189.544 130.413 187.247 133.66C184.951 136.907 181.459 139.11 177.54 139.783C173.62 140.457 169.593 139.546 166.345 137.251" fill="white"/>
</svg>
