<svg width="29" height="42" viewBox="0 0 29 42" fill="none" xmlns="http://www.w3.org/2000/svg">
<g filter="url(#filter0_d_9308_20098)">
<path d="M14.334 1.99992L15.4694 0.296875C15.593 0.111406 15.8012 0 16.0241 0H18.3275L20.7827 0.583515L23.6674 0H25.0883C25.6207 0 25.9384 0.593437 25.643 1.03648L21.0006 7.99999L14.5634 9.33335L14.334 1.99992Z" fill="#4FABF7"/>
<path d="M25.0877 0H23.2366C23.7691 0 24.0867 0.593437 23.7913 1.03648L19.1489 7.99999L14.5508 8.95241L14.5627 9.33335L21 7.99999L25.6424 1.03648C25.9377 0.593437 25.6202 0 25.0877 0V0Z" fill="#1886EA"/>
<path d="M15.666 4L18.3327 0H23.666L18.3327 8H15.666V4Z" fill="#D3DCFB"/>
<path d="M23.6665 0H23.2363C23.3729 0 23.4949 0.0394532 23.5965 0.104922L23.6665 0Z" fill="#BEC8F7"/>
<path d="M18.3342 8L13.1988 0.296875C13.0751 0.111406 12.867 0 12.6441 0H10.3342L8.0163 0.415859L5.00083 0H3.57989C3.04747 0 2.72982 0.593437 3.02521 1.03648L7.66755 8L13.0733 8.89336L18.3342 8Z" fill="#9BD8F9"/>
<path d="M13.1987 0.296875C13.0751 0.111406 12.867 0 12.6441 0H10.793C11.0159 0 11.2241 0.111406 11.3477 0.296875L16.483 8L12.1352 8.73836L13.0733 8.89336L18.3341 8L13.1987 0.296875Z" fill="#73C3F9"/>
<path d="M13.0744 8.89336L10.3353 8.4407V8L5.00195 0H10.3353L15.6687 8V8.45281L13.0744 8.89336Z" fill="#E9EFFF"/>
<path d="M11.666 9.9397H16.9994V15.2869H11.666V9.9397Z" fill="#FFCE00"/>
<path d="M26.6309 27.7701L26.6308 27.7702C25.953 28.4481 25.7501 29.4676 26.117 30.3534C26.117 30.3534 26.117 30.3535 26.117 30.3535L26.1896 30.5289L26.1897 30.529C26.4794 31.2282 26.1473 32.0299 25.448 32.3196L25.2726 32.3922L25.2725 32.3922C24.3867 32.7591 23.8092 33.6235 23.8092 34.5823V34.7722C23.8092 35.5291 23.1956 36.1427 22.4387 36.1427H22.2488C21.29 36.1427 20.4256 36.7202 20.0587 37.606L20.0587 37.6061L19.9861 37.7815C19.6964 38.4807 18.8947 38.8128 18.1954 38.5232L18.1954 38.5231L18.02 38.4505C17.1341 38.0836 16.1146 38.2864 15.4366 38.9644L15.3023 39.0987C14.7671 39.6339 13.8994 39.6339 13.3642 39.0987L13.2299 38.9644C12.552 38.2864 11.5324 38.0836 10.6466 38.4505L10.4712 38.5231L10.4711 38.5232C9.77187 38.8129 8.97014 38.4808 8.68049 37.7815L8.60786 37.6061L8.60784 37.606C8.24091 36.7202 7.37656 36.1427 6.41777 36.1427H6.22785C5.47095 36.1427 4.85738 35.5291 4.85738 34.7722V34.5823C4.85738 33.6235 4.27986 32.7591 3.39404 32.3922L3.39399 32.3922L3.21857 32.3196C2.51933 32.0299 2.18726 31.2282 2.4769 30.5289L2.47692 30.5289L2.54956 30.3535C2.54956 30.3535 2.54957 30.3534 2.54958 30.3534C2.91646 29.4676 2.71371 28.4481 2.0357 27.7701C2.03569 27.7701 2.03568 27.7701 2.03568 27.7701L1.9014 27.6358C1.3662 27.1006 1.3662 26.2329 1.9014 25.6977L2.0357 25.5634L1.68391 25.2116L2.0357 25.5634C2.71361 24.8855 2.91648 23.8659 2.54956 22.9801L2.47692 22.8047L2.47689 22.8046C2.18721 22.1054 2.51928 21.3037 3.21851 21.014C3.21853 21.014 3.21855 21.014 3.21857 21.014L3.39398 20.9414L3.39404 20.9413C4.27986 20.5744 4.85738 19.7101 4.85738 18.7513V18.5613C4.85738 17.8044 5.47095 17.1909 6.22785 17.1909H6.41777C7.37656 17.1909 8.24091 16.6134 8.60784 15.7275L8.60786 15.7275L8.68049 15.5521C8.6805 15.552 8.68051 15.552 8.68052 15.552C8.97017 14.8528 9.77187 14.5208 10.4711 14.8104L10.4712 14.8104L10.6466 14.8831C11.5324 15.25 12.552 15.0471 13.2299 14.3692L12.8764 14.0156L13.2299 14.3692L13.3642 14.2349C13.8994 13.6997 14.7671 13.6997 15.3023 14.2349L15.4366 14.3692C16.1146 15.0471 17.1341 15.25 18.02 14.8831L18.1954 14.8104L18.1955 14.8104C18.8947 14.5207 19.6964 14.8528 19.986 15.552C19.986 15.552 19.9861 15.552 19.9861 15.5521L20.0587 15.7275L20.0587 15.7275C20.4256 16.6134 21.29 17.1909 22.2488 17.1909H22.4387C23.1956 17.1909 23.8092 17.8044 23.8092 18.5613V18.7513C23.8092 19.7101 24.3867 20.5744 25.2725 20.9413L25.2726 20.9414L25.448 21.014C25.448 21.014 25.448 21.014 25.448 21.014C26.1472 21.3037 26.4793 22.1054 26.1897 22.8046L26.1896 22.8047L26.117 22.9801C26.117 22.9801 26.117 22.9801 26.117 22.9801C25.7501 23.866 25.953 24.8855 26.6309 25.5634L26.7652 25.6977C27.3004 26.2329 27.3004 27.1006 26.7652 27.6358L26.6309 27.7701Z" fill="#FFDE00" stroke="#FFCE00"/>
<path d="M20.7468 33.0855C24.2922 29.5401 24.2922 23.7919 20.7468 20.2465C17.2014 16.7011 11.4532 16.7011 7.90778 20.2465C4.36239 23.7919 4.36239 29.5401 7.90778 33.0855C11.4532 36.6309 17.2014 36.6309 20.7468 33.0855Z" fill="#D3AB00"/>
<path d="M19.7493 10.6666H8.91602C8.22563 10.6666 7.66602 10.107 7.66602 9.41664V8H20.9994V9.41664C20.9993 10.107 20.4397 10.6666 19.7493 10.6666Z" fill="#FFDD40"/>
<path d="M19.153 8V9.37891C19.153 10.0901 18.5764 10.6666 17.8652 10.6666H19.7115C20.4227 10.6666 20.9992 10.0901 20.9992 9.37891V8H19.153Z" fill="#FFB332"/>
<path d="M11.832 23.064V21H15.688V32.664H13.384V23.064H11.832Z" fill="#FFFBF2"/>
</g>
<defs>
<filter id="filter0_d_9308_20098" x="-1" y="0" width="30" height="43.4814" filterUnits="userSpaceOnUse" color-interpolation-filters="sRGB">
<feFlood flood-opacity="0" result="BackgroundImageFix"/>
<feColorMatrix in="SourceAlpha" type="matrix" values="0 0 0 0 0 0 0 0 0 0 0 0 0 0 0 0 0 0 127 0" result="hardAlpha"/>
<feOffset dy="1"/>
<feGaussianBlur stdDeviation="0.5"/>
<feColorMatrix type="matrix" values="0 0 0 0 0 0 0 0 0 0 0 0 0 0 0 0 0 0 0.2 0"/>
<feBlend mode="normal" in2="BackgroundImageFix" result="effect1_dropShadow_9308_20098"/>
<feBlend mode="normal" in="SourceGraphic" in2="effect1_dropShadow_9308_20098" result="shape"/>
</filter>
</defs>
</svg>
