<svg width="29" height="43" viewBox="0 0 29 43" fill="none" xmlns="http://www.w3.org/2000/svg">
<g clip-path="url(#clip0_9308_20125)" filter="url(#filter0_d_9308_20125)">
<path d="M14.668 2.48137L15.8034 0.77832C15.927 0.592851 16.1352 0.481445 16.358 0.481445H18.6615L21.1166 1.06496L24.0013 0.481445H25.4223C25.9547 0.481445 26.2724 1.07488 25.977 1.51793L21.3346 8.48144L14.8973 9.8148L14.668 2.48137Z" fill="#4FABF7"/>
<path d="M25.4217 0.481445H23.5706C24.1031 0.481445 24.4206 1.07488 24.1252 1.51793L19.4829 8.48144L14.8848 9.43386L14.8967 9.8148L21.334 8.48144L25.9763 1.51793C26.2717 1.07488 25.9542 0.481445 25.4217 0.481445V0.481445Z" fill="#1886EA"/>
<path d="M16 4.48144L18.6666 0.481445H24L18.6666 8.48144H16V4.48144Z" fill="#D3DCFB"/>
<path d="M24.0005 0.481445H23.5703C23.7069 0.481445 23.8289 0.520898 23.9305 0.586367L24.0005 0.481445Z" fill="#BEC8F7"/>
<path d="M18.6682 8.48144L13.5328 0.77832C13.4091 0.592852 13.201 0.481445 12.9781 0.481445H10.6682L8.35028 0.897305L5.33481 0.481445H3.91388C3.38146 0.481445 3.0638 1.07488 3.35919 1.51793L8.00153 8.48144L13.4073 9.3748L18.6682 8.48144Z" fill="#9BD8F9"/>
<path d="M13.5327 0.77832C13.4091 0.592852 13.2009 0.481445 12.978 0.481445H11.127C11.3498 0.481445 11.558 0.592852 11.6816 0.77832L16.817 8.48144L12.4691 9.2198L13.4073 9.3748L18.6681 8.48144L13.5327 0.77832Z" fill="#73C3F9"/>
<path d="M13.4084 9.3748L10.6693 8.92215V8.48144L5.33594 0.481445H10.6693L16.0027 8.48144V8.93426L13.4084 9.3748Z" fill="#E9EFFF"/>
<path d="M12 10.4211H17.3334V15.7683H12V10.4211Z" fill="#DBDBDD"/>
<path d="M26.9648 28.2516L26.9648 28.2516C26.287 28.9296 26.0841 29.9491 26.451 30.8349C26.451 30.8349 26.451 30.8349 26.451 30.8349L26.5236 31.0103L26.5237 31.0104C26.8133 31.7096 26.4812 32.5114 25.782 32.801L25.6066 32.8736L25.6065 32.8737C24.7207 33.2406 24.1432 34.1049 24.1432 35.0637V35.2537C24.1432 36.0106 23.5296 36.6241 22.7727 36.6241H22.5828C21.624 36.6241 20.7596 37.2016 20.3927 38.0875L20.3927 38.0875L20.3201 38.2629C20.0304 38.9622 19.2287 39.2942 18.5294 39.0046L18.5294 39.0046L18.354 38.9319C17.4681 38.565 16.4485 38.7679 15.7706 39.4458L15.6363 39.5801C15.1011 40.1153 14.2334 40.1153 13.6982 39.5801L13.5639 39.4458C12.886 38.7679 11.8664 38.565 10.9806 38.9319L10.8052 39.0046L10.8051 39.0046C10.1059 39.2943 9.30412 38.9622 9.01448 38.2629L8.94185 38.0875L8.94182 38.0875C8.5749 37.2016 7.71055 36.6241 6.75176 36.6241H6.56184C5.80493 36.6241 5.19137 36.0106 5.19137 35.2537V35.0637C5.19137 34.1049 4.61385 33.2406 3.72802 32.8737L3.72797 32.8736L3.55255 32.801C2.85332 32.5114 2.52124 31.7097 2.81089 31.0104L2.81091 31.0103L2.88354 30.8349C2.88355 30.8349 2.88356 30.8349 2.88356 30.8349C3.25044 29.9491 3.0477 28.9295 2.36969 28.2516C2.36968 28.2516 2.36967 28.2516 2.36966 28.2516L2.23539 28.1173C1.70018 27.5821 1.70018 26.7144 2.23539 26.1792L2.36969 26.0449L2.01789 25.6931L2.36969 26.0449C3.0476 25.3669 3.25047 24.3474 2.88354 23.4615L2.81091 23.2861L2.81087 23.286C2.5212 22.5868 2.85326 21.7851 3.55249 21.4955C3.55251 21.4955 3.55253 21.4954 3.55255 21.4954L3.72796 21.4228L3.72802 21.4228C4.61385 21.0559 5.19137 20.1915 5.19137 19.2327V19.0428C5.19137 18.2859 5.80493 17.6723 6.56184 17.6723H6.75176C7.71055 17.6723 8.5749 17.0948 8.94182 16.209L8.94185 16.2089L9.01448 16.0335C9.01449 16.0335 9.01449 16.0335 9.0145 16.0335C9.30415 15.3343 10.1059 15.0022 10.8051 15.2918L10.8052 15.2919L10.9806 15.3645C11.8664 15.7314 12.886 15.5286 13.5639 14.8506L13.2104 14.4971L13.5639 14.8506L13.6982 14.7163C14.2334 14.1811 15.1011 14.1811 15.6363 14.7163L15.7706 14.8506C16.4485 15.5286 17.4681 15.7314 18.354 15.3645L18.5294 15.2919L18.5295 15.2918C19.2287 15.0022 20.0304 15.3342 20.32 16.0334C20.32 16.0335 20.32 16.0335 20.3201 16.0335L20.3927 16.2089L20.3927 16.209C20.7596 17.0948 21.624 17.6723 22.5828 17.6723H22.7727C23.5296 17.6723 24.1432 18.2859 24.1432 19.0428V19.2327C24.1432 20.1915 24.7207 21.0559 25.6065 21.4228L25.6066 21.4228L25.782 21.4954C25.782 21.4954 25.782 21.4955 25.782 21.4955C26.4812 21.7851 26.8133 22.5868 26.5236 23.2861L26.5236 23.2861L26.451 23.4615C26.451 23.4615 26.451 23.4616 26.451 23.4616C26.0841 24.3474 26.2869 25.367 26.9648 26.0449L27.0991 26.1792C27.6343 26.7144 27.6343 27.5821 27.0991 28.1173L26.9648 28.2516Z" fill="#DBDBDD" stroke="#DBDBDD"/>
<path d="M21.508 33.9896C25.2834 30.2141 25.2834 24.093 21.508 20.3176C17.7326 16.5421 11.6114 16.5421 7.836 20.3176C4.06058 24.093 4.06058 30.2141 7.836 33.9896C11.6114 37.765 17.7326 37.765 21.508 33.9896Z" fill="#889898"/>
<path d="M12.18 29.8734C13.204 29.0201 14.02 28.3108 14.628 27.7454C15.236 27.1694 15.7427 26.5721 16.148 25.9534C16.5534 25.3348 16.756 24.7268 16.756 24.1294C16.756 23.5854 16.628 23.1588 16.372 22.8494C16.116 22.5401 15.7214 22.3854 15.188 22.3854C14.6547 22.3854 14.244 22.5668 13.956 22.9294C13.668 23.2814 13.5187 23.7668 13.508 24.3854H11.332C11.3747 23.1054 11.7534 22.1348 12.468 21.4734C13.1934 20.8121 14.1107 20.4814 15.22 20.4814C16.436 20.4814 17.3694 20.8068 18.02 21.4574C18.6707 22.0974 18.996 22.9454 18.996 24.0014C18.996 24.8334 18.772 25.6281 18.324 26.3854C17.876 27.1428 17.364 27.8041 16.788 28.3694C16.212 28.9241 15.46 29.5961 14.532 30.3854H19.252V32.2414H11.348V30.5774L12.18 29.8734Z" fill="#FFFBF2"/>
<path d="M20.0833 11.1481H9.25C8.55961 11.1481 8 10.5885 8 9.89809V8.48145H21.3334V9.89809C21.3333 10.5885 20.7737 11.1481 20.0833 11.1481Z" fill="#D5D5D7"/>
<path d="M19.4889 8.48145V9.86035C19.4889 10.5715 18.9123 11.1481 18.2012 11.1481H20.0474C20.7586 11.1481 21.3352 10.5715 21.3352 9.86035V8.48145H19.4889Z" fill="#CF7B44"/>
</g>
<defs>
<filter id="filter0_d_9308_20125" x="-1" y="0.481445" width="30" height="42" filterUnits="userSpaceOnUse" color-interpolation-filters="sRGB">
<feFlood flood-opacity="0" result="BackgroundImageFix"/>
<feColorMatrix in="SourceAlpha" type="matrix" values="0 0 0 0 0 0 0 0 0 0 0 0 0 0 0 0 0 0 127 0" result="hardAlpha"/>
<feOffset dy="1"/>
<feGaussianBlur stdDeviation="0.5"/>
<feColorMatrix type="matrix" values="0 0 0 0 0 0 0 0 0 0 0 0 0 0 0 0 0 0 0.2 0"/>
<feBlend mode="normal" in2="BackgroundImageFix" result="effect1_dropShadow_9308_20125"/>
<feBlend mode="normal" in="SourceGraphic" in2="effect1_dropShadow_9308_20125" result="shape"/>
</filter>
<clipPath id="clip0_9308_20125">
<rect width="28" height="40" fill="white" transform="translate(0 0.481445)"/>
</clipPath>
</defs>
</svg>
