<svg width="27" height="30" viewBox="0 0 27 30" fill="none" xmlns="http://www.w3.org/2000/svg">
<path d="M7.49878 12.9697L0.947266 25.313L6.89662 24.7634L9.77608 29.999L16.3276 17.6557L7.49878 12.9697Z" fill="#E95454"/>
<path d="M8.24888 26.405C8.43268 26.0101 8.24038 25.5384 7.85585 25.3339L7.47879 25.1332C7.10174 24.9184 6.95824 24.441 7.16365 24.0545C7.37187 23.6615 7.86147 23.5115 8.25448 23.7197L9.31998 24.2853C9.64918 24.4597 10.0619 24.3331 10.2317 24.002L10.2579 23.9514C10.453 23.639 10.3377 23.2263 10.0131 23.0547L6.82599 21.3636C6.43768 21.1572 6.24728 20.6873 6.4283 20.2915C6.62808 19.8704 7.13269 19.7044 7.53882 19.9201L10.4952 21.4893C10.8244 21.6637 11.2371 21.5371 11.4116 21.2079L11.4285 21.1648L11.4332 21.1554C11.6217 20.8102 11.4894 20.3769 11.1415 20.1921L9.48318 19.3123C9.09488 19.106 8.90448 18.6361 9.08828 18.2356C9.28618 17.8191 9.79268 17.6484 10.1988 17.8641L12.0306 18.8368C12.373 19.0187 12.7819 18.8668 12.9592 18.5216C12.962 18.5169 12.962 18.5169 12.9639 18.5123C12.9667 18.5076 12.9667 18.5076 12.9686 18.5029C13.1552 18.1624 13.0521 17.7385 12.7088 17.5574L10.7325 16.5088C10.3489 16.3053 10.1585 15.8354 10.3395 15.4396C10.5393 15.0184 11.0439 14.8524 11.4501 15.0681L16.3255 17.6559L9.77398 29.9992L7.9684 26.7174C8.08468 26.6386 8.18598 26.541 8.24888 26.405Z" fill="#ED6362"/>
<path d="M19.7527 12.9697L26.3042 25.313L20.3548 24.7634L17.4753 29.999L10.9238 17.6557L19.7527 12.9697Z" fill="#ED6362"/>
<path d="M19.0014 26.4051C18.8175 26.0102 19.0098 25.5384 19.3944 25.3339L19.7714 25.1332C20.1485 24.9184 20.292 24.441 20.0866 24.0546C19.8783 23.6616 19.3887 23.5115 18.9957 23.7197L17.9302 24.2853C17.601 24.4598 17.1883 24.3331 17.0186 24.0021L16.9923 23.9514C16.7972 23.6391 16.9126 23.2264 17.2371 23.0547L20.4252 21.3627C20.8135 21.1563 21.0039 20.6864 20.8228 20.2906C20.6231 19.8695 20.1185 19.7035 19.7123 19.9192L16.7559 21.4884C16.4267 21.6628 16.014 21.5362 15.8396 21.207L15.8227 21.1639L15.818 21.1545C15.6295 20.8093 15.7617 20.376 16.1097 20.1912L17.768 19.3114C18.1563 19.1051 18.3467 18.6352 18.1628 18.2347C17.9649 17.8182 17.4585 17.6475 17.0523 17.8632L15.2187 18.8378C14.8763 19.0197 14.4674 18.8678 14.2901 18.5226C14.2873 18.5179 14.2873 18.5179 14.2854 18.5132C14.2826 18.5085 14.2826 18.5085 14.2807 18.5039C14.0941 18.1634 14.1972 17.7394 14.5405 17.5584L16.5168 16.5098C16.9004 16.3063 17.0908 15.8364 16.9098 15.4405C16.71 15.0194 16.2054 14.8534 15.7992 15.0691L10.9238 17.6569L17.4753 30.0002L19.2809 26.7183C19.1655 26.6386 19.0642 26.5411 19.0014 26.4051Z" fill="#E95454"/>
<path d="M13.6264 21.8934C19.6721 21.8934 24.5731 16.9924 24.5731 10.9467C24.5731 4.901 19.6721 0 13.6264 0C7.58069 0 2.67969 4.901 2.67969 10.9467C2.67969 16.9924 7.58069 21.8934 13.6264 21.8934Z" fill="#DA8260"/>
<path d="M15.1105 9.6904H8.17348C7.63419 9.6904 7.19148 9.24774 7.19148 8.70842L7.19898 8.64089V8.62588C7.19148 8.05656 7.65576 7.59134 8.22598 7.59134H13.0339C13.6708 7.59134 14.2335 7.11955 14.2711 6.48176C14.3011 5.81488 13.7693 5.25212 13.1015 5.25212H8.00838C7.4466 5.25212 7.0264 4.78033 7.03391 4.21757C7.03391 4.21007 7.03391 4.21007 7.03391 4.20256C7.03391 4.19506 7.03391 4.19506 7.03391 4.18755C7.0264 3.62573 7.44566 3.15301 8.00838 3.15301H13.3378C13.9672 3.15301 14.5299 2.68122 14.5675 2.05093C14.5975 1.37655 14.0657 0.821289 13.3978 0.821289H9.49508C5.51538 2.46175 2.71094 6.37483 2.71094 10.9463C2.71094 15.5179 5.51538 19.43 9.49598 21.0686H14.4512C15.0805 21.0686 15.6433 20.5968 15.6808 19.9665C15.7108 19.2921 15.179 18.7378 14.5112 18.7378L8.87418 18.7369C8.20918 18.7369 7.67358 18.1807 7.70922 17.5072C7.74205 16.8769 8.30858 16.4033 8.93978 16.4033H11.1252C11.7536 16.3855 12.2611 15.8705 12.2611 15.2374C12.2611 14.5931 11.7368 14.0678 11.0915 14.0678H7.77863C7.23931 14.0678 6.79661 13.626 6.80411 13.0858V13.0033C6.76659 12.4714 7.19429 12.0212 7.7261 12.0212H15.043C15.6799 12.0212 16.2426 11.5494 16.2801 10.9191C16.3101 10.2457 15.7774 9.6904 15.1105 9.6904Z" fill="#DA774E"/>
<path d="M13.6265 18.7598C9.31758 18.7598 5.8125 15.2538 5.8125 10.9459C5.8125 6.63789 9.31758 3.13281 13.6265 3.13281C17.9354 3.13281 21.4405 6.63883 21.4405 10.9468C21.4405 15.2547 17.9354 18.7598 13.6265 18.7598Z" fill="#EFAD73"/>
<path opacity="0.2" d="M21.4393 10.9467C21.4393 6.78979 18.1734 3.38976 14.0736 3.15527H13.3458C12.8656 3.15527 12.4369 3.51544 12.4079 3.99567C12.3853 4.50966 12.7905 4.93361 13.2998 4.93361L17.5993 4.93455C18.1068 4.93455 18.5148 5.35849 18.4876 5.87248C18.4622 6.35365 18.0308 6.71475 17.5487 6.71475H15.882C15.4027 6.72882 15.0153 7.12088 15.0153 7.60392C15.0153 8.0954 15.4158 8.4959 15.9073 8.4959H18.4341C18.8459 8.4959 19.1826 8.83356 19.177 9.24438V9.30628C19.2051 9.7124 18.8796 10.0548 18.4735 10.0548H12.8937C12.4079 10.0548 11.9792 10.4149 11.9501 10.8952C11.9276 11.4091 12.3328 11.8331 12.8421 11.8331H18.1321C18.5438 11.8331 18.8806 12.1707 18.8806 12.5816L18.8749 12.6332V12.6444C18.8806 13.0787 18.526 13.4332 18.0918 13.4332H14.4244C13.9386 13.4332 13.5099 13.7934 13.4809 14.2792C13.4583 14.7876 13.8635 15.2172 14.3728 15.2172H18.2568C18.6855 15.2172 19.0053 15.5773 18.9997 16.006C18.9997 16.0116 18.9997 16.0116 18.9997 16.0172C18.9997 16.0229 18.9997 16.0229 18.9997 16.0285C19.0053 16.4571 18.6855 16.8173 18.2568 16.8173H14.1927C13.7125 16.8173 13.2839 17.1775 13.2548 17.6577C13.2323 18.1726 13.6375 18.5956 14.1468 18.5956H15.2189C18.7671 17.8565 21.4393 14.7079 21.4393 10.9467Z" fill="#D87F55"/>
<path d="M10.0909 8.408C10.1443 7.34133 10.5176 6.52 11.2109 5.944C11.9149 5.35733 12.8376 5.064 13.9789 5.064C14.7576 5.064 15.4243 5.20267 15.9789 5.48C16.5336 5.74667 16.9496 6.11467 17.2269 6.584C17.5149 7.04267 17.6589 7.56533 17.6589 8.152C17.6589 8.824 17.4829 9.39467 17.1309 9.864C16.7896 10.3227 16.3789 10.632 15.8989 10.792V10.856C16.5176 11.048 16.9976 11.3893 17.3389 11.88C17.6909 12.3707 17.8669 13 17.8669 13.768C17.8669 14.408 17.7176 14.9787 17.4189 15.48C17.1309 15.9813 16.6989 16.376 16.1229 16.664C15.5576 16.9413 14.8749 17.08 14.0749 17.08C12.8696 17.08 11.8883 16.776 11.1309 16.168C10.3736 15.56 9.9736 14.664 9.93094 13.48H12.1069C12.1283 14.0027 12.3043 14.424 12.6349 14.744C12.9763 15.0533 13.4403 15.208 14.0269 15.208C14.5709 15.208 14.9869 15.0587 15.2749 14.76C15.5736 14.4507 15.7229 14.056 15.7229 13.576C15.7229 12.936 15.5203 12.4773 15.1149 12.2C14.7096 11.9227 14.0803 11.784 13.2269 11.784H12.7629V9.944H13.2269C14.7416 9.944 15.4989 9.43733 15.4989 8.424C15.4989 7.96533 15.3603 7.608 15.0829 7.352C14.8163 7.096 14.4269 6.968 13.9149 6.968C13.4136 6.968 13.0243 7.10667 12.7469 7.384C12.4803 7.65067 12.3256 7.992 12.2829 8.408H10.0909Z" fill="white"/>
</svg>
