<svg width="31" height="32" viewBox="0 0 31 32" fill="none" xmlns="http://www.w3.org/2000/svg">
<mask id="mask0_9308_19994" style="mask-type:luminance" maskUnits="userSpaceOnUse" x="0" y="1" width="31" height="30">
<path d="M30.625 1H0.625V31H30.625V1Z" fill="white"/>
</mask>
<g mask="url(#mask0_9308_19994)">
<path d="M9.49878 13.9697L2.94727 26.313L8.89662 25.7634L11.7761 30.999L18.3276 18.6557L9.49878 13.9697Z" fill="#E95454"/>
<path d="M10.2489 27.405C10.4327 27.0101 10.2404 26.5384 9.85585 26.3339L9.47879 26.1332C9.10174 25.9184 8.95824 25.441 9.16365 25.0545C9.37187 24.6615 9.86147 24.5115 10.2545 24.7197L11.32 25.2853C11.6492 25.4597 12.0619 25.3331 12.2317 25.002L12.2579 24.9514C12.453 24.639 12.3377 24.2263 12.0131 24.0547L8.82599 22.3636C8.43768 22.1572 8.24728 21.6873 8.4283 21.2915C8.62808 20.8704 9.13269 20.7044 9.53882 20.9201L12.4952 22.4893C12.8244 22.6637 13.2371 22.5371 13.4116 22.2079L13.4285 22.1648L13.4332 22.1554C13.6217 21.8102 13.4894 21.3769 13.1415 21.1921L11.4832 20.3123C11.0949 20.106 10.9045 19.6361 11.0883 19.2356C11.2862 18.8191 11.7927 18.6484 12.1988 18.8641L14.0306 19.8368C14.373 20.0187 14.7819 19.8668 14.9592 19.5216C14.962 19.5169 14.962 19.5169 14.9639 19.5123C14.9667 19.5076 14.9667 19.5076 14.9686 19.5029C15.1552 19.1624 15.0521 18.7385 14.7088 18.5574L12.7325 17.5088C12.3489 17.3053 12.1585 16.8354 12.3395 16.4396C12.5393 16.0184 13.0439 15.8524 13.4501 16.0681L18.3255 18.6559L11.774 30.9992L9.9684 27.7174C10.0847 27.6386 10.186 27.541 10.2489 27.405Z" fill="#ED6362"/>
<path d="M21.7527 13.9697L28.3042 26.313L22.3548 25.7634L19.4753 30.999L12.9238 18.6557L21.7527 13.9697Z" fill="#ED6362"/>
<path d="M21.0014 27.4051C20.8175 27.0102 21.0098 26.5384 21.3944 26.3339L21.7714 26.1332C22.1485 25.9184 22.292 25.441 22.0866 25.0546C21.8783 24.6616 21.3887 24.5115 20.9957 24.7197L19.9302 25.2853C19.601 25.4598 19.1883 25.3331 19.0186 25.0021L18.9923 24.9514C18.7972 24.6391 18.9126 24.2264 19.2371 24.0547L22.4252 22.3627C22.8135 22.1563 23.0039 21.6864 22.8228 21.2906C22.6231 20.8695 22.1185 20.7035 21.7123 20.9192L18.7559 22.4884C18.4267 22.6628 18.014 22.5362 17.8396 22.207L17.8227 22.1639L17.818 22.1545C17.6295 21.8093 17.7617 21.376 18.1097 21.1912L19.768 20.3114C20.1563 20.1051 20.3467 19.6352 20.1628 19.2347C19.9649 18.8182 19.4585 18.6475 19.0523 18.8632L17.2187 19.8378C16.8763 20.0197 16.4674 19.8678 16.2901 19.5226C16.2873 19.5179 16.2873 19.5179 16.2854 19.5132C16.2826 19.5085 16.2826 19.5085 16.2807 19.5039C16.0941 19.1634 16.1972 18.7394 16.5405 18.5584L18.5168 17.5098C18.9004 17.3063 19.0908 16.8364 18.9098 16.4405C18.71 16.0194 18.2054 15.8534 17.7992 16.0691L12.9238 18.6569L19.4753 31.0002L21.2809 27.7183C21.1655 27.6386 21.0642 27.5411 21.0014 27.4051Z" fill="#E95454"/>
<path d="M15.6264 22.8934C21.6721 22.8934 26.5731 17.9924 26.5731 11.9467C26.5731 5.901 21.6721 1 15.6264 1C9.58069 1 4.67969 5.901 4.67969 11.9467C4.67969 17.9924 9.58069 22.8934 15.6264 22.8934Z" fill="#FFC75B"/>
<path d="M17.1105 10.6904H10.1735C9.63419 10.6904 9.19148 10.2477 9.19148 9.70842L9.19898 9.64089V9.62588C9.19148 9.05656 9.65576 8.59134 10.226 8.59134H15.0339C15.6708 8.59134 16.2335 8.11955 16.2711 7.48176C16.3011 6.81488 15.7693 6.25212 15.1015 6.25212H10.0084C9.4466 6.25212 9.0264 5.78033 9.03391 5.21757C9.03391 5.21007 9.03391 5.21007 9.03391 5.20256C9.03391 5.19506 9.03391 5.19506 9.03391 5.18755C9.0264 4.62573 9.44566 4.15301 10.0084 4.15301H15.3378C15.9672 4.15301 16.5299 3.68122 16.5675 3.05093C16.5975 2.37655 16.0657 1.82129 15.3978 1.82129H11.4951C7.51538 3.46175 4.71094 7.37483 4.71094 11.9463C4.71094 16.5179 7.51538 20.43 11.496 22.0686H16.4512C17.0805 22.0686 17.6433 21.5968 17.6808 20.9665C17.7108 20.2921 17.179 19.7378 16.5112 19.7378L10.8742 19.7369C10.2092 19.7369 9.67358 19.1807 9.70922 18.5072C9.74205 17.8769 10.3086 17.4033 10.9398 17.4033H13.1252C13.7536 17.3855 14.2611 16.8705 14.2611 16.2374C14.2611 15.5931 13.7368 15.0678 13.0915 15.0678H9.77863C9.23931 15.0678 8.79661 14.626 8.80411 14.0858V14.0033C8.76659 13.4714 9.19429 13.0212 9.7261 13.0212H17.043C17.6799 13.0212 18.2426 12.5494 18.2801 11.9191C18.3101 11.2457 17.7774 10.6904 17.1105 10.6904Z" fill="#FDB64B"/>
<path d="M15.6265 19.7598C11.3176 19.7598 7.8125 16.2538 7.8125 11.9459C7.8125 7.63789 11.3176 4.13281 15.6265 4.13281C19.9354 4.13281 23.4405 7.63883 23.4405 11.9468C23.4405 16.2547 19.9354 19.7598 15.6265 19.7598Z" fill="#F09103"/>
<path opacity="0.2" d="M23.4393 11.9462C23.4393 7.7893 20.1734 4.38927 16.0736 4.15479H15.3458C14.8656 4.15479 14.4369 4.51495 14.4079 4.99518C14.3853 5.50917 14.7905 5.93312 15.2998 5.93312L19.5993 5.93406C20.1068 5.93406 20.5148 6.35801 20.4876 6.872C20.4622 7.35316 20.0308 7.71427 19.5487 7.71427H17.882C17.4027 7.72834 17.0153 8.12038 17.0153 8.60343C17.0153 9.0949 17.4158 9.49541 17.9073 9.49541H20.4341C20.8459 9.49541 21.1826 9.83307 21.177 10.2439V10.3058C21.2051 10.7119 20.8796 11.0543 20.4735 11.0543H14.8937C14.4079 11.0543 13.9792 11.4144 13.9501 11.8947C13.9276 12.4087 14.3328 12.8326 14.8421 12.8326H20.1321C20.5438 12.8326 20.8806 13.1703 20.8806 13.5811L20.8749 13.6327V13.6439C20.8806 14.0782 20.526 14.4327 20.0918 14.4327H16.4244C15.9386 14.4327 15.5099 14.7929 15.4809 15.2787C15.4583 15.7871 15.8635 16.2167 16.3728 16.2167H20.2568C20.6855 16.2167 21.0053 16.5769 20.9997 17.0055C20.9997 17.0111 20.9997 17.0111 20.9997 17.0168C20.9997 17.0224 20.9997 17.0224 20.9997 17.028C21.0053 17.4566 20.6855 17.8168 20.2568 17.8168H16.1927C15.7125 17.8168 15.2839 18.177 15.2548 18.6572C15.2323 19.1721 15.6375 19.5951 16.1468 19.5951H17.2189C20.7671 18.8561 23.4393 15.7074 23.4393 11.9462Z" fill="white"/>
</g>
<path d="M13 8.32328V6.25928H16.856V17.9233H14.552V8.32328H13Z" fill="white"/>
</svg>
