<svg width="26" height="30" viewBox="0 0 26 30" fill="none" xmlns="http://www.w3.org/2000/svg">
<path d="M6.99878 12.9697L0.447266 25.313L6.39662 24.7634L9.27608 29.999L15.8276 17.6557L6.99878 12.9697Z" fill="#E95454"/>
<path d="M7.74884 26.405C7.93268 26.0101 7.7404 25.5384 7.35585 25.3339L6.97879 25.1332C6.60174 24.9184 6.45824 24.441 6.66365 24.0545C6.87187 23.6615 7.36147 23.5115 7.75447 23.7197L8.81998 24.2853C9.14918 24.4597 9.56188 24.3331 9.73168 24.002L9.75788 23.9514C9.95298 23.639 9.83768 23.2263 9.51308 23.0547L6.32599 21.3636C5.93768 21.1572 5.74728 20.6873 5.9283 20.2915C6.12808 19.8704 6.63269 19.7044 7.03882 19.9201L9.99518 21.4893C10.3244 21.6637 10.7371 21.5371 10.9116 21.2079L10.9285 21.1648L10.9332 21.1554C11.1217 20.8102 10.9894 20.3769 10.6415 20.1921L8.98318 19.3123C8.59488 19.106 8.40448 18.6361 8.58828 18.2356C8.78618 17.8191 9.29268 17.6484 9.69878 17.8641L11.5306 18.8368C11.873 19.0187 12.2819 18.8668 12.4592 18.5216C12.462 18.5169 12.462 18.5169 12.4639 18.5123C12.4667 18.5076 12.4667 18.5076 12.4686 18.5029C12.6552 18.1624 12.5521 17.7385 12.2088 17.5574L10.2325 16.5088C9.84888 16.3053 9.65848 15.8354 9.83948 15.4396C10.0393 15.0184 10.5439 14.8524 10.9501 15.0681L15.8255 17.6559L9.27398 29.9992L7.4684 26.7174C7.5847 26.6386 7.686 26.541 7.74884 26.405Z" fill="#ED6362"/>
<path d="M19.2527 12.9697L25.8042 25.313L19.8548 24.7634L16.9753 29.999L10.4238 17.6557L19.2527 12.9697Z" fill="#ED6362"/>
<path d="M18.5014 26.4051C18.3175 26.0102 18.5098 25.5384 18.8944 25.3339L19.2714 25.1332C19.6485 24.9184 19.792 24.441 19.5866 24.0546C19.3783 23.6616 18.8887 23.5115 18.4957 23.7197L17.4302 24.2853C17.101 24.4598 16.6883 24.3331 16.5186 24.0021L16.4923 23.9514C16.2972 23.6391 16.4126 23.2264 16.7371 23.0547L19.9252 21.3627C20.3135 21.1563 20.5039 20.6864 20.3228 20.2906C20.1231 19.8695 19.6185 19.7035 19.2123 19.9192L16.2559 21.4884C15.9267 21.6628 15.514 21.5362 15.3396 21.207L15.3227 21.1639L15.318 21.1545C15.1295 20.8093 15.2617 20.376 15.6097 20.1912L17.268 19.3114C17.6563 19.1051 17.8467 18.6352 17.6628 18.2347C17.4649 17.8182 16.9585 17.6475 16.5523 17.8632L14.7187 18.8378C14.3763 19.0197 13.9674 18.8678 13.7901 18.5226C13.7873 18.5179 13.7873 18.5179 13.7854 18.5132C13.7826 18.5085 13.7826 18.5085 13.7807 18.5039C13.5941 18.1634 13.6972 17.7394 14.0405 17.5584L16.0168 16.5098C16.4004 16.3063 16.5908 15.8364 16.4098 15.4405C16.21 15.0194 15.7054 14.8534 15.2992 15.0691L10.4238 17.6569L16.9753 30.0002L18.7809 26.7183C18.6655 26.6386 18.5642 26.5411 18.5014 26.4051Z" fill="#E95454"/>
<path d="M13.1264 21.8934C19.1721 21.8934 24.0731 16.9924 24.0731 10.9467C24.0731 4.901 19.1721 0 13.1264 0C7.08069 0 2.17969 4.901 2.17969 10.9467C2.17969 16.9924 7.08069 21.8934 13.1264 21.8934Z" fill="url(#paint0_linear_9308_20022)"/>
<path d="M14.6105 9.6904H7.6735C7.13419 9.6904 6.69148 9.24774 6.69148 8.70842L6.69898 8.64089V8.62588C6.69148 8.05656 7.15576 7.59134 7.72603 7.59134H12.5339C13.1708 7.59134 13.7335 7.11955 13.7711 6.48176C13.8011 5.81488 13.2693 5.25212 12.6015 5.25212H7.50842C6.9466 5.25212 6.5264 4.78033 6.53391 4.21757C6.53391 4.21007 6.53391 4.21007 6.53391 4.20256C6.53391 4.19506 6.53391 4.19506 6.53391 4.18755C6.5264 3.62573 6.94566 3.15301 7.50842 3.15301H12.8378C13.4672 3.15301 14.0299 2.68122 14.0675 2.05093C14.0975 1.37655 13.5657 0.821289 12.8978 0.821289H8.99508C5.01538 2.46175 2.21094 6.37483 2.21094 10.9463C2.21094 15.5179 5.01538 19.43 8.99598 21.0686H13.9512C14.5805 21.0686 15.1433 20.5968 15.1808 19.9665C15.2108 19.2921 14.679 18.7378 14.0112 18.7378L8.37418 18.7369C7.70914 18.7369 7.17358 18.1807 7.20922 17.5072C7.24205 16.8769 7.80856 16.4033 8.43978 16.4033H10.6252C11.2536 16.3855 11.7611 15.8705 11.7611 15.2374C11.7611 14.5931 11.2368 14.0678 10.5915 14.0678H7.27863C6.73931 14.0678 6.29661 13.626 6.30411 13.0858V13.0033C6.26659 12.4714 6.69429 12.0212 7.2261 12.0212H14.543C15.1799 12.0212 15.7426 11.5494 15.7801 10.9191C15.8101 10.2457 15.2774 9.6904 14.6105 9.6904Z" fill="#B5B6BA"/>
<path d="M13.1265 18.7598C8.81758 18.7598 5.3125 15.2538 5.3125 10.9459C5.3125 6.63789 8.81758 3.13281 13.1265 3.13281C17.4354 3.13281 20.9405 6.63883 20.9405 10.9468C20.9405 15.2547 17.4354 18.7598 13.1265 18.7598Z" fill="#8F8F8F"/>
<path opacity="0.2" d="M20.9393 10.9467C20.9393 6.78979 17.6734 3.38976 13.5736 3.15527H12.8458C12.3656 3.15527 11.9369 3.51544 11.9079 3.99567C11.8853 4.50966 12.2905 4.93361 12.7998 4.93361L17.0993 4.93455C17.6068 4.93455 18.0148 5.35849 17.9876 5.87248C17.9622 6.35365 17.5308 6.71475 17.0487 6.71475H15.382C14.9027 6.72882 14.5153 7.12088 14.5153 7.60392C14.5153 8.0954 14.9158 8.4959 15.4073 8.4959H17.9341C18.3459 8.4959 18.6826 8.83356 18.677 9.24438V9.30628C18.7051 9.7124 18.3796 10.0548 17.9735 10.0548H12.3937C11.9079 10.0548 11.4792 10.4149 11.4501 10.8952C11.4276 11.4091 11.8328 11.8331 12.3421 11.8331H17.6321C18.0438 11.8331 18.3806 12.1707 18.3806 12.5816L18.3749 12.6332V12.6444C18.3806 13.0787 18.026 13.4332 17.5918 13.4332H13.9244C13.4386 13.4332 13.0099 13.7934 12.9809 14.2792C12.9583 14.7876 13.3635 15.2172 13.8728 15.2172H17.7568C18.1855 15.2172 18.5053 15.5773 18.4997 16.006C18.4997 16.0116 18.4997 16.0116 18.4997 16.0172C18.4997 16.0229 18.4997 16.0229 18.4997 16.0285C18.5053 16.4571 18.1855 16.8173 17.7568 16.8173H13.6927C13.2125 16.8173 12.7839 17.1775 12.7548 17.6577C12.7323 18.1726 13.1375 18.5956 13.6468 18.5956H14.7189C18.2671 17.8565 20.9393 14.7079 20.9393 10.9467Z" fill="#8F8F8F"/>
<path d="M9.95825 13.9906C10.9823 13.1372 11.7983 12.4279 12.4062 11.8626C13.0143 11.2866 13.5209 10.6892 13.9263 10.0706C14.3316 9.45189 14.5343 8.84389 14.5343 8.24655C14.5343 7.70255 14.4063 7.27589 14.1503 6.96655C13.8943 6.65722 13.4996 6.50255 12.9663 6.50255C12.4329 6.50255 12.0223 6.68389 11.7343 7.04655C11.4463 7.39855 11.2969 7.88389 11.2863 8.50255H9.11025C9.15292 7.22255 9.53158 6.25189 10.2463 5.59055C10.9716 4.92922 11.8889 4.59855 12.9983 4.59855C14.2143 4.59855 15.1476 4.92389 15.7983 5.57455C16.4489 6.21455 16.7743 7.06255 16.7743 8.11855C16.7743 8.95055 16.5503 9.74522 16.1023 10.5026C15.6543 11.2599 15.1423 11.9212 14.5663 12.4866C13.9903 13.0412 13.2383 13.7132 12.3103 14.5026H17.0303V16.3586H9.12625V14.6946L9.95825 13.9906Z" fill="white"/>
<defs>
<linearGradient id="paint0_linear_9308_20022" x1="6.50098" y1="20" x2="21.501" y2="-1.5" gradientUnits="userSpaceOnUse">
<stop stop-color="#C2C3C5"/>
<stop offset="1" stop-color="#BDBDBD"/>
</linearGradient>
</defs>
</svg>
