<svg width="29" height="43" viewBox="0 0 29 43" fill="none" xmlns="http://www.w3.org/2000/svg">
<g clip-path="url(#clip0_9308_20152)" filter="url(#filter0_d_9308_20152)">
<path d="M14.334 2.48137L15.4694 0.77832C15.593 0.592851 15.8012 0.481445 16.0241 0.481445H18.3275L20.7827 1.06496L23.6674 0.481445H25.0883C25.6207 0.481445 25.9384 1.07488 25.643 1.51793L21.0006 8.48144L14.5634 9.8148L14.334 2.48137Z" fill="#4FABF7"/>
<path d="M25.0877 0.481445H23.2366C23.7691 0.481445 24.0867 1.07488 23.7913 1.51793L19.1489 8.48144L14.5508 9.43386L14.5627 9.8148L21 8.48144L25.6424 1.51793C25.9377 1.07488 25.6202 0.481445 25.0877 0.481445V0.481445Z" fill="#1886EA"/>
<path d="M15.666 4.48144L18.3327 0.481445H23.666L18.3327 8.48144H15.666V4.48144Z" fill="#D3DCFB"/>
<path d="M23.6665 0.481445H23.2363C23.3729 0.481445 23.4949 0.520898 23.5965 0.586367L23.6665 0.481445Z" fill="#BEC8F7"/>
<path d="M18.3342 8.48144L13.1988 0.77832C13.0751 0.592852 12.867 0.481445 12.6441 0.481445H10.3342L8.0163 0.897305L5.00083 0.481445H3.57989C3.04747 0.481445 2.72982 1.07488 3.02521 1.51793L7.66755 8.48144L13.0733 9.3748L18.3342 8.48144Z" fill="#9BD8F9"/>
<path d="M13.1987 0.77832C13.0751 0.592852 12.867 0.481445 12.6441 0.481445H10.793C11.0159 0.481445 11.2241 0.592852 11.3477 0.77832L16.483 8.48144L12.1352 9.2198L13.0733 9.3748L18.3341 8.48144L13.1987 0.77832Z" fill="#73C3F9"/>
<path d="M13.0744 9.3748L10.3353 8.92215V8.48144L5.00195 0.481445H10.3353L15.6687 8.48144V8.93426L13.0744 9.3748Z" fill="#E9EFFF"/>
<path d="M11.666 10.4211H16.9994V15.7683H11.666V10.4211Z" fill="#F38047"/>
<path d="M26.6309 28.2516L26.6308 28.2516C25.953 28.9296 25.7501 29.9491 26.117 30.8349C26.117 30.8349 26.117 30.8349 26.117 30.8349L26.1896 31.0103L26.1897 31.0104C26.4794 31.7096 26.1473 32.5114 25.448 32.801L25.2726 32.8736L25.2725 32.8737C24.3867 33.2406 23.8092 34.1049 23.8092 35.0637V35.2537C23.8092 36.0106 23.1956 36.6241 22.4387 36.6241H22.2488C21.29 36.6241 20.4256 37.2016 20.0587 38.0875L20.0587 38.0875L19.9861 38.2629C19.6964 38.9622 18.8947 39.2942 18.1954 39.0046L18.1954 39.0046L18.02 38.9319C17.1341 38.565 16.1146 38.7679 15.4366 39.4458L15.3023 39.5801C14.7671 40.1153 13.8994 40.1153 13.3642 39.5801L13.2299 39.4458C12.552 38.7679 11.5324 38.565 10.6466 38.9319L10.4712 39.0046L10.4711 39.0046C9.77187 39.2943 8.97014 38.9622 8.68049 38.2629L8.60786 38.0875L8.60784 38.0875C8.24091 37.2016 7.37656 36.6241 6.41777 36.6241H6.22785C5.47095 36.6241 4.85738 36.0106 4.85738 35.2537V35.0637C4.85738 34.1049 4.27986 33.2406 3.39404 32.8737L3.39399 32.8736L3.21857 32.801C2.51933 32.5114 2.18726 31.7097 2.4769 31.0104L2.47692 31.0103L2.54956 30.8349C2.54956 30.8349 2.54957 30.8349 2.54958 30.8349C2.91646 29.9491 2.71371 28.9295 2.0357 28.2516C2.03569 28.2516 2.03568 28.2516 2.03568 28.2516L1.9014 28.1173C1.3662 27.5821 1.3662 26.7144 1.9014 26.1792L2.0357 26.0449L1.68391 25.6931L2.0357 26.0449C2.71361 25.3669 2.91648 24.3474 2.54956 23.4615L2.47692 23.2861L2.47689 23.286C2.18721 22.5868 2.51928 21.7851 3.21851 21.4955C3.21853 21.4955 3.21855 21.4954 3.21857 21.4954L3.39398 21.4228L3.39404 21.4228C4.27986 21.0559 4.85738 20.1915 4.85738 19.2327V19.0428C4.85738 18.2859 5.47095 17.6723 6.22785 17.6723H6.41777C7.37656 17.6723 8.24091 17.0948 8.60784 16.209L8.60786 16.2089L8.68049 16.0335C8.6805 16.0335 8.68051 16.0335 8.68052 16.0335C8.97017 15.3343 9.77187 15.0022 10.4711 15.2918L10.4712 15.2919L10.6466 15.3645C11.5324 15.7314 12.552 15.5286 13.2299 14.8506L12.8764 14.4971L13.2299 14.8506L13.3642 14.7163C13.8994 14.1811 14.7671 14.1811 15.3023 14.7163L15.4366 14.8506C16.1146 15.5286 17.1341 15.7314 18.02 15.3645L18.1954 15.2919L18.1955 15.2918C18.8947 15.0022 19.6964 15.3342 19.986 16.0334C19.986 16.0335 19.9861 16.0335 19.9861 16.0335L20.0587 16.2089L20.0587 16.209C20.4256 17.0948 21.29 17.6723 22.2488 17.6723H22.4387C23.1956 17.6723 23.8092 18.2859 23.8092 19.0428V19.2327C23.8092 20.1915 24.3867 21.0559 25.2725 21.4228L25.2726 21.4228L25.448 21.4954C25.448 21.4954 25.448 21.4955 25.448 21.4955C26.1472 21.7851 26.4793 22.5868 26.1897 23.2861L26.1896 23.2861L26.117 23.4615C26.117 23.4615 26.117 23.4616 26.117 23.4616C25.7501 24.3474 25.953 25.367 26.6309 26.0449L26.7652 26.1792C27.3004 26.7144 27.3004 27.5821 26.7652 28.1173L26.6309 28.2516Z" fill="#F38047" stroke="#F38047"/>
<path d="M20.9138 33.734C24.5514 30.0963 24.5514 24.1986 20.9138 20.561C17.2761 16.9234 11.3784 16.9234 7.74078 20.561C4.10317 24.1986 4.10317 30.0963 7.74078 33.734C11.3784 37.3716 17.2761 37.3716 20.9138 33.734Z" fill="#F0A36C"/>
<path d="M10.826 23.8254C10.8793 22.7588 11.2527 21.9374 11.946 21.3614C12.65 20.7748 13.5727 20.4814 14.714 20.4814C15.4927 20.4814 16.1593 20.6201 16.714 20.8974C17.2687 21.1641 17.6847 21.5321 17.962 22.0014C18.25 22.4601 18.394 22.9828 18.394 23.5694C18.394 24.2414 18.218 24.8121 17.866 25.2814C17.5247 25.7401 17.114 26.0494 16.634 26.2094V26.2734C17.2527 26.4654 17.7327 26.8068 18.074 27.2974C18.426 27.7881 18.602 28.4174 18.602 29.1854C18.602 29.8254 18.4527 30.3961 18.154 30.8974C17.866 31.3988 17.434 31.7934 16.858 32.0814C16.2927 32.3588 15.61 32.4974 14.81 32.4974C13.6047 32.4974 12.6233 32.1934 11.866 31.5854C11.1087 30.9774 10.7087 30.0814 10.666 28.8974H12.842C12.8633 29.4201 13.0393 29.8414 13.37 30.1614C13.7113 30.4708 14.1753 30.6254 14.762 30.6254C15.306 30.6254 15.722 30.4761 16.01 30.1774C16.3087 29.8681 16.458 29.4734 16.458 28.9934C16.458 28.3534 16.2553 27.8948 15.85 27.6174C15.4447 27.3401 14.8153 27.2014 13.962 27.2014H13.498V25.3614H13.962C15.4767 25.3614 16.234 24.8548 16.234 23.8414C16.234 23.3828 16.0953 23.0254 15.818 22.7694C15.5513 22.5134 15.162 22.3854 14.65 22.3854C14.1487 22.3854 13.7593 22.5241 13.482 22.8014C13.2153 23.0681 13.0607 23.4094 13.018 23.8254H10.826Z" fill="#FFFBF2"/>
<path d="M19.7493 11.1481H8.91602C8.22563 11.1481 7.66602 10.5885 7.66602 9.89809V8.48145H20.9994V9.89809C20.9993 10.5885 20.4397 11.1481 19.7493 11.1481Z" fill="#FFDD40"/>
<path d="M19.153 8.48145V9.86035C19.153 10.5715 18.5764 11.1481 17.8652 11.1481H19.7115C20.4227 11.1481 20.9992 10.5715 20.9992 9.86035V8.48145H19.153Z" fill="#FFB332"/>
</g>
<defs>
<filter id="filter0_d_9308_20152" x="-1" y="0.481445" width="31" height="42" filterUnits="userSpaceOnUse" color-interpolation-filters="sRGB">
<feFlood flood-opacity="0" result="BackgroundImageFix"/>
<feColorMatrix in="SourceAlpha" type="matrix" values="0 0 0 0 0 0 0 0 0 0 0 0 0 0 0 0 0 0 127 0" result="hardAlpha"/>
<feOffset dy="1"/>
<feGaussianBlur stdDeviation="0.5"/>
<feColorMatrix type="matrix" values="0 0 0 0 0 0 0 0 0 0 0 0 0 0 0 0 0 0 0.2 0"/>
<feBlend mode="normal" in2="BackgroundImageFix" result="effect1_dropShadow_9308_20152"/>
<feBlend mode="normal" in="SourceGraphic" in2="effect1_dropShadow_9308_20152" result="shape"/>
</filter>
<clipPath id="clip0_9308_20152">
<rect width="29" height="40" fill="white" transform="translate(0 0.481445)"/>
</clipPath>
</defs>
</svg>
