<svg width="21" height="19" viewBox="0 0 21 19" fill="none" xmlns="http://www.w3.org/2000/svg">
<path d="M3.00003 10.68V13.49C3.00003 14.22 3.40003 14.9 4.04003 15.25L9.04003 17.98C9.64003 18.31 10.36 18.31 10.96 17.98L15.96 15.25C16.6 14.9 17 14.22 17 13.49V10.68L10.96 13.98C10.36 14.31 9.64003 14.31 9.04003 13.98L3.00003 10.68ZM9.04003 1.02003L0.610029 5.62003C-0.0799707 6.00003 -0.0799707 7.00003 0.610029 7.38003L9.04003 11.98C9.64003 12.31 10.36 12.31 10.96 11.98L19 7.59003V13.5C19 14.05 19.45 14.5 20 14.5C20.55 14.5 21 14.05 21 13.5V7.09003C21 6.72003 20.8 6.39003 20.48 6.21003L10.96 1.02003C10.36 0.700029 9.64003 0.700029 9.04003 1.02003Z" fill="#FFFBF2"/>
</svg>
