<svg width="88" height="74" viewBox="0 0 88 74" fill="none" xmlns="http://www.w3.org/2000/svg">
<path d="M12.8333 41.9167V53.625C12.8333 56.6667 14.5 59.5 17.1667 60.9583L38 72.3333C40.5 73.7083 43.5 73.7083 46 72.3333L66.8333 60.9583C69.5 59.5 71.1667 56.6667 71.1667 53.625V41.9167L46 55.6667C43.5 57.0417 40.5 57.0417 38 55.6667L12.8333 41.9167ZM38 1.66667L2.875 20.8333C-5.96046e-08 22.4167 -5.96046e-08 26.5833 2.875 28.1667L38 47.3333C40.5 48.7083 43.5 48.7083 46 47.3333L79.5 29.0417V53.6667C79.5 55.9583 81.375 57.8333 83.6667 57.8333C85.9583 57.8333 87.8333 55.9583 87.8333 53.6667V26.9583C87.8333 25.4167 87 24.0417 85.6667 23.2917L46 1.66667C43.5 0.333334 40.5 0.333334 38 1.66667Z" fill="#BFB3AD"/>
</svg>
