<svg width="21" height="20" viewBox="0 0 21 20" fill="none" xmlns="http://www.w3.org/2000/svg">
<path d="M10.7495 0.0200195C5.23953 0.0200195 0.769531 4.49002 0.769531 10C0.769531 15.51 5.23953 19.98 10.7495 19.98C16.2595 19.98 20.7295 15.51 20.7295 10C20.7295 4.49002 16.2595 0.0200195 10.7495 0.0200195ZM10.2295 15.88V11.74H7.56953C7.19953 11.74 6.94953 11.34 7.12953 11.01L10.8095 3.84002C11.0395 3.37002 11.7495 3.54002 11.7495 4.07002V8.26002H14.2895C14.6595 8.26002 14.8995 8.65002 14.7395 8.98002L11.1795 16.1C10.9395 16.58 10.2295 16.41 10.2295 15.88Z" fill="#654F4D"/>
</svg>
