<svg width="96" height="19" viewBox="0 0 96 19" fill="none" xmlns="http://www.w3.org/2000/svg">
<path d="M0 13.3291L1.38845 12.8848L4.77627 7.4421L1.55507 2.16598L0.388765 1.72168V0.888609H5.38719V1.83276L3.83213 2.27706L6.22026 5.99811H6.33134L8.33071 2.27706L6.83118 1.83276V0.888609H11.7185V1.72168L10.3301 2.16598L7.38656 7.10887L10.8855 12.8293L12.2184 13.2736V14.1622H6.99779V13.2181L8.49732 12.7738L5.99811 8.6084H5.88703L3.38782 12.7182L4.88735 13.1625V14.1067H0V13.3291ZM14.2177 14.3288C14.0511 14.2733 13.829 14.1067 13.7179 13.9956C13.4957 13.7734 13.3291 13.6068 13.3291 13.4958V5.49827L12.5516 5.27612V4.49858C13.6624 4.27643 14.2733 4.16536 14.4399 4.16536C14.6065 4.22089 14.8287 4.33197 14.9397 4.49858C15.1619 4.72074 15.3285 4.88735 15.3285 4.99842V12.9959L16.106 13.2181V13.9956C15.4396 14.1067 14.8287 14.2733 14.2177 14.3288ZM13.2181 0.111075L14.8842 0L15.2174 0.444304L15.1063 2.3326H13.3291L13.2181 0.111075ZM21.0489 14.3288C20.438 14.3288 19.8826 14.1622 19.3828 13.829C18.8274 13.4402 18.3831 12.8848 18.1609 12.2184C17.8277 11.3853 17.6611 10.4412 17.6611 9.55255C17.6611 8.94163 17.7166 8.27517 17.7722 7.66425C17.8277 7.16441 17.9388 6.72011 18.1609 6.2758C18.6052 5.77596 19.1606 5.27612 19.716 4.94289C20.2158 4.55412 20.7712 4.27643 21.3266 4.10982C21.6043 4.10982 22.8817 4.27643 25.1587 4.60966V12.8293L25.8807 13.107V13.8845C24.7144 14.1067 24.1035 14.2177 23.9369 14.2177C23.7703 14.1622 23.6592 14.0511 23.5481 13.9401C23.326 13.7179 23.2149 13.5513 23.2149 13.4958V12.6071C23.1038 12.6627 22.7706 12.9404 22.1041 13.4958C21.8265 13.9401 21.4377 14.1622 21.0489 14.3288ZM21.16 12.7182C21.8265 12.4961 22.4929 12.2184 23.1594 11.8296V5.8315C22.7151 5.72042 22.2152 5.60934 21.7154 5.55381C21.3266 5.49827 20.9378 5.44273 20.5491 5.44273C20.2714 5.44273 20.0492 5.77596 19.9382 6.38688C19.7715 7.38656 19.716 8.44179 19.716 9.49701C19.716 10.1079 19.7715 10.7744 19.9382 11.3853C20.0492 11.7741 20.2714 12.1628 20.5491 12.4961C20.7157 12.5516 20.9378 12.6627 21.16 12.7182ZM28.8798 14.3288C28.7132 14.2733 28.5466 14.1622 28.4355 14.0511C28.3244 13.9401 28.2133 13.7734 28.1578 13.6068V5.60934L27.3803 5.27612V4.44304C28.5466 4.22089 29.2685 4.10982 29.3796 4.10982C29.4907 4.10982 29.6018 4.22089 29.7684 4.38751C29.935 4.60966 30.0461 4.72074 30.0461 4.77627V5.60934C30.4904 5.27612 30.9347 4.94289 31.4345 4.60966C31.7122 4.38751 31.9899 4.22089 32.3231 4.05428C33.2117 3.99874 34.0448 4.27643 34.7113 4.88735C35.2667 5.44273 35.5443 6.38688 35.5443 7.71979V12.7182L36.3219 13.0514V13.829C35.1 14.0511 34.4336 14.1622 34.3225 14.1622C34.2114 14.1622 34.1004 14.0511 33.8782 13.8845C33.6561 13.7179 33.545 13.5513 33.545 13.4402V7.83087C33.545 6.88672 33.4339 6.33134 33.1562 6.10919C32.9341 5.88703 32.6008 5.77596 32.2676 5.77596C31.8788 5.8315 31.4901 5.99811 31.1568 6.16473C30.8236 6.2758 30.4904 6.44242 30.1572 6.60903V12.8848L30.8792 13.2181V13.9956C30.2127 14.1067 29.5462 14.2733 28.8798 14.3288ZM52.3168 18.1054C52.2613 18.1054 52.0947 17.9943 51.8725 17.8277C51.6504 17.6611 51.5393 17.4945 51.5393 17.3834L51.6504 12.8293H51.5393C51.3727 12.9404 51.2061 13.0514 51.0395 13.1625C50.8728 13.2736 50.7618 13.3847 50.5952 13.4402C50.2064 13.7734 49.8176 14.0511 49.3733 14.3288C48.7624 14.3288 48.207 14.1622 47.7072 13.829C47.1518 13.4402 46.652 12.8848 46.4298 12.2184C46.0966 11.3853 45.93 10.5522 45.93 9.66362C45.93 8.99717 45.9855 8.33071 46.041 7.66425C46.0966 7.16441 46.2077 6.72011 46.4298 6.2758C46.8741 5.77596 47.4295 5.27612 47.9849 4.94289C48.4847 4.55412 49.0401 4.27643 49.5955 4.10982C49.7621 4.10982 50.373 4.16535 51.3171 4.27643C52.3168 4.38751 52.9833 4.49858 53.3721 4.55412V16.6059L54.1496 16.8836V17.6611C53.0944 17.9943 52.3724 18.1054 52.3168 18.1054ZM49.5399 12.7182C50.2064 12.4961 50.8728 12.1628 51.5393 11.8296V5.8315C51.095 5.72042 50.5952 5.60934 50.0953 5.55381C49.7065 5.49827 49.3178 5.44273 48.929 5.44273C48.6513 5.44273 48.4292 5.77596 48.3181 6.38688C48.1515 7.38656 48.0959 8.44179 48.0959 9.49701C48.0959 10.1079 48.1515 10.7744 48.3181 11.3853C48.4292 11.7741 48.6513 12.1628 48.929 12.4961C49.0401 12.5516 49.2622 12.7182 49.5399 12.7182ZM57.2597 14.3288C57.0931 14.2177 56.871 14.1067 56.7599 13.9956C56.5377 13.7734 56.3711 13.6068 56.3711 13.4958V5.49827L55.5936 5.27612V4.49858C56.7043 4.27643 57.3153 4.16536 57.4819 4.16536C57.6485 4.22089 57.8706 4.33197 57.9817 4.49858C58.2039 4.72074 58.3705 4.88735 58.3705 4.99842V12.9959L59.148 13.2181V13.9956C58.4816 14.1622 57.8706 14.2733 57.2597 14.3288ZM56.2045 0.111075L57.8706 0L58.2039 0.444304L58.0928 2.3326H56.3711L56.2045 0.111075ZM61.5917 14.3288C61.4251 14.2733 61.2585 14.2177 61.1474 14.0511C60.9808 13.8845 60.8697 13.7179 60.8697 13.6068V11.7741L61.7583 11.6075C61.9805 11.5519 62.2026 11.5519 62.4248 11.4964C62.4803 11.4964 62.6469 11.6075 62.8135 11.7741C62.9801 11.9407 63.0912 12.1073 63.0912 12.1628L62.9801 13.9956C62.7024 14.0511 62.4248 14.1067 62.2026 14.1622C61.9805 14.3288 61.8138 14.3288 61.5917 14.3288ZM68.1452 14.3288C67.5898 14.3288 67.09 14.1622 66.6457 13.829C66.0903 13.4402 65.7015 12.8848 65.4794 12.2739C65.1461 11.4408 65.0351 10.5522 65.0351 9.71916C65.0351 9.0527 65.0906 8.38625 65.1461 7.71979C65.2017 7.21995 65.3127 6.77564 65.5349 6.33134C65.8126 5.99811 66.0903 5.72042 66.4235 5.49827C66.8678 5.16504 67.3121 4.83181 67.812 4.55412C68.0896 4.33197 68.4229 4.22089 68.7561 4.16536C69.5892 4.16536 70.3667 4.33197 71.1442 4.60966L71.0887 7.4421H69.7558L69.4781 5.94257C69.2559 5.8315 69.0338 5.77596 68.8116 5.72042C68.5895 5.66488 68.3118 5.60934 68.0896 5.60934C67.9786 5.60934 67.8675 5.60934 67.812 5.72042C67.5898 5.88704 67.4787 6.33134 67.3121 6.9978C67.201 7.83087 67.1455 8.71948 67.1455 9.55255C67.1455 10.219 67.201 10.8299 67.3677 11.4408C67.4787 11.8296 67.7009 12.2184 67.9786 12.5516C68.1452 12.7738 68.4229 12.8848 68.645 12.8848H71.1442V13.829C70.6444 13.9956 70.0335 14.1622 69.4226 14.3288C68.8116 14.4954 68.2563 14.3288 68.1452 14.3288ZM77.0868 14.3288C75.5873 14.3288 74.421 13.9401 73.699 13.1625C72.977 12.385 72.5882 11.1632 72.5882 9.55255C72.5882 8.94163 72.6438 8.27517 72.6993 7.66425C72.7548 7.16441 72.8659 6.72011 73.0881 6.2758C73.3658 5.94257 73.6434 5.66488 73.9767 5.38719C74.4765 5.05396 74.9208 4.72074 75.3651 4.38751C75.6428 4.16535 75.976 3.99874 76.3648 3.9432C77.8643 3.9432 78.9196 4.38751 79.6971 5.16504C80.4746 5.94257 80.8079 7.10887 80.8079 8.6084C80.8079 9.27486 80.7523 9.94131 80.6412 10.6078C80.5857 11.1076 80.4746 11.6075 80.308 12.1073C79.8637 12.6071 79.3083 13.107 78.6974 13.4402C78.1976 13.8845 77.6422 14.2177 77.0868 14.3288ZM77.1979 13.0514C77.309 12.9959 77.6977 12.8293 78.3086 12.4961C78.5863 11.3298 78.6974 10.1079 78.6974 8.88609C78.7529 7.94194 78.5308 7.05333 78.0865 6.22026C77.6977 5.55381 76.9757 5.22058 76.2537 5.22058C75.976 5.22058 75.6428 5.27612 75.3651 5.44273C75.143 5.55381 74.9764 5.94257 74.8653 6.60903C74.6987 7.4421 74.6431 8.33071 74.6431 9.16378C74.6431 10.6078 74.8653 11.6075 75.3651 12.1628C75.8094 12.7738 76.4759 13.107 77.1979 13.0514ZM83.8624 14.3288C83.6958 14.2733 83.5292 14.1622 83.4181 14.0511C83.3071 13.9401 83.196 13.7734 83.1404 13.6068V5.60934L82.3629 5.27612V4.44304C83.5292 4.22089 84.2512 4.10982 84.3623 4.10982C84.4734 4.10982 84.5844 4.22089 84.7511 4.38751C84.9177 4.60966 85.0288 4.72074 85.0288 4.77627V5.60934C85.4175 5.27612 85.8063 4.94289 86.2506 4.60966C86.4727 4.38751 86.6949 4.22089 86.9726 4.05428C87.5835 4.05428 88.1944 4.16535 88.7498 4.38751C89.2496 4.60966 89.6384 5.05396 89.805 5.60934C90.1382 5.27612 90.527 4.94289 90.9158 4.60966C91.1379 4.38751 91.3601 4.22089 91.5822 4.05428C92.5264 3.99874 93.4705 4.27643 94.1925 4.88735C94.8034 5.44273 95.0811 6.38688 95.0811 7.71979V12.7182L95.8031 13.0514V13.829C94.6368 14.0511 93.9148 14.1622 93.8037 14.1622C93.6927 14.1622 93.5816 14.0511 93.3595 13.8845C93.1373 13.7179 93.0262 13.5513 93.0262 13.4402V7.83087C93.0262 6.88672 92.8596 6.33134 92.5819 6.10919C92.3042 5.88703 91.971 5.77596 91.6378 5.77596C91.0269 5.99811 90.4715 6.2758 89.9716 6.60903V12.8848L90.6936 13.2181V13.9956C89.5273 14.2177 88.8053 14.3288 88.6943 14.3288C88.5832 14.3288 88.4721 14.2177 88.2499 14.0511C88.0278 13.8845 87.9167 13.7179 87.9167 13.6068V7.83087C87.9167 6.88672 87.8056 6.33134 87.528 6.10919C87.3058 5.88703 86.9726 5.77596 86.6393 5.77596C86.0284 5.99811 85.4175 6.2758 84.8621 6.60903V12.8848L85.5841 13.2181V13.9956C85.0843 14.1622 84.4734 14.2733 83.8624 14.3288Z" fill="#FFFBF2"/>
<path d="M38.4326 16.6537L37.8772 16.5426L37.544 17.0424L38.1549 17.8755C38.1549 17.8755 39.7655 18.1532 40.8208 18.2643C41.3206 18.3198 41.7649 18.1532 42.1537 17.82C42.6535 17.3757 43.0423 16.8758 43.3755 16.3204C43.7087 15.8761 43.9309 15.3763 43.9864 14.8209V4.82406C43.4866 4.76852 42.8201 4.65745 41.9315 4.54637C41.0429 4.43529 40.5431 4.32422 40.3764 4.32422C39.7655 4.49083 39.2102 4.76852 38.7658 5.21283C38.1549 5.54606 37.5995 5.99036 37.1552 6.4902C36.9886 6.93451 36.8776 7.37881 36.822 7.82312C36.7665 8.32296 36.7109 8.8228 36.7109 9.32264C36.7109 10.1002 36.822 10.9332 37.0997 11.6552C37.3219 12.2106 37.6551 12.766 38.0994 13.1548C38.3771 13.4325 38.7658 13.6546 39.2102 13.7101L41.4872 13.3769C41.6538 13.2103 41.8204 13.0437 42.0426 12.8771L42.1537 12.9326V14.0434C42.1537 14.7654 42.0981 15.5429 41.9871 16.2649C41.876 16.9869 41.3206 16.9869 41.2095 17.0424L38.4326 16.6537ZM42.0426 11.7663C41.5427 12.1551 41.0429 12.4883 40.432 12.766C40.1543 12.766 39.9321 12.6549 39.7655 12.4883C39.4878 12.2106 39.2657 11.8219 39.0991 11.4331C38.8769 10.8222 38.7658 10.1557 38.8214 9.48926C38.8214 7.2122 39.0991 5.93482 39.71 5.76821C39.7655 5.76821 39.8211 5.76821 39.9321 5.76821C40.2654 5.76821 40.5986 5.82375 40.9318 5.93482C41.3206 5.99036 41.6538 6.10144 42.0426 6.21251V11.7663Z" fill="#FFFBF2"/>
<path d="M44.0415 4.82882H42.0977L42.3753 4.27344H43.8749L44.0415 4.82882Z" fill="#FFFBF2"/>
</svg>
