<svg width="145" height="145" viewBox="0 0 145 145" fill="none" xmlns="http://www.w3.org/2000/svg">
<path d="M144.876 0H0V144.876H144.876V0Z" fill="#8E0000"/>
<path d="M132.73 12H12V132.73H132.73V12Z" stroke="#F4F0E7" stroke-width="4.82919" stroke-miterlimit="10"/>
<path d="M54.4763 58.4922V53.2284H66.0436V46.709H54.4763V30H47.9361V46.709H33.8308V53.2284H47.5944V55.4016C42.2745 68.3921 31 86.3567 31 86.6464L36.6128 90.0752C36.9057 89.4474 42.5673 80.4651 47.5456 70.5652V114.511H54.1346V67.1365C59.1618 72.1106 61.9438 77.9539 61.9438 77.9539L67.8983 75.153C67.9471 74.8632 62.9199 64.6736 54.4763 58.4922Z" fill="#F4F0E7"/>
<path d="M70.4365 34.3462V114.221H77.0255V107.991H107.384V114.173H113.973V34.3462H70.4365ZM107.384 40.8173V55.981H77.0255V40.8173H107.384ZM77.0255 62.5004H107.384V78.5816H77.0255V62.5004ZM77.0255 101.52V85.101H107.384V101.52H77.0255Z" fill="#F4F0E7"/>
</svg>
