<svg id="Layer_1" data-name="Layer 1" xmlns="http://www.w3.org/2000/svg" viewBox="0 0 471 79.1"><defs><style>.cls-1,.cls-6{fill:#8e0000;}.cls-2{fill:none;stroke:#f4f0e7;stroke-miterlimit:10;stroke-width:2.58px;}.cls-3{fill:#fff;}.cls-4{fill:#f4f0e7;}.cls-5{fill:#ffce00;}.cls-6{isolation:isolate;font-size:16.02px;font-family:Poppins-Regular, Poppins;}</style></defs><path class="cls-1" d="M180.21,31.09H103.33V108h76.88Z" transform="translate(-103.33 -28.87)"/><path class="cls-2" d="M173.81,37.5H109.74v64.06h64.07Z" transform="translate(-103.33 -28.87)"/><path class="cls-3" d="M132.32,62.21V59.44h6.09V56h-6.09V47.11h-3.41V56h-7.42v3.47h7.2v1.17C125.92,67.5,120,77,120,77.16L122.93,79c.16-.32,3.15-5.13,5.76-10.36V92h3.47V66.81a23.17,23.17,0,0,1,4.11,5.76l3.15-1.49A26.36,26.36,0,0,0,132.32,62.21Z" transform="translate(-103.33 -28.87)"/><path class="cls-3" d="M140.71,49.4V91.79h3.47V88.48h16v3.26h3.47V49.4Zm19.38,3.47v8.06H144.18V52.87ZM144.18,64.35h16v8.54h-16Zm0,20.72V76.36h16v8.71Z" transform="translate(-103.33 -28.87)"/><path class="cls-4" d="M132.59,62.11V59.33h6.09V55.86h-6.09V47h-3.42v8.86h-7.42v3.47H129v1.18c-2.78,6.88-8.7,16.39-8.7,16.55l2.93,1.81c.16-.32,3.15-5.12,5.77-10.36V91.85h3.47V66.7a23.33,23.33,0,0,1,4.11,5.77l3.15-1.5A26.52,26.52,0,0,0,132.59,62.11Z" transform="translate(-103.33 -28.87)"/><path class="cls-4" d="M141,49.29v42.4h3.47V88.38h16v3.25h3.47V49.29Zm19.38,3.47v8.07h-16V52.76Zm-16,11.48h16v8.55h-16Zm0,20.72v-8.7h16V85Z" transform="translate(-103.33 -28.87)"/><path class="cls-4" d="M195.32,78.05l2.46-.8,6.14-9.82L198.15,58l-2.08-.8v-1.5h9v1.71l-2.83.8,4.27,6.67h.16l3.63-6.67-2.72-.8V55.68h8.76v1.5l-2.46.8-5.34,8.91,6.3,10.31,2.46.8v1.55h-9.45V77.84l2.67-.8-4.49-7.53h-.16L201.41,77l2.72.8v1.71h-8.75v-1.5Zm25.58,1.87a2.6,2.6,0,0,1-.91-.64c-.43-.43-.7-.7-.7-.86V64l-1.38-.43V62.14c2-.37,3.09-.59,3.36-.59a2.22,2.22,0,0,1,.91.59c.42.37.69.7.69.86V77.41l1.39.37v1.45A31.35,31.35,0,0,1,220.9,79.92Zm-1.82-25.68,3-.21.59.85-.21,3.42h-3.15Zm14.15,25.68a5.74,5.74,0,0,1-3-.91,7,7,0,0,1-2.25-2.88,11.67,11.67,0,0,1-.85-4.81,22.53,22.53,0,0,1,.21-3.41,8.57,8.57,0,0,1,.7-2.46,11.62,11.62,0,0,1,2.83-2.4,7.39,7.39,0,0,1,2.93-1.5c.54,0,2.83.32,6.89.91V77.3l1.33.54v1.44c-2.08.43-3.25.64-3.47.64a1.71,1.71,0,0,1-.74-.53c-.38-.38-.59-.65-.59-.75V77.09c-.16.11-.8.64-2,1.55A9.39,9.39,0,0,1,233.23,79.92Zm.21-2.94a18.13,18.13,0,0,0,3.58-1.6V64.54a16.79,16.79,0,0,0-2.56-.53,9.62,9.62,0,0,0-2.14-.21c-.48.05-.91.64-1.12,1.7a31.35,31.35,0,0,0-.37,5.56,12.3,12.3,0,0,0,.42,3.36,6.15,6.15,0,0,0,1.07,2A2.06,2.06,0,0,0,233.44,77Zm13.88,2.94a2.12,2.12,0,0,1-.8-.53,1.77,1.77,0,0,1-.53-.75V64.22l-1.39-.58V62.19c2.14-.37,3.36-.58,3.58-.58s.37.16.69.53.54.59.54.7v1.49c.8-.59,1.65-1.17,2.5-1.82a7.78,7.78,0,0,1,1.55-1,5.53,5.53,0,0,1,4.27,1.5c1,1,1.45,2.67,1.45,5.12v9l1.38.58v1.45c-2.19.42-3.36.64-3.57.64s-.38-.16-.8-.54-.59-.64-.59-.75V68.17c0-1.65-.22-2.67-.7-3.09a2.33,2.33,0,0,0-1.6-.64,6.44,6.44,0,0,0-2,.69,16.88,16.88,0,0,0-1.76.8V77.2l1.33.58v1.45A31.84,31.84,0,0,1,247.32,79.92ZM289.5,86.7c-.11,0-.37-.16-.8-.53s-.59-.64-.59-.75l.22-8.17-.22,0c-.27.21-.59.42-.85.64s-.54.37-.75.53a15.13,15.13,0,0,1-2.19,1.55,5.57,5.57,0,0,1-3-.91A6.17,6.17,0,0,1,279,76.18a11,11,0,0,1-.86-4.64,23.58,23.58,0,0,1,.22-3.63,9.58,9.58,0,0,1,.69-2.51,11.83,11.83,0,0,1,2.83-2.4,7.34,7.34,0,0,1,2.94-1.5c.32,0,1.38.11,3.15.32s3,.37,3.73.53V84.08l1.39.54v1.44C290.89,86.49,289.66,86.7,289.5,86.7Zm-5-9.72a21.9,21.9,0,0,0,3.58-1.6V64.54A16.79,16.79,0,0,0,285.5,64a9.62,9.62,0,0,0-2.14-.21c-.48.05-.91.64-1.12,1.7a31.35,31.35,0,0,0-.37,5.56,12.3,12.3,0,0,0,.42,3.36,6.15,6.15,0,0,0,1.07,2A1.91,1.91,0,0,0,284.48,77Zm13.88,2.94a2.8,2.8,0,0,1-.91-.64c-.42-.43-.69-.7-.69-.86V64l-1.39-.43V62.14c2-.37,3.1-.59,3.37-.59a2.15,2.15,0,0,1,.9.59c.43.37.7.7.7.86V77.41l1.39.37v1.45A26.41,26.41,0,0,1,298.36,79.92Zm-1.81-25.68,3-.21.59.85L300,58.3h-3.15Zm9.66,25.68a1.38,1.38,0,0,1-.75-.48c-.32-.32-.53-.59-.53-.75l-.05-3.26,1.6-.32a9.25,9.25,0,0,1,1.23-.16c.1,0,.37.16.69.54s.53.59.53.69l-.21,3.26c-.53.11-1,.21-1.44.32A4.91,4.91,0,0,1,306.21,79.92Zm11.75,0a4.78,4.78,0,0,1-2.73-.91,6.62,6.62,0,0,1-2.13-2.83,11.94,11.94,0,0,1-.8-4.64,26.09,26.09,0,0,1,.21-3.63,8.77,8.77,0,0,1,.69-2.51,8.94,8.94,0,0,1,1.61-1.55,22.05,22.05,0,0,1,2.45-1.66A4,4,0,0,1,319,61.5a15.45,15.45,0,0,1,4.33.75l-.11,5.07h-2.4l-.54-2.72a5.06,5.06,0,0,0-1.17-.43A6.16,6.16,0,0,0,317.8,64a.79.79,0,0,0-.54.16c-.37.26-.64,1.06-.85,2.35a36.57,36.57,0,0,0-.27,4.59,11.91,11.91,0,0,0,.43,3.41,5.18,5.18,0,0,0,1.12,2,1.83,1.83,0,0,0,1.23.64h4.48v1.65c-.91.27-2,.59-3.15.86S318.22,79.92,318,79.92Zm16.12,0c-2.72,0-4.81-.69-6.14-2.08s-2-3.58-2-6.52a23,23,0,0,1,.21-3.41,8.1,8.1,0,0,1,.7-2.46,11.07,11.07,0,0,1,1.6-1.6c.85-.64,1.71-1.23,2.51-1.76a3.76,3.76,0,0,1,1.76-.75c2.67,0,4.65.75,6,2.19s2,3.47,2,6.19a25,25,0,0,1-.27,3.58,18.4,18.4,0,0,1-.58,2.72,12.5,12.5,0,0,1-2.89,2.4A7.77,7.77,0,0,1,334.08,79.92Zm.21-2.3c.16-.05.86-.37,2-1a30.09,30.09,0,0,0,.7-6.46,8.71,8.71,0,0,0-1.13-4.8,3.66,3.66,0,0,0-3.31-1.76A3.48,3.48,0,0,0,331,64c-.37.21-.69.9-.9,2.08a25.46,25.46,0,0,0-.38,4.64c0,2.57.43,4.38,1.28,5.4A4,4,0,0,0,334.29,77.62Zm12,2.3a2,2,0,0,1-.81-.53,1.77,1.77,0,0,1-.53-.75V64.22l-1.39-.58V62.19c2.14-.37,3.37-.58,3.58-.58s.37.16.69.53.54.59.54.7v1.49c.69-.59,1.44-1.17,2.19-1.82a9.94,9.94,0,0,1,1.28-1,7.28,7.28,0,0,1,3.25.64A3.69,3.69,0,0,1,357,64.33c.64-.59,1.33-1.17,2-1.82a6.11,6.11,0,0,1,1.22-1,6.51,6.51,0,0,1,4.7,1.5q1.61,1.44,1.6,5.12v9l1.34.58v1.45c-2.14.42-3.37.64-3.58.64s-.37-.16-.8-.54-.59-.64-.59-.75V68.17c0-1.65-.26-2.67-.8-3.09a2.51,2.51,0,0,0-1.71-.64,14.85,14.85,0,0,0-3,1.49V77.2l1.34.58v1.45c-2.14.42-3.37.64-3.58.64s-.37-.16-.8-.54-.59-.64-.59-.75V68.17c0-1.65-.21-2.67-.69-3.09a2.35,2.35,0,0,0-1.6-.64,14.56,14.56,0,0,0-3.21,1.49V77.2l1.34.58v1.45A24.73,24.73,0,0,1,346.31,79.92Z" transform="translate(-103.33 -28.87)"/><path class="cls-4" d="M384.59,79.92a5.77,5.77,0,0,1-3.48-1.23A8.87,8.87,0,0,1,378.45,75a17.9,17.9,0,0,1-1-6.3,35.1,35.1,0,0,1,.32-4.91,15.64,15.64,0,0,1,.86-3.63,8.16,8.16,0,0,1,1.92-2,27.36,27.36,0,0,1,2.67-1.87,5.28,5.28,0,0,1,1.92-.74c.75,0,1.82.05,3.21.16s2.77.1,4.11.21L392,62.67h-2.14l-.48-4c-.64-.11-1.44-.21-2.51-.32a21.07,21.07,0,0,0-2.35-.11,2.92,2.92,0,0,0-1.28.22c-.64.32-1.12,1.28-1.44,2.83a29.72,29.72,0,0,0-.54,6c0,3.68.43,6.24,1.34,7.68A4.24,4.24,0,0,0,386.35,77h2.83l.69-5,2,0,.05,7a33,33,0,0,1-3.89.58C386.19,79.81,385,79.92,384.59,79.92Zm13.24,0c-.11,0-.38-.16-.75-.53s-.54-.65-.54-.75V56.7l-1.38-.54V54.72c2.13-.43,3.36-.64,3.57-.64a2,2,0,0,1,.8.53c.38.38.59.64.59.75l-.21,8.92.21,0a29.93,29.93,0,0,1,3.95-2.78,5.53,5.53,0,0,1,4.27,1.5q1.44,1.44,1.44,5.12v9l1.39.58v1.45c-2.19.42-3.41.64-3.63.64a2.08,2.08,0,0,1-.8-.54c-.37-.37-.53-.64-.53-.75V68.17c0-1.65-.22-2.67-.7-3.09a2.15,2.15,0,0,0-1.6-.64,21.88,21.88,0,0,0-3.74,1.49V77.2l1.34.58v1.45A36.48,36.48,0,0,1,397.83,79.92Zm19,0a2.69,2.69,0,0,1-.91-.64c-.42-.43-.69-.7-.69-.86V64l-1.39-.43V62.14c2-.37,3.1-.59,3.37-.59a2.15,2.15,0,0,1,.9.59c.43.37.7.7.7.86V77.41l1.39.37v1.45A30.71,30.71,0,0,1,416.83,79.92ZM415,54.24l3-.21.59.85-.22,3.42h-3.15Zm10.57,25.68a2,2,0,0,1-.8-.53c-.38-.38-.54-.65-.54-.75V64.22l-1.39-.58V62.19c2.14-.37,3.37-.58,3.58-.58s.38.16.7.53.53.59.53.7v1.49c.8-.59,1.65-1.17,2.51-1.82a7.47,7.47,0,0,1,1.55-1,5.53,5.53,0,0,1,4.27,1.5q1.44,1.44,1.44,5.12v9l1.39.58v1.45c-2.19.42-3.37.64-3.58.64s-.37-.16-.8-.54-.59-.64-.59-.75V68.17c0-1.65-.21-2.67-.69-3.09a2.35,2.35,0,0,0-1.6-.64,6.46,6.46,0,0,0-2,.69,18.09,18.09,0,0,0-1.76.8V77.2l1.33.58v1.45A34.39,34.39,0,0,1,425.59,79.92Zm22.69,0a6.35,6.35,0,0,1-3.21-.91,6.5,6.5,0,0,1-2.45-2.83,11,11,0,0,1-.91-4.64,25.54,25.54,0,0,1,.21-3.63,8.4,8.4,0,0,1,.7-2.51,10.58,10.58,0,0,1,1.6-1.6c.85-.64,1.71-1.23,2.51-1.77a4.82,4.82,0,0,1,1.76-.74,7,7,0,0,1,3.42.69,4.08,4.08,0,0,1,2,2.56,16.09,16.09,0,0,1,.74,5.45l-9.34.8a9.44,9.44,0,0,0,.64,3.79,4.77,4.77,0,0,0,1.44,1.92A3,3,0,0,0,449,77l1.86-.06,3.26-.1v1.6c-1,.32-2.13.64-3.47,1A11.9,11.9,0,0,1,448.28,79.92ZM451,68.49a7.71,7.71,0,0,0-.64-3.57,2.21,2.21,0,0,0-2.08-1.23,4.19,4.19,0,0,0-1.5.27c-.32.16-.64.74-.85,1.81a17.58,17.58,0,0,0-.32,3.42Zm13.94,11.43c-.54,0-1.66,0-3.31-.21s-2.94-.22-3.8-.32l.06-5.72,2,0,.86,3a15.18,15.18,0,0,0,2.13.59,10.32,10.32,0,0,0,1.87.21c.22,0,.48-.27.75-.85A3.24,3.24,0,0,0,466,75a1.77,1.77,0,0,0-.37-1.18,3.67,3.67,0,0,0-1-1c-.48-.32-1.28-.8-2.4-1.39a13.09,13.09,0,0,1-3.31-2.29,3.39,3.39,0,0,1-.91-2.35,5.52,5.52,0,0,1,.21-1.92,11.08,11.08,0,0,1,2.09-2.19,4.77,4.77,0,0,1,2.13-1.23c.86,0,2,0,3.37.11s2.45.1,3.2.21l-.11,4.81h-2.19l-.26-2.09c-.22-.05-.91-.21-2-.37s-1.87-.27-2.19-.27c-.59,0-.86.54-.86,1.66a1.64,1.64,0,0,0,.54,1.28c.37.32.85.64,1.28,1a6.86,6.86,0,0,1,1,.59l1.07.64a20.43,20.43,0,0,1,3.36,2.24,3,3,0,0,1,1.28,2.35,10.07,10.07,0,0,1-.26,2,12.13,12.13,0,0,1-2.19,2.67C466.27,79.39,465.47,79.92,464.94,79.92Zm13.72,0a6.32,6.32,0,0,1-3.21-.91A6.5,6.5,0,0,1,473,76.18a11,11,0,0,1-.91-4.64,25.54,25.54,0,0,1,.21-3.63,8.4,8.4,0,0,1,.7-2.51,10.11,10.11,0,0,1,1.6-1.6c.85-.64,1.71-1.23,2.51-1.77a4.82,4.82,0,0,1,1.76-.74,7,7,0,0,1,3.42.69,4.11,4.11,0,0,1,2,2.56,16.09,16.09,0,0,1,.74,5.45l-9.34.8a9.27,9.27,0,0,0,.64,3.79,4.77,4.77,0,0,0,1.44,1.92,3,3,0,0,0,1.6.54l1.87-.06,3.26-.1v1.6c-1,.32-2.14.64-3.47,1A12.73,12.73,0,0,1,478.66,79.92Zm2.72-11.43a7.71,7.71,0,0,0-.64-3.57,2.21,2.21,0,0,0-2.08-1.23,4.19,4.19,0,0,0-1.5.27c-.32.16-.64.74-.85,1.81a16.84,16.84,0,0,0-.32,3.42Zm20.34,11.43a5.74,5.74,0,0,1-3.47-1.23A8.8,8.8,0,0,1,495.58,75a18.08,18.08,0,0,1-1-6.3,33.65,33.65,0,0,1,.32-4.91,15.2,15.2,0,0,1,.85-3.63,8.16,8.16,0,0,1,1.92-2,27.36,27.36,0,0,1,2.67-1.87,5.28,5.28,0,0,1,1.92-.74c.75,0,1.82.05,3.21.16s2.77.1,4.11.21l-.48,6.83H507l-.48-4c-.64-.11-1.44-.21-2.51-.32a21.07,21.07,0,0,0-2.35-.11,2.92,2.92,0,0,0-1.28.22c-.64.32-1.12,1.28-1.44,2.83a29.82,29.82,0,0,0-.53,6c0,3.68.42,6.24,1.33,7.68A4.24,4.24,0,0,0,503.43,77h2.83l.69-5,2,0,0,7a33,33,0,0,1-3.89.58C503.32,79.81,502.09,79.92,501.72,79.92Zm13.19,0c-.11,0-.38-.16-.75-.53a1.77,1.77,0,0,1-.53-.75V56.7l-1.39-.54V54.72c2.13-.43,3.36-.64,3.57-.64a2,2,0,0,1,.81.53c.37.38.58.64.58.75L517,64.28l.21,0a29.93,29.93,0,0,1,3.95-2.78,5.51,5.51,0,0,1,4.27,1.5q1.46,1.44,1.45,5.12v9l1.38.58v1.45c-2.18.42-3.41.64-3.63.64a2.08,2.08,0,0,1-.8-.54c-.37-.37-.53-.64-.53-.75V68.17c0-1.65-.21-2.67-.7-3.09a2.15,2.15,0,0,0-1.6-.64,22,22,0,0,0-3.73,1.49V77.2l1.33.58v1.45A33.91,33.91,0,0,1,514.91,79.92Zm22.74,0a6.28,6.28,0,0,1-3.2-.91A6.46,6.46,0,0,1,532,76.18a11,11,0,0,1-.91-4.64,25.46,25.46,0,0,1,.22-3.63A8.45,8.45,0,0,1,532,65.4a10.58,10.58,0,0,1,1.6-1.6c.86-.64,1.71-1.23,2.51-1.77a4.89,4.89,0,0,1,1.76-.74,6.92,6.92,0,0,1,3.42.69,4.08,4.08,0,0,1,2,2.56,16.06,16.06,0,0,1,.75,5.45l-9.35.8a9.44,9.44,0,0,0,.64,3.79,4.69,4.69,0,0,0,1.45,1.92,2.93,2.93,0,0,0,1.6.54l1.87-.06,3.25-.1v1.6c-1,.32-2.13.64-3.47,1A11.9,11.9,0,0,1,537.65,79.92Zm2.78-11.43a7.84,7.84,0,0,0-.64-3.57,2.22,2.22,0,0,0-2.09-1.23,4.17,4.17,0,0,0-1.49.27c-.32.16-.64.74-.86,1.81a17.58,17.58,0,0,0-.32,3.42Zm13.88,11.43c-.54,0-1.66,0-3.31-.21s-2.94-.22-3.79-.32l0-5.72,2,0,.85,3a15.35,15.35,0,0,0,2.14.59,10.23,10.23,0,0,0,1.86.21c.22,0,.48-.27.75-.85a3.24,3.24,0,0,0,.48-1.55,1.72,1.72,0,0,0-.37-1.18,3.67,3.67,0,0,0-1-1c-.48-.32-1.28-.8-2.4-1.39a13.09,13.09,0,0,1-3.31-2.29,3.39,3.39,0,0,1-.91-2.35,5.46,5.46,0,0,1,.22-1.92,10.7,10.7,0,0,1,2.08-2.19,4.73,4.73,0,0,1,2.14-1.23c.85,0,2,0,3.36.11s2.45.1,3.2.21l-.1,4.81H556l-.27-2.09c-.21-.05-.91-.21-2-.37s-1.87-.27-2.19-.27c-.59,0-.85.54-.85,1.66a1.66,1.66,0,0,0,.53,1.28c.37.32.86.64,1.28,1s.86.48,1,.59l1.06.64a20.15,20.15,0,0,1,3.37,2.24,3,3,0,0,1,1.28,2.35,10.15,10.15,0,0,1-.27,2,11.84,11.84,0,0,1-2.19,2.67C555.64,79.39,554.9,79.92,554.31,79.92Zm14.36,0c-.53,0-1.66,0-3.31-.21s-2.94-.22-3.79-.32l0-5.72,2,0,.85,3a15.75,15.75,0,0,0,2.14.59,10.23,10.23,0,0,0,1.87.21c.21,0,.48-.27.74-.85a3.24,3.24,0,0,0,.48-1.55,1.72,1.72,0,0,0-.37-1.18,3.48,3.48,0,0,0-1-1c-.48-.32-1.29-.8-2.41-1.39a13.09,13.09,0,0,1-3.31-2.29,3.43,3.43,0,0,1-.9-2.35,5.52,5.52,0,0,1,.21-1.92A11,11,0,0,1,564,62.73a4.78,4.78,0,0,1,2.14-1.23c.85,0,2,0,3.36.11s2.46.1,3.2.21l-.1,4.81h-2.19l-.27-2.09c-.21-.05-.91-.21-2-.37s-1.87-.27-2.19-.27c-.58,0-.85.54-.85,1.66a1.66,1.66,0,0,0,.53,1.28c.38.32.86.64,1.28,1s.86.48,1,.59l1.07.64a20.43,20.43,0,0,1,3.36,2.24,3,3,0,0,1,1.28,2.35,10.15,10.15,0,0,1-.27,2,12,12,0,0,1-2.18,2.67C570,79.39,569.2,79.92,568.67,79.92Z" transform="translate(-103.33 -28.87)"/><path class="cls-4" d="M264.51,84.08l-1-.16-.58.91,1.12,1.5s2.88.48,4.8.69a3.48,3.48,0,0,0,2.4-.75,11,11,0,0,0,2.19-2.72,4.73,4.73,0,0,0,1.07-2.67V62.78c-.91-.11-2.13-.32-3.74-.53s-2.51-.38-2.77-.38a8.06,8.06,0,0,0-2.94,1.55,11.54,11.54,0,0,0-2.88,2.35,9.5,9.5,0,0,0-.64,2.4,23.76,23.76,0,0,0-.16,2.67,11.46,11.46,0,0,0,.69,4.22,7.49,7.49,0,0,0,1.76,2.72,3.39,3.39,0,0,0,2,1l4.06-.58c.32-.32.64-.59,1-.86l.21.11v2a30.82,30.82,0,0,1-.27,4c-.16,1.28-1.22,1.28-1.44,1.39m1.6-9.61a11.55,11.55,0,0,1-2.88,1.76,2.16,2.16,0,0,1-1.23-.53,5.07,5.07,0,0,1-1.17-1.93,10.58,10.58,0,0,1-.54-3.52q0-6.17,1.61-6.73a2,2,0,0,1,.37,0,10.74,10.74,0,0,1,1.82.27,13.9,13.9,0,0,1,2,.53Z" transform="translate(-103.33 -28.87)"/><polygon class="cls-4" points="171.27 33.91 167.75 33.91 168.28 32.95 171 32.95 171.27 33.91"/></svg>
