<svg width="512" height="145" viewBox="0 0 512 145" fill="none" xmlns="http://www.w3.org/2000/svg">
<path d="M144.876 0H0V144.876H144.876V0Z" fill="#8E0000"/>
<path d="M132.73 12H12V132.73H132.73V12Z" stroke="#F4F0E7" stroke-width="4.82919" stroke-miterlimit="10"/>
<path d="M54.4763 58.4922V53.2284H66.0436V46.709H54.4763V30H47.9361V46.709H33.8308V53.2284H47.5944V55.4016C42.2745 68.3921 31 86.3567 31 86.6464L36.6128 90.0752C36.9057 89.4474 42.5673 80.4651 47.5456 70.5652V114.511H54.1346V67.1365C59.1618 72.1106 61.9438 77.9539 61.9438 77.9539L67.8983 75.153C67.9471 74.8632 62.9199 64.6736 54.4763 58.4922Z" fill="#F4F0E7"/>
<path d="M70.4365 34.3462V114.221H77.0255V107.991H107.384V114.173H113.973V34.3462H70.4365ZM107.384 40.8173V55.981H77.0255V40.8173H107.384ZM77.0255 62.5004H107.384V78.5816H77.0255V62.5004ZM77.0255 101.52V85.101H107.384V101.52H77.0255Z" fill="#F4F0E7"/>
<path d="M185.26 96.188L189.848 94.708L201.318 76.356L190.514 58.67L186.592 57.19V54.378H203.538V57.56L198.21 59.04L206.202 71.546H206.498L213.306 59.04L208.2 57.56V54.378H224.554V57.19L219.966 58.67L209.976 75.394L221.816 94.708L226.404 96.188V99H208.718V95.818L213.676 94.338L205.24 80.204H204.944L196.508 94.338L201.614 95.818V99H185.26V96.188ZM233.162 99.666C232.915 99.666 232.348 99.2713 231.46 98.482C230.621 97.6927 230.202 97.1747 230.202 96.928V69.918L227.612 69.104V66.366C231.361 65.626 233.458 65.256 233.902 65.256C234.198 65.256 234.765 65.626 235.604 66.366C236.442 67.106 236.862 67.6487 236.862 67.994V95.004L239.452 95.744V98.482C235.702 99.2713 233.606 99.666 233.162 99.666ZM229.758 51.566L235.456 51.196L236.566 52.824L236.196 59.262H230.276L229.758 51.566ZM256.29 99.666C254.267 99.666 252.368 99.0987 250.592 97.964C248.865 96.78 247.459 94.9793 246.374 92.562C245.288 90.1447 244.746 87.1353 244.746 83.534C244.746 81.2153 244.894 79.0693 245.19 77.096C245.535 75.0733 245.979 73.544 246.522 72.508C247.311 71.3733 249.062 69.8687 251.776 67.994C254.538 66.1193 256.364 65.182 257.252 65.182C258.238 65.182 262.555 65.7493 270.202 66.884V94.708L272.718 95.744V98.482C268.82 99.2713 266.65 99.666 266.206 99.666C266.008 99.666 265.54 99.3207 264.8 98.63C264.06 97.9393 263.69 97.4707 263.69 97.224V94.338C263.394 94.5847 262.16 95.5467 259.99 97.224C257.819 98.852 256.586 99.666 256.29 99.666ZM256.734 94.19C257.276 94.19 259.521 93.2033 263.468 91.23V70.88C262.234 70.4853 260.631 70.14 258.658 69.844C256.684 69.4987 255.352 69.3753 254.662 69.474C253.724 69.622 253.009 70.6827 252.516 72.656C252.072 74.6293 251.85 78.0827 251.85 83.016C251.85 85.532 252.121 87.6287 252.664 89.306C253.256 90.9833 253.922 92.2167 254.662 93.006C255.451 93.7953 256.142 94.19 256.734 94.19ZM282.726 99.666C282.479 99.666 281.986 99.3207 281.246 98.63C280.555 97.9393 280.21 97.4707 280.21 97.224V70.214L277.62 69.104V66.366C281.665 65.626 283.91 65.256 284.354 65.256C284.6 65.256 285.044 65.6013 285.686 66.292C286.376 66.9333 286.722 67.3773 286.722 67.624V70.436C288.202 69.3507 289.78 68.216 291.458 67.032C293.184 65.848 294.146 65.256 294.344 65.256C297.896 65.256 300.56 66.1933 302.336 68.068C304.112 69.8933 305 73.1 305 77.688V94.634L307.59 95.744V98.482C303.495 99.2713 301.25 99.666 300.856 99.666C300.609 99.666 300.116 99.3207 299.376 98.63C298.636 97.9393 298.266 97.4707 298.266 97.224V77.688C298.266 74.6293 297.822 72.7053 296.934 71.916C296.046 71.1267 295.059 70.732 293.974 70.732C293.431 70.732 292.198 71.176 290.274 72.064C288.399 72.9027 287.289 73.396 286.944 73.544V94.634L289.46 95.744V98.482C285.414 99.2713 283.17 99.666 282.726 99.666ZM361.655 112.394C361.409 112.394 360.915 112.049 360.175 111.358C359.435 110.667 359.065 110.199 359.065 109.952L359.435 94.634L359.065 94.56C358.523 94.9547 357.98 95.3493 357.437 95.744C356.944 96.1387 356.475 96.484 356.031 96.78C353.515 98.704 352.134 99.666 351.887 99.666C349.914 99.666 348.039 99.0987 346.263 97.964C344.487 96.8293 343.057 95.078 341.971 92.71C340.886 90.342 340.343 87.4313 340.343 83.978C340.343 81.462 340.491 79.1927 340.787 77.17C341.133 75.1473 341.577 73.5933 342.119 72.508C342.909 71.3733 344.66 69.8687 347.373 67.994C350.136 66.1193 351.961 65.182 352.849 65.182C353.441 65.182 355.415 65.3793 358.769 65.774C362.173 66.1687 364.517 66.4893 365.799 66.736V107.436L368.389 108.472V111.21C364.295 111.999 362.05 112.394 361.655 112.394ZM352.331 94.19C352.775 94.19 355.02 93.2033 359.065 91.23V70.88C357.832 70.4853 356.229 70.14 354.255 69.844C352.282 69.4987 350.95 69.3753 350.259 69.474C349.322 69.622 348.607 70.6827 348.113 72.656C347.669 74.6293 347.447 78.0827 347.447 83.016C347.447 85.532 347.719 87.6287 348.261 89.306C348.853 90.9833 349.519 92.2167 350.259 93.006C351.049 93.7953 351.739 94.19 352.331 94.19ZM378.334 99.666C378.087 99.666 377.52 99.2713 376.632 98.482C375.793 97.6927 375.374 97.1747 375.374 96.928V69.918L372.784 69.104V66.366C376.533 65.626 378.63 65.256 379.074 65.256C379.37 65.256 379.937 65.626 380.776 66.366C381.614 67.106 382.034 67.6487 382.034 67.994V95.004L384.624 95.744V98.482C380.874 99.2713 378.778 99.666 378.334 99.666ZM374.93 51.566L380.628 51.196L381.738 52.824L381.368 59.262H375.448L374.93 51.566ZM393.025 99.74C392.729 99.74 392.261 99.444 391.619 98.852C390.978 98.2107 390.657 97.742 390.657 97.446L390.509 91.304C391.447 91.0573 392.433 90.86 393.469 90.712C394.555 90.5147 395.319 90.416 395.763 90.416C396.01 90.416 396.454 90.7367 397.095 91.378C397.786 92.0193 398.131 92.4633 398.131 92.71L397.687 98.852C396.701 99.0987 395.788 99.296 394.949 99.444C394.111 99.592 393.469 99.6907 393.025 99.74ZM414.953 99.666C413.177 99.666 411.475 99.0987 409.847 97.964C408.219 96.78 406.887 95.0287 405.851 92.71C404.864 90.342 404.371 87.4313 404.371 83.978C404.371 81.5607 404.519 79.2913 404.815 77.17C405.16 75.0487 405.604 73.4947 406.147 72.508C406.64 71.768 407.627 70.806 409.107 69.622C410.636 68.438 412.165 67.402 413.695 66.514C415.224 65.626 416.285 65.182 416.877 65.182C419.245 65.182 421.958 65.6507 425.017 66.588L424.795 76.06H420.281L419.245 70.954C418.653 70.658 417.913 70.3867 417.025 70.14C416.137 69.8933 415.347 69.77 414.657 69.77C414.213 69.77 413.867 69.8687 413.621 70.066C412.93 70.6087 412.387 72.064 411.993 74.432C411.647 76.8 411.475 79.6613 411.475 83.016C411.475 85.5813 411.746 87.7027 412.289 89.38C412.881 91.0573 413.571 92.2907 414.361 93.08C415.15 93.8693 415.915 94.264 416.655 94.264H425.017V97.372C423.29 97.9147 421.317 98.4327 419.097 98.926C416.926 99.4193 415.545 99.666 414.953 99.666ZM445.2 99.666C440.069 99.666 436.221 98.3587 433.656 95.744C431.091 93.1293 429.808 89.0593 429.808 83.534C429.808 81.2647 429.956 79.1187 430.252 77.096C430.597 75.024 431.041 73.4947 431.584 72.508C432.077 71.768 433.089 70.7813 434.618 69.548C436.197 68.3147 437.775 67.2293 439.354 66.292C440.933 65.3547 442.018 64.886 442.61 64.886C447.593 64.886 451.342 66.2427 453.858 68.956C456.423 71.62 457.706 75.4927 457.706 80.574C457.706 82.942 457.533 85.162 457.188 87.234C456.892 89.306 456.522 91.008 456.078 92.34C455.289 93.4253 453.488 94.93 450.676 96.854C447.913 98.7287 446.088 99.666 445.2 99.666ZM445.57 95.448C445.915 95.3493 447.173 94.7327 449.344 93.598C450.183 89.898 450.602 85.8773 450.602 81.536C450.602 77.688 449.887 74.6787 448.456 72.508C447.075 70.3373 445.003 69.252 442.24 69.252C441.007 69.252 440.02 69.4493 439.28 69.844C438.589 70.2387 438.022 71.546 437.578 73.766C437.134 75.986 436.912 78.8967 436.912 82.498C436.912 87.3327 437.726 90.712 439.354 92.636C441.031 94.5107 443.103 95.448 445.57 95.448ZM468.149 99.666C467.903 99.666 467.409 99.3207 466.669 98.63C465.979 97.9393 465.633 97.4707 465.633 97.224V70.214L463.043 69.104V66.366C467.089 65.626 469.333 65.256 469.777 65.256C470.024 65.256 470.468 65.6013 471.109 66.292C471.8 66.9333 472.145 67.3773 472.145 67.624V70.436C473.428 69.3507 474.809 68.216 476.289 67.032C477.769 65.848 478.583 65.256 478.731 65.256C481.198 65.256 483.245 65.6507 484.873 66.44C486.551 67.2293 487.759 68.5613 488.499 70.436C489.683 69.3507 490.966 68.216 492.347 67.032C493.729 65.848 494.493 65.256 494.641 65.256C498.539 65.256 501.474 66.1933 503.447 68.068C505.421 69.8933 506.407 73.1 506.407 77.688V94.634L508.923 95.744V98.482C504.878 99.2713 502.658 99.666 502.263 99.666C502.017 99.666 501.523 99.3207 500.783 98.63C500.043 97.9393 499.673 97.4707 499.673 97.224V77.688C499.673 74.6293 499.18 72.7053 498.193 71.916C497.256 71.1267 496.195 70.732 495.011 70.732C494.567 70.732 492.693 71.6693 489.387 73.544V94.634L491.903 95.744V98.482C487.858 99.2713 485.638 99.666 485.243 99.666C484.997 99.666 484.503 99.3207 483.763 98.63C483.023 97.9393 482.653 97.4707 482.653 97.224V77.688C482.653 74.6293 482.209 72.7053 481.321 71.916C480.433 71.1267 479.447 70.732 478.361 70.732C477.868 70.732 475.87 71.6693 472.367 73.544V94.634L474.883 95.744V98.482C470.838 99.2713 468.593 99.666 468.149 99.666Z" fill="#8E0000"/>
<path d="M308.5 106.1L307.8 111.5C309.4 111.9 311.9 112.3 315.3 112.8C318.7 113.2 321.3 113.5 323 113.5C324 113.5 325.4 112.8 327.1 111.5C328.8 110.2 330.3 108.6 331.6 106.7C332.9 104.9 333.6 103.2 333.6 101.7V67.9002C331.9 67.7002 329.6 67.3002 326.6 66.9002C323.6 66.5002 321.9 66.2002 321.4 66.2002C320.5 66.2002 318.7 67.2002 315.9 69.1002C313.1 70.9002 311.3 72.4002 310.5 73.5002C310 74.6002 309.6 76.1002 309.3 78.0002C309.1 79.8002 309 81.5002 309 83.0002C309 86.0002 309.4 88.6002 310.3 90.9002C311.2 93.1002 312.3 94.8002 313.6 96.0002C314.8 97.1002 316.1 97.7002 317.3 97.8002L324.9 96.7002C325.5 96.1002 326.1 95.6002 326.7 95.1002L327.1 95.3002V99.0002C327.1 101.7 326.9 104.2 326.6 106.5C326.3 108.9 325.8 110 325.3 110C324.3 110 322.3 109.7 319.4 109C316.5 108.4 314.6 107.9 313.9 107.6V107.2C314.3 106.5 314.9 105.7 315.4 105.1L316.8 103.1L314.3 101.5L308.5 106.1ZM326.9 91.1002C323.8 93.3002 322 94.4002 321.5 94.4002C320.9 94.4002 320.1 94.1002 319.2 93.4002C318.4 92.7002 317.6 91.4002 317 89.8002C316.4 88.1002 316 85.9002 316 83.2002C316 75.5002 317 71.3002 319 70.6002C319.1 70.6002 319.3 70.5002 319.7 70.5002C320.5 70.5002 321.6 70.7002 323.1 71.0002C324.6 71.3002 325.8 71.6002 326.9 72.0002V91.1002Z" fill="#8E0000"/>
</svg>
