<svg width="18" height="18" viewBox="0 0 18 18" fill="none" xmlns="http://www.w3.org/2000/svg">
<path d="M13.2506 10.9999H12.4606L12.1806 10.7299C13.3806 9.32989 14.0006 7.41989 13.6606 5.38989C13.1906 2.60989 10.8706 0.389893 8.07063 0.0498932C3.84063 -0.470107 0.280626 3.08989 0.800626 7.31989C1.14063 10.1199 3.36063 12.4399 6.14063 12.9099C8.17063 13.2499 10.0806 12.6299 11.4806 11.4299L11.7506 11.7099V12.4999L16.0006 16.7499C16.4106 17.1599 17.0806 17.1599 17.4906 16.7499C17.9006 16.3399 17.9006 15.6699 17.4906 15.2599L13.2506 10.9999ZM7.25063 10.9999C4.76063 10.9999 2.75063 8.98989 2.75063 6.49989C2.75063 4.00989 4.76063 1.99989 7.25063 1.99989C9.74063 1.99989 11.7506 4.00989 11.7506 6.49989C11.7506 8.98989 9.74063 10.9999 7.25063 10.9999Z" fill="#654F4D"/>
</svg>
