<svg width="20" height="20" viewBox="0 0 20 20" fill="none" xmlns="http://www.w3.org/2000/svg">
<g clip-path="url(#clip0)">
<path d="M19.0027 17.2625H5.62881C5.07761 17.2625 4.63086 16.8158 4.63086 16.2646C4.63086 15.7134 5.07761 15.2666 5.62881 15.2666H19.0024C19.5536 15.2666 20.0004 15.7134 20.0004 16.2646C20.0004 16.8158 19.5539 17.2625 19.0027 17.2625Z" fill="#664F4C"/>
<path d="M19.0027 10.9988H5.62881C5.07761 10.9988 4.63086 10.5521 4.63086 10.0009C4.63086 9.44968 5.07761 9.00293 5.62881 9.00293H19.0024C19.5536 9.00293 20.0004 9.44968 20.0004 10.0009C20.0007 10.5521 19.5539 10.9988 19.0027 10.9988Z" fill="#664F4C"/>
<path d="M19.0027 4.73517H5.62881C5.07761 4.73517 4.63086 4.28842 4.63086 3.73721C4.63086 3.18601 5.07761 2.73926 5.62881 2.73926H19.0024C19.5536 2.73926 20.0004 3.18601 20.0004 3.73721C20.0004 4.28842 19.5539 4.73517 19.0027 4.73517Z" fill="#664F4C"/>
<path d="M1.34025 5.15414C2.08045 5.15414 2.6805 4.55409 2.6805 3.81389C2.6805 3.07368 2.08045 2.47363 1.34025 2.47363C0.600051 2.47363 0 3.07368 0 3.81389C0 4.55409 0.600051 5.15414 1.34025 5.15414Z" fill="#664F4C"/>
<path d="M1.34025 11.3416C2.08045 11.3416 2.6805 10.7416 2.6805 10.0014C2.6805 9.26118 2.08045 8.66113 1.34025 8.66113C0.600051 8.66113 0 9.26118 0 10.0014C0 10.7416 0.600051 11.3416 1.34025 11.3416Z" fill="#664F4C"/>
<path d="M1.34025 17.5282C2.08045 17.5282 2.6805 16.9281 2.6805 16.1879C2.6805 15.4477 2.08045 14.8477 1.34025 14.8477C0.600051 14.8477 0 15.4477 0 16.1879C0 16.9281 0.600051 17.5282 1.34025 17.5282Z" fill="#664F4C"/>
</g>
<defs>
<clipPath id="clip0">
<rect width="20" height="20" fill="#664F4C"/>
</clipPath>
</defs>
</svg>
