<svg width="20" height="20" viewBox="0 0 20 20" fill="none" xmlns="http://www.w3.org/2000/svg">
<circle cx="10" cy="10" r="10" fill="#F38047"/>
<path d="M10.168 5.336C11 5.336 11.668 5.564 12.172 6.02C12.684 6.468 12.94 7.088 12.94 7.88C12.94 8.664 12.688 9.264 12.184 9.68C11.68 10.088 11.012 10.292 10.18 10.292L10.132 11.216H8.656L8.596 9.176H9.136C9.832 9.176 10.368 9.084 10.744 8.9C11.12 8.716 11.308 8.38 11.308 7.892C11.308 7.54 11.204 7.26 10.996 7.052C10.796 6.844 10.52 6.74 10.168 6.74C9.8 6.74 9.512 6.84 9.304 7.04C9.104 7.24 9.004 7.516 9.004 7.868H7.42C7.412 7.38 7.516 6.944 7.732 6.56C7.948 6.176 8.264 5.876 8.68 5.66C9.104 5.444 9.6 5.336 10.168 5.336ZM9.388 14.084C9.084 14.084 8.832 13.992 8.632 13.808C8.44 13.616 8.344 13.38 8.344 13.1C8.344 12.82 8.44 12.588 8.632 12.404C8.832 12.212 9.084 12.116 9.388 12.116C9.684 12.116 9.928 12.212 10.12 12.404C10.312 12.588 10.408 12.82 10.408 13.1C10.408 13.38 10.312 13.616 10.12 13.808C9.928 13.992 9.684 14.084 9.388 14.084Z" fill="#FFFBF2"/>
</svg>
