<svg width="15" height="16" viewBox="0 0 15 16" fill="none" xmlns="http://www.w3.org/2000/svg">
<path d="M9.93336 11.0475C8.98631 9.53156 8.49678 8.1646 8.49678 7.06191V6.86251H10.1278V6.42528C10.1255 6.25951 10.0906 6.09602 10.0253 5.94511C9.95994 5.7942 9.86555 5.65913 9.74806 5.54841C9.49534 5.29633 9.20172 5.09374 8.88109 4.95021C9.11784 4.61523 9.25045 4.2117 9.26082 3.79466C9.26357 3.5586 9.2214 3.32434 9.13679 3.10562C9.05218 2.8869 8.92682 2.68813 8.76808 2.52097C8.60934 2.35381 8.42041 2.22163 8.21237 2.13218C8.00434 2.04274 7.78138 1.99782 7.5566 2.00008C7.08818 2.01464 6.64188 2.21258 6.30531 2.55503C6.14473 2.72136 6.01794 2.92017 5.93262 3.13944C5.8473 3.3587 5.80522 3.59386 5.80892 3.8307C5.80704 4.24956 5.94006 4.65679 6.18636 4.98625C5.84137 5.10738 5.52806 5.31139 5.27134 5.58204C5.15372 5.69228 5.05907 5.82687 4.99333 5.97735C4.92759 6.12784 4.89218 6.29097 4.88932 6.45651V6.89614H6.52492V7.09554C6.52492 8.21025 6.02852 9.52435 5.0769 11.0763C3.82562 11.3165 3.21713 12.1093 3.21484 13.3826V13.9808L11.7863 14V13.3994C11.7886 12.1261 11.1458 11.3285 9.93336 11.0475Z" fill="#FFFBF2"/>
</svg>
