<svg width="23" height="20" viewBox="0 0 23 20" fill="none" xmlns="http://www.w3.org/2000/svg">
<path d="M9.9987 3.75C5.83203 3.75 2.2737 6.34167 0.832031 10C2.2737 13.6583 5.83203 16.25 9.9987 16.25C14.1654 16.25 17.7237 13.6583 19.1654 10C17.7237 6.34167 14.1654 3.75 9.9987 3.75ZM9.9987 14.1667C7.6987 14.1667 5.83203 12.3 5.83203 10C5.83203 7.7 7.6987 5.83333 9.9987 5.83333C12.2987 5.83333 14.1654 7.7 14.1654 10C14.1654 12.3 12.2987 14.1667 9.9987 14.1667ZM9.9987 7.5C8.61536 7.5 7.4987 8.61667 7.4987 10C7.4987 11.3833 8.61536 12.5 9.9987 12.5C11.382 12.5 12.4987 11.3833 12.4987 10C12.4987 8.61667 11.382 7.5 9.9987 7.5Z" fill="#AC9E99"/>
<path d="M21.375 13.6923V10.1026C21.375 7.89846 20.0425 6.05333 17.7188 5.56513V5.07692C17.7188 4.48103 17.1744 4 16.5 4C15.8256 4 15.2812 4.48103 15.2812 5.07692V5.56513C12.9494 6.05333 11.625 7.89128 11.625 10.1026V13.6923L10 15.1282V15.8462H23V15.1282L21.375 13.6923ZM17.3125 13.6923H15.6875V12.2564H17.3125V13.6923ZM17.3125 10.8205H15.6875V7.94872H17.3125V10.8205ZM16.5 18C17.3938 18 18.125 17.3538 18.125 16.5641H14.875C14.875 17.3538 15.5981 18 16.5 18Z" fill="#C2352E"/>
</svg>
