<svg width="15" height="16" viewBox="0 0 15 16" fill="none" xmlns="http://www.w3.org/2000/svg">
<path d="M10.3125 8C10.3125 6.89375 9.675 5.94375 8.75 5.48125V6.8625L10.2812 8.39375C10.3 8.26875 10.3125 8.1375 10.3125 8ZM11.875 8C11.875 8.5875 11.75 9.1375 11.5375 9.65L12.4812 10.5938C12.8937 9.81875 13.125 8.9375 13.125 8C13.125 5.325 11.2563 3.0875 8.75 2.51875V3.80625C10.5562 4.34375 11.875 6.01875 11.875 8ZM2.66875 2.375L1.875 3.16875L4.83125 6.125H1.875V9.875H4.375L7.5 13V8.79375L10.1562 11.45C9.7375 11.775 9.26875 12.0312 8.75 12.1875V13.475C9.6125 13.2812 10.3938 12.8813 11.0563 12.3438L12.3312 13.625L13.125 12.8312L7.5 7.20625L2.66875 2.375ZM7.5 3L6.19375 4.30625L7.5 5.6125V3Z" fill="#654F4D"/>
</svg>
