<svg width="17" height="17" viewBox="0 0 17 17" fill="none" xmlns="http://www.w3.org/2000/svg">
<path d="M14.293 0.625H2.03422C1.07172 0.625 0.292969 1.4125 0.292969 2.375L0.301719 14.625C0.301719 15.5875 1.08047 16.375 2.04297 16.375H10.793L16.043 11.125V2.375C16.043 1.4125 15.2555 0.625 14.293 0.625ZM4.66797 5H11.668C12.1492 5 12.543 5.39375 12.543 5.875C12.543 6.35625 12.1492 6.75 11.668 6.75H4.66797C4.18672 6.75 3.79297 6.35625 3.79297 5.875C3.79297 5.39375 4.18672 5 4.66797 5ZM7.29297 10.25H4.66797C4.18672 10.25 3.79297 9.85625 3.79297 9.375C3.79297 8.89375 4.18672 8.5 4.66797 8.5H7.29297C7.77422 8.5 8.16797 8.89375 8.16797 9.375C8.16797 9.85625 7.77422 10.25 7.29297 10.25ZM9.91797 15.0625V11.125C9.91797 10.6438 10.3117 10.25 10.793 10.25H14.7305L9.91797 15.0625Z" fill="#F38047"/>
</svg>
