<svg width="20" height="20" viewBox="0 0 20 20" fill="none" xmlns="http://www.w3.org/2000/svg">
<g clip-path="url(#clip0)">
<path d="M16.1723 9.7184L9.71755 16.1731C9.31447 16.5762 8.66086 16.5762 8.25778 16.1731C8.06405 15.9796 7.95534 15.7168 7.95534 15.4429V12.0855L1.76136 5.89153L1.2452 6.40769C0.960065 6.69266 0.498004 6.69266 0.21287 6.40769C-0.0720956 6.12256 -0.0720956 5.6605 0.21287 5.37537L5.37451 0.213724C5.65965 -0.0712414 6.12171 -0.0712414 6.40684 0.213724C6.69181 0.498858 6.69181 0.960919 6.40684 1.24605L5.89068 1.76222L12.0847 7.95619H15.4421C15.7159 7.95619 15.9787 8.0649 16.1723 8.25863C16.5754 8.66171 16.5754 9.31515 16.1723 9.7184Z" fill="#bb1006"/>
<path d="M12.4296 13.462L17.6205 18.6528C18.2769 19.3093 19.0994 19.7749 20 20C19.7749 19.0994 19.3093 18.277 18.6528 17.6205L13.4619 12.4296L12.4296 13.462Z" fill="#CCCCCC"/>
</g>
<defs>
<clipPath id="clip0">
<rect width="20" height="20" fill="white" transform="matrix(-1 0 0 1 20 0)"/>
</clipPath>
</defs>
</svg>
