<svg width="24" height="25" viewBox="0 0 24 25" fill="none" xmlns="http://www.w3.org/2000/svg">
<path d="M16.4599 18.087C14.7236 15.3079 13.8261 12.8018 13.8261 10.7802V10.4146H16.8163V9.61301C16.8122 9.3091 16.7482 9.00938 16.6284 8.73271C16.5086 8.45604 16.3355 8.20841 16.1202 8.00541C15.6568 7.54326 15.1185 7.17185 14.5307 6.90872C14.9647 6.29458 15.2079 5.55478 15.2269 4.79022C15.2319 4.35743 15.1546 3.92795 14.9995 3.52697C14.8444 3.12598 14.6145 2.76157 14.3235 2.45511C14.0325 2.14865 13.6861 1.90632 13.3047 1.74234C12.9233 1.57835 12.5146 1.49601 12.1025 1.50015C11.2437 1.52684 10.4255 1.88973 9.80844 2.51756C9.51404 2.82249 9.28159 3.18698 9.12517 3.58896C8.96874 3.99095 8.89159 4.42208 8.89838 4.85628C8.89494 5.6242 9.1388 6.37079 9.59036 6.97479C8.95788 7.19686 8.38348 7.57088 7.91283 8.06707C7.69719 8.26918 7.52366 8.51592 7.40313 8.79181C7.28261 9.0677 7.21769 9.36678 7.21246 9.67026V10.4763H10.211V10.8418C10.211 12.8855 9.30099 15.2947 7.55635 18.1399C5.26233 18.5803 4.14677 20.0338 4.14258 22.3681V23.4648L19.8569 23.5V22.3989C19.861 20.0646 18.6826 18.6023 16.4599 18.087Z" fill="#FFFBF2"/>
</svg>
