<svg width="25" height="28" viewBox="0 0 25 28" fill="none" xmlns="http://www.w3.org/2000/svg">
<path d="M17 12.2927H18V11.8543L17.6776 11.5573L17 12.2927ZM7.95913 3.00084C7.40731 3.02341 6.97826 3.48905 7.00084 4.04087L7.36865 13.0333C7.39122 13.5852 7.85686 14.0142 8.40868 13.9916C8.96051 13.9691 9.38955 13.5034 9.36698 12.9516L9.04003 4.9583L17.0333 4.63135C17.5852 4.60878 18.0142 4.14314 17.9916 3.59132C17.9691 3.03949 17.5034 2.61045 16.9516 2.63302L7.95913 3.00084ZM18 24V12.2927H16V24H18ZM17.6776 11.5573L8.67762 3.26459L7.32238 4.73541L16.3224 13.0281L17.6776 11.5573Z" fill="#C2352E"/>
</svg>
