<svg version="1.1" id="Layer_1" xmlns="http://www.w3.org/2000/svg" xmlns:xlink="http://www.w3.org/1999/xlink" x="0px" y="0px"
	 width="100%" viewBox="0 0 1080 1080" enable-background="new 0 0 1080 1080" xml:space="preserve">
<path fill="#FFFFFF" opacity="1.000000" stroke="none" 
	d="
M627.000000,1081.000000 
	C418.024048,1081.000000 209.548126,1081.000000 1.036090,1081.000000 
	C1.036090,721.065613 1.036090,361.131195 1.036090,1.098403 
	C360.892853,1.098403 720.785706,1.098403 1080.839355,1.098403 
	C1080.839355,360.999939 1080.839355,720.999939 1080.839355,1081.000000 
	C929.797424,1081.000000 778.648743,1081.000000 627.000000,1081.000000 
M808.500000,1007.034119 
	C822.664368,1007.033997 836.829346,1006.948853 850.992798,1007.064941 
	C859.808655,1007.137207 867.210510,1003.894165 873.550049,998.022827 
	C881.945190,990.247559 884.702576,980.383972 884.696899,969.180969 
	C884.615173,807.356445 884.640991,645.531860 884.640747,483.707306 
	C884.640747,482.707367 884.663757,481.706543 884.630676,480.707611 
	C884.006165,461.860077 872.261536,447.411072 855.061523,445.298859 
	C847.663818,444.390350 840.086853,444.887390 832.590820,444.846436 
	C822.469543,444.791107 812.347778,444.832703 801.742493,444.832703 
	C801.742493,442.532745 801.742493,440.741974 801.742493,438.951202 
	C801.742493,405.453033 802.003052,371.951874 801.623779,338.458008 
	C801.454346,323.494446 800.716003,308.462433 798.995605,293.605103 
	C793.551819,246.593063 776.083862,204.166550 747.334778,166.715729 
	C702.428467,108.217339 643.133118,73.879570 570.047241,63.619320 
	C544.960266,60.097466 519.753174,60.311729 494.832947,64.412956 
	C434.213593,74.389351 382.259338,101.368690 340.606537,146.754898 
	C295.288544,196.134766 270.928009,254.432236 269.910858,321.753906 
	C269.321777,360.743011 269.780792,399.748016 269.768280,438.745850 
	C269.767670,440.671600 269.768219,442.597321 269.768219,444.834198 
	C253.879868,444.834198 238.734451,444.782166 223.589523,444.846497 
	C201.405609,444.940674 187.017822,459.371460 187.017410,481.453278 
	C187.014374,643.944458 187.211395,806.436157 186.783157,968.926208 
	C186.725800,990.693848 202.886749,1007.370544 225.032303,1007.315125 
	C419.187225,1006.829102 613.343872,1007.034058 808.500000,1007.034119 
z"/>
<path fill="#A11311" opacity="1.000000" stroke="none" 
	d="
M808.000000,1007.034119 
	C613.343872,1007.034058 419.187225,1006.829102 225.032303,1007.315125 
	C202.886749,1007.370544 186.725800,990.693848 186.783157,968.926208 
	C187.211395,806.436157 187.014374,643.944458 187.017410,481.453278 
	C187.017822,459.371460 201.405609,444.940674 223.589523,444.846497 
	C238.734451,444.782166 253.879868,444.834198 269.768219,444.834198 
	C269.768219,442.597321 269.767670,440.671600 269.768280,438.745850 
	C269.780792,399.748016 269.321777,360.743011 269.910858,321.753906 
	C270.928009,254.432236 295.288544,196.134766 340.606537,146.754898 
	C382.259338,101.368690 434.213593,74.389351 494.832947,64.412956 
	C519.753174,60.311729 544.960266,60.097466 570.047241,63.619320 
	C643.133118,73.879570 702.428467,108.217339 747.334778,166.715729 
	C776.083862,204.166550 793.551819,246.593063 798.995605,293.605103 
	C800.716003,308.462433 801.454346,323.494446 801.623779,338.458008 
	C802.003052,371.951874 801.742493,405.453033 801.742493,438.951202 
	C801.742493,440.741974 801.742493,442.532745 801.742493,444.832703 
	C812.347778,444.832703 822.469543,444.791107 832.590820,444.846436 
	C840.086853,444.887390 847.663818,444.390350 855.061523,445.298859 
	C872.261536,447.411072 884.006165,461.860077 884.630676,480.707611 
	C884.663757,481.706543 884.640747,482.707367 884.640747,483.707306 
	C884.640991,645.531860 884.615173,807.356445 884.696899,969.180969 
	C884.702576,980.383972 881.945190,990.247559 873.550049,998.022827 
	C867.210510,1003.894165 859.808655,1007.137207 850.992798,1007.064941 
	C836.829346,1006.948853 822.664368,1007.033997 808.000000,1007.034119 
M375.974396,212.481766 
	C351.317993,247.156784 338.603790,285.595001 338.888245,328.315979 
	C339.134583,365.308838 338.940277,402.304565 338.940765,439.299042 
	C338.940796,441.053436 338.940765,442.807831 338.940765,444.495056 
	C470.528290,444.495056 601.409607,444.495056 732.510681,444.495056 
	C732.589233,443.037811 732.704102,441.897369 732.704346,440.756958 
	C732.712952,403.595856 733.072144,366.429352 732.519775,329.276428 
	C732.317749,315.688965 731.035400,301.917816 728.390442,288.598938 
	C711.635742,204.228043 641.547485,140.217209 557.615540,131.997787 
	C482.637268,124.655197 422.266998,152.307953 375.974396,212.481766 
M607.964722,667.654358 
	C607.685669,666.696472 607.418701,665.734802 607.125916,664.781189 
	C598.742310,637.475281 580.947937,619.251160 553.212830,612.576904 
	C525.371094,605.877014 500.484589,613.108643 480.915222,634.348328 
	C448.672913,669.342529 456.317841,722.749451 496.815216,748.216003 
	C500.060211,750.256653 501.203674,752.306641 501.180542,756.108032 
	C501.007294,784.591736 500.979584,813.077515 501.128998,841.561523 
	C501.227112,860.263123 514.997620,875.244202 532.806824,876.489746 
	C553.548096,877.940369 570.075195,862.651978 570.233643,841.375793 
	C570.443298,813.225708 570.388794,785.072266 570.183350,756.922180 
	C570.151672,752.584534 571.426331,750.193787 575.146301,747.815125 
	C602.736023,730.173096 615.391296,699.362549 607.964722,667.654358 
z"/>
<path fill="#FFFFFF" opacity="1.000000" stroke="none" 
	d="
M376.178406,212.187744 
	C422.266998,152.307953 482.637268,124.655197 557.615540,131.997787 
	C641.547485,140.217209 711.635742,204.228043 728.390442,288.598938 
	C731.035400,301.917816 732.317749,315.688965 732.519775,329.276428 
	C733.072144,366.429352 732.712952,403.595856 732.704346,440.756958 
	C732.704102,441.897369 732.589233,443.037811 732.510681,444.495056 
	C601.409607,444.495056 470.528290,444.495056 338.940765,444.495056 
	C338.940765,442.807831 338.940796,441.053436 338.940765,439.299042 
	C338.940277,402.304565 339.134583,365.308838 338.888245,328.315979 
	C338.603790,285.595001 351.317993,247.156784 376.178406,212.187744 
z"/>
<path fill="#FFFEFE" opacity="1.000000" stroke="none" 
	d="
M608.031372,668.069031 
	C615.391296,699.362549 602.736023,730.173096 575.146301,747.815125 
	C571.426331,750.193787 570.151672,752.584534 570.183350,756.922180 
	C570.388794,785.072266 570.443298,813.225708 570.233643,841.375793 
	C570.075195,862.651978 553.548096,877.940369 532.806824,876.489746 
	C514.997620,875.244202 501.227112,860.263123 501.128998,841.561523 
	C500.979584,813.077515 501.007294,784.591736 501.180542,756.108032 
	C501.203674,752.306641 500.060211,750.256653 496.815216,748.216003 
	C456.317841,722.749451 448.672913,669.342529 480.915222,634.348328 
	C500.484589,613.108643 525.371094,605.877014 553.212830,612.576904 
	C580.947937,619.251160 598.742310,637.475281 607.125916,664.781189 
	C607.418701,665.734802 607.685669,666.696472 608.031372,668.069031 
z"/>
</svg>