<svg width="21px" height="21px" viewBox="0 0 22 21" fill="none" xmlns="http://www.w3.org/2000/svg">
<path d="M19.25 10H17.75V6C17.75 4.9 16.85 4 15.75 4H11.75V2.5C11.75 1.12 10.63 0 9.25 0C7.87 0 6.75 1.12 6.75 2.5V4H2.75C1.65 4 0.76 4.9 0.76 6V9.8H2.25C3.74 9.8 4.95 11.01 4.95 12.5C4.95 13.99 3.74 15.2 2.25 15.2H0.75V19C0.75 20.1 1.65 21 2.75 21H6.55V19.5C6.55 18.01 7.76 16.8 9.25 16.8C10.74 16.8 11.95 18.01 11.95 19.5V21H15.75C16.85 21 17.75 20.1 17.75 19V15H19.25C20.63 15 21.75 13.88 21.75 12.5C21.75 11.12 20.63 10 19.25 10Z" fill="#654F4D" />
</svg>
