<svg width="30" height="30" viewBox="0 0 30 30" fill="none" xmlns="http://www.w3.org/2000/svg">
<path d="M26.75 16.961L24.9247 16.4067L26.4029 11.5393C26.8094 10.2008 26.0468 8.77302 24.7082 8.36653L19.8408 6.88838L20.3951 5.0631C20.9051 3.38385 19.9561 1.60709 18.2768 1.09713C16.5976 0.587164 14.8208 1.53616 14.3109 3.21541L13.7566 5.04069L8.88915 3.56254C7.55061 3.15605 6.13503 3.92233 5.72854 5.26087L4.32429 9.88491L6.1374 10.4355C7.95051 10.9861 8.97576 12.9057 8.42515 14.7188C7.87454 16.5319 5.95501 17.5571 4.1419 17.0065L2.31662 16.4522L0.912375 21.0763C0.505883 22.4148 1.26847 23.8425 2.607 24.249L7.23104 25.6533L7.78535 23.828C8.33596 22.0149 10.2555 20.9896 12.0686 21.5402C13.8817 22.0909 14.907 24.0104 14.3564 25.8235L13.802 27.6488L18.4261 29.053C19.7646 29.4595 21.1924 28.6969 21.5989 27.3584L23.077 22.491L24.9023 23.0453C26.5816 23.5553 28.3583 22.6063 28.8683 20.927C29.3782 19.2477 28.4292 17.471 26.75 16.961Z" fill="#C2352E"/>
</svg>
