<svg width="276" height="70" viewBox="0 0 276 70" fill="none" xmlns="http://www.w3.org/2000/svg">
<path fill-rule="evenodd" clip-rule="evenodd" d="M21.5594 59.3164L14.244 60.7013L11.2523 67.5092L7.67923 60.9867L0.279297 60.2361L5.37468 54.8236L3.79955 47.5611L10.5229 50.7325L16.9503 46.9902L16.0094 54.3585L21.5594 59.3164Z" fill="#FF4150"/>
<path fill-rule="evenodd" clip-rule="evenodd" d="M255.28 56.3164L247.965 57.7013L244.973 64.5092L241.4 57.9867L234 57.2361L239.095 51.8236L237.52 44.5611L244.244 47.7325L250.671 43.9902L249.73 51.3585L255.28 56.3164Z" fill="#FF4150"/>
<path fill-rule="evenodd" clip-rule="evenodd" d="M173 17.0216L175.505 13.1208L173.719 8.83941L178.201 10.0234L181.721 7L181.986 11.6302L185.95 14.0405L181.626 15.7213L180.558 20.2459L177.62 16.6516L173 17.0216Z" fill="#FF4150"/>
<path fill-rule="evenodd" clip-rule="evenodd" d="M55 15.3396L59.1122 11.0899L57.9494 5.28623L63.2562 7.88678L68.415 4.99023L67.5799 10.8468L71.9353 14.8533L66.1105 15.8681L63.6474 21.2489L60.8777 16.0161L55 15.3396Z" fill="#FF4150"/>
<path fill-rule="evenodd" clip-rule="evenodd" d="M217 23.2922L220.045 19.5711L218.702 14.9514L223.184 16.6957L227.17 14L226.895 18.7994L230.69 21.7488L226.038 22.9645L224.41 27.489L221.81 23.4508L217 23.2922Z" fill="#FF4150"/>
<path fill-rule="evenodd" clip-rule="evenodd" d="M11.8484 23.3499L9.17382 23.3393L7.65155 25.5276L6.83756 22.9905L4.2793 22.2188L6.44642 20.6542L6.39356 17.9902L8.55011 19.5654L11.0661 18.6879L10.231 21.2251L11.8484 23.3499Z" fill="#FF4150"/>
<path fill-rule="evenodd" clip-rule="evenodd" d="M131.241 8.24975L128.939 6.92426L126.543 8.06464L127.098 5.46934L125.274 3.54999L127.917 3.26962L129.176 0.933461L130.262 3.35544L132.869 3.84681L130.9 5.6195L131.241 8.24975Z" fill="#FF4150"/>
<path fill-rule="evenodd" clip-rule="evenodd" d="M213.091 33.6111L211.664 33.7274L210.945 34.9642L210.406 33.6428L209 33.3468L210.089 32.4166L209.941 31L211.167 31.74L212.467 31.1586L212.129 32.554L213.091 33.6111Z" fill="#FF4150"/>
<path fill-rule="evenodd" clip-rule="evenodd" d="M227.929 68.6014L226.502 68.7176L225.783 69.9545L225.244 68.6331L223.838 68.3371L224.927 67.4068L224.779 65.9902L226.005 66.7302L227.305 66.1488L226.967 67.5442L227.929 68.6014Z" fill="#FF4150"/>
<path d="M31.7501 59.7208C31.7501 59.9596 31.6791 60.193 31.5462 60.3914C31.4134 60.5898 31.2245 60.7443 31.0037 60.8352C30.7829 60.9261 30.54 60.9493 30.3059 60.9019C30.0719 60.8546 29.8572 60.7387 29.6891 60.5691C29.521 60.3995 29.407 60.1838 29.3617 59.9494C29.3164 59.7149 29.3418 59.4723 29.4346 59.2522C29.5275 59.0322 29.6836 58.8448 29.8832 58.7136C30.0827 58.5825 30.3168 58.5136 30.5555 58.5157C30.8733 58.5185 31.1772 58.6467 31.4009 58.8724C31.6246 59.0981 31.7501 59.403 31.7501 59.7208Z" fill="#3D3D3D"/>
<path d="M101.268 10.2778C102.26 10.2778 103.065 9.47325 103.065 8.48072C103.065 7.48819 102.26 6.68359 101.268 6.68359C100.275 6.68359 99.4707 7.48819 99.4707 8.48072C99.4707 9.47325 100.275 10.2778 101.268 10.2778Z" fill="#3D3D3D"/>
<path d="M188.474 60.5024C188.474 60.7115 188.412 60.9159 188.295 61.0898C188.179 61.2636 188.014 61.3991 187.821 61.4791C187.628 61.5591 187.415 61.5801 187.21 61.5393C187.005 61.4985 186.817 61.3978 186.669 61.25C186.521 61.1021 186.42 60.9137 186.38 60.7087C186.339 60.5036 186.36 60.2911 186.44 60.0979C186.52 59.9047 186.655 59.7396 186.829 59.6235C187.003 59.5073 187.207 59.4453 187.416 59.4453C187.697 59.4453 187.966 59.5567 188.164 59.7549C188.362 59.9532 188.474 60.2221 188.474 60.5024Z" fill="#3D3D3D"/>
<path d="M65.6104 34.4019C65.6104 34.6109 65.5484 34.8153 65.4322 34.9892C65.316 35.163 65.1509 35.2985 64.9578 35.3785C64.7646 35.4585 64.5521 35.4795 64.347 35.4387C64.1419 35.3979 63.9536 35.2972 63.8057 35.1494C63.6579 35.0015 63.5572 34.8132 63.5164 34.6081C63.4756 34.403 63.4965 34.1905 63.5766 33.9973C63.6566 33.8041 63.7921 33.639 63.9659 33.5229C64.1398 33.4067 64.3441 33.3447 64.5532 33.3447C64.8336 33.3447 65.1025 33.4561 65.3007 33.6544C65.499 33.8526 65.6104 34.1215 65.6104 34.4019Z" fill="#3D3D3D"/>
<path d="M23.1585 22.562C24.151 22.562 24.9556 21.7574 24.9556 20.7649C24.9556 19.7724 24.151 18.9678 23.1585 18.9678C22.1659 18.9678 21.3613 19.7724 21.3613 20.7649C21.3613 21.7574 22.1659 22.562 23.1585 22.562Z" fill="#3D3D3D"/>
<path d="M275.72 63.3856C275.722 63.6642 275.642 63.937 275.488 64.1696C275.335 64.4022 275.116 64.5841 274.86 64.6921C274.603 64.8002 274.32 64.8295 274.046 64.7765C273.773 64.7234 273.521 64.5904 273.324 64.3941C273.126 64.1979 272.991 63.9474 272.936 63.6744C272.881 63.4014 272.908 63.1182 273.014 62.8606C273.12 62.6031 273.3 62.3829 273.532 62.2279C273.763 62.073 274.036 61.9902 274.314 61.9902C274.685 61.9902 275.041 62.1369 275.305 62.3983C275.568 62.6597 275.717 63.0146 275.72 63.3856Z" fill="#3D3D3D"/>
</svg>
