<svg width="24" height="25" viewBox="0 0 24 25" fill="none" xmlns="http://www.w3.org/2000/svg">
<path d="M20.5 11.5H19V7.5C19 6.4 18.1 5.5 17 5.5H13V4C13 2.62 11.88 1.5 10.5 1.5C9.12 1.5 8 2.62 8 4V5.5H4C2.9 5.5 2.01 6.4 2.01 7.5V11.3H3.5C4.99 11.3 6.2 12.51 6.2 14C6.2 15.49 4.99 16.7 3.5 16.7H2V20.5C2 21.6 2.9 22.5 4 22.5H7.8V21C7.8 19.51 9.01 18.3 10.5 18.3C11.99 18.3 13.2 19.51 13.2 21V22.5H17C18.1 22.5 19 21.6 19 20.5V16.5H20.5C21.88 16.5 23 15.38 23 14C23 12.62 21.88 11.5 20.5 11.5Z" fill="#FFFBF2"/>
</svg>
