<svg width="50" height="50" viewBox="0 0 50 50" fill="none" xmlns="http://www.w3.org/2000/svg">
<path d="M43.8346 23.4073H40.3346V14.074C40.3346 11.5073 38.2346 9.40731 35.668 9.40731H26.3346V5.90731C26.3346 2.68731 23.7213 0.0739746 20.5013 0.0739746C17.2813 0.0739746 14.668 2.68731 14.668 5.90731V9.40731H5.33464C2.76797 9.40731 0.691302 11.5073 0.691302 14.074V22.9406H4.16797C7.64464 22.9406 10.468 25.764 10.468 29.2406C10.468 32.7173 7.64464 35.5406 4.16797 35.5406H0.667969V44.4073C0.667969 46.974 2.76797 49.074 5.33464 49.074H14.2013V45.574C14.2013 42.0973 17.0246 39.274 20.5013 39.274C23.978 39.274 26.8013 42.0973 26.8013 45.574V49.074H35.668C38.2346 49.074 40.3346 46.974 40.3346 44.4073V35.074H43.8346C47.0546 35.074 49.668 32.4606 49.668 29.2406C49.668 26.0206 47.0546 23.4073 43.8346 23.4073Z" fill="#C2352E"/>
</svg>
