<svg width="48" height="48" viewBox="0 0 60 62" fill="none" xmlns="http://www.w3.org/2000/svg">
<g filter="url(#filter0_ii_1711_40)">
<circle cx="30" cy="32" r="30" fill="#C2352E"/>
</g>
<path d="M23.8 39.36C21.28 41.88 16.4 45.04 12.36 46.88C13.04 47.44 14.04 48.48 14.44 49.04C18.48 47.08 23.32 43.96 26.6 41.16L23.8 39.36ZM33.48 41.32C37.36 43.52 42.44 46.84 44.92 48.88L47.24 46.64C44.6 44.56 39.44 41.44 35.64 39.4L33.48 41.32ZM22.04 26.08H35.6V35.36H22.04V26.08ZM38.56 35.36V26.08H45.68V23.28H22.04V17.64C29.52 17.28 37.92 16.48 43.64 15.4L42.08 12.68C36.48 13.88 26.92 14.68 19.04 15.08V35.36H12.16V38.2H47.92V35.36H38.56Z" fill="#FFFBF2"/>
<defs>
<filter id="filter0_ii_1711_40" x="0" y="0" width="60" height="64" filterUnits="userSpaceOnUse" color-interpolation-filters="sRGB">
<feFlood flood-opacity="0" result="BackgroundImageFix"/>
<feBlend mode="normal" in="SourceGraphic" in2="BackgroundImageFix" result="shape"/>
<feColorMatrix in="SourceAlpha" type="matrix" values="0 0 0 0 0 0 0 0 0 0 0 0 0 0 0 0 0 0 127 0" result="hardAlpha"/>
<feOffset dy="-2"/>
<feGaussianBlur stdDeviation="2"/>
<feComposite in2="hardAlpha" operator="arithmetic" k2="-1" k3="1"/>
<feColorMatrix type="matrix" values="0 0 0 0 0 0 0 0 0 0 0 0 0 0 0 0 0 0 0.5 0"/>
<feBlend mode="normal" in2="shape" result="effect1_innerShadow_1711_40"/>
<feColorMatrix in="SourceAlpha" type="matrix" values="0 0 0 0 0 0 0 0 0 0 0 0 0 0 0 0 0 0 127 0" result="hardAlpha"/>
<feOffset dy="2"/>
<feGaussianBlur stdDeviation="2"/>
<feComposite in2="hardAlpha" operator="arithmetic" k2="-1" k3="1"/>
<feColorMatrix type="matrix" values="0 0 0 0 1 0 0 0 0 1 0 0 0 0 1 0 0 0 0.4 0"/>
<feBlend mode="normal" in2="effect1_innerShadow_1711_40" result="effect2_innerShadow_1711_40"/>
</filter>
</defs>
</svg>
