<svg width="15" height="17" viewBox="0 0 15 17" fill="none" xmlns="http://www.w3.org/2000/svg">
<path d="M7.49986 3.16667V0.841667C7.49986 0.466667 7.04986 0.283333 6.79153 0.55L3.62486 3.70833C3.45819 3.875 3.45819 4.13333 3.62486 4.3L6.78319 7.45833C7.04986 7.71667 7.49986 7.53333 7.49986 7.15833V4.83333C10.6082 4.83333 13.0665 7.68333 12.3832 10.9083C11.9915 12.8 10.4582 14.325 8.57486 14.7167C5.59986 15.3417 2.94986 13.3 2.54986 10.5417C2.49153 10.1417 2.14153 9.83333 1.73319 9.83333C1.23319 9.83333 0.833194 10.275 0.899861 10.775C1.41653 14.4333 4.89986 17.1417 8.84153 16.375C11.4415 15.8667 13.5332 13.775 14.0415 11.175C14.8665 6.9 11.6165 3.16667 7.49986 3.16667Z" fill="#C2352E"/>
</svg>
