<svg width="22" height="27" viewBox="0 0 22 27" fill="none" xmlns="http://www.w3.org/2000/svg">
<path d="M11.0017 4.67959L11.0014 0.959595C11.0013 0.359595 10.2813 0.0663139 9.86802 0.493011L4.80172 5.54672C4.53508 5.8134 4.53511 6.22674 4.80179 6.49338L9.8555 11.5463C10.2822 11.9596 11.0022 11.6663 11.0021 11.0663L11.0019 7.34626C15.9752 7.3459 19.9089 11.9056 18.8159 17.0657C18.1895 20.0924 15.7363 22.5326 12.723 23.1595C7.96309 24.1598 3.72285 20.8935 3.08253 16.4802C2.98915 15.8402 2.42911 15.3469 1.77578 15.3469C0.975776 15.347 0.335828 16.0537 0.442553 16.8537C1.26965 22.707 6.8433 27.0399 13.1499 25.8128C17.3098 24.9991 20.6562 21.6522 21.4693 17.4922C22.7888 10.6521 17.5883 4.67911 11.0017 4.67959Z" fill="#C2352E"/>
</svg>
