
<svg width="17" height="17" viewBox="0 0 17 17" fill="none" xmlns="http://www.w3.org/2000/svg">
<path fill-rule="evenodd" clip-rule="evenodd" d="M11.5427 10.8775H12.2764L16.2142 14.8316C16.595 15.2121 16.595 15.834 16.2142 16.2146C15.8335 16.5952 15.2112 16.5952 14.8304 16.2146L10.8833 12.2698V11.5365L10.6325 11.2766C9.33226 12.3904 7.55836 12.9659 5.67301 12.6503C3.09111 12.2141 1.02929 10.0606 0.713522 7.46168C0.230576 3.5354 3.5369 0.231014 7.46549 0.713678C10.066 1.02927 12.2207 3.08987 12.6572 5.67026C12.9729 7.5545 12.3971 9.32736 11.2826 10.6268L11.5427 10.8775ZM2.52457 6.70056C2.52457 9.01178 4.39135 10.8775 6.70392 10.8775C9.01649 10.8775 10.8833 9.01178 10.8833 6.70056C10.8833 4.38935 9.01649 2.52367 6.70392 2.52367C4.39135 2.52367 2.52457 4.38935 2.52457 6.70056ZM3.1665 6.64931C3.19771 4.73991 4.7397 3.19788 6.64915 3.16669V6.64931H3.1665ZM10.2498 6.76739C10.2186 8.67679 8.67664 10.2188 6.76719 10.25V6.76739H10.2498Z" fill="#FFFBF2"/>
</svg>
