<svg xmlns="http://www.w3.org/2000/svg" width="339" height="310" fill="none"><path fill="#EDE6DE" d="M159.846 309.498c88.28 0 159.846-20.483 159.846-45.749 0-25.266-71.566-45.749-159.846-45.749S0 238.483 0 263.749c0 25.266 71.565 45.749 159.846 45.749Z"/><g filter="url(#a)"><path fill="#F6F1E8" d="m194.023 13 135.146 100.895-113.66 152.243L80.363 165.244z"/><g clip-path="url(#b)"><path fill="#B7A3A8" d="M106.447 167.67a.905.905 0 0 1-.335-.476.72.72 0 0 1 .093-.594l.429.32a.32.32 0 0 0-.035.218.315.315 0 0 0 .131.193c.142.106.301.102.476-.013.096-.063.21-.175.342-.335-.076.02-.146.027-.21.02a.713.713 0 0 1-.352-.15.847.847 0 0 1-.33-.526c-.045-.222.018-.446.187-.673.175-.235.384-.375.628-.419a.863.863 0 0 1 .693.176c.333.249.452.567.355.955-.054.22-.183.467-.387.74-.198.265-.397.461-.597.588-.381.241-.744.233-1.088-.024Zm1.231-1.965c-.131.003-.254.081-.369.236-.097.13-.144.247-.14.352.005.104.063.197.172.279.06.045.129.069.207.074.144.011.274-.061.389-.215a.57.57 0 0 0 .132-.361.356.356 0 0 0-.156-.286.369.369 0 0 0-.235-.079ZM118.918 176.669a.813.813 0 0 1 .162-.611.842.842 0 0 1 .333-.272.668.668 0 0 1 .415-.042.638.638 0 0 1-.037-.383.801.801 0 0 1 .126-.266.668.668 0 0 1 .483-.272c.204-.024.416.046.635.21.218.163.346.346.381.548a.665.665 0 0 1-.124.541.774.774 0 0 1-.221.195.536.536 0 0 1-.364.06.765.765 0 0 1 .064.422.851.851 0 0 1-.168.395.779.779 0 0 1-.558.318c-.232.028-.471-.05-.716-.233s-.382-.386-.411-.61Zm.631-.306a.444.444 0 0 0-.104.313.383.383 0 0 0 .166.263.37.37 0 0 0 .298.083.432.432 0 0 0 .272-.187c.084-.112.118-.218.104-.319a.381.381 0 0 0-.165-.259.387.387 0 0 0-.296-.085c-.1.016-.191.079-.275.191Zm.671-.662c.011.086.06.162.146.227.088.065.175.09.259.075a.338.338 0 0 0 .219-.141.339.339 0 0 0 .078-.256c-.01-.085-.059-.16-.147-.226a.349.349 0 0 0-.259-.078.342.342 0 0 0-.224.148.337.337 0 0 0-.072.251ZM133.894 185.747a3.787 3.787 0 0 0-.665.29c-.163.09-.343.215-.539.374-.196.16-.341.303-.435.429l-.448-.334c.307-.384.741-.696 1.302-.937.355-.145.625-.23.809-.254l-1.093-.816.295-.382 1.548 1.155-.252.337a3.568 3.568 0 0 0-.522.138ZM146.304 195.112a.78.78 0 0 1 .329.554.882.882 0 0 1-.19.647 1.07 1.07 0 0 1-.587.404c-.239.066-.487.002-.744-.19-.276-.206-.393-.473-.352-.802.033-.256.156-.527.369-.812.125-.168.233-.298.326-.393.164-.167.329-.286.494-.356a.94.94 0 0 1 .436-.072.82.82 0 0 1 .436.175c.204.152.327.325.37.52a.74.74 0 0 1-.107.569l-.429-.321a.272.272 0 0 0 .046-.147c.005-.103-.04-.19-.133-.26-.14-.104-.299-.1-.476.013a1.826 1.826 0 0 0-.353.334.605.605 0 0 1 .29 0 .779.779 0 0 1 .275.137Zm-.598.194c-.133.002-.255.077-.364.223a.536.536 0 0 0-.12.36.38.38 0 0 0 .158.292.333.333 0 0 0 .306.061.563.563 0 0 0 .293-.219c.095-.128.137-.249.125-.363a.371.371 0 0 0-.153-.275.384.384 0 0 0-.245-.079ZM158.808 204.967a.481.481 0 0 0-.151-.082.333.333 0 0 0-.253.02l-.373-.307 1.058-1.096 1.208.902-.273.366-.897-.669-.436.42c.099.006.172.016.22.03.08.024.165.069.254.136a.85.85 0 0 1 .338.537c.044.223-.02.451-.194.684a1.048 1.048 0 0 1-.601.397c-.248.062-.502-.004-.761-.197-.209-.156-.339-.34-.389-.552-.051-.212-.007-.426.132-.643l.429.321a.521.521 0 0 0-.064.291c.011.086.062.164.155.233.107.08.216.103.327.07a.573.573 0 0 0 .297-.221.616.616 0 0 0 .132-.341c.006-.117-.047-.217-.158-.299ZM172.26 215.448l-.251.337-.248-.185-.353.472-.421-.315.352-.472-.868-.647.281-.377 1.799-.729.484.362-1.023 1.369.248.185Zm-1.218-.909.549.409.706-.946-1.255.537ZM184.815 223.345a.514.514 0 0 0-.262.207l-.402-.3c.085-.106.181-.195.287-.268a.858.858 0 0 1 .343-.113.71.71 0 0 1 .29.032c.097.03.203.088.316.172.209.157.338.337.384.542a.668.668 0 0 1-.131.579.602.602 0 0 1-.359.241.482.482 0 0 1-.236.001c.04.029.071.105.094.227.034.184-.015.364-.147.541a.88.88 0 0 1-.559.345c-.233.045-.475-.027-.727-.215-.31-.232-.45-.494-.42-.787.017-.156.087-.323.21-.503l.423.316a.626.626 0 0 0-.12.25c-.026.145.029.269.168.372a.392.392 0 0 0 .285.078c.107-.011.201-.071.282-.179.108-.145.121-.284.04-.42a1.093 1.093 0 0 0-.284-.276l.231-.308c.141.102.249.162.323.178.128.029.24-.021.336-.15a.358.358 0 0 0 .078-.259c-.009-.089-.058-.166-.147-.232-.102-.076-.2-.1-.296-.071ZM198.167 233.328c-.005-.1-.056-.186-.152-.257-.131-.098-.256-.116-.377-.053a.916.916 0 0 0-.249.233l-.419-.313c.147-.181.293-.307.439-.376.278-.133.564-.09.857.129.232.173.368.375.409.606.042.231-.017.452-.175.663a.853.853 0 0 1-.468.324 1.757 1.757 0 0 1-.521.046l-.264-.006a4.096 4.096 0 0 0-.346.001.568.568 0 0 0-.189.045l.957.714-.284.379-1.501-1.12c.121-.155.262-.273.423-.356.171-.1.431-.146.782-.139.305.006.509.001.613-.017a.563.563 0 0 0 .37-.214.433.433 0 0 0 .095-.289ZM209.834 244.756l-.441-.329 1.128-1.512-.515-.385.219-.293c.14.095.242.157.306.186.101.045.2.06.297.043a.479.479 0 0 0 .202-.094.426.426 0 0 0 .082-.075l.358.267-1.636 2.192ZM191.646 38.159l-.821-.613-.496.343-.487-.364 2.459-1.634.526.392-.874 2.818-.505-.377.198-.565Zm.157-.481.376-1.085-.941.663.565.422ZM181.416 51.264l-1.01-.754 1.663-2.228 1.083.808c.27.208.404.431.403.67a.7.7 0 0 1-.151.417.624.624 0 0 1-.348.252.663.663 0 0 1-.264 0c.083.127.12.256.11.389a.722.722 0 0 1-.156.392.805.805 0 0 1-.365.28.767.767 0 0 1-.627-.02 1.888 1.888 0 0 1-.338-.206Zm.721-.99-.554-.413-.444.594.547.408a.674.674 0 0 0 .258.131c.135.026.253-.03.356-.167.086-.116.098-.231.035-.346a.732.732 0 0 0-.198-.206Zm.549-.251c.087.008.166-.034.236-.128.078-.104.089-.202.033-.296a1.059 1.059 0 0 0-.24-.233l-.49-.366-.367.492.547.408a.571.571 0 0 0 .281.123ZM172.497 64.373c-.28.028-.549-.055-.808-.248-.321-.24-.496-.53-.526-.873-.029-.343.09-.695.359-1.055.29-.389.619-.61.984-.666.319-.047.618.033.898.242.375.28.558.608.547.983a.992.992 0 0 1-.156.531l-.465-.348a.805.805 0 0 0 .064-.328c-.013-.16-.102-.302-.268-.427a.584.584 0 0 0-.555-.093c-.199.063-.392.22-.578.47-.187.25-.276.475-.266.677a.612.612 0 0 0 .256.48c.163.122.327.162.493.119a.87.87 0 0 0 .311-.17l.461.344a1.252 1.252 0 0 1-.751.362ZM162.163 76.941l-.96-.717 1.663-2.228.96.717c.137.105.24.207.309.306a.914.914 0 0 1 .168.566 1.235 1.235 0 0 1-.109.478 2.17 2.17 0 0 1-.234.4c-.221.297-.468.503-.74.62-.368.157-.721.11-1.057-.142Zm1.585-1.401c.019-.175-.077-.34-.289-.499l-.429-.32-1.086 1.454.429.32c.22.164.454.17.702.018.137-.083.266-.207.389-.371.169-.227.264-.428.284-.602ZM153.875 89.27l-1.082-.808-.428.573 1.234.921-.299.4-1.689-1.26 1.664-2.228 1.634 1.22-.295.394-1.179-.88-.353.473 1.082.808-.289.387ZM144.937 101.304l-1.117-.834-.383.513.978.73-.289.387-.978-.73-.697.934-.463-.345 1.661-2.225 1.58 1.179-.292.391ZM133.802 115.774a1.072 1.072 0 0 1-.539-.226 1.176 1.176 0 0 1-.496-.848c-.043-.353.068-.707.335-1.064.269-.361.584-.576.945-.645.362-.07.705.017 1.032.261.283.212.457.453.52.725a.993.993 0 0 1-.104.758l-.458-.342a.545.545 0 0 0-.021-.512.782.782 0 0 0-.218-.24.692.692 0 0 0-.595-.127c-.216.049-.425.21-.628.482-.205.274-.287.515-.247.722.039.207.139.37.298.489a.686.686 0 0 0 .485.152.73.73 0 0 0 .449-.217l-.515-.385.278-.372.928.693-.893 1.196-.308-.23.16-.314a1.33 1.33 0 0 1-.408.044ZM124.129 128.661l.743-.995-.871-.65-.742.995-.462-.344 1.664-2.228.461.344-.634.849.871.65.634-.849.463.345-1.664 2.229-.463-.346ZM114.807 138.285l.462.346-1.663 2.228-.463-.345 1.664-2.229ZM104.877 153.326l1.164-1.558.465.347-1.158 1.552c-.141.189-.286.315-.434.377-.251.104-.521.049-.81-.167-.29-.216-.427-.437-.413-.661.015-.226.12-.47.315-.732l.039-.052.44.329-.039.051c-.124.175-.196.311-.216.406-.017.095.029.184.14.267.11.082.211.098.304.048a.756.756 0 0 0 .203-.207Z"/><path stroke="#664F4C" stroke-width=".241" d="m212.318 52.97-12.9-9.632-9.631 12.9 12.9 9.632 9.631-12.9Z"/><path stroke="#664F4C" stroke-width=".241" d="m225.17 62.564-12.9-9.631-9.632 12.9 12.901 9.632 9.631-12.901Z"/><path stroke="#664F4C" stroke-width=".241" d="m202.701 65.854-12.9-9.631-9.631 12.9 12.9 9.631 9.631-12.9Z"/><path stroke="#664F4C" stroke-width=".241" d="m215.553 75.448-12.901-9.631-9.631 12.9 12.901 9.631 9.631-12.9Z"/><path stroke="#664F4C" stroke-width=".241" d="m193.111 78.7-12.9-9.632-9.631 12.9 12.9 9.632 9.631-12.9Z"/><path stroke="#664F4C" stroke-width=".241" d="m205.959 88.294-12.9-9.63-9.631 12.9 12.9 9.631 9.631-12.9Z"/><path stroke="#664F4C" stroke-width=".241" d="m183.49 91.583-12.9-9.631-9.631 12.9 12.9 9.631 9.631-12.9Z"/><path stroke="#664F4C" stroke-width=".241" d="m196.342 101.178-12.901-9.631-9.631 12.9 12.901 9.631 9.631-12.9Z"/><path stroke="#664F4C" stroke-width=".241" d="M263.965 171.742 160.969 94.849l-9.602 12.86 102.997 76.894 9.601-12.861Z"/><path fill="#B7A3A8" d="m235.509 160.815-.152 1.378.441.329.197-1.905 1.671-.705-.439-.328-1.179.51.153-1.276-.441-.329-.199 1.804-1.77.73.439.328 1.279-.536Zm.525 1.883.39.291 1.92-2.571-.39-.291-1.92 2.571Zm2.074.115 1.211-.846.007.005-.467 1.402-.751-.561Zm.374 1.713.411.307.985-3.27-.326-.243-2.855 1.873.413.309.627-.428.975.728-.23.724Zm.688.513.39.291 1.364-1.827.007.006-.202 2.694.369.276 1.92-2.572-.39-.291-1.364 1.827-.007-.005.2-2.696-.367-.274-1.92 2.571Zm4.089 1.422.524.391-.1.134a.673.673 0 0 1-.443.276.618.618 0 0 1-.491-.125.568.568 0 0 1-.193-.235.549.549 0 0 1-.066-.249.529.529 0 0 1 .061-.292c.048-.104.166-.282.355-.535.189-.253.327-.418.414-.495a.532.532 0 0 1 .26-.139.612.612 0 0 1 .538.111c.123.095.202.21.237.344a.712.712 0 0 1-.024.394l.412.308c.12-.246.156-.5.108-.763-.048-.261-.196-.485-.442-.673a1.102 1.102 0 0 0-.614-.233 1.11 1.11 0 0 0-.537.093.9.9 0 0 0-.269.181c-.094.088-.252.281-.475.58-.219.294-.359.499-.418.616a.885.885 0 0 0-.099.313c-.027.165-.005.345.065.538.065.195.197.37.396.526.265.191.549.265.851.221.302-.046.551-.196.748-.45l.391-.524-.914-.682-.275.369Zm2.049 2.447a.542.542 0 0 1-.355-.125.575.575 0 0 1-.193-.235.579.579 0 0 1-.066-.249.53.53 0 0 1 .062-.292c.048-.104.166-.282.355-.535.188-.253.326-.418.414-.495a.532.532 0 0 1 .26-.139.612.612 0 0 1 .538.111c.091.071.158.15.2.235a.564.564 0 0 1 .057.248.565.565 0 0 1-.055.291 4.1 4.1 0 0 1-.36.537c-.202.271-.349.441-.438.51l-.122-.462-.43.094.133.506Zm.128.494.13.503.431-.095-.137-.523a.853.853 0 0 0 .26-.19c.091-.097.236-.279.435-.546.223-.299.365-.505.425-.617a.741.741 0 0 0 .093-.312c.029-.164.01-.343-.056-.537a1.121 1.121 0 0 0-.403-.526 1.102 1.102 0 0 0-.614-.233 1.11 1.11 0 0 0-.537.093.904.904 0 0 0-.27.181c-.093.088-.251.281-.474.58a5.476 5.476 0 0 0-.419.616.947.947 0 0 0-.099.313 1.08 1.08 0 0 0 .066.538c.065.195.197.37.395.526.257.184.515.26.774.229Zm.616.775.39.291 1.92-2.571-.39-.291-1.92 2.571Zm.908.679.369.275.275-.369-.368-.275-.276.369Zm2.749.931c-.283.153-.533.148-.752-.015a.568.568 0 0 1-.193-.235.579.579 0 0 1-.066-.249.538.538 0 0 1 .061-.292c.048-.104.167-.282.355-.535.189-.253.327-.418.414-.495a.536.536 0 0 1 .26-.139.614.614 0 0 1 .538.111.64.64 0 0 1 .238.344.712.712 0 0 1-.025.394l.413.308c.119-.246.155-.5.108-.763-.049-.261-.196-.485-.443-.673a1.099 1.099 0 0 0-.614-.233 1.11 1.11 0 0 0-.537.093.9.9 0 0 0-.269.181c-.093.088-.251.281-.474.58-.22.294-.359.499-.419.616a.873.873 0 0 0-.099.313c-.026.165-.005.345.065.538.065.195.197.37.396.526.223.167.464.248.722.243.255-.01.499-.113.734-.31l-.413-.308Zm1.024-.117c-.219.294-.359.499-.418.616a.885.885 0 0 0-.099.313c-.027.165-.005.345.065.538.065.195.197.37.396.526.208.148.415.226.622.234.203.01.378-.022.527-.096.09-.03.182-.09.275-.181.093-.092.249-.285.468-.579.223-.299.365-.505.425-.617a.737.737 0 0 0 .093-.312c.029-.164.01-.343-.055-.536a1.128 1.128 0 0 0-.404-.527 1.102 1.102 0 0 0-.614-.233 1.11 1.11 0 0 0-.537.093.9.9 0 0 0-.269.181c-.094.088-.252.281-.475.58Zm.392.292c.189-.252.327-.418.414-.495a.532.532 0 0 1 .26-.139.614.614 0 0 1 .538.111c.091.072.158.15.201.235a.576.576 0 0 1 .056.248.555.555 0 0 1-.055.291 4.167 4.167 0 0 1-.359.537 3.992 3.992 0 0 1-.41.493.55.55 0 0 1-.266.139.527.527 0 0 1-.251.013.593.593 0 0 1-.285-.122.571.571 0 0 1-.193-.234.556.556 0 0 1-.066-.25.529.529 0 0 1 .061-.292c.048-.104.166-.282.355-.535Zm.941 2.706.39.291 1.197-1.604.007.006-.384 1.636.325.242 1.46-.833.008.007-1.197 1.603.39.291 1.92-2.572-.369-.275-1.974 1.136.514-2.226-.367-.274-1.92 2.572Z"/><path stroke="#664F4C" stroke-width=".241" d="m238.068 72.193-12.9-9.631-9.631 12.9 12.9 9.632 9.631-12.9Z"/><path stroke="#664F4C" stroke-width=".241" d="m250.92 81.788-12.9-9.631-9.632 12.9 12.901 9.631 9.631-12.9Z"/><path stroke="#664F4C" stroke-width=".241" d="m228.451 85.078-12.9-9.631-9.631 12.9 12.9 9.632 9.631-12.9Z"/><path stroke="#664F4C" stroke-width=".241" d="m241.303 94.672-12.901-9.631-9.631 12.9 12.901 9.631 9.631-12.9Z"/><path stroke="#664F4C" stroke-width=".241" d="m218.861 97.923-12.9-9.63-9.631 12.9 12.9 9.631 9.631-12.9Z"/><path stroke="#664F4C" stroke-width=".241" d="m231.709 107.517-12.9-9.631-9.631 12.9 12.9 9.631 9.631-12.9Z"/><path stroke="#664F4C" stroke-width=".241" d="m209.24 110.807-12.9-9.631-9.631 12.9 12.9 9.631 9.631-12.9Z"/><path stroke="#664F4C" stroke-width=".241" d="m222.092 120.402-12.901-9.631-9.631 12.9 12.901 9.631 9.631-12.9ZM263.815 91.413l-12.901-9.63-9.631 12.9 12.9 9.631 9.632-12.9Z"/><path stroke="#664F4C" stroke-width=".241" d="m276.662 101.007-12.9-9.631-9.631 12.9 12.9 9.631 9.631-12.9Z"/><path stroke="#664F4C" stroke-width=".241" d="m254.197 104.297-12.9-9.631-9.631 12.9 12.9 9.631 9.631-12.9Z"/><path stroke="#664F4C" stroke-width=".241" d="m267.049 113.892-12.901-9.632-9.631 12.901 12.901 9.631 9.631-12.9Z"/><path stroke="#664F4C" stroke-width=".241" d="m244.608 117.143-12.901-9.631-9.631 12.901 12.9 9.631 9.632-12.901Z"/><path stroke="#664F4C" stroke-width=".241" d="m257.455 126.737-12.9-9.631-9.631 12.9 12.9 9.631 9.631-12.9Z"/><path stroke="#664F4C" stroke-width=".241" d="m234.986 130.028-12.9-9.631-9.631 12.901 12.9 9.631 9.631-12.901Z"/><path stroke="#664F4C" stroke-width=".241" d="m247.838 139.621-12.9-9.631-9.632 12.9 12.901 9.631 9.631-12.9ZM289.561 110.638l-12.901-9.631-9.631 12.901 12.901 9.631 9.631-12.901Z"/><path stroke="#664F4C" stroke-width=".241" d="m302.412 120.231-12.9-9.631-9.631 12.9 12.9 9.631 9.631-12.9Z"/><path stroke="#664F4C" stroke-width=".241" d="m279.947 123.522-12.9-9.631-9.631 12.9 12.9 9.631 9.631-12.9Z"/><path stroke="#664F4C" stroke-width=".241" d="m292.799 133.117-12.901-9.631-9.631 12.9 12.901 9.631 9.631-12.9Z"/><path stroke="#664F4C" stroke-width=".241" d="m270.354 136.367-12.901-9.631-9.631 12.901 12.901 9.631 9.631-12.901Z"/><path stroke="#664F4C" stroke-width=".241" d="m283.201 145.962-12.9-9.631-9.631 12.901 12.9 9.631 9.631-12.901Z"/><path stroke="#664F4C" stroke-width=".241" d="m260.736 149.252-12.9-9.631-9.631 12.901 12.9 9.631 9.631-12.901Z"/><path stroke="#664F4C" stroke-width=".241" d="m273.588 158.846-12.9-9.631-9.632 12.9 12.901 9.631 9.631-12.9ZM164.225 117.393l-12.901-9.631-9.631 12.901 12.901 9.631 9.631-12.901Z"/><path stroke="#664F4C" stroke-width=".241" d="m177.076 126.987-12.9-9.631-9.631 12.9 12.9 9.631 9.631-12.9Z"/><path stroke="#664F4C" stroke-width=".241" d="m154.608 130.277-12.901-9.631-9.631 12.9 12.9 9.631 9.632-12.9Z"/><path stroke="#664F4C" stroke-width=".241" d="m167.451 139.872-12.9-9.631-9.631 12.9 12.9 9.631 9.631-12.9Z"/><path stroke="#664F4C" stroke-width=".241" d="m145.014 143.122-12.901-9.631-9.631 12.901 12.901 9.631 9.631-12.901Z"/><path stroke="#664F4C" stroke-width=".241" d="m157.865 152.717-12.9-9.631-9.631 12.9 12.9 9.631 9.631-12.9Z"/><path stroke="#664F4C" stroke-width=".241" d="m135.393 156.007-12.901-9.631-9.631 12.901 12.901 9.631 9.631-12.901Z"/><path stroke="#664F4C" stroke-width=".241" d="m148.248 165.601-12.9-9.631-9.631 12.9 12.9 9.631 9.631-12.9ZM189.975 136.617l-12.901-9.631-9.631 12.901 12.901 9.631 9.631-12.901Z"/><path stroke="#664F4C" stroke-width=".241" d="m202.826 146.211-12.9-9.631-9.631 12.9 12.9 9.631 9.631-12.9Z"/><path stroke="#664F4C" stroke-width=".241" d="m180.358 149.501-12.901-9.631-9.631 12.9 12.9 9.631 9.632-12.9Z"/><path stroke="#664F4C" stroke-width=".241" d="m193.209 159.096-12.9-9.631-9.631 12.9 12.9 9.631 9.631-12.9Z"/><path stroke="#664F4C" stroke-width=".241" d="m170.764 162.346-12.901-9.631-9.631 12.9 12.901 9.631 9.631-12.9Z"/><path stroke="#664F4C" stroke-width=".241" d="m183.615 171.941-12.9-9.631-9.631 12.9 12.9 9.631 9.631-12.9Z"/><path stroke="#664F4C" stroke-width=".241" d="m161.143 175.231-12.901-9.631-9.631 12.9 12.901 9.631 9.631-12.9Z"/><path stroke="#664F4C" stroke-width=".241" d="m173.994 184.825-12.9-9.632-9.631 12.901 12.9 9.631 9.631-12.9ZM215.717 155.836l-12.901-9.631-9.631 12.9 12.901 9.631 9.631-12.9Z"/><path stroke="#664F4C" stroke-width=".241" d="m228.565 165.431-12.901-9.631-9.631 12.9 12.9 9.631 9.632-12.9Z"/><path stroke="#664F4C" stroke-width=".241" d="m206.1 168.721-12.901-9.631-9.631 12.9 12.901 9.631 9.631-12.9Z"/><path stroke="#664F4C" stroke-width=".241" d="m218.951 178.314-12.9-9.631-9.631 12.901 12.9 9.631 9.631-12.901Z"/><path stroke="#664F4C" stroke-width=".241" d="m196.51 181.567-12.901-9.631-9.631 12.901 12.901 9.631 9.631-12.901Z"/><path stroke="#664F4C" stroke-width=".241" d="m209.361 191.16-12.9-9.631-9.631 12.9 12.9 9.631 9.631-12.9Z"/><path stroke="#664F4C" stroke-width=".241" d="m186.893 194.451-12.901-9.631-9.631 12.9 12.901 9.631 9.631-12.9Z"/><path stroke="#664F4C" stroke-width=".241" d="m199.744 204.045-12.9-9.631-9.631 12.9 12.9 9.631 9.631-12.9ZM241.463 175.061l-12.901-9.631-9.631 12.9 12.901 9.631 9.631-12.9Z"/><path stroke="#664F4C" stroke-width=".241" d="m254.315 184.655-12.901-9.631-9.631 12.9 12.9 9.631 9.632-12.9Z"/><path stroke="#664F4C" stroke-width=".241" d="m231.85 187.946-12.901-9.631-9.631 12.9 12.901 9.631 9.631-12.9Z"/><path stroke="#664F4C" stroke-width=".241" d="m244.701 197.538-12.9-9.631-9.631 12.901 12.9 9.631 9.631-12.901Z"/><path stroke="#664F4C" stroke-width=".241" d="m222.26 200.791-12.901-9.631-9.631 12.901 12.901 9.631 9.631-12.901Z"/><path stroke="#664F4C" stroke-width=".241" d="m235.111 210.385-12.9-9.631-9.631 12.9 12.9 9.631 9.631-12.9Z"/><path stroke="#664F4C" stroke-width=".241" d="m212.643 213.675-12.901-9.631-9.631 12.9 12.901 9.631 9.631-12.9Z"/><path stroke="#664F4C" stroke-width=".241" d="m225.494 223.27-12.9-9.631-9.631 12.9 12.9 9.631 9.631-12.9ZM238.082 72.33l6.49 44.724M170.715 162.568l6.473 44.612M263.801 91.431l-44.79 6.442M196.481 181.605l-44.838 6.506"/><path fill="#B7A3A8" d="M160.344 104.987c.145-.195.203-.266.284-.352a2.39 2.39 0 0 1-.265-.177l-.279-.208a1.933 1.933 0 0 1-.259-.22l-.273.366c.087.044.143.081.241.153l.208.156-.554.741a3.144 3.144 0 0 0-.527-.007c-.216.016-.216.016-.278.022l.036.497c.194-.043.301-.067.327-.074.187-.033.297-.034.348.003.04.03.049.053.103.261.097.359.248.529.902 1.017.62.463.868.643 1.202.866.162-.161.2-.19.397-.314a6.33 6.33 0 0 1-.589-.372 28.663 28.663 0 0 1-.744-.53c-.56-.418-.703-.576-.793-.889-.048-.167-.048-.167-.051-.184l.564-.755Zm.243-1.929c.077.45.094.687.095 1.084l.491-.056a6.971 6.971 0 0 0-.13-1.064l-.456.036Zm2.33 2.142.152-.205c.113-.151.172-.216.276-.306l-.436-.326a2.54 2.54 0 0 1-.222.347l-.153.204-.878-.656a3.26 3.26 0 0 1-.344-.288l-.278.372c.11.062.233.143.367.243l.885.661-.881 1.181c-.05.067-.139.053-.27-.045a3.863 3.863 0 0 1-.408-.362c-.032.133-.09.267-.2.436.189.167.236.208.377.313.205.153.363.234.484.241.115.013.209-.043.312-.18l.969-1.298.107.08c.178.133.249.191.34.28l.273-.366a3.422 3.422 0 0 1-.368-.249l-.104-.077Zm-1.604.657c.034-.45.028-.653-.025-1.043l-.455-.063c.045.353.037.734-.025 1.069l.505.037Zm3.064 1.781-.54-.403.353.08c.11-.414.126-.512.157-.792l-.42-.094a3.273 3.273 0 0 1-.16.753l-.289-.215a3.135 3.135 0 0 1-.374-.311l-.283.379c.138.082.247.153.408.273l.68.508a2.953 2.953 0 0 1-.57.128 3.713 3.713 0 0 1-1.225-.074c.013.193.005.302-.022.506.288.048.55.061.847.048a3.074 3.074 0 0 0 1.027-.215c-.117.136-.165.2-.243.304l-.35.47a2.536 2.536 0 0 1-.279.324l.416.311c.063-.12.137-.232.232-.36l.353-.473c.053-.07.092-.13.224-.328-.014.334.002.55.061.849.074.369.179.656.383 1.075.181-.095.297-.139.488-.184-.386-.638-.54-1.145-.543-1.785l.738.551c.171.128.283.222.387.321l.283-.379a2.716 2.716 0 0 1-.401-.268l-.352-.263a4.33 4.33 0 0 0 .713-.346l-.267-.377a3.79 3.79 0 0 1-.835.432l-.228-.17.546-.731.822.613c.171.128.272.209.36.301l.281-.376a2.81 2.81 0 0 1-.417-.274l-.798-.596.067-.091a1.92 1.92 0 0 1 .212-.249l-.402-.3c-.058.098-.098.167-.176.271l-.07.093-.738-.55a3.281 3.281 0 0 1-.375-.317l-.28.376c.124.071.233.142.387.258l.758.565-.546.732Zm4.239 3.033-1.04 1.392c-.067.091-.085.114-.096.137-.039.065-.05.13-.039.191.024.101.11.196.324.357.265.198.391.239.532.183.122-.051.27-.201.565-.561a1.286 1.286 0 0 1-.217-.381c-.213.279-.282.364-.369.445-.088.091-.124.09-.222.018-.11-.083-.123-.108-.08-.165l1.004-1.345.184.138c.155.115.254.199.341.285l.3-.402a3.287 3.287 0 0 1-.387-.258l-1.198-.894a2.414 2.414 0 0 1-.32-.271l-.3.403c.107.059.206.122.35.23l.054.04-.123.165c-.202.256-.454.496-.646.599-.293.162-.707.198-1.208.106.038.159.048.286.033.489.728.074 1.153-.006 1.536-.295.256-.19.439-.377.767-.796l.255.19Zm-.782-1.842.094.07c.114.085.188.146.265.219l.268-.359a2.514 2.514 0 0 1-.314-.203l-.5-.373a2.466 2.466 0 0 1-.29-.248l-.27.362c.11.062.17.101.297.196l.101.075-.463.621-.118-.088a1.42 1.42 0 0 1-.222-.192l-.263.352c.087.045.15.086.241.154l.124.093-.561.751c-.363-.13-.398-.146-.524-.208l-.199.441c.059.013.071.017.118.031.65.193.939.268 1.283.325l.244-.334c-.238-.052-.306-.072-.481-.119l.469-.627.08.06c.071.053.142.111.205.174l.258-.346a1.408 1.408 0 0 1-.225-.147l-.08-.06.463-.62Zm.518.355c.1.055.246.153.384.256l.902.673c.161.12.267.21.351.293l.29-.389a3.571 3.571 0 0 1-.384-.255l-.895-.669a3.524 3.524 0 0 1-.358-.298l-.29.389Zm1.252 3.85-.493-.368-.365.49.281.21c-.158.206-.25.231-.497.135l-.012.268c.352.096.505.043.721-.245l.365-.49Zm2.923.861a3.647 3.647 0 0 0-.048.988 2.917 2.917 0 0 1-.709-.065 5.668 5.668 0 0 1-.97-.296 1.407 1.407 0 0 1-.079.49c.644.23 1.3.344 1.835.314.142.593.379 1.046.879 1.691.176-.124.252-.162.445-.232-.48-.562-.746-1.016-.874-1.509.323-.062.468-.11.933-.306l-.161-.449a1.724 1.724 0 0 1-.379.186 1.944 1.944 0 0 1-.478.129 2.786 2.786 0 0 1 .034-.815l.019-.095-.447-.031Zm.514-1.43a3.914 3.914 0 0 1-.405-.333l-.285.383c.114.064.23.14.434.293l2.133 1.592c.178.133.341.265.408.336l.285-.383a3.899 3.899 0 0 1-.43-.29l-.852-.636c.078-.323.079-.338.108-.551l-.462-.136c-.022.203-.03.27-.056.381l-.878-.656Zm.159.731c-.514.185-.93.225-1.479.134.04.191.049.313.034.479.305.019.508.013.779-.014a3.38 3.38 0 0 0 .855-.187l-.189-.412Zm1.45 2.326c-.043-.487-.104-.805-.287-1.463l-.422.013c.163.671.196.878.248 1.544l.461-.094Zm1.115 1.537-.451.603c-.058.078-.099.084-.189.016a2.897 2.897 0 0 1-.296-.268 1.701 1.701 0 0 1-.18.43c.101.081.145.113.209.161.261.195.358.241.48.217a.27.27 0 0 0 .161-.083c.049.172.055.234.068.469.396-.138.717-.379 1.142-.851l.563.421-.443.594c-.072.097-.099.098-.233-.002a1.988 1.988 0 0 1-.282-.253c-.038.17-.089.294-.188.44.113.095.164.138.231.188.389.291.541.284.779-.035l1.63-2.184c.135-.181.216-.282.289-.359a2.99 2.99 0 0 1-.375-.253l-.534-.398a3.603 3.603 0 0 1-.356-.293c-.079.134-.136.217-.532.747-.886 1.188-1.259 1.562-1.722 1.734.021-.021.033-.038.048-.058l1.688-2.261c.123-.164.209-.272.273-.344a4.241 4.241 0 0 1-.379-.262l-.476-.356a4.904 4.904 0 0 1-.369-.296c-.073.133-.143.233-.366.531-1.074 1.439-1.399 1.776-1.925 1.984.064.173.069.229.077.507a2.39 2.39 0 0 0 .514-.29c.192-.139.334-.273.624-.584l.52.388Zm.342-1.474.336-.449.486.363-.335.449-.487-.363Zm.254.675-.361.483-.503-.375c.175-.214.175-.214.374-.473l.49.365Zm1.21.423.335-.449.523.39-.335.45-.523-.391Zm.29.703-.361.483-.54-.404c.155-.192.155-.192.258-.324a3.79 3.79 0 0 1 .116-.149l.527.394Zm3.335 2.39a2.094 2.094 0 0 1-.312-.206l-.949-.709c.119-.11.205-.197.324-.322l1.349 1.007c.191.142.289.221.394.325l.29-.389a4.636 4.636 0 0 1-.424-.285l-1.311-.979a13.4 13.4 0 0 0 .182-.209 1.78 1.78 0 0 1 .204-.218l-.418-.328a1.344 1.344 0 0 1-.117.184 5.58 5.58 0 0 1-.23.288l-.537-.401a4.38 4.38 0 0 1-.394-.326l-.291.39c.088.044.24.147.425.285l.503.375c-.431.431-.657.607-1.022.816-.45.253-.835.363-1.418.409.058.189.07.292.073.498.418-.043.721-.12 1.08-.265a4.41 4.41 0 0 0 .813-.432c-.063.287-.072.573-.027.967-.393.009-.844-.087-1.309-.282.016.21.013.297-.031.504.397.118.542.154.793.19.226.033.424.04.635.03.11.406.356.887.682 1.34.189-.121.312-.18.488-.227-.371-.433-.582-.774-.717-1.167.395-.081.71-.196 1.067-.394.153-.085.194-.106.24-.124l-.035-.345Zm-.54.135a2.828 2.828 0 0 1-.839.298 2.249 2.249 0 0 1 .017-.912l.822.614Z"/></g><path stroke="#654F4D" stroke-width="4.19" d="M193.598 10.068 332.1 113.47l-116.166 155.6L77.432 165.67z"/><path stroke="url(#c)" stroke-width="4.19" d="M193.598 10.068h172.844v194.181H193.598z" transform="rotate(36.744 193.598 10.068)"/></g><g filter="url(#d)"><g filter="url(#e)"><circle cx="86.05" cy="246.906" r="6.809" fill="#C2352E" transform="rotate(-47.488 86.05 246.906)"/></g><path fill="#fff" d="M91.129 246.834a3.563 3.563 0 0 0-2.724-.454 2.529 2.529 0 0 0-.816-1.543 2.503 2.503 0 0 0-.992-.568l-1.137-2.556-1.208 2.184-1.582-.089.226 1.569-2.07 1.392 2.644.911c.142.359.365.68.652.939.443.403 1.01.643 1.608.68a3.46 3.46 0 0 0 .689 2.673l.147.211 4.785-5.22-.222-.129Zm-9.382-.204 1.59-1.075-.194-1.314 1.325.081.934-1.679.678 1.53c-.398-.036-.8.02-1.173.163-.373.142-.709.368-.982.66a2.551 2.551 0 0 0-.633 2.218l-1.545-.584Zm4.331-2.043-2.336 2.548a2.158 2.158 0 0 1 2.336-2.548Zm.519 6.943a3.203 3.203 0 0 1-.42-2.389l.088-.26-.276.012a2.132 2.132 0 0 1-1.564-.564 1.975 1.975 0 0 1-.525-.747l2.656-2.897c.29.099.56.255.79.459a2.077 2.077 0 0 1 .696 1.509l.012.275.273-.09a3.201 3.201 0 0 1 2.416.21l-4.146 4.482Z"/></g><g filter="url(#f)"><g filter="url(#g)"><circle cx="109.267" cy="242.508" r="6.809" fill="#C2352E" transform="rotate(36.525 109.267 242.508)"/></g><path fill="#fff" d="M107.826 243.012c.097-.09.212-.161.337-.208l-.118-.792c-.332.089-.631.27-.863.524l.644.476ZM107.5 243.719c.004-.128.032-.254.082-.372l-.656-.487a1.756 1.756 0 0 0-.226.969l.8-.11ZM109.742 242.451l-.486.656c.083.099.146.211.188.333l.788-.118a1.746 1.746 0 0 0-.49-.871ZM108.559 242.744c.133.008.263.042.383.101l.477-.644a1.798 1.798 0 0 0-.978-.25l.118.793ZM108.44 244.74a1.002 1.002 0 0 1-.337-.081l-.487.657c.285.159.609.237.935.225l-.111-.801ZM107.774 244.425a.991.991 0 0 1-.193-.302l-.799.117c.092.318.27.605.515.828l.477-.643ZM109.496 243.837c-.012.12-.045.237-.097.345l.641.475c.17-.285.257-.611.251-.943l-.795.123ZM109.145 244.5c-.089.075-.19.134-.3.175l.119.792a1.78 1.78 0 0 0 .837-.481l-.656-.486Z"/><path fill="#fff" d="m114.358 241.876-.074.806-.075.809-3.39-.108a2.335 2.335 0 0 1-.606 1.954 2.327 2.327 0 0 1-1.914.721 2.334 2.334 0 0 1-2.059-2.84 1.82 1.82 0 0 1-.587-.265.783.783 0 0 1-.146-.136c-.159-.188-.177-.259-.219-.29-.042-.031-.06-.024-.147-.031a1.359 1.359 0 0 1-.724-.198.52.52 0 0 1-.215-.497l.01-.105c.068-.723 1.054-.507 1.054-.507.225.021.104.009.418-.25a1.67 1.67 0 0 1 .89-.263l7.784 1.2Zm.324-.438a.527.527 0 0 0-.24-.1l-7.79-1.197a.51.51 0 0 0-.087-.007 2.126 2.126 0 0 0-1.235.391c-.05.04-.09.075-.124.108a1.6 1.6 0 0 0-1.108.229 1.082 1.082 0 0 0-.432.789l-.01.105a1.067 1.067 0 0 0 .427.993c.265.18.576.283.897.295.026.037.06.082.101.129.07.086.151.162.242.227.097.071.201.133.31.185a2.882 2.882 0 0 0 2.667 3.081 2.884 2.884 0 0 0 3.084-2.719l2.809.088a.545.545 0 0 0 .559-.494l.073-.807.07-.799a.544.544 0 0 0-.213-.497Z"/></g><g filter="url(#h)"><g filter="url(#i)"><circle cx="82.374" cy="273.233" r="6.809" fill="#C2352E" transform="rotate(-31.08 82.374 273.233)"/></g><path fill="#fff" d="M82.293 274.759a1.013 1.013 0 0 1-.064-.391l-.777-.192c-.045.34.01.686.155.997l.686-.414ZM82.821 275.323a1.049 1.049 0 0 1-.313-.218l-.7.421c.209.267.49.467.81.578l.203-.781ZM82.512 272.767l.421.7c.123-.039.251-.055.38-.047l.191-.774a1.75 1.75 0 0 0-.992.121ZM82.322 273.974c.058-.12.14-.227.24-.316l-.414-.685a1.792 1.792 0 0 0-.603.809l.777.192ZM84.128 274.841c-.05.104-.119.2-.202.281l.422.7c.255-.203.45-.473.564-.779l-.784-.202ZM83.581 275.34a.989.989 0 0 1-.353.063l-.196.783c.33.037.663-.018.963-.16l-.414-.686ZM83.694 273.526c.106.056.202.131.282.221l.684-.412a1.788 1.788 0 0 0-.776-.592l-.19.783ZM84.171 274.103c.036.11.052.227.048.343l.778.193a1.783 1.783 0 0 0-.126-.958l-.7.422Z"/><path fill="#fff" d="m83.734 268.282.717.376.72.376-1.392 3.094a2.327 2.327 0 0 1 1.513 3.349 2.335 2.335 0 0 1-3.41.822 1.838 1.838 0 0 1-.468.441.765.765 0 0 1-.182.084c-.235.075-.308.065-.352.092-.044.026-.045.046-.084.124a1.36 1.36 0 0 1-.459.594.516.516 0 0 1-.542.009l-.093-.049c-.642-.338-.068-1.168-.068-1.168.106-.2.05-.093-.07-.482-.056-.31-.023-.63.095-.922l4.075-6.74Zm-.28-.467a.522.522 0 0 0-.185.184l-4.075 6.747a.456.456 0 0 0-.04.077c-.17.408-.208.86-.109 1.291.019.062.036.112.053.155a1.603 1.603 0 0 0-.21 1.113 1.093 1.093 0 0 0 .564.7l.093.048a1.056 1.056 0 0 0 1.081-.015 1.72 1.72 0 0 0 .615-.717c.044-.011.1-.025.158-.044a1.29 1.29 0 0 0 .302-.138c.103-.063.2-.135.29-.216a2.878 2.878 0 0 0 3.863-1.292 2.882 2.882 0 0 0-1.338-3.887l1.151-2.564a.545.545 0 0 0-.243-.706l-.72-.374-.711-.369a.545.545 0 0 0-.54.007Z"/></g><g filter="url(#j)"><g filter="url(#k)"><circle cx="101.563" cy="262.562" r="6.809" fill="#C2352E" transform="rotate(-167.7 101.563 262.562)"/></g><path fill="#fff" d="M100.092 263.504a.388.388 0 0 0-.448.312.372.372 0 0 0 .275.472.365.365 0 0 0 .396-.171.371.371 0 0 0 .051-.144.4.4 0 0 0 .01-.15.37.37 0 0 0-.149-.254.36.36 0 0 0-.135-.065Z"/><path fill="#fff" d="m96.837 260.862.833.313-.71 1.607a.185.185 0 0 0 .004.171c.013.025.03.047.053.065a.191.191 0 0 0 .076.035l.705.154c.042.01.086.004.125-.014a.19.19 0 0 0 .087-.09l.742-1.511.273.104c-.033.626-.146 3.904 1.562 4.277.493.057.992.038 1.479-.057.231.117.988.48 1.461.419.474-.061 2.231-2.357 2.959-3.341a.194.194 0 0 0 .032-.146.189.189 0 0 0-.081-.127c-.022-.005-.219-.145-.489-.316.236-.302.879-1.154.971-1.77.079-.54-.126-.699-.331-.744l-4.923-1.109a.187.187 0 0 0-.135.019.194.194 0 0 0-.088.105c-.012.056-.365 1.113-.127 1.865a8.35 8.35 0 0 0-.522-.025c-.125-.334-.5-1.157-1.134-1.295l-.08-.017c-.51-.062-1.03.332-1.553 1.18l-1.1-.072a.164.164 0 0 0-.126.015.169.169 0 0 0-.078.1.168.168 0 0 0 .015.127.168.168 0 0 0 .1.078Zm.903 1.934-.335-.073.623-1.414.37.142-.658 1.345Zm3.326-1.525-.106.744-2.593-.97 2.699.226Zm2.403 4.706c-.337.038-1.052-.291-1.283-.419a.203.203 0 0 0-.125-.028 4.712 4.712 0 0 1-1.392.07c-1.187-.258-1.32-2.638-1.266-3.771l1.669.642a.157.157 0 0 0 .071.01.165.165 0 0 0 .149-.137l.192-1.16.096.021c.266.058.614.892.783 1.634a.194.194 0 0 0 .344.075c.786-1.175 1.099-1.067 1.576-.902.045.01.088.033.135.046a9.884 9.884 0 0 1 1.614.909c-1.063 1.424-2.29 2.919-2.561 2.999l-.002.011Zm-1.713-6.785 4.748 1.071c.019.004.076.047.037.318-.074.494-.646 1.286-.933 1.633a6.41 6.41 0 0 0-1.064-.541l-.127-.045c-.586-.203-1.041-.26-1.783.727-.151-.527-.457-1.332-.879-1.508-.258-.415-.111-1.217.001-1.653v-.002Zm-2.235.627c.394.047.694.562.851.93l-.281.009-1.636-.106c.38-.589.748-.874 1.067-.838l-.001.005Z"/></g><g filter="url(#l)"><g filter="url(#m)"><circle cx="114.897" cy="267.522" r="6.809" fill="#C2352E" transform="rotate(-67.847 114.897 267.522)"/></g><path fill="#fff" d="M114.616 264.233c-1.109.196-1.948.884-2.658 2.123-.132.035-.35.064-.674.138a1.504 1.504 0 0 0-.801.379l-.046.04.076.031c.294.15.561.349.79.587l-.061.151a2.332 2.332 0 0 0-1.172.494l-.066.09.656.267c.186.076.365.168.534.277.143.115.266.255.362.412.08.133.18.253.296.355.136.095.277.182.423.261.155.091.298.198.428.321.176.244.338.496.486.757.336.548.617.869.894.981a1.27 1.27 0 0 0 1.114-.134 1.63 1.63 0 0 0 .814-.845.484.484 0 0 0-.022-.45 1.031 1.031 0 0 0-.372-.387c-.333-.194-.508-.413-.477-.635.099-.451.129-.915.09-1.375a.507.507 0 0 1 .197.021 1.095 1.095 0 0 1 .651 1.001c.048.397.213.771.474 1.075.372.334.807.591 1.28.756l.05.021 2.219-5.449-1.261-.514c-2.024-.735-3.176-.94-4.224-.749Zm.965 3.481-.565-.201a1.679 1.679 0 0 1-.424-.26l-.025-.011-.035.015-.107.045-.071.03.066.056c.123.13.232.274.326.427.049.106.082.219.099.334.025.195.023.392-.004.587-.02.253-.054.504-.101.753-.032.369.188.694.662.975.181.133.262.224.221.325a.51.51 0 0 1-.133.181.947.947 0 0 1-.18-.279.542.542 0 0 0-.277-.259c-.151-.062-.258-.017-.309.109-.051.126.034.278.275.553.046.063.088.129.125.198-.021.05-.077.116-.325.22a.814.814 0 0 1-.587-.003.61.61 0 0 1-.246-.189 5.3 5.3 0 0 1-.427-.614 8.713 8.713 0 0 0-.631-.905 1.716 1.716 0 0 0-.403-.311 1.338 1.338 0 0 1-.358-.204 1.09 1.09 0 0 1-.231-.3 1.82 1.82 0 0 0-.467-.514 3.078 3.078 0 0 0-.56-.286 1.09 1.09 0 0 1 .522-.053.81.81 0 0 0 .119.284l.015.036.212.057-.036-.633.075.031c.177.072.243-.019.264-.069.041-.101-.004-.208-.124-.345a.653.653 0 0 0-.262-.224 4.86 4.86 0 0 1-.489-.317c.176-.056.358-.091.542-.102.183-.009.363-.057.527-.139l.021-.05c.623-1.099 1.391-1.757 2.328-1.964.937-.206 2.351.076 4.218.836l.656.267-1.869 4.591a2.267 2.267 0 0 1-.811-.536 1.474 1.474 0 0 1-.319-.806c-.077-.679-.367-1.12-.897-1.336Z"/><path fill="#fff" d="M114.088 271.164a.382.382 0 0 0 .237.214c.252.103.329-.013.359-.089.055-.134-.084-.299-.159-.33l-.026-.01-.142.06-.215-.264-.042.1a.416.416 0 0 0-.012.319ZM112.586 268.494a.795.795 0 0 0 .002.501c.054.228.124.344.25.396.126.051.233.006.421-.094l.116-.07-.302-.123a2 2 0 0 0 .107-.192c.025-.06-.044-.253-.12-.283a.555.555 0 0 0-.161-.037.508.508 0 0 1-.009-.268l.006-.086-.207.004-.103.252Z"/></g><g filter="url(#n)"><g filter="url(#o)"><circle cx="144.228" cy="238.187" r="6.809" fill="#C2352E" transform="rotate(32.29 144.228 238.187)"/></g><path fill="#fff" d="m142.82 238.997.374.774.857.004-.371-.773-.86-.005Z"/><path fill="#fff" d="M148.427 239.391a1.523 1.523 0 0 0-.735-1.753 2.558 2.558 0 0 0-1.615-.344c.052-.27.022-.55-.086-.802l.322.203 1.059-1.676-1.676-1.059-1.059 1.676.327.207a1.36 1.36 0 0 0-.768.262 2.556 2.556 0 0 0-1.002-1.306 1.523 1.523 0 0 0-1.899.089c-.965.869-.584 2.208-.194 2.918l-1.019 1.612c-.371.612.622 1.682 1.806 2.429 1.183.748 2.574 1.183 2.967.587l1.019-1.612c.806.049 2.183-.186 2.553-1.431Zm-3.022 1.438-.525.026-.006.814-.032.051c-.258-.566-.975-1.225-1.781-1.734-.806-.51-1.705-.872-2.333-.866l.032-.051.735-.353-.204-.487.052-.083.21-.022c.844-.085 1.959.577 1.97.585l.231.145.255.162s1.081.737 1.365 1.536l.071.199-.04.078Zm-1.199-2.655a3.41 3.41 0 0 0 .096-1.657.866.866 0 0 1 1.052-.16.86.86 0 0 1 .302 1.016 3.412 3.412 0 0 0-1.45.801Zm2.031-2.699.455-.093-.344.543-.111-.45Zm-.085-.376-.101-.451.545.345-.444.106Zm-.376.085-.45.095.344-.543.106.448Zm.085.375.1.444-.548-.346.448-.098Zm-4.308-.386a1.149 1.149 0 0 1 1.424-.031c.772.487 1.339 1.716.747 3.233 0 0-1.226-.726-2.214-.626.003-.014-1.016-1.619.043-2.576Zm.548 6.332c-1.257-.794-1.834-1.655-1.68-1.899.154-.244 1.181-.095 2.438.7 1.257.794 1.832 1.653 1.676 1.9-.155.246-1.179.092-2.434-.701Zm3.662-1.085c-.333-.935-1.516-1.731-1.516-1.731 1.108-1.191 2.456-1.193 3.227-.706a1.146 1.146 0 0 1 .572 1.309c-.403 1.356-2.283 1.128-2.283 1.128Z"/></g><g filter="url(#p)"><g filter="url(#q)"><circle cx="139.878" cy="268.934" r="6.809" fill="#C2352E" transform="rotate(-13.274 139.878 268.934)"/></g><path fill="#fff" d="M143.336 270.917a1.63 1.63 0 0 0-1.179-.374c-.272-.25-1.445-1.38-1.721-2.549l1.161-.274-.024-.174c-.006-.026-.105-.646-1.128-.853.104-.266.127-.557.066-.835a1.225 1.225 0 1 0-2.386.562c.076.277.232.526.449.715-.823.641-.636 1.241-.63 1.267l.056.166 1.163-.274c.276 1.169-.271 2.705-.4 3.049a1.637 1.637 0 0 0-.914.868c-.145.394-.143.827.007 1.218l.063.148 5.957-1.405-.01-.16a1.705 1.705 0 0 0-.53-1.095Zm-4.355-3.624.241-.163-.256-.158a1.164 1.164 0 0 1-.47-.653.844.844 0 0 1 .614-1.059.846.846 0 0 1 .896.357.843.843 0 0 1 .126.316c.049.273.001.555-.137.796l-.161.256.302.036c.593.067.855.265.967.409l-2.804.662c.036-.179.182-.474.682-.799Zm-.808 5.818a1.273 1.273 0 0 1 .036-.772 1.31 1.31 0 0 1 .762-.673l.071-.03.031-.072c.032-.077.787-1.918.448-3.355l.531-.125c.338 1.437 1.839 2.745 1.903 2.8l.059.051.077-.005a1.317 1.317 0 0 1 .982.272c.194.182.326.418.378.678l-5.278 1.231Z"/></g><g filter="url(#r)"><g filter="url(#s)"><circle cx="158.161" cy="264.695" r="6.809" fill="#C2352E" transform="rotate(82.708 158.161 264.695)"/></g><path fill="#fff" d="m156.479 267.63.486-.062.815-.928 2.08-.266.739.839 1.972-.253-.183-1.431-.865.11-.1-.783.865-.111-.17-1.324-.864.111-.097-.756.864-.111-.183-1.432-1.972.252-.504.998-2.08.267-1.022-.693-.487.062-.842-.579-1.324.17.878 6.862 1.324-.17.67-.772Zm-1.1.416-.514.065-.774-6.051.513-.066.775 6.052Zm5.525-4.03.864-.111.066.514-.865.11.204 1.594.865-.11.076.594-1.27.163-.625-4.89 1.269-.163.076.595-.864.11.204 1.594Zm-3.385 2.3-.576.651-.553-4.323.721.485.408 3.187Zm2.154-.33-1.756.225-.394-3.08 1.756-.225.394 3.08Zm.673.326-.261-.324-.408-3.188.172-.379.497 3.891Zm-4.683-3.767.27-.035.602 4.701-.27.035-.525.616-.74-5.781.663.464Z"/></g><g filter="url(#t)"><g filter="url(#u)"><circle cx="127.238" cy="254.716" r="6.809" fill="#272727" transform="rotate(27.07 127.238 254.716)"/></g><path fill="#fff" d="M128.66 259.593a3.575 3.575 0 0 0-.288-2.746 2.533 2.533 0 0 0 1.27-1.198c.179-.343.276-.721.284-1.107l2.16-1.777-2.426-.582-.335-1.549-1.452.635-1.894-1.625-.174 2.791a2.517 2.517 0 0 0-.731.879 2.625 2.625 0 0 0-.227 1.731 3.478 3.478 0 0 0-2.394 1.376l-.164.198 6.306 3.222.065-.248Zm-2.302-9.098 1.461 1.247 1.214-.537.275 1.299 1.866.453-1.293 1.06a2.63 2.63 0 0 0-1.368-1.857 2.536 2.536 0 0 0-2.306-.02l.151-1.645Zm3.123 3.631-3.078-1.573a2.148 2.148 0 0 1 1.932.017 2.165 2.165 0 0 1 1.146 1.556Zm-6.554 2.349a3.199 3.199 0 0 1 2.191-1.041l.274.015-.085-.262a2.13 2.13 0 0 1 .127-1.658c.136-.277.334-.518.58-.705l3.5 1.789a2.318 2.318 0 0 1-.232.883 2.084 2.084 0 0 1-1.269 1.073l-.263.085.16.239c.454.706.612 1.563.441 2.385l-5.424-2.803Z"/></g><g filter="url(#v)"><g filter="url(#w)"><circle cx="141.655" cy="253.947" r="6.809" fill="#272727" transform="rotate(-33.625 141.655 253.947)"/></g><path fill="#fff" d="M141.641 255.473a1.017 1.017 0 0 1-.081-.388l-.785-.158c-.03.342.04.685.199.989l.667-.443ZM142.198 256.012a1.036 1.036 0 0 1-.322-.204l-.681.452c.22.257.51.445.834.541l.169-.789ZM141.766 253.473l.452.681c.12-.045.248-.067.376-.064l.158-.782a1.755 1.755 0 0 0-.986.165ZM141.637 254.685c.053-.122.129-.233.225-.326l-.443-.666a1.792 1.792 0 0 0-.567.834l.785.158ZM143.48 255.472a.992.992 0 0 1-.19.289l.453.681c.246-.214.429-.492.529-.803l-.792-.167ZM142.955 255.996a.98.98 0 0 1-.35.079l-.161.791c.331.022.661-.048.954-.203l-.443-.667ZM142.981 254.177c.109.051.208.122.292.208l.664-.442a1.784 1.784 0 0 0-.801-.556l-.155.79ZM143.488 254.734a.995.995 0 0 1 .063.341l.786.158a1.794 1.794 0 0 0-.168-.951l-.681.452Z"/><path fill="#fff" d="m142.794 248.937.732.344.736.345-1.253 3.152a2.34 2.34 0 0 1 1.632 1.233 2.335 2.335 0 0 1-3.342 3.018 1.856 1.856 0 0 1-.448.462.834.834 0 0 1-.178.092c-.231.085-.304.078-.348.106-.043.029-.043.049-.078.128a1.362 1.362 0 0 1-.432.614.522.522 0 0 1-.541.033l-.095-.045c-.657-.309-.12-1.163-.12-1.163.096-.205.045-.095-.092-.478a1.66 1.66 0 0 1 .055-.926l3.772-6.915Zm-.302-.453a.515.515 0 0 0-.176.192l-3.772 6.92a.473.473 0 0 0-.035.08 2.12 2.12 0 0 0-.052 1.294c.021.061.04.11.059.153-.188.342-.245.74-.16 1.121a1.088 1.088 0 0 0 .595.674l.095.044a1.062 1.062 0 0 0 1.079-.063c.26-.189.462-.447.582-.744.044-.013.098-.029.156-.051.104-.037.204-.088.295-.151.101-.067.194-.144.28-.228a2.883 2.883 0 0 0 3.803-1.463 2.878 2.878 0 0 0-1.463-3.803.484.484 0 0 1-.047-.021l1.037-2.612a.547.547 0 0 0-.275-.694l-.735-.343-.728-.336a.535.535 0 0 0-.538.031Z"/></g><g filter="url(#x)"><g filter="url(#y)"><circle cx="130.699" cy="274.935" r="6.809" fill="#272727" transform="rotate(-156.591 130.699 274.935)"/></g><path fill="#fff" d="M131.992 274.115c-.075.111-.17.206-.281.279l.295.745c.302-.161.553-.406.721-.705l-.735-.319ZM132.141 273.355c.025.126.026.256.004.382l.75.325c.095-.325.095-.67 0-.995l-.754.288ZM130.242 275.099l.325-.75a1.016 1.016 0 0 1-.258-.281l-.742.294c.149.306.383.562.675.737ZM131.329 274.545a1.016 1.016 0 0 1-.396-.011l-.318.735c.328.103.678.111 1.009.021l-.295-.745ZM130.993 272.576c.114-.02.232-.019.346.001l.325-.75a1.786 1.786 0 0 0-.962-.006l.291.755ZM131.715 272.729c.1.068.187.152.256.251l.751-.295c-.161-.29-.4-.529-.689-.691l-.318.735ZM130.173 273.693a1.026 1.026 0 0 1 .015-.358l-.732-.317a1.785 1.785 0 0 0-.031.975l.748-.3ZM130.363 272.967c.07-.093.155-.174.252-.238l-.295-.745c-.292.15-.536.378-.707.658l.75.325Z"/><path fill="#fff" d="m125.879 276.706-.11-.802-.112-.805 3.327-.664a2.326 2.326 0 0 1 1.847-3.177 2.333 2.333 0 0 1 2.65 2.299c.216.004.43.046.631.125.062.025.12.058.174.099.197.147.231.212.279.233.047.021.064.01.15-.003.247-.062.507-.052.75.028a.523.523 0 0 1 .322.436l.014.104c.098.719-.911.733-.911.733-.224.031-.104.015-.351.338-.22.226-.5.385-.807.458l-7.853.598Zm-.217.5a.52.52 0 0 0 .258.043l7.858-.602a.496.496 0 0 0 .086-.013c.431-.099.82-.33 1.114-.66.04-.051.07-.095.096-.134a1.605 1.605 0 0 0 1.028-.475 1.078 1.078 0 0 0 .241-.866l-.014-.104a1.068 1.068 0 0 0-.641-.871 1.722 1.722 0 0 0-.94-.084c-.035-.029-.078-.066-.128-.102a1.247 1.247 0 0 0-.287-.166 1.89 1.89 0 0 0-.344-.111 2.882 2.882 0 0 0-5.691.902c.003.017.006.034.007.051l-2.755.552a.542.542 0 0 0-.433.608l.113.803.113.794a.542.542 0 0 0 .319.435Z"/></g><g filter="url(#z)"><g filter="url(#A)"><circle cx="169.929" cy="244.507" r="6.809" fill="#272727" transform="rotate(27.732 169.929 244.507)"/></g><path fill="#fff" d="M171.598 243.99a.385.385 0 0 0 .424-.061.383.383 0 0 0 .09-.121.367.367 0 0 0 .046-.294.375.375 0 0 0-.186-.234.371.371 0 0 0-.513.185.372.372 0 0 0-.041.292.387.387 0 0 0 .18.233Z"/><path fill="#fff" d="m174.035 247.402-.72-.523 1.112-1.36a.178.178 0 0 0 .041-.078.175.175 0 0 0 .001-.088.187.187 0 0 0-.098-.131l-.638-.336a.19.19 0 0 0-.233.044l-1.117 1.259-.235-.173c.198-.594 1.179-3.724-.368-4.538a4.832 4.832 0 0 0-1.441-.339c-.191-.174-.824-.726-1.297-.793-.473-.067-2.778 1.679-3.741 2.434a.193.193 0 0 0-.07.132.2.2 0 0 0 .007.077.194.194 0 0 0 .038.067c.019.01.173.198.387.434-.308.229-1.155.879-1.407 1.448-.22.5-.065.708.121.805l4.451 2.38a.191.191 0 0 0 .247-.061c.027-.05.648-.976.619-1.763.153.055.323.111.497.162.031.355.174 1.249.748 1.55l.072.038c.476.195 1.083-.046 1.812-.724l1.04.362a.164.164 0 0 0 .228-.057.163.163 0 0 0 .019-.126.168.168 0 0 0-.075-.102Zm-.356-2.104.304.16-.977 1.197-.32-.236.993-1.121Zm-3.612.584.3-.688 2.242 1.625-2.542-.937Zm-1.064-5.175c.335.054.936.56 1.125.746.031.031.07.052.113.059.466.034.925.136 1.361.303 1.075.566.571 2.894.217 3.973l-1.438-1.064a.18.18 0 0 0-.067-.028.17.17 0 0 0-.135.036.168.168 0 0 0-.045.057l-.493 1.066-.087-.045c-.241-.127-.354-1.023-.32-1.784a.196.196 0 0 0-.103-.182.198.198 0 0 0-.208.018c-1.07.924-1.344.737-1.76.451-.041-.022-.076-.056-.118-.081a9.82 9.82 0 0 1-1.313-1.306c1.403-1.09 2.983-2.204 3.266-2.209l.005-.01Zm-.155 6.996-4.291-2.296c-.017-.009-.061-.066.049-.316.203-.456.965-1.068 1.334-1.326.268.295.563.564.882.805l.11.077c.511.351.935.528 1.912-.226.005.547.086 1.405.446 1.687.138.469-.217 1.203-.44 1.593l-.002.002Zm2.323-.01c-.368-.15-.52-.725-.573-1.122l.272.066 1.549.537c-.523.467-.954.644-1.251.524l.003-.005Z"/></g><g filter="url(#B)"><g filter="url(#C)"><circle cx="174.164" cy="259.737" r="6.809" fill="#272727" transform="rotate(-23.276 174.164 259.737)"/></g><path fill="#fff" d="M176.277 257.199c-.927-.639-2.008-.738-3.384-.353-.118-.068-.293-.2-.576-.375a1.5 1.5 0 0 0-.837-.292l-.061-.004.032.075c.104.314.155.642.152.973l-.151.064a2.326 2.326 0 0 0-1.18-.47l-.111.018.28.65c.08.185.142.376.186.572.021.183.011.368-.031.548-.037.15-.05.306-.039.461.031.163.07.324.119.483.046.172.073.35.079.529-.045.296-.107.59-.185.88-.145.626-.17 1.051-.051 1.327a1.26 1.26 0 0 0 .887.685c.382.136.8.125 1.173-.03a.48.48 0 0 0 .191-.132.474.474 0 0 0 .109-.205c.05-.175.052-.36.007-.536-.101-.372-.073-.651.106-.787a4.587 4.587 0 0 0 1.029-.917.505.505 0 0 1 .125.154 1.086 1.086 0 0 1-.238 1.169c-.245.317-.39.7-.417 1.099.031.499.16.988.381 1.437l.022.05 5.404-2.325-.538-1.251c-.926-1.944-1.603-2.898-2.483-3.497Zm-1.756 3.156-.261-.539a1.652 1.652 0 0 1-.119-.483l-.011-.025-.036-.014-.107-.043-.072-.029.008.086c-.004.18-.026.358-.067.533-.04.11-.095.214-.165.308a2.199 2.199 0 0 1-.414.415 7.292 7.292 0 0 1-.6.466c-.282.24-.353.626-.213 1.159.036.222.029.343-.071.386a.495.495 0 0 1-.222.036.983.983 0 0 1 .068-.325.55.55 0 0 0-.015-.379c-.065-.15-.172-.193-.297-.139-.125.054-.171.222-.192.587a1.836 1.836 0 0 1-.05.229c-.05.021-.136.028-.386-.071a.821.821 0 0 1-.416-.415.62.62 0 0 1-.043-.307c.025-.249.068-.495.128-.737.084-.358.145-.722.184-1.088.003-.17-.02-.34-.069-.504a1.326 1.326 0 0 1-.111-.397 1.083 1.083 0 0 1 .046-.375c.054-.227.063-.463.028-.694a3.143 3.143 0 0 0-.198-.597c.161.075.301.187.408.329a.818.818 0 0 0-.114.286l-.014.036.111.189.418-.476.032.075c.076.175.186.157.236.135.1-.043.143-.15.154-.332a.66.66 0 0 0-.029-.344 4.567 4.567 0 0 1-.126-.568c.164.083.318.186.458.307.137.122.298.214.472.271l.05-.022c1.216-.345 2.224-.274 3.037.236.812.51 1.622 1.704 2.419 3.555l.28.651-4.554 1.958a2.273 2.273 0 0 1-.202-.951c.031-.293.149-.571.339-.798.421-.537.524-1.055.298-1.581Z"/><path fill="#fff" d="M171.032 261.767a.37.37 0 0 0 .018.318c.107.25.243.222.318.189.133-.057.15-.272.118-.347l-.011-.025-.143-.057.032-.34-.1.044a.413.413 0 0 0-.139.085.426.426 0 0 0-.093.133ZM171.832 258.812a.797.797 0 0 0-.35.358c-.122.2-.154.333-.1.458.054.125.161.168.365.228l.133.032-.129-.3c.071-.016.141-.037.21-.061.061-.026.147-.211.115-.286a.62.62 0 0 0-.09-.14.522.522 0 0 1 .182-.197l.064-.057-.15-.143-.25.108Z"/></g><g filter="url(#D)"><g filter="url(#E)"><circle cx="166.253" cy="275.398" r="6.809" fill="#272727" transform="rotate(22.441 166.253 275.398)"/></g><path fill="#fff" d="m165.01 276.437.501.699.846-.143-.499-.698-.848.142Z"/><path fill="#fff" d="M170.599 275.866a1.525 1.525 0 0 0-1.024-1.601 2.557 2.557 0 0 0-1.65-.063 1.386 1.386 0 0 0-.222-.776l.352.146.757-1.833-1.833-.757-.756 1.833.357.148a1.36 1.36 0 0 0-.712.389 2.558 2.558 0 0 0-1.21-1.115 1.522 1.522 0 0 0-1.856.412c-.802 1.021-.197 2.276.308 2.909l-.728 1.762c-.261.667.901 1.55 2.194 2.085 1.294.534 2.739.724 3.024.07l.728-1.762c.803-.09 2.119-.557 2.271-1.847Zm-2.731 1.934-.513.115.133.804-.023.055c-.35-.513-1.17-1.04-2.051-1.404-.881-.364-1.829-.567-2.447-.454l.023-.055.664-.474-.285-.445.038-.091.203-.057c.817-.229 2.028.233 2.041.239l.252.104.279.115s1.191.542 1.608 1.28l.104.184-.026.084Zm-1.636-2.411a3.417 3.417 0 0 0-.188-1.649.863.863 0 0 1 1.009-.338.868.868 0 0 1 .471.95c-.509.234-.953.59-1.292 1.037Zm1.54-3.007.432-.169-.246.594-.186-.425Zm-.148-.355-.178-.427.597.246-.419.181Zm-.356.147-.427.172.245-.595.182.423Zm.148.356.174.42-.599-.248.425-.172Zm-4.311.356a1.146 1.146 0 0 1 1.398-.274c.843.348 1.612 1.461 1.289 3.058 0 0-1.332-.506-2.289-.238.001-.015-1.278-1.421-.398-2.546Zm1.623 6.145c-1.375-.567-2.091-1.317-1.98-1.584.11-.267 1.147-.295 2.521.273 1.375.567 2.088 1.316 1.977 1.585-.111.27-1.146.293-2.518-.274Zm3.423-1.695c-.489-.865-1.79-1.446-1.79-1.446.887-1.363 2.215-1.596 3.058-1.248a1.148 1.148 0 0 1 .787 1.192c-.165 1.405-2.055 1.502-2.055 1.502Z"/></g><g filter="url(#F)"><g filter="url(#G)"><circle cx="88.755" cy="258.664" r="6.809" fill="#272727" transform="rotate(-15.683 88.755 258.664)"/></g><path fill="#fff" d="M92.297 260.498a1.639 1.639 0 0 0-1.195-.324c-.281-.237-1.501-1.318-1.826-2.474l1.149-.323-.032-.172c-.007-.026-.132-.642-1.162-.805.092-.27.103-.561.03-.838a1.225 1.225 0 1 0-2.36.663c.088.274.254.515.478.695-.794.675-.583 1.267-.576 1.293l.063.163 1.151-.323c.325 1.157-.157 2.715-.271 3.064a1.634 1.634 0 0 0-.877.905c-.129.4-.108.832.058 1.217l.07.145 5.891-1.654-.016-.16a1.707 1.707 0 0 0-.575-1.072Zm-4.504-3.437.234-.173-.262-.147a1.16 1.16 0 0 1-.497-.633.84.84 0 0 1 .907-1.107.836.836 0 0 1 .71.653 1.18 1.18 0 0 1-.103.801l-.15.263.304.022c.595.042.865.23.983.369l-2.774.779c.029-.181.162-.481.648-.827Zm-.563 5.847a1.268 1.268 0 0 1 .004-.773 1.3 1.3 0 0 1 .733-.704l.07-.034.027-.073c.03-.078.707-1.949.307-3.37l.525-.147c.399 1.421 1.953 2.665 2.019 2.717l.061.048.078-.008a1.3 1.3 0 0 1 .992.231c.2.173.343.404.406.661l-5.221 1.452Z"/></g><g filter="url(#H)"><g filter="url(#I)"><circle cx="64.125" cy="251.316" r="6.809" fill="#272727" transform="rotate(37.118 64.125 251.316)"/></g><path fill="#fff" d="m65.04 254.572.297-.391-.093-1.231 1.266-1.673 1.116.06 1.2-1.586-1.151-.871-.526.695-.63-.477.526-.695-1.064-.805-.526.695-.608-.46.526-.695-1.151-.871-1.2 1.585.36 1.059-1.265 1.672-1.21.245-.296.391-1.004.197-.805 1.064 5.516 4.175.806-1.064-.083-1.019Zm-.472 1.076-.313.413-4.864-3.682.312-.412 4.865 3.681Zm.988-6.766.526-.695.412.312-.525.695 1.28.97.527-.695.478.361-.773 1.021-3.93-2.975.772-1.02.477.361-.525.695 1.28.97Zm-.726 4.028.062.866-3.475-2.63.85-.176 2.563 1.94Zm1.272-1.771-1.069 1.412-2.476-1.874 1.069-1.411 2.476 1.873Zm.703-.253-.413-.04-2.563-1.939-.15-.387 3.126 2.366Zm-5.967.71.164-.217 3.779 2.86-.165.217.073.806-4.647-3.517.796-.149Z"/></g><defs><filter id="t" width="17.811" height="17.811" x="118.331" y="246.858" color-interpolation-filters="sRGB" filterUnits="userSpaceOnUse"><feFlood flood-opacity="0" result="BackgroundImageFix"/><feColorMatrix in="SourceAlpha" result="hardAlpha" values="0 0 0 0 0 0 0 0 0 0 0 0 0 0 0 0 0 0 127 0"/><feOffset dy="1.048"/><feGaussianBlur stdDeviation="1.048"/><feColorMatrix values="0 0 0 0 0 0 0 0 0 0 0 0 0 0 0 0 0 0 0.075 0"/><feBlend in2="BackgroundImageFix" result="effect1_dropShadow_8401_17885"/><feBlend in="SourceGraphic" in2="effect1_dropShadow_8401_17885" result="shape"/></filter><filter id="a" width="266.82" height="271.676" x="71.357" y=".327" color-interpolation-filters="sRGB" filterUnits="userSpaceOnUse"><feFlood flood-opacity="0" result="BackgroundImageFix"/><feColorMatrix in="SourceAlpha" result="hardAlpha" values="0 0 0 0 0 0 0 0 0 0 0 0 0 0 0 0 0 0 127 0"/><feOffset dy="-3.666"/><feGaussianBlur stdDeviation="1.571"/><feColorMatrix values="0 0 0 0 0 0 0 0 0 0 0 0 0 0 0 0 0 0 0.1 0"/><feBlend in2="BackgroundImageFix" result="effect1_dropShadow_8401_17885"/><feBlend in="SourceGraphic" in2="effect1_dropShadow_8401_17885" result="shape"/></filter><filter id="e" width="13.617" height="14.521" x="79.242" y="239.646" color-interpolation-filters="sRGB" filterUnits="userSpaceOnUse"><feFlood flood-opacity="0" result="BackgroundImageFix"/><feBlend in="SourceGraphic" in2="BackgroundImageFix" result="shape"/><feColorMatrix in="SourceAlpha" result="hardAlpha" values="0 0 0 0 0 0 0 0 0 0 0 0 0 0 0 0 0 0 127 0"/><feOffset dy="-.451"/><feGaussianBlur stdDeviation=".451"/><feComposite in2="hardAlpha" k2="-1" k3="1" operator="arithmetic"/><feColorMatrix values="0 0 0 0 0 0 0 0 0 0 0 0 0 0 0 0 0 0 0.5 0"/><feBlend in2="shape" result="effect1_innerShadow_8401_17885"/><feColorMatrix in="SourceAlpha" result="hardAlpha" values="0 0 0 0 0 0 0 0 0 0 0 0 0 0 0 0 0 0 127 0"/><feOffset dy=".451"/><feGaussianBlur stdDeviation=".451"/><feComposite in2="hardAlpha" k2="-1" k3="1" operator="arithmetic"/><feColorMatrix values="0 0 0 0 1 0 0 0 0 1 0 0 0 0 1 0 0 0 0.4 0"/><feBlend in2="effect1_innerShadow_8401_17885" result="effect2_innerShadow_8401_17885"/></filter><filter id="f" width="17.811" height="17.809" x="100.362" y="234.651" color-interpolation-filters="sRGB" filterUnits="userSpaceOnUse"><feFlood flood-opacity="0" result="BackgroundImageFix"/><feColorMatrix in="SourceAlpha" result="hardAlpha" values="0 0 0 0 0 0 0 0 0 0 0 0 0 0 0 0 0 0 127 0"/><feOffset dy="1.048"/><feGaussianBlur stdDeviation="1.048"/><feColorMatrix values="0 0 0 0 0 0 0 0 0 0 0 0 0 0 0 0 0 0 0.075 0"/><feBlend in2="BackgroundImageFix" result="effect1_dropShadow_8401_17885"/><feBlend in="SourceGraphic" in2="effect1_dropShadow_8401_17885" result="shape"/></filter><filter id="g" width="13.621" height="14.521" x="102.457" y="235.247" color-interpolation-filters="sRGB" filterUnits="userSpaceOnUse"><feFlood flood-opacity="0" result="BackgroundImageFix"/><feBlend in="SourceGraphic" in2="BackgroundImageFix" result="shape"/><feColorMatrix in="SourceAlpha" result="hardAlpha" values="0 0 0 0 0 0 0 0 0 0 0 0 0 0 0 0 0 0 127 0"/><feOffset dy="-.451"/><feGaussianBlur stdDeviation=".451"/><feComposite in2="hardAlpha" k2="-1" k3="1" operator="arithmetic"/><feColorMatrix values="0 0 0 0 0 0 0 0 0 0 0 0 0 0 0 0 0 0 0.5 0"/><feBlend in2="shape" result="effect1_innerShadow_8401_17885"/><feColorMatrix in="SourceAlpha" result="hardAlpha" values="0 0 0 0 0 0 0 0 0 0 0 0 0 0 0 0 0 0 127 0"/><feOffset dy=".451"/><feGaussianBlur stdDeviation=".451"/><feComposite in2="hardAlpha" k2="-1" k3="1" operator="arithmetic"/><feColorMatrix values="0 0 0 0 1 0 0 0 0 1 0 0 0 0 1 0 0 0 0.4 0"/><feBlend in2="effect1_innerShadow_8401_17885" result="effect2_innerShadow_8401_17885"/></filter><filter id="h" width="17.811" height="17.81" x="73.467" y="265.375" color-interpolation-filters="sRGB" filterUnits="userSpaceOnUse"><feFlood flood-opacity="0" result="BackgroundImageFix"/><feColorMatrix in="SourceAlpha" result="hardAlpha" values="0 0 0 0 0 0 0 0 0 0 0 0 0 0 0 0 0 0 127 0"/><feOffset dy="1.048"/><feGaussianBlur stdDeviation="1.048"/><feColorMatrix values="0 0 0 0 0 0 0 0 0 0 0 0 0 0 0 0 0 0 0.075 0"/><feBlend in2="BackgroundImageFix" result="effect1_dropShadow_8401_17885"/><feBlend in="SourceGraphic" in2="effect1_dropShadow_8401_17885" result="shape"/></filter><filter id="i" width="13.621" height="14.522" x="75.563" y="265.972" color-interpolation-filters="sRGB" filterUnits="userSpaceOnUse"><feFlood flood-opacity="0" result="BackgroundImageFix"/><feBlend in="SourceGraphic" in2="BackgroundImageFix" result="shape"/><feColorMatrix in="SourceAlpha" result="hardAlpha" values="0 0 0 0 0 0 0 0 0 0 0 0 0 0 0 0 0 0 127 0"/><feOffset dy="-.451"/><feGaussianBlur stdDeviation=".451"/><feComposite in2="hardAlpha" k2="-1" k3="1" operator="arithmetic"/><feColorMatrix values="0 0 0 0 0 0 0 0 0 0 0 0 0 0 0 0 0 0 0.5 0"/><feBlend in2="shape" result="effect1_innerShadow_8401_17885"/><feColorMatrix in="SourceAlpha" result="hardAlpha" values="0 0 0 0 0 0 0 0 0 0 0 0 0 0 0 0 0 0 127 0"/><feOffset dy=".451"/><feGaussianBlur stdDeviation=".451"/><feComposite in2="hardAlpha" k2="-1" k3="1" operator="arithmetic"/><feColorMatrix values="0 0 0 0 1 0 0 0 0 1 0 0 0 0 1 0 0 0 0.4 0"/><feBlend in2="effect1_innerShadow_8401_17885" result="effect2_innerShadow_8401_17885"/></filter><filter id="j" width="17.811" height="17.811" x="92.659" y="254.704" color-interpolation-filters="sRGB" filterUnits="userSpaceOnUse"><feFlood flood-opacity="0" result="BackgroundImageFix"/><feColorMatrix in="SourceAlpha" result="hardAlpha" values="0 0 0 0 0 0 0 0 0 0 0 0 0 0 0 0 0 0 127 0"/><feOffset dy="1.048"/><feGaussianBlur stdDeviation="1.048"/><feColorMatrix values="0 0 0 0 0 0 0 0 0 0 0 0 0 0 0 0 0 0 0.075 0"/><feBlend in2="BackgroundImageFix" result="effect1_dropShadow_8401_17885"/><feBlend in="SourceGraphic" in2="effect1_dropShadow_8401_17885" result="shape"/></filter><filter id="k" width="13.621" height="14.523" x="94.754" y="255.3" color-interpolation-filters="sRGB" filterUnits="userSpaceOnUse"><feFlood flood-opacity="0" result="BackgroundImageFix"/><feBlend in="SourceGraphic" in2="BackgroundImageFix" result="shape"/><feColorMatrix in="SourceAlpha" result="hardAlpha" values="0 0 0 0 0 0 0 0 0 0 0 0 0 0 0 0 0 0 127 0"/><feOffset dy="-.451"/><feGaussianBlur stdDeviation=".451"/><feComposite in2="hardAlpha" k2="-1" k3="1" operator="arithmetic"/><feColorMatrix values="0 0 0 0 0 0 0 0 0 0 0 0 0 0 0 0 0 0 0.5 0"/><feBlend in2="shape" result="effect1_innerShadow_8401_17885"/><feColorMatrix in="SourceAlpha" result="hardAlpha" values="0 0 0 0 0 0 0 0 0 0 0 0 0 0 0 0 0 0 127 0"/><feOffset dy=".451"/><feGaussianBlur stdDeviation=".451"/><feComposite in2="hardAlpha" k2="-1" k3="1" operator="arithmetic"/><feColorMatrix values="0 0 0 0 1 0 0 0 0 1 0 0 0 0 1 0 0 0 0.4 0"/><feBlend in2="effect1_innerShadow_8401_17885" result="effect2_innerShadow_8401_17885"/></filter><filter id="l" width="17.811" height="17.812" x="105.991" y="259.664" color-interpolation-filters="sRGB" filterUnits="userSpaceOnUse"><feFlood flood-opacity="0" result="BackgroundImageFix"/><feColorMatrix in="SourceAlpha" result="hardAlpha" values="0 0 0 0 0 0 0 0 0 0 0 0 0 0 0 0 0 0 127 0"/><feOffset dy="1.048"/><feGaussianBlur stdDeviation="1.048"/><feColorMatrix values="0 0 0 0 0 0 0 0 0 0 0 0 0 0 0 0 0 0 0.075 0"/><feBlend in2="BackgroundImageFix" result="effect1_dropShadow_8401_17885"/><feBlend in="SourceGraphic" in2="effect1_dropShadow_8401_17885" result="shape"/></filter><filter id="m" width="13.621" height="14.524" x="108.086" y="260.261" color-interpolation-filters="sRGB" filterUnits="userSpaceOnUse"><feFlood flood-opacity="0" result="BackgroundImageFix"/><feBlend in="SourceGraphic" in2="BackgroundImageFix" result="shape"/><feColorMatrix in="SourceAlpha" result="hardAlpha" values="0 0 0 0 0 0 0 0 0 0 0 0 0 0 0 0 0 0 127 0"/><feOffset dy="-.451"/><feGaussianBlur stdDeviation=".451"/><feComposite in2="hardAlpha" k2="-1" k3="1" operator="arithmetic"/><feColorMatrix values="0 0 0 0 0 0 0 0 0 0 0 0 0 0 0 0 0 0 0.5 0"/><feBlend in2="shape" result="effect1_innerShadow_8401_17885"/><feColorMatrix in="SourceAlpha" result="hardAlpha" values="0 0 0 0 0 0 0 0 0 0 0 0 0 0 0 0 0 0 127 0"/><feOffset dy=".451"/><feGaussianBlur stdDeviation=".451"/><feComposite in2="hardAlpha" k2="-1" k3="1" operator="arithmetic"/><feColorMatrix values="0 0 0 0 1 0 0 0 0 1 0 0 0 0 1 0 0 0 0.4 0"/><feBlend in2="effect1_innerShadow_8401_17885" result="effect2_innerShadow_8401_17885"/></filter><filter id="n" width="17.811" height="17.81" x="135.323" y="230.33" color-interpolation-filters="sRGB" filterUnits="userSpaceOnUse"><feFlood flood-opacity="0" result="BackgroundImageFix"/><feColorMatrix in="SourceAlpha" result="hardAlpha" values="0 0 0 0 0 0 0 0 0 0 0 0 0 0 0 0 0 0 127 0"/><feOffset dy="1.048"/><feGaussianBlur stdDeviation="1.048"/><feColorMatrix values="0 0 0 0 0 0 0 0 0 0 0 0 0 0 0 0 0 0 0.075 0"/><feBlend in2="BackgroundImageFix" result="effect1_dropShadow_8401_17885"/><feBlend in="SourceGraphic" in2="effect1_dropShadow_8401_17885" result="shape"/></filter><filter id="o" width="13.621" height="14.522" x="137.418" y="230.926" color-interpolation-filters="sRGB" filterUnits="userSpaceOnUse"><feFlood flood-opacity="0" result="BackgroundImageFix"/><feBlend in="SourceGraphic" in2="BackgroundImageFix" result="shape"/><feColorMatrix in="SourceAlpha" result="hardAlpha" values="0 0 0 0 0 0 0 0 0 0 0 0 0 0 0 0 0 0 127 0"/><feOffset dy="-.451"/><feGaussianBlur stdDeviation=".451"/><feComposite in2="hardAlpha" k2="-1" k3="1" operator="arithmetic"/><feColorMatrix values="0 0 0 0 0 0 0 0 0 0 0 0 0 0 0 0 0 0 0.5 0"/><feBlend in2="shape" result="effect1_innerShadow_8401_17885"/><feColorMatrix in="SourceAlpha" result="hardAlpha" values="0 0 0 0 0 0 0 0 0 0 0 0 0 0 0 0 0 0 127 0"/><feOffset dy=".451"/><feGaussianBlur stdDeviation=".451"/><feComposite in2="hardAlpha" k2="-1" k3="1" operator="arithmetic"/><feColorMatrix values="0 0 0 0 1 0 0 0 0 1 0 0 0 0 1 0 0 0 0.4 0"/><feBlend in2="effect1_innerShadow_8401_17885" result="effect2_innerShadow_8401_17885"/></filter><filter id="p" width="17.811" height="17.811" x="130.971" y="261.076" color-interpolation-filters="sRGB" filterUnits="userSpaceOnUse"><feFlood flood-opacity="0" result="BackgroundImageFix"/><feColorMatrix in="SourceAlpha" result="hardAlpha" values="0 0 0 0 0 0 0 0 0 0 0 0 0 0 0 0 0 0 127 0"/><feOffset dy="1.048"/><feGaussianBlur stdDeviation="1.048"/><feColorMatrix values="0 0 0 0 0 0 0 0 0 0 0 0 0 0 0 0 0 0 0.075 0"/><feBlend in2="BackgroundImageFix" result="effect1_dropShadow_8401_17885"/><feBlend in="SourceGraphic" in2="effect1_dropShadow_8401_17885" result="shape"/></filter><filter id="q" width="13.621" height="14.523" x="133.066" y="261.673" color-interpolation-filters="sRGB" filterUnits="userSpaceOnUse"><feFlood flood-opacity="0" result="BackgroundImageFix"/><feBlend in="SourceGraphic" in2="BackgroundImageFix" result="shape"/><feColorMatrix in="SourceAlpha" result="hardAlpha" values="0 0 0 0 0 0 0 0 0 0 0 0 0 0 0 0 0 0 127 0"/><feOffset dy="-.451"/><feGaussianBlur stdDeviation=".451"/><feComposite in2="hardAlpha" k2="-1" k3="1" operator="arithmetic"/><feColorMatrix values="0 0 0 0 0 0 0 0 0 0 0 0 0 0 0 0 0 0 0.5 0"/><feBlend in2="shape" result="effect1_innerShadow_8401_17885"/><feColorMatrix in="SourceAlpha" result="hardAlpha" values="0 0 0 0 0 0 0 0 0 0 0 0 0 0 0 0 0 0 127 0"/><feOffset dy=".451"/><feGaussianBlur stdDeviation=".451"/><feComposite in2="hardAlpha" k2="-1" k3="1" operator="arithmetic"/><feColorMatrix values="0 0 0 0 1 0 0 0 0 1 0 0 0 0 1 0 0 0 0.4 0"/><feBlend in2="effect1_innerShadow_8401_17885" result="effect2_innerShadow_8401_17885"/></filter><filter id="r" width="17.811" height="17.81" x="149.256" y="256.838" color-interpolation-filters="sRGB" filterUnits="userSpaceOnUse"><feFlood flood-opacity="0" result="BackgroundImageFix"/><feColorMatrix in="SourceAlpha" result="hardAlpha" values="0 0 0 0 0 0 0 0 0 0 0 0 0 0 0 0 0 0 127 0"/><feOffset dy="1.048"/><feGaussianBlur stdDeviation="1.048"/><feColorMatrix values="0 0 0 0 0 0 0 0 0 0 0 0 0 0 0 0 0 0 0.075 0"/><feBlend in2="BackgroundImageFix" result="effect1_dropShadow_8401_17885"/><feBlend in="SourceGraphic" in2="effect1_dropShadow_8401_17885" result="shape"/></filter><filter id="s" width="13.621" height="14.522" x="151.352" y="257.434" color-interpolation-filters="sRGB" filterUnits="userSpaceOnUse"><feFlood flood-opacity="0" result="BackgroundImageFix"/><feBlend in="SourceGraphic" in2="BackgroundImageFix" result="shape"/><feColorMatrix in="SourceAlpha" result="hardAlpha" values="0 0 0 0 0 0 0 0 0 0 0 0 0 0 0 0 0 0 127 0"/><feOffset dy="-.451"/><feGaussianBlur stdDeviation=".451"/><feComposite in2="hardAlpha" k2="-1" k3="1" operator="arithmetic"/><feColorMatrix values="0 0 0 0 0 0 0 0 0 0 0 0 0 0 0 0 0 0 0.5 0"/><feBlend in2="shape" result="effect1_innerShadow_8401_17885"/><feColorMatrix in="SourceAlpha" result="hardAlpha" values="0 0 0 0 0 0 0 0 0 0 0 0 0 0 0 0 0 0 127 0"/><feOffset dy=".451"/><feGaussianBlur stdDeviation=".451"/><feComposite in2="hardAlpha" k2="-1" k3="1" operator="arithmetic"/><feColorMatrix values="0 0 0 0 1 0 0 0 0 1 0 0 0 0 1 0 0 0 0.4 0"/><feBlend in2="effect1_innerShadow_8401_17885" result="effect2_innerShadow_8401_17885"/></filter><filter id="d" width="17.807" height="17.808" x="77.147" y="239.049" color-interpolation-filters="sRGB" filterUnits="userSpaceOnUse"><feFlood flood-opacity="0" result="BackgroundImageFix"/><feColorMatrix in="SourceAlpha" result="hardAlpha" values="0 0 0 0 0 0 0 0 0 0 0 0 0 0 0 0 0 0 127 0"/><feOffset dy="1.048"/><feGaussianBlur stdDeviation="1.048"/><feColorMatrix values="0 0 0 0 0 0 0 0 0 0 0 0 0 0 0 0 0 0 0.075 0"/><feBlend in2="BackgroundImageFix" result="effect1_dropShadow_8401_17885"/><feBlend in="SourceGraphic" in2="effect1_dropShadow_8401_17885" result="shape"/></filter><filter id="u" width="13.621" height="14.529" x="120.426" y="247.452" color-interpolation-filters="sRGB" filterUnits="userSpaceOnUse"><feFlood flood-opacity="0" result="BackgroundImageFix"/><feBlend in="SourceGraphic" in2="BackgroundImageFix" result="shape"/><feColorMatrix in="SourceAlpha" result="hardAlpha" values="0 0 0 0 0 0 0 0 0 0 0 0 0 0 0 0 0 0 127 0"/><feOffset dy="-.454"/><feGaussianBlur stdDeviation=".454"/><feComposite in2="hardAlpha" k2="-1" k3="1" operator="arithmetic"/><feColorMatrix values="0 0 0 0 0 0 0 0 0 0 0 0 0 0 0 0 0 0 0.5 0"/><feBlend in2="shape" result="effect1_innerShadow_8401_17885"/><feColorMatrix in="SourceAlpha" result="hardAlpha" values="0 0 0 0 0 0 0 0 0 0 0 0 0 0 0 0 0 0 127 0"/><feOffset dy=".454"/><feGaussianBlur stdDeviation=".454"/><feComposite in2="hardAlpha" k2="-1" k3="1" operator="arithmetic"/><feColorMatrix values="0 0 0 0 1 0 0 0 0 1 0 0 0 0 1 0 0 0 0.4 0"/><feBlend in2="effect1_innerShadow_8401_17885" result="effect2_innerShadow_8401_17885"/></filter><filter id="v" width="17.811" height="17.81" x="132.749" y="246.09" color-interpolation-filters="sRGB" filterUnits="userSpaceOnUse"><feFlood flood-opacity="0" result="BackgroundImageFix"/><feColorMatrix in="SourceAlpha" result="hardAlpha" values="0 0 0 0 0 0 0 0 0 0 0 0 0 0 0 0 0 0 127 0"/><feOffset dy="1.048"/><feGaussianBlur stdDeviation="1.048"/><feColorMatrix values="0 0 0 0 0 0 0 0 0 0 0 0 0 0 0 0 0 0 0.075 0"/><feBlend in2="BackgroundImageFix" result="effect1_dropShadow_8401_17885"/><feBlend in="SourceGraphic" in2="effect1_dropShadow_8401_17885" result="shape"/></filter><filter id="w" width="13.621" height="14.527" x="134.844" y="246.683" color-interpolation-filters="sRGB" filterUnits="userSpaceOnUse"><feFlood flood-opacity="0" result="BackgroundImageFix"/><feBlend in="SourceGraphic" in2="BackgroundImageFix" result="shape"/><feColorMatrix in="SourceAlpha" result="hardAlpha" values="0 0 0 0 0 0 0 0 0 0 0 0 0 0 0 0 0 0 127 0"/><feOffset dy="-.454"/><feGaussianBlur stdDeviation=".454"/><feComposite in2="hardAlpha" k2="-1" k3="1" operator="arithmetic"/><feColorMatrix values="0 0 0 0 0 0 0 0 0 0 0 0 0 0 0 0 0 0 0.5 0"/><feBlend in2="shape" result="effect1_innerShadow_8401_17885"/><feColorMatrix in="SourceAlpha" result="hardAlpha" values="0 0 0 0 0 0 0 0 0 0 0 0 0 0 0 0 0 0 127 0"/><feOffset dy=".454"/><feGaussianBlur stdDeviation=".454"/><feComposite in2="hardAlpha" k2="-1" k3="1" operator="arithmetic"/><feColorMatrix values="0 0 0 0 1 0 0 0 0 1 0 0 0 0 1 0 0 0 0.4 0"/><feBlend in2="effect1_innerShadow_8401_17885" result="effect2_innerShadow_8401_17885"/></filter><filter id="x" width="17.811" height="17.812" x="121.792" y="267.077" color-interpolation-filters="sRGB" filterUnits="userSpaceOnUse"><feFlood flood-opacity="0" result="BackgroundImageFix"/><feColorMatrix in="SourceAlpha" result="hardAlpha" values="0 0 0 0 0 0 0 0 0 0 0 0 0 0 0 0 0 0 127 0"/><feOffset dy="1.048"/><feGaussianBlur stdDeviation="1.048"/><feColorMatrix values="0 0 0 0 0 0 0 0 0 0 0 0 0 0 0 0 0 0 0.075 0"/><feBlend in2="BackgroundImageFix" result="effect1_dropShadow_8401_17885"/><feBlend in="SourceGraphic" in2="effect1_dropShadow_8401_17885" result="shape"/></filter><filter id="y" width="13.621" height="14.529" x="123.887" y="267.671" color-interpolation-filters="sRGB" filterUnits="userSpaceOnUse"><feFlood flood-opacity="0" result="BackgroundImageFix"/><feBlend in="SourceGraphic" in2="BackgroundImageFix" result="shape"/><feColorMatrix in="SourceAlpha" result="hardAlpha" values="0 0 0 0 0 0 0 0 0 0 0 0 0 0 0 0 0 0 127 0"/><feOffset dy="-.454"/><feGaussianBlur stdDeviation=".454"/><feComposite in2="hardAlpha" k2="-1" k3="1" operator="arithmetic"/><feColorMatrix values="0 0 0 0 0 0 0 0 0 0 0 0 0 0 0 0 0 0 0.5 0"/><feBlend in2="shape" result="effect1_innerShadow_8401_17885"/><feColorMatrix in="SourceAlpha" result="hardAlpha" values="0 0 0 0 0 0 0 0 0 0 0 0 0 0 0 0 0 0 127 0"/><feOffset dy=".454"/><feGaussianBlur stdDeviation=".454"/><feComposite in2="hardAlpha" k2="-1" k3="1" operator="arithmetic"/><feColorMatrix values="0 0 0 0 1 0 0 0 0 1 0 0 0 0 1 0 0 0 0.4 0"/><feBlend in2="effect1_innerShadow_8401_17885" result="effect2_innerShadow_8401_17885"/></filter><filter id="z" width="17.811" height="17.811" x="161.022" y="236.649" color-interpolation-filters="sRGB" filterUnits="userSpaceOnUse"><feFlood flood-opacity="0" result="BackgroundImageFix"/><feColorMatrix in="SourceAlpha" result="hardAlpha" values="0 0 0 0 0 0 0 0 0 0 0 0 0 0 0 0 0 0 127 0"/><feOffset dy="1.048"/><feGaussianBlur stdDeviation="1.048"/><feColorMatrix values="0 0 0 0 0 0 0 0 0 0 0 0 0 0 0 0 0 0 0.075 0"/><feBlend in2="BackgroundImageFix" result="effect1_dropShadow_8401_17885"/><feBlend in="SourceGraphic" in2="effect1_dropShadow_8401_17885" result="shape"/></filter><filter id="A" width="13.621" height="14.529" x="163.117" y="237.243" color-interpolation-filters="sRGB" filterUnits="userSpaceOnUse"><feFlood flood-opacity="0" result="BackgroundImageFix"/><feBlend in="SourceGraphic" in2="BackgroundImageFix" result="shape"/><feColorMatrix in="SourceAlpha" result="hardAlpha" values="0 0 0 0 0 0 0 0 0 0 0 0 0 0 0 0 0 0 127 0"/><feOffset dy="-.454"/><feGaussianBlur stdDeviation=".454"/><feComposite in2="hardAlpha" k2="-1" k3="1" operator="arithmetic"/><feColorMatrix values="0 0 0 0 0 0 0 0 0 0 0 0 0 0 0 0 0 0 0.5 0"/><feBlend in2="shape" result="effect1_innerShadow_8401_17885"/><feColorMatrix in="SourceAlpha" result="hardAlpha" values="0 0 0 0 0 0 0 0 0 0 0 0 0 0 0 0 0 0 127 0"/><feOffset dy=".454"/><feGaussianBlur stdDeviation=".454"/><feComposite in2="hardAlpha" k2="-1" k3="1" operator="arithmetic"/><feColorMatrix values="0 0 0 0 1 0 0 0 0 1 0 0 0 0 1 0 0 0 0.4 0"/><feBlend in2="effect1_innerShadow_8401_17885" result="effect2_innerShadow_8401_17885"/></filter><filter id="B" width="17.815" height="17.812" x="165.256" y="251.879" color-interpolation-filters="sRGB" filterUnits="userSpaceOnUse"><feFlood flood-opacity="0" result="BackgroundImageFix"/><feColorMatrix in="SourceAlpha" result="hardAlpha" values="0 0 0 0 0 0 0 0 0 0 0 0 0 0 0 0 0 0 127 0"/><feOffset dy="1.048"/><feGaussianBlur stdDeviation="1.048"/><feColorMatrix values="0 0 0 0 0 0 0 0 0 0 0 0 0 0 0 0 0 0 0.075 0"/><feBlend in2="BackgroundImageFix" result="effect1_dropShadow_8401_17885"/><feBlend in="SourceGraphic" in2="effect1_dropShadow_8401_17885" result="shape"/></filter><filter id="C" width="13.625" height="14.53" x="167.352" y="252.473" color-interpolation-filters="sRGB" filterUnits="userSpaceOnUse"><feFlood flood-opacity="0" result="BackgroundImageFix"/><feBlend in="SourceGraphic" in2="BackgroundImageFix" result="shape"/><feColorMatrix in="SourceAlpha" result="hardAlpha" values="0 0 0 0 0 0 0 0 0 0 0 0 0 0 0 0 0 0 127 0"/><feOffset dy="-.454"/><feGaussianBlur stdDeviation=".454"/><feComposite in2="hardAlpha" k2="-1" k3="1" operator="arithmetic"/><feColorMatrix values="0 0 0 0 0 0 0 0 0 0 0 0 0 0 0 0 0 0 0.5 0"/><feBlend in2="shape" result="effect1_innerShadow_8401_17885"/><feColorMatrix in="SourceAlpha" result="hardAlpha" values="0 0 0 0 0 0 0 0 0 0 0 0 0 0 0 0 0 0 127 0"/><feOffset dy=".454"/><feGaussianBlur stdDeviation=".454"/><feComposite in2="hardAlpha" k2="-1" k3="1" operator="arithmetic"/><feColorMatrix values="0 0 0 0 1 0 0 0 0 1 0 0 0 0 1 0 0 0 0.4 0"/><feBlend in2="effect1_innerShadow_8401_17885" result="effect2_innerShadow_8401_17885"/></filter><filter id="D" width="17.811" height="17.812" x="157.346" y="267.539" color-interpolation-filters="sRGB" filterUnits="userSpaceOnUse"><feFlood flood-opacity="0" result="BackgroundImageFix"/><feColorMatrix in="SourceAlpha" result="hardAlpha" values="0 0 0 0 0 0 0 0 0 0 0 0 0 0 0 0 0 0 127 0"/><feOffset dy="1.048"/><feGaussianBlur stdDeviation="1.048"/><feColorMatrix values="0 0 0 0 0 0 0 0 0 0 0 0 0 0 0 0 0 0 0.075 0"/><feBlend in2="BackgroundImageFix" result="effect1_dropShadow_8401_17885"/><feBlend in="SourceGraphic" in2="effect1_dropShadow_8401_17885" result="shape"/></filter><filter id="E" width="13.621" height="14.53" x="159.441" y="268.133" color-interpolation-filters="sRGB" filterUnits="userSpaceOnUse"><feFlood flood-opacity="0" result="BackgroundImageFix"/><feBlend in="SourceGraphic" in2="BackgroundImageFix" result="shape"/><feColorMatrix in="SourceAlpha" result="hardAlpha" values="0 0 0 0 0 0 0 0 0 0 0 0 0 0 0 0 0 0 127 0"/><feOffset dy="-.454"/><feGaussianBlur stdDeviation=".454"/><feComposite in2="hardAlpha" k2="-1" k3="1" operator="arithmetic"/><feColorMatrix values="0 0 0 0 0 0 0 0 0 0 0 0 0 0 0 0 0 0 0.5 0"/><feBlend in2="shape" result="effect1_innerShadow_8401_17885"/><feColorMatrix in="SourceAlpha" result="hardAlpha" values="0 0 0 0 0 0 0 0 0 0 0 0 0 0 0 0 0 0 127 0"/><feOffset dy=".454"/><feGaussianBlur stdDeviation=".454"/><feComposite in2="hardAlpha" k2="-1" k3="1" operator="arithmetic"/><feColorMatrix values="0 0 0 0 1 0 0 0 0 1 0 0 0 0 1 0 0 0 0.4 0"/><feBlend in2="effect1_innerShadow_8401_17885" result="effect2_innerShadow_8401_17885"/></filter><filter id="F" width="17.811" height="17.812" x="79.85" y="250.806" color-interpolation-filters="sRGB" filterUnits="userSpaceOnUse"><feFlood flood-opacity="0" result="BackgroundImageFix"/><feColorMatrix in="SourceAlpha" result="hardAlpha" values="0 0 0 0 0 0 0 0 0 0 0 0 0 0 0 0 0 0 127 0"/><feOffset dy="1.048"/><feGaussianBlur stdDeviation="1.048"/><feColorMatrix values="0 0 0 0 0 0 0 0 0 0 0 0 0 0 0 0 0 0 0.075 0"/><feBlend in2="BackgroundImageFix" result="effect1_dropShadow_8401_17885"/><feBlend in="SourceGraphic" in2="effect1_dropShadow_8401_17885" result="shape"/></filter><filter id="G" width="13.621" height="14.529" x="81.945" y="251.4" color-interpolation-filters="sRGB" filterUnits="userSpaceOnUse"><feFlood flood-opacity="0" result="BackgroundImageFix"/><feBlend in="SourceGraphic" in2="BackgroundImageFix" result="shape"/><feColorMatrix in="SourceAlpha" result="hardAlpha" values="0 0 0 0 0 0 0 0 0 0 0 0 0 0 0 0 0 0 127 0"/><feOffset dy="-.454"/><feGaussianBlur stdDeviation=".454"/><feComposite in2="hardAlpha" k2="-1" k3="1" operator="arithmetic"/><feColorMatrix values="0 0 0 0 0 0 0 0 0 0 0 0 0 0 0 0 0 0 0.5 0"/><feBlend in2="shape" result="effect1_innerShadow_8401_17885"/><feColorMatrix in="SourceAlpha" result="hardAlpha" values="0 0 0 0 0 0 0 0 0 0 0 0 0 0 0 0 0 0 127 0"/><feOffset dy=".454"/><feGaussianBlur stdDeviation=".454"/><feComposite in2="hardAlpha" k2="-1" k3="1" operator="arithmetic"/><feColorMatrix values="0 0 0 0 1 0 0 0 0 1 0 0 0 0 1 0 0 0 0.4 0"/><feBlend in2="effect1_innerShadow_8401_17885" result="effect2_innerShadow_8401_17885"/></filter><filter id="H" width="17.807" height="17.809" x="55.221" y="243.459" color-interpolation-filters="sRGB" filterUnits="userSpaceOnUse"><feFlood flood-opacity="0" result="BackgroundImageFix"/><feColorMatrix in="SourceAlpha" result="hardAlpha" values="0 0 0 0 0 0 0 0 0 0 0 0 0 0 0 0 0 0 127 0"/><feOffset dy="1.048"/><feGaussianBlur stdDeviation="1.048"/><feColorMatrix values="0 0 0 0 0 0 0 0 0 0 0 0 0 0 0 0 0 0 0.075 0"/><feBlend in2="BackgroundImageFix" result="effect1_dropShadow_8401_17885"/><feBlend in="SourceGraphic" in2="effect1_dropShadow_8401_17885" result="shape"/></filter><filter id="I" width="13.617" height="14.527" x="57.316" y="244.052" color-interpolation-filters="sRGB" filterUnits="userSpaceOnUse"><feFlood flood-opacity="0" result="BackgroundImageFix"/><feBlend in="SourceGraphic" in2="BackgroundImageFix" result="shape"/><feColorMatrix in="SourceAlpha" result="hardAlpha" values="0 0 0 0 0 0 0 0 0 0 0 0 0 0 0 0 0 0 127 0"/><feOffset dy="-.454"/><feGaussianBlur stdDeviation=".454"/><feComposite in2="hardAlpha" k2="-1" k3="1" operator="arithmetic"/><feColorMatrix values="0 0 0 0 0 0 0 0 0 0 0 0 0 0 0 0 0 0 0.5 0"/><feBlend in2="shape" result="effect1_innerShadow_8401_17885"/><feColorMatrix in="SourceAlpha" result="hardAlpha" values="0 0 0 0 0 0 0 0 0 0 0 0 0 0 0 0 0 0 127 0"/><feOffset dy=".454"/><feGaussianBlur stdDeviation=".454"/><feComposite in2="hardAlpha" k2="-1" k3="1" operator="arithmetic"/><feColorMatrix values="0 0 0 0 1 0 0 0 0 1 0 0 0 0 1 0 0 0 0.4 0"/><feBlend in2="effect1_innerShadow_8401_17885" result="effect2_innerShadow_8401_17885"/></filter><linearGradient id="c" x1="278.35" x2="278.35" y1="13" y2="202.991" gradientUnits="userSpaceOnUse"><stop stop-color="#654F4D"/><stop offset="1" stop-color="#fff" stop-opacity="0"/></linearGradient><clipPath id="b"><path fill="#fff" d="m194.051 26.094 122.555 91.495L215.48 253.044 92.925 161.55z"/></clipPath></defs></svg>