<svg width="25" height="25" viewBox="0 0 25 25" fill="none" xmlns="http://www.w3.org/2000/svg">
<path d="M19.9375 13.4791C19.9792 13.1666 20 12.8438 20 12.5C20 12.1667 19.9792 11.8333 19.9271 11.5208L22.0417 9.875C22.2292 9.72916 22.2812 9.44791 22.1667 9.23959L20.1667 5.78125C20.0417 5.55209 19.7812 5.47916 19.5521 5.55209L17.0625 6.55209C16.5417 6.15625 15.9896 5.82291 15.375 5.57291L15 2.92709C14.9584 2.67709 14.75 2.5 14.5 2.5H10.5C10.25 2.5 10.0521 2.67709 10.0104 2.92709L9.63544 5.57291C9.02086 5.82291 8.45836 6.16666 7.94794 6.55209L5.45836 5.55209C5.22919 5.46875 4.96878 5.55209 4.84378 5.78125L2.85419 9.23959C2.72919 9.45834 2.77087 9.72916 2.97919 9.875L5.09378 11.5208C5.04169 11.8333 5.00003 12.1771 5.00003 12.5C5.00003 12.8229 5.02086 13.1666 5.07294 13.4791L2.95837 15.125C2.77087 15.2709 2.71878 15.5521 2.83337 15.7604L4.83336 19.2188C4.95836 19.4479 5.21878 19.5209 5.44794 19.4479L7.93753 18.4479C8.45836 18.8437 9.01044 19.1771 9.62503 19.4271L10 22.0729C10.0521 22.3229 10.25 22.5 10.5 22.5H14.5C14.75 22.5 14.9584 22.3229 14.9896 22.0729L15.3646 19.4271C15.9792 19.1771 16.5417 18.8437 17.0521 18.4479L19.5417 19.4479C19.7709 19.5313 20.0312 19.4479 20.1562 19.2188L22.1562 15.7604C22.2812 15.5313 22.2292 15.2709 22.0312 15.125L19.9375 13.4791ZM12.5 16.25C10.4375 16.25 8.75003 14.5625 8.75003 12.5C8.75003 10.4375 10.4375 8.75 12.5 8.75C14.5625 8.75 16.25 10.4375 16.25 12.5C16.25 14.5625 14.5625 16.25 12.5 16.25Z" fill="#FFFBF2"/>
</svg>
