<svg width="20" height="20" viewBox="0 0 21 20" fill="none" xmlns="http://www.w3.org/2000/svg">
<path d="M16.4504 10.7833C16.4837 10.5333 16.5004 10.275 16.5004 10C16.5004 9.73333 16.4837 9.46667 16.4421 9.21667L18.1337 7.9C18.2837 7.78333 18.3254 7.55833 18.2338 7.39167L16.6337 4.625C16.5338 4.44167 16.3254 4.38333 16.1421 4.44167L14.1504 5.24167C13.7337 4.925 13.2921 4.65833 12.8004 4.45833L12.5004 2.34167C12.4671 2.14167 12.3004 2 12.1004 2H8.90042C8.70042 2 8.54208 2.14167 8.50875 2.34167L8.20875 4.45833C7.71708 4.65833 7.26708 4.93333 6.85875 5.24167L4.86708 4.44167C4.68375 4.375 4.47542 4.44167 4.37542 4.625L2.78375 7.39167C2.68375 7.56667 2.71708 7.78333 2.88375 7.9L4.57542 9.21667C4.53375 9.46667 4.50042 9.74167 4.50042 10C4.50042 10.2583 4.51708 10.5333 4.55875 10.7833L2.86708 12.1C2.71708 12.2167 2.67542 12.4417 2.76708 12.6083L4.36708 15.375C4.46708 15.5583 4.67542 15.6167 4.85875 15.5583L6.85042 14.7583C7.26708 15.075 7.70875 15.3417 8.20042 15.5417L8.50042 17.6583C8.54208 17.8583 8.70042 18 8.90042 18H12.1004C12.3004 18 12.4671 17.8583 12.4921 17.6583L12.7921 15.5417C13.2837 15.3417 13.7338 15.075 14.1421 14.7583L16.1337 15.5583C16.3171 15.625 16.5254 15.5583 16.6254 15.375L18.2254 12.6083C18.3254 12.425 18.2837 12.2167 18.1254 12.1L16.4504 10.7833ZM10.5004 13C8.85042 13 7.50042 11.65 7.50042 10C7.50042 8.35 8.85042 7 10.5004 7C12.1504 7 13.5004 8.35 13.5004 10C13.5004 11.65 12.1504 13 10.5004 13Z" fill="#C2352E"/>
</svg>
