<svg width="19" height="19" viewBox="0 0 19 19" fill="none" xmlns="http://www.w3.org/2000/svg">
<path fill-rule="evenodd" clip-rule="evenodd" d="M17.4688 11.0938V7.90625H15.6625C15.5563 7.375 15.2375 6.7375 15.025 6.3125L16.3 5.0375L14.0688 2.80625L12.6875 3.975C12.1562 3.65625 11.625 3.44375 11.0938 3.3375V1.53125H7.90625V3.3375C7.375 3.44375 6.7375 3.7625 6.3125 3.975L5.0375 2.7L2.7 5.0375L3.975 6.3125C3.7625 6.7375 3.44375 7.375 3.3375 7.90625H1.53125V11.0938H3.3375C3.44375 11.625 3.7625 12.2625 3.975 12.6875L2.7 13.9625L4.93125 16.1938L6.3125 15.025C6.84375 15.3437 7.375 15.5563 7.90625 15.6625V17.4688H11.0938V15.6625C11.625 15.5563 12.2625 15.2375 12.6875 15.025L13.9625 16.3L16.1938 14.0688L15.025 12.6875C15.3437 12.1562 15.5563 11.625 15.6625 11.0938H17.4688Z" stroke="#F6F2E9" stroke-width="1.5" stroke-miterlimit="10" stroke-linejoin="bevel"/>
<path fill-rule="evenodd" clip-rule="evenodd" d="M9.5 11.625C8.33125 11.625 7.375 10.6688 7.375 9.5C7.375 8.33125 8.33125 7.375 9.5 7.375C10.6688 7.375 11.625 8.33125 11.625 9.5C11.625 10.6688 10.6688 11.625 9.5 11.625Z" stroke="#F6F2E9" stroke-width="1.5" stroke-miterlimit="10" stroke-linejoin="bevel"/>
</svg>
