<svg width="32" height="33" viewBox="0 0 32 33" fill="none" xmlns="http://www.w3.org/2000/svg">
<g clip-path="url(#clip0_9916_32037)">
<path d="M9.33333 6.16667C9.33333 6.71895 9.78105 7.16667 10.3333 7.16667H11C11.5523 7.16667 12 6.71895 12 6.16667V5.5C12 4.94772 11.5523 4.5 11 4.5H10.3333C9.78105 4.5 9.33333 4.94772 9.33333 5.5V6.16667ZM9.33333 27.5C9.33333 28.0523 9.78105 28.5 10.3333 28.5H11C11.5523 28.5 12 28.0523 12 27.5V26.8333C12 26.281 11.5523 25.8333 11 25.8333H10.3333C9.78105 25.8333 9.33333 26.281 9.33333 26.8333V27.5ZM14.6667 27.5C14.6667 28.0523 15.1144 28.5 15.6667 28.5H16.3333C16.8856 28.5 17.3333 28.0523 17.3333 27.5V26.8333C17.3333 26.281 16.8856 25.8333 16.3333 25.8333H15.6667C15.1144 25.8333 14.6667 26.281 14.6667 26.8333V27.5ZM4 27.5C4 28.0523 4.44772 28.5 5 28.5H5.66667C6.21895 28.5 6.66667 28.0523 6.66667 27.5V26.8333C6.66667 26.281 6.21895 25.8333 5.66667 25.8333H5C4.44772 25.8333 4 26.281 4 26.8333V27.5ZM4 22.1667C4 22.719 4.44772 23.1667 5 23.1667H5.66667C6.21895 23.1667 6.66667 22.719 6.66667 22.1667V21.5C6.66667 20.9477 6.21895 20.5 5.66667 20.5H5C4.44772 20.5 4 20.9477 4 21.5V22.1667ZM4 16.8333C4 17.3856 4.44772 17.8333 5 17.8333H5.66667C6.21895 17.8333 6.66667 17.3856 6.66667 16.8333V16.1667C6.66667 15.6144 6.21895 15.1667 5.66667 15.1667H5C4.44772 15.1667 4 15.6144 4 16.1667V16.8333ZM4 11.5C4 12.0523 4.44772 12.5 5 12.5H5.66667C6.21895 12.5 6.66667 12.0523 6.66667 11.5V10.8333C6.66667 10.281 6.21895 9.83333 5.66667 9.83333H5C4.44772 9.83333 4 10.281 4 10.8333V11.5ZM4 6.16667C4 6.71895 4.44772 7.16667 5 7.16667H5.66667C6.21895 7.16667 6.66667 6.71895 6.66667 6.16667V5.5C6.66667 4.94772 6.21895 4.5 5.66667 4.5H5C4.44772 4.5 4 4.94772 4 5.5V6.16667ZM25.3333 22.1667C25.3333 22.719 25.781 23.1667 26.3333 23.1667H27C27.5523 23.1667 28 22.719 28 22.1667V21.5C28 20.9477 27.5523 20.5 27 20.5H26.3333C25.781 20.5 25.3333 20.9477 25.3333 21.5V22.1667ZM25.3333 16.8333C25.3333 17.3856 25.781 17.8333 26.3333 17.8333H27C27.5523 17.8333 28 17.3856 28 16.8333V16.1667C28 15.6144 27.5523 15.1667 27 15.1667H26.3333C25.781 15.1667 25.3333 15.6144 25.3333 16.1667V16.8333ZM25.3333 27.5C25.3333 28.0523 25.781 28.5 26.3333 28.5H27C27.5523 28.5 28 28.0523 28 27.5V26.8333C28 26.281 27.5523 25.8333 27 25.8333H26.3333C25.781 25.8333 25.3333 26.281 25.3333 26.8333V27.5ZM14.6667 6.16667C14.6667 6.71895 15.1144 7.16667 15.6667 7.16667H16.3333C16.8856 7.16667 17.3333 6.71895 17.3333 6.16667V5.5C17.3333 4.94772 16.8856 4.5 16.3333 4.5H15.6667C15.1144 4.5 14.6667 4.94772 14.6667 5.5V6.16667ZM20 27.5C20 28.0523 20.4477 28.5 21 28.5H21.6667C22.219 28.5 22.6667 28.0523 22.6667 27.5V26.8333C22.6667 26.281 22.219 25.8333 21.6667 25.8333H21C20.4477 25.8333 20 26.281 20 26.8333V27.5Z" fill="#C2352E"/>
<path d="M10.667 18.4249V21.3519C10.667 21.6215 10.8788 21.8333 11.1484 21.8333H14.0754C14.2006 21.8333 14.3257 21.7852 14.4124 21.6889L24.9265 11.1844L21.3159 7.57383L10.8114 18.0783C10.7151 18.1746 10.667 18.2901 10.667 18.4249ZM27.7187 8.39224C28.0942 8.01673 28.0942 7.41015 27.7187 7.03465L25.4657 4.78163C25.0902 4.40612 24.4836 4.40612 24.1081 4.78163L22.3461 6.54361L25.9567 10.1542L27.7187 8.39224Z" fill="#C2352E"/>
</g>
<defs>
<clipPath id="clip0_9916_32037">
<rect width="32" height="32" fill="white" transform="translate(0 0.5)"/>
</clipPath>
</defs>
</svg>
