<svg width="512" height="512" viewBox="0 0 512 512" fill="none" xmlns="http://www.w3.org/2000/svg">
<g clip-path="url(#clip0)">
<path d="M256 185.909C217.333 185.909 185.909 217.333 185.909 256C185.909 294.667 217.333 326.091 256 326.091C294.667 326.091 326.091 294.667 326.091 256C326.091 217.333 294.666 185.909 256 185.909Z" fill="#AC9E99"/>
<path d="M256 80.7729C139.182 80.7729 39.4194 153.433 -1 256C39.4194 358.566 139.182 431.227 256 431.227C372.934 431.227 472.581 358.566 513 256C472.581 153.433 372.934 80.7729 256 80.7729ZM256 372.817C191.516 372.817 139.182 320.482 139.182 255.999C139.182 191.515 191.516 139.182 256 139.182C320.484 139.182 372.818 191.516 372.818 256C372.818 320.484 320.484 372.817 256 372.817Z" fill="#AC9E99"/>
</g>
<defs>
<clipPath id="clip0">
<rect width="512" height="512" fill="white"/>
</clipPath>
</defs>
</svg>
