<svg width="15" height="15" viewBox="0 0 15 15" fill="none" xmlns="http://www.w3.org/2000/svg">
<g clip-path="url(#clip0)">
<path d="M14.9609 5.75434C14.8627 5.45061 14.5933 5.23488 14.2746 5.20616L9.94517 4.81304L8.2332 0.80602C8.10697 0.512357 7.81949 0.322266 7.50008 0.322266C7.18066 0.322266 6.89318 0.512357 6.76695 0.806706L5.05498 4.81304L0.724885 5.20616C0.406732 5.23557 0.138017 5.45061 0.0392524 5.75434C-0.0595127 6.05808 0.031699 6.39122 0.272374 6.60123L3.5449 9.47125L2.57991 13.722C2.50929 14.0346 2.6306 14.3577 2.88993 14.5451C3.02933 14.6458 3.19241 14.6971 3.35687 14.6971C3.49866 14.6971 3.63931 14.6589 3.76554 14.5833L7.50008 12.3513L11.2332 14.5833C11.5064 14.7477 11.8508 14.7327 12.1095 14.5451C12.369 14.3571 12.4902 14.0339 12.4196 13.722L11.4546 9.47125L14.7271 6.6018C14.9678 6.39122 15.0597 6.05865 14.9609 5.75434V5.75434Z" fill="#FFC107"/>
</g>
<defs>
<clipPath id="clip0">
<rect width="15" height="15" fill="white"/>
</clipPath>
</defs>
</svg>
