<svg width="18" height="19" viewBox="0 0 18 19" fill="none" xmlns="http://www.w3.org/2000/svg">
<g clip-path="url(#clip0_6491_14314)">
<path d="M2.43088 17.2052L6.48056 13.8066L4.69543 12.0215L1.29688 16.0712L2.43088 17.2052Z" fill="#59474E"/>
<path d="M6.17188 12.3272L7.06565 13.221L8.9991 11.6972L9.48634 11.3155V11.3124L11.4229 9.78863L17.5522 4.96277L17.9991 0.5" fill="#94837F"/>
<path d="M5.28125 11.4335L6.17506 12.3272L18.0023 0.5L13.5395 0.946906L9.00229 6.71L7.77334 8.27104L7.18988 9.01277H7.18679L6.57852 9.78863L5.28125 11.4335Z" fill="#D1C7C1"/>
<path d="M6.17506 12.3272L5.28125 11.4335L6.57852 9.78863L7.18679 9.01277H7.18988L7.77334 8.27104L9.00229 6.71L13.5395 0.946906L18.0023 0.5" fill="#D1C7C1"/>
<path d="M9.29467 9.51416C9.37697 9.51413 9.45589 9.48143 9.51408 9.42325L15.0935 3.84383C15.2111 3.72205 15.2094 3.52848 15.0897 3.40877C14.97 3.28906 14.7764 3.28738 14.6546 3.40497L9.07526 8.98443C8.98652 9.0732 8.95998 9.20665 9.008 9.3226C9.05606 9.43854 9.16919 9.51413 9.29467 9.51416Z" fill="#3F5C6C"/>
<path d="M15.7719 3.04198C15.8542 3.04198 15.9331 3.00925 15.9913 2.95106L16.6607 2.28165C16.7414 2.20375 16.7737 2.08833 16.7453 1.97983C16.7169 1.87134 16.6322 1.78658 16.5237 1.75817C16.4152 1.72977 16.2998 1.76211 16.2219 1.84279L15.5518 2.51221C15.4631 2.60098 15.4365 2.73443 15.4846 2.85038C15.5326 2.96632 15.6457 3.04194 15.7712 3.04198H15.7719Z" fill="#3F5C6C"/>
<path d="M3.3125 10.99C3.31257 11.1578 3.37958 11.3186 3.49872 11.4369L7.06768 15.0058C7.31448 15.2526 7.71466 15.2526 7.96146 15.0058C8.20825 14.759 8.20825 14.3588 7.96146 14.112L4.3925 10.5431C4.21145 10.3627 3.93969 10.3088 3.70354 10.4065C3.46736 10.5042 3.31313 10.7344 3.3125 10.99Z" fill="#F0C419"/>
<path d="M1.2625 18.5001C1.95975 18.5001 2.52499 17.9348 2.52499 17.2376C2.52499 16.5403 1.95975 15.9751 1.2625 15.9751C0.565239 15.9751 0 16.5403 0 17.2376C0 17.9348 0.565239 18.5001 1.2625 18.5001Z" fill="#F0C419"/>
<path d="M1.26131 17.8581C1.6041 17.8581 1.88199 17.5802 1.88199 17.2374C1.88199 16.8946 1.6041 16.6167 1.26131 16.6167C0.918514 16.6167 0.640625 16.8946 0.640625 17.2374C0.640625 17.5802 0.918514 17.8581 1.26131 17.8581Z" fill="#E57E25"/>
<path d="M15.5731 17.2052L11.5234 13.8066L13.3086 12.0215L16.7071 16.0712L15.5731 17.2052Z" fill="#59474E"/>
<path d="M11.8272 12.3272L10.9335 13.221L9 11.6972L8.51277 11.3155V11.3124L6.57622 9.78863L0.446906 4.96277L0 0.5" fill="#94837F"/>
<path d="M12.721 11.4335L11.8272 12.3272L0 0.5L4.46277 0.946906L9 6.71L10.229 8.27104L10.8124 9.01277H10.8155L11.4238 9.78863L12.721 11.4335Z" fill="#D1C7C1"/>
<path d="M11.8272 12.3272L12.721 11.4335L11.4238 9.78863L10.8155 9.01277H10.8124L10.229 8.27104L9 6.71L4.46277 0.946906L0 0.5" fill="#D1C7C1"/>
<path d="M8.70622 9.51367C8.62392 9.51364 8.545 9.48094 8.48681 9.42276L2.90743 3.84334C2.78983 3.72156 2.79148 3.52799 2.91122 3.40828C3.03093 3.28858 3.2245 3.28689 3.34628 3.40449L8.92563 8.98387C9.01437 9.07264 9.04091 9.20609 8.99289 9.32204C8.94483 9.43805 8.8317 9.51364 8.70622 9.51367Z" fill="#3F5C6C"/>
<path d="M2.23375 3.04218C2.15155 3.04232 2.07263 3.00983 2.01434 2.95186L1.34493 2.28182C1.22733 2.16004 1.22898 1.96647 1.34873 1.84676C1.46847 1.72705 1.662 1.72536 1.78378 1.84296L2.45383 2.51237C2.54256 2.60114 2.5691 2.73459 2.52108 2.85054C2.47306 2.96649 2.35992 3.04211 2.23442 3.04214H2.23375V3.04218Z" fill="#3F5C6C"/>
<path d="M14.6935 10.99C14.6934 11.1578 14.6264 11.3186 14.5072 11.4369L10.9383 15.0058C10.6914 15.2526 10.2913 15.2526 10.0445 15.0058C9.79767 14.759 9.79767 14.3588 10.0445 14.112L13.6135 10.5431C13.7945 10.3627 14.0663 10.3088 14.3024 10.4065C14.5386 10.5042 14.6928 10.7344 14.6935 10.99Z" fill="#F0C419"/>
<path d="M16.7391 18.5001C17.4363 18.5001 18.0016 17.9348 18.0016 17.2376C18.0016 16.5403 17.4363 15.9751 16.7391 15.9751C16.0418 15.9751 15.4766 16.5403 15.4766 17.2376C15.4766 17.9348 16.0418 18.5001 16.7391 18.5001Z" fill="#F0C419"/>
<path d="M16.7379 17.8581C17.0807 17.8581 17.3586 17.5802 17.3586 17.2374C17.3586 16.8946 17.0807 16.6167 16.7379 16.6167C16.3951 16.6167 16.1172 16.8946 16.1172 17.2374C16.1172 17.5802 16.3951 17.8581 16.7379 17.8581Z" fill="#E57E25"/>
</g>
<defs>
<clipPath id="clip0_6491_14314">
<rect width="18" height="18" fill="white" transform="translate(0 0.5)"/>
</clipPath>
</defs>
</svg>
