<svg width="21" height="21" viewBox="0 0 21 21" fill="none" xmlns="http://www.w3.org/2000/svg">
<g clip-path="url(#clip0_6046_14375)">
<path d="M13.3359 1.3335H8.33594V3.00016H13.3359V1.3335ZM10.0026 12.1668H11.6693V7.16683H10.0026V12.1668ZM16.6943 6.6585L17.8776 5.47516C17.5193 5.05016 17.1276 4.65016 16.7026 4.30016L15.5193 5.4835C14.2276 4.45016 12.6026 3.8335 10.8359 3.8335C6.69427 3.8335 3.33594 7.19183 3.33594 11.3335C3.33594 15.4752 6.68594 18.8335 10.8359 18.8335C14.9859 18.8335 18.3359 15.4752 18.3359 11.3335C18.3359 9.56683 17.7193 7.94183 16.6943 6.6585ZM10.8359 17.1668C7.61094 17.1668 5.0026 14.5585 5.0026 11.3335C5.0026 8.1085 7.61094 5.50016 10.8359 5.50016C14.0609 5.50016 16.6693 8.1085 16.6693 11.3335C16.6693 14.5585 14.0609 17.1668 10.8359 17.1668Z" fill="#654F4D"/>
</g>
<defs>
<clipPath id="clip0_6046_14375">
<rect width="20" height="20" fill="white" transform="translate(0.835938 0.5)"/>
</clipPath>
</defs>
</svg>
