<svg width="20" height="21" viewBox="0 0 20 21" fill="none" xmlns="http://www.w3.org/2000/svg">
<path d="M12.5 1.33334H7.5V3.00001H12.5V1.33334ZM15.8583 6.65834L17.0417 5.47501C16.6833 5.05001 16.2917 4.65001 15.8667 4.30001L14.6833 5.48334C13.3917 4.45001 11.7667 3.83334 10 3.83334C5.85833 3.83334 2.5 7.19168 2.5 11.3333C2.5 15.475 5.85 18.8333 10 18.8333C14.15 18.8333 17.5 15.475 17.5 11.3333C17.5 9.56668 16.8833 7.94168 15.8583 6.65834ZM10 17.1667C6.775 17.1667 4.16667 14.5583 4.16667 11.3333C4.16667 8.10834 6.775 5.50001 10 5.50001C13.225 5.50001 15.8333 8.10834 15.8333 11.3333C15.8333 14.5583 13.225 17.1667 10 17.1667Z" fill="#FFFBF2"/>
<path d="M13 11.5647H10.6235V14H9.37647V11.5647H7V10.4353H9.37647V8H10.6235V10.4353H13V11.5647Z" fill="#FFFBF2"/>
</svg>
