<svg width="25" height="25" viewBox="0 0 25 25" fill="none" xmlns="http://www.w3.org/2000/svg">
<path d="M8.36 20.32L24 4.68V1H20.32L4.68 16.64M2.84 14.8L5.6 19.4L9.28 22.16L2.84 14.8ZM1 22.16L2.84 24L1 22.16ZM5.6 19.4L2.84 22.16L5.6 19.4Z" stroke="#FFFBF2" stroke-width="1.5" stroke-linecap="round" stroke-linejoin="round"/>
<path d="M8.82 12.5L1 4.68V1H4.68L12.5 8.82M16.64 20.32L12.5 16.18L16.64 20.32ZM16.18 12.5L20.32 16.64L16.18 12.5ZM22.16 14.8L19.4 19.4L15.72 22.16L22.16 14.8ZM24 22.16L22.16 24L24 22.16ZM19.4 19.4L22.16 22.16L19.4 19.4Z" stroke="#FFFBF2" stroke-width="1.5" stroke-linecap="round" stroke-linejoin="round"/>
</svg>
