<svg width="26" height="26" viewBox="0 0 26 26" fill="none" xmlns="http://www.w3.org/2000/svg">
<path d="M13.0813 15.6C13.6273 15.6 13.9003 15.21 13.9815 14.5811C14.0465 13.7134 14.3033 13.2567 15.3579 12.5336C16.4515 11.7617 17.0625 10.7624 17.0625 9.30638C17.0625 7.15325 15.5675 5.6875 13.3868 5.6875C11.7293 5.6875 10.4748 6.487 9.97426 7.78375C9.82259 8.13791 9.74622 8.51975 9.75001 8.905C9.75001 9.54363 10.0799 9.945 10.6356 9.945C11.0776 9.945 11.375 9.70613 11.5521 9.11625C11.8089 8.15425 12.4053 7.62938 13.2974 7.62938C14.2886 7.62938 14.9711 8.35412 14.9711 9.39087C14.9711 10.3057 14.6331 10.829 13.6354 11.544C12.6295 12.2476 12.1306 13.0293 12.1306 14.209V14.3894C12.1306 15.0849 12.4686 15.6 13.0813 15.6Z" fill="#9C0D05"/>
<path d="M16.6932 4.08311L15.1965 2.54911L16.3584 1.41486L17.3692 2.44999L18.8154 2.43211C19.4415 2.4247 20.0626 2.54254 20.6425 2.7787C21.2223 3.01487 21.749 3.36458 22.1917 3.80728C22.6345 4.24998 22.9842 4.77674 23.2203 5.35656C23.4565 5.93639 23.5743 6.55758 23.5669 7.18361L23.5507 8.62986L24.5842 9.64061C25.0318 10.078 25.3875 10.6005 25.6303 11.1773C25.8731 11.7541 25.9982 12.3736 25.9982 12.9995C25.9982 13.6253 25.8731 14.2449 25.6303 14.8217C25.3875 15.3985 25.0318 15.921 24.5842 16.3584L23.549 17.3691L23.5669 18.8154C23.5743 19.4414 23.4565 20.0626 23.2203 20.6424C22.9842 21.2222 22.6345 21.749 22.1917 22.1917C21.749 22.6344 21.2223 22.9841 20.6425 23.2203C20.0626 23.4564 19.4415 23.5743 18.8154 23.5669L17.3692 23.5506L16.3584 24.5841C15.921 25.0317 15.3986 25.3874 14.8217 25.6302C14.2449 25.8731 13.6254 25.9982 12.9995 25.9982C12.3737 25.9982 11.7542 25.8731 11.1773 25.6302C10.6005 25.3874 10.0781 25.0317 9.64067 24.5841L8.62992 23.549L7.18367 23.5669C6.55764 23.5743 5.93645 23.4564 5.35662 23.2203C4.7768 22.9841 4.25004 22.6344 3.80734 22.1917C3.36464 21.749 3.01493 21.2222 2.77876 20.6424C2.5426 20.0626 2.42476 19.4414 2.43217 18.8154L2.44842 17.3691L1.41492 16.3584C0.9673 15.921 0.61162 15.3985 0.368784 14.8217C0.125948 14.2449 0.000854492 13.6253 0.000854492 12.9995C0.000854492 12.3736 0.125948 11.7541 0.368784 11.1773C0.61162 10.6005 0.9673 10.078 1.41492 9.64061L2.45005 8.62986L2.43217 7.18361C2.42476 6.55758 2.5426 5.93639 2.77876 5.35656C3.01493 4.77674 3.36464 4.24998 3.80734 3.80728C4.25004 3.36458 4.7768 3.01487 5.35662 2.7787C5.93645 2.54254 6.55764 2.4247 7.18367 2.43211L8.62992 2.44836L9.64067 1.41486C10.0781 0.967239 10.6005 0.611559 11.1773 0.368723C11.7542 0.125887 12.3737 0.000793457 12.9995 0.000793457C13.6254 0.000793457 14.2449 0.125887 14.8217 0.368723C15.3986 0.611559 15.921 0.967239 16.3584 1.41486L15.1965 2.54911C14.9105 2.25626 14.5688 2.02356 14.1915 1.86469C13.8142 1.70581 13.4089 1.62397 12.9995 1.62397C12.5902 1.62397 12.1849 1.70581 11.8076 1.86469C11.4303 2.02356 11.0886 2.25626 10.8025 2.54911L9.30755 4.08311L7.16255 4.05711C6.75333 4.05254 6.34734 4.12979 5.9684 4.28433C5.58947 4.43887 5.24524 4.66759 4.95594 4.95704C4.66664 5.24648 4.43811 5.59083 4.28377 5.96985C4.12942 6.34886 4.05238 6.7549 4.05717 7.16411L4.08317 9.30586L2.54917 10.8025C2.25632 11.0885 2.02362 11.4303 1.86475 11.8076C1.70587 12.1849 1.62403 12.5901 1.62403 12.9995C1.62403 13.4089 1.70587 13.8141 1.86475 14.1914C2.02362 14.5687 2.25632 14.9104 2.54917 15.1965L4.08317 16.6915L4.05717 18.8365C4.0526 19.2457 4.12985 19.6517 4.28439 20.0306C4.43893 20.4096 4.66765 20.7538 4.9571 21.0431C5.24655 21.3324 5.59089 21.5609 5.96991 21.7153C6.34892 21.8696 6.75496 21.9466 7.16417 21.9419L9.30592 21.9159L10.8025 23.4499C11.0886 23.7427 11.4303 23.9754 11.8076 24.1343C12.1849 24.2932 12.5902 24.375 12.9995 24.375C13.4089 24.375 13.8142 24.2932 14.1915 24.1343C14.5688 23.9754 14.9105 23.7427 15.1965 23.4499L16.6915 21.9159L18.8365 21.9419C19.2458 21.9464 19.6518 21.8692 20.0307 21.7146C20.4096 21.5601 20.7539 21.3314 21.0431 21.0419C21.3324 20.7525 21.561 20.4081 21.7153 20.0291C21.8697 19.6501 21.9467 19.2441 21.9419 18.8349L21.9159 16.6931L23.4499 15.1965C23.7428 14.9104 23.9755 14.5687 24.1343 14.1914C24.2932 13.8141 24.3751 13.4089 24.3751 12.9995C24.3751 12.5901 24.2932 12.1849 24.1343 11.8076C23.9755 11.4303 23.7428 11.0885 23.4499 10.8025L21.9159 9.30748L21.9419 7.16249C21.9465 6.75327 21.8692 6.34728 21.7147 5.96834C21.5602 5.58941 21.3314 5.24518 21.042 4.95588C20.7525 4.66658 20.4082 4.43805 20.0292 4.2837C19.6502 4.12936 19.2441 4.05232 18.8349 4.05711L16.6932 4.08311Z" fill="#9C0D05"/>
<path d="M11.3767 17.875C11.3767 17.444 11.5479 17.0307 11.8527 16.726C12.1574 16.4212 12.5707 16.25 13.0017 16.25C13.4327 16.25 13.846 16.4212 14.1508 16.726C14.4555 17.0307 14.6267 17.444 14.6267 17.875C14.6267 18.306 14.4555 18.7193 14.1508 19.024C13.846 19.3288 13.4327 19.5 13.0017 19.5C12.5707 19.5 12.1574 19.3288 11.8527 19.024C11.5479 18.7193 11.3767 18.306 11.3767 17.875Z" fill="#9C0D05"/>
</svg>
