<svg width="24" height="24" viewBox="0 0 24 24" fill="none" xmlns="http://www.w3.org/2000/svg">
<path d="M0.000631141 9.32826L0.00102188 14.6616C0.00107561 15.3949 0.60112 15.9949 1.33445 15.9948L5.33445 15.9945L9.72144 20.3809C10.5615 21.2208 12.0015 20.6207 12.0014 19.434L12.0003 4.54071C12.0002 3.35405 10.5601 2.75415 9.72021 3.59421L5.33387 7.99453L1.33387 7.99483C0.600533 7.99488 0.000577415 8.59493 0.000631141 9.32826ZM18.0008 11.9936C18.0007 9.63361 16.6405 7.60704 14.6671 6.62052L14.6679 17.3539C16.6411 16.3804 18.001 14.3536 18.0008 11.9936ZM14.6668 1.92718L14.6668 2.19385C14.6668 2.70052 15.0002 3.14049 15.4669 3.32713C18.907 4.70021 21.3339 8.07336 21.3342 11.9934C21.3344 15.9134 18.908 19.2869 15.4681 20.6605C14.9881 20.8472 14.6682 21.2872 14.6682 21.7939L14.6682 22.0605C14.6683 22.9005 15.5083 23.4871 16.2816 23.1937C20.8015 21.4734 24.0012 17.1132 24.0008 11.9932C24.0005 6.87317 20.8001 2.5134 16.28 0.793733C15.5067 0.487123 14.6667 1.08718 14.6668 1.92718Z" fill="#C2352E"/>
</svg>
