<svg width="24" height="24" viewBox="0 0 18 18" fill="none" xmlns="http://www.w3.org/2000/svg">
<path d="M0.63 0.629994C0.24 1.01999 0.24 1.64999 0.63 2.03999L4.29 5.69999L4 5.99999H1C0.45 5.99999 0 6.44999 0 6.99999V11C0 11.55 0.45 12 1 12H4L7.29 15.29C7.92 15.92 9 15.47 9 14.58V10.41L13.18 14.59C12.69 14.96 12.16 15.27 11.58 15.5C11.22 15.65 11 16.03 11 16.42C11 17.14 11.73 17.6 12.39 17.33C13.19 17 13.94 16.56 14.61 16.02L15.95 17.36C16.34 17.75 16.97 17.75 17.36 17.36C17.75 16.97 17.75 16.34 17.36 15.95L2.05 0.629994C1.66 0.239994 1.03 0.239994 0.63 0.629994ZM16 8.99999C16 9.81999 15.85 10.61 15.59 11.34L17.12 12.87C17.68 11.7 18 10.39 18 8.99999C18 5.16999 15.6 1.88999 12.22 0.599994C11.63 0.369994 11 0.829994 11 1.45999V1.64999C11 2.02999 11.25 2.35999 11.61 2.49999C14.18 3.53999 16 6.05999 16 8.99999ZM7.29 2.70999L7.12 2.87999L9 4.75999V3.40999C9 2.51999 7.92 2.07999 7.29 2.70999ZM13.5 8.99999C13.5 7.22999 12.48 5.70999 11 4.96999V6.75999L13.48 9.23999C13.49 9.15999 13.5 9.07999 13.5 8.99999Z" fill="#C2352E"/>
</svg>
