<svg width="32" height="26" viewBox="0 0 32 26" fill="none" xmlns="http://www.w3.org/2000/svg">
<path d="M11.606 0.0680008C5.03133 0.0680008 0 4.52933 0 9.39267C0 14.256 4.344 17.074 4.344 17.074L3.638 19.75C3.54467 20.1027 3.92267 20.394 4.24 20.214L7.41333 18.416C8.81667 18.8627 11.7947 19.0053 12.0847 19.0187C11.8767 18.2973 11.774 17.5867 11.774 16.9233C11.774 13.17 15.042 7.88333 22.3067 7.88333C22.472 7.88333 22.6373 7.88733 22.8027 7.894C21.836 3.26733 17.032 0.0680008 11.606 0.0680008ZM7.27867 7.81667C6.482 7.81667 5.836 7.17067 5.836 6.374C5.836 5.57733 6.482 4.93133 7.27867 4.93133C8.07533 4.93133 8.72133 5.57733 8.72133 6.374C8.72133 7.17067 8.07533 7.81667 7.27867 7.81667ZM15.6647 7.81667C14.868 7.81667 14.222 7.17067 14.222 6.374C14.222 5.57733 14.868 4.93133 15.6647 4.93133C16.4613 4.93133 17.1073 5.57733 17.1073 6.374C17.1073 7.17067 16.4613 7.81667 15.6647 7.81667Z" fill="white"/>
<path d="M32 16.336C32 12.076 27.002 8.95667 22.306 8.95667C15.6647 8.95667 12.8467 13.7533 12.8467 16.9233C12.8467 20.1 15.664 24.89 22.306 24.89C23.7753 24.89 25.068 24.6793 26.192 24.306L28.69 25.8913C28.8873 26.0167 29.1367 25.84 29.084 25.612L28.5173 23.152C30.8773 21.508 32 18.9167 32 16.336ZM19.27 15.526C18.566 15.526 17.9953 14.9553 17.9953 14.2513C17.9953 13.5473 18.566 12.9767 19.27 12.9767C19.974 12.9767 20.5447 13.5473 20.5447 14.2513C20.5447 14.9553 19.974 15.526 19.27 15.526ZM25.6433 15.526C24.9393 15.526 24.3687 14.9553 24.3687 14.2513C24.3687 13.5473 24.9393 12.9767 25.6433 12.9767C26.3473 12.9767 26.918 13.5473 26.918 14.2513C26.918 14.9553 26.3467 15.526 25.6433 15.526Z" fill="white"/>
</svg>
