<svg width="896" height="145" viewBox="0 0 896 145" fill="none" xmlns="http://www.w3.org/2000/svg">
<path d="M144.876 0H0V144.876H144.876V0Z" fill="#8E0000"/>
<path d="M132.73 12H12V132.73H132.73V12Z" stroke="#F4F0E7" stroke-width="4.82919" stroke-miterlimit="10"/>
<path d="M54.4763 58.4922V53.2284H66.0436V46.709H54.4763V30H47.9361V46.709H33.8308V53.2284H47.5944V55.4016C42.2745 68.3921 31 86.3567 31 86.6464L36.6128 90.0752C36.9057 89.4474 42.5673 80.4651 47.5456 70.5652V114.511H54.1346V67.1365C59.1618 72.1106 61.9438 77.9539 61.9438 77.9539L67.8983 75.153C67.9471 74.8632 62.9199 64.6736 54.4763 58.4922Z" fill="#F4F0E7"/>
<path d="M70.4365 34.3462V114.221H77.0255V107.991H107.384V114.173H113.973V34.3462H70.4365ZM107.384 40.8173V55.981H77.0255V40.8173H107.384ZM77.0255 62.5004H107.384V78.5816H77.0255V62.5004ZM77.0255 101.52V85.101H107.384V101.52H77.0255Z" fill="#F4F0E7"/>
<path d="M185.26 96.188L189.848 94.708L201.318 76.356L190.514 58.67L186.592 57.19V54.378H203.538V57.56L198.21 59.04L206.202 71.546H206.498L213.306 59.04L208.2 57.56V54.378H224.554V57.19L219.966 58.67L209.976 75.394L221.816 94.708L226.404 96.188V99H208.718V95.818L213.676 94.338L205.24 80.204H204.944L196.508 94.338L201.614 95.818V99H185.26V96.188ZM233.162 99.666C232.915 99.666 232.348 99.2713 231.46 98.482C230.621 97.6927 230.202 97.1747 230.202 96.928V69.918L227.612 69.104V66.366C231.361 65.626 233.458 65.256 233.902 65.256C234.198 65.256 234.765 65.626 235.604 66.366C236.442 67.106 236.862 67.6487 236.862 67.994V95.004L239.452 95.744V98.482C235.702 99.2713 233.606 99.666 233.162 99.666ZM229.758 51.566L235.456 51.196L236.566 52.824L236.196 59.262H230.276L229.758 51.566ZM256.29 99.666C254.267 99.666 252.368 99.0987 250.592 97.964C248.865 96.78 247.459 94.9793 246.374 92.562C245.288 90.1447 244.746 87.1353 244.746 83.534C244.746 81.2153 244.894 79.0693 245.19 77.096C245.535 75.0733 245.979 73.544 246.522 72.508C247.311 71.3733 249.062 69.8687 251.776 67.994C254.538 66.1193 256.364 65.182 257.252 65.182C258.238 65.182 262.555 65.7493 270.202 66.884V94.708L272.718 95.744V98.482C268.82 99.2713 266.65 99.666 266.206 99.666C266.008 99.666 265.54 99.3207 264.8 98.63C264.06 97.9393 263.69 97.4707 263.69 97.224V94.338C263.394 94.5847 262.16 95.5467 259.99 97.224C257.819 98.852 256.586 99.666 256.29 99.666ZM256.734 94.19C257.276 94.19 259.521 93.2033 263.468 91.23V70.88C262.234 70.4853 260.631 70.14 258.658 69.844C256.684 69.4987 255.352 69.3753 254.662 69.474C253.724 69.622 253.009 70.6827 252.516 72.656C252.072 74.6293 251.85 78.0827 251.85 83.016C251.85 85.532 252.121 87.6287 252.664 89.306C253.256 90.9833 253.922 92.2167 254.662 93.006C255.451 93.7953 256.142 94.19 256.734 94.19ZM282.726 99.666C282.479 99.666 281.986 99.3207 281.246 98.63C280.555 97.9393 280.21 97.4707 280.21 97.224V70.214L277.62 69.104V66.366C281.665 65.626 283.91 65.256 284.354 65.256C284.6 65.256 285.044 65.6013 285.686 66.292C286.376 66.9333 286.722 67.3773 286.722 67.624V70.436C288.202 69.3507 289.78 68.216 291.458 67.032C293.184 65.848 294.146 65.256 294.344 65.256C297.896 65.256 300.56 66.1933 302.336 68.068C304.112 69.8933 305 73.1 305 77.688V94.634L307.59 95.744V98.482C303.495 99.2713 301.25 99.666 300.856 99.666C300.609 99.666 300.116 99.3207 299.376 98.63C298.636 97.9393 298.266 97.4707 298.266 97.224V77.688C298.266 74.6293 297.822 72.7053 296.934 71.916C296.046 71.1267 295.059 70.732 293.974 70.732C293.431 70.732 292.198 71.176 290.274 72.064C288.399 72.9027 287.289 73.396 286.944 73.544V94.634L289.46 95.744V98.482C285.414 99.2713 283.17 99.666 282.726 99.666ZM361.655 112.394C361.409 112.394 360.915 112.049 360.175 111.358C359.435 110.667 359.065 110.199 359.065 109.952L359.435 94.634L359.065 94.56C358.523 94.9547 357.98 95.3493 357.437 95.744C356.944 96.1387 356.475 96.484 356.031 96.78C353.515 98.704 352.134 99.666 351.887 99.666C349.914 99.666 348.039 99.0987 346.263 97.964C344.487 96.8293 343.057 95.078 341.971 92.71C340.886 90.342 340.343 87.4313 340.343 83.978C340.343 81.462 340.491 79.1927 340.787 77.17C341.133 75.1473 341.577 73.5933 342.119 72.508C342.909 71.3733 344.66 69.8687 347.373 67.994C350.136 66.1193 351.961 65.182 352.849 65.182C353.441 65.182 355.415 65.3793 358.769 65.774C362.173 66.1687 364.517 66.4893 365.799 66.736V107.436L368.389 108.472V111.21C364.295 111.999 362.05 112.394 361.655 112.394ZM352.331 94.19C352.775 94.19 355.02 93.2033 359.065 91.23V70.88C357.832 70.4853 356.229 70.14 354.255 69.844C352.282 69.4987 350.95 69.3753 350.259 69.474C349.322 69.622 348.607 70.6827 348.113 72.656C347.669 74.6293 347.447 78.0827 347.447 83.016C347.447 85.532 347.719 87.6287 348.261 89.306C348.853 90.9833 349.519 92.2167 350.259 93.006C351.049 93.7953 351.739 94.19 352.331 94.19ZM378.334 99.666C378.087 99.666 377.52 99.2713 376.632 98.482C375.793 97.6927 375.374 97.1747 375.374 96.928V69.918L372.784 69.104V66.366C376.533 65.626 378.63 65.256 379.074 65.256C379.37 65.256 379.937 65.626 380.776 66.366C381.614 67.106 382.034 67.6487 382.034 67.994V95.004L384.624 95.744V98.482C380.874 99.2713 378.778 99.666 378.334 99.666ZM374.93 51.566L380.628 51.196L381.738 52.824L381.368 59.262H375.448L374.93 51.566ZM393.025 99.74C392.729 99.74 392.261 99.444 391.619 98.852C390.978 98.2107 390.657 97.742 390.657 97.446L390.509 91.304C391.447 91.0573 392.433 90.86 393.469 90.712C394.555 90.5147 395.319 90.416 395.763 90.416C396.01 90.416 396.454 90.7367 397.095 91.378C397.786 92.0193 398.131 92.4633 398.131 92.71L397.687 98.852C396.701 99.0987 395.788 99.296 394.949 99.444C394.111 99.592 393.469 99.6907 393.025 99.74ZM414.953 99.666C413.177 99.666 411.475 99.0987 409.847 97.964C408.219 96.78 406.887 95.0287 405.851 92.71C404.864 90.342 404.371 87.4313 404.371 83.978C404.371 81.5607 404.519 79.2913 404.815 77.17C405.16 75.0487 405.604 73.4947 406.147 72.508C406.64 71.768 407.627 70.806 409.107 69.622C410.636 68.438 412.165 67.402 413.695 66.514C415.224 65.626 416.285 65.182 416.877 65.182C419.245 65.182 421.958 65.6507 425.017 66.588L424.795 76.06H420.281L419.245 70.954C418.653 70.658 417.913 70.3867 417.025 70.14C416.137 69.8933 415.347 69.77 414.657 69.77C414.213 69.77 413.867 69.8687 413.621 70.066C412.93 70.6087 412.387 72.064 411.993 74.432C411.647 76.8 411.475 79.6613 411.475 83.016C411.475 85.5813 411.746 87.7027 412.289 89.38C412.881 91.0573 413.571 92.2907 414.361 93.08C415.15 93.8693 415.915 94.264 416.655 94.264H425.017V97.372C423.29 97.9147 421.317 98.4327 419.097 98.926C416.926 99.4193 415.545 99.666 414.953 99.666ZM445.2 99.666C440.069 99.666 436.221 98.3587 433.656 95.744C431.091 93.1293 429.808 89.0593 429.808 83.534C429.808 81.2647 429.956 79.1187 430.252 77.096C430.597 75.024 431.041 73.4947 431.584 72.508C432.077 71.768 433.089 70.7813 434.618 69.548C436.197 68.3147 437.775 67.2293 439.354 66.292C440.933 65.3547 442.018 64.886 442.61 64.886C447.593 64.886 451.342 66.2427 453.858 68.956C456.423 71.62 457.706 75.4927 457.706 80.574C457.706 82.942 457.533 85.162 457.188 87.234C456.892 89.306 456.522 91.008 456.078 92.34C455.289 93.4253 453.488 94.93 450.676 96.854C447.913 98.7287 446.088 99.666 445.2 99.666ZM445.57 95.448C445.915 95.3493 447.173 94.7327 449.344 93.598C450.183 89.898 450.602 85.8773 450.602 81.536C450.602 77.688 449.887 74.6787 448.456 72.508C447.075 70.3373 445.003 69.252 442.24 69.252C441.007 69.252 440.02 69.4493 439.28 69.844C438.589 70.2387 438.022 71.546 437.578 73.766C437.134 75.986 436.912 78.8967 436.912 82.498C436.912 87.3327 437.726 90.712 439.354 92.636C441.031 94.5107 443.103 95.448 445.57 95.448ZM468.149 99.666C467.903 99.666 467.409 99.3207 466.669 98.63C465.979 97.9393 465.633 97.4707 465.633 97.224V70.214L463.043 69.104V66.366C467.089 65.626 469.333 65.256 469.777 65.256C470.024 65.256 470.468 65.6013 471.109 66.292C471.8 66.9333 472.145 67.3773 472.145 67.624V70.436C473.428 69.3507 474.809 68.216 476.289 67.032C477.769 65.848 478.583 65.256 478.731 65.256C481.198 65.256 483.245 65.6507 484.873 66.44C486.551 67.2293 487.759 68.5613 488.499 70.436C489.683 69.3507 490.966 68.216 492.347 67.032C493.729 65.848 494.493 65.256 494.641 65.256C498.539 65.256 501.474 66.1933 503.447 68.068C505.421 69.8933 506.407 73.1 506.407 77.688V94.634L508.923 95.744V98.482C504.878 99.2713 502.658 99.666 502.263 99.666C502.017 99.666 501.523 99.3207 500.783 98.63C500.043 97.9393 499.673 97.4707 499.673 97.224V77.688C499.673 74.6293 499.18 72.7053 498.193 71.916C497.256 71.1267 496.195 70.732 495.011 70.732C494.567 70.732 492.693 71.6693 489.387 73.544V94.634L491.903 95.744V98.482C487.858 99.2713 485.638 99.666 485.243 99.666C484.997 99.666 484.503 99.3207 483.763 98.63C483.023 97.9393 482.653 97.4707 482.653 97.224V77.688C482.653 74.6293 482.209 72.7053 481.321 71.916C480.433 71.1267 479.447 70.732 478.361 70.732C477.868 70.732 475.87 71.6693 472.367 73.544V94.634L474.883 95.744V98.482C470.838 99.2713 468.593 99.666 468.149 99.666ZM539.828 99.666C537.51 99.666 535.339 98.9013 533.316 97.372C531.294 95.8427 529.641 93.4993 528.358 90.342C527.125 87.1353 526.508 83.1887 526.508 78.502C526.508 75.1473 526.706 72.064 527.1 69.252C527.495 66.3907 528.038 64.1213 528.728 62.444C529.468 61.26 530.677 60.002 532.354 58.67C534.032 57.2887 535.709 56.1293 537.386 55.192C539.064 54.2547 540.272 53.786 541.012 53.786C542.443 53.8353 544.441 53.934 547.006 54.082C549.621 54.1807 552.186 54.3287 554.702 54.526L553.814 67.328H549.818L548.93 59.78C547.746 59.5333 546.192 59.336 544.268 59.188C542.344 59.04 540.889 58.966 539.902 58.966C538.916 58.966 538.126 59.114 537.534 59.41C536.35 60.0513 535.438 61.8273 534.796 64.738C534.155 67.6487 533.834 71.3733 533.834 75.912C533.834 82.8187 534.673 87.604 536.35 90.268C538.077 92.8827 540.396 94.19 543.306 94.19H548.634L549.892 84.792L553.666 84.866L553.74 97.964C552.556 98.3093 550.139 98.6793 546.488 99.074C542.838 99.4687 540.618 99.666 539.828 99.666ZM564.622 99.666C564.376 99.666 563.907 99.3207 563.216 98.63C562.526 97.9393 562.18 97.4707 562.18 97.224V56.154L559.59 55.118V52.38C563.636 51.5907 565.88 51.196 566.324 51.196C566.571 51.196 567.064 51.5413 567.804 52.232C568.544 52.9227 568.914 53.3913 568.914 53.638L568.544 70.362L568.914 70.436C573.552 66.9827 576.018 65.256 576.314 65.256C579.866 65.256 582.53 66.1933 584.306 68.068C586.082 69.8933 586.97 73.1 586.97 77.688V94.634L589.56 95.744V98.482C585.466 99.2713 583.196 99.666 582.752 99.666C582.506 99.666 582.012 99.3207 581.272 98.63C580.582 97.9393 580.236 97.4707 580.236 97.224V77.688C580.236 74.6293 579.792 72.7053 578.904 71.916C578.066 71.1267 577.079 70.732 575.944 70.732C575.451 70.732 573.108 71.6693 568.914 73.544V94.634L571.43 95.744V98.482C567.336 99.2713 565.066 99.666 564.622 99.666ZM600.189 99.666C599.942 99.666 599.375 99.2713 598.487 98.482C597.648 97.6927 597.229 97.1747 597.229 96.928V69.918L594.639 69.104V66.366C598.388 65.626 600.485 65.256 600.929 65.256C601.225 65.256 601.792 65.626 602.631 66.366C603.47 67.106 603.889 67.6487 603.889 67.994V95.004L606.479 95.744V98.482C602.73 99.2713 600.633 99.666 600.189 99.666ZM596.785 51.566L602.483 51.196L603.593 52.824L603.223 59.262H597.303L596.785 51.566ZM616.583 99.666C616.336 99.666 615.843 99.3207 615.103 98.63C614.412 97.9393 614.067 97.4707 614.067 97.224V70.214L611.477 69.104V66.366C615.522 65.626 617.767 65.256 618.211 65.256C618.458 65.256 618.902 65.6013 619.543 66.292C620.234 66.9333 620.579 67.3773 620.579 67.624V70.436C622.059 69.3507 623.638 68.216 625.315 67.032C627.042 65.848 628.004 65.256 628.201 65.256C631.753 65.256 634.417 66.1933 636.193 68.068C637.969 69.8933 638.857 73.1 638.857 77.688V94.634L641.447 95.744V98.482C637.352 99.2713 635.108 99.666 634.713 99.666C634.466 99.666 633.973 99.3207 633.233 98.63C632.493 97.9393 632.123 97.4707 632.123 97.224V77.688C632.123 74.6293 631.679 72.7053 630.791 71.916C629.903 71.1267 628.916 70.732 627.831 70.732C627.288 70.732 626.055 71.176 624.131 72.064C622.256 72.9027 621.146 73.396 620.801 73.544V94.634L623.317 95.744V98.482C619.272 99.2713 617.027 99.666 616.583 99.666ZM659.106 99.666C656.984 99.666 654.986 99.0987 653.112 97.964C651.237 96.8293 649.708 95.078 648.524 92.71C647.389 90.342 646.822 87.4313 646.822 83.978C646.822 81.5113 646.97 79.242 647.266 77.17C647.611 75.0487 648.055 73.4947 648.598 72.508C649.091 71.768 650.102 70.7813 651.632 69.548C653.21 68.3147 654.789 67.2293 656.368 66.292C657.996 65.3547 659.106 64.886 659.698 64.886C662.362 64.886 664.508 65.3053 666.136 66.144C667.813 66.9827 669.096 68.586 669.984 70.954C670.921 73.322 671.39 76.726 671.39 81.166L653.926 82.646C653.926 85.606 654.32 87.974 655.11 89.75C655.899 91.4767 656.812 92.6853 657.848 93.376C658.933 94.0667 659.92 94.412 660.808 94.412L664.286 94.264L670.354 94.042V97.076C668.528 97.668 666.358 98.26 663.842 98.852C661.375 99.3947 659.796 99.666 659.106 99.666ZM664.212 78.28C664.212 75.32 663.817 73.1 663.028 71.62C662.238 70.0907 660.931 69.326 659.106 69.326C658.02 69.326 657.083 69.4987 656.294 69.844C655.652 70.14 655.11 71.2747 654.666 73.248C654.271 75.2213 654.074 77.3427 654.074 79.612L664.212 78.28ZM690.28 99.666C689.244 99.666 687.172 99.5427 684.064 99.296C680.956 99.0987 678.588 98.9013 676.96 98.704L677.108 88.048L680.808 87.974L682.362 93.598C683.497 93.9927 684.829 94.3627 686.358 94.708C687.937 95.004 689.096 95.152 689.836 95.152C690.231 95.152 690.699 94.6093 691.242 93.524C691.834 92.4387 692.13 91.4767 692.13 90.638C692.13 89.75 691.908 89.01 691.464 88.418C691.069 87.7767 690.428 87.1847 689.54 86.642C688.652 86.05 687.147 85.1867 685.026 84.052C682.017 82.424 679.945 80.9933 678.81 79.76C677.675 78.5267 677.108 77.0467 677.108 75.32C677.108 73.6427 677.231 72.434 677.478 71.694C678.267 70.4607 679.575 69.0793 681.4 67.55C683.275 66.0207 684.607 65.256 685.396 65.256C687.024 65.256 689.121 65.33 691.686 65.478C694.301 65.5767 696.299 65.7 697.68 65.848L697.458 74.876H693.314L692.796 70.954C692.401 70.806 691.119 70.584 688.948 70.288C686.777 69.9427 685.421 69.77 684.878 69.77C683.793 69.77 683.25 70.806 683.25 72.878C683.25 73.8153 683.595 74.6293 684.286 75.32C685.026 75.9613 685.84 76.5533 686.728 77.096C687.665 77.6387 688.282 78.0087 688.578 78.206L690.576 79.39C693.24 80.87 695.337 82.276 696.866 83.608C698.445 84.8907 699.234 86.3707 699.234 88.048C699.234 89.1827 699.061 90.4407 698.716 91.822C697.927 93.2527 696.57 94.93 694.646 96.854C692.771 98.7287 691.316 99.666 690.28 99.666ZM715.979 99.666C713.857 99.666 711.859 99.0987 709.985 97.964C708.11 96.8293 706.581 95.078 705.397 92.71C704.262 90.342 703.695 87.4313 703.695 83.978C703.695 81.5113 703.843 79.242 704.139 77.17C704.484 75.0487 704.928 73.4947 705.471 72.508C705.964 71.768 706.975 70.7813 708.505 69.548C710.083 68.3147 711.662 67.2293 713.241 66.292C714.869 65.3547 715.979 64.886 716.571 64.886C719.235 64.886 721.381 65.3053 723.009 66.144C724.686 66.9827 725.969 68.586 726.857 70.954C727.794 73.322 728.263 76.726 728.263 81.166L710.799 82.646C710.799 85.606 711.193 87.974 711.983 89.75C712.772 91.4767 713.685 92.6853 714.721 93.376C715.806 94.0667 716.793 94.412 717.681 94.412L721.159 94.264L727.227 94.042V97.076C725.401 97.668 723.231 98.26 720.715 98.852C718.248 99.3947 716.669 99.666 715.979 99.666ZM721.085 78.28C721.085 75.32 720.69 73.1 719.901 71.62C719.111 70.0907 717.804 69.326 715.979 69.326C714.893 69.326 713.956 69.4987 713.167 69.844C712.525 70.14 711.983 71.2747 711.539 73.248C711.144 75.2213 710.947 77.3427 710.947 79.612L721.085 78.28ZM759.154 99.666C756.836 99.666 754.665 98.9013 752.642 97.372C750.62 95.8427 748.967 93.4993 747.684 90.342C746.451 87.1353 745.834 83.1887 745.834 78.502C745.834 75.1473 746.032 72.064 746.426 69.252C746.821 66.3907 747.364 64.1213 748.054 62.444C748.794 61.26 750.003 60.002 751.68 58.67C753.358 57.2887 755.035 56.1293 756.712 55.192C758.39 54.2547 759.598 53.786 760.338 53.786C761.769 53.8353 763.767 53.934 766.332 54.082C768.947 54.1807 771.512 54.3287 774.028 54.526L773.14 67.328H769.144L768.256 59.78C767.072 59.5333 765.518 59.336 763.594 59.188C761.67 59.04 760.215 58.966 759.228 58.966C758.242 58.966 757.452 59.114 756.86 59.41C755.676 60.0513 754.764 61.8273 754.122 64.738C753.481 67.6487 753.16 71.3733 753.16 75.912C753.16 82.8187 753.999 87.604 755.676 90.268C757.403 92.8827 759.722 94.19 762.632 94.19H767.96L769.218 84.792L772.992 84.866L773.066 97.964C771.882 98.3093 769.465 98.6793 765.814 99.074C762.164 99.4687 759.944 99.666 759.154 99.666ZM783.948 99.666C783.702 99.666 783.233 99.3207 782.542 98.63C781.852 97.9393 781.506 97.4707 781.506 97.224V56.154L778.916 55.118V52.38C782.962 51.5907 785.206 51.196 785.65 51.196C785.897 51.196 786.39 51.5413 787.13 52.232C787.87 52.9227 788.24 53.3913 788.24 53.638L787.87 70.362L788.24 70.436C792.878 66.9827 795.344 65.256 795.64 65.256C799.192 65.256 801.856 66.1933 803.632 68.068C805.408 69.8933 806.296 73.1 806.296 77.688V94.634L808.886 95.744V98.482C804.792 99.2713 802.522 99.666 802.078 99.666C801.832 99.666 801.338 99.3207 800.598 98.63C799.908 97.9393 799.562 97.4707 799.562 97.224V77.688C799.562 74.6293 799.118 72.7053 798.23 71.916C797.392 71.1267 796.405 70.732 795.27 70.732C794.777 70.732 792.434 71.6693 788.24 73.544V94.634L790.756 95.744V98.482C786.662 99.2713 784.392 99.666 783.948 99.666ZM826.545 99.666C824.424 99.666 822.426 99.0987 820.551 97.964C818.677 96.8293 817.147 95.078 815.963 92.71C814.829 90.342 814.261 87.4313 814.261 83.978C814.261 81.5113 814.409 79.242 814.705 77.17C815.051 75.0487 815.495 73.4947 816.037 72.508C816.531 71.768 817.542 70.7813 819.071 69.548C820.65 68.3147 822.229 67.2293 823.807 66.292C825.435 65.3547 826.545 64.886 827.137 64.886C829.801 64.886 831.947 65.3053 833.575 66.144C835.253 66.9827 836.535 68.586 837.423 70.954C838.361 73.322 838.829 76.726 838.829 81.166L821.365 82.646C821.365 85.606 821.76 87.974 822.549 89.75C823.339 91.4767 824.251 92.6853 825.287 93.376C826.373 94.0667 827.359 94.412 828.247 94.412L831.725 94.264L837.793 94.042V97.076C835.968 97.668 833.797 98.26 831.281 98.852C828.815 99.3947 827.236 99.666 826.545 99.666ZM831.651 78.28C831.651 75.32 831.257 73.1 830.467 71.62C829.678 70.0907 828.371 69.326 826.545 69.326C825.46 69.326 824.523 69.4987 823.733 69.844C823.092 70.14 822.549 71.2747 822.105 73.248C821.711 75.2213 821.513 77.3427 821.513 79.612L831.651 78.28ZM857.719 99.666C856.683 99.666 854.611 99.5427 851.503 99.296C848.395 99.0987 846.027 98.9013 844.399 98.704L844.547 88.048L848.247 87.974L849.801 93.598C850.936 93.9927 852.268 94.3627 853.797 94.708C855.376 95.004 856.535 95.152 857.275 95.152C857.67 95.152 858.139 94.6093 858.681 93.524C859.273 92.4387 859.569 91.4767 859.569 90.638C859.569 89.75 859.347 89.01 858.903 88.418C858.509 87.7767 857.867 87.1847 856.979 86.642C856.091 86.05 854.587 85.1867 852.465 84.052C849.456 82.424 847.384 80.9933 846.249 79.76C845.115 78.5267 844.547 77.0467 844.547 75.32C844.547 73.6427 844.671 72.434 844.917 71.694C845.707 70.4607 847.014 69.0793 848.839 67.55C850.714 66.0207 852.046 65.256 852.835 65.256C854.463 65.256 856.56 65.33 859.125 65.478C861.74 65.5767 863.738 65.7 865.119 65.848L864.897 74.876H860.753L860.235 70.954C859.841 70.806 858.558 70.584 856.387 70.288C854.217 69.9427 852.86 69.77 852.317 69.77C851.232 69.77 850.689 70.806 850.689 72.878C850.689 73.8153 851.035 74.6293 851.725 75.32C852.465 75.9613 853.279 76.5533 854.167 77.096C855.105 77.6387 855.721 78.0087 856.017 78.206L858.015 79.39C860.679 80.87 862.776 82.276 864.305 83.608C865.884 84.8907 866.673 86.3707 866.673 88.048C866.673 89.1827 866.501 90.4407 866.155 91.822C865.366 93.2527 864.009 94.93 862.085 96.854C860.211 98.7287 858.755 99.666 857.719 99.666ZM884.602 99.666C883.566 99.666 881.494 99.5427 878.386 99.296C875.278 99.0987 872.91 98.9013 871.282 98.704L871.43 88.048L875.13 87.974L876.684 93.598C877.819 93.9927 879.151 94.3627 880.68 94.708C882.259 95.004 883.418 95.152 884.158 95.152C884.553 95.152 885.022 94.6093 885.564 93.524C886.156 92.4387 886.452 91.4767 886.452 90.638C886.452 89.75 886.23 89.01 885.786 88.418C885.392 87.7767 884.75 87.1847 883.862 86.642C882.974 86.05 881.47 85.1867 879.348 84.052C876.339 82.424 874.267 80.9933 873.132 79.76C871.998 78.5267 871.43 77.0467 871.43 75.32C871.43 73.6427 871.554 72.434 871.8 71.694C872.59 70.4607 873.897 69.0793 875.722 67.55C877.597 66.0207 878.929 65.256 879.718 65.256C881.346 65.256 883.443 65.33 886.008 65.478C888.623 65.5767 890.621 65.7 892.002 65.848L891.78 74.876H887.636L887.118 70.954C886.724 70.806 885.441 70.584 883.27 70.288C881.1 69.9427 879.743 69.77 879.2 69.77C878.115 69.77 877.572 70.806 877.572 72.878C877.572 73.8153 877.918 74.6293 878.608 75.32C879.348 75.9613 880.162 76.5533 881.05 77.096C881.988 77.6387 882.604 78.0087 882.9 78.206L884.898 79.39C887.562 80.87 889.659 82.276 891.188 83.608C892.767 84.8907 893.556 86.3707 893.556 88.048C893.556 89.1827 893.384 90.4407 893.038 91.822C892.249 93.2527 890.892 94.93 888.968 96.854C887.094 98.7287 885.638 99.666 884.602 99.666Z" fill="#F4F0E7"/>
<path d="M308.5 106.1L307.8 111.5C309.4 111.9 311.9 112.3 315.3 112.8C318.7 113.2 321.3 113.5 323 113.5C324 113.5 325.4 112.8 327.1 111.5C328.8 110.2 330.3 108.6 331.6 106.7C332.9 104.9 333.6 103.2 333.6 101.7V67.9002C331.9 67.7002 329.6 67.3002 326.6 66.9002C323.6 66.5002 321.9 66.2002 321.4 66.2002C320.5 66.2002 318.7 67.2002 315.9 69.1002C313.1 70.9002 311.3 72.4002 310.5 73.5002C310 74.6002 309.6 76.1002 309.3 78.0002C309.1 79.8002 309 81.5002 309 83.0002C309 86.0002 309.4 88.6002 310.3 90.9002C311.2 93.1002 312.3 94.8002 313.6 96.0002C314.8 97.1002 316.1 97.7002 317.3 97.8002L324.9 96.7002C325.5 96.1002 326.1 95.6002 326.7 95.1002L327.1 95.3002V99.0002C327.1 101.7 326.9 104.2 326.6 106.5C326.3 108.9 325.8 110 325.3 110C324.3 110 322.3 109.7 319.4 109C316.5 108.4 314.6 107.9 313.9 107.6V107.2C314.3 106.5 314.9 105.7 315.4 105.1L316.8 103.1L314.3 101.5L308.5 106.1ZM326.9 91.1002C323.8 93.3002 322 94.4002 321.5 94.4002C320.9 94.4002 320.1 94.1002 319.2 93.4002C318.4 92.7002 317.6 91.4002 317 89.8002C316.4 88.1002 316 85.9002 316 83.2002C316 75.5002 317 71.3002 319 70.6002C319.1 70.6002 319.3 70.5002 319.7 70.5002C320.5 70.5002 321.6 70.7002 323.1 71.0002C324.6 71.3002 325.8 71.6002 326.9 72.0002V91.1002Z" fill="#F4F0E7"/>
</svg>
