<svg width="124" height="36" viewBox="0 0 124 36" fill="none" xmlns="http://www.w3.org/2000/svg">
<path d="M36 0V36H0V0H36Z" fill="#8E0000"/>
<path d="M32.9944 3.00586H3.00195V32.9983H32.9944V3.00586Z" stroke="#F4F0E7" stroke-width="0.905824" stroke-miterlimit="10"/>
<path d="M13.5646 14.5667V13.2468H16.4318V11.6084H13.5646V7.4668H11.9717V11.6084H8.51276V13.2468H11.9262V13.793C10.6063 17.0243 7.83008 21.4845 7.83008 21.53L9.19544 22.3947C9.28646 22.2582 10.6518 19.9826 11.8806 17.525V28.4478H13.5191V16.7057C14.2928 17.525 14.93 18.4352 15.4306 19.3909L16.887 18.7083C16.1133 17.1153 14.9755 15.7045 13.5646 14.5667Z" fill="#F4F0E7"/>
<path d="M17.5234 8.56055V28.4038H19.1164V26.8564H26.6258V28.3583H28.2643V8.56055H17.5234ZM26.5803 10.199V13.9765H19.0708V10.199H26.5803ZM19.0708 15.5694H26.5803V19.5745H19.0708V15.5694ZM19.0708 25.2635V21.1674H26.5803V25.2635H19.0708Z" fill="#F4F0E7"/>
<path d="M45 21.8467L46.1378 21.4826L48.914 17.0224L46.2743 12.6988L45.3186 12.3347V11.652H49.4147V12.4257L48.1403 12.7898L50.0973 15.8391H50.1884L51.8268 12.7898L50.598 12.4257V11.652H54.603V12.3347L53.4652 12.6988L51.0531 16.7494L53.9204 21.4371L55.0126 21.8012V22.5294H50.7345V21.7557L51.9633 21.3916L49.9153 17.9782H49.8243L47.7762 21.3461L49.0051 21.7102V22.4839H45V21.8467ZM56.6511 22.6659C56.5145 22.6204 56.3325 22.4839 56.2415 22.3929C56.0594 22.2108 55.9229 22.0743 55.9229 21.9832V15.4295L55.2857 15.2475V14.6103C56.196 14.4283 56.6966 14.3372 56.8331 14.3372C56.9697 14.3827 57.1517 14.4738 57.2427 14.6103C57.4248 14.7924 57.5613 14.9289 57.5613 15.0199V21.5736L58.1985 21.7557V22.3929C57.6523 22.4839 57.1517 22.6204 56.6511 22.6659ZM55.8319 11.0149L57.1972 10.9238L57.4703 11.2879L57.3793 12.8353H55.9229L55.8319 11.0149ZM62.249 22.6659C61.7484 22.6659 61.2933 22.5294 60.8837 22.2563C60.4286 21.9377 60.0645 21.4826 59.8824 20.9365C59.6094 20.2538 59.4728 19.4801 59.4728 18.7519C59.4728 18.2513 59.5183 17.7051 59.5638 17.2045C59.6094 16.7949 59.7004 16.4308 59.8824 16.0667C60.2465 15.6571 60.7016 15.2475 61.1568 14.9744C61.5664 14.6558 62.0215 14.4283 62.4766 14.2917C62.7042 14.2917 63.7509 14.4283 65.6169 14.7013V21.4371L66.2086 21.6647V22.3018C65.2528 22.4839 64.7522 22.5749 64.6157 22.5749C64.4791 22.5294 64.3881 22.4384 64.2971 22.3473C64.115 22.1653 64.024 22.0288 64.024 21.9832V21.2551C63.933 21.3006 63.6599 21.5281 63.1138 21.9832C62.8862 22.3473 62.5676 22.5294 62.249 22.6659ZM62.3401 21.3461C62.8862 21.164 63.4324 20.9365 63.9785 20.6179V15.7026C63.6144 15.6116 63.2048 15.5205 62.7952 15.475C62.4766 15.4295 62.158 15.384 61.8394 15.384C61.6119 15.384 61.4298 15.6571 61.3388 16.1577C61.2023 16.9769 61.1568 17.8417 61.1568 18.7064C61.1568 19.207 61.2023 19.7532 61.3388 20.2538C61.4298 20.5724 61.6119 20.891 61.8394 21.164C61.976 21.2095 62.158 21.3006 62.3401 21.3461ZM68.6662 22.6659C68.5297 22.6204 68.3932 22.5294 68.3021 22.4384C68.2111 22.3473 68.1201 22.2108 68.0746 22.0743V15.5205L67.4374 15.2475V14.5648C68.3932 14.3827 68.9848 14.2917 69.0758 14.2917C69.1669 14.2917 69.2579 14.3827 69.3944 14.5193C69.531 14.7013 69.622 14.7924 69.622 14.8379V15.5205C69.9861 15.2475 70.3502 14.9744 70.7598 14.7013C70.9874 14.5193 71.2149 14.3827 71.488 14.2462C72.2162 14.2007 72.8989 14.4283 73.445 14.9289C73.9001 15.384 74.1277 16.1577 74.1277 17.25V21.3461L74.7648 21.6192V22.2563C73.7636 22.4384 73.2174 22.5294 73.1264 22.5294C73.0354 22.5294 72.9444 22.4384 72.7623 22.3018C72.5803 22.1653 72.4892 22.0288 72.4892 21.9377V17.341C72.4892 16.5673 72.3982 16.1122 72.1707 15.9301C71.9886 15.7481 71.7155 15.6571 71.4425 15.6571C71.1239 15.7026 70.8053 15.8391 70.5322 15.9757C70.2592 16.0667 69.9861 16.2032 69.713 16.3398V21.4826L70.3047 21.7557V22.3929C69.7585 22.4839 69.2124 22.6204 68.6662 22.6659ZM87.8723 25.7607C87.8268 25.7607 87.6903 25.6697 87.5082 25.5332C87.3262 25.3967 87.2351 25.2601 87.2351 25.1691L87.3262 21.4371H87.2351C87.0986 21.5281 86.9621 21.6192 86.8255 21.7102C86.689 21.8012 86.598 21.8922 86.4614 21.9377C86.1429 22.2108 85.8243 22.4384 85.4602 22.6659C84.9595 22.6659 84.5044 22.5294 84.0948 22.2563C83.6397 21.9377 83.2301 21.4826 83.048 20.9365C82.775 20.2538 82.6384 19.5711 82.6384 18.8429C82.6384 18.2968 82.6839 17.7506 82.7295 17.2045C82.775 16.7949 82.866 16.4308 83.048 16.0667C83.4121 15.6571 83.8672 15.2475 84.3224 14.9744C84.732 14.6558 85.1871 14.4283 85.6422 14.2917C85.7788 14.2917 86.2794 14.3372 87.0531 14.4283C87.8723 14.5193 88.4185 14.6103 88.737 14.6558V24.5319L89.3742 24.7595V25.3967C88.5095 25.6697 87.9178 25.7607 87.8723 25.7607ZM85.5967 21.3461C86.1429 21.164 86.689 20.891 87.2351 20.6179V15.7026C86.871 15.6116 86.4614 15.5205 86.0518 15.475C85.7332 15.4295 85.4147 15.384 85.0961 15.384C84.8685 15.384 84.6865 15.6571 84.5954 16.1577C84.4589 16.9769 84.4134 17.8417 84.4134 18.7064C84.4134 19.207 84.4589 19.7532 84.5954 20.2538C84.6865 20.5724 84.8685 20.891 85.0961 21.164C85.1871 21.2095 85.3691 21.3461 85.5967 21.3461ZM91.9229 22.6659C91.7863 22.5749 91.6043 22.4839 91.5133 22.3929C91.3312 22.2108 91.1947 22.0743 91.1947 21.9832V15.4295L90.5575 15.2475V14.6103C91.4678 14.4283 91.9684 14.3372 92.1049 14.3372C92.2415 14.3827 92.4235 14.4738 92.5145 14.6103C92.6966 14.7924 92.8331 14.9289 92.8331 15.0199V21.5736L93.4703 21.7557V22.3929C92.9241 22.5294 92.4235 22.6204 91.9229 22.6659ZM91.0581 11.0149L92.4235 10.9238L92.6966 11.2879L92.6056 12.8353H91.1947L91.0581 11.0149ZM95.4728 22.6659C95.3363 22.6204 95.1997 22.5749 95.1087 22.4384C94.9722 22.3018 94.8812 22.1653 94.8812 22.0743V20.5724L95.6093 20.4358C95.7914 20.3903 95.9734 20.3903 96.1555 20.3448C96.201 20.3448 96.3375 20.4358 96.4741 20.5724C96.6106 20.7089 96.7016 20.8454 96.7016 20.891L96.6106 22.3929C96.3831 22.4384 96.1555 22.4839 95.9734 22.5294C95.7914 22.6659 95.6549 22.6659 95.4728 22.6659ZM100.843 22.6659C100.388 22.6659 99.9785 22.5294 99.6144 22.2563C99.1593 21.9377 98.8407 21.4826 98.6587 20.982C98.3856 20.2993 98.2946 19.5711 98.2946 18.8884C98.2946 18.3423 98.3401 17.7961 98.3856 17.25C98.4311 16.8404 98.5221 16.4763 98.7042 16.1122C98.9317 15.8391 99.1593 15.6116 99.4324 15.4295C99.7965 15.1564 100.161 14.8834 100.57 14.6558C100.798 14.4738 101.071 14.3827 101.344 14.3372C102.027 14.3372 102.664 14.4738 103.301 14.7013L103.255 17.0224H102.163L101.936 15.7936C101.753 15.7026 101.571 15.6571 101.389 15.6116C101.207 15.5661 100.98 15.5205 100.798 15.5205C100.707 15.5205 100.616 15.5205 100.57 15.6116C100.388 15.7481 100.297 16.1122 100.161 16.6583C100.07 17.341 100.024 18.0692 100.024 18.7519C100.024 19.298 100.07 19.7987 100.206 20.2993C100.297 20.6179 100.479 20.9365 100.707 21.2095C100.843 21.3916 101.071 21.4826 101.253 21.4826H103.301V22.2563C102.891 22.3929 102.391 22.5294 101.89 22.6659C101.389 22.8025 100.934 22.6659 100.843 22.6659ZM108.171 22.6659C106.942 22.6659 105.986 22.3473 105.394 21.7102C104.803 21.073 104.484 20.0717 104.484 18.7519C104.484 18.2513 104.53 17.7051 104.575 17.2045C104.621 16.7949 104.712 16.4308 104.894 16.0667C105.121 15.7936 105.349 15.5661 105.622 15.3385C106.032 15.0654 106.396 14.7923 106.76 14.5193C106.987 14.3372 107.26 14.2007 107.579 14.1552C108.808 14.1552 109.673 14.5193 110.31 15.1564C110.947 15.7936 111.22 16.7494 111.22 17.9782C111.22 18.5243 111.174 19.0705 111.083 19.6166C111.038 20.0262 110.947 20.4358 110.81 20.8454C110.446 21.2551 109.991 21.6647 109.491 21.9377C109.081 22.3018 108.626 22.5749 108.171 22.6659ZM108.262 21.6192C108.353 21.5736 108.671 21.4371 109.172 21.164C109.399 20.2083 109.491 19.207 109.491 18.2058C109.536 17.432 109.354 16.7039 108.99 16.0212C108.671 15.475 108.08 15.202 107.488 15.202C107.26 15.202 106.987 15.2475 106.76 15.384C106.578 15.475 106.441 15.7936 106.35 16.3398C106.214 17.0224 106.168 17.7506 106.168 18.4333C106.168 19.6166 106.35 20.4358 106.76 20.891C107.124 21.3916 107.67 21.6647 108.262 21.6192ZM113.723 22.6659C113.587 22.6204 113.45 22.5294 113.359 22.4384C113.268 22.3473 113.177 22.2108 113.131 22.0743V15.5205L112.494 15.2475V14.5648C113.45 14.3827 114.042 14.2917 114.133 14.2917C114.224 14.2917 114.315 14.3827 114.451 14.5193C114.588 14.7013 114.679 14.7924 114.679 14.8379V15.5205C114.997 15.2475 115.316 14.9744 115.68 14.7013C115.862 14.5193 116.044 14.3827 116.272 14.2462C116.772 14.2462 117.273 14.3372 117.728 14.5193C118.138 14.7013 118.456 15.0654 118.593 15.5205C118.866 15.2475 119.185 14.9744 119.503 14.7013C119.685 14.5193 119.867 14.3827 120.049 14.2462C120.823 14.2007 121.597 14.4283 122.188 14.9289C122.689 15.384 122.917 16.1577 122.917 17.25V21.3461L123.508 21.6192V22.2563C122.552 22.4384 121.961 22.5294 121.87 22.5294C121.779 22.5294 121.688 22.4384 121.506 22.3018C121.324 22.1653 121.233 22.0288 121.233 21.9377V17.341C121.233 16.5673 121.096 16.1122 120.869 15.9301C120.641 15.7481 120.368 15.6571 120.095 15.6571C119.594 15.8391 119.139 16.0667 118.729 16.3398V21.4826L119.321 21.7557V22.3929C118.365 22.5749 117.774 22.6659 117.683 22.6659C117.592 22.6659 117.501 22.5749 117.319 22.4384C117.137 22.3018 117.046 22.1653 117.046 22.0743V17.341C117.046 16.5673 116.954 16.1122 116.727 15.9301C116.545 15.7481 116.272 15.6571 115.999 15.6571C115.498 15.8391 114.997 16.0667 114.542 16.3398V21.4826L115.134 21.7557V22.3929C114.724 22.5294 114.224 22.6204 113.723 22.6659Z" fill="#FFFBF2"/>
<path d="M76.4909 24.5705L76.0358 24.4794L75.7628 24.889L76.2634 25.5717C76.2634 25.5717 77.5832 25.7993 78.448 25.8903C78.8576 25.9358 79.2217 25.7993 79.5403 25.5262C79.9499 25.1621 80.2685 24.7525 80.5415 24.2974C80.8146 23.9333 80.9966 23.5237 81.0422 23.0686V14.8764C80.6325 14.8309 80.0864 14.7399 79.3582 14.6488C78.63 14.5578 78.2204 14.4668 78.0839 14.4668C77.5832 14.6033 77.1281 14.8309 76.764 15.195C76.2634 15.4681 75.8083 15.8322 75.4442 16.2418C75.3076 16.6059 75.2166 16.97 75.1711 17.3341C75.1256 17.7437 75.0801 18.1533 75.0801 18.5629C75.0801 19.2 75.1711 19.8827 75.3987 20.4744C75.5807 20.9295 75.8538 21.3846 76.2179 21.7032C76.4454 21.9308 76.764 22.1128 77.1281 22.1583L78.9941 21.8853C79.1306 21.7487 79.2672 21.6122 79.4492 21.4756L79.5403 21.5212V22.4314C79.5403 23.0231 79.4947 23.6602 79.4037 24.2519C79.3127 24.8435 78.8576 24.8435 78.7666 24.889L76.4909 24.5705ZM79.4492 20.5654C79.0396 20.884 78.63 21.1571 78.1294 21.3846C77.9018 21.3846 77.7198 21.2936 77.5832 21.1571C77.3557 20.9295 77.1736 20.6109 77.0371 20.2923C76.855 19.7917 76.764 19.2456 76.8095 18.6994C76.8095 16.8334 77.0371 15.7866 77.5377 15.6501C77.5832 15.6501 77.6287 15.6501 77.7198 15.6501C77.9928 15.6501 78.2659 15.6956 78.539 15.7866C78.8576 15.8322 79.1306 15.9232 79.4492 16.0142V20.5654Z" fill="#FFFBF2"/>
<path d="M81.089 14.8809H79.4961L79.7237 14.4258H80.9525L81.089 14.8809Z" fill="#FFFBF2"/>
</svg>
